<svg width="1120" height="396" viewBox="0 0 1120 396" fill="none" xmlns="http://www.w3.org/2000/svg">
<rect width="560" height="198" transform="scale(2)" fill="white"/>
<rect x="284" y="55.963" width="116" height="53.1482" stroke="black"/>
<path d="M322.112 91.9532V79.1153H319.775V77.1602H322.112V75.6427C322.112 74.0567 322.536 72.8308 323.384 71.9649C324.232 71.099 325.43 70.6661 326.98 70.6661C327.563 70.6661 328.142 70.7436 328.716 70.8985L328.579 72.9493C328.151 72.8673 327.695 72.8263 327.212 72.8263C326.392 72.8263 325.758 73.0678 325.312 73.5509C324.865 74.0248 324.642 74.7084 324.642 75.6017V77.1602H327.8V79.1153H324.642V91.9532H322.112ZM337.753 79.4298C337.37 79.366 336.956 79.3341 336.509 79.3341C334.85 79.3341 333.724 80.0405 333.132 81.4532V91.9532H330.603V77.1602H333.064L333.105 78.8692C333.934 77.5476 335.11 76.8868 336.632 76.8868C337.124 76.8868 337.498 76.9506 337.753 77.0782V79.4298ZM349.224 90.4903C348.239 91.6479 346.795 92.2267 344.89 92.2267C343.313 92.2267 342.11 91.7709 341.28 90.8595C340.46 89.9389 340.045 88.5808 340.036 86.7852V77.1602H342.566V86.7169C342.566 88.9591 343.477 90.0802 345.3 90.0802C347.232 90.0802 348.517 89.3601 349.155 87.92V77.1602H351.685V91.9532H349.278L349.224 90.4903ZM358.288 91.9532H355.759V77.1602H358.288V91.9532ZM355.554 73.2364C355.554 72.8263 355.677 72.4799 355.923 72.1974C356.178 71.9148 356.552 71.7735 357.044 71.7735C357.536 71.7735 357.91 71.9148 358.165 72.1974C358.42 72.4799 358.548 72.8263 358.548 73.2364C358.548 73.6466 358.42 73.9884 358.165 74.2618C357.91 74.5352 357.536 74.672 357.044 74.672C356.552 74.672 356.178 74.5352 355.923 74.2618C355.677 73.9884 355.554 73.6466 355.554 73.2364ZM365.78 73.5782V77.1602H368.542V79.1153H365.78V88.2892C365.78 88.8816 365.903 89.3282 366.15 89.629C366.396 89.9207 366.815 90.0665 367.407 90.0665C367.699 90.0665 368.1 90.0118 368.61 89.9024V91.9532C367.945 92.1355 367.298 92.2267 366.669 92.2267C365.539 92.2267 364.687 91.8849 364.112 91.2013C363.538 90.5177 363.251 89.547 363.251 88.2892V79.1153H360.558V77.1602H363.251V73.5782H365.78Z" fill="black"/>
<rect x="284" y="109.111" width="116" height="53.1482" stroke="black"/>
<path d="M329.099 141.888L332.763 130.527H335.347L330.042 145.32H328.114L322.755 130.527H325.339L329.099 141.888ZM343.728 145.593C341.722 145.593 340.091 144.937 338.833 143.625C337.575 142.303 336.946 140.539 336.946 138.334V137.869C336.946 136.401 337.224 135.093 337.78 133.945C338.345 132.787 339.129 131.885 340.132 131.238C341.144 130.582 342.237 130.254 343.413 130.254C345.336 130.254 346.831 130.887 347.898 132.154C348.964 133.421 349.497 135.235 349.497 137.595V138.648H339.476C339.512 140.106 339.936 141.287 340.747 142.189C341.567 143.082 342.607 143.529 343.864 143.529C344.758 143.529 345.514 143.347 346.134 142.982C346.754 142.617 347.296 142.134 347.761 141.533L349.306 142.736C348.066 144.641 346.207 145.593 343.728 145.593ZM343.413 132.332C342.392 132.332 341.536 132.705 340.843 133.453C340.15 134.191 339.722 135.23 339.558 136.57H346.968V136.379C346.895 135.093 346.549 134.1 345.929 133.398C345.309 132.687 344.47 132.332 343.413 132.332ZM351.835 137.8C351.835 135.494 352.368 133.662 353.435 132.304C354.501 130.937 355.914 130.254 357.673 130.254C359.478 130.254 360.886 130.892 361.898 132.168L362.021 130.527H364.331V144.964C364.331 146.879 363.761 148.387 362.622 149.49C361.492 150.593 359.97 151.144 358.056 151.144C356.989 151.144 355.946 150.916 354.925 150.461C353.904 150.005 353.125 149.38 352.587 148.587L353.9 147.07C354.984 148.41 356.31 149.08 357.878 149.08C359.108 149.08 360.066 148.733 360.749 148.041C361.442 147.348 361.788 146.373 361.788 145.115V143.843C360.776 145.01 359.396 145.593 357.646 145.593C355.914 145.593 354.51 144.896 353.435 143.502C352.368 142.107 351.835 140.207 351.835 137.8ZM354.378 138.087C354.378 139.755 354.72 141.068 355.403 142.025C356.087 142.973 357.044 143.447 358.275 143.447C359.87 143.447 361.041 142.722 361.788 141.273V134.519C361.013 133.106 359.851 132.4 358.302 132.4C357.071 132.4 356.11 132.879 355.417 133.836C354.724 134.793 354.378 136.21 354.378 138.087Z" fill="black"/>
<rect x="284" y="162" width="116" height="54" stroke="black"/>
<path d="M322.223 198.646V185.808H319.886V183.853H322.223V182.336C322.223 180.75 322.647 179.524 323.495 178.658C324.343 177.792 325.541 177.359 327.091 177.359C327.674 177.359 328.253 177.436 328.827 177.591L328.69 179.642C328.262 179.56 327.806 179.519 327.323 179.519C326.503 179.519 325.869 179.761 325.423 180.244C324.976 180.718 324.753 181.401 324.753 182.295V183.853H327.911V185.808H324.753V198.646H322.223ZM337.864 186.123C337.481 186.059 337.067 186.027 336.62 186.027C334.961 186.027 333.835 186.733 333.243 188.146V198.646H330.714V183.853H333.175L333.216 185.562C334.045 184.24 335.221 183.58 336.743 183.58C337.235 183.58 337.609 183.643 337.864 183.771V186.123ZM349.335 197.183C348.35 198.341 346.906 198.92 345.001 198.92C343.424 198.92 342.221 198.464 341.391 197.552C340.571 196.632 340.156 195.274 340.147 193.478V183.853H342.677V193.41C342.677 195.652 343.588 196.773 345.411 196.773C347.343 196.773 348.628 196.053 349.266 194.613V183.853H351.796V198.646H349.39L349.335 197.183ZM358.399 198.646H355.87V183.853H358.399V198.646ZM355.665 179.929C355.665 179.519 355.788 179.173 356.034 178.89C356.289 178.608 356.663 178.466 357.155 178.466C357.647 178.466 358.021 178.608 358.276 178.89C358.531 179.173 358.659 179.519 358.659 179.929C358.659 180.339 358.531 180.681 358.276 180.955C358.021 181.228 357.647 181.365 357.155 181.365C356.663 181.365 356.289 181.228 356.034 180.955C355.788 180.681 355.665 180.339 355.665 179.929ZM365.891 180.271V183.853H368.653V185.808H365.891V194.982C365.891 195.574 366.015 196.021 366.261 196.322C366.507 196.614 366.926 196.759 367.518 196.759C367.81 196.759 368.211 196.705 368.722 196.595V198.646C368.056 198.828 367.409 198.92 366.78 198.92C365.65 198.92 364.798 198.578 364.223 197.894C363.649 197.211 363.362 196.24 363.362 194.982V185.808H360.669V183.853H363.362V180.271H365.891Z" fill="black"/>
<path d="M208.041 144.209C208.944 144.209 209.732 143.936 210.407 143.389C211.081 142.842 211.455 142.158 211.528 141.338H213.92C213.875 142.186 213.583 142.992 213.045 143.758C212.507 144.523 211.787 145.134 210.885 145.59C209.992 146.046 209.044 146.273 208.041 146.273C206.027 146.273 204.423 145.604 203.229 144.264C202.044 142.915 201.452 141.074 201.452 138.74V138.316C201.452 136.876 201.716 135.596 202.244 134.475C202.773 133.354 203.53 132.483 204.514 131.863C205.507 131.243 206.679 130.934 208.028 130.934C209.687 130.934 211.063 131.43 212.157 132.424C213.259 133.417 213.847 134.707 213.92 136.293H211.528C211.455 135.336 211.09 134.552 210.434 133.941C209.787 133.322 208.985 133.012 208.028 133.012C206.743 133.012 205.744 133.477 205.034 134.406C204.332 135.327 203.981 136.662 203.981 138.412V138.891C203.981 140.595 204.332 141.908 205.034 142.828C205.735 143.749 206.738 144.209 208.041 144.209ZM225.897 146C225.751 145.708 225.632 145.189 225.541 144.441C224.366 145.663 222.962 146.273 221.33 146.273C219.872 146.273 218.674 145.863 217.735 145.043C216.805 144.214 216.34 143.165 216.34 141.898C216.34 140.358 216.924 139.164 218.09 138.316C219.266 137.46 220.916 137.031 223.039 137.031H225.5V135.869C225.5 134.985 225.236 134.283 224.707 133.764C224.179 133.235 223.399 132.971 222.369 132.971C221.467 132.971 220.711 133.199 220.1 133.654C219.489 134.11 219.184 134.661 219.184 135.309H216.641C216.641 134.57 216.901 133.859 217.42 133.176C217.949 132.483 218.66 131.936 219.553 131.535C220.455 131.134 221.444 130.934 222.52 130.934C224.224 130.934 225.56 131.362 226.526 132.219C227.492 133.066 227.993 134.238 228.03 135.732V142.541C228.03 143.899 228.203 144.979 228.549 145.781V146H225.897ZM221.7 144.072C222.493 144.072 223.244 143.867 223.955 143.457C224.666 143.047 225.181 142.514 225.5 141.857V138.822H223.518C220.419 138.822 218.869 139.729 218.869 141.543C218.869 142.336 219.134 142.956 219.662 143.402C220.191 143.849 220.87 144.072 221.7 144.072ZM239.145 133.477C238.762 133.413 238.347 133.381 237.901 133.381C236.242 133.381 235.116 134.087 234.524 135.5V146H231.994V131.207H234.455L234.496 132.916C235.326 131.594 236.502 130.934 238.024 130.934C238.516 130.934 238.89 130.997 239.145 131.125V133.477ZM248.633 133.477C248.25 133.413 247.836 133.381 247.389 133.381C245.73 133.381 244.605 134.087 244.012 135.5V146H241.483V131.207H243.944L243.985 132.916C244.814 131.594 245.99 130.934 247.512 130.934C248.004 130.934 248.378 130.997 248.633 131.125V133.477ZM250.028 138.467C250.028 137.018 250.31 135.714 250.875 134.557C251.45 133.399 252.243 132.506 253.254 131.877C254.275 131.248 255.437 130.934 256.741 130.934C258.755 130.934 260.382 131.631 261.621 133.025C262.87 134.42 263.494 136.275 263.494 138.59V138.768C263.494 140.208 263.216 141.502 262.66 142.65C262.114 143.79 261.325 144.678 260.295 145.316C259.274 145.954 258.099 146.273 256.768 146.273C254.763 146.273 253.136 145.576 251.887 144.182C250.647 142.787 250.028 140.941 250.028 138.645V138.467ZM252.571 138.768C252.571 140.408 252.949 141.725 253.705 142.719C254.471 143.712 255.492 144.209 256.768 144.209C258.053 144.209 259.074 143.708 259.83 142.705C260.587 141.693 260.965 140.281 260.965 138.467C260.965 136.844 260.578 135.532 259.803 134.529C259.037 133.518 258.017 133.012 256.741 133.012C255.492 133.012 254.485 133.508 253.719 134.502C252.953 135.495 252.571 136.917 252.571 138.768ZM270.098 127.625V131.207H272.86V133.162H270.098V142.336C270.098 142.928 270.221 143.375 270.467 143.676C270.713 143.967 271.132 144.113 271.725 144.113C272.017 144.113 272.418 144.059 272.928 143.949V146C272.263 146.182 271.616 146.273 270.987 146.273C269.856 146.273 269.004 145.932 268.43 145.248C267.856 144.564 267.569 143.594 267.569 142.336V133.162H264.875V131.207H267.569V127.625H270.098Z" fill="#F2994A"/>
<path d="M225.643 198.593H223.113V177.593H225.643V198.593ZM232.451 198.593H229.922V183.8H232.451V198.593ZM229.717 179.876C229.717 179.466 229.84 179.119 230.086 178.837C230.341 178.554 230.715 178.413 231.207 178.413C231.699 178.413 232.073 178.554 232.328 178.837C232.583 179.119 232.711 179.466 232.711 179.876C232.711 180.286 232.583 180.628 232.328 180.901C232.073 181.175 231.699 181.311 231.207 181.311C230.715 181.311 230.341 181.175 230.086 180.901C229.84 180.628 229.717 180.286 229.717 179.876ZM238.891 183.8L238.959 185.44C240.044 184.164 241.507 183.526 243.348 183.526C245.417 183.526 246.825 184.319 247.572 185.905C248.064 185.194 248.702 184.62 249.486 184.182C250.279 183.745 251.214 183.526 252.289 183.526C255.534 183.526 257.184 185.244 257.238 188.68V198.593H254.709V188.831C254.709 187.774 254.467 186.985 253.984 186.466C253.501 185.937 252.69 185.673 251.551 185.673C250.612 185.673 249.833 185.955 249.213 186.52C248.593 187.076 248.233 187.828 248.133 188.776V198.593H245.59V188.899C245.59 186.748 244.537 185.673 242.432 185.673C240.773 185.673 239.638 186.379 239.027 187.792V198.593H236.498V183.8H238.891ZM267.205 198.866C265.2 198.866 263.568 198.21 262.311 196.897C261.053 195.576 260.424 193.812 260.424 191.606V191.141C260.424 189.674 260.702 188.366 261.258 187.218C261.823 186.06 262.607 185.158 263.609 184.511C264.621 183.854 265.715 183.526 266.891 183.526C268.814 183.526 270.309 184.16 271.375 185.427C272.441 186.693 272.975 188.507 272.975 190.868V191.921H262.953C262.99 193.379 263.413 194.559 264.225 195.462C265.045 196.355 266.084 196.802 267.342 196.802C268.235 196.802 268.992 196.619 269.611 196.255C270.231 195.89 270.773 195.407 271.238 194.805L272.783 196.009C271.544 197.914 269.684 198.866 267.205 198.866ZM266.891 185.604C265.87 185.604 265.013 185.978 264.32 186.725C263.628 187.464 263.199 188.503 263.035 189.843H270.445V189.651C270.372 188.366 270.026 187.373 269.406 186.671C268.786 185.96 267.948 185.604 266.891 185.604Z" fill="#27AE60"/>
<path d="M389.018 347.816C388.103 347.461 387.133 347.284 386.106 347.284C385.21 347.284 384.547 347.48 384.118 347.872C383.707 348.264 383.502 348.88 383.502 349.72V350.112H388.29V353.332H383.502V364H379.386V353.332H375.718V350.28L379.386 350.112V349.748C379.386 348.945 379.507 348.199 379.75 347.508C379.993 346.817 380.366 346.22 380.87 345.716C381.374 345.193 382.018 344.783 382.802 344.484C383.586 344.185 384.519 344.036 385.602 344.036C386.405 344.036 387.151 344.111 387.842 344.26C388.551 344.409 389.205 344.587 389.802 344.792L389.018 347.816ZM391.527 357.056C391.527 355.899 391.723 354.872 392.115 353.976C392.507 353.061 393.03 352.296 393.683 351.68C394.355 351.064 395.111 350.597 395.951 350.28C396.81 349.944 397.696 349.776 398.611 349.776C399.526 349.776 400.403 349.944 401.243 350.28C402.102 350.597 402.858 351.064 403.511 351.68C404.183 352.296 404.715 353.061 405.107 353.976C405.499 354.872 405.695 355.899 405.695 357.056C405.695 358.213 405.499 359.249 405.107 360.164C404.715 361.06 404.183 361.816 403.511 362.432C402.858 363.048 402.102 363.524 401.243 363.86C400.403 364.177 399.526 364.336 398.611 364.336C397.696 364.336 396.81 364.177 395.951 363.86C395.111 363.524 394.355 363.048 393.683 362.432C393.03 361.816 392.507 361.06 392.115 360.164C391.723 359.249 391.527 358.213 391.527 357.056ZM395.755 357.056C395.755 358.269 395.988 359.231 396.455 359.94C396.94 360.649 397.659 361.004 398.611 361.004C399.563 361.004 400.272 360.649 400.739 359.94C401.224 359.231 401.467 358.269 401.467 357.056C401.467 355.843 401.224 354.881 400.739 354.172C400.272 353.463 399.563 353.108 398.611 353.108C397.659 353.108 396.94 353.463 396.455 354.172C395.988 354.881 395.755 355.843 395.755 357.056ZM408.316 357.056C408.316 355.899 408.512 354.872 408.904 353.976C409.296 353.061 409.819 352.296 410.472 351.68C411.144 351.064 411.9 350.597 412.74 350.28C413.599 349.944 414.485 349.776 415.4 349.776C416.315 349.776 417.192 349.944 418.032 350.28C418.891 350.597 419.647 351.064 420.3 351.68C420.972 352.296 421.504 353.061 421.896 353.976C422.288 354.872 422.484 355.899 422.484 357.056C422.484 358.213 422.288 359.249 421.896 360.164C421.504 361.06 420.972 361.816 420.3 362.432C419.647 363.048 418.891 363.524 418.032 363.86C417.192 364.177 416.315 364.336 415.4 364.336C414.485 364.336 413.599 364.177 412.74 363.86C411.9 363.524 411.144 363.048 410.472 362.432C409.819 361.816 409.296 361.06 408.904 360.164C408.512 359.249 408.316 358.213 408.316 357.056ZM412.544 357.056C412.544 358.269 412.777 359.231 413.244 359.94C413.729 360.649 414.448 361.004 415.4 361.004C416.352 361.004 417.061 360.649 417.528 359.94C418.013 359.231 418.256 358.269 418.256 357.056C418.256 355.843 418.013 354.881 417.528 354.172C417.061 353.463 416.352 353.108 415.4 353.108C414.448 353.108 413.729 353.463 413.244 354.172C412.777 354.881 412.544 355.843 412.544 357.056ZM425.105 357.056C425.105 355.917 425.273 354.9 425.609 354.004C425.945 353.108 426.384 352.352 426.925 351.736C427.485 351.101 428.12 350.616 428.829 350.28C429.538 349.944 430.276 349.776 431.041 349.776C431.844 349.776 432.516 349.916 433.057 350.196C433.598 350.457 434.112 350.812 434.597 351.26L434.457 349.104V344.372H438.573V364H435.213L434.905 362.572H434.821C434.298 363.076 433.701 363.496 433.029 363.832C432.357 364.168 431.666 364.336 430.957 364.336C430.08 364.336 429.277 364.168 428.549 363.832C427.84 363.496 427.224 363.02 426.701 362.404C426.197 361.769 425.805 361.004 425.525 360.108C425.245 359.212 425.105 358.195 425.105 357.056ZM429.333 357C429.333 358.381 429.566 359.389 430.033 360.024C430.5 360.659 431.162 360.976 432.021 360.976C432.488 360.976 432.917 360.883 433.309 360.696C433.701 360.491 434.084 360.155 434.457 359.688V354.06C434.084 353.724 433.701 353.491 433.309 353.36C432.936 353.211 432.544 353.136 432.133 353.136C431.368 353.136 430.705 353.453 430.145 354.088C429.604 354.723 429.333 355.693 429.333 357Z" fill="#4F4F4F"/>
<path d="M226.198 248.209C227.1 248.209 227.888 247.936 228.563 247.389C229.237 246.842 229.611 246.158 229.684 245.338H232.077C232.031 246.186 231.739 246.992 231.202 247.758C230.664 248.523 229.944 249.134 229.041 249.59C228.148 250.046 227.2 250.273 226.198 250.273C224.183 250.273 222.579 249.604 221.385 248.264C220.2 246.915 219.608 245.074 219.608 242.74V242.316C219.608 240.876 219.872 239.596 220.401 238.475C220.929 237.354 221.686 236.483 222.67 235.863C223.664 235.243 224.835 234.934 226.184 234.934C227.843 234.934 229.219 235.43 230.313 236.424C231.416 237.417 232.004 238.707 232.077 240.293H229.684C229.611 239.336 229.246 238.552 228.59 237.941C227.943 237.322 227.141 237.012 226.184 237.012C224.899 237.012 223.901 237.477 223.19 238.406C222.488 239.327 222.137 240.662 222.137 242.412V242.891C222.137 244.595 222.488 245.908 223.19 246.828C223.892 247.749 224.894 248.209 226.198 248.209ZM234.25 242.467C234.25 241.018 234.533 239.714 235.098 238.557C235.672 237.399 236.465 236.506 237.477 235.877C238.498 235.248 239.66 234.934 240.963 234.934C242.978 234.934 244.605 235.631 245.844 237.025C247.093 238.42 247.717 240.275 247.717 242.59V242.768C247.717 244.208 247.439 245.502 246.883 246.65C246.336 247.79 245.548 248.678 244.518 249.316C243.497 249.954 242.321 250.273 240.991 250.273C238.985 250.273 237.358 249.576 236.11 248.182C234.87 246.787 234.25 244.941 234.25 242.645V242.467ZM236.793 242.768C236.793 244.408 237.172 245.725 237.928 246.719C238.694 247.712 239.715 248.209 240.991 248.209C242.276 248.209 243.297 247.708 244.053 246.705C244.81 245.693 245.188 244.281 245.188 242.467C245.188 240.844 244.8 239.532 244.026 238.529C243.26 237.518 242.239 237.012 240.963 237.012C239.715 237.012 238.707 237.508 237.942 238.502C237.176 239.495 236.793 240.917 236.793 242.768ZM258.039 237.477C257.657 237.413 257.242 237.381 256.795 237.381C255.136 237.381 254.011 238.087 253.418 239.5V250H250.889V235.207H253.35L253.391 236.916C254.22 235.594 255.396 234.934 256.918 234.934C257.41 234.934 257.784 234.997 258.039 235.125V237.477ZM262.77 235.207L262.852 237.066C263.982 235.645 265.459 234.934 267.282 234.934C270.408 234.934 271.985 236.697 272.012 240.225V250H269.483V240.211C269.474 239.145 269.228 238.356 268.744 237.846C268.271 237.335 267.528 237.08 266.516 237.08C265.696 237.08 264.976 237.299 264.356 237.736C263.736 238.174 263.253 238.748 262.907 239.459V250H260.377V235.207H262.77Z" fill="#F2C94C"/>
<path d="M173.301 304.273C171.296 304.273 169.664 303.617 168.407 302.305C167.149 300.983 166.52 299.219 166.52 297.014V296.549C166.52 295.081 166.798 293.773 167.354 292.625C167.919 291.467 168.703 290.565 169.705 289.918C170.717 289.262 171.811 288.934 172.987 288.934C174.91 288.934 176.405 289.567 177.471 290.834C178.537 292.101 179.071 293.915 179.071 296.275V297.328H169.049C169.086 298.786 169.509 299.967 170.321 300.869C171.141 301.762 172.18 302.209 173.438 302.209C174.331 302.209 175.088 302.027 175.707 301.662C176.327 301.298 176.869 300.814 177.334 300.213L178.879 301.416C177.64 303.321 175.78 304.273 173.301 304.273ZM172.987 291.012C171.966 291.012 171.109 291.385 170.416 292.133C169.724 292.871 169.295 293.91 169.131 295.25H176.541V295.059C176.468 293.773 176.122 292.78 175.502 292.078C174.882 291.367 174.044 291.012 172.987 291.012ZM181.409 296.48C181.409 294.174 181.942 292.342 183.008 290.984C184.075 289.617 185.487 288.934 187.246 288.934C189.051 288.934 190.459 289.572 191.471 290.848L191.594 289.207H193.905V303.645C193.905 305.559 193.335 307.067 192.196 308.17C191.065 309.273 189.543 309.824 187.629 309.824C186.563 309.824 185.519 309.596 184.498 309.141C183.478 308.685 182.698 308.061 182.16 307.268L183.473 305.75C184.558 307.09 185.884 307.76 187.451 307.76C188.682 307.76 189.639 307.413 190.323 306.721C191.015 306.028 191.362 305.053 191.362 303.795V302.523C190.35 303.69 188.969 304.273 187.219 304.273C185.487 304.273 184.084 303.576 183.008 302.182C181.942 300.787 181.409 298.887 181.409 296.48ZM183.951 296.768C183.951 298.436 184.293 299.748 184.977 300.705C185.66 301.653 186.618 302.127 187.848 302.127C189.443 302.127 190.614 301.402 191.362 299.953V293.199C190.587 291.786 189.425 291.08 187.875 291.08C186.645 291.08 185.683 291.559 184.991 292.516C184.298 293.473 183.951 294.89 183.951 296.768ZM197.131 296.48C197.131 294.174 197.664 292.342 198.731 290.984C199.797 289.617 201.21 288.934 202.969 288.934C204.774 288.934 206.182 289.572 207.194 290.848L207.317 289.207H209.627V303.645C209.627 305.559 209.058 307.067 207.918 308.17C206.788 309.273 205.266 309.824 203.352 309.824C202.285 309.824 201.242 309.596 200.221 309.141C199.2 308.685 198.421 308.061 197.883 307.268L199.196 305.75C200.28 307.09 201.606 307.76 203.174 307.76C204.405 307.76 205.362 307.413 206.045 306.721C206.738 306.028 207.084 305.053 207.084 303.795V302.523C206.073 303.69 204.692 304.273 202.942 304.273C201.21 304.273 199.806 303.576 198.731 302.182C197.664 300.787 197.131 298.887 197.131 296.48ZM199.674 296.768C199.674 298.436 200.016 299.748 200.7 300.705C201.383 301.653 202.34 302.127 203.571 302.127C205.166 302.127 206.337 301.402 207.084 299.953V293.199C206.31 291.786 205.147 291.08 203.598 291.08C202.368 291.08 201.406 291.559 200.713 292.516C200.021 293.473 199.674 294.89 199.674 296.768ZM225.951 296.768C225.951 299.019 225.437 300.833 224.407 302.209C223.377 303.585 221.982 304.273 220.223 304.273C218.427 304.273 217.015 303.704 215.985 302.564V309.688H213.455V289.207H215.766L215.889 290.848C216.919 289.572 218.35 288.934 220.182 288.934C221.959 288.934 223.363 289.604 224.393 290.943C225.432 292.283 225.951 294.147 225.951 296.535V296.768ZM223.422 296.48C223.422 294.812 223.067 293.495 222.356 292.529C221.645 291.563 220.67 291.08 219.43 291.08C217.899 291.08 216.75 291.759 215.985 293.117V300.186C216.741 301.535 217.899 302.209 219.457 302.209C220.67 302.209 221.631 301.73 222.342 300.773C223.062 299.807 223.422 298.376 223.422 296.48ZM231.926 304H229.397V283H231.926V304ZM245.119 304C244.974 303.708 244.855 303.189 244.764 302.441C243.588 303.663 242.185 304.273 240.553 304.273C239.095 304.273 237.896 303.863 236.957 303.043C236.028 302.214 235.563 301.165 235.563 299.898C235.563 298.358 236.146 297.164 237.313 296.316C238.489 295.46 240.138 295.031 242.262 295.031H244.723V293.869C244.723 292.985 244.459 292.283 243.93 291.764C243.401 291.235 242.622 290.971 241.592 290.971C240.69 290.971 239.933 291.199 239.323 291.654C238.712 292.11 238.407 292.661 238.407 293.309H235.864C235.864 292.57 236.123 291.859 236.643 291.176C237.172 290.483 237.882 289.936 238.776 289.535C239.678 289.134 240.667 288.934 241.743 288.934C243.447 288.934 244.782 289.362 245.748 290.219C246.715 291.066 247.216 292.238 247.252 293.732V300.541C247.252 301.899 247.425 302.979 247.772 303.781V304H245.119ZM240.922 302.072C241.715 302.072 242.467 301.867 243.178 301.457C243.889 301.047 244.404 300.514 244.723 299.857V296.822H242.741C239.642 296.822 238.092 297.729 238.092 299.543C238.092 300.336 238.356 300.956 238.885 301.402C239.414 301.849 240.093 302.072 240.922 302.072ZM253.61 289.207L253.692 291.066C254.822 289.645 256.298 288.934 258.121 288.934C261.248 288.934 262.825 290.697 262.852 294.225V304H260.323V294.211C260.313 293.145 260.067 292.356 259.584 291.846C259.11 291.335 258.368 291.08 257.356 291.08C256.535 291.08 255.815 291.299 255.196 291.736C254.576 292.174 254.093 292.748 253.746 293.459V304H251.217V289.207H253.61ZM270.098 285.625V289.207H272.86V291.162H270.098V300.336C270.098 300.928 270.221 301.375 270.467 301.676C270.713 301.967 271.132 302.113 271.725 302.113C272.017 302.113 272.418 302.059 272.928 301.949V304C272.263 304.182 271.616 304.273 270.987 304.273C269.856 304.273 269.004 303.932 268.43 303.248C267.856 302.564 267.569 301.594 267.569 300.336V291.162H264.875V289.207H267.569V285.625H270.098Z" fill="#9B51E0"/>
<path d="M189.762 73.625V77.207H192.524V79.1621H189.762V88.3359C189.762 88.9284 189.885 89.375 190.131 89.6758C190.377 89.9674 190.797 90.1133 191.389 90.1133C191.681 90.1133 192.082 90.0586 192.592 89.9492V92C191.927 92.1823 191.28 92.2734 190.651 92.2734C189.521 92.2734 188.668 91.9316 188.094 91.248C187.52 90.5645 187.233 89.5938 187.233 88.3359V79.1621H184.539V77.207H187.233V73.625H189.762ZM194.547 84.4668C194.547 83.0176 194.83 81.7142 195.395 80.5566C195.969 79.3991 196.762 78.5059 197.774 77.877C198.795 77.248 199.957 76.9336 201.26 76.9336C203.274 76.9336 204.901 77.6309 206.141 79.0254C207.39 80.4199 208.014 82.2747 208.014 84.5898V84.7676C208.014 86.2077 207.736 87.502 207.18 88.6504C206.633 89.7897 205.845 90.6784 204.815 91.3164C203.794 91.9544 202.618 92.2734 201.287 92.2734C199.282 92.2734 197.655 91.5762 196.407 90.1816C195.167 88.7871 194.547 86.9414 194.547 84.6445V84.4668ZM197.09 84.7676C197.09 86.4082 197.468 87.7253 198.225 88.7188C198.991 89.7122 200.011 90.209 201.287 90.209C202.573 90.209 203.593 89.7077 204.35 88.7051C205.106 87.6934 205.485 86.2806 205.485 84.4668C205.485 82.8444 205.097 81.5319 204.323 80.5293C203.557 79.5176 202.536 79.0117 201.26 79.0117C200.011 79.0117 199.004 79.5085 198.239 80.502C197.473 81.4954 197.09 82.9173 197.09 84.7676ZM213.565 77.207L213.633 78.8477C214.718 77.5716 216.181 76.9336 218.022 76.9336C220.091 76.9336 221.499 77.7266 222.246 79.3125C222.739 78.6016 223.377 78.0273 224.16 77.5898C224.953 77.1523 225.888 76.9336 226.963 76.9336C230.208 76.9336 231.858 78.6517 231.912 82.0879V92H229.383V82.2383C229.383 81.181 229.142 80.3926 228.659 79.873C228.175 79.3444 227.364 79.0801 226.225 79.0801C225.286 79.0801 224.507 79.3626 223.887 79.9277C223.267 80.4837 222.907 81.2357 222.807 82.1836V92H220.264V82.3066C220.264 80.1556 219.211 79.0801 217.106 79.0801C215.447 79.0801 214.312 79.7865 213.702 81.1992V92H211.172V77.207H213.565ZM244.873 92C244.728 91.7083 244.609 91.1888 244.518 90.4414C243.342 91.6628 241.938 92.2734 240.307 92.2734C238.849 92.2734 237.65 91.8633 236.711 91.043C235.782 90.2135 235.317 89.1654 235.317 87.8984C235.317 86.3581 235.9 85.1641 237.067 84.3164C238.243 83.4596 239.892 83.0312 242.016 83.0312H244.477V81.8691C244.477 80.985 244.213 80.2832 243.684 79.7637C243.155 79.235 242.376 78.9707 241.346 78.9707C240.444 78.9707 239.687 79.1986 239.077 79.6543C238.466 80.11 238.16 80.6615 238.16 81.3086H235.618C235.618 80.5703 235.877 79.8594 236.397 79.1758C236.925 78.4831 237.636 77.9362 238.53 77.5352C239.432 77.1341 240.421 76.9336 241.496 76.9336C243.201 76.9336 244.536 77.362 245.502 78.2188C246.468 79.0664 246.97 80.2376 247.006 81.7324V88.541C247.006 89.8991 247.179 90.9792 247.526 91.7812V92H244.873ZM240.676 90.0723C241.469 90.0723 242.221 89.8672 242.932 89.457C243.643 89.0469 244.158 88.5137 244.477 87.8574V84.8223H242.494C239.396 84.8223 237.846 85.7292 237.846 87.543C237.846 88.3359 238.11 88.9557 238.639 89.4023C239.168 89.849 239.847 90.0723 240.676 90.0723ZM254.403 73.625V77.207H257.164V79.1621H254.403V88.3359C254.403 88.9284 254.526 89.375 254.772 89.6758C255.018 89.9674 255.437 90.1133 256.03 90.1133C256.321 90.1133 256.722 90.0586 257.233 89.9492V92C256.567 92.1823 255.92 92.2734 255.291 92.2734C254.161 92.2734 253.309 91.9316 252.735 91.248C252.16 90.5645 251.873 89.5938 251.873 88.3359V79.1621H249.18V77.207H251.873V73.625H254.403ZM259.188 84.4668C259.188 83.0176 259.47 81.7142 260.035 80.5566C260.61 79.3991 261.403 78.5059 262.414 77.877C263.435 77.248 264.597 76.9336 265.901 76.9336C267.915 76.9336 269.542 77.6309 270.782 79.0254C272.03 80.4199 272.655 82.2747 272.655 84.5898V84.7676C272.655 86.2077 272.377 87.502 271.821 88.6504C271.274 89.7897 270.485 90.6784 269.455 91.3164C268.435 91.9544 267.259 92.2734 265.928 92.2734C263.923 92.2734 262.296 91.5762 261.047 90.1816C259.808 88.7871 259.188 86.9414 259.188 84.6445V84.4668ZM261.731 84.7676C261.731 86.4082 262.109 87.7253 262.866 88.7188C263.631 89.7122 264.652 90.209 265.928 90.209C267.213 90.209 268.234 89.7077 268.991 88.7051C269.747 87.6934 270.125 86.2806 270.125 84.4668C270.125 82.8444 269.738 81.5319 268.963 80.5293C268.198 79.5176 267.177 79.0117 265.901 79.0117C264.652 79.0117 263.645 79.5085 262.879 80.502C262.114 81.4954 261.731 82.9173 261.731 84.7676Z" fill="#EB5757"/>
<path d="M291.551 44V31.1621H289.213V29.207H291.551V27.6895C291.551 26.1035 291.975 24.8776 292.822 24.0117C293.67 23.1458 294.868 22.7129 296.418 22.7129C297.001 22.7129 297.58 22.7904 298.154 22.9453L298.018 24.9961C297.589 24.9141 297.133 24.873 296.65 24.873C295.83 24.873 295.197 25.1146 294.75 25.5977C294.303 26.0716 294.08 26.7552 294.08 27.6484V29.207H297.238V31.1621H294.08V44H291.551ZM307.191 31.4766C306.809 31.4128 306.394 31.3809 305.947 31.3809C304.288 31.3809 303.163 32.0872 302.57 33.5V44H300.041V29.207H302.502L302.543 30.916C303.372 29.5944 304.548 28.9336 306.07 28.9336C306.562 28.9336 306.936 28.9974 307.191 29.125V31.4766ZM318.662 42.5371C317.678 43.6947 316.233 44.2734 314.328 44.2734C312.751 44.2734 311.548 43.8177 310.719 42.9062C309.898 41.9857 309.484 40.6276 309.475 38.832V29.207H312.004V38.7637C312.004 41.0059 312.915 42.127 314.738 42.127C316.671 42.127 317.956 41.4069 318.594 39.9668V29.207H321.123V44H318.717L318.662 42.5371ZM327.727 44H325.197V29.207H327.727V44ZM324.992 25.2832C324.992 24.873 325.115 24.5267 325.361 24.2441C325.617 23.9616 325.99 23.8203 326.482 23.8203C326.975 23.8203 327.348 23.9616 327.604 24.2441C327.859 24.5267 327.986 24.873 327.986 25.2832C327.986 25.6934 327.859 26.0352 327.604 26.3086C327.348 26.582 326.975 26.7188 326.482 26.7188C325.99 26.7188 325.617 26.582 325.361 26.3086C325.115 26.0352 324.992 25.6934 324.992 25.2832ZM335.219 25.625V29.207H337.98V31.1621H335.219V40.3359C335.219 40.9284 335.342 41.375 335.588 41.6758C335.834 41.9674 336.253 42.1133 336.846 42.1133C337.137 42.1133 337.538 42.0586 338.049 41.9492V44C337.383 44.1823 336.736 44.2734 336.107 44.2734C334.977 44.2734 334.125 43.9316 333.551 43.248C332.977 42.5645 332.689 41.5938 332.689 40.3359V31.1621H329.996V29.207H332.689V25.625H335.219ZM351.611 46.0645H339.088V44H351.611V46.0645ZM358.461 40.5684L362.125 29.207H364.709L359.404 44H357.477L352.117 29.207H354.701L358.461 40.5684ZM373.09 44.2734C371.085 44.2734 369.453 43.6172 368.195 42.3047C366.938 40.9831 366.309 39.2194 366.309 37.0137V36.5488C366.309 35.0814 366.587 33.7734 367.143 32.625C367.708 31.4674 368.492 30.5651 369.494 29.918C370.506 29.2617 371.6 28.9336 372.775 28.9336C374.699 28.9336 376.193 29.5671 377.26 30.834C378.326 32.1009 378.859 33.9147 378.859 36.2754V37.3281H368.838C368.874 38.7865 369.298 39.9668 370.109 40.8691C370.93 41.7624 371.969 42.209 373.227 42.209C374.12 42.209 374.876 42.0267 375.496 41.6621C376.116 41.2975 376.658 40.8145 377.123 40.2129L378.668 41.416C377.428 43.321 375.569 44.2734 373.09 44.2734ZM372.775 31.0117C371.755 31.0117 370.898 31.3854 370.205 32.1328C369.512 32.8711 369.084 33.9102 368.92 35.25H376.33V35.0586C376.257 33.7734 375.911 32.7799 375.291 32.0781C374.671 31.3672 373.833 31.0117 372.775 31.0117ZM381.197 36.4805C381.197 34.1745 381.73 32.3424 382.797 30.9844C383.863 29.6172 385.276 28.9336 387.035 28.9336C388.84 28.9336 390.248 29.5716 391.26 30.8477L391.383 29.207H393.693V43.6445C393.693 45.5586 393.124 47.0671 391.984 48.1699C390.854 49.2728 389.332 49.8242 387.418 49.8242C386.352 49.8242 385.308 49.5964 384.287 49.1406C383.266 48.6849 382.487 48.0605 381.949 47.2676L383.262 45.75C384.346 47.0898 385.673 47.7598 387.24 47.7598C388.471 47.7598 389.428 47.4134 390.111 46.7207C390.804 46.028 391.15 45.0527 391.15 43.7949V42.5234C390.139 43.6901 388.758 44.2734 387.008 44.2734C385.276 44.2734 383.872 43.5762 382.797 42.1816C381.73 40.7871 381.197 38.8867 381.197 36.4805ZM383.74 36.7676C383.74 38.4355 384.082 39.748 384.766 40.7051C385.449 41.653 386.406 42.127 387.637 42.127C389.232 42.127 390.403 41.4023 391.15 39.9531V33.1992C390.376 31.7865 389.214 31.0801 387.664 31.0801C386.434 31.0801 385.472 31.5586 384.779 32.5156C384.087 33.4727 383.74 34.89 383.74 36.7676Z" fill="#828282"/>
<rect x="400" y="56" width="130" height="53.2" stroke="black"/>
<path d="M470.209 85.9544H472.971V88.0189H470.209V92.64H467.666V88.0189H458.602V86.5286L467.516 72.7337H470.209V85.9544ZM461.473 85.9544H467.666V76.1927L467.366 76.7396L461.473 85.9544Z" fill="black"/>
<rect x="400" y="109.2" width="130" height="53.2" stroke="black"/>
<path d="M472.575 145.84H459.532V144.022L466.422 136.365C467.443 135.208 468.145 134.269 468.528 133.549C468.92 132.82 469.116 132.068 469.116 131.293C469.116 130.254 468.801 129.402 468.172 128.736C467.543 128.071 466.705 127.738 465.657 127.738C464.399 127.738 463.419 128.098 462.717 128.818C462.024 129.529 461.678 130.523 461.678 131.799H459.149C459.149 129.967 459.737 128.486 460.913 127.356C462.097 126.225 463.679 125.66 465.657 125.66C467.507 125.66 468.97 126.148 470.045 127.123C471.121 128.089 471.659 129.379 471.659 130.992C471.659 132.952 470.41 135.285 467.913 137.992L462.58 143.776H472.575V145.84Z" fill="black"/>
<rect x="400" y="162" width="130" height="54" stroke="black"/>
<path d="M470.32 192.147H473.082V194.212H470.32V198.833H467.777V194.212H458.713V192.721L467.627 178.926H470.32V192.147ZM461.584 192.147H467.777V182.385L467.477 182.932L461.584 192.147Z" fill="black"/>
<rect x="284" y="216" width="116" height="52" stroke="black"/>
<path d="M329.099 246.918L332.763 235.557H335.347L330.042 250.35H328.114L322.755 235.557H325.339L329.099 246.918ZM343.728 250.623C341.722 250.623 340.091 249.967 338.833 248.654C337.575 247.333 336.946 245.569 336.946 243.363V242.899C336.946 241.431 337.224 240.123 337.78 238.975C338.345 237.817 339.129 236.915 340.132 236.268C341.144 235.612 342.237 235.283 343.413 235.283C345.336 235.283 346.831 235.917 347.898 237.184C348.964 238.451 349.497 240.265 349.497 242.625V243.678H339.476C339.512 245.136 339.936 246.317 340.747 247.219C341.567 248.112 342.607 248.559 343.864 248.559C344.758 248.559 345.514 248.376 346.134 248.012C346.754 247.647 347.296 247.164 347.761 246.563L349.306 247.766C348.066 249.671 346.207 250.623 343.728 250.623ZM343.413 237.362C342.392 237.362 341.536 237.735 340.843 238.483C340.15 239.221 339.722 240.26 339.558 241.6H346.968V241.408C346.895 240.123 346.549 239.13 345.929 238.428C345.309 237.717 344.47 237.362 343.413 237.362ZM351.835 242.83C351.835 240.524 352.368 238.692 353.435 237.334C354.501 235.967 355.914 235.283 357.673 235.283C359.478 235.283 360.886 235.921 361.898 237.197L362.021 235.557H364.331V249.994C364.331 251.908 363.761 253.417 362.622 254.52C361.492 255.623 359.97 256.174 358.056 256.174C356.989 256.174 355.946 255.946 354.925 255.49C353.904 255.035 353.125 254.41 352.587 253.617L353.9 252.1C354.984 253.44 356.31 254.11 357.878 254.11C359.108 254.11 360.066 253.763 360.749 253.07C361.442 252.378 361.788 251.403 361.788 250.145V248.873C360.776 250.04 359.396 250.623 357.646 250.623C355.914 250.623 354.51 249.926 353.435 248.531C352.368 247.137 351.835 245.237 351.835 242.83ZM354.378 243.117C354.378 244.785 354.72 246.098 355.403 247.055C356.087 248.003 357.044 248.477 358.275 248.477C359.87 248.477 361.041 247.752 361.788 246.303V239.549C361.013 238.136 359.851 237.43 358.302 237.43C357.071 237.43 356.11 237.908 355.417 238.865C354.724 239.822 354.378 241.24 354.378 243.117Z" fill="black"/>
<rect x="284" y="268" width="116" height="52" stroke="black"/>
<path d="M329.099 300.285L332.763 288.924H335.347L330.042 303.716H328.114L322.755 288.924H325.339L329.099 300.285ZM343.728 303.99C341.722 303.99 340.091 303.334 338.833 302.021C337.575 300.7 336.946 298.936 336.946 296.73V296.265C336.946 294.798 337.224 293.49 337.78 292.341C338.345 291.184 339.129 290.282 340.132 289.634C341.144 288.978 342.237 288.65 343.413 288.65C345.336 288.65 346.831 289.284 347.898 290.55C348.964 291.817 349.497 293.631 349.497 295.992V297.045H339.476C339.512 298.503 339.936 299.683 340.747 300.586C341.567 301.479 342.607 301.925 343.864 301.925C344.758 301.925 345.514 301.743 346.134 301.379C346.754 301.014 347.296 300.531 347.761 299.929L349.306 301.133C348.066 303.037 346.207 303.99 343.728 303.99ZM343.413 290.728C342.392 290.728 341.536 291.102 340.843 291.849C340.15 292.588 339.722 293.627 339.558 294.966H346.968V294.775C346.895 293.49 346.549 292.496 345.929 291.795C345.309 291.084 344.47 290.728 343.413 290.728ZM351.835 296.197C351.835 293.891 352.368 292.059 353.435 290.701C354.501 289.334 355.914 288.65 357.673 288.65C359.478 288.65 360.886 289.288 361.898 290.564L362.021 288.924H364.331V303.361C364.331 305.275 363.761 306.784 362.622 307.886C361.492 308.989 359.97 309.541 358.056 309.541C356.989 309.541 355.946 309.313 354.925 308.857C353.904 308.401 353.125 307.777 352.587 306.984L353.9 305.466C354.984 306.806 356.31 307.476 357.878 307.476C359.108 307.476 360.066 307.13 360.749 306.437C361.442 305.744 361.788 304.769 361.788 303.511V302.24C360.776 303.407 359.396 303.99 357.646 303.99C355.914 303.99 354.51 303.293 353.435 301.898C352.368 300.504 351.835 298.603 351.835 296.197ZM354.378 296.484C354.378 298.152 354.72 299.465 355.403 300.422C356.087 301.369 357.044 301.843 358.275 301.843C359.87 301.843 361.041 301.119 361.788 299.67V292.916C361.013 291.503 359.851 290.797 358.302 290.797C357.071 290.797 356.11 291.275 355.417 292.232C354.724 293.189 354.378 294.606 354.378 296.484Z" fill="black"/>
<rect x="400" y="216" width="130" height="52" stroke="black"/>
<path d="M467.844 250.64H465.301V233.783L460.202 235.656V233.359L467.448 230.638H467.844V250.64Z" fill="black"/>
<rect x="400" y="268" width="130" height="52" stroke="black"/>
<path d="M472.575 303.84H459.532V302.022L466.422 294.365C467.443 293.208 468.145 292.269 468.528 291.549C468.92 290.82 469.116 290.068 469.116 289.293C469.116 288.254 468.801 287.402 468.172 286.737C467.543 286.071 466.705 285.739 465.657 285.739C464.399 285.739 463.419 286.099 462.717 286.819C462.024 287.53 461.678 288.523 461.678 289.799H459.149C459.149 287.967 459.737 286.486 460.913 285.356C462.097 284.226 463.679 283.66 465.657 283.66C467.507 283.66 468.97 284.148 470.045 285.123C471.121 286.089 471.659 287.379 471.659 288.992C471.659 290.952 470.41 293.285 467.913 295.992L462.58 301.776H472.575V303.84Z" fill="black"/>
<path d="M447.131 36.4805C447.131 34.1562 447.664 32.3197 448.73 30.9707C449.797 29.6126 451.228 28.9336 453.023 28.9336C454.773 28.9336 456.154 29.5215 457.166 30.6973L457.275 29.207H459.6V49.6875H457.07V42.6328C456.049 43.7266 454.691 44.2734 452.996 44.2734C451.21 44.2734 449.783 43.5807 448.717 42.1953C447.66 40.8008 447.131 38.9551 447.131 36.6582V36.4805ZM449.66 36.7676C449.66 38.4629 450.016 39.7936 450.727 40.7598C451.447 41.7259 452.413 42.209 453.625 42.209C455.129 42.209 456.277 41.5436 457.07 40.2129V32.9668C456.268 31.6634 455.129 31.0117 453.652 31.0117C452.431 31.0117 451.46 31.4993 450.74 32.4746C450.02 33.4408 449.66 34.8717 449.66 36.7676ZM467.092 25.625V29.207H469.854V31.1621H467.092V40.3359C467.092 40.9284 467.215 41.375 467.461 41.6758C467.707 41.9674 468.126 42.1133 468.719 42.1133C469.01 42.1133 469.411 42.0586 469.922 41.9492V44C469.257 44.1823 468.609 44.2734 467.98 44.2734C466.85 44.2734 465.998 43.9316 465.424 43.248C464.85 42.5645 464.562 41.5938 464.562 40.3359V31.1621H461.869V29.207H464.562V25.625H467.092ZM477.66 40.2949L481.105 29.207H483.812L477.865 46.2832C476.945 48.7441 475.482 49.9746 473.477 49.9746L472.998 49.9336L472.055 49.7559V47.7051L472.738 47.7598C473.595 47.7598 474.26 47.5866 474.734 47.2402C475.217 46.8939 475.614 46.2604 475.924 45.3398L476.484 43.8359L471.207 29.207H473.969L477.66 40.2949Z" fill="#828282"/>
<path d="M559.513 253.127C559.031 253.395 558.858 254.004 559.127 254.487L563.508 262.348C563.777 262.831 564.386 263.004 564.868 262.735C565.351 262.466 565.524 261.857 565.255 261.375L561.36 254.387L568.348 250.492C568.831 250.223 569.004 249.614 568.735 249.132C568.466 248.649 567.857 248.476 567.375 248.745L559.513 253.127ZM692.151 290.523L560.273 253.038L559.727 254.962L691.605 292.447L692.151 290.523Z" fill="#F2C94C"/>
<path d="M559.052 291.68C558.876 292.204 559.157 292.771 559.68 292.948L568.208 295.825C568.731 296.001 569.299 295.72 569.475 295.197C569.652 294.674 569.371 294.106 568.847 293.93L561.267 291.372L563.825 283.792C564.001 283.269 563.72 282.701 563.197 282.525C562.674 282.348 562.106 282.629 561.93 283.153L559.052 291.68ZM652.403 245.104L559.556 291.104L560.444 292.896L653.291 246.896L652.403 245.104Z" fill="#9B51E0"/>
<rect x="793.45" y="212" width="192" height="53.9924" stroke="black"/>
<path d="M838.799 248.644C838.653 248.353 838.534 247.833 838.443 247.086C837.267 248.307 835.864 248.918 834.232 248.918C832.774 248.918 831.575 248.508 830.636 247.687C829.707 246.858 829.242 245.81 829.242 244.543C829.242 243.002 829.825 241.808 830.992 240.961C832.168 240.104 833.817 239.676 835.941 239.676H838.402V238.514C838.402 237.629 838.138 236.928 837.609 236.408C837.08 235.879 836.301 235.615 835.271 235.615C834.369 235.615 833.612 235.843 833.002 236.299C832.391 236.754 832.086 237.306 832.086 237.953H829.543C829.543 237.215 829.802 236.504 830.322 235.82C830.851 235.127 831.562 234.581 832.455 234.18C833.357 233.779 834.346 233.578 835.422 233.578C837.126 233.578 838.461 234.006 839.427 234.863C840.394 235.711 840.895 236.882 840.931 238.377V245.185C840.931 246.543 841.104 247.624 841.451 248.426V248.644H838.799ZM834.601 246.717C835.394 246.717 836.146 246.512 836.857 246.101C837.568 245.691 838.083 245.158 838.402 244.502V241.467H836.42C833.321 241.467 831.771 242.374 831.771 244.187C831.771 244.98 832.035 245.6 832.564 246.047C833.093 246.493 833.772 246.717 834.601 246.717ZM854.029 247.182C853.045 248.339 851.6 248.918 849.695 248.918C848.118 248.918 846.915 248.462 846.086 247.551C845.265 246.63 844.851 245.272 844.841 243.476V233.851H847.371V243.408C847.371 245.65 848.282 246.771 850.105 246.771C852.037 246.771 853.323 246.051 853.961 244.611V233.851H856.49V248.644H854.084L854.029 247.182ZM872.869 241.412C872.869 243.672 872.349 245.491 871.31 246.867C870.271 248.234 868.877 248.918 867.127 248.918C865.258 248.918 863.813 248.257 862.793 246.935L862.67 248.644H860.345V227.644H862.875V235.478C863.896 234.211 865.304 233.578 867.099 233.578C868.895 233.578 870.303 234.257 871.324 235.615C872.354 236.973 872.869 238.833 872.869 241.193V241.412ZM870.34 241.125C870.34 239.402 870.007 238.071 869.341 237.133C868.676 236.194 867.719 235.724 866.47 235.724C864.802 235.724 863.604 236.499 862.875 238.049V244.447C863.649 245.997 864.857 246.771 866.498 246.771C867.71 246.771 868.653 246.302 869.328 245.363C870.002 244.424 870.34 243.012 870.34 241.125ZM882.207 248.918C880.201 248.918 878.57 248.262 877.312 246.949C876.054 245.627 875.425 243.864 875.425 241.658V241.193C875.425 239.726 875.703 238.418 876.259 237.269C876.825 236.112 877.608 235.21 878.611 234.562C879.623 233.906 880.716 233.578 881.892 233.578C883.815 233.578 885.31 234.211 886.377 235.478C887.443 236.745 887.976 238.559 887.976 240.92V241.973H877.955C877.991 243.431 878.415 244.611 879.226 245.514C880.047 246.407 881.086 246.853 882.343 246.853C883.237 246.853 883.993 246.671 884.613 246.307C885.233 245.942 885.775 245.459 886.24 244.857L887.785 246.06C886.545 247.965 884.686 248.918 882.207 248.918ZM881.892 235.656C880.871 235.656 880.015 236.03 879.322 236.777C878.629 237.516 878.201 238.555 878.037 239.894H885.447V239.703C885.374 238.418 885.028 237.424 884.408 236.723C883.788 236.012 882.95 235.656 881.892 235.656ZM898.066 236.121C897.683 236.057 897.269 236.025 896.822 236.025C895.163 236.025 894.037 236.732 893.445 238.144V248.644H890.916V233.851H893.377L893.418 235.56C894.247 234.239 895.423 233.578 896.945 233.578C897.437 233.578 897.811 233.642 898.066 233.769V236.121ZM899.529 241.125C899.529 238.819 900.062 236.987 901.129 235.629C902.195 234.262 903.608 233.578 905.367 233.578C907.172 233.578 908.58 234.216 909.591 235.492L909.715 233.851H912.025V248.289C912.025 250.203 911.455 251.711 910.316 252.814C909.186 253.917 907.664 254.469 905.75 254.469C904.683 254.469 903.64 254.241 902.619 253.785C901.598 253.329 900.819 252.705 900.281 251.912L901.593 250.394C902.678 251.734 904.004 252.404 905.572 252.404C906.802 252.404 907.759 252.058 908.443 251.365C909.136 250.672 909.482 249.697 909.482 248.439V247.168C908.47 248.335 907.09 248.918 905.34 248.918C903.608 248.918 902.204 248.221 901.129 246.826C900.062 245.432 899.529 243.531 899.529 241.125ZM902.072 241.412C902.072 243.08 902.414 244.392 903.097 245.349C903.781 246.297 904.738 246.771 905.968 246.771C907.563 246.771 908.735 246.047 909.482 244.598V237.844C908.707 236.431 907.545 235.724 905.996 235.724C904.765 235.724 903.804 236.203 903.111 237.16C902.418 238.117 902.072 239.534 902.072 241.412ZM918.601 248.644H916.072V233.851H918.601V248.644ZM915.867 229.928C915.867 229.517 915.99 229.171 916.236 228.889C916.491 228.606 916.865 228.465 917.357 228.465C917.849 228.465 918.223 228.606 918.478 228.889C918.733 229.171 918.861 229.517 918.861 229.928C918.861 230.338 918.733 230.68 918.478 230.953C918.223 231.226 917.849 231.363 917.357 231.363C916.865 231.363 916.491 231.226 916.236 230.953C915.99 230.68 915.867 230.338 915.867 229.928ZM925.054 233.851L925.136 235.711C926.267 234.289 927.743 233.578 929.566 233.578C932.692 233.578 934.269 235.342 934.297 238.869V248.644H931.767V238.855C931.758 237.789 931.512 237.001 931.029 236.49C930.555 235.98 929.812 235.724 928.8 235.724C927.98 235.724 927.26 235.943 926.64 236.381C926.021 236.818 925.537 237.392 925.191 238.103V248.644H922.662V233.851H925.054ZM944.25 248.918C942.244 248.918 940.613 248.262 939.355 246.949C938.097 245.627 937.468 243.864 937.468 241.658V241.193C937.468 239.726 937.746 238.418 938.302 237.269C938.868 236.112 939.651 235.21 940.654 234.562C941.666 233.906 942.759 233.578 943.935 233.578C945.858 233.578 947.353 234.211 948.42 235.478C949.486 236.745 950.019 238.559 950.019 240.92V241.973H939.998C940.034 243.431 940.458 244.611 941.269 245.514C942.09 246.407 943.129 246.853 944.386 246.853C945.28 246.853 946.036 246.671 946.656 246.307C947.276 245.942 947.818 245.459 948.283 244.857L949.828 246.06C948.588 247.965 946.729 248.918 944.25 248.918ZM943.935 235.656C942.914 235.656 942.058 236.03 941.365 236.777C940.672 237.516 940.244 238.555 940.08 239.894H947.49V239.703C947.417 238.418 947.071 237.424 946.451 236.723C945.831 236.012 944.993 235.656 943.935 235.656Z" fill="black"/>
<path d="M680.838 248.844C678.833 248.844 677.202 248.188 675.944 246.875C674.686 245.553 674.057 243.79 674.057 241.584V241.119C674.057 239.652 674.335 238.344 674.891 237.195C675.456 236.038 676.24 235.135 677.243 234.488C678.254 233.832 679.348 233.504 680.524 233.504C682.447 233.504 683.942 234.137 685.008 235.404C686.075 236.671 686.608 238.485 686.608 240.846V241.898H676.586C676.623 243.357 677.047 244.537 677.858 245.439C678.678 246.333 679.717 246.779 680.975 246.779C681.868 246.779 682.625 246.597 683.245 246.232C683.864 245.868 684.407 245.385 684.871 244.783L686.416 245.986C685.177 247.891 683.317 248.844 680.838 248.844ZM680.524 235.582C679.503 235.582 678.646 235.956 677.953 236.703C677.261 237.441 676.832 238.48 676.668 239.82H684.078V239.629C684.006 238.344 683.659 237.35 683.039 236.648C682.42 235.938 681.581 235.582 680.524 235.582ZM688.946 241.051C688.946 238.745 689.479 236.913 690.545 235.555C691.612 234.188 693.024 233.504 694.784 233.504C696.588 233.504 697.996 234.142 699.008 235.418L699.131 233.777H701.442V248.215C701.442 250.129 700.872 251.637 699.733 252.74C698.603 253.843 697.08 254.395 695.166 254.395C694.1 254.395 693.056 254.167 692.036 253.711C691.015 253.255 690.235 252.631 689.698 251.838L691.01 250.32C692.095 251.66 693.421 252.33 694.989 252.33C696.219 252.33 697.176 251.984 697.86 251.291C698.552 250.598 698.899 249.623 698.899 248.365V247.094C697.887 248.26 696.506 248.844 694.756 248.844C693.024 248.844 691.621 248.146 690.545 246.752C689.479 245.357 688.946 243.457 688.946 241.051ZM691.489 241.338C691.489 243.006 691.83 244.318 692.514 245.275C693.198 246.223 694.155 246.697 695.385 246.697C696.98 246.697 698.151 245.973 698.899 244.523V237.77C698.124 236.357 696.962 235.65 695.412 235.65C694.182 235.65 693.22 236.129 692.528 237.086C691.835 238.043 691.489 239.46 691.489 241.338ZM704.668 241.051C704.668 238.745 705.202 236.913 706.268 235.555C707.334 234.188 708.747 233.504 710.506 233.504C712.311 233.504 713.719 234.142 714.731 235.418L714.854 233.777H717.164V248.215C717.164 250.129 716.595 251.637 715.455 252.74C714.325 253.843 712.803 254.395 710.889 254.395C709.823 254.395 708.779 254.167 707.758 253.711C706.737 253.255 705.958 252.631 705.42 251.838L706.733 250.32C707.817 251.66 709.144 252.33 710.711 252.33C711.942 252.33 712.899 251.984 713.582 251.291C714.275 250.598 714.621 249.623 714.621 248.365V247.094C713.61 248.26 712.229 248.844 710.479 248.844C708.747 248.844 707.343 248.146 706.268 246.752C705.202 245.357 704.668 243.457 704.668 241.051ZM707.211 241.338C707.211 243.006 707.553 244.318 708.237 245.275C708.92 246.223 709.877 246.697 711.108 246.697C712.703 246.697 713.874 245.973 714.621 244.523V237.77C713.847 236.357 712.685 235.65 711.135 235.65C709.905 235.65 708.943 236.129 708.25 237.086C707.558 238.043 707.211 239.46 707.211 241.338ZM733.489 241.338C733.489 243.589 732.974 245.403 731.944 246.779C730.914 248.156 729.519 248.844 727.76 248.844C725.965 248.844 724.552 248.274 723.522 247.135V254.258H720.993V233.777H723.303L723.426 235.418C724.456 234.142 725.887 233.504 727.719 233.504C729.496 233.504 730.9 234.174 731.93 235.514C732.969 236.854 733.489 238.717 733.489 241.105V241.338ZM730.959 241.051C730.959 239.383 730.604 238.066 729.893 237.1C729.182 236.133 728.207 235.65 726.967 235.65C725.436 235.65 724.287 236.329 723.522 237.688V244.756C724.278 246.105 725.436 246.779 726.995 246.779C728.207 246.779 729.168 246.301 729.879 245.344C730.599 244.378 730.959 242.947 730.959 241.051ZM739.463 248.57H736.934V227.57H739.463V248.57ZM752.657 248.57C752.511 248.279 752.392 247.759 752.301 247.012C751.125 248.233 749.722 248.844 748.09 248.844C746.632 248.844 745.433 248.434 744.495 247.613C743.565 246.784 743.1 245.736 743.1 244.469C743.1 242.928 743.683 241.734 744.85 240.887C746.026 240.03 747.676 239.602 749.799 239.602H752.26V238.439C752.26 237.555 751.996 236.854 751.467 236.334C750.939 235.805 750.159 235.541 749.129 235.541C748.227 235.541 747.47 235.769 746.86 236.225C746.249 236.68 745.944 237.232 745.944 237.879H743.401C743.401 237.141 743.661 236.43 744.18 235.746C744.709 235.053 745.42 234.507 746.313 234.105C747.215 233.704 748.204 233.504 749.28 233.504C750.984 233.504 752.319 233.932 753.286 234.789C754.252 235.637 754.753 236.808 754.789 238.303V245.111C754.789 246.469 754.963 247.549 755.309 248.352V248.57H752.657ZM748.459 246.643C749.252 246.643 750.004 246.438 750.715 246.027C751.426 245.617 751.941 245.084 752.26 244.428V241.393H750.278C747.179 241.393 745.629 242.299 745.629 244.113C745.629 244.906 745.894 245.526 746.422 245.973C746.951 246.419 747.63 246.643 748.459 246.643ZM761.147 233.777L761.229 235.637C762.359 234.215 763.836 233.504 765.659 233.504C768.785 233.504 770.362 235.268 770.389 238.795V248.57H767.86V238.781C767.851 237.715 767.605 236.926 767.121 236.416C766.648 235.906 765.905 235.65 764.893 235.65C764.073 235.65 763.353 235.869 762.733 236.307C762.113 236.744 761.63 237.318 761.284 238.029V248.57H758.754V233.777H761.147ZM777.635 230.195V233.777H780.397V235.732H777.635V244.906C777.635 245.499 777.758 245.945 778.004 246.246C778.25 246.538 778.67 246.684 779.262 246.684C779.554 246.684 779.955 246.629 780.465 246.52V248.57C779.8 248.753 779.153 248.844 778.524 248.844C777.394 248.844 776.541 248.502 775.967 247.818C775.393 247.135 775.106 246.164 775.106 244.906V235.732H772.412V233.777H775.106V230.195H777.635Z" fill="#9B51E0"/>
<rect x="793.357" y="158" width="192" height="53.9924" stroke="black"/>
<path d="M859.488 182.121C859.105 182.057 858.69 182.025 858.243 182.025C856.585 182.025 855.459 182.732 854.866 184.144V194.644H852.337V179.851H854.798L854.839 181.56C855.669 180.239 856.844 179.578 858.366 179.578C858.859 179.578 859.232 179.642 859.488 179.769V182.121ZM860.882 187.111C860.882 185.662 861.165 184.359 861.73 183.201C862.304 182.043 863.097 181.15 864.109 180.521C865.129 179.892 866.292 179.578 867.595 179.578C869.609 179.578 871.236 180.275 872.476 181.67C873.725 183.064 874.349 184.919 874.349 187.234V187.412C874.349 188.852 874.071 190.146 873.515 191.295C872.968 192.434 872.18 193.323 871.15 193.961C870.129 194.599 868.953 194.918 867.622 194.918C865.617 194.918 863.99 194.221 862.741 192.826C861.502 191.432 860.882 189.586 860.882 187.289V187.111ZM863.425 187.412C863.425 189.053 863.803 190.37 864.56 191.363C865.325 192.357 866.346 192.853 867.622 192.853C868.907 192.853 869.928 192.352 870.685 191.349C871.441 190.338 871.82 188.925 871.82 187.111C871.82 185.489 871.432 184.176 870.657 183.174C869.892 182.162 868.871 181.656 867.595 181.656C866.346 181.656 865.339 182.153 864.573 183.146C863.808 184.14 863.425 185.562 863.425 187.412ZM883.454 192.853C884.357 192.853 885.145 192.58 885.82 192.033C886.494 191.486 886.868 190.803 886.941 189.982H889.333C889.288 190.83 888.996 191.637 888.458 192.402C887.92 193.168 887.2 193.779 886.298 194.234C885.405 194.69 884.457 194.918 883.454 194.918C881.44 194.918 879.836 194.248 878.642 192.908C877.457 191.559 876.864 189.718 876.864 187.385V186.961C876.864 185.521 877.129 184.24 877.657 183.119C878.186 181.998 878.943 181.127 879.927 180.508C880.92 179.888 882.092 179.578 883.441 179.578C885.1 179.578 886.476 180.075 887.57 181.068C888.672 182.062 889.26 183.351 889.333 184.937H886.941C886.868 183.98 886.503 183.196 885.847 182.586C885.2 181.966 884.398 181.656 883.441 181.656C882.155 181.656 881.157 182.121 880.447 183.051C879.745 183.971 879.394 185.307 879.394 187.057V187.535C879.394 189.239 879.745 190.552 880.447 191.473C881.148 192.393 882.151 192.853 883.454 192.853ZM896.306 187.795L894.72 189.449V194.644H892.191V173.644H894.72V186.346L896.073 184.719L900.681 179.851H903.757L898.001 186.031L904.427 194.644H901.46L896.306 187.795ZM912.234 194.918C910.228 194.918 908.597 194.262 907.339 192.949C906.081 191.627 905.452 189.864 905.452 187.658V187.193C905.452 185.726 905.73 184.418 906.286 183.269C906.851 182.112 907.635 181.21 908.638 180.562C909.65 179.906 910.743 179.578 911.919 179.578C913.842 179.578 915.337 180.211 916.404 181.478C917.47 182.745 918.003 184.559 918.003 186.92V187.973H907.982C908.018 189.431 908.442 190.611 909.253 191.514C910.073 192.407 911.113 192.853 912.37 192.853C913.264 192.853 914.02 192.671 914.64 192.307C915.26 191.942 915.802 191.459 916.267 190.857L917.812 192.06C916.572 193.965 914.713 194.918 912.234 194.918ZM911.919 181.656C910.898 181.656 910.042 182.03 909.349 182.777C908.656 183.516 908.228 184.555 908.064 185.894H915.474V185.703C915.401 184.418 915.055 183.424 914.435 182.723C913.815 182.012 912.976 181.656 911.919 181.656ZM924.374 176.269V179.851H927.136V181.807H924.374V190.98C924.374 191.573 924.497 192.019 924.743 192.32C924.989 192.612 925.409 192.758 926.001 192.758C926.293 192.758 926.694 192.703 927.204 192.594V194.644C926.539 194.827 925.892 194.918 925.263 194.918C924.133 194.918 923.28 194.576 922.706 193.892C922.132 193.209 921.845 192.238 921.845 190.98V181.807H919.152V179.851H921.845V176.269H924.374Z" fill="black"/>
<path d="M697.025 194.57C696.879 194.279 696.761 193.759 696.67 193.012C695.494 194.233 694.09 194.844 692.459 194.844C691.001 194.844 689.802 194.434 688.863 193.613C687.933 192.784 687.469 191.736 687.469 190.469C687.469 188.928 688.052 187.734 689.219 186.887C690.394 186.03 692.044 185.602 694.168 185.602H696.629V184.439C696.629 183.555 696.364 182.854 695.836 182.334C695.307 181.805 694.528 181.541 693.498 181.541C692.596 181.541 691.839 181.769 691.228 182.225C690.618 182.68 690.312 183.232 690.312 183.879H687.769C687.769 183.141 688.029 182.43 688.549 181.746C689.077 181.053 689.788 180.507 690.682 180.105C691.584 179.704 692.573 179.504 693.648 179.504C695.353 179.504 696.688 179.932 697.654 180.789C698.62 181.637 699.122 182.808 699.158 184.303V191.111C699.158 192.469 699.331 193.549 699.678 194.352V194.57H697.025ZM692.828 192.643C693.621 192.643 694.373 192.438 695.084 192.027C695.795 191.617 696.31 191.084 696.629 190.428V187.393H694.646C691.547 187.393 689.998 188.299 689.998 190.113C689.998 190.906 690.262 191.526 690.791 191.973C691.32 192.419 691.999 192.643 692.828 192.643ZM710.273 182.047C709.891 181.983 709.476 181.951 709.029 181.951C707.37 181.951 706.245 182.658 705.652 184.07V194.57H703.123V179.777H705.584L705.625 181.486C706.454 180.165 707.63 179.504 709.152 179.504C709.644 179.504 710.018 179.568 710.273 179.695V182.047ZM721.744 193.107C720.76 194.265 719.315 194.844 717.41 194.844C715.833 194.844 714.63 194.388 713.801 193.477C712.98 192.556 712.566 191.198 712.557 189.402V179.777H715.086V189.334C715.086 191.576 715.997 192.697 717.82 192.697C719.752 192.697 721.038 191.977 721.676 190.537V179.777H724.205V194.57H721.799L721.744 193.107ZM727.459 187.051C727.459 184.745 727.992 182.913 729.058 181.555C730.125 180.188 731.538 179.504 733.297 179.504C735.101 179.504 736.51 180.142 737.521 181.418L737.644 179.777H739.955V194.215C739.955 196.129 739.385 197.637 738.246 198.74C737.116 199.843 735.594 200.395 733.68 200.395C732.613 200.395 731.57 200.167 730.549 199.711C729.528 199.255 728.749 198.631 728.211 197.838L729.523 196.32C730.608 197.66 731.934 198.33 733.502 198.33C734.732 198.33 735.689 197.984 736.373 197.291C737.066 196.598 737.412 195.623 737.412 194.365V193.094C736.4 194.26 735.019 194.844 733.269 194.844C731.538 194.844 730.134 194.146 729.058 192.752C727.992 191.357 727.459 189.457 727.459 187.051ZM730.002 187.338C730.002 189.006 730.344 190.318 731.027 191.275C731.711 192.223 732.668 192.697 733.898 192.697C735.493 192.697 736.665 191.973 737.412 190.523V183.77C736.637 182.357 735.475 181.65 733.926 181.65C732.695 181.65 731.734 182.129 731.041 183.086C730.348 184.043 730.002 185.46 730.002 187.338ZM752.916 193.107C751.932 194.265 750.487 194.844 748.582 194.844C747.005 194.844 745.802 194.388 744.973 193.477C744.152 192.556 743.738 191.198 743.728 189.402V179.777H746.258V189.334C746.258 191.576 747.169 192.697 748.992 192.697C750.924 192.697 752.21 191.977 752.848 190.537V179.777H755.377V194.57H752.971L752.916 193.107ZM761.98 194.57H759.451V173.57H761.98V194.57ZM775.174 194.57C775.028 194.279 774.909 193.759 774.818 193.012C773.642 194.233 772.239 194.844 770.607 194.844C769.149 194.844 767.95 194.434 767.012 193.613C766.082 192.784 765.617 191.736 765.617 190.469C765.617 188.928 766.2 187.734 767.367 186.887C768.543 186.03 770.193 185.602 772.316 185.602H774.777V184.439C774.777 183.555 774.513 182.854 773.984 182.334C773.456 181.805 772.676 181.541 771.646 181.541C770.744 181.541 769.988 181.769 769.377 182.225C768.766 182.68 768.461 183.232 768.461 183.879H765.918C765.918 183.141 766.178 182.43 766.697 181.746C767.226 181.053 767.937 180.507 768.83 180.105C769.732 179.704 770.721 179.504 771.797 179.504C773.501 179.504 774.836 179.932 775.803 180.789C776.769 181.637 777.27 182.808 777.307 184.303V191.111C777.307 192.469 777.48 193.549 777.826 194.352V194.57H775.174ZM770.976 192.643C771.769 192.643 772.521 192.438 773.232 192.027C773.943 191.617 774.458 191.084 774.777 190.428V187.393H772.795C769.696 187.393 768.146 188.299 768.146 190.113C768.146 190.906 768.411 191.526 768.939 191.973C769.468 192.419 770.147 192.643 770.976 192.643Z" fill="#219653"/>
<path d="M830.001 356.114C830.001 355.33 830.169 354.648 830.505 354.07C830.841 353.472 831.373 352.968 832.101 352.558C832.848 352.147 833.8 351.82 834.957 351.578C836.115 351.316 837.515 351.139 839.157 351.046C839.083 350.411 838.803 349.916 838.317 349.562C837.851 349.207 837.141 349.03 836.189 349.03C835.517 349.03 834.836 349.151 834.145 349.394C833.473 349.618 832.745 349.926 831.961 350.318L830.505 347.63C831.457 347.088 832.475 346.64 833.557 346.286C834.659 345.931 835.807 345.754 837.001 345.754C838.943 345.754 840.473 346.267 841.593 347.294C842.713 348.32 843.273 349.898 843.273 352.026V359.978H839.913L839.605 358.41H839.493C838.784 358.951 838.009 359.408 837.169 359.782C836.329 360.136 835.461 360.314 834.565 360.314C833.856 360.314 833.221 360.202 832.661 359.978C832.101 359.772 831.625 359.483 831.233 359.11C830.841 358.718 830.533 358.27 830.309 357.766C830.104 357.262 830.001 356.711 830.001 356.114ZM833.949 355.806C833.949 356.254 834.117 356.59 834.453 356.814C834.808 357.019 835.284 357.122 835.881 357.122C836.497 357.122 837.076 357 837.617 356.758C838.159 356.496 838.672 356.179 839.157 355.806V353.51C838.131 353.566 837.281 353.659 836.609 353.79C835.937 353.92 835.405 354.088 835.013 354.294C834.621 354.48 834.341 354.704 834.173 354.966C834.024 355.227 833.949 355.507 833.949 355.806ZM846.818 340.35H854.966V354.714C854.966 355.143 855.022 355.507 855.134 355.806C855.265 356.086 855.433 356.319 855.638 356.506C855.862 356.674 856.105 356.795 856.366 356.87C856.646 356.944 856.926 356.982 857.206 356.982C857.524 356.982 857.86 356.954 858.214 356.898C858.569 356.823 858.961 356.702 859.39 356.534L860.314 359.558C859.941 359.67 859.596 359.772 859.278 359.866C858.961 359.959 858.644 360.034 858.326 360.09C858.009 360.164 857.673 360.22 857.318 360.258C856.964 360.295 856.572 360.314 856.142 360.314C854.388 360.314 853.062 359.8 852.166 358.774C851.289 357.728 850.85 356.319 850.85 354.546V343.598H846.818V340.35ZM866.743 349.31H863.243V346.258L866.939 346.09L867.471 342.394H870.859V346.09H876.739V349.31H870.859V354.182C870.859 355.246 871.093 356.002 871.559 356.45C872.026 356.879 872.763 357.094 873.771 357.094C874.313 357.094 874.807 357.047 875.255 356.954C875.703 356.86 876.133 356.739 876.543 356.59L877.271 359.558C876.655 359.744 875.965 359.912 875.199 360.062C874.453 360.23 873.631 360.314 872.735 360.314C871.634 360.314 870.701 360.164 869.935 359.866C869.17 359.567 868.545 359.156 868.059 358.634C867.593 358.092 867.257 357.448 867.051 356.702C866.846 355.955 866.743 355.124 866.743 354.21V349.31ZM893.781 361.49V364.57H880.341V361.49H893.781ZM897.466 346.09H900.826L901.134 347.938H901.246C901.843 347.34 902.524 346.827 903.29 346.398C904.074 345.968 904.988 345.754 906.034 345.754C907.602 345.754 908.75 346.258 909.478 347.266C910.206 348.274 910.57 349.655 910.57 351.41V359.978H906.454V351.942C906.454 351.008 906.304 350.327 906.006 349.898C905.707 349.468 905.175 349.254 904.41 349.254C903.85 349.254 903.355 349.375 902.926 349.618C902.515 349.86 902.067 350.224 901.582 350.71V359.978H897.466V346.09ZM913.947 356.114C913.947 355.33 914.115 354.648 914.451 354.07C914.787 353.472 915.319 352.968 916.047 352.558C916.793 352.147 917.745 351.82 918.903 351.578C920.06 351.316 921.46 351.139 923.103 351.046C923.028 350.411 922.748 349.916 922.263 349.562C921.796 349.207 921.087 349.03 920.135 349.03C919.463 349.03 918.781 349.151 918.091 349.394C917.419 349.618 916.691 349.926 915.907 350.318L914.451 347.63C915.403 347.088 916.42 346.64 917.503 346.286C918.604 345.931 919.752 345.754 920.947 345.754C922.888 345.754 924.419 346.267 925.539 347.294C926.659 348.32 927.219 349.898 927.219 352.026V359.978H923.859L923.551 358.41H923.439C922.729 358.951 921.955 359.408 921.115 359.782C920.275 360.136 919.407 360.314 918.511 360.314C917.801 360.314 917.167 360.202 916.607 359.978C916.047 359.772 915.571 359.483 915.179 359.11C914.787 358.718 914.479 358.27 914.255 357.766C914.049 357.262 913.947 356.711 913.947 356.114ZM917.895 355.806C917.895 356.254 918.063 356.59 918.399 356.814C918.753 357.019 919.229 357.122 919.827 357.122C920.443 357.122 921.021 357 921.563 356.758C922.104 356.496 922.617 356.179 923.103 355.806V353.51C922.076 353.566 921.227 353.659 920.555 353.79C919.883 353.92 919.351 354.088 918.959 354.294C918.567 354.48 918.287 354.704 918.119 354.966C917.969 355.227 917.895 355.507 917.895 355.806ZM930.036 346.09H933.116L933.424 347.826H933.536C933.797 347.247 934.152 346.762 934.6 346.37C935.066 345.959 935.701 345.754 936.504 345.754C937.12 345.754 937.633 345.95 938.044 346.342C938.473 346.715 938.772 347.275 938.94 348.022C939.201 347.387 939.574 346.855 940.06 346.426C940.564 345.978 941.208 345.754 941.992 345.754C942.962 345.754 943.718 346.155 944.26 346.958C944.801 347.742 945.072 348.834 945.072 350.234V359.978H941.208V350.542C941.208 349.683 940.946 349.254 940.424 349.254C939.92 349.254 939.49 349.702 939.136 350.598V359.978H935.972V350.542C935.972 349.683 935.701 349.254 935.16 349.254C934.898 349.254 934.674 349.366 934.488 349.59C934.301 349.814 934.105 350.15 933.9 350.598V359.978H930.036V346.09ZM947.357 353.034C947.357 351.895 947.553 350.878 947.945 349.982C948.355 349.086 948.897 348.33 949.569 347.714C950.241 347.079 951.006 346.594 951.865 346.258C952.742 345.922 953.647 345.754 954.581 345.754C955.645 345.754 956.587 345.922 957.409 346.258C958.23 346.594 958.911 347.06 959.453 347.658C959.994 348.255 960.405 348.964 960.685 349.786C960.965 350.588 961.105 351.466 961.105 352.418C961.105 352.791 961.086 353.146 961.049 353.482C961.011 353.818 960.974 354.07 960.937 354.238H951.585C951.734 355.283 952.182 356.039 952.929 356.506C953.694 356.954 954.59 357.178 955.617 357.178C956.251 357.178 956.849 357.103 957.409 356.954C957.987 356.786 958.585 356.543 959.201 356.226L960.545 358.69C959.761 359.194 958.883 359.595 957.913 359.894C956.942 360.174 955.99 360.314 955.057 360.314C953.974 360.314 952.966 360.155 952.033 359.838C951.099 359.502 950.287 359.026 949.597 358.41C948.906 357.775 948.355 357.01 947.945 356.114C947.553 355.218 947.357 354.191 947.357 353.034ZM957.381 351.522C957.381 350.738 957.166 350.103 956.737 349.618C956.307 349.132 955.617 348.89 954.665 348.89C953.918 348.89 953.255 349.104 952.677 349.534C952.098 349.963 951.715 350.626 951.529 351.522H957.381Z" fill="#4F4F4F"/>
<path d="M729.642 298.187C730.545 298.187 731.333 297.913 732.008 297.366C732.682 296.82 733.056 296.136 733.129 295.316H735.521C735.476 296.163 735.184 296.97 734.646 297.736C734.109 298.501 733.389 299.112 732.486 299.568C731.593 300.023 730.645 300.251 729.642 300.251C727.628 300.251 726.024 299.581 724.83 298.241C723.645 296.892 723.053 295.051 723.053 292.718V292.294C723.053 290.854 723.317 289.573 723.846 288.452C724.374 287.331 725.131 286.461 726.115 285.841C727.109 285.221 728.28 284.911 729.629 284.911C731.288 284.911 732.664 285.408 733.758 286.402C734.861 287.395 735.448 288.685 735.521 290.271H733.129C733.056 289.314 732.691 288.53 732.035 287.919C731.388 287.299 730.586 286.99 729.629 286.99C728.344 286.99 727.346 287.454 726.635 288.384C725.933 289.305 725.582 290.64 725.582 292.39V292.868C725.582 294.573 725.933 295.885 726.635 296.806C727.336 297.726 728.339 298.187 729.642 298.187ZM737.695 292.445C737.695 290.995 737.978 289.692 738.543 288.534C739.117 287.377 739.91 286.484 740.922 285.855C741.943 285.226 743.105 284.911 744.408 284.911C746.422 284.911 748.049 285.609 749.289 287.003C750.538 288.398 751.162 290.253 751.162 292.568V292.745C751.162 294.185 750.884 295.48 750.328 296.628C749.781 297.767 748.993 298.656 747.963 299.294C746.942 299.932 745.766 300.251 744.435 300.251C742.43 300.251 740.803 299.554 739.555 298.159C738.315 296.765 737.695 294.919 737.695 292.622V292.445ZM740.238 292.745C740.238 294.386 740.616 295.703 741.373 296.697C742.139 297.69 743.159 298.187 744.435 298.187C745.721 298.187 746.741 297.685 747.498 296.683C748.254 295.671 748.633 294.258 748.633 292.445C748.633 290.822 748.245 289.51 747.471 288.507C746.705 287.495 745.684 286.99 744.408 286.99C743.159 286.99 742.152 287.486 741.387 288.48C740.621 289.473 740.238 290.895 740.238 292.745ZM761.484 287.454C761.101 287.391 760.687 287.359 760.24 287.359C758.581 287.359 757.456 288.065 756.863 289.478V299.978H754.334V285.185H756.795L756.836 286.894C757.665 285.572 758.841 284.911 760.363 284.911C760.855 284.911 761.229 284.975 761.484 285.103V287.454ZM766.215 285.185L766.297 287.044C767.427 285.622 768.904 284.911 770.726 284.911C773.853 284.911 775.43 286.675 775.457 290.202V299.978H772.928V290.189C772.919 289.122 772.672 288.334 772.189 287.823C771.715 287.313 770.973 287.058 769.961 287.058C769.141 287.058 768.42 287.277 767.801 287.714C767.181 288.152 766.698 288.726 766.351 289.437V299.978H763.822V285.185H766.215Z" fill="#F2C94C"/>
<rect x="793.45" y="265.992" width="192" height="51.9927" stroke="black"/>
<path d="M855.951 285.548L856.019 287.189C857.104 285.913 858.566 285.275 860.408 285.275C862.477 285.275 863.885 286.068 864.632 287.654C865.124 286.943 865.762 286.368 866.546 285.931C867.339 285.493 868.274 285.275 869.349 285.275C872.594 285.275 874.244 286.993 874.298 290.429V300.341H871.769V290.579C871.769 289.522 871.527 288.734 871.044 288.214C870.561 287.685 869.75 287.421 868.611 287.421C867.672 287.421 866.893 287.704 866.273 288.269C865.653 288.825 865.293 289.577 865.193 290.525V300.341H862.65V290.648C862.65 288.497 861.597 287.421 859.492 287.421C857.833 287.421 856.698 288.128 856.087 289.54V300.341H853.558V285.548H855.951ZM887.259 300.341C887.113 300.049 886.995 299.53 886.904 298.782C885.728 300.004 884.324 300.615 882.693 300.615C881.234 300.615 880.036 300.204 879.097 299.384C878.167 298.555 877.703 297.506 877.703 296.24C877.703 294.699 878.286 293.505 879.453 292.657C880.628 291.801 882.278 291.372 884.402 291.372H886.863V290.21C886.863 289.326 886.598 288.624 886.07 288.105C885.541 287.576 884.762 287.312 883.732 287.312C882.83 287.312 882.073 287.54 881.462 287.995C880.852 288.451 880.546 289.003 880.546 289.65H878.003C878.003 288.911 878.263 288.2 878.783 287.517C879.311 286.824 880.022 286.277 880.915 285.876C881.818 285.475 882.807 285.275 883.882 285.275C885.587 285.275 886.922 285.703 887.888 286.56C888.854 287.407 889.356 288.579 889.392 290.073V296.882C889.392 298.24 889.565 299.32 889.912 300.122V300.341H887.259ZM883.062 298.413C883.855 298.413 884.607 298.208 885.318 297.798C886.029 297.388 886.544 296.855 886.863 296.198V293.163H884.88C881.781 293.163 880.232 294.07 880.232 295.884C880.232 296.677 880.496 297.297 881.025 297.743C881.553 298.19 882.233 298.413 883.062 298.413ZM896.105 300.341H893.576V285.548H896.105V300.341ZM893.371 281.624C893.371 281.214 893.494 280.868 893.74 280.585C893.995 280.303 894.369 280.161 894.861 280.161C895.353 280.161 895.727 280.303 895.982 280.585C896.237 280.868 896.365 281.214 896.365 281.624C896.365 282.034 896.237 282.376 895.982 282.65C895.727 282.923 895.353 283.06 894.861 283.06C894.369 283.06 893.995 282.923 893.74 282.65C893.494 282.376 893.371 282.034 893.371 281.624ZM902.544 298.277H911.199V300.341H899.455V298.482L907.617 287.64H899.578V285.548H910.788V287.339L902.544 298.277ZM919.976 300.615C917.971 300.615 916.339 299.958 915.081 298.646C913.824 297.324 913.195 295.56 913.195 293.355V292.89C913.195 291.422 913.473 290.115 914.029 288.966C914.594 287.809 915.378 286.906 916.38 286.259C917.392 285.603 918.486 285.275 919.662 285.275C921.585 285.275 923.08 285.908 924.146 287.175C925.212 288.442 925.746 290.256 925.746 292.616V293.669H915.724C915.76 295.128 916.184 296.308 916.996 297.21C917.816 298.103 918.855 298.55 920.113 298.55C921.006 298.55 921.762 298.368 922.382 298.003C923.002 297.639 923.544 297.156 924.009 296.554L925.554 297.757C924.315 299.662 922.455 300.615 919.976 300.615ZM919.662 287.353C918.641 287.353 917.784 287.726 917.091 288.474C916.399 289.212 915.97 290.251 915.806 291.591H923.216V291.4C923.143 290.115 922.797 289.121 922.177 288.419C921.557 287.708 920.719 287.353 919.662 287.353Z" fill="black"/>
</svg>
