<svg width="535" height="204" viewBox="0 0 535 204" fill="none" xmlns="http://www.w3.org/2000/svg">
<rect width="535" height="204" fill="white"/>
<rect x="282" y="45" width="173" height="24" rx="12" fill="#EFF1F6"/>
<rect x="282" y="76" width="67" height="24" rx="12" fill="#EFF1F6"/>
<rect x="282" y="105" width="59" height="24" rx="12" fill="#EFF1F6"/>
<rect x="282" y="135" width="73" height="24" rx="12" fill="#EFF1F6"/>
<rect x="282" y="166" width="93" height="24" rx="12" fill="#EFF1F6"/>
<rect width="40" height="40" transform="translate(23 45)" fill="white"/>
<path d="M24.5 46.5H61.5V83.5H24.5V46.5Z" stroke="#30394B" stroke-width="3"/>
<rect width="40" height="40" transform="translate(97 45)" fill="white"/>
<path d="M98.5 46.5H135.5V83.5H98.5V46.5Z" stroke="#30394B" stroke-width="3"/>
<rect width="40" height="40" transform="translate(60 45)" fill="white"/>
<path d="M61.5 46.5H98.5V83.5H61.5V46.5Z" stroke="#30394B" stroke-width="3"/>
<rect width="40" height="40" transform="translate(134 45)" fill="white"/>
<path d="M135.5 46.5H172.5V83.5H135.5V46.5Z" stroke="#30394B" stroke-width="3"/>
<path d="M207.414 48.4142C208.195 47.6332 208.195 46.3668 207.414 45.5858L194.686 32.8579C193.905 32.0768 192.639 32.0768 191.858 32.8579C191.077 33.6389 191.077 34.9052 191.858 35.6863L203.172 47L191.858 58.3137C191.077 59.0948 191.077 60.3611 191.858 61.1421C192.639 61.9232 193.905 61.9232 194.686 61.1421L207.414 48.4142ZM23 49H206V45H23V49Z" fill="#E05959"/>
<path d="M309.704 61.168C312.084 61.168 313.736 59.348 313.736 56.38C313.736 53.426 312.084 51.676 309.704 51.676C307.31 51.676 305.658 53.426 305.658 56.38C305.658 59.348 307.31 61.168 309.704 61.168ZM309.704 59.754C308.262 59.754 307.324 58.438 307.324 56.38C307.324 54.336 308.262 53.09 309.704 53.09C311.132 53.09 312.07 54.336 312.07 56.38C312.07 58.438 311.132 59.754 309.704 59.754ZM315.415 61H317.025V56.198C317.599 55.638 317.991 55.344 318.593 55.344C319.349 55.344 319.671 55.764 319.671 56.898V61H321.281V56.688C321.281 54.952 320.637 53.958 319.167 53.958C318.229 53.958 317.529 54.448 316.913 55.05H316.857L316.745 54.126H315.415V61ZM322.801 57.57C322.801 59.838 324.285 61.168 326.189 61.168C327.057 61.168 327.883 60.86 328.541 60.426L327.995 59.418C327.491 59.74 326.987 59.922 326.399 59.922C325.293 59.922 324.509 59.222 324.369 57.976H328.737C328.779 57.808 328.807 57.528 328.807 57.22C328.807 55.302 327.827 53.958 325.965 53.958C324.355 53.958 322.801 55.33 322.801 57.57ZM324.355 56.954C324.495 55.806 325.195 55.204 326.007 55.204C326.945 55.204 327.407 55.862 327.407 56.954H324.355ZM329.965 58.06H333.297V56.884H329.965V58.06ZM334.491 57.57C334.491 59.838 335.597 61.168 337.319 61.168C338.061 61.168 338.761 60.762 339.265 60.258H339.321L339.433 61H340.763V51.116H339.153V53.608L339.209 54.714C338.677 54.252 338.187 53.958 337.403 53.958C335.905 53.958 334.491 55.33 334.491 57.57ZM336.157 57.556C336.157 56.114 336.871 55.288 337.753 55.288C338.215 55.288 338.677 55.442 339.153 55.862V59.068C338.691 59.6 338.243 59.838 337.711 59.838C336.717 59.838 336.157 59.04 336.157 57.556ZM343.625 52.922C344.199 52.922 344.619 52.544 344.619 52.012C344.619 51.466 344.199 51.088 343.625 51.088C343.051 51.088 342.631 51.466 342.631 52.012C342.631 52.544 343.051 52.922 343.625 52.922ZM342.813 61H344.423V54.126H342.813V61ZM346.477 61H348.087V56.198C348.619 55.624 349.109 55.344 349.529 55.344C350.257 55.344 350.593 55.764 350.593 56.898V61H352.203V56.198C352.735 55.624 353.211 55.344 353.645 55.344C354.359 55.344 354.695 55.764 354.695 56.898V61H356.319V56.688C356.319 54.952 355.647 53.958 354.191 53.958C353.323 53.958 352.637 54.49 351.979 55.19C351.657 54.42 351.083 53.958 350.075 53.958C349.221 53.958 348.549 54.448 347.975 55.064H347.919L347.807 54.126H346.477V61ZM357.828 57.57C357.828 59.838 359.312 61.168 361.216 61.168C362.084 61.168 362.91 60.86 363.568 60.426L363.022 59.418C362.518 59.74 362.014 59.922 361.426 59.922C360.32 59.922 359.536 59.222 359.396 57.976H363.764C363.806 57.808 363.834 57.528 363.834 57.22C363.834 55.302 362.854 53.958 360.992 53.958C359.382 53.958 357.828 55.33 357.828 57.57ZM359.382 56.954C359.522 55.806 360.222 55.204 361.034 55.204C361.972 55.204 362.434 55.862 362.434 56.954H359.382ZM365.372 61H366.982V56.198C367.556 55.638 367.948 55.344 368.55 55.344C369.306 55.344 369.628 55.764 369.628 56.898V61H371.238V56.688C371.238 54.952 370.594 53.958 369.124 53.958C368.186 53.958 367.486 54.448 366.87 55.05H366.814L366.702 54.126H365.372V61ZM372.52 60.216C373.192 60.762 374.186 61.168 375.124 61.168C376.86 61.168 377.798 60.216 377.798 59.04C377.798 57.752 376.762 57.304 375.824 56.954C375.082 56.688 374.396 56.464 374.396 55.932C374.396 55.498 374.718 55.176 375.404 55.176C375.95 55.176 376.44 55.414 376.916 55.764L377.658 54.784C377.098 54.35 376.328 53.958 375.376 53.958C373.836 53.958 372.87 54.812 372.87 56.016C372.87 57.164 373.892 57.682 374.802 58.018C375.53 58.298 376.272 58.55 376.272 59.124C376.272 59.6 375.922 59.95 375.18 59.95C374.48 59.95 373.892 59.656 373.276 59.18L372.52 60.216ZM380.047 52.922C380.621 52.922 381.041 52.544 381.041 52.012C381.041 51.466 380.621 51.088 380.047 51.088C379.473 51.088 379.053 51.466 379.053 52.012C379.053 52.544 379.473 52.922 380.047 52.922ZM379.235 61H380.845V54.126H379.235V61ZM382.451 57.57C382.451 59.852 384.005 61.168 385.713 61.168C387.435 61.168 388.989 59.852 388.989 57.57C388.989 55.274 387.435 53.958 385.713 53.958C384.005 53.958 382.451 55.274 382.451 57.57ZM384.103 57.57C384.103 56.184 384.705 55.274 385.713 55.274C386.721 55.274 387.337 56.184 387.337 57.57C387.337 58.942 386.721 59.852 385.713 59.852C384.705 59.852 384.103 58.942 384.103 57.57ZM390.583 61H392.193V56.198C392.767 55.638 393.159 55.344 393.761 55.344C394.517 55.344 394.839 55.764 394.839 56.898V61H396.449V56.688C396.449 54.952 395.805 53.958 394.335 53.958C393.397 53.958 392.697 54.448 392.081 55.05H392.025L391.913 54.126H390.583V61ZM398.123 59.152C398.123 60.356 398.963 61.168 400.167 61.168C400.979 61.168 401.679 60.762 402.295 60.244H402.337L402.463 61H403.779V56.926C403.779 55.008 402.939 53.958 401.217 53.958C400.125 53.958 399.159 54.378 398.403 54.854L398.991 55.932C399.593 55.568 400.237 55.26 400.923 55.26C401.847 55.26 402.155 55.876 402.169 56.604C399.355 56.912 398.123 57.682 398.123 59.152ZM399.691 59.026C399.691 58.34 400.307 57.85 402.169 57.612V59.152C401.665 59.628 401.231 59.908 400.671 59.908C400.097 59.908 399.691 59.642 399.691 59.026ZM405.745 59.236C405.745 60.426 406.165 61.168 407.313 61.168C407.691 61.168 407.971 61.112 408.167 61.028L407.957 59.824C407.831 59.852 407.775 59.852 407.705 59.852C407.537 59.852 407.355 59.712 407.355 59.32V51.116H405.745V59.236Z" fill="#E05959"/>
<path d="M412.123 59.152C412.123 60.356 412.963 61.168 414.167 61.168C414.979 61.168 415.679 60.762 416.295 60.244H416.337L416.463 61H417.779V56.926C417.779 55.008 416.939 53.958 415.217 53.958C414.125 53.958 413.159 54.378 412.403 54.854L412.991 55.932C413.593 55.568 414.237 55.26 414.923 55.26C415.847 55.26 416.155 55.876 416.169 56.604C413.355 56.912 412.123 57.682 412.123 59.152ZM413.691 59.026C413.691 58.34 414.307 57.85 416.169 57.612V59.152C415.665 59.628 415.231 59.908 414.671 59.908C414.097 59.908 413.691 59.642 413.691 59.026ZM419.745 61H421.355V56.8C421.775 55.764 422.433 55.386 422.979 55.386C423.273 55.386 423.455 55.428 423.693 55.498L423.973 54.098C423.763 54 423.539 53.958 423.189 53.958C422.461 53.958 421.733 54.448 421.243 55.344H421.187L421.075 54.126H419.745V61ZM424.967 61H426.577V56.8C426.997 55.764 427.655 55.386 428.201 55.386C428.495 55.386 428.677 55.428 428.915 55.498L429.195 54.098C428.985 54 428.761 53.958 428.411 53.958C427.683 53.958 426.955 54.448 426.465 55.344H426.409L426.297 54.126H424.967V61ZM429.513 59.152C429.513 60.356 430.353 61.168 431.557 61.168C432.369 61.168 433.069 60.762 433.685 60.244H433.727L433.853 61H435.169V56.926C435.169 55.008 434.329 53.958 432.607 53.958C431.515 53.958 430.549 54.378 429.793 54.854L430.381 55.932C430.983 55.568 431.627 55.26 432.313 55.26C433.237 55.26 433.545 55.876 433.559 56.604C430.745 56.912 429.513 57.682 429.513 59.152ZM431.081 59.026C431.081 58.34 431.697 57.85 433.559 57.612V59.152C433.055 59.628 432.621 59.908 432.061 59.908C431.487 59.908 431.081 59.642 431.081 59.026ZM436.995 62.428L436.701 63.688C436.953 63.772 437.219 63.828 437.597 63.828C439.095 63.828 439.809 62.862 440.383 61.308L442.875 54.126H441.321L440.285 57.5C440.117 58.116 439.935 58.802 439.767 59.432H439.711C439.501 58.788 439.305 58.102 439.109 57.5L437.919 54.126H436.281L438.983 60.916L438.857 61.35C438.633 62.036 438.213 62.526 437.485 62.526C437.317 62.526 437.121 62.47 436.995 62.428ZM307.688 87.248L308.01 86.128C308.304 85.162 308.57 84.126 308.822 83.104H308.878C309.144 84.112 309.424 85.162 309.704 86.128L310.026 87.248H307.688ZM311.104 91H312.826L309.844 81.844H307.94L304.944 91H306.61L307.324 88.522H310.39L311.104 91ZM313.788 91H315.398V86.8C315.818 85.764 316.476 85.386 317.022 85.386C317.316 85.386 317.498 85.428 317.736 85.498L318.016 84.098C317.806 84 317.582 83.958 317.232 83.958C316.504 83.958 315.776 84.448 315.286 85.344H315.23L315.118 84.126H313.788V91ZM319.01 91H320.62V86.8C321.04 85.764 321.698 85.386 322.244 85.386C322.538 85.386 322.72 85.428 322.958 85.498L323.238 84.098C323.028 84 322.804 83.958 322.454 83.958C321.726 83.958 320.998 84.448 320.508 85.344H320.452L320.34 84.126H319.01V91ZM323.556 89.152C323.556 90.356 324.396 91.168 325.6 91.168C326.412 91.168 327.112 90.762 327.728 90.244H327.77L327.896 91H329.212V86.926C329.212 85.008 328.372 83.958 326.65 83.958C325.558 83.958 324.592 84.378 323.836 84.854L324.424 85.932C325.026 85.568 325.67 85.26 326.356 85.26C327.28 85.26 327.588 85.876 327.602 86.604C324.788 86.912 323.556 87.682 323.556 89.152ZM325.124 89.026C325.124 88.34 325.74 87.85 327.602 87.612V89.152C327.098 89.628 326.664 89.908 326.104 89.908C325.53 89.908 325.124 89.642 325.124 89.026ZM331.038 92.428L330.744 93.688C330.996 93.772 331.262 93.828 331.64 93.828C333.138 93.828 333.852 92.862 334.426 91.308L336.918 84.126H335.364L334.328 87.5C334.16 88.116 333.978 88.802 333.81 89.432H333.754C333.544 88.788 333.348 88.102 333.152 87.5L331.962 84.126H330.324L333.026 90.916L332.9 91.35C332.676 92.036 332.256 92.526 331.528 92.526C331.36 92.526 331.164 92.47 331.038 92.428ZM306.148 121H311.566V119.628H307.772V111.844H306.148V121ZM313.82 112.922C314.394 112.922 314.814 112.544 314.814 112.012C314.814 111.466 314.394 111.088 313.82 111.088C313.246 111.088 312.826 111.466 312.826 112.012C312.826 112.544 313.246 112.922 313.82 112.922ZM313.008 121H314.618V114.126H313.008V121ZM315.986 120.216C316.658 120.762 317.652 121.168 318.59 121.168C320.326 121.168 321.264 120.216 321.264 119.04C321.264 117.752 320.228 117.304 319.29 116.954C318.548 116.688 317.862 116.464 317.862 115.932C317.862 115.498 318.184 115.176 318.87 115.176C319.416 115.176 319.906 115.414 320.382 115.764L321.124 114.784C320.564 114.35 319.794 113.958 318.842 113.958C317.302 113.958 316.336 114.812 316.336 116.016C316.336 117.164 317.358 117.682 318.268 118.018C318.996 118.298 319.738 118.55 319.738 119.124C319.738 119.6 319.388 119.95 318.646 119.95C317.946 119.95 317.358 119.656 316.742 119.18L315.986 120.216ZM322.94 118.676C322.94 120.16 323.528 121.168 325.124 121.168C325.67 121.168 326.146 121.042 326.524 120.916L326.244 119.726C326.048 119.81 325.768 119.88 325.53 119.88C324.872 119.88 324.564 119.488 324.564 118.676V115.4H326.314V114.126H324.564V112.25H323.22L323.024 114.126L321.96 114.196V115.4H322.94V118.676ZM307.772 151H309.704L312.532 141.844H310.88L309.606 146.45C309.312 147.486 309.102 148.382 308.794 149.432H308.738C308.43 148.382 308.234 147.486 307.94 146.45L306.652 141.844H304.93L307.772 151ZM312.806 147.57C312.806 149.838 314.29 151.168 316.194 151.168C317.062 151.168 317.888 150.86 318.546 150.426L318 149.418C317.496 149.74 316.992 149.922 316.404 149.922C315.298 149.922 314.514 149.222 314.374 147.976H318.742C318.784 147.808 318.812 147.528 318.812 147.22C318.812 145.302 317.832 143.958 315.97 143.958C314.36 143.958 312.806 145.33 312.806 147.57ZM314.36 146.954C314.5 145.806 315.2 145.204 316.012 145.204C316.95 145.204 317.412 145.862 317.412 146.954H314.36ZM319.902 147.57C319.902 149.852 321.344 151.168 323.22 151.168C324.004 151.168 324.83 150.86 325.474 150.286L324.802 149.264C324.424 149.572 323.948 149.852 323.388 149.852C322.31 149.852 321.554 148.942 321.554 147.57C321.554 146.184 322.324 145.274 323.43 145.274C323.864 145.274 324.228 145.456 324.592 145.778L325.362 144.756C324.9 144.308 324.228 143.958 323.346 143.958C321.512 143.958 319.902 145.274 319.902 147.57ZM327.055 148.676C327.055 150.16 327.643 151.168 329.239 151.168C329.785 151.168 330.261 151.042 330.639 150.916L330.359 149.726C330.163 149.81 329.883 149.88 329.645 149.88C328.987 149.88 328.679 149.488 328.679 148.676V145.4H330.429V144.126H328.679V142.25H327.335L327.139 144.126L326.075 144.196V145.4H327.055V148.676ZM331.291 147.57C331.291 149.852 332.845 151.168 334.553 151.168C336.275 151.168 337.829 149.852 337.829 147.57C337.829 145.274 336.275 143.958 334.553 143.958C332.845 143.958 331.291 145.274 331.291 147.57ZM332.943 147.57C332.943 146.184 333.545 145.274 334.553 145.274C335.561 145.274 336.177 146.184 336.177 147.57C336.177 148.942 335.561 149.852 334.553 149.852C333.545 149.852 332.943 148.942 332.943 147.57ZM339.422 151H341.032V146.8C341.452 145.764 342.11 145.386 342.656 145.386C342.95 145.386 343.132 145.428 343.37 145.498L343.65 144.098C343.44 144 343.216 143.958 342.866 143.958C342.138 143.958 341.41 144.448 340.92 145.344H340.864L340.752 144.126H339.422V151ZM305.518 179.824C306.386 180.678 307.576 181.168 308.808 181.168C310.866 181.168 312.098 179.936 312.098 178.452C312.098 177.122 311.342 176.436 310.25 175.974L309.018 175.456C308.262 175.148 307.562 174.882 307.562 174.168C307.562 173.496 308.122 173.09 308.99 173.09C309.774 173.09 310.404 173.384 310.978 173.874L311.818 172.838C311.104 172.124 310.068 171.676 308.99 171.676C307.212 171.676 305.924 172.796 305.924 174.252C305.924 175.596 306.862 176.31 307.772 176.688L309.018 177.234C309.858 177.584 310.446 177.822 310.446 178.578C310.446 179.292 309.872 179.754 308.85 179.754C307.996 179.754 307.114 179.334 306.456 178.718L305.518 179.824ZM313.162 177.57C313.162 179.838 314.646 181.168 316.55 181.168C317.418 181.168 318.244 180.86 318.902 180.426L318.356 179.418C317.852 179.74 317.348 179.922 316.76 179.922C315.654 179.922 314.87 179.222 314.73 177.976H319.098C319.14 177.808 319.168 177.528 319.168 177.22C319.168 175.302 318.188 173.958 316.326 173.958C314.716 173.958 313.162 175.33 313.162 177.57ZM314.716 176.954C314.856 175.806 315.556 175.204 316.368 175.204C317.306 175.204 317.768 175.862 317.768 176.954H314.716ZM320.286 177.57C320.286 179.838 321.392 181.168 323.114 181.168C323.814 181.168 324.5 180.804 325.004 180.328L324.948 181.462V183.716H326.558V174.126H325.284L325.144 174.784H325.102C324.528 174.224 323.968 173.958 323.198 173.958C321.7 173.958 320.286 175.33 320.286 177.57ZM321.952 177.556C321.952 176.114 322.666 175.288 323.548 175.288C324.01 175.288 324.472 175.442 324.948 175.862V179.068C324.486 179.6 324.038 179.838 323.506 179.838C322.512 179.838 321.952 179.04 321.952 177.556ZM328.483 178.438C328.483 180.174 329.127 181.168 330.597 181.168C331.535 181.168 332.207 180.706 332.809 179.992H332.851L332.977 181H334.293V174.126H332.683V178.83C332.165 179.502 331.759 179.782 331.157 179.782C330.415 179.782 330.093 179.362 330.093 178.228V174.126H328.483V178.438ZM335.885 177.57C335.885 179.838 337.369 181.168 339.273 181.168C340.141 181.168 340.967 180.86 341.625 180.426L341.079 179.418C340.575 179.74 340.071 179.922 339.483 179.922C338.377 179.922 337.593 179.222 337.453 177.976H341.821C341.863 177.808 341.891 177.528 341.891 177.22C341.891 175.302 340.911 173.958 339.049 173.958C337.439 173.958 335.885 175.33 335.885 177.57ZM337.439 176.954C337.579 175.806 338.279 175.204 339.091 175.204C340.029 175.204 340.491 175.862 340.491 176.954H337.439ZM343.428 181H345.038V176.198C345.612 175.638 346.004 175.344 346.606 175.344C347.362 175.344 347.684 175.764 347.684 176.898V181H349.294V176.688C349.294 174.952 348.65 173.958 347.18 173.958C346.242 173.958 345.542 174.448 344.926 175.05H344.87L344.758 174.126H343.428V181ZM350.814 177.57C350.814 179.852 352.256 181.168 354.132 181.168C354.916 181.168 355.742 180.86 356.386 180.286L355.714 179.264C355.336 179.572 354.86 179.852 354.3 179.852C353.222 179.852 352.466 178.942 352.466 177.57C352.466 176.184 353.236 175.274 354.342 175.274C354.776 175.274 355.14 175.456 355.504 175.778L356.274 174.756C355.812 174.308 355.14 173.958 354.258 173.958C352.424 173.958 350.814 175.274 350.814 177.57ZM356.939 177.57C356.939 179.838 358.423 181.168 360.327 181.168C361.195 181.168 362.021 180.86 362.679 180.426L362.133 179.418C361.629 179.74 361.125 179.922 360.537 179.922C359.431 179.922 358.647 179.222 358.507 177.976H362.875C362.917 177.808 362.945 177.528 362.945 177.22C362.945 175.302 361.965 173.958 360.103 173.958C358.493 173.958 356.939 175.33 356.939 177.57ZM358.493 176.954C358.633 175.806 359.333 175.204 360.145 175.204C361.083 175.204 361.545 175.862 361.545 176.954H358.493Z" fill="#30394B"/>
<path d="M283.368 26H286.032V22.85L287.4 21.05L290.244 26H293.16L288.948 18.944L292.494 14.264H289.596L286.086 19.07H286.032V14.264H283.368V26ZM294.209 26H296.855V19.97C297.431 19.412 297.845 19.106 298.511 19.106C299.267 19.106 299.609 19.502 299.609 20.798V26H302.255V20.456C302.255 18.224 301.427 16.856 299.483 16.856C298.277 16.856 297.377 17.486 296.621 18.206H296.549L296.369 17.072H294.209V26ZM303.988 21.536C303.988 24.506 306.076 26.216 308.344 26.216C310.594 26.216 312.682 24.506 312.682 21.536C312.682 18.566 310.594 16.856 308.344 16.856C306.076 16.856 303.988 18.566 303.988 21.536ZM306.706 21.536C306.706 19.988 307.246 18.998 308.344 18.998C309.424 18.998 309.982 19.988 309.982 21.536C309.982 23.084 309.424 24.074 308.344 24.074C307.246 24.074 306.706 23.084 306.706 21.536ZM315.848 26H318.872L319.664 22.436C319.826 21.608 319.952 20.78 320.114 19.826H320.186C320.348 20.78 320.492 21.608 320.672 22.436L321.482 26H324.578L326.72 17.072H324.272L323.426 21.212C323.264 22.094 323.174 22.958 323.012 23.858H322.94C322.76 22.958 322.598 22.094 322.382 21.212L321.374 17.072H319.088L318.098 21.212C317.882 22.058 317.738 22.958 317.576 23.858H317.504C317.36 22.958 317.252 22.094 317.108 21.212L316.244 17.072H313.616L315.848 26ZM328.328 26H330.974V19.97C331.55 19.412 331.964 19.106 332.63 19.106C333.386 19.106 333.728 19.502 333.728 20.798V26H336.374V20.456C336.374 18.224 335.546 16.856 333.602 16.856C332.396 16.856 331.496 17.486 330.74 18.206H330.668L330.488 17.072H328.328V26ZM342.049 23.516C342.049 25.028 343.075 26.216 344.695 26.216C345.703 26.216 346.549 25.748 347.305 25.082H347.359L347.557 26H349.717V20.888C349.717 18.152 348.457 16.856 346.171 16.856C344.767 16.856 343.489 17.342 342.355 18.026L343.291 19.772C344.155 19.268 344.911 18.962 345.667 18.962C346.621 18.962 347.017 19.466 347.071 20.258C343.543 20.618 342.049 21.644 342.049 23.516ZM344.569 23.318C344.569 22.634 345.181 22.094 347.071 21.842V23.408C346.603 23.876 346.207 24.164 345.595 24.164C344.965 24.164 344.569 23.894 344.569 23.318ZM351.196 24.974C352.096 25.712 353.446 26.216 354.616 26.216C357.01 26.216 358.288 24.956 358.288 23.336C358.288 21.698 357.01 21.068 355.876 20.654C354.958 20.312 354.13 20.096 354.13 19.52C354.13 19.07 354.454 18.818 355.138 18.818C355.768 18.818 356.38 19.106 357.028 19.574L358.216 17.99C357.442 17.414 356.434 16.856 355.066 16.856C352.996 16.856 351.646 17.99 351.646 19.646C351.646 21.122 352.924 21.86 354.004 22.274C354.922 22.634 355.822 22.904 355.822 23.498C355.822 23.966 355.48 24.254 354.688 24.254C353.932 24.254 353.194 23.93 352.384 23.318L351.196 24.974Z" fill="#30394B"/>
<circle opacity="0.2" cx="296" cy="56" r="4" fill="#6F778D"/>
<circle opacity="0.2" cx="296" cy="87" r="4" fill="#6F778D"/>
<circle opacity="0.2" cx="296" cy="116" r="4" fill="#6F778D"/>
<circle opacity="0.2" cx="296" cy="146" r="4" fill="#6F778D"/>
<circle opacity="0.2" cx="296" cy="177" r="4" fill="#6F778D"/>
<path d="M24.26 26H31.532V23.858H29.39V14.57H27.446C26.636 15.056 25.844 15.38 24.602 15.614V17.252H26.744V23.858H24.26V26ZM33.8778 26H37.3518C40.7898 26 43.0938 24.11 43.0938 20.078C43.0938 16.046 40.7898 14.264 37.1898 14.264H33.8778V26ZM36.5418 23.858V16.406H37.0458C39.0258 16.406 40.3758 17.27 40.3758 20.078C40.3758 22.886 39.0258 23.858 37.0458 23.858H36.5418Z" fill="#E05959"/>
<path d="M46.402 15.758C47.302 15.758 47.932 15.182 47.932 14.372C47.932 13.562 47.302 13.004 46.402 13.004C45.52 13.004 44.872 13.562 44.872 14.372C44.872 15.182 45.52 15.758 46.402 15.758ZM45.088 26H47.734V17.072H45.088V26ZM50.0626 26H52.7086V19.97C53.2666 19.394 53.7886 19.106 54.2206 19.106C54.9766 19.106 55.3186 19.502 55.3186 20.798V26H57.9646V19.97C58.5406 19.394 59.0446 19.106 59.4946 19.106C60.2506 19.106 60.5926 19.502 60.5926 20.798V26H63.2386V20.456C63.2386 18.224 62.3746 16.856 60.4486 16.856C59.2606 16.856 58.4326 17.54 57.6406 18.35C57.1906 17.396 56.4346 16.856 55.1746 16.856C54.0046 16.856 53.2126 17.486 52.4746 18.224H52.4026L52.2226 17.072H50.0626V26ZM64.9742 21.536C64.9742 24.488 66.9362 26.216 69.4922 26.216C70.5542 26.216 71.7422 25.838 72.6602 25.208L71.7782 23.606C71.1302 24.002 70.5182 24.2 69.8522 24.2C68.6642 24.2 67.7642 23.606 67.5302 22.256H72.8762C72.9302 22.04 72.9842 21.608 72.9842 21.14C72.9842 18.71 71.7242 16.856 69.1862 16.856C67.0442 16.856 64.9742 18.638 64.9742 21.536ZM67.5122 20.618C67.6922 19.43 68.4122 18.872 69.2402 18.872C70.3022 18.872 70.7342 19.592 70.7342 20.618H67.5122ZM74.8126 26H77.4586V19.97C78.0346 19.412 78.4486 19.106 79.1146 19.106C79.8706 19.106 80.2126 19.502 80.2126 20.798V26H82.8586V20.456C82.8586 18.224 82.0306 16.856 80.0866 16.856C78.8806 16.856 77.9806 17.486 77.2246 18.206H77.1526L76.9726 17.072H74.8126V26ZM84.3214 24.974C85.2214 25.712 86.5714 26.216 87.7414 26.216C90.1354 26.216 91.4134 24.956 91.4134 23.336C91.4134 21.698 90.1354 21.068 89.0014 20.654C88.0834 20.312 87.2554 20.096 87.2554 19.52C87.2554 19.07 87.5794 18.818 88.2634 18.818C88.8934 18.818 89.5054 19.106 90.1534 19.574L91.3414 17.99C90.5674 17.414 89.5594 16.856 88.1914 16.856C86.1214 16.856 84.7714 17.99 84.7714 19.646C84.7714 21.122 86.0494 21.86 87.1294 22.274C88.0474 22.634 88.9474 22.904 88.9474 23.498C88.9474 23.966 88.6054 24.254 87.8134 24.254C87.0574 24.254 86.3194 23.93 85.5094 23.318L84.3214 24.974ZM94.4078 15.758C95.3078 15.758 95.9378 15.182 95.9378 14.372C95.9378 13.562 95.3078 13.004 94.4078 13.004C93.5258 13.004 92.8778 13.562 92.8778 14.372C92.8778 15.182 93.5258 15.758 94.4078 15.758ZM93.0938 26H95.7398V17.072H93.0938V26ZM97.5464 21.536C97.5464 24.506 99.6344 26.216 101.902 26.216C104.152 26.216 106.24 24.506 106.24 21.536C106.24 18.566 104.152 16.856 101.902 16.856C99.6344 16.856 97.5464 18.566 97.5464 21.536ZM100.264 21.536C100.264 19.988 100.804 18.998 101.902 18.998C102.982 18.998 103.54 19.988 103.54 21.536C103.54 23.084 102.982 24.074 101.902 24.074C100.804 24.074 100.264 23.084 100.264 21.536ZM108.053 26H110.699V19.97C111.275 19.412 111.689 19.106 112.355 19.106C113.111 19.106 113.453 19.502 113.453 20.798V26H116.099V20.456C116.099 18.224 115.271 16.856 113.327 16.856C112.121 16.856 111.221 17.486 110.465 18.206H110.393L110.213 17.072H108.053V26ZM124.762 21.14L125.05 20.06C125.374 18.89 125.698 17.522 125.968 16.28H126.04C126.364 17.504 126.67 18.89 126.994 20.06L127.282 21.14H124.762ZM128.542 26H131.35L127.66 14.264H124.492L120.802 26H123.502L124.222 23.21H127.822L128.542 26ZM132.381 26H135.027V20.816C135.495 19.61 136.323 19.178 136.989 19.178C137.367 19.178 137.637 19.232 137.961 19.322L138.393 17.036C138.141 16.928 137.835 16.856 137.331 16.856C136.413 16.856 135.441 17.432 134.793 18.638H134.721L134.541 17.072H132.381V26ZM139.553 26H142.199V20.816C142.667 19.61 143.495 19.178 144.161 19.178C144.539 19.178 144.809 19.232 145.133 19.322L145.565 17.036C145.313 16.928 145.007 16.856 144.503 16.856C143.585 16.856 142.613 17.432 141.965 18.638H141.893L141.713 17.072H139.553V26ZM145.873 23.516C145.873 25.028 146.899 26.216 148.519 26.216C149.527 26.216 150.373 25.748 151.129 25.082H151.183L151.381 26H153.541V20.888C153.541 18.152 152.281 16.856 149.995 16.856C148.591 16.856 147.313 17.342 146.179 18.026L147.115 19.772C147.979 19.268 148.735 18.962 149.491 18.962C150.445 18.962 150.841 19.466 150.895 20.258C147.367 20.618 145.873 21.644 145.873 23.516ZM148.393 23.318C148.393 22.634 149.005 22.094 150.895 21.842V23.408C150.427 23.876 150.031 24.164 149.419 24.164C148.789 24.164 148.393 23.894 148.393 23.318ZM156.011 27.296L155.543 29.312C155.903 29.42 156.263 29.492 156.803 29.492C158.909 29.492 159.863 28.34 160.709 26.09L163.805 17.072H161.267L160.187 20.906C159.971 21.752 159.773 22.598 159.575 23.444H159.503C159.269 22.562 159.053 21.716 158.801 20.906L157.523 17.072H154.859L158.297 25.766L158.171 26.234C157.937 26.936 157.487 27.404 156.605 27.404C156.407 27.404 156.173 27.332 156.011 27.296Z" fill="#30394B"/>
</svg>
