<svg width="535" height="473" viewBox="0 0 535 473" fill="none" xmlns="http://www.w3.org/2000/svg">
<rect width="535" height="473" fill="white"/>
<rect x="282" y="45" width="173" height="24" rx="12" fill="#EFF1F6"/>
<rect x="283" y="277" width="175" height="24" rx="12" fill="#EFF1F6"/>
<rect x="282" y="76" width="67" height="24" rx="12" fill="#EFF1F6"/>
<rect x="283" y="308" width="71" height="24" rx="12" fill="#EFF1F6"/>
<rect x="282" y="105" width="59" height="24" rx="12" fill="#EFF1F6"/>
<rect x="283" y="337" width="65" height="24" rx="12" fill="#EFF1F6"/>
<rect x="282" y="135" width="73" height="24" rx="12" fill="#EFF1F6"/>
<rect x="283" y="367" width="108" height="24" rx="12" fill="#EFF1F6"/>
<rect x="282" y="166" width="93" height="24" rx="12" fill="#EFF1F6"/>
<rect x="283" y="398" width="111" height="24" rx="12" fill="#EFF1F6"/>
<rect width="40" height="40" transform="translate(23 45)" fill="white"/>
<path d="M24.5 46.5H61.5V83.5H24.5V46.5Z" stroke="#30394B" stroke-width="3"/>
<rect width="40" height="40" transform="translate(24 277)" fill="white"/>
<path d="M25.5 278.5H62.5V315.5H25.5V278.5Z" stroke="#30394B" stroke-width="3"/>
<rect width="40" height="40" transform="translate(24 351)" fill="white"/>
<path d="M25.5 352.5H62.5V389.5H25.5V352.5Z" stroke="#30394B" stroke-width="3"/>
<rect width="40" height="40" transform="translate(24 314)" fill="white"/>
<path d="M25.5 315.5H62.5V352.5H25.5V315.5Z" stroke="#30394B" stroke-width="3"/>
<rect width="40" height="40" transform="translate(24 388)" fill="white"/>
<path d="M25.5 389.5H62.5V426.5H25.5V389.5Z" stroke="#30394B" stroke-width="3"/>
<rect width="40" height="40" transform="translate(97 45)" fill="white"/>
<path d="M98.5 46.5H135.5V83.5H98.5V46.5Z" stroke="#30394B" stroke-width="3"/>
<rect width="40" height="40" transform="translate(98 277)" fill="white"/>
<path d="M99.5 278.5H136.5V315.5H99.5V278.5Z" stroke="#30394B" stroke-width="3"/>
<rect width="40" height="40" transform="translate(98 351)" fill="white"/>
<path d="M99.5 352.5H136.5V389.5H99.5V352.5Z" stroke="#30394B" stroke-width="3"/>
<rect width="40" height="40" transform="translate(98 314)" fill="white"/>
<path d="M99.5 315.5H136.5V352.5H99.5V315.5Z" stroke="#30394B" stroke-width="3"/>
<rect width="40" height="40" transform="translate(98 388)" fill="white"/>
<path d="M99.5 389.5H136.5V426.5H99.5V389.5Z" stroke="#30394B" stroke-width="3"/>
<rect width="40" height="40" transform="translate(60 45)" fill="white"/>
<path d="M61.5 46.5H98.5V83.5H61.5V46.5Z" stroke="#30394B" stroke-width="3"/>
<rect width="40" height="40" transform="translate(61 277)" fill="white"/>
<path d="M62.5 278.5H99.5V315.5H62.5V278.5Z" stroke="#30394B" stroke-width="3"/>
<rect width="40" height="40" transform="translate(61 351)" fill="white"/>
<path d="M62.5 352.5H99.5V389.5H62.5V352.5Z" stroke="#30394B" stroke-width="3"/>
<rect width="40" height="40" transform="translate(61 314)" fill="white"/>
<path d="M62.5 315.5H99.5V352.5H62.5V315.5Z" stroke="#30394B" stroke-width="3"/>
<rect width="40" height="40" transform="translate(61 388)" fill="white"/>
<path d="M62.5 389.5H99.5V426.5H62.5V389.5Z" stroke="#30394B" stroke-width="3"/>
<rect width="40" height="40" transform="translate(134 45)" fill="white"/>
<path d="M135.5 46.5H172.5V83.5H135.5V46.5Z" stroke="#30394B" stroke-width="3"/>
<rect width="40" height="40" transform="translate(135 277)" fill="white"/>
<path d="M136.5 278.5H173.5V315.5H136.5V278.5Z" stroke="#30394B" stroke-width="3"/>
<rect width="40" height="40" transform="translate(135 351)" fill="white"/>
<path d="M136.5 352.5H173.5V389.5H136.5V352.5Z" stroke="#30394B" stroke-width="3"/>
<rect width="40" height="40" transform="translate(135 314)" fill="white"/>
<path d="M136.5 315.5H173.5V352.5H136.5V315.5Z" stroke="#30394B" stroke-width="3"/>
<rect width="40" height="40" transform="translate(135 388)" fill="white"/>
<path d="M136.5 389.5H173.5V426.5H136.5V389.5Z" stroke="#30394B" stroke-width="3"/>
<path d="M207.414 48.4142C208.195 47.6332 208.195 46.3668 207.414 45.5858L194.686 32.8579C193.905 32.0768 192.639 32.0768 191.858 32.8579C191.077 33.6389 191.077 34.9052 191.858 35.6863L203.172 47L191.858 58.3137C191.077 59.0948 191.077 60.3611 191.858 61.1421C192.639 61.9232 193.905 61.9232 194.686 61.1421L207.414 48.4142ZM23 49H206V45H23V49Z" fill="#E05959"/>
<path d="M208.414 280.414C209.195 279.633 209.195 278.367 208.414 277.586L195.686 264.858C194.905 264.077 193.639 264.077 192.858 264.858C192.077 265.639 192.077 266.905 192.858 267.686L204.172 279L192.858 290.314C192.077 291.095 192.077 292.361 192.858 293.142C193.639 293.923 194.905 293.923 195.686 293.142L208.414 280.414ZM24 281H207V277H24V281Z" fill="#29A1F8"/>
<path d="M24.5858 461.414C25.3668 462.195 26.6332 462.195 27.4142 461.414L40.1421 448.686C40.9232 447.905 40.9232 446.639 40.1421 445.858C39.3611 445.077 38.0948 445.077 37.3137 445.858L26 457.172L14.6863 445.858C13.9052 445.077 12.6389 445.077 11.8579 445.858C11.0768 446.639 11.0768 447.905 11.8579 448.686L24.5858 461.414ZM24 277L24 460H28L28 277H24Z" fill="#29A1F8"/>
<path d="M309.704 61.168C312.084 61.168 313.736 59.348 313.736 56.38C313.736 53.426 312.084 51.676 309.704 51.676C307.31 51.676 305.658 53.426 305.658 56.38C305.658 59.348 307.31 61.168 309.704 61.168ZM309.704 59.754C308.262 59.754 307.324 58.438 307.324 56.38C307.324 54.336 308.262 53.09 309.704 53.09C311.132 53.09 312.07 54.336 312.07 56.38C312.07 58.438 311.132 59.754 309.704 59.754ZM315.415 61H317.025V56.198C317.599 55.638 317.991 55.344 318.593 55.344C319.349 55.344 319.671 55.764 319.671 56.898V61H321.281V56.688C321.281 54.952 320.637 53.958 319.167 53.958C318.229 53.958 317.529 54.448 316.913 55.05H316.857L316.745 54.126H315.415V61ZM322.801 57.57C322.801 59.838 324.285 61.168 326.189 61.168C327.057 61.168 327.883 60.86 328.541 60.426L327.995 59.418C327.491 59.74 326.987 59.922 326.399 59.922C325.293 59.922 324.509 59.222 324.369 57.976H328.737C328.779 57.808 328.807 57.528 328.807 57.22C328.807 55.302 327.827 53.958 325.965 53.958C324.355 53.958 322.801 55.33 322.801 57.57ZM324.355 56.954C324.495 55.806 325.195 55.204 326.007 55.204C326.945 55.204 327.407 55.862 327.407 56.954H324.355ZM329.965 58.06H333.297V56.884H329.965V58.06ZM334.491 57.57C334.491 59.838 335.597 61.168 337.319 61.168C338.061 61.168 338.761 60.762 339.265 60.258H339.321L339.433 61H340.763V51.116H339.153V53.608L339.209 54.714C338.677 54.252 338.187 53.958 337.403 53.958C335.905 53.958 334.491 55.33 334.491 57.57ZM336.157 57.556C336.157 56.114 336.871 55.288 337.753 55.288C338.215 55.288 338.677 55.442 339.153 55.862V59.068C338.691 59.6 338.243 59.838 337.711 59.838C336.717 59.838 336.157 59.04 336.157 57.556ZM343.625 52.922C344.199 52.922 344.619 52.544 344.619 52.012C344.619 51.466 344.199 51.088 343.625 51.088C343.051 51.088 342.631 51.466 342.631 52.012C342.631 52.544 343.051 52.922 343.625 52.922ZM342.813 61H344.423V54.126H342.813V61ZM346.477 61H348.087V56.198C348.619 55.624 349.109 55.344 349.529 55.344C350.257 55.344 350.593 55.764 350.593 56.898V61H352.203V56.198C352.735 55.624 353.211 55.344 353.645 55.344C354.359 55.344 354.695 55.764 354.695 56.898V61H356.319V56.688C356.319 54.952 355.647 53.958 354.191 53.958C353.323 53.958 352.637 54.49 351.979 55.19C351.657 54.42 351.083 53.958 350.075 53.958C349.221 53.958 348.549 54.448 347.975 55.064H347.919L347.807 54.126H346.477V61ZM357.828 57.57C357.828 59.838 359.312 61.168 361.216 61.168C362.084 61.168 362.91 60.86 363.568 60.426L363.022 59.418C362.518 59.74 362.014 59.922 361.426 59.922C360.32 59.922 359.536 59.222 359.396 57.976H363.764C363.806 57.808 363.834 57.528 363.834 57.22C363.834 55.302 362.854 53.958 360.992 53.958C359.382 53.958 357.828 55.33 357.828 57.57ZM359.382 56.954C359.522 55.806 360.222 55.204 361.034 55.204C361.972 55.204 362.434 55.862 362.434 56.954H359.382ZM365.372 61H366.982V56.198C367.556 55.638 367.948 55.344 368.55 55.344C369.306 55.344 369.628 55.764 369.628 56.898V61H371.238V56.688C371.238 54.952 370.594 53.958 369.124 53.958C368.186 53.958 367.486 54.448 366.87 55.05H366.814L366.702 54.126H365.372V61ZM372.52 60.216C373.192 60.762 374.186 61.168 375.124 61.168C376.86 61.168 377.798 60.216 377.798 59.04C377.798 57.752 376.762 57.304 375.824 56.954C375.082 56.688 374.396 56.464 374.396 55.932C374.396 55.498 374.718 55.176 375.404 55.176C375.95 55.176 376.44 55.414 376.916 55.764L377.658 54.784C377.098 54.35 376.328 53.958 375.376 53.958C373.836 53.958 372.87 54.812 372.87 56.016C372.87 57.164 373.892 57.682 374.802 58.018C375.53 58.298 376.272 58.55 376.272 59.124C376.272 59.6 375.922 59.95 375.18 59.95C374.48 59.95 373.892 59.656 373.276 59.18L372.52 60.216ZM380.047 52.922C380.621 52.922 381.041 52.544 381.041 52.012C381.041 51.466 380.621 51.088 380.047 51.088C379.473 51.088 379.053 51.466 379.053 52.012C379.053 52.544 379.473 52.922 380.047 52.922ZM379.235 61H380.845V54.126H379.235V61ZM382.451 57.57C382.451 59.852 384.005 61.168 385.713 61.168C387.435 61.168 388.989 59.852 388.989 57.57C388.989 55.274 387.435 53.958 385.713 53.958C384.005 53.958 382.451 55.274 382.451 57.57ZM384.103 57.57C384.103 56.184 384.705 55.274 385.713 55.274C386.721 55.274 387.337 56.184 387.337 57.57C387.337 58.942 386.721 59.852 385.713 59.852C384.705 59.852 384.103 58.942 384.103 57.57ZM390.583 61H392.193V56.198C392.767 55.638 393.159 55.344 393.761 55.344C394.517 55.344 394.839 55.764 394.839 56.898V61H396.449V56.688C396.449 54.952 395.805 53.958 394.335 53.958C393.397 53.958 392.697 54.448 392.081 55.05H392.025L391.913 54.126H390.583V61ZM398.123 59.152C398.123 60.356 398.963 61.168 400.167 61.168C400.979 61.168 401.679 60.762 402.295 60.244H402.337L402.463 61H403.779V56.926C403.779 55.008 402.939 53.958 401.217 53.958C400.125 53.958 399.159 54.378 398.403 54.854L398.991 55.932C399.593 55.568 400.237 55.26 400.923 55.26C401.847 55.26 402.155 55.876 402.169 56.604C399.355 56.912 398.123 57.682 398.123 59.152ZM399.691 59.026C399.691 58.34 400.307 57.85 402.169 57.612V59.152C401.665 59.628 401.231 59.908 400.671 59.908C400.097 59.908 399.691 59.642 399.691 59.026ZM405.745 59.236C405.745 60.426 406.165 61.168 407.313 61.168C407.691 61.168 407.971 61.112 408.167 61.028L407.957 59.824C407.831 59.852 407.775 59.852 407.705 59.852C407.537 59.852 407.355 59.712 407.355 59.32V51.116H405.745V59.236Z" fill="#E05959"/>
<path d="M412.123 59.152C412.123 60.356 412.963 61.168 414.167 61.168C414.979 61.168 415.679 60.762 416.295 60.244H416.337L416.463 61H417.779V56.926C417.779 55.008 416.939 53.958 415.217 53.958C414.125 53.958 413.159 54.378 412.403 54.854L412.991 55.932C413.593 55.568 414.237 55.26 414.923 55.26C415.847 55.26 416.155 55.876 416.169 56.604C413.355 56.912 412.123 57.682 412.123 59.152ZM413.691 59.026C413.691 58.34 414.307 57.85 416.169 57.612V59.152C415.665 59.628 415.231 59.908 414.671 59.908C414.097 59.908 413.691 59.642 413.691 59.026ZM419.745 61H421.355V56.8C421.775 55.764 422.433 55.386 422.979 55.386C423.273 55.386 423.455 55.428 423.693 55.498L423.973 54.098C423.763 54 423.539 53.958 423.189 53.958C422.461 53.958 421.733 54.448 421.243 55.344H421.187L421.075 54.126H419.745V61ZM424.967 61H426.577V56.8C426.997 55.764 427.655 55.386 428.201 55.386C428.495 55.386 428.677 55.428 428.915 55.498L429.195 54.098C428.985 54 428.761 53.958 428.411 53.958C427.683 53.958 426.955 54.448 426.465 55.344H426.409L426.297 54.126H424.967V61ZM429.513 59.152C429.513 60.356 430.353 61.168 431.557 61.168C432.369 61.168 433.069 60.762 433.685 60.244H433.727L433.853 61H435.169V56.926C435.169 55.008 434.329 53.958 432.607 53.958C431.515 53.958 430.549 54.378 429.793 54.854L430.381 55.932C430.983 55.568 431.627 55.26 432.313 55.26C433.237 55.26 433.545 55.876 433.559 56.604C430.745 56.912 429.513 57.682 429.513 59.152ZM431.081 59.026C431.081 58.34 431.697 57.85 433.559 57.612V59.152C433.055 59.628 432.621 59.908 432.061 59.908C431.487 59.908 431.081 59.642 431.081 59.026ZM436.995 62.428L436.701 63.688C436.953 63.772 437.219 63.828 437.597 63.828C439.095 63.828 439.809 62.862 440.383 61.308L442.875 54.126H441.321L440.285 57.5C440.117 58.116 439.935 58.802 439.767 59.432H439.711C439.501 58.788 439.305 58.102 439.109 57.5L437.919 54.126H436.281L438.983 60.916L438.857 61.35C438.633 62.036 438.213 62.526 437.485 62.526C437.317 62.526 437.121 62.47 436.995 62.428ZM307.688 87.248L308.01 86.128C308.304 85.162 308.57 84.126 308.822 83.104H308.878C309.144 84.112 309.424 85.162 309.704 86.128L310.026 87.248H307.688ZM311.104 91H312.826L309.844 81.844H307.94L304.944 91H306.61L307.324 88.522H310.39L311.104 91ZM313.788 91H315.398V86.8C315.818 85.764 316.476 85.386 317.022 85.386C317.316 85.386 317.498 85.428 317.736 85.498L318.016 84.098C317.806 84 317.582 83.958 317.232 83.958C316.504 83.958 315.776 84.448 315.286 85.344H315.23L315.118 84.126H313.788V91ZM319.01 91H320.62V86.8C321.04 85.764 321.698 85.386 322.244 85.386C322.538 85.386 322.72 85.428 322.958 85.498L323.238 84.098C323.028 84 322.804 83.958 322.454 83.958C321.726 83.958 320.998 84.448 320.508 85.344H320.452L320.34 84.126H319.01V91ZM323.556 89.152C323.556 90.356 324.396 91.168 325.6 91.168C326.412 91.168 327.112 90.762 327.728 90.244H327.77L327.896 91H329.212V86.926C329.212 85.008 328.372 83.958 326.65 83.958C325.558 83.958 324.592 84.378 323.836 84.854L324.424 85.932C325.026 85.568 325.67 85.26 326.356 85.26C327.28 85.26 327.588 85.876 327.602 86.604C324.788 86.912 323.556 87.682 323.556 89.152ZM325.124 89.026C325.124 88.34 325.74 87.85 327.602 87.612V89.152C327.098 89.628 326.664 89.908 326.104 89.908C325.53 89.908 325.124 89.642 325.124 89.026ZM331.038 92.428L330.744 93.688C330.996 93.772 331.262 93.828 331.64 93.828C333.138 93.828 333.852 92.862 334.426 91.308L336.918 84.126H335.364L334.328 87.5C334.16 88.116 333.978 88.802 333.81 89.432H333.754C333.544 88.788 333.348 88.102 333.152 87.5L331.962 84.126H330.324L333.026 90.916L332.9 91.35C332.676 92.036 332.256 92.526 331.528 92.526C331.36 92.526 331.164 92.47 331.038 92.428ZM306.148 121H311.566V119.628H307.772V111.844H306.148V121ZM313.82 112.922C314.394 112.922 314.814 112.544 314.814 112.012C314.814 111.466 314.394 111.088 313.82 111.088C313.246 111.088 312.826 111.466 312.826 112.012C312.826 112.544 313.246 112.922 313.82 112.922ZM313.008 121H314.618V114.126H313.008V121ZM315.986 120.216C316.658 120.762 317.652 121.168 318.59 121.168C320.326 121.168 321.264 120.216 321.264 119.04C321.264 117.752 320.228 117.304 319.29 116.954C318.548 116.688 317.862 116.464 317.862 115.932C317.862 115.498 318.184 115.176 318.87 115.176C319.416 115.176 319.906 115.414 320.382 115.764L321.124 114.784C320.564 114.35 319.794 113.958 318.842 113.958C317.302 113.958 316.336 114.812 316.336 116.016C316.336 117.164 317.358 117.682 318.268 118.018C318.996 118.298 319.738 118.55 319.738 119.124C319.738 119.6 319.388 119.95 318.646 119.95C317.946 119.95 317.358 119.656 316.742 119.18L315.986 120.216ZM322.94 118.676C322.94 120.16 323.528 121.168 325.124 121.168C325.67 121.168 326.146 121.042 326.524 120.916L326.244 119.726C326.048 119.81 325.768 119.88 325.53 119.88C324.872 119.88 324.564 119.488 324.564 118.676V115.4H326.314V114.126H324.564V112.25H323.22L323.024 114.126L321.96 114.196V115.4H322.94V118.676ZM307.772 151H309.704L312.532 141.844H310.88L309.606 146.45C309.312 147.486 309.102 148.382 308.794 149.432H308.738C308.43 148.382 308.234 147.486 307.94 146.45L306.652 141.844H304.93L307.772 151ZM312.806 147.57C312.806 149.838 314.29 151.168 316.194 151.168C317.062 151.168 317.888 150.86 318.546 150.426L318 149.418C317.496 149.74 316.992 149.922 316.404 149.922C315.298 149.922 314.514 149.222 314.374 147.976H318.742C318.784 147.808 318.812 147.528 318.812 147.22C318.812 145.302 317.832 143.958 315.97 143.958C314.36 143.958 312.806 145.33 312.806 147.57ZM314.36 146.954C314.5 145.806 315.2 145.204 316.012 145.204C316.95 145.204 317.412 145.862 317.412 146.954H314.36ZM319.902 147.57C319.902 149.852 321.344 151.168 323.22 151.168C324.004 151.168 324.83 150.86 325.474 150.286L324.802 149.264C324.424 149.572 323.948 149.852 323.388 149.852C322.31 149.852 321.554 148.942 321.554 147.57C321.554 146.184 322.324 145.274 323.43 145.274C323.864 145.274 324.228 145.456 324.592 145.778L325.362 144.756C324.9 144.308 324.228 143.958 323.346 143.958C321.512 143.958 319.902 145.274 319.902 147.57ZM327.055 148.676C327.055 150.16 327.643 151.168 329.239 151.168C329.785 151.168 330.261 151.042 330.639 150.916L330.359 149.726C330.163 149.81 329.883 149.88 329.645 149.88C328.987 149.88 328.679 149.488 328.679 148.676V145.4H330.429V144.126H328.679V142.25H327.335L327.139 144.126L326.075 144.196V145.4H327.055V148.676ZM331.291 147.57C331.291 149.852 332.845 151.168 334.553 151.168C336.275 151.168 337.829 149.852 337.829 147.57C337.829 145.274 336.275 143.958 334.553 143.958C332.845 143.958 331.291 145.274 331.291 147.57ZM332.943 147.57C332.943 146.184 333.545 145.274 334.553 145.274C335.561 145.274 336.177 146.184 336.177 147.57C336.177 148.942 335.561 149.852 334.553 149.852C333.545 149.852 332.943 148.942 332.943 147.57ZM339.422 151H341.032V146.8C341.452 145.764 342.11 145.386 342.656 145.386C342.95 145.386 343.132 145.428 343.37 145.498L343.65 144.098C343.44 144 343.216 143.958 342.866 143.958C342.138 143.958 341.41 144.448 340.92 145.344H340.864L340.752 144.126H339.422V151ZM305.518 179.824C306.386 180.678 307.576 181.168 308.808 181.168C310.866 181.168 312.098 179.936 312.098 178.452C312.098 177.122 311.342 176.436 310.25 175.974L309.018 175.456C308.262 175.148 307.562 174.882 307.562 174.168C307.562 173.496 308.122 173.09 308.99 173.09C309.774 173.09 310.404 173.384 310.978 173.874L311.818 172.838C311.104 172.124 310.068 171.676 308.99 171.676C307.212 171.676 305.924 172.796 305.924 174.252C305.924 175.596 306.862 176.31 307.772 176.688L309.018 177.234C309.858 177.584 310.446 177.822 310.446 178.578C310.446 179.292 309.872 179.754 308.85 179.754C307.996 179.754 307.114 179.334 306.456 178.718L305.518 179.824ZM313.162 177.57C313.162 179.838 314.646 181.168 316.55 181.168C317.418 181.168 318.244 180.86 318.902 180.426L318.356 179.418C317.852 179.74 317.348 179.922 316.76 179.922C315.654 179.922 314.87 179.222 314.73 177.976H319.098C319.14 177.808 319.168 177.528 319.168 177.22C319.168 175.302 318.188 173.958 316.326 173.958C314.716 173.958 313.162 175.33 313.162 177.57ZM314.716 176.954C314.856 175.806 315.556 175.204 316.368 175.204C317.306 175.204 317.768 175.862 317.768 176.954H314.716ZM320.286 177.57C320.286 179.838 321.392 181.168 323.114 181.168C323.814 181.168 324.5 180.804 325.004 180.328L324.948 181.462V183.716H326.558V174.126H325.284L325.144 174.784H325.102C324.528 174.224 323.968 173.958 323.198 173.958C321.7 173.958 320.286 175.33 320.286 177.57ZM321.952 177.556C321.952 176.114 322.666 175.288 323.548 175.288C324.01 175.288 324.472 175.442 324.948 175.862V179.068C324.486 179.6 324.038 179.838 323.506 179.838C322.512 179.838 321.952 179.04 321.952 177.556ZM328.483 178.438C328.483 180.174 329.127 181.168 330.597 181.168C331.535 181.168 332.207 180.706 332.809 179.992H332.851L332.977 181H334.293V174.126H332.683V178.83C332.165 179.502 331.759 179.782 331.157 179.782C330.415 179.782 330.093 179.362 330.093 178.228V174.126H328.483V178.438ZM335.885 177.57C335.885 179.838 337.369 181.168 339.273 181.168C340.141 181.168 340.967 180.86 341.625 180.426L341.079 179.418C340.575 179.74 340.071 179.922 339.483 179.922C338.377 179.922 337.593 179.222 337.453 177.976H341.821C341.863 177.808 341.891 177.528 341.891 177.22C341.891 175.302 340.911 173.958 339.049 173.958C337.439 173.958 335.885 175.33 335.885 177.57ZM337.439 176.954C337.579 175.806 338.279 175.204 339.091 175.204C340.029 175.204 340.491 175.862 340.491 176.954H337.439ZM343.428 181H345.038V176.198C345.612 175.638 346.004 175.344 346.606 175.344C347.362 175.344 347.684 175.764 347.684 176.898V181H349.294V176.688C349.294 174.952 348.65 173.958 347.18 173.958C346.242 173.958 345.542 174.448 344.926 175.05H344.87L344.758 174.126H343.428V181ZM350.814 177.57C350.814 179.852 352.256 181.168 354.132 181.168C354.916 181.168 355.742 180.86 356.386 180.286L355.714 179.264C355.336 179.572 354.86 179.852 354.3 179.852C353.222 179.852 352.466 178.942 352.466 177.57C352.466 176.184 353.236 175.274 354.342 175.274C354.776 175.274 355.14 175.456 355.504 175.778L356.274 174.756C355.812 174.308 355.14 173.958 354.258 173.958C352.424 173.958 350.814 175.274 350.814 177.57ZM356.939 177.57C356.939 179.838 358.423 181.168 360.327 181.168C361.195 181.168 362.021 180.86 362.679 180.426L362.133 179.418C361.629 179.74 361.125 179.922 360.537 179.922C359.431 179.922 358.647 179.222 358.507 177.976H362.875C362.917 177.808 362.945 177.528 362.945 177.22C362.945 175.302 361.965 173.958 360.103 173.958C358.493 173.958 356.939 175.33 356.939 177.57ZM358.493 176.954C358.633 175.806 359.333 175.204 360.145 175.204C361.083 175.204 361.545 175.862 361.545 176.954H358.493Z" fill="#30394B"/>
<path d="M306.996 293H308.62V285.216H311.252V283.844H304.35V285.216H306.996V293ZM313.347 293H315.195L315.979 289.808C316.133 289.164 316.259 288.52 316.385 287.792H316.441C316.595 288.52 316.707 289.15 316.861 289.794L317.659 293H319.577L321.327 286.126H319.815L318.989 289.696C318.863 290.354 318.751 290.998 318.625 291.67H318.569C318.415 290.998 318.275 290.354 318.107 289.696L317.197 286.126H315.727L314.831 289.696C314.663 290.34 314.523 290.998 314.397 291.67H314.341C314.215 290.998 314.117 290.354 313.977 289.696L313.151 286.126H311.527L313.347 293ZM322.156 289.57C322.156 291.852 323.71 293.168 325.418 293.168C327.14 293.168 328.694 291.852 328.694 289.57C328.694 287.274 327.14 285.958 325.418 285.958C323.71 285.958 322.156 287.274 322.156 289.57ZM323.808 289.57C323.808 288.184 324.41 287.274 325.418 287.274C326.426 287.274 327.042 288.184 327.042 289.57C327.042 290.942 326.426 291.852 325.418 291.852C324.41 291.852 323.808 290.942 323.808 289.57ZM329.908 290.06H333.24V288.884H329.908V290.06ZM334.434 289.57C334.434 291.838 335.54 293.168 337.262 293.168C338.004 293.168 338.704 292.762 339.208 292.258H339.264L339.376 293H340.706V283.116H339.096V285.608L339.152 286.714C338.62 286.252 338.13 285.958 337.346 285.958C335.848 285.958 334.434 287.33 334.434 289.57ZM336.1 289.556C336.1 288.114 336.814 287.288 337.696 287.288C338.158 287.288 338.62 287.442 339.096 287.862V291.068C338.634 291.6 338.186 291.838 337.654 291.838C336.66 291.838 336.1 291.04 336.1 289.556ZM343.568 284.922C344.142 284.922 344.562 284.544 344.562 284.012C344.562 283.466 344.142 283.088 343.568 283.088C342.994 283.088 342.574 283.466 342.574 284.012C342.574 284.544 342.994 284.922 343.568 284.922ZM342.756 293H344.366V286.126H342.756V293ZM346.42 293H348.03V288.198C348.562 287.624 349.052 287.344 349.472 287.344C350.2 287.344 350.536 287.764 350.536 288.898V293H352.146V288.198C352.678 287.624 353.154 287.344 353.588 287.344C354.302 287.344 354.638 287.764 354.638 288.898V293H356.262V288.688C356.262 286.952 355.59 285.958 354.134 285.958C353.266 285.958 352.58 286.49 351.922 287.19C351.6 286.42 351.026 285.958 350.018 285.958C349.164 285.958 348.492 286.448 347.918 287.064H347.862L347.75 286.126H346.42V293ZM357.771 289.57C357.771 291.838 359.255 293.168 361.159 293.168C362.027 293.168 362.853 292.86 363.511 292.426L362.965 291.418C362.461 291.74 361.957 291.922 361.369 291.922C360.263 291.922 359.479 291.222 359.339 289.976H363.707C363.749 289.808 363.777 289.528 363.777 289.22C363.777 287.302 362.797 285.958 360.935 285.958C359.325 285.958 357.771 287.33 357.771 289.57ZM359.325 288.954C359.465 287.806 360.165 287.204 360.977 287.204C361.915 287.204 362.377 287.862 362.377 288.954H359.325ZM365.315 293H366.925V288.198C367.499 287.638 367.891 287.344 368.493 287.344C369.249 287.344 369.571 287.764 369.571 288.898V293H371.181V288.688C371.181 286.952 370.537 285.958 369.067 285.958C368.129 285.958 367.429 286.448 366.813 287.05H366.757L366.645 286.126H365.315V293ZM372.463 292.216C373.135 292.762 374.129 293.168 375.067 293.168C376.803 293.168 377.741 292.216 377.741 291.04C377.741 289.752 376.705 289.304 375.767 288.954C375.025 288.688 374.339 288.464 374.339 287.932C374.339 287.498 374.661 287.176 375.347 287.176C375.893 287.176 376.383 287.414 376.859 287.764L377.601 286.784C377.041 286.35 376.271 285.958 375.319 285.958C373.779 285.958 372.813 286.812 372.813 288.016C372.813 289.164 373.835 289.682 374.745 290.018C375.473 290.298 376.215 290.55 376.215 291.124C376.215 291.6 375.865 291.95 375.123 291.95C374.423 291.95 373.835 291.656 373.219 291.18L372.463 292.216ZM379.99 284.922C380.564 284.922 380.984 284.544 380.984 284.012C380.984 283.466 380.564 283.088 379.99 283.088C379.416 283.088 378.996 283.466 378.996 284.012C378.996 284.544 379.416 284.922 379.99 284.922ZM379.178 293H380.788V286.126H379.178V293ZM382.394 289.57C382.394 291.852 383.948 293.168 385.656 293.168C387.378 293.168 388.932 291.852 388.932 289.57C388.932 287.274 387.378 285.958 385.656 285.958C383.948 285.958 382.394 287.274 382.394 289.57ZM384.046 289.57C384.046 288.184 384.648 287.274 385.656 287.274C386.664 287.274 387.28 288.184 387.28 289.57C387.28 290.942 386.664 291.852 385.656 291.852C384.648 291.852 384.046 290.942 384.046 289.57ZM390.526 293H392.136V288.198C392.71 287.638 393.102 287.344 393.704 287.344C394.46 287.344 394.782 287.764 394.782 288.898V293H396.392V288.688C396.392 286.952 395.748 285.958 394.278 285.958C393.34 285.958 392.64 286.448 392.024 287.05H391.968L391.856 286.126H390.526V293ZM398.066 291.152C398.066 292.356 398.906 293.168 400.11 293.168C400.922 293.168 401.622 292.762 402.238 292.244H402.28L402.406 293H403.722V288.926C403.722 287.008 402.882 285.958 401.16 285.958C400.068 285.958 399.102 286.378 398.346 286.854L398.934 287.932C399.536 287.568 400.18 287.26 400.866 287.26C401.79 287.26 402.098 287.876 402.112 288.604C399.298 288.912 398.066 289.682 398.066 291.152ZM399.634 291.026C399.634 290.34 400.25 289.85 402.112 289.612V291.152C401.608 291.628 401.174 291.908 400.614 291.908C400.04 291.908 399.634 291.642 399.634 291.026ZM405.688 291.236C405.688 292.426 406.108 293.168 407.256 293.168C407.634 293.168 407.914 293.112 408.11 293.028L407.9 291.824C407.774 291.852 407.718 291.852 407.648 291.852C407.48 291.852 407.298 291.712 407.298 291.32V283.116H405.688V291.236Z" fill="#29A1F8"/>
<path d="M412.066 291.152C412.066 292.356 412.906 293.168 414.11 293.168C414.922 293.168 415.622 292.762 416.238 292.244H416.28L416.406 293H417.722V288.926C417.722 287.008 416.882 285.958 415.16 285.958C414.068 285.958 413.102 286.378 412.346 286.854L412.934 287.932C413.536 287.568 414.18 287.26 414.866 287.26C415.79 287.26 416.098 287.876 416.112 288.604C413.298 288.912 412.066 289.682 412.066 291.152ZM413.634 291.026C413.634 290.34 414.25 289.85 416.112 289.612V291.152C415.608 291.628 415.174 291.908 414.614 291.908C414.04 291.908 413.634 291.642 413.634 291.026ZM419.688 293H421.298V288.8C421.718 287.764 422.376 287.386 422.922 287.386C423.216 287.386 423.398 287.428 423.636 287.498L423.916 286.098C423.706 286 423.482 285.958 423.132 285.958C422.404 285.958 421.676 286.448 421.186 287.344H421.13L421.018 286.126H419.688V293ZM424.911 293H426.521V288.8C426.941 287.764 427.599 287.386 428.145 287.386C428.439 287.386 428.621 287.428 428.859 287.498L429.139 286.098C428.929 286 428.705 285.958 428.355 285.958C427.627 285.958 426.899 286.448 426.409 287.344H426.353L426.241 286.126H424.911V293ZM429.457 291.152C429.457 292.356 430.297 293.168 431.501 293.168C432.313 293.168 433.013 292.762 433.629 292.244H433.671L433.797 293H435.113V288.926C435.113 287.008 434.273 285.958 432.551 285.958C431.459 285.958 430.493 286.378 429.737 286.854L430.325 287.932C430.927 287.568 431.571 287.26 432.257 287.26C433.181 287.26 433.489 287.876 433.503 288.604C430.689 288.912 429.457 289.682 429.457 291.152ZM431.025 291.026C431.025 290.34 431.641 289.85 433.503 289.612V291.152C432.999 291.628 432.565 291.908 432.005 291.908C431.431 291.908 431.025 291.642 431.025 291.026ZM436.939 294.428L436.645 295.688C436.897 295.772 437.163 295.828 437.541 295.828C439.039 295.828 439.753 294.862 440.327 293.308L442.819 286.126H441.265L440.229 289.5C440.061 290.116 439.879 290.802 439.711 291.432H439.655C439.445 290.788 439.249 290.102 439.053 289.5L437.863 286.126H436.225L438.927 292.916L438.801 293.35C438.577 294.036 438.157 294.526 437.429 294.526C437.261 294.526 437.065 294.47 436.939 294.428ZM305.148 323H306.632V318.814C306.632 317.96 306.506 316.742 306.436 315.902H306.492L307.22 317.988L308.802 322.146H309.544L311.126 317.988L311.868 315.902H311.924C311.84 316.742 311.714 317.96 311.714 318.814V323H313.24V313.844H311.448L309.838 318.352L309.236 320.088H309.18L308.578 318.352L306.926 313.844H305.148V323ZM315.119 321.152C315.119 322.356 315.959 323.168 317.163 323.168C317.975 323.168 318.675 322.762 319.291 322.244H319.333L319.459 323H320.775V318.926C320.775 317.008 319.935 315.958 318.213 315.958C317.121 315.958 316.155 316.378 315.399 316.854L315.987 317.932C316.589 317.568 317.233 317.26 317.919 317.26C318.843 317.26 319.151 317.876 319.165 318.604C316.351 318.912 315.119 319.682 315.119 321.152ZM316.687 321.026C316.687 320.34 317.303 319.85 319.165 319.612V321.152C318.661 321.628 318.227 321.908 317.667 321.908C317.093 321.908 316.687 321.642 316.687 321.026ZM322.979 320.676C322.979 322.16 323.567 323.168 325.163 323.168C325.709 323.168 326.185 323.042 326.563 322.916L326.283 321.726C326.087 321.81 325.807 321.88 325.569 321.88C324.911 321.88 324.603 321.488 324.603 320.676V317.4H326.353V316.126H324.603V314.25H323.259L323.063 316.126L321.999 316.196V317.4H322.979V320.676ZM327.799 323H329.409V318.8C329.829 317.764 330.487 317.386 331.033 317.386C331.327 317.386 331.509 317.428 331.747 317.498L332.027 316.098C331.817 316 331.593 315.958 331.243 315.958C330.515 315.958 329.787 316.448 329.297 317.344H329.241L329.129 316.126H327.799V323ZM333.834 314.922C334.408 314.922 334.828 314.544 334.828 314.012C334.828 313.466 334.408 313.088 333.834 313.088C333.26 313.088 332.84 313.466 332.84 314.012C332.84 314.544 333.26 314.922 333.834 314.922ZM333.022 323H334.632V316.126H333.022V323ZM335.86 323H337.54L338.268 321.642C338.464 321.222 338.674 320.816 338.87 320.424H338.926C339.164 320.816 339.402 321.236 339.626 321.642L340.466 323H342.202L340.018 319.598L342.048 316.126H340.382L339.724 317.428C339.556 317.806 339.36 318.212 339.192 318.59H339.136C338.926 318.212 338.702 317.806 338.506 317.428L337.736 316.126H336L338.044 319.416L335.86 323ZM306.996 353H308.62V345.216H311.252V343.844H304.35V345.216H306.996V353ZM311.373 351.152C311.373 352.356 312.213 353.168 313.417 353.168C314.229 353.168 314.929 352.762 315.545 352.244H315.587L315.713 353H317.029V348.926C317.029 347.008 316.189 345.958 314.467 345.958C313.375 345.958 312.409 346.378 311.653 346.854L312.241 347.932C312.843 347.568 313.487 347.26 314.173 347.26C315.097 347.26 315.405 347.876 315.419 348.604C312.605 348.912 311.373 349.682 311.373 351.152ZM312.941 351.026C312.941 350.34 313.557 349.85 315.419 349.612V351.152C314.915 351.628 314.481 351.908 313.921 351.908C313.347 351.908 312.941 351.642 312.941 351.026ZM318.995 353H320.269L320.409 352.3H320.451C321.025 352.86 321.697 353.168 322.327 353.168C323.853 353.168 325.267 351.81 325.267 349.444C325.267 347.33 324.273 345.958 322.551 345.958C321.851 345.958 321.137 346.308 320.563 346.812L320.605 345.664V343.116H318.995V353ZM320.605 351.264V348.058C321.137 347.54 321.613 347.288 322.117 347.288C323.153 347.288 323.601 348.1 323.601 349.472C323.601 351.026 322.901 351.838 321.991 351.838C321.585 351.838 321.095 351.684 320.605 351.264ZM326.897 351.236C326.897 352.426 327.317 353.168 328.465 353.168C328.843 353.168 329.123 353.112 329.319 353.028L329.109 351.824C328.983 351.852 328.927 351.852 328.857 351.852C328.689 351.852 328.507 351.712 328.507 351.32V343.116H326.897V351.236ZM330.25 349.57C330.25 351.838 331.734 353.168 333.638 353.168C334.506 353.168 335.332 352.86 335.99 352.426L335.444 351.418C334.94 351.74 334.436 351.922 333.848 351.922C332.742 351.922 331.958 351.222 331.818 349.976H336.186C336.228 349.808 336.256 349.528 336.256 349.22C336.256 347.302 335.276 345.958 333.414 345.958C331.804 345.958 330.25 347.33 330.25 349.57ZM331.804 348.954C331.944 347.806 332.644 347.204 333.456 347.204C334.394 347.204 334.856 347.862 334.856 348.954H331.804ZM305.148 383H310.566V381.628H306.772V373.844H305.148V383ZM312.82 374.922C313.394 374.922 313.814 374.544 313.814 374.012C313.814 373.466 313.394 373.088 312.82 373.088C312.246 373.088 311.826 373.466 311.826 374.012C311.826 374.544 312.246 374.922 312.82 374.922ZM312.008 383H313.618V376.126H312.008V383ZM314.986 382.216C315.658 382.762 316.652 383.168 317.59 383.168C319.326 383.168 320.264 382.216 320.264 381.04C320.264 379.752 319.228 379.304 318.29 378.954C317.548 378.688 316.862 378.464 316.862 377.932C316.862 377.498 317.184 377.176 317.87 377.176C318.416 377.176 318.906 377.414 319.382 377.764L320.124 376.784C319.564 376.35 318.794 375.958 317.842 375.958C316.302 375.958 315.336 376.812 315.336 378.016C315.336 379.164 316.358 379.682 317.268 380.018C317.996 380.298 318.738 380.55 318.738 381.124C318.738 381.6 318.388 381.95 317.646 381.95C316.946 381.95 316.358 381.656 315.742 381.18L314.986 382.216ZM321.94 380.676C321.94 382.16 322.528 383.168 324.124 383.168C324.67 383.168 325.146 383.042 325.524 382.916L325.244 381.726C325.048 381.81 324.768 381.88 324.53 381.88C323.872 381.88 323.564 381.488 323.564 380.676V377.4H325.314V376.126H323.564V374.25H322.22L322.024 376.126L320.96 376.196V377.4H321.94V380.676ZM326.074 382.216C326.746 382.762 327.74 383.168 328.678 383.168C330.414 383.168 331.352 382.216 331.352 381.04C331.352 379.752 330.316 379.304 329.378 378.954C328.636 378.688 327.95 378.464 327.95 377.932C327.95 377.498 328.272 377.176 328.958 377.176C329.504 377.176 329.994 377.414 330.47 377.764L331.212 376.784C330.652 376.35 329.882 375.958 328.93 375.958C327.39 375.958 326.424 376.812 326.424 378.016C326.424 379.164 327.446 379.682 328.356 380.018C329.084 380.298 329.826 380.55 329.826 381.124C329.826 381.6 329.476 381.95 328.734 381.95C328.034 381.95 327.446 381.656 326.83 381.18L326.074 382.216ZM335.213 379.57C335.213 381.852 336.767 383.168 338.475 383.168C340.197 383.168 341.751 381.852 341.751 379.57C341.751 377.274 340.197 375.958 338.475 375.958C336.767 375.958 335.213 377.274 335.213 379.57ZM336.865 379.57C336.865 378.184 337.467 377.274 338.475 377.274C339.483 377.274 340.099 378.184 340.099 379.57C340.099 380.942 339.483 381.852 338.475 381.852C337.467 381.852 336.865 380.942 336.865 379.57ZM347.112 373.186C346.804 373.06 346.342 372.948 345.852 372.948C344.228 372.948 343.57 373.984 343.57 375.412V376.126L342.646 376.196V377.4H343.57V383H345.18V377.4H346.524V376.126H345.18V375.384C345.18 374.586 345.488 374.222 346.048 374.222C346.286 374.222 346.552 374.278 346.804 374.39L347.112 373.186ZM350.73 383H356.148V381.628H352.354V373.844H350.73V383ZM358.402 374.922C358.976 374.922 359.396 374.544 359.396 374.012C359.396 373.466 358.976 373.088 358.402 373.088C357.828 373.088 357.408 373.466 357.408 374.012C357.408 374.544 357.828 374.922 358.402 374.922ZM357.59 383H359.2V376.126H357.59V383ZM360.568 382.216C361.24 382.762 362.234 383.168 363.172 383.168C364.908 383.168 365.846 382.216 365.846 381.04C365.846 379.752 364.81 379.304 363.872 378.954C363.13 378.688 362.444 378.464 362.444 377.932C362.444 377.498 362.766 377.176 363.452 377.176C363.998 377.176 364.488 377.414 364.964 377.764L365.706 376.784C365.146 376.35 364.376 375.958 363.424 375.958C361.884 375.958 360.918 376.812 360.918 378.016C360.918 379.164 361.94 379.682 362.85 380.018C363.578 380.298 364.32 380.55 364.32 381.124C364.32 381.6 363.97 381.95 363.228 381.95C362.528 381.95 361.94 381.656 361.324 381.18L360.568 382.216ZM367.522 380.676C367.522 382.16 368.11 383.168 369.706 383.168C370.252 383.168 370.728 383.042 371.106 382.916L370.826 381.726C370.63 381.81 370.35 381.88 370.112 381.88C369.454 381.88 369.146 381.488 369.146 380.676V377.4H370.896V376.126H369.146V374.25H367.802L367.606 376.126L366.542 376.196V377.4H367.522V380.676ZM371.656 382.216C372.328 382.762 373.322 383.168 374.26 383.168C375.996 383.168 376.934 382.216 376.934 381.04C376.934 379.752 375.898 379.304 374.96 378.954C374.218 378.688 373.532 378.464 373.532 377.932C373.532 377.498 373.854 377.176 374.54 377.176C375.086 377.176 375.576 377.414 376.052 377.764L376.794 376.784C376.234 376.35 375.464 375.958 374.512 375.958C372.972 375.958 372.006 376.812 372.006 378.016C372.006 379.164 373.028 379.682 373.938 380.018C374.666 380.298 375.408 380.55 375.408 381.124C375.408 381.6 375.058 381.95 374.316 381.95C373.616 381.95 373.028 381.656 372.412 381.18L371.656 382.216ZM304.518 411.824C305.386 412.678 306.576 413.168 307.808 413.168C309.866 413.168 311.098 411.936 311.098 410.452C311.098 409.122 310.342 408.436 309.25 407.974L308.018 407.456C307.262 407.148 306.562 406.882 306.562 406.168C306.562 405.496 307.122 405.09 307.99 405.09C308.774 405.09 309.404 405.384 309.978 405.874L310.818 404.838C310.104 404.124 309.068 403.676 307.99 403.676C306.212 403.676 304.924 404.796 304.924 406.252C304.924 407.596 305.862 408.31 306.772 408.688L308.018 409.234C308.858 409.584 309.446 409.822 309.446 410.578C309.446 411.292 308.872 411.754 307.85 411.754C306.996 411.754 306.114 411.334 305.456 410.718L304.518 411.824ZM314.178 412.412C314.738 412.888 315.34 413.168 315.942 413.168C317.468 413.168 318.882 411.81 318.882 409.458C318.882 407.33 317.888 405.958 316.18 405.958C315.424 405.958 314.682 406.364 314.108 406.854H314.052L313.94 406.126H312.61V415.716H314.22V413.56L314.178 412.412ZM314.22 411.264V408.058C314.752 407.54 315.228 407.288 315.732 407.288C316.768 407.288 317.216 408.1 317.216 409.472C317.216 411.026 316.516 411.838 315.606 411.838C315.2 411.838 314.724 411.684 314.22 411.264ZM320.512 413H322.122V408.8C322.542 407.764 323.2 407.386 323.746 407.386C324.04 407.386 324.222 407.428 324.46 407.498L324.74 406.098C324.53 406 324.306 405.958 323.956 405.958C323.228 405.958 322.5 406.448 322.01 407.344H321.954L321.842 406.126H320.512V413ZM325.15 409.57C325.15 411.838 326.634 413.168 328.538 413.168C329.406 413.168 330.232 412.86 330.89 412.426L330.344 411.418C329.84 411.74 329.336 411.922 328.748 411.922C327.642 411.922 326.858 411.222 326.718 409.976H331.086C331.128 409.808 331.156 409.528 331.156 409.22C331.156 407.302 330.176 405.958 328.314 405.958C326.704 405.958 325.15 407.33 325.15 409.57ZM326.704 408.954C326.844 407.806 327.544 407.204 328.356 407.204C329.294 407.204 329.756 407.862 329.756 408.954H326.704ZM332.236 411.152C332.236 412.356 333.076 413.168 334.28 413.168C335.092 413.168 335.792 412.762 336.408 412.244H336.45L336.576 413H337.892V408.926C337.892 407.008 337.052 405.958 335.33 405.958C334.238 405.958 333.272 406.378 332.516 406.854L333.104 407.932C333.706 407.568 334.35 407.26 335.036 407.26C335.96 407.26 336.268 407.876 336.282 408.604C333.468 408.912 332.236 409.682 332.236 411.152ZM333.804 411.026C333.804 410.34 334.42 409.85 336.282 409.612V411.152C335.778 411.628 335.344 411.908 334.784 411.908C334.21 411.908 333.804 411.642 333.804 411.026ZM339.438 409.57C339.438 411.838 340.544 413.168 342.266 413.168C343.008 413.168 343.708 412.762 344.212 412.258H344.268L344.38 413H345.71V403.116H344.1V405.608L344.156 406.714C343.624 406.252 343.134 405.958 342.35 405.958C340.852 405.958 339.438 407.33 339.438 409.57ZM341.104 409.556C341.104 408.114 341.818 407.288 342.7 407.288C343.162 407.288 343.624 407.442 344.1 407.862V411.068C343.638 411.6 343.19 411.838 342.658 411.838C341.664 411.838 341.104 411.04 341.104 409.556ZM347.074 412.216C347.746 412.762 348.74 413.168 349.678 413.168C351.414 413.168 352.352 412.216 352.352 411.04C352.352 409.752 351.316 409.304 350.378 408.954C349.636 408.688 348.95 408.464 348.95 407.932C348.95 407.498 349.272 407.176 349.958 407.176C350.504 407.176 350.994 407.414 351.47 407.764L352.212 406.784C351.652 406.35 350.882 405.958 349.93 405.958C348.39 405.958 347.424 406.812 347.424 408.016C347.424 409.164 348.446 409.682 349.356 410.018C350.084 410.298 350.826 410.55 350.826 411.124C350.826 411.6 350.476 411.95 349.734 411.95C349.034 411.95 348.446 411.656 347.83 411.18L347.074 412.216ZM353.79 413H355.4V408.198C355.974 407.638 356.366 407.344 356.968 407.344C357.724 407.344 358.046 407.764 358.046 408.898V413H359.656V408.688C359.656 406.952 359.012 405.958 357.542 405.958C356.604 405.958 355.918 406.448 355.344 406.994L355.4 405.664V403.116H353.79V413ZM361.148 409.57C361.148 411.838 362.632 413.168 364.536 413.168C365.404 413.168 366.23 412.86 366.888 412.426L366.342 411.418C365.838 411.74 365.334 411.922 364.746 411.922C363.64 411.922 362.856 411.222 362.716 409.976H367.084C367.126 409.808 367.154 409.528 367.154 409.22C367.154 407.302 366.174 405.958 364.312 405.958C362.702 405.958 361.148 407.33 361.148 409.57ZM362.702 408.954C362.842 407.806 363.542 407.204 364.354 407.204C365.292 407.204 365.754 407.862 365.754 408.954H362.702ZM368.244 409.57C368.244 411.838 369.728 413.168 371.632 413.168C372.5 413.168 373.326 412.86 373.984 412.426L373.438 411.418C372.934 411.74 372.43 411.922 371.842 411.922C370.736 411.922 369.952 411.222 369.812 409.976H374.18C374.222 409.808 374.25 409.528 374.25 409.22C374.25 407.302 373.27 405.958 371.408 405.958C369.798 405.958 368.244 407.33 368.244 409.57ZM369.798 408.954C369.938 407.806 370.638 407.204 371.45 407.204C372.388 407.204 372.85 407.862 372.85 408.954H369.798ZM375.807 410.676C375.807 412.16 376.395 413.168 377.991 413.168C378.537 413.168 379.013 413.042 379.391 412.916L379.111 411.726C378.915 411.81 378.635 411.88 378.397 411.88C377.739 411.88 377.431 411.488 377.431 410.676V407.4H379.181V406.126H377.431V404.25H376.087L375.891 406.126L374.827 406.196V407.4H375.807V410.676Z" fill="#30394B"/>
<path d="M283.368 26H286.032V22.85L287.4 21.05L290.244 26H293.16L288.948 18.944L292.494 14.264H289.596L286.086 19.07H286.032V14.264H283.368V26ZM294.209 26H296.855V19.97C297.431 19.412 297.845 19.106 298.511 19.106C299.267 19.106 299.609 19.502 299.609 20.798V26H302.255V20.456C302.255 18.224 301.427 16.856 299.483 16.856C298.277 16.856 297.377 17.486 296.621 18.206H296.549L296.369 17.072H294.209V26ZM303.988 21.536C303.988 24.506 306.076 26.216 308.344 26.216C310.594 26.216 312.682 24.506 312.682 21.536C312.682 18.566 310.594 16.856 308.344 16.856C306.076 16.856 303.988 18.566 303.988 21.536ZM306.706 21.536C306.706 19.988 307.246 18.998 308.344 18.998C309.424 18.998 309.982 19.988 309.982 21.536C309.982 23.084 309.424 24.074 308.344 24.074C307.246 24.074 306.706 23.084 306.706 21.536ZM315.848 26H318.872L319.664 22.436C319.826 21.608 319.952 20.78 320.114 19.826H320.186C320.348 20.78 320.492 21.608 320.672 22.436L321.482 26H324.578L326.72 17.072H324.272L323.426 21.212C323.264 22.094 323.174 22.958 323.012 23.858H322.94C322.76 22.958 322.598 22.094 322.382 21.212L321.374 17.072H319.088L318.098 21.212C317.882 22.058 317.738 22.958 317.576 23.858H317.504C317.36 22.958 317.252 22.094 317.108 21.212L316.244 17.072H313.616L315.848 26ZM328.328 26H330.974V19.97C331.55 19.412 331.964 19.106 332.63 19.106C333.386 19.106 333.728 19.502 333.728 20.798V26H336.374V20.456C336.374 18.224 335.546 16.856 333.602 16.856C332.396 16.856 331.496 17.486 330.74 18.206H330.668L330.488 17.072H328.328V26ZM342.049 23.516C342.049 25.028 343.075 26.216 344.695 26.216C345.703 26.216 346.549 25.748 347.305 25.082H347.359L347.557 26H349.717V20.888C349.717 18.152 348.457 16.856 346.171 16.856C344.767 16.856 343.489 17.342 342.355 18.026L343.291 19.772C344.155 19.268 344.911 18.962 345.667 18.962C346.621 18.962 347.017 19.466 347.071 20.258C343.543 20.618 342.049 21.644 342.049 23.516ZM344.569 23.318C344.569 22.634 345.181 22.094 347.071 21.842V23.408C346.603 23.876 346.207 24.164 345.595 24.164C344.965 24.164 344.569 23.894 344.569 23.318ZM351.196 24.974C352.096 25.712 353.446 26.216 354.616 26.216C357.01 26.216 358.288 24.956 358.288 23.336C358.288 21.698 357.01 21.068 355.876 20.654C354.958 20.312 354.13 20.096 354.13 19.52C354.13 19.07 354.454 18.818 355.138 18.818C355.768 18.818 356.38 19.106 357.028 19.574L358.216 17.99C357.442 17.414 356.434 16.856 355.066 16.856C352.996 16.856 351.646 17.99 351.646 19.646C351.646 21.122 352.924 21.86 354.004 22.274C354.922 22.634 355.822 22.904 355.822 23.498C355.822 23.966 355.48 24.254 354.688 24.254C353.932 24.254 353.194 23.93 352.384 23.318L351.196 24.974Z" fill="#30394B"/>
<path d="M284.368 258H287.032V254.85L288.4 253.05L291.244 258H294.16L289.948 250.944L293.494 246.264H290.596L287.086 251.07H287.032V246.264H284.368V258ZM295.209 258H297.855V251.97C298.431 251.412 298.845 251.106 299.511 251.106C300.267 251.106 300.609 251.502 300.609 252.798V258H303.255V252.456C303.255 250.224 302.427 248.856 300.483 248.856C299.277 248.856 298.377 249.486 297.621 250.206H297.549L297.369 249.072H295.209V258ZM304.988 253.536C304.988 256.506 307.076 258.216 309.344 258.216C311.594 258.216 313.682 256.506 313.682 253.536C313.682 250.566 311.594 248.856 309.344 248.856C307.076 248.856 304.988 250.566 304.988 253.536ZM307.706 253.536C307.706 251.988 308.246 250.998 309.344 250.998C310.424 250.998 310.982 251.988 310.982 253.536C310.982 255.084 310.424 256.074 309.344 256.074C308.246 256.074 307.706 255.084 307.706 253.536ZM316.848 258H319.872L320.664 254.436C320.826 253.608 320.952 252.78 321.114 251.826H321.186C321.348 252.78 321.492 253.608 321.672 254.436L322.482 258H325.578L327.72 249.072H325.272L324.426 253.212C324.264 254.094 324.174 254.958 324.012 255.858H323.94C323.76 254.958 323.598 254.094 323.382 253.212L322.374 249.072H320.088L319.098 253.212C318.882 254.058 318.738 254.958 318.576 255.858H318.504C318.36 254.958 318.252 254.094 318.108 253.212L317.244 249.072H314.616L316.848 258ZM329.328 258H331.974V251.97C332.55 251.412 332.964 251.106 333.63 251.106C334.386 251.106 334.728 251.502 334.728 252.798V258H337.374V252.456C337.374 250.224 336.546 248.856 334.602 248.856C333.396 248.856 332.496 249.486 331.74 250.206H331.668L331.488 249.072H329.328V258ZM343.049 255.516C343.049 257.028 344.075 258.216 345.695 258.216C346.703 258.216 347.549 257.748 348.305 257.082H348.359L348.557 258H350.717V252.888C350.717 250.152 349.457 248.856 347.171 248.856C345.767 248.856 344.489 249.342 343.355 250.026L344.291 251.772C345.155 251.268 345.911 250.962 346.667 250.962C347.621 250.962 348.017 251.466 348.071 252.258C344.543 252.618 343.049 253.644 343.049 255.516ZM345.569 255.318C345.569 254.634 346.181 254.094 348.071 253.842V255.408C347.603 255.876 347.207 256.164 346.595 256.164C345.965 256.164 345.569 255.894 345.569 255.318ZM352.196 256.974C353.096 257.712 354.446 258.216 355.616 258.216C358.01 258.216 359.288 256.956 359.288 255.336C359.288 253.698 358.01 253.068 356.876 252.654C355.958 252.312 355.13 252.096 355.13 251.52C355.13 251.07 355.454 250.818 356.138 250.818C356.768 250.818 357.38 251.106 358.028 251.574L359.216 249.99C358.442 249.414 357.434 248.856 356.066 248.856C353.996 248.856 352.646 249.99 352.646 251.646C352.646 253.122 353.924 253.86 355.004 254.274C355.922 254.634 356.822 254.904 356.822 255.498C356.822 255.966 356.48 256.254 355.688 256.254C354.932 256.254 354.194 255.93 353.384 255.318L352.196 256.974Z" fill="#30394B"/>
<path d="M24.26 26H31.532V23.858H29.39V14.57H27.446C26.636 15.056 25.844 15.38 24.602 15.614V17.252H26.744V23.858H24.26V26ZM33.8778 26H37.3518C40.7898 26 43.0938 24.11 43.0938 20.078C43.0938 16.046 40.7898 14.264 37.1898 14.264H33.8778V26ZM36.5418 23.858V16.406H37.0458C39.0258 16.406 40.3758 17.27 40.3758 20.078C40.3758 22.886 39.0258 23.858 37.0458 23.858H36.5418Z" fill="#E05959"/>
<path d="M46.402 15.758C47.302 15.758 47.932 15.182 47.932 14.372C47.932 13.562 47.302 13.004 46.402 13.004C45.52 13.004 44.872 13.562 44.872 14.372C44.872 15.182 45.52 15.758 46.402 15.758ZM45.088 26H47.734V17.072H45.088V26ZM50.0626 26H52.7086V19.97C53.2666 19.394 53.7886 19.106 54.2206 19.106C54.9766 19.106 55.3186 19.502 55.3186 20.798V26H57.9646V19.97C58.5406 19.394 59.0446 19.106 59.4946 19.106C60.2506 19.106 60.5926 19.502 60.5926 20.798V26H63.2386V20.456C63.2386 18.224 62.3746 16.856 60.4486 16.856C59.2606 16.856 58.4326 17.54 57.6406 18.35C57.1906 17.396 56.4346 16.856 55.1746 16.856C54.0046 16.856 53.2126 17.486 52.4746 18.224H52.4026L52.2226 17.072H50.0626V26ZM64.9742 21.536C64.9742 24.488 66.9362 26.216 69.4922 26.216C70.5542 26.216 71.7422 25.838 72.6602 25.208L71.7782 23.606C71.1302 24.002 70.5182 24.2 69.8522 24.2C68.6642 24.2 67.7642 23.606 67.5302 22.256H72.8762C72.9302 22.04 72.9842 21.608 72.9842 21.14C72.9842 18.71 71.7242 16.856 69.1862 16.856C67.0442 16.856 64.9742 18.638 64.9742 21.536ZM67.5122 20.618C67.6922 19.43 68.4122 18.872 69.2402 18.872C70.3022 18.872 70.7342 19.592 70.7342 20.618H67.5122ZM74.8126 26H77.4586V19.97C78.0346 19.412 78.4486 19.106 79.1146 19.106C79.8706 19.106 80.2126 19.502 80.2126 20.798V26H82.8586V20.456C82.8586 18.224 82.0306 16.856 80.0866 16.856C78.8806 16.856 77.9806 17.486 77.2246 18.206H77.1526L76.9726 17.072H74.8126V26ZM84.3214 24.974C85.2214 25.712 86.5714 26.216 87.7414 26.216C90.1354 26.216 91.4134 24.956 91.4134 23.336C91.4134 21.698 90.1354 21.068 89.0014 20.654C88.0834 20.312 87.2554 20.096 87.2554 19.52C87.2554 19.07 87.5794 18.818 88.2634 18.818C88.8934 18.818 89.5054 19.106 90.1534 19.574L91.3414 17.99C90.5674 17.414 89.5594 16.856 88.1914 16.856C86.1214 16.856 84.7714 17.99 84.7714 19.646C84.7714 21.122 86.0494 21.86 87.1294 22.274C88.0474 22.634 88.9474 22.904 88.9474 23.498C88.9474 23.966 88.6054 24.254 87.8134 24.254C87.0574 24.254 86.3194 23.93 85.5094 23.318L84.3214 24.974ZM94.4078 15.758C95.3078 15.758 95.9378 15.182 95.9378 14.372C95.9378 13.562 95.3078 13.004 94.4078 13.004C93.5258 13.004 92.8778 13.562 92.8778 14.372C92.8778 15.182 93.5258 15.758 94.4078 15.758ZM93.0938 26H95.7398V17.072H93.0938V26ZM97.5464 21.536C97.5464 24.506 99.6344 26.216 101.902 26.216C104.152 26.216 106.24 24.506 106.24 21.536C106.24 18.566 104.152 16.856 101.902 16.856C99.6344 16.856 97.5464 18.566 97.5464 21.536ZM100.264 21.536C100.264 19.988 100.804 18.998 101.902 18.998C102.982 18.998 103.54 19.988 103.54 21.536C103.54 23.084 102.982 24.074 101.902 24.074C100.804 24.074 100.264 23.084 100.264 21.536ZM108.053 26H110.699V19.97C111.275 19.412 111.689 19.106 112.355 19.106C113.111 19.106 113.453 19.502 113.453 20.798V26H116.099V20.456C116.099 18.224 115.271 16.856 113.327 16.856C112.121 16.856 111.221 17.486 110.465 18.206H110.393L110.213 17.072H108.053V26ZM124.762 21.14L125.05 20.06C125.374 18.89 125.698 17.522 125.968 16.28H126.04C126.364 17.504 126.67 18.89 126.994 20.06L127.282 21.14H124.762ZM128.542 26H131.35L127.66 14.264H124.492L120.802 26H123.502L124.222 23.21H127.822L128.542 26ZM132.381 26H135.027V20.816C135.495 19.61 136.323 19.178 136.989 19.178C137.367 19.178 137.637 19.232 137.961 19.322L138.393 17.036C138.141 16.928 137.835 16.856 137.331 16.856C136.413 16.856 135.441 17.432 134.793 18.638H134.721L134.541 17.072H132.381V26ZM139.553 26H142.199V20.816C142.667 19.61 143.495 19.178 144.161 19.178C144.539 19.178 144.809 19.232 145.133 19.322L145.565 17.036C145.313 16.928 145.007 16.856 144.503 16.856C143.585 16.856 142.613 17.432 141.965 18.638H141.893L141.713 17.072H139.553V26ZM145.873 23.516C145.873 25.028 146.899 26.216 148.519 26.216C149.527 26.216 150.373 25.748 151.129 25.082H151.183L151.381 26H153.541V20.888C153.541 18.152 152.281 16.856 149.995 16.856C148.591 16.856 147.313 17.342 146.179 18.026L147.115 19.772C147.979 19.268 148.735 18.962 149.491 18.962C150.445 18.962 150.841 19.466 150.895 20.258C147.367 20.618 145.873 21.644 145.873 23.516ZM148.393 23.318C148.393 22.634 149.005 22.094 150.895 21.842V23.408C150.427 23.876 150.031 24.164 149.419 24.164C148.789 24.164 148.393 23.894 148.393 23.318ZM156.011 27.296L155.543 29.312C155.903 29.42 156.263 29.492 156.803 29.492C158.909 29.492 159.863 28.34 160.709 26.09L163.805 17.072H161.267L160.187 20.906C159.971 21.752 159.773 22.598 159.575 23.444H159.503C159.269 22.562 159.053 21.716 158.801 20.906L157.523 17.072H154.859L158.297 25.766L158.171 26.234C157.937 26.936 157.487 27.404 156.605 27.404C156.407 27.404 156.173 27.332 156.011 27.296Z" fill="#30394B"/>
<path d="M23.666 258H31.712V255.768H29.408C28.868 255.768 28.076 255.84 27.5 255.912C29.354 253.968 31.154 251.916 31.154 249.99C31.154 247.794 29.624 246.354 27.374 246.354C25.736 246.354 24.674 246.966 23.54 248.172L24.98 249.594C25.556 248.982 26.186 248.424 27.014 248.424C28.004 248.424 28.634 249.036 28.634 250.152C28.634 251.772 26.582 253.734 23.666 256.488V258ZM33.8778 258H37.3518C40.7898 258 43.0938 256.11 43.0938 252.078C43.0938 248.046 40.7898 246.264 37.1898 246.264H33.8778V258ZM36.5418 255.858V248.406H37.0458C39.0258 248.406 40.3758 249.27 40.3758 252.078C40.3758 254.886 39.0258 255.858 37.0458 255.858H36.5418Z" fill="#29A1F8"/>
<path d="M46.402 247.758C47.302 247.758 47.932 247.182 47.932 246.372C47.932 245.562 47.302 245.004 46.402 245.004C45.52 245.004 44.872 245.562 44.872 246.372C44.872 247.182 45.52 247.758 46.402 247.758ZM45.088 258H47.734V249.072H45.088V258ZM50.0626 258H52.7086V251.97C53.2666 251.394 53.7886 251.106 54.2206 251.106C54.9766 251.106 55.3186 251.502 55.3186 252.798V258H57.9646V251.97C58.5406 251.394 59.0446 251.106 59.4946 251.106C60.2506 251.106 60.5926 251.502 60.5926 252.798V258H63.2386V252.456C63.2386 250.224 62.3746 248.856 60.4486 248.856C59.2606 248.856 58.4326 249.54 57.6406 250.35C57.1906 249.396 56.4346 248.856 55.1746 248.856C54.0046 248.856 53.2126 249.486 52.4746 250.224H52.4026L52.2226 249.072H50.0626V258ZM64.9742 253.536C64.9742 256.488 66.9362 258.216 69.4922 258.216C70.5542 258.216 71.7422 257.838 72.6602 257.208L71.7782 255.606C71.1302 256.002 70.5182 256.2 69.8522 256.2C68.6642 256.2 67.7642 255.606 67.5302 254.256H72.8762C72.9302 254.04 72.9842 253.608 72.9842 253.14C72.9842 250.71 71.7242 248.856 69.1862 248.856C67.0442 248.856 64.9742 250.638 64.9742 253.536ZM67.5122 252.618C67.6922 251.43 68.4122 250.872 69.2402 250.872C70.3022 250.872 70.7342 251.592 70.7342 252.618H67.5122ZM74.8126 258H77.4586V251.97C78.0346 251.412 78.4486 251.106 79.1146 251.106C79.8706 251.106 80.2126 251.502 80.2126 252.798V258H82.8586V252.456C82.8586 250.224 82.0306 248.856 80.0866 248.856C78.8806 248.856 77.9806 249.486 77.2246 250.206H77.1526L76.9726 249.072H74.8126V258ZM84.3214 256.974C85.2214 257.712 86.5714 258.216 87.7414 258.216C90.1354 258.216 91.4134 256.956 91.4134 255.336C91.4134 253.698 90.1354 253.068 89.0014 252.654C88.0834 252.312 87.2554 252.096 87.2554 251.52C87.2554 251.07 87.5794 250.818 88.2634 250.818C88.8934 250.818 89.5054 251.106 90.1534 251.574L91.3414 249.99C90.5674 249.414 89.5594 248.856 88.1914 248.856C86.1214 248.856 84.7714 249.99 84.7714 251.646C84.7714 253.122 86.0494 253.86 87.1294 254.274C88.0474 254.634 88.9474 254.904 88.9474 255.498C88.9474 255.966 88.6054 256.254 87.8134 256.254C87.0574 256.254 86.3194 255.93 85.5094 255.318L84.3214 256.974ZM94.4078 247.758C95.3078 247.758 95.9378 247.182 95.9378 246.372C95.9378 245.562 95.3078 245.004 94.4078 245.004C93.5258 245.004 92.8778 245.562 92.8778 246.372C92.8778 247.182 93.5258 247.758 94.4078 247.758ZM93.0938 258H95.7398V249.072H93.0938V258ZM97.5464 253.536C97.5464 256.506 99.6344 258.216 101.902 258.216C104.152 258.216 106.24 256.506 106.24 253.536C106.24 250.566 104.152 248.856 101.902 248.856C99.6344 248.856 97.5464 250.566 97.5464 253.536ZM100.264 253.536C100.264 251.988 100.804 250.998 101.902 250.998C102.982 250.998 103.54 251.988 103.54 253.536C103.54 255.084 102.982 256.074 101.902 256.074C100.804 256.074 100.264 255.084 100.264 253.536ZM108.053 258H110.699V251.97C111.275 251.412 111.689 251.106 112.355 251.106C113.111 251.106 113.453 251.502 113.453 252.798V258H116.099V252.456C116.099 250.224 115.271 248.856 113.327 248.856C112.121 248.856 111.221 249.486 110.465 250.206H110.393L110.213 249.072H108.053V258ZM124.762 253.14L125.05 252.06C125.374 250.89 125.698 249.522 125.968 248.28H126.04C126.364 249.504 126.67 250.89 126.994 252.06L127.282 253.14H124.762ZM128.542 258H131.35L127.66 246.264H124.492L120.802 258H123.502L124.222 255.21H127.822L128.542 258ZM132.381 258H135.027V252.816C135.495 251.61 136.323 251.178 136.989 251.178C137.367 251.178 137.637 251.232 137.961 251.322L138.393 249.036C138.141 248.928 137.835 248.856 137.331 248.856C136.413 248.856 135.441 249.432 134.793 250.638H134.721L134.541 249.072H132.381V258ZM139.553 258H142.199V252.816C142.667 251.61 143.495 251.178 144.161 251.178C144.539 251.178 144.809 251.232 145.133 251.322L145.565 249.036C145.313 248.928 145.007 248.856 144.503 248.856C143.585 248.856 142.613 249.432 141.965 250.638H141.893L141.713 249.072H139.553V258ZM145.873 255.516C145.873 257.028 146.899 258.216 148.519 258.216C149.527 258.216 150.373 257.748 151.129 257.082H151.183L151.381 258H153.541V252.888C153.541 250.152 152.281 248.856 149.995 248.856C148.591 248.856 147.313 249.342 146.179 250.026L147.115 251.772C147.979 251.268 148.735 250.962 149.491 250.962C150.445 250.962 150.841 251.466 150.895 252.258C147.367 252.618 145.873 253.644 145.873 255.516ZM148.393 255.318C148.393 254.634 149.005 254.094 150.895 253.842V255.408C150.427 255.876 150.031 256.164 149.419 256.164C148.789 256.164 148.393 255.894 148.393 255.318ZM156.011 259.296L155.543 261.312C155.903 261.42 156.263 261.492 156.803 261.492C158.909 261.492 159.863 260.34 160.709 258.09L163.805 249.072H161.267L160.187 252.906C159.971 253.752 159.773 254.598 159.575 255.444H159.503C159.269 254.562 159.053 253.716 158.801 252.906L157.523 249.072H154.859L158.297 257.766L158.171 258.234C157.937 258.936 157.487 259.404 156.605 259.404C156.407 259.404 156.173 259.332 156.011 259.296Z" fill="#30394B"/>
<circle cx="296" cy="56" r="4" fill="#30394B"/>
<circle cx="296" cy="289" r="4" fill="#30394B"/>
<circle cx="296" cy="87" r="4" fill="#30394B"/>
<circle cx="296" cy="319" r="4" fill="#30394B"/>
<circle cx="296" cy="116" r="4" fill="#30394B"/>
<circle cx="296" cy="348" r="4" fill="#30394B"/>
<circle cx="296" cy="146" r="4" fill="#30394B"/>
<circle cx="296" cy="378" r="4" fill="#30394B"/>
<circle cx="296" cy="177" r="4" fill="#30394B"/>
<circle cx="296" cy="409" r="4" fill="#30394B"/>
<line y1="213.5" x2="535" y2="213.5" stroke="url(#paint0_linear)"/>
<defs>
<linearGradient id="paint0_linear" x1="535" y1="214" x2="0" y2="214" gradientUnits="userSpaceOnUse">
<stop offset="0.00312487" stop-color="#D6DAE4" stop-opacity="0"/>
<stop offset="0.503125" stop-color="#D6DAE4"/>
<stop offset="1" stop-color="#D6DAE4" stop-opacity="0"/>
</linearGradient>
</defs>
</svg>
