<svg width="479" height="135" viewBox="0 0 479 135" fill="none" xmlns="http://www.w3.org/2000/svg">
<rect width="479" height="135" fill="white"/>
<rect x="9" y="36" width="212" height="50" rx="4" fill="#EFF1F6"/>
<path d="M28.148 64V57.126H29.478L29.604 58.162H29.66C29.9867 57.8353 30.346 57.5553 30.738 57.322C31.1393 57.0793 31.606 56.958 32.138 56.958C32.9313 56.958 33.5147 57.2007 33.888 57.686C34.2613 58.162 34.448 58.848 34.448 59.744V64H32.824V59.954C32.824 59.394 32.726 58.988 32.53 58.736C32.3433 58.4747 32.012 58.344 31.536 58.344C31.2 58.344 30.9013 58.4233 30.64 58.582C30.3787 58.7407 30.0893 58.9833 29.772 59.31V64H28.148ZM39.0765 64.168C38.6379 64.168 38.2365 64.0887 37.8725 63.93C37.5085 63.762 37.1959 63.524 36.9345 63.216C36.6825 62.908 36.4865 62.5347 36.3465 62.096C36.2065 61.648 36.1365 61.1393 36.1365 60.57C36.1365 60.01 36.2205 59.506 36.3885 59.058C36.5565 58.61 36.7805 58.232 37.0605 57.924C37.3499 57.616 37.6765 57.378 38.0405 57.21C38.4045 57.042 38.7825 56.958 39.1745 56.958C39.5665 56.958 39.9119 57.028 40.2105 57.168C40.5092 57.308 40.7939 57.5087 41.0645 57.77H41.1065L41.0225 56.608V54.116H42.6465V64H41.3165L41.1905 63.202H41.1485C40.8779 63.4727 40.5605 63.7013 40.1965 63.888C39.8419 64.0747 39.4685 64.168 39.0765 64.168ZM39.4685 62.838C40.0379 62.838 40.5559 62.5627 41.0225 62.012V58.918C40.7799 58.6847 40.5372 58.5213 40.2945 58.428C40.0519 58.3347 39.8045 58.288 39.5525 58.288C39.3099 58.288 39.0812 58.3393 38.8665 58.442C38.6612 58.5447 38.4792 58.694 38.3205 58.89C38.1619 59.0767 38.0359 59.31 37.9425 59.59C37.8492 59.87 37.8025 60.192 37.8025 60.556C37.8025 61.3027 37.9472 61.872 38.2365 62.264C38.5259 62.6467 38.9365 62.838 39.4685 62.838ZM47.0791 64.168C46.7431 64.168 46.4351 64.1167 46.1551 64.014C45.8751 63.9207 45.6324 63.7853 45.4271 63.608C45.2217 63.4307 45.0631 63.2207 44.9511 62.978C44.8391 62.726 44.7831 62.4507 44.7831 62.152C44.7831 61.7693 44.8717 61.4333 45.0491 61.144C45.2264 60.8453 45.5064 60.5933 45.8891 60.388C46.2717 60.1827 46.7617 60.0147 47.3591 59.884C47.9564 59.7533 48.6797 59.66 49.5291 59.604C49.5011 59.212 49.3611 58.89 49.1091 58.638C48.8571 58.386 48.4511 58.26 47.8911 58.26C47.4991 58.26 47.1117 58.3347 46.7291 58.484C46.3557 58.624 45.9917 58.792 45.6371 58.988L45.0491 57.91C45.4691 57.6673 45.9497 57.448 46.4911 57.252C47.0324 57.056 47.5971 56.958 48.1851 56.958C49.1464 56.958 49.8791 57.2147 50.3831 57.728C50.8871 58.232 51.1391 58.9647 51.1391 59.926V64H49.8231L49.6971 63.146H49.6551C49.2911 63.426 48.8851 63.6687 48.4371 63.874C47.9984 64.07 47.5457 64.168 47.0791 64.168ZM47.5691 62.908C47.9144 62.908 48.2457 62.8333 48.5631 62.684C48.8897 62.5253 49.2117 62.32 49.5291 62.068V60.612C48.9131 60.6587 48.3997 60.724 47.9891 60.808C47.5784 60.8827 47.2517 60.9807 47.0091 61.102C46.7664 61.2233 46.5937 61.3633 46.4911 61.522C46.3884 61.6713 46.3371 61.8393 46.3371 62.026C46.3371 62.334 46.4537 62.558 46.6871 62.698C46.9297 62.838 47.2237 62.908 47.5691 62.908ZM54.0036 64V57.126H55.3336L55.4736 58.68H55.5156C55.8703 58.12 56.2949 57.6953 56.7896 57.406C57.2936 57.1073 57.8443 56.958 58.4416 56.958C58.7216 56.958 58.9596 56.9813 59.1556 57.028C59.3609 57.0653 59.5663 57.1353 59.7716 57.238L59.4356 58.596C59.2116 58.5213 59.0109 58.47 58.8336 58.442C58.6656 58.4047 58.4509 58.386 58.1896 58.386C57.7136 58.386 57.2563 58.5213 56.8176 58.792C56.3789 59.0627 55.9823 59.534 55.6276 60.206V64H54.0036ZM62.3981 64V57.126H63.7281L63.8681 58.68H63.9101C64.2648 58.12 64.6895 57.6953 65.1841 57.406C65.6881 57.1073 66.2388 56.958 66.8361 56.958C67.1161 56.958 67.3541 56.9813 67.5501 57.028C67.7555 57.0653 67.9608 57.1353 68.1661 57.238L67.8301 58.596C67.6061 58.5213 67.4055 58.47 67.2281 58.442C67.0601 58.4047 66.8455 58.386 66.5841 58.386C66.1081 58.386 65.6508 58.5213 65.2121 58.792C64.7735 59.0627 64.3768 59.534 64.0221 60.206V64H62.3981ZM72.2627 64.168C71.9267 64.168 71.6187 64.1167 71.3387 64.014C71.0587 63.9207 70.816 63.7853 70.6107 63.608C70.4053 63.4307 70.2467 63.2207 70.1347 62.978C70.0227 62.726 69.9667 62.4507 69.9667 62.152C69.9667 61.7693 70.0553 61.4333 70.2327 61.144C70.41 60.8453 70.69 60.5933 71.0727 60.388C71.4553 60.1827 71.9453 60.0147 72.5427 59.884C73.14 59.7533 73.8633 59.66 74.7127 59.604C74.6847 59.212 74.5447 58.89 74.2927 58.638C74.0407 58.386 73.6347 58.26 73.0747 58.26C72.6827 58.26 72.2953 58.3347 71.9127 58.484C71.5393 58.624 71.1753 58.792 70.8207 58.988L70.2327 57.91C70.6527 57.6673 71.1333 57.448 71.6747 57.252C72.216 57.056 72.7807 56.958 73.3687 56.958C74.33 56.958 75.0627 57.2147 75.5667 57.728C76.0707 58.232 76.3227 58.9647 76.3227 59.926V64H75.0067L74.8807 63.146H74.8387C74.4747 63.426 74.0687 63.6687 73.6207 63.874C73.182 64.07 72.7293 64.168 72.2627 64.168ZM72.7527 62.908C73.098 62.908 73.4293 62.8333 73.7467 62.684C74.0733 62.5253 74.3953 62.32 74.7127 62.068V60.612C74.0967 60.6587 73.5833 60.724 73.1727 60.808C72.762 60.8827 72.4353 60.9807 72.1927 61.102C71.95 61.2233 71.7773 61.3633 71.6747 61.522C71.572 61.6713 71.5207 61.8393 71.5207 62.026C71.5207 62.334 71.6373 62.558 71.8707 62.698C72.1133 62.838 72.4073 62.908 72.7527 62.908ZM79.2852 66.828C79.0985 66.828 78.9212 66.814 78.7532 66.786C78.5852 66.7673 78.4359 66.7347 78.3052 66.688L78.6132 65.428C78.7065 65.456 78.7999 65.4793 78.8932 65.498C78.9865 65.5167 79.0845 65.526 79.1872 65.526C79.6259 65.526 79.9759 65.414 80.2372 65.19C80.4985 64.9753 80.6992 64.6953 80.8392 64.35L81.0072 63.916L77.9272 57.126H79.5372L80.9512 60.5C81.0819 60.808 81.2079 61.1347 81.3292 61.48C81.4505 61.8253 81.5765 62.1707 81.7072 62.516H81.7632C81.8659 62.1893 81.9779 61.8533 82.0992 61.508C82.2205 61.1627 82.3372 60.8267 82.4492 60.5L83.6952 57.126H85.2212L82.3512 64.308C82.2019 64.7 82.0339 65.05 81.8472 65.358C81.6699 65.666 81.4599 65.9273 81.2172 66.142C80.9745 66.366 80.6945 66.534 80.3772 66.646C80.0599 66.7673 79.6959 66.828 79.2852 66.828Z" fill="#E05959"/>
<path d="M89.9617 64.168C89.5604 64.168 89.2291 64.0373 88.9677 63.776C88.7064 63.5053 88.5757 63.1647 88.5757 62.754C88.5757 62.3433 88.7064 62.0073 88.9677 61.746C89.2291 61.4753 89.5604 61.34 89.9617 61.34C90.3631 61.34 90.6944 61.4753 90.9557 61.746C91.2171 62.0073 91.3477 62.3433 91.3477 62.754C91.3477 63.1647 91.2171 63.5053 90.9557 63.776C90.6944 64.0373 90.3631 64.168 89.9617 64.168ZM94.8003 64V57.126H96.0463L96.1723 57.994H96.2142C96.3636 57.6953 96.5549 57.448 96.7883 57.252C97.0216 57.056 97.3389 56.958 97.7403 56.958C98.3843 56.958 98.7996 57.3407 98.9863 58.106C99.1449 57.77 99.3456 57.4947 99.5883 57.28C99.8309 57.0653 100.153 56.958 100.554 56.958C101.04 56.958 101.413 57.1493 101.674 57.532C101.945 57.9053 102.08 58.4373 102.08 59.128V64H100.526V59.24C100.526 58.6333 100.344 58.33 99.9803 58.33C99.7936 58.33 99.6349 58.4047 99.5043 58.554C99.3829 58.694 99.2523 58.9087 99.1123 59.198V64H97.7683V59.24C97.7683 58.9413 97.7263 58.7173 97.6423 58.568C97.5583 58.4093 97.4183 58.33 97.2223 58.33C97.0356 58.33 96.8769 58.4047 96.7463 58.554C96.6249 58.694 96.4989 58.9087 96.3683 59.198V64H94.8003ZM107.171 64.168C106.648 64.168 106.158 64.0887 105.701 63.93C105.243 63.762 104.842 63.524 104.497 63.216C104.161 62.908 103.895 62.53 103.699 62.082C103.503 61.634 103.405 61.1253 103.405 60.556C103.405 59.996 103.503 59.4967 103.699 59.058C103.895 58.61 104.156 58.232 104.483 57.924C104.819 57.6067 105.197 57.3687 105.617 57.21C106.046 57.042 106.494 56.958 106.961 56.958C107.474 56.958 107.927 57.042 108.319 57.21C108.711 57.3687 109.042 57.5927 109.313 57.882C109.583 58.162 109.789 58.5027 109.929 58.904C110.069 59.3053 110.139 59.744 110.139 60.22C110.139 60.3787 110.129 60.5327 110.111 60.682C110.101 60.822 110.087 60.9387 110.069 61.032H105.015C105.108 61.676 105.365 62.152 105.785 62.46C106.205 62.768 106.737 62.922 107.381 62.922C107.745 62.922 108.081 62.8707 108.389 62.768C108.697 62.6653 109.005 62.5253 109.313 62.348L109.859 63.356C109.495 63.5987 109.079 63.7947 108.613 63.944C108.155 64.0933 107.675 64.168 107.171 64.168ZM107.003 58.204C106.527 58.204 106.107 58.344 105.743 58.624C105.388 58.904 105.159 59.324 105.057 59.884H108.711C108.655 59.324 108.477 58.904 108.179 58.624C107.889 58.344 107.497 58.204 107.003 58.204ZM116.419 64.168C115.897 64.168 115.453 64.098 115.089 63.958C114.735 63.818 114.445 63.622 114.221 63.37C114.007 63.1087 113.848 62.796 113.745 62.432C113.652 62.068 113.605 61.6667 113.605 61.228V58.4H111.771V57.196L113.675 57.126L113.885 54.97H115.215V57.126H118.351V58.4H115.215V61.228C115.215 61.7973 115.332 62.2173 115.565 62.488C115.808 62.7493 116.223 62.88 116.811 62.88C117.101 62.88 117.367 62.8567 117.609 62.81C117.852 62.754 118.085 62.684 118.309 62.6L118.617 63.776C118.309 63.8787 117.978 63.9673 117.623 64.042C117.269 64.126 116.867 64.168 116.419 64.168ZM120.488 64V54.116H122.112V56.664L122.014 58.134H122.056C122.355 57.8167 122.7 57.5413 123.092 57.308C123.484 57.0747 123.946 56.958 124.478 56.958C125.271 56.958 125.855 57.2007 126.228 57.686C126.601 58.162 126.788 58.848 126.788 59.744V64H125.164V59.954C125.164 59.394 125.066 58.988 124.87 58.736C124.683 58.4747 124.352 58.344 123.876 58.344C123.54 58.344 123.241 58.4233 122.98 58.582C122.719 58.7407 122.429 58.9833 122.112 59.31V64H120.488ZM131.934 64.168C131.486 64.168 131.052 64.0887 130.632 63.93C130.212 63.7713 129.844 63.538 129.526 63.23C129.209 62.922 128.952 62.544 128.756 62.096C128.57 61.648 128.476 61.1393 128.476 60.57C128.476 60.0007 128.57 59.492 128.756 59.044C128.952 58.596 129.209 58.218 129.526 57.91C129.844 57.602 130.212 57.3687 130.632 57.21C131.052 57.042 131.486 56.958 131.934 56.958C132.382 56.958 132.816 57.042 133.236 57.21C133.656 57.3687 134.025 57.602 134.342 57.91C134.66 58.218 134.912 58.596 135.098 59.044C135.294 59.492 135.392 60.0007 135.392 60.57C135.392 61.1393 135.294 61.648 135.098 62.096C134.912 62.544 134.66 62.922 134.342 63.23C134.025 63.538 133.656 63.7713 133.236 63.93C132.816 64.0887 132.382 64.168 131.934 64.168ZM131.934 62.852C132.494 62.852 132.933 62.6467 133.25 62.236C133.568 61.816 133.726 61.2607 133.726 60.57C133.726 59.87 133.568 59.3147 133.25 58.904C132.933 58.484 132.494 58.274 131.934 58.274C131.374 58.274 130.936 58.484 130.618 58.904C130.301 59.3147 130.142 59.87 130.142 60.57C130.142 61.2607 130.301 61.816 130.618 62.236C130.936 62.6467 131.374 62.852 131.934 62.852ZM139.811 64.168C139.372 64.168 138.971 64.0887 138.607 63.93C138.243 63.762 137.93 63.524 137.669 63.216C137.417 62.908 137.221 62.5347 137.081 62.096C136.941 61.648 136.871 61.1393 136.871 60.57C136.871 60.01 136.955 59.506 137.123 59.058C137.291 58.61 137.515 58.232 137.795 57.924C138.084 57.616 138.411 57.378 138.775 57.21C139.139 57.042 139.517 56.958 139.909 56.958C140.301 56.958 140.646 57.028 140.945 57.168C141.244 57.308 141.528 57.5087 141.799 57.77H141.841L141.757 56.608V54.116H143.381V64H142.051L141.925 63.202H141.883C141.612 63.4727 141.295 63.7013 140.931 63.888C140.576 64.0747 140.203 64.168 139.811 64.168ZM140.203 62.838C140.772 62.838 141.29 62.5627 141.757 62.012V58.918C141.514 58.6847 141.272 58.5213 141.029 58.428C140.786 58.3347 140.539 58.288 140.287 58.288C140.044 58.288 139.816 58.3393 139.601 58.442C139.396 58.5447 139.214 58.694 139.055 58.89C138.896 59.0767 138.77 59.31 138.677 59.59C138.584 59.87 138.537 60.192 138.537 60.556C138.537 61.3027 138.682 61.872 138.971 62.264C139.26 62.6467 139.671 62.838 140.203 62.838ZM145.363 66.128V64.868H152.083V66.128H145.363ZM154.066 64V57.126H155.396L155.522 58.162H155.578C155.905 57.8353 156.264 57.5553 156.656 57.322C157.057 57.0793 157.524 56.958 158.056 56.958C158.849 56.958 159.433 57.2007 159.806 57.686C160.179 58.162 160.366 58.848 160.366 59.744V64H158.742V59.954C158.742 59.394 158.644 58.988 158.448 58.736C158.261 58.4747 157.93 58.344 157.454 58.344C157.118 58.344 156.819 58.4233 156.558 58.582C156.297 58.7407 156.007 58.9833 155.69 59.31V64H154.066ZM164.603 64.168C164.267 64.168 163.959 64.1167 163.679 64.014C163.399 63.9207 163.156 63.7853 162.951 63.608C162.745 63.4307 162.587 63.2207 162.475 62.978C162.363 62.726 162.307 62.4507 162.307 62.152C162.307 61.7693 162.395 61.4333 162.573 61.144C162.75 60.8453 163.03 60.5933 163.413 60.388C163.795 60.1827 164.285 60.0147 164.883 59.884C165.48 59.7533 166.203 59.66 167.053 59.604C167.025 59.212 166.885 58.89 166.633 58.638C166.381 58.386 165.975 58.26 165.415 58.26C165.023 58.26 164.635 58.3347 164.253 58.484C163.879 58.624 163.515 58.792 163.16 58.988L162.573 57.91C162.993 57.6673 163.473 57.448 164.015 57.252C164.556 57.056 165.121 56.958 165.709 56.958C166.67 56.958 167.403 57.2147 167.907 57.728C168.411 58.232 168.663 58.9647 168.663 59.926V64H167.347L167.221 63.146H167.179C166.815 63.426 166.409 63.6687 165.961 63.874C165.522 64.07 165.069 64.168 164.603 64.168ZM165.093 62.908C165.438 62.908 165.769 62.8333 166.087 62.684C166.413 62.5253 166.735 62.32 167.053 62.068V60.612C166.437 60.6587 165.923 60.724 165.513 60.808C165.102 60.8827 164.775 60.9807 164.533 61.102C164.29 61.2233 164.117 61.3633 164.015 61.522C163.912 61.6713 163.861 61.8393 163.861 62.026C163.861 62.334 163.977 62.558 164.211 62.698C164.453 62.838 164.747 62.908 165.093 62.908ZM170.351 64V57.126H171.597L171.723 57.994H171.765C171.914 57.6953 172.106 57.448 172.339 57.252C172.572 57.056 172.89 56.958 173.291 56.958C173.935 56.958 174.35 57.3407 174.537 58.106C174.696 57.77 174.896 57.4947 175.139 57.28C175.382 57.0653 175.704 56.958 176.105 56.958C176.59 56.958 176.964 57.1493 177.225 57.532C177.496 57.9053 177.631 58.4373 177.631 59.128V64H176.077V59.24C176.077 58.6333 175.895 58.33 175.531 58.33C175.344 58.33 175.186 58.4047 175.055 58.554C174.934 58.694 174.803 58.9087 174.663 59.198V64H173.319V59.24C173.319 58.9413 173.277 58.7173 173.193 58.568C173.109 58.4093 172.969 58.33 172.773 58.33C172.586 58.33 172.428 58.4047 172.297 58.554C172.176 58.694 172.05 58.9087 171.919 59.198V64H170.351ZM182.722 64.168C182.199 64.168 181.709 64.0887 181.252 63.93C180.794 63.762 180.393 63.524 180.048 63.216C179.712 62.908 179.446 62.53 179.25 62.082C179.054 61.634 178.956 61.1253 178.956 60.556C178.956 59.996 179.054 59.4967 179.25 59.058C179.446 58.61 179.707 58.232 180.034 57.924C180.37 57.6067 180.748 57.3687 181.168 57.21C181.597 57.042 182.045 56.958 182.512 56.958C183.025 56.958 183.478 57.042 183.87 57.21C184.262 57.3687 184.593 57.5927 184.864 57.882C185.134 58.162 185.34 58.5027 185.48 58.904C185.62 59.3053 185.69 59.744 185.69 60.22C185.69 60.3787 185.68 60.5327 185.662 60.682C185.652 60.822 185.638 60.9387 185.62 61.032H180.566C180.659 61.676 180.916 62.152 181.336 62.46C181.756 62.768 182.288 62.922 182.932 62.922C183.296 62.922 183.632 62.8707 183.94 62.768C184.248 62.6653 184.556 62.5253 184.864 62.348L185.41 63.356C185.046 63.5987 184.63 63.7947 184.164 63.944C183.706 64.0933 183.226 64.168 182.722 64.168ZM182.554 58.204C182.078 58.204 181.658 58.344 181.294 58.624C180.939 58.904 180.71 59.324 180.608 59.884H184.262C184.206 59.324 184.028 58.904 183.73 58.624C183.44 58.344 183.048 58.204 182.554 58.204ZM192.264 66.478C191.321 65.694 190.575 64.77 190.024 63.706C189.483 62.642 189.212 61.4427 189.212 60.108C189.212 58.7733 189.483 57.574 190.024 56.51C190.575 55.446 191.321 54.522 192.264 53.738L193.16 54.48C192.273 55.2827 191.625 56.1367 191.214 57.042C190.803 57.9473 190.598 58.9693 190.598 60.108C190.598 61.2467 190.803 62.2687 191.214 63.174C191.625 64.0793 192.273 64.9333 193.16 65.736L192.264 66.478ZM197.523 66.478L196.627 65.736C197.513 64.9333 198.162 64.0793 198.573 63.174C198.983 62.2687 199.189 61.2467 199.189 60.108C199.189 58.9693 198.983 57.9473 198.573 57.042C198.162 56.1367 197.513 55.2827 196.627 54.48L197.523 53.738C198.465 54.522 199.207 55.446 199.749 56.51C200.299 57.574 200.575 58.7733 200.575 60.108C200.575 61.4427 200.299 62.642 199.749 63.706C199.207 64.77 198.465 65.694 197.523 66.478Z" fill="#30394B"/>
<rect x="251" y="36" width="219" height="50" rx="4" fill="#EFF1F6"/>
<path d="M274.474 64.168C273.951 64.168 273.508 64.098 273.144 63.958C272.789 63.818 272.5 63.622 272.276 63.37C272.061 63.1087 271.903 62.796 271.8 62.432C271.707 62.068 271.66 61.6667 271.66 61.228V58.4H269.826V57.196L271.73 57.126L271.94 54.97H273.27V57.126H276.406V58.4H273.27V61.228C273.27 61.7973 273.387 62.2173 273.62 62.488C273.863 62.7493 274.278 62.88 274.866 62.88C275.155 62.88 275.421 62.8567 275.664 62.81C275.907 62.754 276.14 62.684 276.364 62.6L276.672 63.776C276.364 63.8787 276.033 63.9673 275.678 64.042C275.323 64.126 274.922 64.168 274.474 64.168ZM279.215 64V57.126H280.545L280.685 58.68H280.727C281.081 58.12 281.506 57.6953 282.001 57.406C282.505 57.1073 283.055 56.958 283.653 56.958C283.933 56.958 284.171 56.9813 284.367 57.028C284.572 57.0653 284.777 57.1353 284.983 57.238L284.647 58.596C284.423 58.5213 284.222 58.47 284.045 58.442C283.877 58.4047 283.662 58.386 283.401 58.386C282.925 58.386 282.467 58.5213 282.029 58.792C281.59 59.0627 281.193 59.534 280.839 60.206V64H279.215ZM289.947 64V58.4H286.965V57.126H291.557V64H289.947ZM290.647 55.866C290.32 55.866 290.045 55.768 289.821 55.572C289.606 55.376 289.499 55.1147 289.499 54.788C289.499 54.4613 289.606 54.2 289.821 54.004C290.045 53.7987 290.32 53.696 290.647 53.696C290.974 53.696 291.244 53.7987 291.459 54.004C291.683 54.2 291.795 54.4613 291.795 54.788C291.795 55.1147 291.683 55.376 291.459 55.572C291.244 55.768 290.974 55.866 290.647 55.866ZM295.332 66.716V57.126H296.662L296.788 57.91H296.83C297.128 57.6393 297.469 57.4153 297.852 57.238C298.244 57.0513 298.636 56.958 299.028 56.958C299.476 56.958 299.872 57.042 300.218 57.21C300.572 57.3687 300.866 57.602 301.1 57.91C301.342 58.218 301.524 58.5867 301.646 59.016C301.776 59.4453 301.842 59.926 301.842 60.458C301.842 61.046 301.758 61.5733 301.59 62.04C301.422 62.4973 301.193 62.8847 300.904 63.202C300.624 63.51 300.297 63.748 299.924 63.916C299.56 64.084 299.182 64.168 298.79 64.168C298.472 64.168 298.146 64.098 297.81 63.958C297.483 63.818 297.184 63.6173 296.914 63.356H296.872L296.956 64.56V66.716H295.332ZM298.454 62.838C298.948 62.838 299.359 62.642 299.686 62.25C300.012 61.8487 300.176 61.256 300.176 60.472C300.176 59.7813 300.05 59.2447 299.798 58.862C299.546 58.4793 299.14 58.288 298.58 58.288C298.318 58.288 298.052 58.3533 297.782 58.484C297.511 58.6147 297.236 58.8247 296.956 59.114V62.208C297.208 62.4413 297.464 62.6047 297.726 62.698C297.996 62.7913 298.239 62.838 298.454 62.838ZM303.418 66.128V64.868H310.138V66.128H303.418ZM311.617 64V57.126H312.863L312.989 57.994H313.031C313.18 57.6953 313.371 57.448 313.605 57.252C313.838 57.056 314.155 56.958 314.557 56.958C315.201 56.958 315.616 57.3407 315.803 58.106C315.961 57.77 316.162 57.4947 316.405 57.28C316.647 57.0653 316.969 56.958 317.371 56.958C317.856 56.958 318.229 57.1493 318.491 57.532C318.761 57.9053 318.897 58.4373 318.897 59.128V64H317.343V59.24C317.343 58.6333 317.161 58.33 316.797 58.33C316.61 58.33 316.451 58.4047 316.321 58.554C316.199 58.694 316.069 58.9087 315.929 59.198V64H314.585V59.24C314.585 58.9413 314.543 58.7173 314.459 58.568C314.375 58.4093 314.235 58.33 314.039 58.33C313.852 58.33 313.693 58.4047 313.563 58.554C313.441 58.694 313.315 58.9087 313.185 59.198V64H311.617ZM320.515 66.716V57.126H321.845L321.971 57.91H322.013C322.312 57.6393 322.653 57.4153 323.035 57.238C323.427 57.0513 323.819 56.958 324.211 56.958C324.659 56.958 325.056 57.042 325.401 57.21C325.756 57.3687 326.05 57.602 326.283 57.91C326.526 58.218 326.708 58.5867 326.829 59.016C326.96 59.4453 327.025 59.926 327.025 60.458C327.025 61.046 326.941 61.5733 326.773 62.04C326.605 62.4973 326.377 62.8847 326.087 63.202C325.807 63.51 325.481 63.748 325.107 63.916C324.743 64.084 324.365 64.168 323.973 64.168C323.656 64.168 323.329 64.098 322.993 63.958C322.667 63.818 322.368 63.6173 322.097 63.356H322.055L322.139 64.56V66.716H320.515ZM323.637 62.838C324.132 62.838 324.543 62.642 324.869 62.25C325.196 61.8487 325.359 61.256 325.359 60.472C325.359 59.7813 325.233 59.2447 324.981 58.862C324.729 58.4793 324.323 58.288 323.763 58.288C323.502 58.288 323.236 58.3533 322.965 58.484C322.695 58.6147 322.419 58.8247 322.139 59.114V62.208C322.391 62.4413 322.648 62.6047 322.909 62.698C323.18 62.7913 323.423 62.838 323.637 62.838ZM328.91 64V54.116H330.534V56.664L330.436 58.134H330.478C330.776 57.8167 331.122 57.5413 331.514 57.308C331.906 57.0747 332.368 56.958 332.9 56.958C333.693 56.958 334.276 57.2007 334.65 57.686C335.023 58.162 335.21 58.848 335.21 59.744V64H333.586V59.954C333.586 59.394 333.488 58.988 333.292 58.736C333.105 58.4747 332.774 58.344 332.298 58.344C331.962 58.344 331.663 58.4233 331.402 58.582C331.14 58.7407 330.851 58.9833 330.534 59.31V64H328.91Z" fill="#E05959"/>
<path d="M340.356 64.168C339.955 64.168 339.624 64.0373 339.362 63.776C339.101 63.5053 338.97 63.1647 338.97 62.754C338.97 62.3433 339.101 62.0073 339.362 61.746C339.624 61.4753 339.955 61.34 340.356 61.34C340.758 61.34 341.089 61.4753 341.35 61.746C341.612 62.0073 341.742 62.3433 341.742 62.754C341.742 63.1647 341.612 63.5053 341.35 63.776C341.089 64.0373 340.758 64.168 340.356 64.168ZM345.195 64V57.126H346.441L346.567 57.994H346.609C346.758 57.6953 346.949 57.448 347.183 57.252C347.416 57.056 347.733 56.958 348.135 56.958C348.779 56.958 349.194 57.3407 349.381 58.106C349.539 57.77 349.74 57.4947 349.983 57.28C350.225 57.0653 350.547 56.958 350.949 56.958C351.434 56.958 351.807 57.1493 352.069 57.532C352.339 57.9053 352.475 58.4373 352.475 59.128V64H350.921V59.24C350.921 58.6333 350.739 58.33 350.375 58.33C350.188 58.33 350.029 58.4047 349.899 58.554C349.777 58.694 349.647 58.9087 349.507 59.198V64H348.163V59.24C348.163 58.9413 348.121 58.7173 348.037 58.568C347.953 58.4093 347.813 58.33 347.617 58.33C347.43 58.33 347.271 58.4047 347.141 58.554C347.019 58.694 346.893 58.9087 346.763 59.198V64H345.195ZM357.565 64.168C357.043 64.168 356.553 64.0887 356.095 63.93C355.638 63.762 355.237 63.524 354.891 63.216C354.555 62.908 354.289 62.53 354.093 62.082C353.897 61.634 353.799 61.1253 353.799 60.556C353.799 59.996 353.897 59.4967 354.093 59.058C354.289 58.61 354.551 58.232 354.877 57.924C355.213 57.6067 355.591 57.3687 356.011 57.21C356.441 57.042 356.889 56.958 357.355 56.958C357.869 56.958 358.321 57.042 358.713 57.21C359.105 57.3687 359.437 57.5927 359.707 57.882C359.978 58.162 360.183 58.5027 360.323 58.904C360.463 59.3053 360.533 59.744 360.533 60.22C360.533 60.3787 360.524 60.5327 360.505 60.682C360.496 60.822 360.482 60.9387 360.463 61.032H355.409C355.503 61.676 355.759 62.152 356.179 62.46C356.599 62.768 357.131 62.922 357.775 62.922C358.139 62.922 358.475 62.8707 358.783 62.768C359.091 62.6653 359.399 62.5253 359.707 62.348L360.253 63.356C359.889 63.5987 359.474 63.7947 359.007 63.944C358.55 64.0933 358.069 64.168 357.565 64.168ZM357.397 58.204C356.921 58.204 356.501 58.344 356.137 58.624C355.783 58.904 355.554 59.324 355.451 59.884H359.105C359.049 59.324 358.872 58.904 358.573 58.624C358.284 58.344 357.892 58.204 357.397 58.204ZM366.814 64.168C366.291 64.168 365.848 64.098 365.484 63.958C365.129 63.818 364.84 63.622 364.616 63.37C364.401 63.1087 364.243 62.796 364.14 62.432C364.047 62.068 364 61.6667 364 61.228V58.4H362.166V57.196L364.07 57.126L364.28 54.97H365.61V57.126H368.746V58.4H365.61V61.228C365.61 61.7973 365.727 62.2173 365.96 62.488C366.203 62.7493 366.618 62.88 367.206 62.88C367.495 62.88 367.761 62.8567 368.004 62.81C368.247 62.754 368.48 62.684 368.704 62.6L369.012 63.776C368.704 63.8787 368.373 63.9673 368.018 64.042C367.663 64.126 367.262 64.168 366.814 64.168ZM370.882 64V54.116H372.506V56.664L372.408 58.134H372.45C372.749 57.8167 373.094 57.5413 373.486 57.308C373.878 57.0747 374.34 56.958 374.872 56.958C375.666 56.958 376.249 57.2007 376.622 57.686C376.996 58.162 377.182 58.848 377.182 59.744V64H375.558V59.954C375.558 59.394 375.46 58.988 375.264 58.736C375.078 58.4747 374.746 58.344 374.27 58.344C373.934 58.344 373.636 58.4233 373.374 58.582C373.113 58.7407 372.824 58.9833 372.506 59.31V64H370.882ZM382.329 64.168C381.881 64.168 381.447 64.0887 381.027 63.93C380.607 63.7713 380.238 63.538 379.921 63.23C379.604 62.922 379.347 62.544 379.151 62.096C378.964 61.648 378.871 61.1393 378.871 60.57C378.871 60.0007 378.964 59.492 379.151 59.044C379.347 58.596 379.604 58.218 379.921 57.91C380.238 57.602 380.607 57.3687 381.027 57.21C381.447 57.042 381.881 56.958 382.329 56.958C382.777 56.958 383.211 57.042 383.631 57.21C384.051 57.3687 384.42 57.602 384.737 57.91C385.054 58.218 385.306 58.596 385.493 59.044C385.689 59.492 385.787 60.0007 385.787 60.57C385.787 61.1393 385.689 61.648 385.493 62.096C385.306 62.544 385.054 62.922 384.737 63.23C384.42 63.538 384.051 63.7713 383.631 63.93C383.211 64.0887 382.777 64.168 382.329 64.168ZM382.329 62.852C382.889 62.852 383.328 62.6467 383.645 62.236C383.962 61.816 384.121 61.2607 384.121 60.57C384.121 59.87 383.962 59.3147 383.645 58.904C383.328 58.484 382.889 58.274 382.329 58.274C381.769 58.274 381.33 58.484 381.013 58.904C380.696 59.3147 380.537 59.87 380.537 60.57C380.537 61.2607 380.696 61.816 381.013 62.236C381.33 62.6467 381.769 62.852 382.329 62.852ZM390.205 64.168C389.767 64.168 389.365 64.0887 389.001 63.93C388.637 63.762 388.325 63.524 388.063 63.216C387.811 62.908 387.615 62.5347 387.475 62.096C387.335 61.648 387.265 61.1393 387.265 60.57C387.265 60.01 387.349 59.506 387.517 59.058C387.685 58.61 387.909 58.232 388.189 57.924C388.479 57.616 388.805 57.378 389.169 57.21C389.533 57.042 389.911 56.958 390.303 56.958C390.695 56.958 391.041 57.028 391.339 57.168C391.638 57.308 391.923 57.5087 392.193 57.77H392.235L392.151 56.608V54.116H393.775V64H392.445L392.319 63.202H392.277C392.007 63.4727 391.689 63.7013 391.325 63.888C390.971 64.0747 390.597 64.168 390.205 64.168ZM390.597 62.838C391.167 62.838 391.685 62.5627 392.151 62.012V58.918C391.909 58.6847 391.666 58.5213 391.423 58.428C391.181 58.3347 390.933 58.288 390.681 58.288C390.439 58.288 390.21 58.3393 389.995 58.442C389.79 58.5447 389.608 58.694 389.449 58.89C389.291 59.0767 389.165 59.31 389.071 59.59C388.978 59.87 388.931 60.192 388.931 60.556C388.931 61.3027 389.076 61.872 389.365 62.264C389.655 62.6467 390.065 62.838 390.597 62.838ZM395.758 66.128V64.868H402.478V66.128H395.758ZM404.461 64V57.126H405.791L405.917 58.162H405.973C406.299 57.8353 406.659 57.5553 407.051 57.322C407.452 57.0793 407.919 56.958 408.451 56.958C409.244 56.958 409.827 57.2007 410.201 57.686C410.574 58.162 410.761 58.848 410.761 59.744V64H409.137V59.954C409.137 59.394 409.039 58.988 408.843 58.736C408.656 58.4747 408.325 58.344 407.849 58.344C407.513 58.344 407.214 58.4233 406.953 58.582C406.691 58.7407 406.402 58.9833 406.085 59.31V64H404.461ZM414.997 64.168C414.661 64.168 414.353 64.1167 414.073 64.014C413.793 63.9207 413.55 63.7853 413.345 63.608C413.14 63.4307 412.981 63.2207 412.869 62.978C412.757 62.726 412.701 62.4507 412.701 62.152C412.701 61.7693 412.79 61.4333 412.967 61.144C413.144 60.8453 413.424 60.5933 413.807 60.388C414.19 60.1827 414.68 60.0147 415.277 59.884C415.874 59.7533 416.598 59.66 417.447 59.604C417.419 59.212 417.279 58.89 417.027 58.638C416.775 58.386 416.369 58.26 415.809 58.26C415.417 58.26 415.03 58.3347 414.647 58.484C414.274 58.624 413.91 58.792 413.555 58.988L412.967 57.91C413.387 57.6673 413.868 57.448 414.409 57.252C414.95 57.056 415.515 56.958 416.103 56.958C417.064 56.958 417.797 57.2147 418.301 57.728C418.805 58.232 419.057 58.9647 419.057 59.926V64H417.741L417.615 63.146H417.573C417.209 63.426 416.803 63.6687 416.355 63.874C415.916 64.07 415.464 64.168 414.997 64.168ZM415.487 62.908C415.832 62.908 416.164 62.8333 416.481 62.684C416.808 62.5253 417.13 62.32 417.447 62.068V60.612C416.831 60.6587 416.318 60.724 415.907 60.808C415.496 60.8827 415.17 60.9807 414.927 61.102C414.684 61.2233 414.512 61.3633 414.409 61.522C414.306 61.6713 414.255 61.8393 414.255 62.026C414.255 62.334 414.372 62.558 414.605 62.698C414.848 62.838 415.142 62.908 415.487 62.908ZM420.746 64V57.126H421.992L422.118 57.994H422.16C422.309 57.6953 422.5 57.448 422.734 57.252C422.967 57.056 423.284 56.958 423.686 56.958C424.33 56.958 424.745 57.3407 424.932 58.106C425.09 57.77 425.291 57.4947 425.534 57.28C425.776 57.0653 426.098 56.958 426.5 56.958C426.985 56.958 427.358 57.1493 427.62 57.532C427.89 57.9053 428.026 58.4373 428.026 59.128V64H426.472V59.24C426.472 58.6333 426.29 58.33 425.926 58.33C425.739 58.33 425.58 58.4047 425.45 58.554C425.328 58.694 425.198 58.9087 425.058 59.198V64H423.714V59.24C423.714 58.9413 423.672 58.7173 423.588 58.568C423.504 58.4093 423.364 58.33 423.168 58.33C422.981 58.33 422.822 58.4047 422.692 58.554C422.57 58.694 422.444 58.9087 422.314 59.198V64H420.746ZM433.116 64.168C432.593 64.168 432.103 64.0887 431.646 63.93C431.189 63.762 430.787 63.524 430.442 63.216C430.106 62.908 429.84 62.53 429.644 62.082C429.448 61.634 429.35 61.1253 429.35 60.556C429.35 59.996 429.448 59.4967 429.644 59.058C429.84 58.61 430.101 58.232 430.428 57.924C430.764 57.6067 431.142 57.3687 431.562 57.21C431.991 57.042 432.439 56.958 432.906 56.958C433.419 56.958 433.872 57.042 434.264 57.21C434.656 57.3687 434.987 57.5927 435.258 57.882C435.529 58.162 435.734 58.5027 435.874 58.904C436.014 59.3053 436.084 59.744 436.084 60.22C436.084 60.3787 436.075 60.5327 436.056 60.682C436.047 60.822 436.033 60.9387 436.014 61.032H430.96C431.053 61.676 431.31 62.152 431.73 62.46C432.15 62.768 432.682 62.922 433.326 62.922C433.69 62.922 434.026 62.8707 434.334 62.768C434.642 62.6653 434.95 62.5253 435.258 62.348L435.804 63.356C435.44 63.5987 435.025 63.7947 434.558 63.944C434.101 64.0933 433.62 64.168 433.116 64.168ZM432.948 58.204C432.472 58.204 432.052 58.344 431.688 58.624C431.333 58.904 431.105 59.324 431.002 59.884H434.656C434.6 59.324 434.423 58.904 434.124 58.624C433.835 58.344 433.443 58.204 432.948 58.204ZM442.659 66.478C441.716 65.694 440.969 64.77 440.419 63.706C439.877 62.642 439.607 61.4427 439.607 60.108C439.607 58.7733 439.877 57.574 440.419 56.51C440.969 55.446 441.716 54.522 442.659 53.738L443.555 54.48C442.668 55.2827 442.019 56.1367 441.609 57.042C441.198 57.9473 440.993 58.9693 440.993 60.108C440.993 61.2467 441.198 62.2687 441.609 63.174C442.019 64.0793 442.668 64.9333 443.555 65.736L442.659 66.478ZM447.917 66.478L447.021 65.736C447.908 64.9333 448.556 64.0793 448.967 63.174C449.378 62.2687 449.583 61.2467 449.583 60.108C449.583 58.9693 449.378 57.9473 448.967 57.042C448.556 56.1367 447.908 55.2827 447.021 54.48L447.917 53.738C448.86 54.522 449.602 55.446 450.143 56.51C450.694 57.574 450.969 58.7733 450.969 60.108C450.969 61.4427 450.694 62.642 450.143 63.706C449.602 64.77 448.86 65.694 447.917 66.478Z" fill="#30394B"/>
<path d="M10.216 22H13.304C16.36 22 18.408 20.32 18.408 16.736C18.408 13.152 16.36 11.568 13.16 11.568H10.216V22ZM12.584 20.096V13.472H13.032C14.792 13.472 15.992 14.24 15.992 16.736C15.992 19.232 14.792 20.096 13.032 20.096H12.584ZM19.7166 18.032C19.7166 20.672 21.5726 22.192 23.5886 22.192C25.5886 22.192 27.4446 20.672 27.4446 18.032C27.4446 15.392 25.5886 13.872 23.5886 13.872C21.5726 13.872 19.7166 15.392 19.7166 18.032ZM22.1326 18.032C22.1326 16.656 22.6126 15.776 23.5886 15.776C24.5486 15.776 25.0446 16.656 25.0446 18.032C25.0446 19.408 24.5486 20.288 23.5886 20.288C22.6126 20.288 22.1326 19.408 22.1326 18.032ZM28.5916 18.032C28.5916 20.672 30.3036 22.192 32.5116 22.192C33.3756 22.192 34.3836 21.872 35.1516 21.2L34.2076 19.712C33.8236 20.016 33.3596 20.288 32.7836 20.288C31.7596 20.288 31.0076 19.408 31.0076 18.032C31.0076 16.656 31.7276 15.776 32.8636 15.776C33.2316 15.776 33.5836 15.92 33.9676 16.24L35.0396 14.784C34.5116 14.24 33.6956 13.872 32.7196 13.872C30.5276 13.872 28.5916 15.392 28.5916 18.032ZM36.4444 18.992C36.4444 20.976 37.1804 22.192 38.9084 22.192C39.9964 22.192 40.7324 21.696 41.4044 20.896H41.4524L41.6284 22H43.5484V14.064H41.1964V19.312C40.7324 19.936 40.3804 20.192 39.7884 20.192C39.1004 20.192 38.7964 19.824 38.7964 18.688V14.064H36.4444V18.992ZM45.6181 22H47.9701V16.64C48.4661 16.128 48.9301 15.872 49.3141 15.872C49.9861 15.872 50.2901 16.224 50.2901 17.376V22H52.6421V16.64C53.1541 16.128 53.6021 15.872 54.0021 15.872C54.6741 15.872 54.9781 16.224 54.9781 17.376V22H57.3301V17.072C57.3301 15.088 56.5621 13.872 54.8501 13.872C53.7941 13.872 53.0581 14.48 52.3541 15.2C51.9541 14.352 51.2821 13.872 50.1621 13.872C49.1221 13.872 48.4181 14.432 47.7621 15.088H47.6981L47.5381 14.064H45.6181V22ZM58.8729 18.032C58.8729 20.656 60.6169 22.192 62.8889 22.192C63.8329 22.192 64.8889 21.856 65.7049 21.296L64.9209 19.872C64.3449 20.224 63.8009 20.4 63.2089 20.4C62.1529 20.4 61.3529 19.872 61.1449 18.672H65.8969C65.9449 18.48 65.9929 18.096 65.9929 17.68C65.9929 15.52 64.8729 13.872 62.6169 13.872C60.7129 13.872 58.8729 15.456 58.8729 18.032ZM61.1289 17.216C61.2889 16.16 61.9289 15.664 62.6649 15.664C63.6089 15.664 63.9929 16.304 63.9929 17.216H61.1289ZM67.6181 22H69.9701V16.64C70.4821 16.144 70.8501 15.872 71.4421 15.872C72.1141 15.872 72.4181 16.224 72.4181 17.376V22H74.7701V17.072C74.7701 15.088 74.0341 13.872 72.3061 13.872C71.2341 13.872 70.4341 14.432 69.7621 15.072H69.6981L69.5381 14.064H67.6181V22ZM77.0944 19.12C77.0944 20.96 77.8624 22.192 79.8304 22.192C80.5984 22.192 81.1744 22.032 81.5904 21.904L81.2224 20.192C81.0144 20.272 80.7264 20.352 80.4704 20.352C79.8464 20.352 79.4464 19.984 79.4464 19.088V15.904H81.3504V14.064H79.4464V11.952H77.4944L77.2224 14.064L76.0064 14.16V15.904H77.0944V19.12ZM82.4239 19.792C82.4239 21.136 83.3359 22.192 84.7759 22.192C85.6719 22.192 86.4239 21.776 87.0959 21.184H87.1439L87.3199 22H89.2399V17.456C89.2399 15.024 88.1199 13.872 86.0879 13.872C84.8399 13.872 83.7039 14.304 82.6959 14.912L83.5279 16.464C84.2959 16.016 84.9679 15.744 85.6399 15.744C86.4879 15.744 86.8399 16.192 86.8879 16.896C83.7519 17.216 82.4239 18.128 82.4239 19.792ZM84.6639 19.616C84.6639 19.008 85.2079 18.528 86.8879 18.304V19.696C86.4719 20.112 86.1199 20.368 85.5759 20.368C85.0159 20.368 84.6639 20.128 84.6639 19.616ZM91.5788 19.12C91.5788 20.96 92.3468 22.192 94.3148 22.192C95.0828 22.192 95.6588 22.032 96.0748 21.904L95.7068 20.192C95.4988 20.272 95.2108 20.352 94.9548 20.352C94.3307 20.352 93.9308 19.984 93.9308 19.088V15.904H95.8348V14.064H93.9308V11.952H91.9788L91.7068 14.064L90.4908 14.16V15.904H91.5788V19.12ZM98.5518 12.896C99.3518 12.896 99.9118 12.384 99.9118 11.664C99.9118 10.944 99.3518 10.448 98.5518 10.448C97.7678 10.448 97.1918 10.944 97.1918 11.664C97.1918 12.384 97.7678 12.896 98.5518 12.896ZM97.3838 22H99.7358V14.064H97.3838V22ZM101.342 18.032C101.342 20.672 103.198 22.192 105.214 22.192C107.214 22.192 109.07 20.672 109.07 18.032C109.07 15.392 107.214 13.872 105.214 13.872C103.198 13.872 101.342 15.392 101.342 18.032ZM103.758 18.032C103.758 16.656 104.238 15.776 105.214 15.776C106.174 15.776 106.67 16.656 106.67 18.032C106.67 19.408 106.174 20.288 105.214 20.288C104.238 20.288 103.758 19.408 103.758 18.032ZM110.681 22H113.033V16.64C113.545 16.144 113.913 15.872 114.505 15.872C115.177 15.872 115.481 16.224 115.481 17.376V22H117.833V17.072C117.833 15.088 117.097 13.872 115.369 13.872C114.297 13.872 113.497 14.432 112.825 15.072H112.761L112.601 14.064H110.681V22Z" fill="#30394B"/>
<path d="M254.008 22H256.36V18.288L259.512 11.568H257.048L256.12 13.968C255.832 14.752 255.528 15.472 255.24 16.272H255.176C254.872 15.472 254.6 14.752 254.328 13.968L253.384 11.568H250.872L254.008 18.288V22ZM259.092 18.032C259.092 20.672 260.948 22.192 262.964 22.192C264.964 22.192 266.82 20.672 266.82 18.032C266.82 15.392 264.964 13.872 262.964 13.872C260.948 13.872 259.092 15.392 259.092 18.032ZM261.508 18.032C261.508 16.656 261.988 15.776 262.964 15.776C263.924 15.776 264.42 16.656 264.42 18.032C264.42 19.408 263.924 20.288 262.964 20.288C261.988 20.288 261.508 19.408 261.508 18.032ZM268.351 18.992C268.351 20.976 269.087 22.192 270.815 22.192C271.903 22.192 272.639 21.696 273.311 20.896H273.359L273.535 22H275.455V14.064H273.103V19.312C272.639 19.936 272.287 20.192 271.695 20.192C271.007 20.192 270.703 19.824 270.703 18.688V14.064H268.351V18.992ZM277.524 22H279.876V17.392C280.292 16.32 281.028 15.936 281.62 15.936C281.956 15.936 282.196 15.984 282.484 16.064L282.868 14.032C282.644 13.936 282.372 13.872 281.924 13.872C281.108 13.872 280.244 14.384 279.668 15.456H279.604L279.444 14.064H277.524V22ZM286.764 18.032C286.764 20.672 288.476 22.192 290.684 22.192C291.548 22.192 292.556 21.872 293.324 21.2L292.38 19.712C291.996 20.016 291.532 20.288 290.956 20.288C289.932 20.288 289.18 19.408 289.18 18.032C289.18 16.656 289.9 15.776 291.036 15.776C291.404 15.776 291.756 15.92 292.14 16.24L293.212 14.784C292.684 14.24 291.868 13.872 290.891 13.872C288.7 13.872 286.764 15.392 286.764 18.032ZM293.779 18.032C293.779 20.672 295.635 22.192 297.651 22.192C299.651 22.192 301.507 20.672 301.507 18.032C301.507 15.392 299.651 13.872 297.651 13.872C295.635 13.872 293.779 15.392 293.779 18.032ZM296.195 18.032C296.195 16.656 296.675 15.776 297.651 15.776C298.611 15.776 299.107 16.656 299.107 18.032C299.107 19.408 298.611 20.288 297.651 20.288C296.675 20.288 296.195 19.408 296.195 18.032ZM302.702 18.032C302.702 20.624 303.982 22.192 305.95 22.192C306.718 22.192 307.502 21.776 308.062 21.216H308.126L308.286 22H310.206V10.784H307.854V13.488L307.95 14.704C307.406 14.192 306.878 13.872 305.998 13.872C304.318 13.872 302.702 15.44 302.702 18.032ZM305.118 18C305.118 16.496 305.79 15.792 306.542 15.792C306.974 15.792 307.438 15.92 307.854 16.304V19.552C307.47 20.08 307.07 20.272 306.558 20.272C305.646 20.272 305.118 19.568 305.118 18ZM311.826 18.032C311.826 20.656 313.57 22.192 315.842 22.192C316.786 22.192 317.842 21.856 318.658 21.296L317.874 19.872C317.298 20.224 316.754 20.4 316.162 20.4C315.106 20.4 314.306 19.872 314.098 18.672H318.85C318.898 18.48 318.946 18.096 318.946 17.68C318.946 15.52 317.826 13.872 315.57 13.872C313.666 13.872 311.826 15.456 311.826 18.032ZM314.082 17.216C314.242 16.16 314.882 15.664 315.618 15.664C316.562 15.664 316.946 16.304 316.946 17.216H314.082Z" fill="#30394B"/>
<path d="M63.3318 72.5566C62.8108 72.3734 62.2399 72.6472 62.0566 73.1682L59.0705 81.6584C58.8872 82.1793 59.161 82.7503 59.682 82.9335C60.203 83.1167 60.7739 82.8429 60.9572 82.3219L63.6116 74.7751L71.1584 77.4295C71.6793 77.6128 72.2503 77.339 72.4335 76.818C72.6167 76.297 72.3429 75.7261 71.8219 75.5428L63.3318 72.5566ZM277.935 73.1446C277.738 72.6283 277.161 72.369 276.645 72.5653L268.232 75.7643C267.716 75.9606 267.457 76.5383 267.653 77.0545C267.849 77.5707 268.427 77.83 268.943 77.6337L276.421 74.7901L279.264 82.2677C279.461 82.7839 280.038 83.0433 280.554 82.847C281.071 82.6507 281.33 82.073 281.134 81.5568L277.935 73.1446ZM63 73.5C62.0983 73.9324 62.0988 73.9334 62.0993 73.9345C62.0996 73.9352 62.1003 73.9365 62.1009 73.9377C62.1021 73.9403 62.1037 73.9435 62.1056 73.9475C62.1095 73.9555 62.1149 73.9664 62.1218 73.9803C62.1355 74.008 62.1553 74.0473 62.1813 74.0978C62.2333 74.1989 62.3101 74.3449 62.4137 74.5329C62.6209 74.9088 62.9348 75.4526 63.3698 76.1401C64.2397 77.5152 65.5937 79.4653 67.5456 81.798C71.45 86.4643 77.7436 92.6577 87.3331 98.8405C106.519 111.211 138.839 123.5 191.5 123.5V121.5C139.161 121.5 107.231 109.289 88.4169 97.1595C79.0064 91.0923 72.8625 85.0357 69.0794 80.5145C67.1876 78.2535 65.8853 76.3755 65.0599 75.0708C64.6472 74.4185 64.3537 73.9095 64.1654 73.5677C64.0712 73.3968 64.0033 73.2677 63.96 73.1833C63.9383 73.1411 63.9227 73.1102 63.9131 73.0907C63.9083 73.081 63.9049 73.0742 63.903 73.0703C63.9021 73.0684 63.9015 73.0672 63.9013 73.0667C63.9012 73.0665 63.9013 73.0667 63.9012 73.0666C63.9014 73.067 63.9017 73.0676 63 73.5ZM191.5 123.5C223.536 123.5 245.143 111.131 258.736 98.739C265.527 92.5487 270.312 86.3578 273.403 81.71C274.949 79.3855 276.072 77.4453 276.81 76.0817C277.179 75.3998 277.453 74.8618 277.635 74.4919C277.726 74.3069 277.794 74.1639 277.84 74.0658C277.863 74.0168 277.881 73.979 277.893 73.9529C277.899 73.9398 277.903 73.9296 277.906 73.9224C277.908 73.9188 277.909 73.9159 277.91 73.9138C277.911 73.9127 277.911 73.9116 277.912 73.9111C277.912 73.9103 277.912 73.9096 277 73.5C276.088 73.0904 276.088 73.0901 276.088 73.09C276.088 73.0902 276.088 73.0903 276.088 73.0907C276.087 73.0916 276.086 73.0932 276.085 73.0955C276.083 73.1001 276.08 73.1077 276.075 73.1182C276.065 73.1391 276.05 73.1716 276.03 73.2153C275.989 73.3027 275.926 73.4348 275.84 73.6087C275.669 73.9565 275.408 74.4713 275.051 75.1293C274.339 76.4453 273.247 78.3332 271.738 80.6025C268.719 85.1422 264.036 91.2013 257.389 97.261C244.107 109.369 222.964 121.5 191.5 121.5V123.5Z" fill="url(#paint0_linear)"/>
<path d="M147.112 121.502C147.938 122.664 149.058 123.168 150.276 123.168C152.264 123.168 153.608 121.922 153.608 120.284C153.608 119.234 153.16 118.632 152.278 118.114L151.298 117.526C150.598 117.106 150.136 116.798 150.136 116.21C150.136 115.58 150.654 114.978 151.536 114.978C152.292 114.978 152.88 115.384 153.342 115.902L154.308 115.02C153.664 114.222 152.712 113.676 151.62 113.676C149.898 113.676 148.582 114.894 148.582 116.364C148.582 117.442 149.17 118.1 149.968 118.59L150.934 119.178C151.606 119.584 152.04 119.92 152.04 120.494C152.04 121.348 151.354 121.88 150.402 121.88C149.506 121.88 148.736 121.404 148.204 120.662L147.112 121.502ZM161.414 116.126H159.916L158.992 120.816C158.306 121.544 157.76 121.88 157.298 121.88C156.724 121.88 156.444 121.586 156.444 120.998C156.444 120.788 156.486 120.592 156.556 120.27L157.382 116.126H155.884L155.016 120.466C154.946 120.816 154.904 121.11 154.904 121.432C154.904 122.524 155.394 123.168 156.542 123.168C157.368 123.168 158.152 122.636 158.838 122.02H158.894L158.838 123H160.056L161.414 116.126ZM163.32 123L163.614 122.202H163.642C163.95 122.79 164.51 123.168 165.196 123.168C167.086 123.168 168.878 121.096 168.878 118.464C168.878 116.84 168.136 115.958 166.918 115.958C166.162 115.958 165.406 116.35 164.762 116.868H164.734L165.07 115.552L165.56 113.116H164.062L162.074 123H163.32ZM166.302 117.19C166.932 117.19 167.338 117.666 167.338 118.66C167.338 120.438 166.26 121.936 165.098 121.936C164.664 121.936 164.258 121.684 163.964 121.096L164.552 118.184C165.07 117.512 165.77 117.19 166.302 117.19ZM169.311 121.852C169.829 122.636 170.851 123.168 171.719 123.168C173.301 123.168 174.449 122.3 174.449 120.97C174.449 120.13 173.945 119.584 172.923 119.038C172.335 118.702 171.747 118.464 171.747 117.96C171.747 117.484 172.209 117.092 172.839 117.092C173.385 117.092 173.805 117.386 174.155 117.736L174.995 116.938C174.463 116.378 173.735 115.958 172.839 115.958C171.467 115.958 170.333 116.854 170.333 118.1C170.333 118.926 170.893 119.5 171.803 120.004C172.671 120.48 173.035 120.718 173.035 121.152C173.035 121.656 172.475 122.048 171.831 122.048C171.215 122.048 170.655 121.712 170.207 121.124L169.311 121.852ZM176.186 120.676C176.144 120.956 176.102 121.208 176.102 121.488C176.102 122.44 176.606 123.168 177.894 123.168C178.524 123.168 179.014 123 179.35 122.86L179.07 121.796C178.874 121.894 178.664 121.978 178.426 121.978C177.852 121.978 177.628 121.726 177.628 121.222C177.628 121.054 177.642 120.9 177.67 120.732L178.37 117.316H180.05L180.288 116.126H178.636L179 114.278H177.74L177.194 116.126L176.144 116.196L175.92 117.316H176.886L176.186 120.676ZM180.326 123H181.838L183.21 116.126H181.712L180.326 123ZM182.818 114.908C183.378 114.908 183.826 114.488 183.826 113.928C183.826 113.424 183.406 113.144 182.972 113.144C182.412 113.144 181.964 113.592 181.964 114.124C181.964 114.628 182.384 114.908 182.818 114.908ZM184.539 120.676C184.497 120.956 184.455 121.208 184.455 121.488C184.455 122.44 184.959 123.168 186.247 123.168C186.877 123.168 187.367 123 187.703 122.86L187.423 121.796C187.227 121.894 187.017 121.978 186.779 121.978C186.205 121.978 185.981 121.726 185.981 121.222C185.981 121.054 185.995 120.9 186.023 120.732L186.723 117.316H188.403L188.641 116.126H186.989L187.353 114.278H186.093L185.547 116.126L184.497 116.196L184.273 117.316H185.239L184.539 120.676ZM195.402 116.126H193.904L192.98 120.816C192.294 121.544 191.748 121.88 191.286 121.88C190.712 121.88 190.432 121.586 190.432 120.998C190.432 120.788 190.474 120.592 190.544 120.27L191.37 116.126H189.872L189.004 120.466C188.934 120.816 188.892 121.11 188.892 121.432C188.892 122.524 189.382 123.168 190.53 123.168C191.356 123.168 192.14 122.636 192.826 122.02H192.882L192.826 123H194.044L195.402 116.126ZM196.762 120.676C196.72 120.956 196.678 121.208 196.678 121.488C196.678 122.44 197.182 123.168 198.47 123.168C199.1 123.168 199.59 123 199.926 122.86L199.646 121.796C199.45 121.894 199.24 121.978 199.002 121.978C198.428 121.978 198.204 121.726 198.204 121.222C198.204 121.054 198.218 120.9 198.246 120.732L198.946 117.316H200.626L200.864 116.126H199.212L199.576 114.278H198.316L197.77 116.126L196.72 116.196L196.496 117.316H197.462L196.762 120.676ZM200.892 120.256C200.892 122.104 202.012 123.168 203.65 123.168C204.63 123.168 205.442 122.832 206.002 122.44L205.442 121.474C205.064 121.754 204.532 122.02 204.042 122.02C203.006 122.02 202.194 121.404 202.348 119.948H206.534C206.632 119.724 206.828 119.094 206.828 118.492C206.828 117.064 206.24 115.958 204.644 115.958C202.838 115.958 200.892 117.694 200.892 120.256ZM202.474 118.996C202.81 117.82 203.636 117.12 204.462 117.12C205.302 117.12 205.582 117.722 205.582 118.394C205.582 118.618 205.554 118.814 205.512 118.996H202.474Z" fill="#ABB3C9"/>
<defs>
<linearGradient id="paint0_linear" x1="63" y1="74" x2="277" y2="74" gradientUnits="userSpaceOnUse">
<stop stop-color="#ABB3C9"/>
<stop offset="0.346875" stop-color="#ABB3C9" stop-opacity="0"/>
<stop offset="0.711458" stop-color="#ABB3C9" stop-opacity="0"/>
<stop offset="1" stop-color="#ABB3C9"/>
</linearGradient>
</defs>
</svg>
