<svg width="794" height="234" viewBox="0 0 794 234" fill="none" xmlns="http://www.w3.org/2000/svg">
<rect width="794" height="234" fill="white"/>
<path d="M13.612 24.524C14.818 25.64 16.438 26.216 17.968 26.216C20.758 26.216 22.378 24.524 22.378 22.58C22.378 20.924 21.478 19.97 20.056 19.394L18.562 18.782C17.536 18.368 16.762 18.116 16.762 17.396C16.762 16.73 17.356 16.334 18.256 16.334C19.192 16.334 19.93 16.676 20.704 17.27L22.036 15.596C21.028 14.588 19.606 14.048 18.256 14.048C15.826 14.048 14.08 15.596 14.08 17.54C14.08 19.25 15.232 20.258 16.456 20.744L17.968 21.392C18.994 21.824 19.66 22.058 19.66 22.796C19.66 23.498 19.12 23.93 18.022 23.93C17.05 23.93 15.97 23.426 15.142 22.706L13.612 24.524ZM23.6148 21.536C23.6148 24.488 25.5768 26.216 28.1328 26.216C29.1948 26.216 30.3828 25.838 31.3008 25.208L30.4188 23.606C29.7708 24.002 29.1588 24.2 28.4928 24.2C27.3048 24.2 26.4048 23.606 26.1708 22.256H31.5168C31.5708 22.04 31.6248 21.608 31.6248 21.14C31.6248 18.71 30.3648 16.856 27.8268 16.856C25.6848 16.856 23.6148 18.638 23.6148 21.536ZM26.1528 20.618C26.3328 19.43 27.0528 18.872 27.8808 18.872C28.9428 18.872 29.3748 19.592 29.3748 20.618H26.1528ZM33.4532 23.228C33.4532 25.028 34.0652 26.216 35.8832 26.216C36.4772 26.216 36.9272 26.126 37.2152 26L36.8912 24.038C36.7472 24.074 36.6752 24.074 36.5672 24.074C36.3512 24.074 36.0992 23.894 36.0992 23.336V13.382H33.4532V23.228ZM38.0816 21.536C38.0816 24.488 40.0436 26.216 42.5996 26.216C43.6616 26.216 44.8496 25.838 45.7676 25.208L44.8856 23.606C44.2376 24.002 43.6256 24.2 42.9596 24.2C41.7716 24.2 40.8716 23.606 40.6376 22.256H45.9836C46.0376 22.04 46.0916 21.608 46.0916 21.14C46.0916 18.71 44.8316 16.856 42.2936 16.856C40.1516 16.856 38.0816 18.638 38.0816 21.536ZM40.6196 20.618C40.7996 19.43 41.5196 18.872 42.3476 18.872C43.4096 18.872 43.8416 19.592 43.8416 20.618H40.6196ZM47.398 21.536C47.398 24.506 49.324 26.216 51.808 26.216C52.78 26.216 53.914 25.856 54.778 25.1L53.716 23.426C53.284 23.768 52.762 24.074 52.114 24.074C50.962 24.074 50.116 23.084 50.116 21.536C50.116 19.988 50.926 18.998 52.204 18.998C52.618 18.998 53.014 19.16 53.446 19.52L54.652 17.882C54.058 17.27 53.14 16.856 52.042 16.856C49.576 16.856 47.398 18.566 47.398 21.536ZM56.6823 22.76C56.6823 24.83 57.5463 26.216 59.7603 26.216C60.6243 26.216 61.2723 26.036 61.7403 25.892L61.3263 23.966C61.0923 24.056 60.7683 24.146 60.4803 24.146C59.7783 24.146 59.3283 23.732 59.3283 22.724V19.142H61.4703V17.072H59.3283V14.696H57.1323L56.8263 17.072L55.4583 17.18V19.142H56.6823V22.76ZM64.527 15.758C65.427 15.758 66.057 15.182 66.057 14.372C66.057 13.562 65.427 13.004 64.527 13.004C63.645 13.004 62.997 13.562 62.997 14.372C62.997 15.182 63.645 15.758 64.527 15.758ZM63.213 26H65.859V17.072H63.213V26ZM68.1876 26H70.8336V19.97C71.4096 19.412 71.8236 19.106 72.4896 19.106C73.2456 19.106 73.5876 19.502 73.5876 20.798V26H76.2336V20.456C76.2336 18.224 75.4056 16.856 73.4616 16.856C72.2556 16.856 71.3556 17.486 70.5996 18.206H70.5276L70.3476 17.072H68.1876V26ZM80.1084 27.116C80.1084 26.792 80.2704 26.522 80.5944 26.234C80.8824 26.306 81.2424 26.342 81.8544 26.342H82.7724C83.6544 26.342 84.1404 26.486 84.1404 27.044C84.1404 27.656 83.2764 28.142 82.0884 28.142C80.9004 28.142 80.1084 27.782 80.1084 27.116ZM77.9304 27.53C77.9304 29.114 79.5864 29.798 81.6744 29.798C84.7344 29.798 86.6604 28.448 86.6604 26.594C86.6604 24.992 85.4544 24.326 83.2584 24.326H81.8184C80.8284 24.326 80.4684 24.11 80.4684 23.66C80.4684 23.354 80.5584 23.192 80.7924 22.994C81.1884 23.12 81.5484 23.174 81.8724 23.174C83.8344 23.174 85.3824 22.22 85.3824 20.168C85.3824 19.7 85.2564 19.268 85.0944 18.998H86.5164V17.072H83.2584C82.8624 16.928 82.3764 16.856 81.8724 16.856C79.9464 16.856 78.1824 17.936 78.1824 20.078C78.1824 21.122 78.7584 21.968 79.3884 22.4V22.472C78.8124 22.868 78.3804 23.498 78.3804 24.146C78.3804 24.884 78.7404 25.352 79.2084 25.658V25.73C78.3804 26.198 77.9304 26.792 77.9304 27.53ZM81.8724 21.572C81.1704 21.572 80.6484 21.068 80.6484 20.078C80.6484 19.124 81.1704 18.638 81.8724 18.638C82.5744 18.638 83.0964 19.142 83.0964 20.078C83.0964 21.068 82.5744 21.572 81.8724 21.572ZM91.5237 23.516C91.5237 25.028 92.5497 26.216 94.1697 26.216C95.1777 26.216 96.0237 25.748 96.7797 25.082H96.8337L97.0317 26H99.1917V20.888C99.1917 18.152 97.9317 16.856 95.6457 16.856C94.2417 16.856 92.9637 17.342 91.8297 18.026L92.7657 19.772C93.6297 19.268 94.3857 18.962 95.1417 18.962C96.0957 18.962 96.4917 19.466 96.5457 20.258C93.0177 20.618 91.5237 21.644 91.5237 23.516ZM94.0437 23.318C94.0437 22.634 94.6557 22.094 96.5457 21.842V23.408C96.0777 23.876 95.6817 24.164 95.0697 24.164C94.4397 24.164 94.0437 23.894 94.0437 23.318Z" fill="#29A1F8"/>
<path d="M104.649 24.524C105.855 25.64 107.475 26.216 109.005 26.216C111.795 26.216 113.415 24.524 113.415 22.58C113.415 20.924 112.515 19.97 111.093 19.394L109.599 18.782C108.573 18.368 107.799 18.116 107.799 17.396C107.799 16.73 108.393 16.334 109.293 16.334C110.229 16.334 110.967 16.676 111.741 17.27L113.073 15.596C112.065 14.588 110.643 14.048 109.293 14.048C106.863 14.048 105.117 15.596 105.117 17.54C105.117 19.25 106.269 20.258 107.493 20.744L109.005 21.392C110.031 21.824 110.697 22.058 110.697 22.796C110.697 23.498 110.157 23.93 109.059 23.93C108.087 23.93 107.007 23.426 106.179 22.706L104.649 24.524ZM116.488 15.758C117.388 15.758 118.018 15.182 118.018 14.372C118.018 13.562 117.388 13.004 116.488 13.004C115.606 13.004 114.958 13.562 114.958 14.372C114.958 15.182 115.606 15.758 116.488 15.758ZM115.174 26H117.82V17.072H115.174V26ZM120.149 26H122.795V19.97C123.371 19.412 123.785 19.106 124.451 19.106C125.207 19.106 125.549 19.502 125.549 20.798V26H128.195V20.456C128.195 18.224 127.367 16.856 125.423 16.856C124.217 16.856 123.317 17.486 122.561 18.206H122.489L122.309 17.072H120.149V26ZM132.069 27.116C132.069 26.792 132.231 26.522 132.555 26.234C132.843 26.306 133.203 26.342 133.815 26.342H134.733C135.615 26.342 136.101 26.486 136.101 27.044C136.101 27.656 135.237 28.142 134.049 28.142C132.861 28.142 132.069 27.782 132.069 27.116ZM129.891 27.53C129.891 29.114 131.547 29.798 133.635 29.798C136.695 29.798 138.621 28.448 138.621 26.594C138.621 24.992 137.415 24.326 135.219 24.326H133.779C132.789 24.326 132.429 24.11 132.429 23.66C132.429 23.354 132.519 23.192 132.753 22.994C133.149 23.12 133.509 23.174 133.833 23.174C135.795 23.174 137.343 22.22 137.343 20.168C137.343 19.7 137.217 19.268 137.055 18.998H138.477V17.072H135.219C134.823 16.928 134.337 16.856 133.833 16.856C131.907 16.856 130.143 17.936 130.143 20.078C130.143 21.122 130.719 21.968 131.349 22.4V22.472C130.773 22.868 130.341 23.498 130.341 24.146C130.341 24.884 130.701 25.352 131.169 25.658V25.73C130.341 26.198 129.891 26.792 129.891 27.53ZM133.833 21.572C133.131 21.572 132.609 21.068 132.609 20.078C132.609 19.124 133.131 18.638 133.833 18.638C134.535 18.638 135.057 19.142 135.057 20.078C135.057 21.068 134.535 21.572 133.833 21.572ZM140.065 23.228C140.065 25.028 140.677 26.216 142.495 26.216C143.089 26.216 143.539 26.126 143.827 26L143.503 24.038C143.359 24.074 143.287 24.074 143.179 24.074C142.963 24.074 142.711 23.894 142.711 23.336V13.382H140.065V23.228ZM144.693 21.536C144.693 24.488 146.655 26.216 149.211 26.216C150.273 26.216 151.461 25.838 152.379 25.208L151.497 23.606C150.849 24.002 150.237 24.2 149.571 24.2C148.383 24.2 147.483 23.606 147.249 22.256H152.595C152.649 22.04 152.703 21.608 152.703 21.14C152.703 18.71 151.443 16.856 148.905 16.856C146.763 16.856 144.693 18.638 144.693 21.536ZM147.231 20.618C147.411 19.43 148.131 18.872 148.959 18.872C150.021 18.872 150.453 19.592 150.453 20.618H147.231ZM158.473 26H161.137V14.264H158.473V26ZM164.032 22.76C164.032 24.83 164.896 26.216 167.11 26.216C167.974 26.216 168.622 26.036 169.09 25.892L168.676 23.966C168.442 24.056 168.118 24.146 167.83 24.146C167.128 24.146 166.678 23.732 166.678 22.724V19.142H168.82V17.072H166.678V14.696H164.482L164.176 17.072L162.808 17.18V19.142H164.032V22.76ZM169.865 21.536C169.865 24.488 171.827 26.216 174.383 26.216C175.445 26.216 176.633 25.838 177.551 25.208L176.669 23.606C176.021 24.002 175.409 24.2 174.743 24.2C173.555 24.2 172.655 23.606 172.421 22.256H177.767C177.821 22.04 177.875 21.608 177.875 21.14C177.875 18.71 176.615 16.856 174.077 16.856C171.935 16.856 169.865 18.638 169.865 21.536ZM172.403 20.618C172.583 19.43 173.303 18.872 174.131 18.872C175.193 18.872 175.625 19.592 175.625 20.618H172.403ZM179.703 26H182.349V19.97C182.907 19.394 183.429 19.106 183.861 19.106C184.617 19.106 184.959 19.502 184.959 20.798V26H187.605V19.97C188.181 19.394 188.685 19.106 189.135 19.106C189.891 19.106 190.233 19.502 190.233 20.798V26H192.879V20.456C192.879 18.224 192.015 16.856 190.089 16.856C188.901 16.856 188.073 17.54 187.281 18.35C186.831 17.396 186.075 16.856 184.815 16.856C183.645 16.856 182.853 17.486 182.115 18.224H182.043L181.863 17.072H179.703V26Z" fill="#30394B"/>
<path d="M252.368 26H259.658V23.768H255.032V14.264H252.368V26ZM262.765 15.758C263.665 15.758 264.295 15.182 264.295 14.372C264.295 13.562 263.665 13.004 262.765 13.004C261.883 13.004 261.235 13.562 261.235 14.372C261.235 15.182 261.883 15.758 262.765 15.758ZM261.451 26H264.097V17.072H261.451V26ZM265.634 24.974C266.534 25.712 267.884 26.216 269.054 26.216C271.448 26.216 272.726 24.956 272.726 23.336C272.726 21.698 271.448 21.068 270.314 20.654C269.396 20.312 268.568 20.096 268.568 19.52C268.568 19.07 268.892 18.818 269.576 18.818C270.206 18.818 270.818 19.106 271.466 19.574L272.654 17.99C271.88 17.414 270.872 16.856 269.504 16.856C267.434 16.856 266.084 17.99 266.084 19.646C266.084 21.122 267.362 21.86 268.442 22.274C269.36 22.634 270.26 22.904 270.26 23.498C270.26 23.966 269.918 24.254 269.126 24.254C268.37 24.254 267.632 23.93 266.822 23.318L265.634 24.974ZM274.766 22.76C274.766 24.83 275.63 26.216 277.844 26.216C278.708 26.216 279.356 26.036 279.824 25.892L279.41 23.966C279.176 24.056 278.852 24.146 278.564 24.146C277.862 24.146 277.412 23.732 277.412 22.724V19.142H279.554V17.072H277.412V14.696H275.216L274.91 17.072L273.542 17.18V19.142H274.766V22.76ZM284.519 21.536C284.519 24.506 286.607 26.216 288.875 26.216C291.125 26.216 293.213 24.506 293.213 21.536C293.213 18.566 291.125 16.856 288.875 16.856C286.607 16.856 284.519 18.566 284.519 21.536ZM287.237 21.536C287.237 19.988 287.777 18.998 288.875 18.998C289.955 18.998 290.513 19.988 290.513 21.536C290.513 23.084 289.955 24.074 288.875 24.074C287.777 24.074 287.237 23.084 287.237 21.536ZM300.464 13.49C300.068 13.346 299.42 13.166 298.682 13.166C296.27 13.166 295.388 14.714 295.388 16.604V17.09L294.2 17.18V19.142H295.388V26H298.034V19.142H299.636V17.072H298.034V16.532C298.034 15.614 298.412 15.254 299.06 15.254C299.348 15.254 299.672 15.326 299.978 15.434L300.464 13.49ZM304.816 23.228C304.816 25.028 305.428 26.216 307.246 26.216C307.84 26.216 308.29 26.126 308.578 26L308.254 24.038C308.11 24.074 308.038 24.074 307.93 24.074C307.714 24.074 307.462 23.894 307.462 23.336V13.382H304.816V23.228ZM311.281 15.758C312.181 15.758 312.811 15.182 312.811 14.372C312.811 13.562 312.181 13.004 311.281 13.004C310.399 13.004 309.751 13.562 309.751 14.372C309.751 15.182 310.399 15.758 311.281 15.758ZM309.967 26H312.613V17.072H309.967V26ZM314.149 24.974C315.049 25.712 316.399 26.216 317.569 26.216C319.963 26.216 321.241 24.956 321.241 23.336C321.241 21.698 319.963 21.068 318.829 20.654C317.911 20.312 317.083 20.096 317.083 19.52C317.083 19.07 317.407 18.818 318.091 18.818C318.721 18.818 319.333 19.106 319.981 19.574L321.169 17.99C320.395 17.414 319.387 16.856 318.019 16.856C315.949 16.856 314.599 17.99 314.599 19.646C314.599 21.122 315.877 21.86 316.957 22.274C317.875 22.634 318.775 22.904 318.775 23.498C318.775 23.966 318.433 24.254 317.641 24.254C316.885 24.254 316.147 23.93 315.337 23.318L314.149 24.974ZM323.282 22.76C323.282 24.83 324.146 26.216 326.36 26.216C327.224 26.216 327.872 26.036 328.34 25.892L327.926 23.966C327.692 24.056 327.368 24.146 327.08 24.146C326.378 24.146 325.928 23.732 325.928 22.724V19.142H328.07V17.072H325.928V14.696H323.732L323.426 17.072L322.058 17.18V19.142H323.282V22.76ZM329.021 24.974C329.921 25.712 331.271 26.216 332.441 26.216C334.835 26.216 336.113 24.956 336.113 23.336C336.113 21.698 334.835 21.068 333.701 20.654C332.783 20.312 331.955 20.096 331.955 19.52C331.955 19.07 332.279 18.818 332.963 18.818C333.593 18.818 334.205 19.106 334.853 19.574L336.041 17.99C335.267 17.414 334.259 16.856 332.891 16.856C330.821 16.856 329.471 17.99 329.471 19.646C329.471 21.122 330.749 21.86 331.829 22.274C332.747 22.634 333.647 22.904 333.647 23.498C333.647 23.966 333.305 24.254 332.513 24.254C331.757 24.254 331.019 23.93 330.209 23.318L329.021 24.974Z" fill="#6F778D"/>
<path d="M341.537 26H344.183V19.97C344.741 19.394 345.263 19.106 345.695 19.106C346.451 19.106 346.793 19.502 346.793 20.798V26H349.439V19.97C350.015 19.394 350.519 19.106 350.969 19.106C351.725 19.106 352.067 19.502 352.067 20.798V26H354.713V20.456C354.713 18.224 353.849 16.856 351.923 16.856C350.735 16.856 349.907 17.54 349.115 18.35C348.665 17.396 347.909 16.856 346.649 16.856C345.479 16.856 344.687 17.486 343.949 18.224H343.877L343.697 17.072H341.537V26ZM356.449 21.536C356.449 24.488 358.411 26.216 360.967 26.216C362.029 26.216 363.217 25.838 364.135 25.208L363.253 23.606C362.605 24.002 361.993 24.2 361.327 24.2C360.139 24.2 359.239 23.606 359.005 22.256H364.351C364.405 22.04 364.459 21.608 364.459 21.14C364.459 18.71 363.199 16.856 360.661 16.856C358.519 16.856 356.449 18.638 356.449 21.536ZM358.987 20.618C359.167 19.43 359.887 18.872 360.715 18.872C361.777 18.872 362.209 19.592 362.209 20.618H358.987ZM366.331 22.76C366.331 24.83 367.195 26.216 369.409 26.216C370.273 26.216 370.921 26.036 371.389 25.892L370.975 23.966C370.741 24.056 370.417 24.146 370.129 24.146C369.427 24.146 368.977 23.732 368.977 22.724V19.142H371.119V17.072H368.977V14.696H366.781L366.475 17.072L365.107 17.18V19.142H366.331V22.76ZM372.861 26H375.507V19.97C376.083 19.412 376.497 19.106 377.163 19.106C377.919 19.106 378.261 19.502 378.261 20.798V26H380.907V20.456C380.907 18.224 380.079 16.856 378.135 16.856C376.929 16.856 376.047 17.486 375.381 18.08L375.507 16.478V13.382H372.861V26ZM382.623 21.536C382.623 24.506 384.711 26.216 386.979 26.216C389.229 26.216 391.317 24.506 391.317 21.536C391.317 18.566 389.229 16.856 386.979 16.856C384.711 16.856 382.623 18.566 382.623 21.536ZM385.341 21.536C385.341 19.988 385.881 18.998 386.979 18.998C388.059 18.998 388.617 19.988 388.617 21.536C388.617 23.084 388.059 24.074 386.979 24.074C385.881 24.074 385.341 23.084 385.341 21.536ZM392.661 21.536C392.661 24.452 394.101 26.216 396.315 26.216C397.179 26.216 398.061 25.748 398.691 25.118H398.763L398.943 26H401.103V13.382H398.457V16.424L398.565 17.792C397.953 17.216 397.359 16.856 396.369 16.856C394.479 16.856 392.661 18.62 392.661 21.536ZM395.379 21.5C395.379 19.808 396.135 19.016 396.981 19.016C397.467 19.016 397.989 19.16 398.457 19.592V23.246C398.025 23.84 397.575 24.056 396.999 24.056C395.973 24.056 395.379 23.264 395.379 21.5Z" fill="#30394B"/>
<path d="M29.5 74.5H66.5V111.5H29.5V74.5Z" stroke="#30394B" stroke-width="3"/>
<path d="M11.0035 99.216C10.3435 99.216 9.74352 99.09 9.20352 98.838C8.66352 98.574 8.20152 98.19 7.81752 97.686C7.43352 97.182 7.13352 96.558 6.91752 95.814C6.71352 95.07 6.61152 94.212 6.61152 93.24C6.61152 92.268 6.71352 91.416 6.91752 90.684C7.13352 89.952 7.43352 89.34 7.81752 88.848C8.20152 88.344 8.66352 87.972 9.20352 87.732C9.74352 87.48 10.3435 87.354 11.0035 87.354C11.6635 87.354 12.2635 87.48 12.8035 87.732C13.3435 87.972 13.8055 88.344 14.1895 88.848C14.5735 89.34 14.8675 89.952 15.0715 90.684C15.2875 91.416 15.3955 92.268 15.3955 93.24C15.3955 94.212 15.2875 95.07 15.0715 95.814C14.8675 96.558 14.5735 97.182 14.1895 97.686C13.8055 98.19 13.3435 98.574 12.8035 98.838C12.2635 99.09 11.6635 99.216 11.0035 99.216ZM11.0035 97.164C11.2915 97.164 11.5555 97.098 11.7955 96.966C12.0475 96.834 12.2635 96.618 12.4435 96.318C12.6235 96.006 12.7675 95.604 12.8755 95.112C12.9835 94.608 13.0375 93.984 13.0375 93.24C13.0375 92.496 12.9835 91.878 12.8755 91.386C12.7675 90.894 12.6235 90.504 12.4435 90.216C12.2635 89.916 12.0475 89.706 11.7955 89.586C11.5555 89.466 11.2915 89.406 11.0035 89.406C10.7155 89.406 10.4455 89.466 10.1935 89.586C9.95352 89.706 9.74352 89.916 9.56352 90.216C9.38352 90.504 9.23952 90.894 9.13152 91.386C9.02352 91.878 8.96952 92.496 8.96952 93.24C8.96952 93.984 9.02352 94.608 9.13152 95.112C9.23952 95.604 9.38352 96.006 9.56352 96.318C9.74352 96.618 9.95352 96.834 10.1935 96.966C10.4455 97.098 10.7155 97.164 11.0035 97.164ZM11.0035 94.572C10.6195 94.572 10.2955 94.452 10.0315 94.212C9.77952 93.96 9.65352 93.624 9.65352 93.204C9.65352 92.784 9.77952 92.454 10.0315 92.214C10.2955 91.962 10.6195 91.836 11.0035 91.836C11.3875 91.836 11.7055 91.962 11.9575 92.214C12.2215 92.454 12.3535 92.784 12.3535 93.204C12.3535 93.624 12.2215 93.96 11.9575 94.212C11.7055 94.452 11.3875 94.572 11.0035 94.572Z" fill="#ABB3C9"/>
<path d="M48.5035 64.216C47.8435 64.216 47.2435 64.09 46.7035 63.838C46.1635 63.574 45.7015 63.19 45.3175 62.686C44.9335 62.182 44.6335 61.558 44.4175 60.814C44.2135 60.07 44.1115 59.212 44.1115 58.24C44.1115 57.268 44.2135 56.416 44.4175 55.684C44.6335 54.952 44.9335 54.34 45.3175 53.848C45.7015 53.344 46.1635 52.972 46.7035 52.732C47.2435 52.48 47.8435 52.354 48.5035 52.354C49.1635 52.354 49.7635 52.48 50.3035 52.732C50.8435 52.972 51.3055 53.344 51.6895 53.848C52.0735 54.34 52.3675 54.952 52.5715 55.684C52.7875 56.416 52.8955 57.268 52.8955 58.24C52.8955 59.212 52.7875 60.07 52.5715 60.814C52.3675 61.558 52.0735 62.182 51.6895 62.686C51.3055 63.19 50.8435 63.574 50.3035 63.838C49.7635 64.09 49.1635 64.216 48.5035 64.216ZM48.5035 62.164C48.7915 62.164 49.0555 62.098 49.2955 61.966C49.5475 61.834 49.7635 61.618 49.9435 61.318C50.1235 61.006 50.2675 60.604 50.3755 60.112C50.4835 59.608 50.5375 58.984 50.5375 58.24C50.5375 57.496 50.4835 56.878 50.3755 56.386C50.2675 55.894 50.1235 55.504 49.9435 55.216C49.7635 54.916 49.5475 54.706 49.2955 54.586C49.0555 54.466 48.7915 54.406 48.5035 54.406C48.2155 54.406 47.9455 54.466 47.6935 54.586C47.4535 54.706 47.2435 54.916 47.0635 55.216C46.8835 55.504 46.7395 55.894 46.6315 56.386C46.5235 56.878 46.4695 57.496 46.4695 58.24C46.4695 58.984 46.5235 59.608 46.6315 60.112C46.7395 60.604 46.8835 61.006 47.0635 61.318C47.2435 61.618 47.4535 61.834 47.6935 61.966C47.9455 62.098 48.2155 62.164 48.5035 62.164ZM48.5035 59.572C48.1195 59.572 47.7955 59.452 47.5315 59.212C47.2795 58.96 47.1535 58.624 47.1535 58.204C47.1535 57.784 47.2795 57.454 47.5315 57.214C47.7955 56.962 48.1195 56.836 48.5035 56.836C48.8875 56.836 49.2055 56.962 49.4575 57.214C49.7215 57.454 49.8535 57.784 49.8535 58.204C49.8535 58.624 49.7215 58.96 49.4575 59.212C49.2055 59.452 48.8875 59.572 48.5035 59.572Z" fill="#ABB3C9"/>
<path d="M66.5 74.5H103.5V111.5H66.5V74.5Z" stroke="#30394B" stroke-width="3"/>
<path d="M81.5255 64V61.858H84.6035V55.252H82.0655V53.614C82.4495 53.554 82.7915 53.494 83.0915 53.434C83.4035 53.362 83.6855 53.284 83.9375 53.2C84.1895 53.116 84.4235 53.026 84.6395 52.93C84.8675 52.822 85.0895 52.702 85.3055 52.57H87.2495V61.858H89.8415V64H81.5255Z" fill="#ABB3C9"/>
<path d="M103.5 74.5H140.5V111.5H103.5V74.5Z" stroke="#30394B" stroke-width="3"/>
<path d="M118.148 64V62.488C118.964 61.804 119.708 61.168 120.38 60.58C121.052 59.98 121.628 59.422 122.108 58.906C122.588 58.39 122.96 57.904 123.224 57.448C123.488 56.992 123.62 56.56 123.62 56.152C123.62 55.588 123.458 55.162 123.134 54.874C122.81 54.574 122.348 54.424 121.748 54.424C121.292 54.424 120.872 54.544 120.488 54.784C120.116 55.012 119.768 55.282 119.444 55.594L118.022 54.172C118.322 53.872 118.616 53.608 118.904 53.38C119.204 53.152 119.516 52.966 119.84 52.822C120.176 52.666 120.524 52.552 120.884 52.48C121.256 52.396 121.664 52.354 122.108 52.354C122.708 52.354 123.254 52.444 123.746 52.624C124.238 52.792 124.658 53.038 125.006 53.362C125.366 53.674 125.642 54.052 125.834 54.496C126.038 54.94 126.14 55.438 126.14 55.99C126.14 56.47 126.026 56.962 125.798 57.466C125.57 57.958 125.258 58.456 124.862 58.96C124.478 59.452 124.034 59.95 123.53 60.454C123.026 60.946 122.498 61.432 121.946 61.912C122.27 61.876 122.618 61.846 122.99 61.822C123.374 61.786 123.716 61.768 124.016 61.768H126.734V64H118.148Z" fill="#29A1F8"/>
<path d="M140.5 74.5H177.5V111.5H140.5V74.5Z" stroke="#30394B" stroke-width="3"/>
<path d="M159.126 64.216C158.142 64.216 157.296 64.072 156.588 63.784C155.88 63.484 155.304 63.088 154.86 62.596L156.084 60.922C156.468 61.258 156.894 61.534 157.362 61.75C157.842 61.966 158.346 62.074 158.874 62.074C159.498 62.074 160.008 61.96 160.404 61.732C160.812 61.492 161.016 61.156 161.016 60.724C161.016 60.472 160.962 60.244 160.854 60.04C160.746 59.836 160.56 59.668 160.296 59.536C160.032 59.392 159.678 59.284 159.234 59.212C158.79 59.128 158.232 59.086 157.56 59.086V57.214C158.688 57.214 159.48 57.076 159.936 56.8C160.404 56.512 160.638 56.14 160.638 55.684C160.638 55.288 160.488 54.982 160.188 54.766C159.888 54.538 159.474 54.424 158.946 54.424C158.49 54.424 158.07 54.514 157.686 54.694C157.302 54.874 156.912 55.12 156.516 55.432L155.184 53.812C155.748 53.356 156.348 53.002 156.984 52.75C157.632 52.486 158.328 52.354 159.072 52.354C159.696 52.354 160.266 52.426 160.782 52.57C161.298 52.702 161.742 52.906 162.114 53.182C162.486 53.446 162.774 53.77 162.978 54.154C163.182 54.538 163.284 54.982 163.284 55.486C163.284 56.086 163.092 56.596 162.708 57.016C162.324 57.424 161.79 57.76 161.106 58.024V58.096C161.826 58.288 162.432 58.618 162.924 59.086C163.416 59.542 163.662 60.142 163.662 60.886C163.662 61.414 163.536 61.888 163.284 62.308C163.044 62.716 162.714 63.064 162.294 63.352C161.886 63.628 161.406 63.844 160.854 64C160.302 64.144 159.726 64.216 159.126 64.216Z" fill="#ABB3C9"/>
<path d="M29.5 148.5H66.5V185.5H29.5V148.5Z" stroke="#30394B" stroke-width="3"/>
<path d="M6.64752 173V171.488C7.46352 170.804 8.20752 170.168 8.87952 169.58C9.55152 168.98 10.1275 168.422 10.6075 167.906C11.0875 167.39 11.4595 166.904 11.7235 166.448C11.9875 165.992 12.1195 165.56 12.1195 165.152C12.1195 164.588 11.9575 164.162 11.6335 163.874C11.3095 163.574 10.8475 163.424 10.2475 163.424C9.79152 163.424 9.37152 163.544 8.98752 163.784C8.61552 164.012 8.26752 164.282 7.94352 164.594L6.52152 163.172C6.82152 162.872 7.11552 162.608 7.40352 162.38C7.70352 162.152 8.01552 161.966 8.33952 161.822C8.67552 161.666 9.02352 161.552 9.38352 161.48C9.75552 161.396 10.1635 161.354 10.6075 161.354C11.2075 161.354 11.7535 161.444 12.2455 161.624C12.7375 161.792 13.1575 162.038 13.5055 162.362C13.8655 162.674 14.1415 163.052 14.3335 163.496C14.5375 163.94 14.6395 164.438 14.6395 164.99C14.6395 165.47 14.5255 165.962 14.2975 166.466C14.0695 166.958 13.7575 167.456 13.3615 167.96C12.9775 168.452 12.5335 168.95 12.0295 169.454C11.5255 169.946 10.9975 170.432 10.4455 170.912C10.7695 170.876 11.1175 170.846 11.4895 170.822C11.8735 170.786 12.2155 170.768 12.5155 170.768H15.2335V173H6.64752Z" fill="#ABB3C9"/>
<path d="M29.5 185.5H66.5V222.5H29.5V185.5Z" stroke="#30394B" stroke-width="3"/>
<path d="M10.6255 210.216C9.64152 210.216 8.79552 210.072 8.08752 209.784C7.37952 209.484 6.80352 209.088 6.35952 208.596L7.58352 206.922C7.96752 207.258 8.39352 207.534 8.86152 207.75C9.34152 207.966 9.84552 208.074 10.3735 208.074C10.9975 208.074 11.5075 207.96 11.9035 207.732C12.3115 207.492 12.5155 207.156 12.5155 206.724C12.5155 206.472 12.4615 206.244 12.3535 206.04C12.2455 205.836 12.0595 205.668 11.7955 205.536C11.5315 205.392 11.1775 205.284 10.7335 205.212C10.2895 205.128 9.73152 205.086 9.05952 205.086V203.214C10.1875 203.214 10.9795 203.076 11.4355 202.8C11.9035 202.512 12.1375 202.14 12.1375 201.684C12.1375 201.288 11.9875 200.982 11.6875 200.766C11.3875 200.538 10.9735 200.424 10.4455 200.424C9.98952 200.424 9.56952 200.514 9.18552 200.694C8.80152 200.874 8.41152 201.12 8.01552 201.432L6.68352 199.812C7.24752 199.356 7.84752 199.002 8.48352 198.75C9.13152 198.486 9.82752 198.354 10.5715 198.354C11.1955 198.354 11.7655 198.426 12.2815 198.57C12.7975 198.702 13.2415 198.906 13.6135 199.182C13.9855 199.446 14.2735 199.77 14.4775 200.154C14.6815 200.538 14.7835 200.982 14.7835 201.486C14.7835 202.086 14.5915 202.596 14.2075 203.016C13.8235 203.424 13.2895 203.76 12.6055 204.024V204.096C13.3255 204.288 13.9315 204.618 14.4235 205.086C14.9155 205.542 15.1615 206.142 15.1615 206.886C15.1615 207.414 15.0355 207.888 14.7835 208.308C14.5435 208.716 14.2135 209.064 13.7935 209.352C13.3855 209.628 12.9055 209.844 12.3535 210C11.8015 210.144 11.2255 210.216 10.6255 210.216Z" fill="#ABB3C9"/>
<rect width="40" height="40" transform="translate(65 147)" fill="white"/>
<path d="M66.5 148.5H103.5V185.5H66.5V148.5Z" stroke="#30394B" stroke-width="3"/>
<rect width="40" height="40" transform="translate(65 184)" fill="white"/>
<path d="M66.5 185.5H103.5V222.5H66.5V185.5Z" stroke="#30394B" stroke-width="3"/>
<rect width="40" height="40" transform="translate(102 147)" fill="white"/>
<path d="M103.5 148.5H140.5V185.5H103.5V148.5Z" stroke="#30394B" stroke-width="3"/>
<rect width="40" height="40" transform="translate(102 184)" fill="white"/>
<path d="M103.5 185.5H140.5V222.5H103.5V185.5Z" stroke="#30394B" stroke-width="3"/>
<rect width="40" height="40" transform="translate(139 147)" fill="white"/>
<path d="M140.5 148.5H177.5V185.5H140.5V148.5Z" stroke="#30394B" stroke-width="3"/>
<rect width="40" height="40" transform="translate(139 184)" fill="white"/>
<path d="M140.5 185.5H177.5V222.5H140.5V185.5Z" stroke="#30394B" stroke-width="3"/>
<path d="M29.5 111.5H66.5V148.5H29.5V111.5Z" stroke="#30394B" stroke-width="3"/>
<path d="M7.02552 136V133.858H10.1035V127.252H7.56552V125.614C7.94952 125.554 8.29152 125.494 8.59152 125.434C8.90352 125.362 9.18552 125.284 9.43752 125.2C9.68952 125.116 9.92352 125.026 10.1395 124.93C10.3675 124.822 10.5895 124.702 10.8055 124.57H12.7495V133.858H15.3415V136H7.02552Z" fill="#29A1F8"/>
<rect width="40" height="40" transform="translate(65 110)" fill="white"/>
<path d="M66.5 111.5H103.5V148.5H66.5V111.5Z" stroke="#30394B" stroke-width="3"/>
<rect width="40" height="40" transform="translate(139 110)" fill="white"/>
<path d="M140.5 111.5H177.5V148.5H140.5V111.5Z" stroke="#30394B" stroke-width="3"/>
<rect x="202" y="73" width="247" height="50" rx="4" fill="#FAFBFD"/>
<path d="M224.242 101.168C223.598 101.168 222.982 101.065 222.394 100.86C221.806 100.645 221.297 100.393 220.868 100.104L221.568 99.082C221.988 99.3527 222.431 99.5673 222.898 99.726C223.374 99.8753 223.892 99.95 224.452 99.95C224.928 99.95 225.278 99.8707 225.502 99.712C225.735 99.5533 225.852 99.3573 225.852 99.124C225.852 99.012 225.829 98.914 225.782 98.83C225.735 98.7367 225.642 98.648 225.502 98.564C225.362 98.48 225.166 98.4007 224.914 98.326C224.671 98.2513 224.349 98.172 223.948 98.088C223.024 97.9013 222.347 97.64 221.918 97.304C221.498 96.968 221.288 96.5387 221.288 96.016C221.288 95.4093 221.549 94.9147 222.072 94.532C222.595 94.1493 223.341 93.958 224.312 93.958C224.881 93.958 225.413 94.0513 225.908 94.238C226.403 94.4247 226.827 94.6347 227.182 94.868L226.44 95.862C226.104 95.6473 225.745 95.4793 225.362 95.358C224.979 95.2367 224.583 95.176 224.172 95.176C223.715 95.176 223.388 95.2507 223.192 95.4C222.996 95.54 222.898 95.7173 222.898 95.932C222.898 96.1747 223.038 96.3567 223.318 96.478C223.598 96.5993 224.055 96.73 224.69 96.87C225.241 96.9913 225.693 97.122 226.048 97.262C226.403 97.402 226.683 97.5607 226.888 97.738C227.103 97.906 227.252 98.0973 227.336 98.312C227.42 98.5267 227.462 98.7693 227.462 99.04C227.462 99.3387 227.392 99.6187 227.252 99.88C227.112 100.132 226.907 100.356 226.636 100.552C226.365 100.739 226.029 100.888 225.628 101C225.227 101.112 224.765 101.168 224.242 101.168ZM233.015 101.168C232.492 101.168 232.002 101.089 231.545 100.93C231.087 100.762 230.686 100.524 230.341 100.216C230.005 99.908 229.739 99.53 229.543 99.082C229.347 98.634 229.249 98.1253 229.249 97.556C229.249 96.996 229.347 96.4967 229.543 96.058C229.739 95.61 230 95.232 230.327 94.924C230.663 94.6067 231.041 94.3687 231.461 94.21C231.89 94.042 232.338 93.958 232.805 93.958C233.318 93.958 233.771 94.042 234.163 94.21C234.555 94.3687 234.886 94.5927 235.157 94.882C235.427 95.162 235.633 95.5027 235.773 95.904C235.913 96.3053 235.983 96.744 235.983 97.22C235.983 97.3787 235.973 97.5327 235.955 97.682C235.945 97.822 235.931 97.9387 235.913 98.032H230.859C230.952 98.676 231.209 99.152 231.629 99.46C232.049 99.768 232.581 99.922 233.225 99.922C233.589 99.922 233.925 99.8707 234.233 99.768C234.541 99.6653 234.849 99.5253 235.157 99.348L235.703 100.356C235.339 100.599 234.923 100.795 234.457 100.944C233.999 101.093 233.519 101.168 233.015 101.168ZM232.847 95.204C232.371 95.204 231.951 95.344 231.587 95.624C231.232 95.904 231.003 96.324 230.901 96.884H234.555C234.499 96.324 234.321 95.904 234.023 95.624C233.733 95.344 233.341 95.204 232.847 95.204ZM242.403 101.168C241.6 101.168 240.989 100.935 240.569 100.468C240.158 100.001 239.953 99.3433 239.953 98.494V92.39H237.657V91.116H241.563V98.578C241.563 99.0447 241.68 99.376 241.913 99.572C242.156 99.7587 242.45 99.852 242.795 99.852C243.159 99.852 243.551 99.7633 243.971 99.586L244.349 100.776C244.013 100.907 243.705 101.005 243.425 101.07C243.145 101.135 242.804 101.168 242.403 101.168ZM246.024 103.128V101.868H252.744V103.128H246.024ZM259.192 101.168C258.389 101.168 257.778 100.935 257.358 100.468C256.947 100.001 256.742 99.3433 256.742 98.494V92.39H254.446V91.116H258.352V98.578C258.352 99.0447 258.469 99.376 258.702 99.572C258.945 99.7587 259.239 99.852 259.584 99.852C259.948 99.852 260.34 99.7633 260.76 99.586L261.138 100.776C260.802 100.907 260.494 101.005 260.214 101.07C259.934 101.135 259.593 101.168 259.192 101.168ZM266.173 101.168C265.725 101.168 265.291 101.089 264.871 100.93C264.451 100.771 264.082 100.538 263.765 100.23C263.447 99.922 263.191 99.544 262.995 99.096C262.808 98.648 262.715 98.1393 262.715 97.57C262.715 97.0007 262.808 96.492 262.995 96.044C263.191 95.596 263.447 95.218 263.765 94.91C264.082 94.602 264.451 94.3687 264.871 94.21C265.291 94.042 265.725 93.958 266.173 93.958C266.621 93.958 267.055 94.042 267.475 94.21C267.895 94.3687 268.263 94.602 268.581 94.91C268.898 95.218 269.15 95.596 269.337 96.044C269.533 96.492 269.631 97.0007 269.631 97.57C269.631 98.1393 269.533 98.648 269.337 99.096C269.15 99.544 268.898 99.922 268.581 100.23C268.263 100.538 267.895 100.771 267.475 100.93C267.055 101.089 266.621 101.168 266.173 101.168ZM266.173 99.852C266.733 99.852 267.171 99.6467 267.489 99.236C267.806 98.816 267.965 98.2607 267.965 97.57C267.965 96.87 267.806 96.3147 267.489 95.904C267.171 95.484 266.733 95.274 266.173 95.274C265.613 95.274 265.174 95.484 264.857 95.904C264.539 96.3147 264.381 96.87 264.381 97.57C264.381 98.2607 264.539 98.816 264.857 99.236C265.174 99.6467 265.613 99.852 266.173 99.852ZM275.981 101.168C275.179 101.168 274.567 100.935 274.147 100.468C273.737 100.001 273.531 99.3433 273.531 98.494V92.39H271.235V91.116H275.141V98.578C275.141 99.0447 275.258 99.376 275.491 99.572C275.734 99.7587 276.028 99.852 276.373 99.852C276.737 99.852 277.129 99.7633 277.549 99.586L277.927 100.776C277.591 100.907 277.283 101.005 277.003 101.07C276.723 101.135 276.383 101.168 275.981 101.168ZM288.248 95.4V94.224H294.464V95.4H288.248ZM288.248 98.522V97.346H294.464V98.522H288.248ZM307.627 101.168C307.189 101.168 306.787 101.089 306.423 100.93C306.059 100.762 305.747 100.524 305.485 100.216C305.233 99.908 305.037 99.5347 304.897 99.096C304.757 98.648 304.687 98.1393 304.687 97.57C304.687 97.01 304.771 96.506 304.939 96.058C305.107 95.61 305.331 95.232 305.611 94.924C305.901 94.616 306.227 94.378 306.591 94.21C306.955 94.042 307.333 93.958 307.725 93.958C308.117 93.958 308.463 94.028 308.761 94.168C309.06 94.308 309.345 94.5087 309.615 94.77H309.657L309.573 93.608V91.116H311.197V101H309.867L309.741 100.202H309.699C309.429 100.473 309.111 100.701 308.747 100.888C308.393 101.075 308.019 101.168 307.627 101.168ZM308.019 99.838C308.589 99.838 309.107 99.5627 309.573 99.012V95.918C309.331 95.6847 309.088 95.5213 308.845 95.428C308.603 95.3347 308.355 95.288 308.103 95.288C307.861 95.288 307.632 95.3393 307.417 95.442C307.212 95.5447 307.03 95.694 306.871 95.89C306.713 96.0767 306.587 96.31 306.493 96.59C306.4 96.87 306.353 97.192 306.353 97.556C306.353 98.3027 306.498 98.872 306.787 99.264C307.077 99.6467 307.487 99.838 308.019 99.838ZM315.63 101.168C315.294 101.168 314.986 101.117 314.706 101.014C314.426 100.921 314.183 100.785 313.978 100.608C313.773 100.431 313.614 100.221 313.502 99.978C313.39 99.726 313.334 99.4507 313.334 99.152C313.334 98.7693 313.423 98.4333 313.6 98.144C313.777 97.8453 314.057 97.5933 314.44 97.388C314.823 97.1827 315.313 97.0147 315.91 96.884C316.507 96.7533 317.231 96.66 318.08 96.604C318.052 96.212 317.912 95.89 317.66 95.638C317.408 95.386 317.002 95.26 316.442 95.26C316.05 95.26 315.663 95.3347 315.28 95.484C314.907 95.624 314.543 95.792 314.188 95.988L313.6 94.91C314.02 94.6673 314.501 94.448 315.042 94.252C315.583 94.056 316.148 93.958 316.736 93.958C317.697 93.958 318.43 94.2147 318.934 94.728C319.438 95.232 319.69 95.9647 319.69 96.926V101H318.374L318.248 100.146H318.206C317.842 100.426 317.436 100.669 316.988 100.874C316.549 101.07 316.097 101.168 315.63 101.168ZM316.12 99.908C316.465 99.908 316.797 99.8333 317.114 99.684C317.441 99.5253 317.763 99.32 318.08 99.068V97.612C317.464 97.6587 316.951 97.724 316.54 97.808C316.129 97.8827 315.803 97.9807 315.56 98.102C315.317 98.2233 315.145 98.3633 315.042 98.522C314.939 98.6713 314.888 98.8393 314.888 99.026C314.888 99.334 315.005 99.558 315.238 99.698C315.481 99.838 315.775 99.908 316.12 99.908ZM326.208 101.168C325.686 101.168 325.242 101.098 324.878 100.958C324.524 100.818 324.234 100.622 324.01 100.37C323.796 100.109 323.637 99.796 323.534 99.432C323.441 99.068 323.394 98.6667 323.394 98.228V95.4H321.56V94.196L323.464 94.126L323.674 91.97H325.004V94.126H328.14V95.4H325.004V98.228C325.004 98.7973 325.121 99.2173 325.354 99.488C325.597 99.7493 326.012 99.88 326.6 99.88C326.89 99.88 327.156 99.8567 327.398 99.81C327.641 99.754 327.874 99.684 328.098 99.6L328.406 100.776C328.098 100.879 327.767 100.967 327.412 101.042C327.058 101.126 326.656 101.168 326.208 101.168ZM332.419 101.168C332.083 101.168 331.775 101.117 331.495 101.014C331.215 100.921 330.972 100.785 330.767 100.608C330.562 100.431 330.403 100.221 330.291 99.978C330.179 99.726 330.123 99.4507 330.123 99.152C330.123 98.7693 330.212 98.4333 330.389 98.144C330.566 97.8453 330.846 97.5933 331.229 97.388C331.612 97.1827 332.102 97.0147 332.699 96.884C333.296 96.7533 334.02 96.66 334.869 96.604C334.841 96.212 334.701 95.89 334.449 95.638C334.197 95.386 333.791 95.26 333.231 95.26C332.839 95.26 332.452 95.3347 332.069 95.484C331.696 95.624 331.332 95.792 330.977 95.988L330.389 94.91C330.809 94.6673 331.29 94.448 331.831 94.252C332.372 94.056 332.937 93.958 333.525 93.958C334.486 93.958 335.219 94.2147 335.723 94.728C336.227 95.232 336.479 95.9647 336.479 96.926V101H335.163L335.037 100.146H334.995C334.631 100.426 334.225 100.669 333.777 100.874C333.338 101.07 332.886 101.168 332.419 101.168ZM332.909 99.908C333.254 99.908 333.586 99.8333 333.903 99.684C334.23 99.5253 334.552 99.32 334.869 99.068V97.612C334.253 97.6587 333.74 97.724 333.329 97.808C332.918 97.8827 332.592 97.9807 332.349 98.102C332.106 98.2233 331.934 98.3633 331.831 98.522C331.728 98.6713 331.677 98.8393 331.677 99.026C331.677 99.334 331.794 99.558 332.027 99.698C332.27 99.838 332.564 99.908 332.909 99.908ZM338.363 103.128V101.868H345.083V103.128H338.363ZM351.532 101.168C350.729 101.168 350.118 100.935 349.698 100.468C349.287 100.001 349.082 99.3433 349.082 98.494V92.39H346.786V91.116H350.692V98.578C350.692 99.0447 350.809 99.376 351.042 99.572C351.285 99.7587 351.579 99.852 351.924 99.852C352.288 99.852 352.68 99.7633 353.1 99.586L353.478 100.776C353.142 100.907 352.834 101.005 352.554 101.07C352.274 101.135 351.933 101.168 351.532 101.168ZM358.513 101.168C358.065 101.168 357.631 101.089 357.211 100.93C356.791 100.771 356.422 100.538 356.105 100.23C355.787 99.922 355.531 99.544 355.335 99.096C355.148 98.648 355.055 98.1393 355.055 97.57C355.055 97.0007 355.148 96.492 355.335 96.044C355.531 95.596 355.787 95.218 356.105 94.91C356.422 94.602 356.791 94.3687 357.211 94.21C357.631 94.042 358.065 93.958 358.513 93.958C358.961 93.958 359.395 94.042 359.815 94.21C360.235 94.3687 360.603 94.602 360.921 94.91C361.238 95.218 361.49 95.596 361.677 96.044C361.873 96.492 361.971 97.0007 361.971 97.57C361.971 98.1393 361.873 98.648 361.677 99.096C361.49 99.544 361.238 99.922 360.921 100.23C360.603 100.538 360.235 100.771 359.815 100.93C359.395 101.089 358.961 101.168 358.513 101.168ZM358.513 99.852C359.073 99.852 359.511 99.6467 359.829 99.236C360.146 98.816 360.305 98.2607 360.305 97.57C360.305 96.87 360.146 96.3147 359.829 95.904C359.511 95.484 359.073 95.274 358.513 95.274C357.953 95.274 357.514 95.484 357.197 95.904C356.879 96.3147 356.721 96.87 356.721 97.57C356.721 98.2607 356.879 98.816 357.197 99.236C357.514 99.6467 357.953 99.852 358.513 99.852ZM368.321 101.168C367.518 101.168 366.907 100.935 366.487 100.468C366.076 100.001 365.871 99.3433 365.871 98.494V92.39H363.575V91.116H367.481V98.578C367.481 99.0447 367.598 99.376 367.831 99.572C368.074 99.7587 368.368 99.852 368.713 99.852C369.077 99.852 369.469 99.7633 369.889 99.586L370.267 100.776C369.931 100.907 369.623 101.005 369.343 101.07C369.063 101.135 368.722 101.168 368.321 101.168ZM374.07 103.128V91.088H378.088V91.97H375.33V102.246H378.088V103.128H374.07ZM389.305 103.128V102.246H392.063V91.97H389.305V91.088H393.323V103.128H389.305ZM399.253 103.128V91.088H403.271V91.97H400.513V102.246H403.271V103.128H399.253ZM414.488 103.128V102.246H417.246V91.97H414.488V91.088H418.506V103.128H414.488Z" fill="#30394B"/>
<path d="M380.602 101V99.334H382.996V94.196H381.022V92.922C381.321 92.8753 381.587 92.8287 381.82 92.782C382.063 92.726 382.282 92.6653 382.478 92.6C382.674 92.5347 382.856 92.4647 383.024 92.39C383.201 92.306 383.374 92.2127 383.542 92.11H385.054V99.334H387.07V101H380.602ZM405.492 101V99.824C406.126 99.292 406.705 98.7973 407.228 98.34C407.75 97.8733 408.198 97.4393 408.572 97.038C408.945 96.6367 409.234 96.2587 409.44 95.904C409.645 95.5493 409.748 95.2133 409.748 94.896C409.748 94.4573 409.622 94.126 409.37 93.902C409.118 93.6687 408.758 93.552 408.292 93.552C407.937 93.552 407.61 93.6453 407.312 93.832C407.022 94.0093 406.752 94.2193 406.5 94.462L405.394 93.356C405.627 93.1227 405.856 92.9173 406.08 92.74C406.313 92.5627 406.556 92.418 406.808 92.306C407.069 92.1847 407.34 92.096 407.62 92.04C407.909 91.9747 408.226 91.942 408.572 91.942C409.038 91.942 409.463 92.012 409.846 92.152C410.228 92.2827 410.555 92.474 410.826 92.726C411.106 92.9687 411.32 93.2627 411.47 93.608C411.628 93.9533 411.708 94.3407 411.708 94.77C411.708 95.1433 411.619 95.526 411.442 95.918C411.264 96.3007 411.022 96.688 410.714 97.08C410.415 97.4627 410.07 97.85 409.678 98.242C409.286 98.6247 408.875 99.0027 408.446 99.376C408.698 99.348 408.968 99.3247 409.258 99.306C409.556 99.278 409.822 99.264 410.056 99.264H412.17V101H405.492Z" fill="#29A1F8"/>
<rect x="472" y="73" width="303" height="50" rx="4" fill="#EFF1F6"/>
<path d="M539.599 101.168C538.955 101.168 538.339 101.065 537.751 100.86C537.163 100.645 536.655 100.393 536.225 100.104L536.925 99.082C537.345 99.3527 537.789 99.5673 538.255 99.726C538.731 99.8753 539.249 99.95 539.809 99.95C540.285 99.95 540.635 99.8707 540.859 99.712C541.093 99.5533 541.209 99.3573 541.209 99.124C541.209 99.012 541.186 98.914 541.139 98.83C541.093 98.7367 540.999 98.648 540.859 98.564C540.719 98.48 540.523 98.4007 540.271 98.326C540.029 98.2513 539.707 98.172 539.305 98.088C538.381 97.9013 537.705 97.64 537.275 97.304C536.855 96.968 536.645 96.5387 536.645 96.016C536.645 95.4093 536.907 94.9147 537.429 94.532C537.952 94.1493 538.699 93.958 539.669 93.958C540.239 93.958 540.771 94.0513 541.265 94.238C541.76 94.4247 542.185 94.6347 542.539 94.868L541.797 95.862C541.461 95.6473 541.102 95.4793 540.719 95.358C540.337 95.2367 539.94 95.176 539.529 95.176C539.072 95.176 538.745 95.2507 538.549 95.4C538.353 95.54 538.255 95.7173 538.255 95.932C538.255 96.1747 538.395 96.3567 538.675 96.478C538.955 96.5993 539.413 96.73 540.047 96.87C540.598 96.9913 541.051 97.122 541.405 97.262C541.76 97.402 542.04 97.5607 542.245 97.738C542.46 97.906 542.609 98.0973 542.693 98.312C542.777 98.5267 542.819 98.7693 542.819 99.04C542.819 99.3387 542.749 99.6187 542.609 99.88C542.469 100.132 542.264 100.356 541.993 100.552C541.723 100.739 541.387 100.888 540.985 101C540.584 101.112 540.122 101.168 539.599 101.168ZM548.372 101.168C547.849 101.168 547.359 101.089 546.902 100.93C546.445 100.762 546.043 100.524 545.698 100.216C545.362 99.908 545.096 99.53 544.9 99.082C544.704 98.634 544.606 98.1253 544.606 97.556C544.606 96.996 544.704 96.4967 544.9 96.058C545.096 95.61 545.357 95.232 545.684 94.924C546.02 94.6067 546.398 94.3687 546.818 94.21C547.247 94.042 547.695 93.958 548.162 93.958C548.675 93.958 549.128 94.042 549.52 94.21C549.912 94.3687 550.243 94.5927 550.514 94.882C550.785 95.162 550.99 95.5027 551.13 95.904C551.27 96.3053 551.34 96.744 551.34 97.22C551.34 97.3787 551.331 97.5327 551.312 97.682C551.303 97.822 551.289 97.9387 551.27 98.032H546.216C546.309 98.676 546.566 99.152 546.986 99.46C547.406 99.768 547.938 99.922 548.582 99.922C548.946 99.922 549.282 99.8707 549.59 99.768C549.898 99.6653 550.206 99.5253 550.514 99.348L551.06 100.356C550.696 100.599 550.281 100.795 549.814 100.944C549.357 101.093 548.876 101.168 548.372 101.168ZM548.204 95.204C547.728 95.204 547.308 95.344 546.944 95.624C546.589 95.904 546.361 96.324 546.258 96.884H549.912C549.856 96.324 549.679 95.904 549.38 95.624C549.091 95.344 548.699 95.204 548.204 95.204ZM557.76 101.168C556.958 101.168 556.346 100.935 555.926 100.468C555.516 100.001 555.31 99.3433 555.31 98.494V92.39H553.014V91.116H556.92V98.578C556.92 99.0447 557.037 99.376 557.27 99.572C557.513 99.7587 557.807 99.852 558.152 99.852C558.516 99.852 558.908 99.7633 559.328 99.586L559.706 100.776C559.37 100.907 559.062 101.005 558.782 101.07C558.502 101.135 558.162 101.168 557.76 101.168ZM561.381 103.128V101.868H568.101V103.128H561.381ZM570.084 101V94.126H571.414L571.54 95.162H571.596C571.922 94.8353 572.282 94.5553 572.674 94.322C573.075 94.0793 573.542 93.958 574.074 93.958C574.867 93.958 575.45 94.2007 575.824 94.686C576.197 95.162 576.384 95.848 576.384 96.744V101H574.76V96.954C574.76 96.394 574.662 95.988 574.466 95.736C574.279 95.4747 573.948 95.344 573.472 95.344C573.136 95.344 572.837 95.4233 572.576 95.582C572.314 95.7407 572.025 95.9833 571.708 96.31V101H570.084ZM578.478 103.716V94.126H579.808L579.934 94.91H579.976C580.275 94.6393 580.615 94.4153 580.998 94.238C581.39 94.0513 581.782 93.958 582.174 93.958C582.622 93.958 583.019 94.042 583.364 94.21C583.719 94.3687 584.013 94.602 584.246 94.91C584.489 95.218 584.671 95.5867 584.792 96.016C584.923 96.4453 584.988 96.926 584.988 97.458C584.988 98.046 584.904 98.5733 584.736 99.04C584.568 99.4973 584.339 99.8847 584.05 100.202C583.77 100.51 583.443 100.748 583.07 100.916C582.706 101.084 582.328 101.168 581.936 101.168C581.619 101.168 581.292 101.098 580.956 100.958C580.629 100.818 580.331 100.617 580.06 100.356H580.018L580.102 101.56V103.716H578.478ZM581.6 99.838C582.095 99.838 582.505 99.642 582.832 99.25C583.159 98.8487 583.322 98.256 583.322 97.472C583.322 96.7813 583.196 96.2447 582.944 95.862C582.692 95.4793 582.286 95.288 581.726 95.288C581.465 95.288 581.199 95.3533 580.928 95.484C580.657 95.6147 580.382 95.8247 580.102 96.114V99.208C580.354 99.4413 580.611 99.6047 580.872 99.698C581.143 99.7913 581.385 99.838 581.6 99.838ZM595.211 95.4V94.224H601.427V95.4H595.211ZM595.211 98.522V97.346H601.427V98.522H595.211ZM614.59 101.168C614.152 101.168 613.75 101.089 613.386 100.93C613.022 100.762 612.71 100.524 612.448 100.216C612.196 99.908 612 99.5347 611.86 99.096C611.72 98.648 611.65 98.1393 611.65 97.57C611.65 97.01 611.734 96.506 611.902 96.058C612.07 95.61 612.294 95.232 612.574 94.924C612.864 94.616 613.19 94.378 613.554 94.21C613.918 94.042 614.296 93.958 614.688 93.958C615.08 93.958 615.426 94.028 615.724 94.168C616.023 94.308 616.308 94.5087 616.578 94.77H616.62L616.536 93.608V91.116H618.16V101H616.83L616.704 100.202H616.662C616.392 100.473 616.074 100.701 615.71 100.888C615.356 101.075 614.982 101.168 614.59 101.168ZM614.982 99.838C615.552 99.838 616.07 99.5627 616.536 99.012V95.918C616.294 95.6847 616.051 95.5213 615.808 95.428C615.566 95.3347 615.318 95.288 615.066 95.288C614.824 95.288 614.595 95.3393 614.38 95.442C614.175 95.5447 613.993 95.694 613.834 95.89C613.676 96.0767 613.55 96.31 613.456 96.59C613.363 96.87 613.316 97.192 613.316 97.556C613.316 98.3027 613.461 98.872 613.75 99.264C614.04 99.6467 614.45 99.838 614.982 99.838ZM622.593 101.168C622.257 101.168 621.949 101.117 621.669 101.014C621.389 100.921 621.146 100.785 620.941 100.608C620.735 100.431 620.577 100.221 620.465 99.978C620.353 99.726 620.297 99.4507 620.297 99.152C620.297 98.7693 620.385 98.4333 620.563 98.144C620.74 97.8453 621.02 97.5933 621.403 97.388C621.785 97.1827 622.275 97.0147 622.873 96.884C623.47 96.7533 624.193 96.66 625.043 96.604C625.015 96.212 624.875 95.89 624.623 95.638C624.371 95.386 623.965 95.26 623.405 95.26C623.013 95.26 622.625 95.3347 622.243 95.484C621.869 95.624 621.505 95.792 621.151 95.988L620.563 94.91C620.983 94.6673 621.463 94.448 622.005 94.252C622.546 94.056 623.111 93.958 623.699 93.958C624.66 93.958 625.393 94.2147 625.897 94.728C626.401 95.232 626.653 95.9647 626.653 96.926V101H625.337L625.211 100.146H625.169C624.805 100.426 624.399 100.669 623.951 100.874C623.512 101.07 623.059 101.168 622.593 101.168ZM623.083 99.908C623.428 99.908 623.759 99.8333 624.077 99.684C624.403 99.5253 624.725 99.32 625.043 99.068V97.612C624.427 97.6587 623.913 97.724 623.503 97.808C623.092 97.8827 622.765 97.9807 622.523 98.102C622.28 98.2233 622.107 98.3633 622.005 98.522C621.902 98.6713 621.851 98.8393 621.851 99.026C621.851 99.334 621.967 99.558 622.201 99.698C622.443 99.838 622.737 99.908 623.083 99.908ZM633.171 101.168C632.649 101.168 632.205 101.098 631.841 100.958C631.487 100.818 631.197 100.622 630.973 100.37C630.759 100.109 630.6 99.796 630.497 99.432C630.404 99.068 630.357 98.6667 630.357 98.228V95.4H628.523V94.196L630.427 94.126L630.637 91.97H631.967V94.126H635.103V95.4H631.967V98.228C631.967 98.7973 632.084 99.2173 632.317 99.488C632.56 99.7493 632.975 99.88 633.563 99.88C633.853 99.88 634.119 99.8567 634.361 99.81C634.604 99.754 634.837 99.684 635.061 99.6L635.369 100.776C635.061 100.879 634.73 100.967 634.375 101.042C634.021 101.126 633.619 101.168 633.171 101.168ZM639.382 101.168C639.046 101.168 638.738 101.117 638.458 101.014C638.178 100.921 637.935 100.785 637.73 100.608C637.524 100.431 637.366 100.221 637.254 99.978C637.142 99.726 637.086 99.4507 637.086 99.152C637.086 98.7693 637.174 98.4333 637.352 98.144C637.529 97.8453 637.809 97.5933 638.192 97.388C638.574 97.1827 639.064 97.0147 639.662 96.884C640.259 96.7533 640.982 96.66 641.832 96.604C641.804 96.212 641.664 95.89 641.412 95.638C641.16 95.386 640.754 95.26 640.194 95.26C639.802 95.26 639.414 95.3347 639.032 95.484C638.658 95.624 638.294 95.792 637.94 95.988L637.352 94.91C637.772 94.6673 638.252 94.448 638.794 94.252C639.335 94.056 639.9 93.958 640.488 93.958C641.449 93.958 642.182 94.2147 642.686 94.728C643.19 95.232 643.442 95.9647 643.442 96.926V101H642.126L642 100.146H641.958C641.594 100.426 641.188 100.669 640.74 100.874C640.301 101.07 639.848 101.168 639.382 101.168ZM639.872 99.908C640.217 99.908 640.548 99.8333 640.866 99.684C641.192 99.5253 641.514 99.32 641.832 99.068V97.612C641.216 97.6587 640.702 97.724 640.292 97.808C639.881 97.8827 639.554 97.9807 639.312 98.102C639.069 98.2233 638.896 98.3633 638.794 98.522C638.691 98.6713 638.64 98.8393 638.64 99.026C638.64 99.334 638.756 99.558 638.99 99.698C639.232 99.838 639.526 99.908 639.872 99.908ZM645.326 103.128V101.868H652.046V103.128H645.326ZM654.029 101V94.126H655.359L655.485 95.162H655.541C655.868 94.8353 656.227 94.5553 656.619 94.322C657.02 94.0793 657.487 93.958 658.019 93.958C658.812 93.958 659.396 94.2007 659.769 94.686C660.142 95.162 660.329 95.848 660.329 96.744V101H658.705V96.954C658.705 96.394 658.607 95.988 658.411 95.736C658.224 95.4747 657.893 95.344 657.417 95.344C657.081 95.344 656.782 95.4233 656.521 95.582C656.26 95.7407 655.97 95.9833 655.653 96.31V101H654.029ZM662.423 103.716V94.126H663.753L663.879 94.91H663.921C664.22 94.6393 664.561 94.4153 664.943 94.238C665.335 94.0513 665.727 93.958 666.119 93.958C666.567 93.958 666.964 94.042 667.309 94.21C667.664 94.3687 667.958 94.602 668.191 94.91C668.434 95.218 668.616 95.5867 668.737 96.016C668.868 96.4453 668.933 96.926 668.933 97.458C668.933 98.046 668.849 98.5733 668.681 99.04C668.513 99.4973 668.285 99.8847 667.995 100.202C667.715 100.51 667.389 100.748 667.015 100.916C666.651 101.084 666.273 101.168 665.881 101.168C665.564 101.168 665.237 101.098 664.901 100.958C664.575 100.818 664.276 100.617 664.005 100.356H663.963L664.047 101.56V103.716H662.423ZM665.545 99.838C666.04 99.838 666.451 99.642 666.777 99.25C667.104 98.8487 667.267 98.256 667.267 97.472C667.267 96.7813 667.141 96.2447 666.889 95.862C666.637 95.4793 666.231 95.288 665.671 95.288C665.41 95.288 665.144 95.3533 664.873 95.484C664.603 95.6147 664.327 95.8247 664.047 96.114V99.208C664.299 99.4413 664.556 99.6047 664.817 99.698C665.088 99.7913 665.331 99.838 665.545 99.838ZM672.638 103.128V91.088H676.656V91.97H673.898V102.246H676.656V103.128H672.638ZM689.525 104.038L689.007 102.834C689.632 102.619 690.094 102.339 690.393 101.994C690.701 101.658 690.846 101.275 690.827 100.846C690.79 100.855 690.738 100.86 690.673 100.86C690.477 100.86 690.286 100.832 690.099 100.776C689.922 100.711 689.763 100.617 689.623 100.496C689.483 100.375 689.371 100.225 689.287 100.048C689.203 99.8707 689.161 99.6653 689.161 99.432C689.161 98.9933 689.31 98.6433 689.609 98.382C689.917 98.1207 690.29 97.99 690.729 97.99C691.308 97.99 691.742 98.2047 692.031 98.634C692.32 99.054 692.465 99.642 692.465 100.398C692.465 101.294 692.218 102.05 691.723 102.666C691.228 103.282 690.496 103.739 689.525 104.038ZM704.662 103.128V102.246H707.42V91.97H704.662V91.088H708.68V103.128H704.662Z" fill="#30394B"/>
<path d="M679.17 101V99.334H681.564V94.196H679.59V92.922C679.889 92.8753 680.155 92.8287 680.388 92.782C680.631 92.726 680.85 92.6653 681.046 92.6C681.242 92.5347 681.424 92.4647 681.592 92.39C681.77 92.306 681.942 92.2127 682.11 92.11H683.622V99.334H685.638V101H679.17ZM695.666 101V99.824C696.3 99.292 696.879 98.7973 697.402 98.34C697.924 97.8733 698.372 97.4393 698.746 97.038C699.119 96.6367 699.408 96.2587 699.614 95.904C699.819 95.5493 699.922 95.2133 699.922 94.896C699.922 94.4573 699.796 94.126 699.544 93.902C699.292 93.6687 698.932 93.552 698.466 93.552C698.111 93.552 697.784 93.6453 697.486 93.832C697.196 94.0093 696.926 94.2193 696.674 94.462L695.568 93.356C695.801 93.1227 696.03 92.9173 696.254 92.74C696.487 92.5627 696.73 92.418 696.982 92.306C697.243 92.1847 697.514 92.096 697.794 92.04C698.083 91.9747 698.4 91.942 698.746 91.942C699.212 91.942 699.637 92.012 700.02 92.152C700.402 92.2827 700.729 92.474 701 92.726C701.28 92.9687 701.494 93.2627 701.644 93.608C701.802 93.9533 701.882 94.3407 701.882 94.77C701.882 95.1433 701.793 95.526 701.616 95.918C701.438 96.3007 701.196 96.688 700.888 97.08C700.589 97.4627 700.244 97.85 699.852 98.242C699.46 98.6247 699.049 99.0027 698.62 99.376C698.872 99.348 699.142 99.3247 699.432 99.306C699.73 99.278 699.996 99.264 700.23 99.264H702.344V101H695.666Z" fill="#29A1F8"/>
<path d="M102 110H142V150H102V110Z" fill="#29A1F8" stroke="#29A1F8"/>
<rect x="472" y="147" width="303" height="28" rx="14" fill="#EFF1F6"/>
<rect x="472" y="179" width="245" height="28" rx="14" fill="#EFF1F6"/>
<path d="M501.658 159.45C501.658 162.488 503.492 164.168 505.816 164.168C506.978 164.168 507.93 163.692 508.672 162.838L507.776 161.844C507.258 162.418 506.656 162.754 505.844 162.754C504.318 162.754 503.324 161.494 503.324 159.408C503.324 157.35 504.402 156.09 505.9 156.09C506.6 156.09 507.118 156.384 507.594 156.846L508.49 155.838C507.916 155.222 507.006 154.676 505.886 154.676C503.534 154.676 501.658 156.454 501.658 159.45ZM509.599 160.57C509.599 162.852 511.153 164.168 512.861 164.168C514.583 164.168 516.137 162.852 516.137 160.57C516.137 158.274 514.583 156.958 512.861 156.958C511.153 156.958 509.599 158.274 509.599 160.57ZM511.251 160.57C511.251 159.184 511.853 158.274 512.861 158.274C513.869 158.274 514.485 159.184 514.485 160.57C514.485 161.942 513.869 162.852 512.861 162.852C511.853 162.852 511.251 161.942 511.251 160.57ZM517.731 164H519.341V159.198C519.873 158.624 520.363 158.344 520.783 158.344C521.511 158.344 521.847 158.764 521.847 159.898V164H523.457V159.198C523.989 158.624 524.465 158.344 524.899 158.344C525.613 158.344 525.949 158.764 525.949 159.898V164H527.573V159.688C527.573 157.952 526.901 156.958 525.445 156.958C524.577 156.958 523.891 157.49 523.233 158.19C522.911 157.42 522.337 156.958 521.329 156.958C520.475 156.958 519.803 157.448 519.229 158.064H519.173L519.061 157.126H517.731V164ZM529.53 164H531.14V159.198C531.672 158.624 532.162 158.344 532.582 158.344C533.31 158.344 533.646 158.764 533.646 159.898V164H535.256V159.198C535.788 158.624 536.264 158.344 536.698 158.344C537.412 158.344 537.748 158.764 537.748 159.898V164H539.372V159.688C539.372 157.952 538.7 156.958 537.244 156.958C536.376 156.958 535.69 157.49 535.032 158.19C534.71 157.42 534.136 156.958 533.128 156.958C532.274 156.958 531.602 157.448 531.028 158.064H530.972L530.86 157.126H529.53V164ZM541.035 162.152C541.035 163.356 541.875 164.168 543.079 164.168C543.891 164.168 544.591 163.762 545.207 163.244H545.249L545.375 164H546.691V159.926C546.691 158.008 545.851 156.958 544.129 156.958C543.037 156.958 542.071 157.378 541.315 157.854L541.903 158.932C542.505 158.568 543.149 158.26 543.835 158.26C544.759 158.26 545.067 158.876 545.081 159.604C542.267 159.912 541.035 160.682 541.035 162.152ZM542.603 162.026C542.603 161.34 543.219 160.85 545.081 160.612V162.152C544.577 162.628 544.143 162.908 543.583 162.908C543.009 162.908 542.603 162.642 542.603 162.026ZM548.223 161.06H551.555V159.884H548.223V161.06ZM552.482 163.216C553.154 163.762 554.148 164.168 555.086 164.168C556.822 164.168 557.76 163.216 557.76 162.04C557.76 160.752 556.724 160.304 555.786 159.954C555.044 159.688 554.358 159.464 554.358 158.932C554.358 158.498 554.68 158.176 555.366 158.176C555.912 158.176 556.402 158.414 556.878 158.764L557.62 157.784C557.06 157.35 556.29 156.958 555.338 156.958C553.798 156.958 552.832 157.812 552.832 159.016C552.832 160.164 553.854 160.682 554.764 161.018C555.492 161.298 556.234 161.55 556.234 162.124C556.234 162.6 555.884 162.95 555.142 162.95C554.442 162.95 553.854 162.656 553.238 162.18L552.482 163.216ZM558.75 160.57C558.75 162.838 560.234 164.168 562.138 164.168C563.006 164.168 563.832 163.86 564.49 163.426L563.944 162.418C563.44 162.74 562.936 162.922 562.348 162.922C561.242 162.922 560.458 162.222 560.318 160.976H564.686C564.728 160.808 564.756 160.528 564.756 160.22C564.756 158.302 563.776 156.958 561.914 156.958C560.304 156.958 558.75 158.33 558.75 160.57ZM560.304 159.954C560.444 158.806 561.144 158.204 561.956 158.204C562.894 158.204 563.356 158.862 563.356 159.954H560.304ZM567.861 163.412C568.421 163.888 569.023 164.168 569.625 164.168C571.151 164.168 572.565 162.81 572.565 160.458C572.565 158.33 571.571 156.958 569.863 156.958C569.107 156.958 568.365 157.364 567.791 157.854H567.735L567.623 157.126H566.293V166.716H567.903V164.56L567.861 163.412ZM567.903 162.264V159.058C568.435 158.54 568.911 158.288 569.415 158.288C570.451 158.288 570.899 159.1 570.899 160.472C570.899 162.026 570.199 162.838 569.289 162.838C568.883 162.838 568.407 162.684 567.903 162.264ZM573.738 162.152C573.738 163.356 574.578 164.168 575.782 164.168C576.594 164.168 577.294 163.762 577.91 163.244H577.952L578.078 164H579.394V159.926C579.394 158.008 578.554 156.958 576.832 156.958C575.74 156.958 574.774 157.378 574.018 157.854L574.606 158.932C575.208 158.568 575.852 158.26 576.538 158.26C577.462 158.26 577.77 158.876 577.784 159.604C574.97 159.912 573.738 160.682 573.738 162.152ZM575.306 162.026C575.306 161.34 575.922 160.85 577.784 160.612V162.152C577.28 162.628 576.846 162.908 576.286 162.908C575.712 162.908 575.306 162.642 575.306 162.026ZM581.36 164H582.97V159.8C583.39 158.764 584.048 158.386 584.594 158.386C584.888 158.386 585.07 158.428 585.308 158.498L585.588 157.098C585.378 157 585.154 156.958 584.804 156.958C584.076 156.958 583.348 157.448 582.858 158.344H582.802L582.69 157.126H581.36V164ZM585.906 162.152C585.906 163.356 586.746 164.168 587.95 164.168C588.762 164.168 589.462 163.762 590.078 163.244H590.12L590.246 164H591.562V159.926C591.562 158.008 590.722 156.958 589 156.958C587.908 156.958 586.942 157.378 586.186 157.854L586.774 158.932C587.376 158.568 588.02 158.26 588.706 158.26C589.63 158.26 589.938 158.876 589.952 159.604C587.138 159.912 585.906 160.682 585.906 162.152ZM587.474 162.026C587.474 161.34 588.09 160.85 589.952 160.612V162.152C589.448 162.628 589.014 162.908 588.454 162.908C587.88 162.908 587.474 162.642 587.474 162.026ZM593.766 161.676C593.766 163.16 594.354 164.168 595.95 164.168C596.496 164.168 596.972 164.042 597.35 163.916L597.07 162.726C596.874 162.81 596.594 162.88 596.356 162.88C595.698 162.88 595.39 162.488 595.39 161.676V158.4H597.14V157.126H595.39V155.25H594.046L593.85 157.126L592.786 157.196V158.4H593.766V161.676ZM598.002 160.57C598.002 162.838 599.486 164.168 601.39 164.168C602.258 164.168 603.084 163.86 603.742 163.426L603.196 162.418C602.692 162.74 602.188 162.922 601.6 162.922C600.494 162.922 599.71 162.222 599.57 160.976H603.938C603.98 160.808 604.008 160.528 604.008 160.22C604.008 158.302 603.028 156.958 601.166 156.958C599.556 156.958 598.002 158.33 598.002 160.57ZM599.556 159.954C599.696 158.806 600.396 158.204 601.208 158.204C602.146 158.204 602.608 158.862 602.608 159.954H599.556ZM605.125 160.57C605.125 162.838 606.231 164.168 607.953 164.168C608.695 164.168 609.395 163.762 609.899 163.258H609.955L610.067 164H611.397V154.116H609.787V156.608L609.843 157.714C609.311 157.252 608.821 156.958 608.037 156.958C606.539 156.958 605.125 158.33 605.125 160.57ZM606.791 160.556C606.791 159.114 607.505 158.288 608.387 158.288C608.849 158.288 609.311 158.442 609.787 158.862V162.068C609.325 162.6 608.877 162.838 608.345 162.838C607.351 162.838 606.791 162.04 606.791 160.556ZM616.557 166.128H619.301V165.246H617.775V154.984H619.301V154.088H616.557V166.128ZM644.004 166.548C645.39 166.072 646.188 165.008 646.188 163.636C646.188 162.6 645.74 161.984 644.984 161.984C644.396 161.984 643.906 162.376 643.906 162.978C643.906 163.608 644.396 163.972 644.942 163.972C644.984 163.972 645.026 163.972 645.068 163.972C645.068 164.686 644.55 165.316 643.654 165.666L644.004 166.548ZM695.276 165.246V166.128H698.02V154.088H695.276V154.984H696.802V165.246H695.276ZM703.176 162.236C703.176 163.426 703.596 164.168 704.744 164.168C705.122 164.168 705.402 164.112 705.598 164.028L705.388 162.824C705.262 162.852 705.206 162.852 705.136 162.852C704.968 162.852 704.786 162.712 704.786 162.32V154.116H703.176V162.236ZM706.529 160.57C706.529 162.852 708.083 164.168 709.791 164.168C711.513 164.168 713.067 162.852 713.067 160.57C713.067 158.274 711.513 156.958 709.791 156.958C708.083 156.958 706.529 158.274 706.529 160.57ZM708.181 160.57C708.181 159.184 708.783 158.274 709.791 158.274C710.799 158.274 711.415 159.184 711.415 160.57C711.415 161.942 710.799 162.852 709.791 162.852C708.783 162.852 708.181 161.942 708.181 160.57ZM714.213 160.57C714.213 162.852 715.655 164.168 717.531 164.168C718.315 164.168 719.141 163.86 719.785 163.286L719.113 162.264C718.735 162.572 718.259 162.852 717.699 162.852C716.621 162.852 715.865 161.942 715.865 160.57C715.865 159.184 716.635 158.274 717.741 158.274C718.175 158.274 718.539 158.456 718.903 158.778L719.673 157.756C719.211 157.308 718.539 156.958 717.657 156.958C715.823 156.958 714.213 158.274 714.213 160.57ZM720.697 162.152C720.697 163.356 721.537 164.168 722.741 164.168C723.553 164.168 724.253 163.762 724.869 163.244H724.911L725.037 164H726.353V159.926C726.353 158.008 725.513 156.958 723.791 156.958C722.699 156.958 721.733 157.378 720.977 157.854L721.565 158.932C722.167 158.568 722.811 158.26 723.497 158.26C724.421 158.26 724.729 158.876 724.743 159.604C721.929 159.912 720.697 160.682 720.697 162.152ZM722.265 162.026C722.265 161.34 722.881 160.85 724.743 160.612V162.152C724.239 162.628 723.805 162.908 723.245 162.908C722.671 162.908 722.265 162.642 722.265 162.026ZM728.557 161.676C728.557 163.16 729.145 164.168 730.741 164.168C731.287 164.168 731.763 164.042 732.141 163.916L731.861 162.726C731.665 162.81 731.385 162.88 731.147 162.88C730.489 162.88 730.181 162.488 730.181 161.676V158.4H731.931V157.126H730.181V155.25H728.837L728.641 157.126L727.577 157.196V158.4H728.557V161.676ZM734.189 155.922C734.763 155.922 735.183 155.544 735.183 155.012C735.183 154.466 734.763 154.088 734.189 154.088C733.615 154.088 733.195 154.466 733.195 155.012C733.195 155.544 733.615 155.922 734.189 155.922ZM733.377 164H734.987V157.126H733.377V164ZM736.594 160.57C736.594 162.852 738.148 164.168 739.856 164.168C741.578 164.168 743.132 162.852 743.132 160.57C743.132 158.274 741.578 156.958 739.856 156.958C738.148 156.958 736.594 158.274 736.594 160.57ZM738.246 160.57C738.246 159.184 738.848 158.274 739.856 158.274C740.864 158.274 741.48 159.184 741.48 160.57C741.48 161.942 740.864 162.852 739.856 162.852C738.848 162.852 738.246 161.942 738.246 160.57ZM744.725 164H746.335V159.198C746.909 158.638 747.301 158.344 747.903 158.344C748.659 158.344 748.981 158.764 748.981 159.898V164H750.591V159.688C750.591 157.952 749.947 156.958 748.477 156.958C747.539 156.958 746.839 157.448 746.223 158.05H746.167L746.055 157.126H744.725V164ZM752.419 163.076C752.419 163.706 752.881 164.168 753.469 164.168C754.057 164.168 754.505 163.706 754.505 163.076C754.505 162.446 754.057 161.984 753.469 161.984C752.881 161.984 752.419 162.446 752.419 163.076ZM502.148 196H503.772V192.64H505.228C507.188 192.64 508.7 191.702 508.7 189.672C508.7 187.544 507.23 186.844 505.228 186.844H502.148V196ZM503.772 191.338V188.146H505.088C506.418 188.146 507.104 188.524 507.104 189.672C507.104 190.792 506.46 191.338 505.088 191.338H503.772ZM510.252 196H511.862V191.8C512.282 190.764 512.94 190.386 513.486 190.386C513.78 190.386 513.962 190.428 514.2 190.498L514.48 189.098C514.27 189 514.046 188.958 513.696 188.958C512.968 188.958 512.24 189.448 511.75 190.344H511.694L511.582 189.126H510.252V196ZM514.89 192.57C514.89 194.852 516.444 196.168 518.152 196.168C519.874 196.168 521.428 194.852 521.428 192.57C521.428 190.274 519.874 188.958 518.152 188.958C516.444 188.958 514.89 190.274 514.89 192.57ZM516.542 192.57C516.542 191.184 517.144 190.274 518.152 190.274C519.16 190.274 519.776 191.184 519.776 192.57C519.776 193.942 519.16 194.852 518.152 194.852C517.144 194.852 516.542 193.942 516.542 192.57ZM522.602 192.57C522.602 194.838 523.708 196.168 525.43 196.168C526.172 196.168 526.872 195.762 527.376 195.258H527.432L527.544 196H528.874V186.116H527.264V188.608L527.32 189.714C526.788 189.252 526.298 188.958 525.514 188.958C524.016 188.958 522.602 190.33 522.602 192.57ZM524.268 192.556C524.268 191.114 524.982 190.288 525.864 190.288C526.326 190.288 526.788 190.442 527.264 190.862V194.068C526.802 194.6 526.354 194.838 525.822 194.838C524.828 194.838 524.268 194.04 524.268 192.556ZM530.854 193.438C530.854 195.174 531.498 196.168 532.968 196.168C533.906 196.168 534.578 195.706 535.18 194.992H535.222L535.348 196H536.664V189.126H535.054V193.83C534.536 194.502 534.13 194.782 533.528 194.782C532.786 194.782 532.464 194.362 532.464 193.228V189.126H530.854V193.438ZM538.256 192.57C538.256 194.852 539.698 196.168 541.574 196.168C542.358 196.168 543.184 195.86 543.828 195.286L543.156 194.264C542.778 194.572 542.302 194.852 541.742 194.852C540.664 194.852 539.908 193.942 539.908 192.57C539.908 191.184 540.678 190.274 541.784 190.274C542.218 190.274 542.582 190.456 542.946 190.778L543.716 189.756C543.254 189.308 542.582 188.958 541.7 188.958C539.866 188.958 538.256 190.274 538.256 192.57ZM544.381 192.57C544.381 194.838 545.865 196.168 547.769 196.168C548.637 196.168 549.463 195.86 550.121 195.426L549.575 194.418C549.071 194.74 548.567 194.922 547.979 194.922C546.873 194.922 546.089 194.222 545.949 192.976H550.317C550.359 192.808 550.387 192.528 550.387 192.22C550.387 190.302 549.407 188.958 547.545 188.958C545.935 188.958 544.381 190.33 544.381 192.57ZM545.935 191.954C546.075 190.806 546.775 190.204 547.587 190.204C548.525 190.204 548.987 190.862 548.987 191.954H545.935ZM551.238 195.216C551.91 195.762 552.904 196.168 553.842 196.168C555.578 196.168 556.516 195.216 556.516 194.04C556.516 192.752 555.48 192.304 554.542 191.954C553.8 191.688 553.114 191.464 553.114 190.932C553.114 190.498 553.436 190.176 554.122 190.176C554.668 190.176 555.158 190.414 555.634 190.764L556.376 189.784C555.816 189.35 555.046 188.958 554.094 188.958C552.554 188.958 551.588 189.812 551.588 191.016C551.588 192.164 552.61 192.682 553.52 193.018C554.248 193.298 554.99 193.55 554.99 194.124C554.99 194.6 554.64 194.95 553.898 194.95C553.198 194.95 552.61 194.656 551.994 194.18L551.238 195.216ZM560.531 194.152C560.531 195.356 561.371 196.168 562.575 196.168C563.387 196.168 564.087 195.762 564.703 195.244H564.745L564.871 196H566.187V191.926C566.187 190.008 565.347 188.958 563.625 188.958C562.533 188.958 561.567 189.378 560.811 189.854L561.399 190.932C562.001 190.568 562.645 190.26 563.331 190.26C564.255 190.26 564.563 190.876 564.577 191.604C561.763 191.912 560.531 192.682 560.531 194.152ZM562.099 194.026C562.099 193.34 562.715 192.85 564.577 192.612V194.152C564.073 194.628 563.639 194.908 563.079 194.908C562.505 194.908 562.099 194.642 562.099 194.026ZM570.52 194.824C571.388 195.678 572.578 196.168 573.81 196.168C575.868 196.168 577.1 194.936 577.1 193.452C577.1 192.122 576.344 191.436 575.252 190.974L574.02 190.456C573.264 190.148 572.564 189.882 572.564 189.168C572.564 188.496 573.124 188.09 573.992 188.09C574.776 188.09 575.406 188.384 575.98 188.874L576.82 187.838C576.106 187.124 575.07 186.676 573.992 186.676C572.214 186.676 570.926 187.796 570.926 189.252C570.926 190.596 571.864 191.31 572.774 191.688L574.02 192.234C574.86 192.584 575.448 192.822 575.448 193.578C575.448 194.292 574.874 194.754 573.852 194.754C572.998 194.754 572.116 194.334 571.458 193.718L570.52 194.824ZM579.424 187.922C579.998 187.922 580.418 187.544 580.418 187.012C580.418 186.466 579.998 186.088 579.424 186.088C578.85 186.088 578.43 186.466 578.43 187.012C578.43 187.544 578.85 187.922 579.424 187.922ZM578.612 196H580.222V189.126H578.612V196ZM582.276 196H583.886V191.198C584.46 190.638 584.852 190.344 585.454 190.344C586.21 190.344 586.532 190.764 586.532 191.898V196H588.142V191.688C588.142 189.952 587.498 188.958 586.028 188.958C585.09 188.958 584.39 189.448 583.774 190.05H583.718L583.606 189.126H582.276V196ZM590.992 197.008C590.992 196.686 591.16 196.378 591.524 196.098C591.79 196.168 592.084 196.196 592.462 196.196H593.4C594.184 196.196 594.618 196.35 594.618 196.882C594.618 197.47 593.862 197.988 592.756 197.988C591.664 197.988 590.992 197.624 590.992 197.008ZM589.648 197.246C589.648 198.45 590.866 199.038 592.504 199.038C594.744 199.038 596.172 197.974 596.172 196.616C596.172 195.426 595.304 194.922 593.652 194.922H592.434C591.594 194.922 591.314 194.684 591.314 194.292C591.314 193.984 591.44 193.816 591.65 193.634C591.958 193.76 592.294 193.816 592.588 193.816C594.044 193.816 595.192 193.004 595.192 191.478C595.192 191.002 595.024 190.582 594.8 190.316H596.06V189.126H593.596C593.316 189.028 592.966 188.958 592.588 188.958C591.146 188.958 589.872 189.84 589.872 191.422C589.872 192.234 590.306 192.892 590.768 193.242V193.298C590.376 193.578 590.012 194.04 590.012 194.572C590.012 195.132 590.278 195.496 590.628 195.72V195.776C589.998 196.168 589.648 196.672 589.648 197.246ZM592.588 192.808C591.916 192.808 591.384 192.304 591.384 191.422C591.384 190.554 591.916 190.064 592.588 190.064C593.26 190.064 593.778 190.568 593.778 191.422C593.778 192.304 593.246 192.808 592.588 192.808ZM597.383 194.236C597.383 195.426 597.803 196.168 598.951 196.168C599.329 196.168 599.609 196.112 599.805 196.028L599.595 194.824C599.469 194.852 599.413 194.852 599.343 194.852C599.175 194.852 598.993 194.712 598.993 194.32V186.116H597.383V194.236ZM600.736 192.57C600.736 194.838 602.22 196.168 604.124 196.168C604.992 196.168 605.818 195.86 606.476 195.426L605.93 194.418C605.426 194.74 604.922 194.922 604.334 194.922C603.228 194.922 602.444 194.222 602.304 192.976H606.672C606.714 192.808 606.742 192.528 606.742 192.22C606.742 190.302 605.762 188.958 603.9 188.958C602.29 188.958 600.736 190.33 600.736 192.57ZM602.29 191.954C602.43 190.806 603.13 190.204 603.942 190.204C604.88 190.204 605.342 190.862 605.342 191.954H602.29ZM611.277 196H612.901V192.64H614.357C616.317 192.64 617.829 191.702 617.829 189.672C617.829 187.544 616.359 186.844 614.357 186.844H611.277V196ZM612.901 191.338V188.146H614.217C615.547 188.146 616.233 188.524 616.233 189.672C616.233 190.792 615.589 191.338 614.217 191.338H612.901ZM619.241 197.428L618.947 198.688C619.199 198.772 619.465 198.828 619.843 198.828C621.341 198.828 622.055 197.862 622.629 196.308L625.121 189.126H623.567L622.531 192.5C622.363 193.116 622.181 193.802 622.013 194.432H621.957C621.747 193.788 621.551 193.102 621.355 192.5L620.165 189.126H618.527L621.229 195.916L621.103 196.35C620.879 197.036 620.459 197.526 619.731 197.526C619.563 197.526 619.367 197.47 619.241 197.428ZM626.551 193.676C626.551 195.16 627.139 196.168 628.735 196.168C629.281 196.168 629.757 196.042 630.135 195.916L629.855 194.726C629.659 194.81 629.379 194.88 629.141 194.88C628.483 194.88 628.175 194.488 628.175 193.676V190.4H629.925V189.126H628.175V187.25H626.831L626.635 189.126L625.571 189.196V190.4H626.551V193.676ZM631.372 196H632.982V191.198C633.556 190.638 633.948 190.344 634.55 190.344C635.306 190.344 635.628 190.764 635.628 191.898V196H637.238V191.688C637.238 189.952 636.594 188.958 635.124 188.958C634.186 188.958 633.5 189.448 632.926 189.994L632.982 188.664V186.116H631.372V196ZM638.73 192.57C638.73 194.852 640.284 196.168 641.992 196.168C643.714 196.168 645.268 194.852 645.268 192.57C645.268 190.274 643.714 188.958 641.992 188.958C640.284 188.958 638.73 190.274 638.73 192.57ZM640.382 192.57C640.382 191.184 640.984 190.274 641.992 190.274C643 190.274 643.616 191.184 643.616 192.57C643.616 193.942 643 194.852 641.992 194.852C640.984 194.852 640.382 193.942 640.382 192.57ZM646.862 196H648.472V191.198C649.046 190.638 649.438 190.344 650.04 190.344C650.796 190.344 651.118 190.764 651.118 191.898V196H652.728V191.688C652.728 189.952 652.084 188.958 650.614 188.958C649.676 188.958 648.976 189.448 648.36 190.05H648.304L648.192 189.126H646.862V196ZM661.249 196.168C663.629 196.168 665.281 194.348 665.281 191.38C665.281 188.426 663.629 186.676 661.249 186.676C658.855 186.676 657.203 188.426 657.203 191.38C657.203 194.348 658.855 196.168 661.249 196.168ZM661.249 194.754C659.807 194.754 658.869 193.438 658.869 191.38C658.869 189.336 659.807 188.09 661.249 188.09C662.677 188.09 663.615 189.336 663.615 191.38C663.615 193.438 662.677 194.754 661.249 194.754ZM666.96 196H668.234L668.374 195.3H668.416C668.99 195.86 669.662 196.168 670.292 196.168C671.818 196.168 673.232 194.81 673.232 192.444C673.232 190.33 672.238 188.958 670.516 188.958C669.816 188.958 669.102 189.308 668.528 189.812L668.57 188.664V186.116H666.96V196ZM668.57 194.264V191.058C669.102 190.54 669.578 190.288 670.082 190.288C671.118 190.288 671.566 191.1 671.566 192.472C671.566 194.026 670.866 194.838 669.956 194.838C669.55 194.838 669.06 194.684 668.57 194.264ZM674.876 196.378C674.876 197.176 674.708 197.61 674.092 197.61C673.882 197.61 673.686 197.554 673.504 197.498L673.196 198.702C673.462 198.8 673.812 198.884 674.316 198.884C675.94 198.884 676.5 197.806 676.5 196.35V189.126H674.876V196.378ZM675.688 187.922C676.262 187.922 676.696 187.544 676.696 187.012C676.696 186.466 676.262 186.088 675.688 186.088C675.128 186.088 674.694 186.466 674.694 187.012C674.694 187.544 675.128 187.922 675.688 187.922ZM678.092 192.57C678.092 194.838 679.576 196.168 681.48 196.168C682.348 196.168 683.174 195.86 683.832 195.426L683.286 194.418C682.782 194.74 682.278 194.922 681.69 194.922C680.584 194.922 679.8 194.222 679.66 192.976H684.028C684.07 192.808 684.098 192.528 684.098 192.22C684.098 190.302 683.118 188.958 681.256 188.958C679.646 188.958 678.092 190.33 678.092 192.57ZM679.646 191.954C679.786 190.806 680.486 190.204 681.298 190.204C682.236 190.204 682.698 190.862 682.698 191.954H679.646ZM685.187 192.57C685.187 194.852 686.629 196.168 688.505 196.168C689.289 196.168 690.115 195.86 690.759 195.286L690.087 194.264C689.709 194.572 689.233 194.852 688.673 194.852C687.595 194.852 686.839 193.942 686.839 192.57C686.839 191.184 687.609 190.274 688.715 190.274C689.149 190.274 689.513 190.456 689.877 190.778L690.647 189.756C690.185 189.308 689.513 188.958 688.631 188.958C686.797 188.958 685.187 190.274 685.187 192.57ZM692.34 193.676C692.34 195.16 692.928 196.168 694.524 196.168C695.07 196.168 695.546 196.042 695.924 195.916L695.644 194.726C695.448 194.81 695.168 194.88 694.93 194.88C694.272 194.88 693.964 194.488 693.964 193.676V190.4H695.714V189.126H693.964V187.25H692.62L692.424 189.126L691.36 189.196V190.4H692.34V193.676ZM697.144 195.076C697.144 195.706 697.606 196.168 698.194 196.168C698.782 196.168 699.23 195.706 699.23 195.076C699.23 194.446 698.782 193.984 698.194 193.984C697.606 193.984 697.144 194.446 697.144 195.076Z" fill="#30394B"/>
<path d="M620.858 164H622.468V159.8C622.888 158.764 623.546 158.386 624.092 158.386C624.386 158.386 624.568 158.428 624.806 158.498L625.086 157.098C624.876 157 624.652 156.958 624.302 156.958C623.574 156.958 622.846 157.448 622.356 158.344H622.3L622.188 157.126H620.858V164ZM625.496 160.57C625.496 162.852 627.05 164.168 628.758 164.168C630.48 164.168 632.034 162.852 632.034 160.57C632.034 158.274 630.48 156.958 628.758 156.958C627.05 156.958 625.496 158.274 625.496 160.57ZM627.148 160.57C627.148 159.184 627.75 158.274 628.758 158.274C629.766 158.274 630.382 159.184 630.382 160.57C630.382 161.942 629.766 162.852 628.758 162.852C627.75 162.852 627.148 161.942 627.148 160.57ZM634.679 164H636.527L637.311 160.808C637.465 160.164 637.591 159.52 637.717 158.792H637.773C637.927 159.52 638.039 160.15 638.193 160.794L638.991 164H640.909L642.659 157.126H641.147L640.321 160.696C640.195 161.354 640.083 161.998 639.957 162.67H639.901C639.747 161.998 639.607 161.354 639.439 160.696L638.529 157.126H637.059L636.163 160.696C635.995 161.34 635.855 161.998 635.729 162.67H635.673C635.547 161.998 635.449 161.354 635.309 160.696L634.483 157.126H632.859L634.679 164ZM650.297 160.57C650.297 162.852 651.739 164.168 653.615 164.168C654.399 164.168 655.225 163.86 655.869 163.286L655.197 162.264C654.819 162.572 654.343 162.852 653.783 162.852C652.705 162.852 651.949 161.942 651.949 160.57C651.949 159.184 652.719 158.274 653.825 158.274C654.259 158.274 654.623 158.456 654.987 158.778L655.757 157.756C655.295 157.308 654.623 156.958 653.741 156.958C651.907 156.958 650.297 158.274 650.297 160.57ZM656.422 160.57C656.422 162.852 657.976 164.168 659.684 164.168C661.406 164.168 662.96 162.852 662.96 160.57C662.96 158.274 661.406 156.958 659.684 156.958C657.976 156.958 656.422 158.274 656.422 160.57ZM658.074 160.57C658.074 159.184 658.676 158.274 659.684 158.274C660.692 158.274 661.308 159.184 661.308 160.57C661.308 161.942 660.692 162.852 659.684 162.852C658.676 162.852 658.074 161.942 658.074 160.57ZM664.553 162.236C664.553 163.426 664.973 164.168 666.121 164.168C666.499 164.168 666.779 164.112 666.975 164.028L666.765 162.824C666.639 162.852 666.583 162.852 666.513 162.852C666.345 162.852 666.163 162.712 666.163 162.32V154.116H664.553V162.236ZM668.284 161.438C668.284 163.174 668.928 164.168 670.398 164.168C671.336 164.168 672.008 163.706 672.61 162.992H672.652L672.778 164H674.094V157.126H672.484V161.83C671.966 162.502 671.56 162.782 670.958 162.782C670.216 162.782 669.894 162.362 669.894 161.228V157.126H668.284V161.438ZM676.133 164H677.743V159.198C678.275 158.624 678.765 158.344 679.185 158.344C679.913 158.344 680.249 158.764 680.249 159.898V164H681.859V159.198C682.391 158.624 682.867 158.344 683.301 158.344C684.015 158.344 684.351 158.764 684.351 159.898V164H685.975V159.688C685.975 157.952 685.303 156.958 683.847 156.958C682.979 156.958 682.293 157.49 681.635 158.19C681.313 157.42 680.739 156.958 679.731 156.958C678.877 156.958 678.205 157.448 677.631 158.064H677.575L677.463 157.126H676.133V164ZM687.932 164H689.542V159.198C690.116 158.638 690.508 158.344 691.11 158.344C691.866 158.344 692.188 158.764 692.188 159.898V164H693.798V159.688C693.798 157.952 693.154 156.958 691.684 156.958C690.746 156.958 690.046 157.448 689.43 158.05H689.374L689.262 157.126H687.932V164Z" fill="#29A1F8"/>
<g style="mix-blend-mode:multiply">
<circle cx="489" cy="160" r="4" fill="#30394B"/>
</g>
<g style="mix-blend-mode:multiply">
<circle cx="489" cy="192" r="4" fill="#30394B"/>
</g>
<path d="M644.17 26.9397H646.816V20.9097C647.374 20.3337 647.896 20.0457 648.328 20.0457C649.084 20.0457 649.426 20.4417 649.426 21.7377V26.9397H652.072V20.9097C652.648 20.3337 653.152 20.0457 653.602 20.0457C654.358 20.0457 654.7 20.4417 654.7 21.7377V26.9397H657.346V21.3957C657.346 19.1637 656.482 17.7957 654.556 17.7957C653.368 17.7957 652.54 18.4797 651.748 19.2897C651.298 18.3357 650.542 17.7957 649.282 17.7957C648.112 17.7957 647.32 18.4257 646.582 19.1637H646.51L646.33 18.0117H644.17V26.9397ZM659.082 22.4757C659.082 25.4277 661.044 27.1557 663.6 27.1557C664.662 27.1557 665.85 26.7777 666.768 26.1477L665.886 24.5457C665.238 24.9417 664.626 25.1397 663.96 25.1397C662.772 25.1397 661.872 24.5457 661.638 23.1957H666.984C667.038 22.9797 667.092 22.5477 667.092 22.0797C667.092 19.6497 665.832 17.7957 663.294 17.7957C661.152 17.7957 659.082 19.5777 659.082 22.4757ZM661.62 21.5577C661.8 20.3697 662.52 19.8117 663.348 19.8117C664.41 19.8117 664.842 20.5317 664.842 21.5577H661.62ZM668.964 23.6997C668.964 25.7697 669.828 27.1557 672.042 27.1557C672.906 27.1557 673.554 26.9757 674.022 26.8317L673.608 24.9057C673.374 24.9957 673.05 25.0857 672.762 25.0857C672.06 25.0857 671.61 24.6717 671.61 23.6637V20.0817H673.752V18.0117H671.61V15.6357H669.414L669.108 18.0117L667.74 18.1197V20.0817H668.964V23.6997ZM675.494 26.9397H678.14V20.9097C678.716 20.3517 679.13 20.0457 679.796 20.0457C680.552 20.0457 680.894 20.4417 680.894 21.7377V26.9397H683.54V21.3957C683.54 19.1637 682.712 17.7957 680.768 17.7957C679.562 17.7957 678.68 18.4257 678.014 19.0197L678.14 17.4177V14.3217H675.494V26.9397ZM685.255 22.4757C685.255 25.4457 687.343 27.1557 689.611 27.1557C691.861 27.1557 693.949 25.4457 693.949 22.4757C693.949 19.5057 691.861 17.7957 689.611 17.7957C687.343 17.7957 685.255 19.5057 685.255 22.4757ZM687.973 22.4757C687.973 20.9277 688.513 19.9377 689.611 19.9377C690.691 19.9377 691.249 20.9277 691.249 22.4757C691.249 24.0237 690.691 25.0137 689.611 25.0137C688.513 25.0137 687.973 24.0237 687.973 22.4757ZM695.294 22.4757C695.294 25.3917 696.734 27.1557 698.948 27.1557C699.812 27.1557 700.694 26.6877 701.324 26.0577H701.396L701.576 26.9397H703.736V14.3217H701.09V17.3637L701.198 18.7317C700.586 18.1557 699.992 17.7957 699.002 17.7957C697.112 17.7957 695.294 19.5597 695.294 22.4757ZM698.012 22.4397C698.012 20.7477 698.768 19.9557 699.614 19.9557C700.1 19.9557 700.622 20.0997 701.09 20.5317V24.1857C700.658 24.7797 700.208 24.9957 699.632 24.9957C698.606 24.9957 698.012 24.2037 698.012 22.4397Z" fill="#30394B"/>
<path d="M580.935 14.287C581.02 14.2977 581.104 14.3209 581.182 14.3559C581.259 14.3925 581.33 14.4404 581.393 14.4982C581.474 14.5758 581.55 14.6586 581.62 14.7461L587.952 22.7752C587.926 22.5197 587.91 22.2687 587.897 22.0285C587.885 21.7882 587.879 21.5587 587.879 21.3445V14.261H590.605V27.6322H588.994C588.788 27.6382 588.583 27.6006 588.392 27.5221C588.203 27.4284 588.039 27.2897 587.916 27.1181L581.629 19.1608C581.649 19.3919 581.663 19.6199 581.675 19.8433C581.687 20.0667 581.695 20.2764 581.695 20.4722V27.6399H578.967V14.261H580.595C580.709 14.2622 580.822 14.2709 580.935 14.287V14.287Z" fill="#2D76E8"/>
<path d="M595.087 18.1125V24.1509C595.087 24.6222 595.194 24.9864 595.407 25.2435C595.525 25.3753 595.671 25.4785 595.834 25.5453C595.998 25.6121 596.174 25.6408 596.35 25.6291C596.652 25.6311 596.951 25.5652 597.224 25.4363C597.513 25.2958 597.78 25.1133 598.016 24.8946V18.1125H600.852V27.6291H599.096C598.943 27.6419 598.79 27.6014 598.663 27.5144C598.536 27.4275 598.443 27.2994 598.399 27.1517L598.227 26.6008C598.048 26.7742 597.859 26.9358 597.659 27.0843C597.463 27.2274 597.253 27.3499 597.032 27.4501C596.799 27.5552 596.557 27.6362 596.307 27.6919C596.031 27.7521 595.749 27.7813 595.467 27.7791C594.995 27.7877 594.527 27.6954 594.094 27.5082C593.705 27.3352 593.359 27.0769 593.083 26.7523C592.801 26.4149 592.59 26.0248 592.46 25.6046C592.315 25.1349 592.244 24.6455 592.25 24.1539V18.1125H595.087Z" fill="#2D76E8"/>
<path d="M602.681 27.6323V18.1127H604.438C604.595 18.107 604.749 18.1486 604.882 18.232C605.005 18.3182 605.094 18.4449 605.134 18.5901L605.286 19.1043C605.44 18.9405 605.605 18.7871 605.779 18.6452C605.951 18.5069 606.136 18.3869 606.333 18.2871C606.765 18.067 607.244 17.9552 607.729 17.9612C608.24 17.9412 608.743 18.0984 609.152 18.4065C609.538 18.7185 609.833 19.1285 610.006 19.5939C610.157 19.3122 610.353 19.0577 610.588 18.8411C610.809 18.6383 611.059 18.4687 611.329 18.3376C611.596 18.2085 611.879 18.1129 612.169 18.053C612.46 17.9923 612.757 17.9615 613.054 17.9612C613.547 17.9527 614.036 18.0351 614.499 18.2045C614.901 18.3542 615.263 18.5963 615.556 18.9114C615.85 19.2402 616.07 19.6285 616.201 20.0499C616.355 20.5451 616.429 21.0617 616.421 21.5802V27.6277H613.584V21.5848C613.584 20.5993 613.163 20.1071 612.322 20.1081C612.145 20.1024 611.969 20.1333 611.804 20.1988C611.64 20.2644 611.49 20.3632 611.366 20.4891C611.112 20.7411 610.986 21.1063 610.986 21.5848V27.6323H608.153V21.5848C608.153 21.04 608.046 20.6575 607.832 20.4371C607.619 20.2167 607.305 20.1081 606.89 20.1081C606.637 20.1075 606.388 20.1668 606.162 20.281C605.925 20.4043 605.708 20.5621 605.517 20.7493V27.6353L602.681 27.6323Z" fill="#2D76E8"/>
<path d="M621.162 23.1624V27.6322H618.07V14.261H622.772C623.591 14.2427 624.408 14.3548 625.193 14.593C625.804 14.781 626.371 15.0935 626.857 15.5112C627.285 15.8892 627.616 16.3646 627.823 16.8976C628.031 17.4481 628.135 18.0332 628.128 18.6221C628.135 19.2488 628.026 19.8715 627.807 20.4584C627.599 21.0073 627.264 21.4984 626.828 21.8907C626.343 22.3151 625.774 22.6321 625.159 22.8211C624.386 23.0614 623.58 23.1766 622.772 23.1624H621.162ZM621.162 20.8226H622.772C623.577 20.8226 624.157 20.6313 624.511 20.2442C624.865 19.857 625.042 19.3261 625.042 18.6298C625.045 18.3454 624.999 18.0625 624.904 17.7943C624.817 17.5494 624.674 17.3279 624.488 17.147C624.286 16.9578 624.046 16.8153 623.783 16.7292C623.456 16.6235 623.115 16.5718 622.772 16.5762H621.162V20.8226Z" fill="#2D76E8"/>
<path d="M633.622 30.1021C633.558 30.2647 633.453 30.408 633.317 30.5183C633.14 30.6212 632.936 30.6677 632.732 30.6514H630.604L632.434 26.7983L628.648 18.1126H631.154C631.337 18.1032 631.518 18.1572 631.667 18.2656C631.783 18.3556 631.872 18.4765 631.923 18.6145L633.478 22.7171C633.621 23.0868 633.74 23.4656 633.834 23.851C633.896 23.6552 633.963 23.4623 634.036 23.2741C634.109 23.0859 634.179 22.8916 634.246 22.6957L635.656 18.6115C635.709 18.4642 635.811 18.3395 635.944 18.258C636.079 18.1661 636.239 18.1166 636.402 18.1157H638.69L633.622 30.1021Z" fill="#2D76E8"/>
<path d="M555.482 9.91064L549.818 7.04297L543.6 10.1555L549.418 13.0859L555.482 9.91064Z" fill="#4DABCF"/>
<path d="M558.08 11.2251L564.019 14.2336L557.857 17.3369L552.03 14.4019L558.08 11.2251Z" fill="#4DABCF"/>
<path d="M566.013 7.08569L572.115 10.1554L566.656 12.9037L560.706 9.89215L566.013 7.08569Z" fill="#4DABCF"/>
<path d="M563.386 5.76361L557.893 3L552.459 5.72077L558.12 8.58385L563.386 5.76361Z" fill="#4DABCF"/>
<path d="M559.092 29.4916V37.0112L565.746 33.6799L565.74 26.1572L559.092 29.4916Z" fill="#4DABCF"/>
<path d="M565.737 23.5312L565.729 16.0881L559.092 19.398V26.8442L565.737 23.5312Z" fill="#4DABCF"/>
<path d="M573.726 22.1372V29.6859L568.049 32.526L568.045 25.0125L573.726 22.1372Z" fill="#4DABCF"/>
<path d="M573.726 19.4978V12.1006L568.039 14.9361L568.043 22.3945L573.726 19.4978Z" fill="#4DABCF"/>
<path d="M556.742 19.3979L552.26 17.1362V26.9053C552.26 26.9053 546.778 15.2051 546.271 14.1538C546.206 14.0176 545.937 13.8692 545.869 13.8324C544.88 13.3152 542 11.8523 542 11.8523V29.118L545.985 31.2603V22.2319C545.985 22.2319 551.408 32.6865 551.464 32.8013C551.521 32.9161 552.062 34.0163 552.645 34.4034C553.418 34.9191 556.739 36.9222 556.739 36.9222L556.742 19.3979Z" fill="#2D76E8"/>
</svg>
