<svg width="1120" height="284" viewBox="0 0 1120 284" fill="none" xmlns="http://www.w3.org/2000/svg">
<g id="Frame">
<rect width="560" height="142" fill="white" transform="scale(2)"/>
<g id="Group">
<rect width="53" height="106" fill="black" fill-opacity="0" transform="translate(756 20) scale(2)"/>
<rect id="Rectangle" x="756" y="20" width="106" height="53" stroke="black"/>
<path id="False" d="M789.723 47.809H781.37V56.6H778.745V36.6937H791.077V38.8539H781.37V45.6625H789.723V47.809ZM802.493 56.6C802.347 56.3083 802.229 55.7888 802.137 55.0414C800.962 56.2627 799.558 56.8734 797.927 56.8734C796.468 56.8734 795.27 56.4633 794.331 55.6429C793.401 54.8135 792.936 53.7653 792.936 52.4984C792.936 50.958 793.52 49.764 794.686 48.9164C795.862 48.0596 797.512 47.6312 799.636 47.6312H802.096V46.4691C802.096 45.585 801.832 44.8832 801.303 44.3636C800.775 43.835 799.996 43.5707 798.966 43.5707C798.063 43.5707 797.307 43.7985 796.696 44.2543C796.085 44.71 795.78 45.2614 795.78 45.9086H793.237C793.237 45.1703 793.497 44.4594 794.016 43.7758C794.545 43.083 795.256 42.5362 796.149 42.1351C797.052 41.7341 798.04 41.5336 799.116 41.5336C800.82 41.5336 802.156 41.962 803.122 42.8187C804.088 43.6664 804.589 44.8376 804.626 46.3324V53.141C804.626 54.4991 804.799 55.5791 805.145 56.3812V56.6H802.493ZM798.296 54.6722C799.089 54.6722 799.841 54.4672 800.552 54.057C801.262 53.6469 801.777 53.1136 802.096 52.4574V49.4222H800.114C797.015 49.4222 795.466 50.3291 795.466 52.1429C795.466 52.9359 795.73 53.5557 796.259 54.0023C796.787 54.4489 797.466 54.6722 798.296 54.6722ZM811.339 56.6H808.809V35.6H811.339V56.6ZM824.012 52.6761C824.012 51.9926 823.753 51.4639 823.233 51.0902C822.723 50.7074 821.825 50.3793 820.54 50.1058C819.264 49.8324 818.247 49.5043 817.491 49.1215C816.744 48.7386 816.188 48.2829 815.823 47.7543C815.468 47.2256 815.29 46.5967 815.29 45.8676C815.29 44.6553 815.8 43.6299 816.821 42.7914C817.851 41.9528 819.163 41.5336 820.759 41.5336C822.436 41.5336 823.794 41.9665 824.833 42.8324C825.881 43.6983 826.405 44.8057 826.405 46.1547H823.862C823.862 45.462 823.566 44.8649 822.973 44.3636C822.39 43.8623 821.652 43.6117 820.759 43.6117C819.838 43.6117 819.118 43.8122 818.598 44.2133C818.079 44.6143 817.819 45.1384 817.819 45.7855C817.819 46.3962 818.061 46.8565 818.544 47.1664C819.027 47.4763 819.897 47.7725 821.155 48.0551C822.422 48.3376 823.447 48.6748 824.231 49.0668C825.015 49.4587 825.594 49.9327 825.968 50.4886C826.35 51.0355 826.542 51.7054 826.542 52.4984C826.542 53.82 826.013 54.8819 824.956 55.684C823.899 56.4769 822.527 56.8734 820.841 56.8734C819.656 56.8734 818.608 56.6638 817.696 56.2445C816.785 55.8252 816.069 55.2419 815.55 54.4945C815.039 53.738 814.784 52.9222 814.784 52.0472H817.313C817.359 52.8949 817.696 53.5694 818.325 54.0707C818.963 54.5629 819.802 54.809 820.841 54.809C821.798 54.809 822.563 54.6176 823.137 54.2347C823.721 53.8428 824.012 53.3233 824.012 52.6761ZM835.975 56.8734C833.97 56.8734 832.339 56.2172 831.081 54.9047C829.823 53.583 829.194 51.8194 829.194 49.6136V49.1488C829.194 47.6814 829.472 46.3734 830.028 45.225C830.593 44.0674 831.377 43.1651 832.38 42.5179C833.391 41.8617 834.485 41.5336 835.661 41.5336C837.584 41.5336 839.079 42.167 840.145 43.434C841.212 44.7009 841.745 46.5147 841.745 48.8754V49.9281H831.723C831.76 51.3864 832.184 52.5668 832.995 53.4691C833.815 54.3623 834.854 54.809 836.112 54.809C837.005 54.809 837.762 54.6267 838.382 54.2621C839.001 53.8975 839.544 53.4144 840.009 52.8129L841.553 54.016C840.314 55.9209 838.455 56.8734 835.975 56.8734ZM835.661 43.6117C834.64 43.6117 833.783 43.9854 833.091 44.7328C832.398 45.4711 831.969 46.5101 831.805 47.85H839.216V47.6586C839.143 46.3734 838.796 45.3799 838.177 44.6781C837.557 43.9672 836.718 43.6117 835.661 43.6117Z" fill="#EB5757"/>
<rect id="Rectangle_2" x="756" y="73" width="106" height="53" stroke="black"/>
<path id="True" d="M797.94 91.8539H791.542V109.6H788.93V91.8539H782.546V89.6937H797.94V91.8539ZM806.608 97.0765C806.225 97.0127 805.811 96.9808 805.364 96.9808C803.705 96.9808 802.58 97.6872 801.987 99.1V109.6H799.458V94.807H801.919L801.96 96.516C802.789 95.1944 803.965 94.5336 805.487 94.5336C805.979 94.5336 806.353 94.5974 806.608 94.725V97.0765ZM818.079 108.137C817.094 109.295 815.65 109.873 813.745 109.873C812.168 109.873 810.965 109.418 810.136 108.506C809.315 107.586 808.9 106.228 808.891 104.432V94.807H811.421V104.364C811.421 106.606 812.332 107.727 814.155 107.727C816.087 107.727 817.372 107.007 818.011 105.567V94.807H820.54V109.6H818.134L818.079 108.137ZM830.534 109.873C828.529 109.873 826.897 109.217 825.639 107.905C824.382 106.583 823.753 104.819 823.753 102.614V102.149C823.753 100.681 824.031 99.3734 824.587 98.225C825.152 97.0674 825.936 96.1651 826.938 95.5179C827.95 94.8617 829.044 94.5336 830.219 94.5336C832.143 94.5336 833.637 95.167 834.704 96.434C835.77 97.7009 836.303 99.5147 836.303 101.875V102.928H826.282C826.318 104.386 826.742 105.567 827.553 106.469C828.374 107.362 829.413 107.809 830.671 107.809C831.564 107.809 832.32 107.627 832.94 107.262C833.56 106.898 834.102 106.414 834.567 105.813L836.112 107.016C834.872 108.921 833.013 109.873 830.534 109.873ZM830.219 96.6117C829.199 96.6117 828.342 96.9854 827.649 97.7328C826.956 98.4711 826.528 99.5101 826.364 100.85H833.774V100.659C833.701 99.3734 833.355 98.3799 832.735 97.6781C832.115 96.9672 831.277 96.6117 830.219 96.6117Z" fill="#27AE60"/>
<rect id="Rectangle_3" x="756" y="126" width="106" height="53" stroke="black"/>
<path id="False_2" d="M789.723 153.809H781.37V162.6H778.745V142.694H791.077V144.854H781.37V151.662H789.723V153.809ZM802.493 162.6C802.347 162.308 802.229 161.789 802.137 161.041C800.962 162.263 799.558 162.873 797.927 162.873C796.468 162.873 795.27 162.463 794.331 161.643C793.401 160.814 792.936 159.765 792.936 158.498C792.936 156.958 793.52 155.764 794.686 154.916C795.862 154.06 797.512 153.631 799.636 153.631H802.096V152.469C802.096 151.585 801.832 150.883 801.303 150.364C800.775 149.835 799.996 149.571 798.966 149.571C798.063 149.571 797.307 149.799 796.696 150.254C796.085 150.71 795.78 151.261 795.78 151.909H793.237C793.237 151.17 793.497 150.459 794.016 149.776C794.545 149.083 795.256 148.536 796.149 148.135C797.052 147.734 798.04 147.534 799.116 147.534C800.82 147.534 802.156 147.962 803.122 148.819C804.088 149.666 804.589 150.838 804.626 152.332V159.141C804.626 160.499 804.799 161.579 805.145 162.381V162.6H802.493ZM798.296 160.672C799.089 160.672 799.841 160.467 800.552 160.057C801.262 159.647 801.777 159.114 802.096 158.457V155.422H800.114C797.015 155.422 795.466 156.329 795.466 158.143C795.466 158.936 795.73 159.556 796.259 160.002C796.787 160.449 797.466 160.672 798.296 160.672ZM811.339 162.6H808.809V141.6H811.339V162.6ZM824.012 158.676C824.012 157.993 823.753 157.464 823.233 157.09C822.723 156.707 821.825 156.379 820.54 156.106C819.264 155.832 818.247 155.504 817.491 155.121C816.744 154.739 816.188 154.283 815.823 153.754C815.468 153.226 815.29 152.597 815.29 151.868C815.29 150.655 815.8 149.63 816.821 148.791C817.851 147.953 819.163 147.534 820.759 147.534C822.436 147.534 823.794 147.967 824.833 148.832C825.881 149.698 826.405 150.806 826.405 152.155H823.862C823.862 151.462 823.566 150.865 822.973 150.364C822.39 149.862 821.652 149.612 820.759 149.612C819.838 149.612 819.118 149.812 818.598 150.213C818.079 150.614 817.819 151.138 817.819 151.786C817.819 152.396 818.061 152.856 818.544 153.166C819.027 153.476 819.897 153.773 821.155 154.055C822.422 154.338 823.447 154.675 824.231 155.067C825.015 155.459 825.594 155.933 825.968 156.489C826.35 157.036 826.542 157.705 826.542 158.498C826.542 159.82 826.013 160.882 824.956 161.684C823.899 162.477 822.527 162.873 820.841 162.873C819.656 162.873 818.608 162.664 817.696 162.245C816.785 161.825 816.069 161.242 815.55 160.495C815.039 159.738 814.784 158.922 814.784 158.047H817.313C817.359 158.895 817.696 159.569 818.325 160.071C818.963 160.563 819.802 160.809 820.841 160.809C821.798 160.809 822.563 160.618 823.137 160.235C823.721 159.843 824.012 159.323 824.012 158.676ZM835.975 162.873C833.97 162.873 832.339 162.217 831.081 160.905C829.823 159.583 829.194 157.819 829.194 155.614V155.149C829.194 153.681 829.472 152.373 830.028 151.225C830.593 150.067 831.377 149.165 832.38 148.518C833.391 147.862 834.485 147.534 835.661 147.534C837.584 147.534 839.079 148.167 840.145 149.434C841.212 150.701 841.745 152.515 841.745 154.875V155.928H831.723C831.76 157.386 832.184 158.567 832.995 159.469C833.815 160.362 834.854 160.809 836.112 160.809C837.005 160.809 837.762 160.627 838.382 160.262C839.001 159.898 839.544 159.414 840.009 158.813L841.553 160.016C840.314 161.921 838.455 162.873 835.975 162.873ZM835.661 149.612C834.64 149.612 833.783 149.985 833.091 150.733C832.398 151.471 831.969 152.51 831.805 153.85H839.216V153.659C839.143 152.373 838.796 151.38 838.177 150.678C837.557 149.967 836.718 149.612 835.661 149.612Z" fill="#EB5757"/>
<rect id="Rectangle_4" x="756" y="179" width="106" height="53" stroke="black"/>
<path id="True_2" d="M797.94 197.854H791.542V215.6H788.93V197.854H782.546V195.694H797.94V197.854ZM806.608 203.077C806.225 203.013 805.811 202.981 805.364 202.981C803.705 202.981 802.58 203.687 801.987 205.1V215.6H799.458V200.807H801.919L801.96 202.516C802.789 201.194 803.965 200.534 805.487 200.534C805.979 200.534 806.353 200.597 806.608 200.725V203.077ZM818.079 214.137C817.094 215.295 815.65 215.874 813.745 215.874C812.168 215.874 810.965 215.418 810.136 214.506C809.315 213.586 808.9 212.228 808.891 210.432V200.807H811.421V210.364C811.421 212.606 812.332 213.727 814.155 213.727C816.087 213.727 817.372 213.007 818.011 211.567V200.807H820.54V215.6H818.134L818.079 214.137ZM830.534 215.874C828.529 215.874 826.897 215.217 825.639 213.905C824.382 212.583 823.753 210.819 823.753 208.614V208.149C823.753 206.681 824.031 205.374 824.587 204.225C825.152 203.068 825.936 202.165 826.938 201.518C827.95 200.862 829.044 200.534 830.219 200.534C832.143 200.534 833.637 201.167 834.704 202.434C835.77 203.701 836.303 205.515 836.303 207.875V208.928H826.282C826.318 210.387 826.742 211.567 827.553 212.469C828.374 213.362 829.413 213.809 830.671 213.809C831.564 213.809 832.32 213.627 832.94 213.262C833.56 212.898 834.102 212.415 834.567 211.813L836.112 213.016C834.872 214.921 833.013 215.874 830.534 215.874ZM830.219 202.612C829.199 202.612 828.342 202.986 827.649 203.733C826.956 204.471 826.528 205.51 826.364 206.85H833.774V206.659C833.701 205.374 833.355 204.38 832.735 203.678C832.115 202.967 831.277 202.612 830.219 202.612Z" fill="#27AE60"/>
</g>
<path id="num_bool" d="M744.86 246.112H748.22L748.528 247.96H748.64C749.237 247.363 749.918 246.849 750.684 246.42C751.468 245.991 752.382 245.776 753.428 245.776C754.996 245.776 756.144 246.28 756.872 247.288C757.6 248.296 757.964 249.677 757.964 251.432V260H753.848V251.964C753.848 251.031 753.698 250.349 753.4 249.92C753.101 249.491 752.569 249.276 751.804 249.276C751.244 249.276 750.749 249.397 750.32 249.64C749.909 249.883 749.461 250.247 748.976 250.732V260H744.86V246.112ZM774.333 260H770.973L770.665 258.012H770.553C769.937 258.721 769.255 259.291 768.509 259.72C767.762 260.131 766.885 260.336 765.877 260.336C764.29 260.336 763.142 259.832 762.433 258.824C761.723 257.816 761.369 256.435 761.369 254.68V246.112H765.485V254.148C765.485 255.081 765.625 255.763 765.905 256.192C766.185 256.621 766.717 256.836 767.501 256.836C768.023 256.836 768.481 256.724 768.873 256.5C769.283 256.276 769.731 255.856 770.217 255.24V246.112H774.333V260ZM777.43 246.112H780.51L780.818 247.848H780.93C781.191 247.269 781.546 246.784 781.994 246.392C782.461 245.981 783.095 245.776 783.898 245.776C784.514 245.776 785.027 245.972 785.438 246.364C785.867 246.737 786.166 247.297 786.334 248.044C786.595 247.409 786.969 246.877 787.454 246.448C787.958 246 788.602 245.776 789.386 245.776C790.357 245.776 791.113 246.177 791.654 246.98C792.195 247.764 792.466 248.856 792.466 250.256V260H788.602V250.564C788.602 249.705 788.341 249.276 787.818 249.276C787.314 249.276 786.885 249.724 786.53 250.62V260H783.366V250.564C783.366 249.705 783.095 249.276 782.554 249.276C782.293 249.276 782.069 249.388 781.882 249.612C781.695 249.836 781.499 250.172 781.294 250.62V260H777.43V246.112ZM808.331 261.512V264.592H794.891V261.512H808.331ZM812.016 240.372H816.132V245.188L816.02 247.372C816.561 246.868 817.168 246.476 817.84 246.196C818.531 245.916 819.212 245.776 819.884 245.776C820.743 245.776 821.517 245.944 822.208 246.28C822.917 246.616 823.505 247.092 823.972 247.708C824.457 248.305 824.831 249.043 825.092 249.92C825.353 250.779 825.484 251.74 825.484 252.804C825.484 253.999 825.316 255.063 824.98 255.996C824.644 256.929 824.196 257.723 823.636 258.376C823.076 259.011 822.432 259.496 821.704 259.832C820.995 260.168 820.248 260.336 819.464 260.336C818.811 260.336 818.157 260.177 817.504 259.86C816.869 259.543 816.263 259.085 815.684 258.488H815.572L815.236 260H812.016V240.372ZM816.132 256.052C816.524 256.388 816.925 256.631 817.336 256.78C817.765 256.911 818.167 256.976 818.54 256.976C819.305 256.976 819.949 256.659 820.472 256.024C820.995 255.371 821.256 254.325 821.256 252.888C821.256 250.387 820.407 249.136 818.708 249.136C817.831 249.136 816.972 249.565 816.132 250.424V256.052ZM828.105 253.056C828.105 251.899 828.301 250.872 828.693 249.976C829.085 249.061 829.608 248.296 830.261 247.68C830.933 247.064 831.689 246.597 832.529 246.28C833.388 245.944 834.274 245.776 835.189 245.776C836.104 245.776 836.981 245.944 837.821 246.28C838.68 246.597 839.436 247.064 840.089 247.68C840.761 248.296 841.293 249.061 841.685 249.976C842.077 250.872 842.273 251.899 842.273 253.056C842.273 254.213 842.077 255.249 841.685 256.164C841.293 257.06 840.761 257.816 840.089 258.432C839.436 259.048 838.68 259.524 837.821 259.86C836.981 260.177 836.104 260.336 835.189 260.336C834.274 260.336 833.388 260.177 832.529 259.86C831.689 259.524 830.933 259.048 830.261 258.432C829.608 257.816 829.085 257.06 828.693 256.164C828.301 255.249 828.105 254.213 828.105 253.056ZM832.333 253.056C832.333 254.269 832.566 255.231 833.033 255.94C833.518 256.649 834.237 257.004 835.189 257.004C836.141 257.004 836.85 256.649 837.317 255.94C837.802 255.231 838.045 254.269 838.045 253.056C838.045 251.843 837.802 250.881 837.317 250.172C836.85 249.463 836.141 249.108 835.189 249.108C834.237 249.108 833.518 249.463 833.033 250.172C832.566 250.881 832.333 251.843 832.333 253.056ZM844.894 253.056C844.894 251.899 845.09 250.872 845.482 249.976C845.874 249.061 846.397 248.296 847.05 247.68C847.722 247.064 848.478 246.597 849.318 246.28C850.177 245.944 851.063 245.776 851.978 245.776C852.893 245.776 853.77 245.944 854.61 246.28C855.469 246.597 856.225 247.064 856.878 247.68C857.55 248.296 858.082 249.061 858.474 249.976C858.866 250.872 859.062 251.899 859.062 253.056C859.062 254.213 858.866 255.249 858.474 256.164C858.082 257.06 857.55 257.816 856.878 258.432C856.225 259.048 855.469 259.524 854.61 259.86C853.77 260.177 852.893 260.336 851.978 260.336C851.063 260.336 850.177 260.177 849.318 259.86C848.478 259.524 847.722 259.048 847.05 258.432C846.397 257.816 845.874 257.06 845.482 256.164C845.09 255.249 844.894 254.213 844.894 253.056ZM849.122 253.056C849.122 254.269 849.355 255.231 849.822 255.94C850.307 256.649 851.026 257.004 851.978 257.004C852.93 257.004 853.639 256.649 854.106 255.94C854.591 255.231 854.834 254.269 854.834 253.056C854.834 251.843 854.591 250.881 854.106 250.172C853.639 249.463 852.93 249.108 851.978 249.108C851.026 249.108 850.307 249.463 849.822 250.172C849.355 250.881 849.122 251.843 849.122 253.056ZM862.103 240.372H870.251V254.736C870.251 255.165 870.307 255.529 870.419 255.828C870.55 256.108 870.718 256.341 870.923 256.528C871.147 256.696 871.39 256.817 871.651 256.892C871.931 256.967 872.211 257.004 872.491 257.004C872.809 257.004 873.145 256.976 873.499 256.92C873.854 256.845 874.246 256.724 874.675 256.556L875.599 259.58C875.226 259.692 874.881 259.795 874.563 259.888C874.246 259.981 873.929 260.056 873.611 260.112C873.294 260.187 872.958 260.243 872.603 260.28C872.249 260.317 871.857 260.336 871.427 260.336C869.673 260.336 868.347 259.823 867.451 258.796C866.574 257.751 866.135 256.341 866.135 254.568V243.62H862.103V240.372Z" fill="#4F4F4F"/>
<g id="Group_2">
<rect width="289" height="42" fill="black" fill-opacity="0" transform="translate(14 96) scale(2)"/>
<path id="Rectangle_5" d="M14 96H592V180H14V96Z" fill="#F1F4F8"/>
<g id="num_bool = df[&#34;num&#34;] == 8">
<path d="M43.8198 112.798H46.4798L46.7318 114.87H46.8438C47.4972 114.216 48.2158 113.656 48.9998 113.19C49.8025 112.704 50.7358 112.462 51.7998 112.462C53.3865 112.462 54.5532 112.947 55.2998 113.918C56.0465 114.87 56.4198 116.242 56.4198 118.034V126.546H53.1718V118.454C53.1718 117.334 52.9758 116.522 52.5838 116.018C52.2105 115.495 51.5478 115.234 50.5958 115.234C49.9238 115.234 49.3265 115.392 48.8038 115.71C48.2812 116.027 47.7025 116.512 47.0678 117.166V126.546H43.8198V112.798ZM72.7329 126.546H70.1009L69.8489 124.362H69.7369C69.0836 125.127 68.3649 125.743 67.5809 126.21C66.7969 126.658 65.8916 126.882 64.8649 126.882C63.2596 126.882 62.0929 126.406 61.3649 125.454C60.6369 124.483 60.2729 123.102 60.2729 121.31V112.798H63.4929V120.89C63.4929 122.01 63.6796 122.831 64.0529 123.354C64.4449 123.858 65.1169 124.11 66.0689 124.11C66.7222 124.11 67.3009 123.96 67.8049 123.662C68.3276 123.363 68.8969 122.831 69.5129 122.066V112.798H72.7329V126.546ZM76.446 112.798H78.882L79.134 114.562H79.218C79.5353 113.964 79.918 113.47 80.366 113.078C80.8326 112.667 81.458 112.462 82.242 112.462C83.586 112.462 84.426 113.227 84.762 114.758C85.0793 114.104 85.4806 113.563 85.966 113.134C86.47 112.686 87.1046 112.462 87.87 112.462C88.8406 112.462 89.5873 112.844 90.11 113.61C90.6513 114.356 90.922 115.42 90.922 116.802V126.546H87.87V117.054C87.87 115.84 87.4873 115.234 86.722 115.234C86.3486 115.234 86.022 115.374 85.742 115.654C85.462 115.934 85.1913 116.363 84.93 116.942V126.546H82.41V117.054C82.41 115.84 82.018 115.234 81.234 115.234C80.8606 115.234 80.5433 115.374 80.282 115.654C80.0206 115.934 79.7593 116.363 79.498 116.942V126.546H76.446V112.798ZM107.011 128.282V130.802H93.571V128.282H107.011ZM110.976 106.778H114.224V111.874L114.112 114.282C114.709 113.722 115.381 113.283 116.128 112.966C116.875 112.63 117.621 112.462 118.368 112.462C119.264 112.462 120.057 112.63 120.748 112.966C121.439 113.283 122.027 113.75 122.512 114.366C122.997 114.963 123.361 115.691 123.604 116.55C123.865 117.408 123.996 118.37 123.996 119.434C123.996 120.61 123.828 121.664 123.492 122.598C123.156 123.512 122.699 124.287 122.12 124.922C121.56 125.556 120.907 126.042 120.16 126.378C119.432 126.714 118.676 126.882 117.892 126.882C117.239 126.882 116.557 126.723 115.848 126.406C115.139 126.088 114.485 125.631 113.888 125.034H113.804L113.524 126.546H110.976V106.778ZM114.224 122.962C114.728 123.428 115.251 123.755 115.792 123.942C116.333 124.128 116.819 124.222 117.248 124.222C118.219 124.222 119.031 123.83 119.684 123.046C120.337 122.243 120.664 121.058 120.664 119.49C120.664 118.108 120.412 117.035 119.908 116.27C119.404 115.504 118.592 115.122 117.472 115.122C116.949 115.122 116.417 115.252 115.876 115.514C115.335 115.775 114.784 116.195 114.224 116.774V122.962ZM126.953 119.686C126.953 118.547 127.14 117.53 127.513 116.634C127.905 115.738 128.418 114.982 129.053 114.366C129.688 113.75 130.425 113.283 131.265 112.966C132.105 112.63 132.973 112.462 133.869 112.462C134.765 112.462 135.633 112.63 136.473 112.966C137.313 113.283 138.05 113.75 138.685 114.366C139.32 114.982 139.824 115.738 140.197 116.634C140.589 117.53 140.785 118.547 140.785 119.686C140.785 120.824 140.589 121.842 140.197 122.738C139.824 123.634 139.32 124.39 138.685 125.006C138.05 125.622 137.313 126.088 136.473 126.406C135.633 126.723 134.765 126.882 133.869 126.882C132.973 126.882 132.105 126.723 131.265 126.406C130.425 126.088 129.688 125.622 129.053 125.006C128.418 124.39 127.905 123.634 127.513 122.738C127.14 121.842 126.953 120.824 126.953 119.686ZM130.285 119.686C130.285 121.067 130.602 122.178 131.237 123.018C131.872 123.839 132.749 124.25 133.869 124.25C134.989 124.25 135.866 123.839 136.501 123.018C137.136 122.178 137.453 121.067 137.453 119.686C137.453 118.286 137.136 117.175 136.501 116.354C135.866 115.514 134.989 115.094 133.869 115.094C132.749 115.094 131.872 115.514 131.237 116.354C130.602 117.175 130.285 118.286 130.285 119.686ZM143.742 119.686C143.742 118.547 143.929 117.53 144.302 116.634C144.694 115.738 145.208 114.982 145.842 114.366C146.477 113.75 147.214 113.283 148.054 112.966C148.894 112.63 149.762 112.462 150.658 112.462C151.554 112.462 152.422 112.63 153.262 112.966C154.102 113.283 154.84 113.75 155.474 114.366C156.109 114.982 156.613 115.738 156.986 116.634C157.378 117.53 157.574 118.547 157.574 119.686C157.574 120.824 157.378 121.842 156.986 122.738C156.613 123.634 156.109 124.39 155.474 125.006C154.84 125.622 154.102 126.088 153.262 126.406C152.422 126.723 151.554 126.882 150.658 126.882C149.762 126.882 148.894 126.723 148.054 126.406C147.214 126.088 146.477 125.622 145.842 125.006C145.208 124.39 144.694 123.634 144.302 122.738C143.929 121.842 143.742 120.824 143.742 119.686ZM147.074 119.686C147.074 121.067 147.392 122.178 148.026 123.018C148.661 123.839 149.538 124.25 150.658 124.25C151.778 124.25 152.656 123.839 153.29 123.018C153.925 122.178 154.242 121.067 154.242 119.686C154.242 118.286 153.925 117.175 153.29 116.354C152.656 115.514 151.778 115.094 150.658 115.094C149.538 115.094 148.661 115.514 148.026 116.354C147.392 117.175 147.074 118.286 147.074 119.686ZM161.035 106.778H168.595V121.702C168.595 122.635 168.829 123.298 169.295 123.69C169.762 124.063 170.35 124.25 171.059 124.25C171.731 124.25 172.515 124.072 173.411 123.718L174.167 126.098C173.514 126.322 172.898 126.508 172.319 126.658C171.759 126.807 171.078 126.882 170.275 126.882C168.651 126.882 167.429 126.415 166.607 125.482C165.786 124.548 165.375 123.232 165.375 121.534V109.326H161.035V106.778ZM194.809 112.994H207.241V115.346H194.809V112.994ZM194.809 119.238H207.241V121.59H194.809V119.238ZM227.688 119.686C227.688 118.566 227.856 117.558 228.192 116.662C228.528 115.766 228.976 115.01 229.536 114.394C230.114 113.778 230.768 113.302 231.496 112.966C232.224 112.63 232.98 112.462 233.764 112.462C234.585 112.462 235.285 112.611 235.864 112.91C236.461 113.19 237.04 113.582 237.6 114.086L237.46 111.762V106.778H240.708V126.546H238.048L237.796 124.95H237.712C237.17 125.491 236.536 125.948 235.808 126.322C235.098 126.695 234.352 126.882 233.568 126.882C232.69 126.882 231.888 126.723 231.16 126.406C230.432 126.07 229.806 125.594 229.284 124.978C228.78 124.362 228.388 123.615 228.108 122.738C227.828 121.842 227.688 120.824 227.688 119.686ZM231.02 119.658C231.02 121.151 231.309 122.29 231.888 123.074C232.466 123.839 233.288 124.222 234.352 124.222C235.49 124.222 236.526 123.671 237.46 122.57V116.382C236.974 115.915 236.489 115.588 236.004 115.402C235.518 115.215 235.024 115.122 234.52 115.122C234.034 115.122 233.577 115.224 233.148 115.43C232.737 115.635 232.373 115.934 232.056 116.326C231.738 116.699 231.486 117.166 231.3 117.726C231.113 118.286 231.02 118.93 231.02 119.658ZM258.617 109.578C258.113 109.372 257.618 109.223 257.133 109.13C256.666 109.036 256.153 108.99 255.593 108.99C254.529 108.99 253.754 109.251 253.269 109.774C252.802 110.278 252.569 111.015 252.569 111.986V112.798H257.805V115.346H252.569V126.546H249.377V115.346H245.569V112.938L249.377 112.798V112.042C249.377 111.239 249.489 110.492 249.713 109.802C249.937 109.111 250.282 108.523 250.749 108.038C251.234 107.534 251.841 107.142 252.569 106.862C253.315 106.582 254.193 106.442 255.201 106.442C255.947 106.442 256.657 106.507 257.329 106.638C258.019 106.768 258.673 106.955 259.289 107.198L258.617 109.578ZM265.746 106.722H273.754V108.486H268.238V129.038H273.754V130.802H265.746V106.722ZM368.86 129.038V108.486H363.372V106.722H371.38V130.802H363.372V129.038H368.86ZM396.278 112.994H408.71V115.346H396.278V112.994ZM396.278 119.238H408.71V121.59H396.278V119.238ZM413.067 112.994H425.499V115.346H413.067V112.994ZM413.067 119.238H425.499V121.59H413.067V119.238ZM449.109 121.646C449.109 122.542 449.464 123.26 450.173 123.802C450.883 124.324 451.807 124.586 452.945 124.586C454.028 124.586 454.877 124.352 455.493 123.886C456.109 123.419 456.417 122.766 456.417 121.926C456.417 121.422 456.287 120.992 456.025 120.638C455.783 120.283 455.437 119.975 454.989 119.714C454.56 119.452 454.047 119.219 453.449 119.014C452.852 118.79 452.199 118.556 451.489 118.314C450.799 118.724 450.229 119.2 449.781 119.742C449.333 120.264 449.109 120.899 449.109 121.646ZM454.205 116.494C455.381 115.542 455.969 114.515 455.969 113.414C455.969 112.63 455.708 111.986 455.185 111.482C454.663 110.959 453.907 110.698 452.917 110.698C452.077 110.698 451.387 110.912 450.845 111.342C450.323 111.752 450.061 112.35 450.061 113.134C450.061 113.582 450.164 113.974 450.369 114.31C450.575 114.646 450.864 114.944 451.237 115.206C451.611 115.448 452.049 115.682 452.553 115.906C453.057 116.111 453.608 116.307 454.205 116.494ZM446.253 121.982C446.253 121.403 446.347 120.88 446.533 120.414C446.739 119.947 447.009 119.536 447.345 119.182C447.681 118.808 448.064 118.482 448.493 118.202C448.941 117.903 449.399 117.642 449.865 117.418V117.306C449.119 116.82 448.484 116.242 447.961 115.57C447.457 114.898 447.205 114.086 447.205 113.134C447.205 112.406 447.345 111.752 447.625 111.174C447.924 110.595 448.325 110.1 448.829 109.69C449.352 109.279 449.959 108.962 450.649 108.738C451.359 108.514 452.133 108.402 452.973 108.402C454.747 108.402 456.137 108.84 457.145 109.718C458.172 110.595 458.685 111.762 458.685 113.218C458.685 114.058 458.424 114.823 457.901 115.514C457.379 116.204 456.753 116.792 456.025 117.278V117.39C456.511 117.632 456.959 117.894 457.369 118.174C457.799 118.454 458.163 118.78 458.461 119.154C458.779 119.508 459.021 119.928 459.189 120.414C459.376 120.88 459.469 121.422 459.469 122.038C459.469 122.728 459.32 123.372 459.021 123.97C458.741 124.548 458.321 125.062 457.761 125.51C457.201 125.939 456.511 126.275 455.689 126.518C454.868 126.76 453.935 126.882 452.889 126.882C451.863 126.882 450.939 126.76 450.117 126.518C449.296 126.275 448.596 125.939 448.017 125.51C447.457 125.08 447.019 124.567 446.701 123.97C446.403 123.372 446.253 122.71 446.253 121.982Z" fill="#2E383C"/>
<path d="M279.651 110.922L279.567 107.338H283.487L283.403 110.922L282.563 117.39H280.491L279.651 110.922ZM286.567 110.922L286.483 107.338H290.403L290.319 110.922L289.479 117.39H287.407L286.567 110.922ZM295.656 112.798H298.316L298.568 114.87H298.68C299.333 114.216 300.052 113.656 300.836 113.19C301.638 112.704 302.572 112.462 303.636 112.462C305.222 112.462 306.389 112.947 307.136 113.918C307.882 114.87 308.256 116.242 308.256 118.034V126.546H305.008V118.454C305.008 117.334 304.812 116.522 304.42 116.018C304.046 115.495 303.384 115.234 302.432 115.234C301.76 115.234 301.162 115.392 300.64 115.71C300.117 116.027 299.538 116.512 298.904 117.166V126.546H295.656V112.798ZM324.569 126.546H321.937L321.685 124.362H321.573C320.92 125.127 320.201 125.743 319.417 126.21C318.633 126.658 317.728 126.882 316.701 126.882C315.096 126.882 313.929 126.406 313.201 125.454C312.473 124.483 312.109 123.102 312.109 121.31V112.798H315.329V120.89C315.329 122.01 315.516 122.831 315.889 123.354C316.281 123.858 316.953 124.11 317.905 124.11C318.558 124.11 319.137 123.96 319.641 123.662C320.164 123.363 320.733 122.831 321.349 122.066V112.798H324.569V126.546ZM328.282 112.798H330.718L330.97 114.562H331.054C331.371 113.964 331.754 113.47 332.202 113.078C332.669 112.667 333.294 112.462 334.078 112.462C335.422 112.462 336.262 113.227 336.598 114.758C336.915 114.104 337.317 113.563 337.802 113.134C338.306 112.686 338.941 112.462 339.706 112.462C340.677 112.462 341.423 112.844 341.946 113.61C342.487 114.356 342.758 115.42 342.758 116.802V126.546H339.706V117.054C339.706 115.84 339.323 115.234 338.558 115.234C338.185 115.234 337.858 115.374 337.578 115.654C337.298 115.934 337.027 116.363 336.766 116.942V126.546H334.246V117.054C334.246 115.84 333.854 115.234 333.07 115.234C332.697 115.234 332.379 115.374 332.118 115.654C331.857 115.934 331.595 116.363 331.334 116.942V126.546H328.282V112.798ZM346.807 110.922L346.723 107.338H350.643L350.559 110.922L349.719 117.39H347.647L346.807 110.922ZM353.723 110.922L353.639 107.338H357.559L357.475 110.922L356.635 117.39H354.563L353.723 110.922Z" fill="#B82629"/>
</g>
</g>
<path id="x" d="M736.932 94.6074L740.213 89.207H743.166L738.326 96.5215L743.316 104H740.391L736.973 98.4629L733.555 104H730.615L735.605 96.5215L730.766 89.207H733.691L736.932 94.6074Z" fill="#828282"/>
<path id="y" d="M737.123 156.295L740.568 145.207H743.275L737.328 162.283C736.408 164.744 734.945 165.975 732.939 165.975L732.461 165.934L731.518 165.756V163.705L732.201 163.76C733.058 163.76 733.723 163.587 734.197 163.24C734.68 162.894 735.077 162.26 735.387 161.34L735.947 159.836L730.67 145.207H733.432L737.123 156.295Z" fill="#828282"/>
<path id="z" d="M734.348 209.936H743.002V212H731.258V210.141L739.42 199.299H731.381V197.207H742.592V198.998L734.348 209.936Z" fill="#828282"/>
<path id="w" d="M741.484 50.5137L744.328 39.207H746.857L742.551 54H740.5L736.904 42.7891L733.404 54H731.354L727.061 39.207H729.576L732.488 50.2812L735.934 39.207H737.971L741.484 50.5137Z" fill="#828282"/>
</g>
</svg>
