<svg width="1120" height="312" viewBox="0 0 1120 312" version="1.1" xmlns="http://www.w3.org/2000/svg" xmlns:xlink="http://www.w3.org/1999/xlink">
<title>Frame</title>
<desc>Created using Figma</desc>
<g id="Canvas" transform="matrix(2 0 0 2 264 1718)">
<clipPath id="clip-0" clip-rule="evenodd">
<path d="M -132 -859L 428 -859L 428 -703L -132 -703L -132 -859Z" fill="#FFFFFF"/>
</clipPath>
<g id="Frame" clip-path="url(#clip-0)">
<path d="M -132 -859L 428 -859L 428 -703L -132 -703L -132 -859Z" fill="#FFFFFF"/>
<g id="Group">
<g id="Rectangle">
<use xlink:href="#path0_stroke" transform="translate(140 -837)"/>
</g>
<g id="12">
<use xlink:href="#path1_fill" transform="translate(140.841 -831.7)"/>
</g>
<g id="Rectangle">
<use xlink:href="#path0_stroke" transform="translate(140 -810.5)"/>
</g>
<g id="8">
<use xlink:href="#path2_fill" transform="translate(140.841 -805.2)"/>
</g>
<g id="Rectangle">
<use xlink:href="#path0_stroke" transform="translate(140 -784)"/>
</g>
<g id="5">
<use xlink:href="#path3_fill" transform="translate(140.841 -778.7)"/>
</g>
<g id="Rectangle">
<use xlink:href="#path0_stroke" transform="translate(140 -757.5)"/>
</g>
<g id="8">
<use xlink:href="#path2_fill" transform="translate(140.841 -752.2)"/>
</g>
<g id="num">
<use xlink:href="#path4_fill" transform="translate(140 -855)" fill="#828282"/>
</g>
<g id="x">
<use xlink:href="#path5_fill" transform="translate(66 -807)" fill="#828282"/>
</g>
<g id="y">
<use xlink:href="#path6_fill" transform="translate(66 -779)" fill="#828282"/>
</g>
<g id="z">
<use xlink:href="#path7_fill" transform="translate(66 -753)" fill="#828282"/>
</g>
<g id="w">
<use xlink:href="#path8_fill" transform="translate(66 -832)" fill="#828282"/>
</g>
<g id="Rectangle">
<use xlink:href="#path9_stroke" transform="translate(84 -837)"/>
</g>
<g id="Kylie">
<use xlink:href="#path10_fill" transform="translate(85.2727 -831.7)"/>
</g>
<g id="Rectangle">
<use xlink:href="#path9_stroke" transform="translate(84 -810.5)"/>
</g>
<g id="Rahul">
<use xlink:href="#path11_fill" transform="translate(85.2727 -805.2)"/>
</g>
<g id="Rectangle">
<use xlink:href="#path9_stroke" transform="translate(84 -784)"/>
</g>
<g id="Michael">
<use xlink:href="#path12_fill" transform="translate(85.2727 -778.7)"/>
</g>
<g id="Rectangle">
<use xlink:href="#path9_stroke" transform="translate(84 -757.5)"/>
</g>
<g id="Sarah">
<use xlink:href="#path13_fill" transform="translate(85.2727 -752.2)"/>
</g>
<g id="name">
<use xlink:href="#path14_fill" transform="translate(83 -855)" fill="#828282"/>
</g>
</g>
<g id="df">
<use xlink:href="#path15_fill" transform="translate(103 -726)" fill="#4F4F4F"/>
</g>
</g>
</g>
<defs>
<path id="path0_stroke" d="M 0 0L 0 -0.5L -0.5 -0.5L -0.5 0L 0 0ZM 37 0L 37.5 0L 37.5 -0.5L 37 -0.5L 37 0ZM 37 26.5L 37 27L 37.5 27L 37.5 26.5L 37 26.5ZM 0 26.5L -0.5 26.5L -0.5 27L 0 27L 0 26.5ZM 0 0.5L 37 0.5L 37 -0.5L 0 -0.5L 0 0.5ZM 36.5 0L 36.5 26.5L 37.5 26.5L 37.5 0L 36.5 0ZM 37 26L 0 26L 0 27L 37 27L 37 26ZM 0.5 26.5L 0.5 0L -0.5 0L -0.5 26.5L 0.5 26.5Z"/>
<path id="path1_fill" d="M 14.9914 13L 13.7199 13L 13.7199 4.57129L 11.1701 5.50781L 11.1701 4.35938L 14.7931 2.99902L 14.9914 2.99902L 14.9914 13ZM 25.218 13L 18.6965 13L 18.6965 12.0908L 22.1418 8.2627C 22.6522 7.68392 23.0031 7.21452 23.1945 6.85449C 23.3905 6.48991 23.4885 6.11393 23.4885 5.72656C 23.4885 5.20703 23.3312 4.78092 23.0168 4.44824C 22.7023 4.11556 22.2831 3.94922 21.759 3.94922C 21.1301 3.94922 20.6402 4.12923 20.2892 4.48926C 19.9429 4.84473 19.7697 5.34147 19.7697 5.97949L 18.5051 5.97949C 18.5051 5.06348 18.799 4.32292 19.3869 3.75781C 19.9793 3.19271 20.77 2.91016 21.759 2.91016C 22.6841 2.91016 23.4155 3.15397 23.9533 3.6416C 24.4911 4.12467 24.7599 4.76953 24.7599 5.57617C 24.7599 6.55599 24.1356 7.72266 22.8869 9.07617L 20.2209 11.9678L 25.218 11.9678L 25.218 13Z"/>
<path id="path2_fill" d="M 20.8019 5.64453C 20.8019 6.14128 20.6698 6.58333 20.4055 6.9707C 20.1457 7.35807 19.7925 7.66113 19.3459 7.87988C 19.8654 8.10319 20.2756 8.42904 20.5763 8.85742C 20.8817 9.28581 21.0344 9.77116 21.0344 10.3135C 21.0344 11.1748 20.7427 11.8607 20.1594 12.3711C 19.5806 12.8815 18.8172 13.1367 17.8693 13.1367C 16.9123 13.1367 16.1444 12.8815 15.5656 12.3711C 14.9914 11.8561 14.7043 11.1702 14.7043 10.3135C 14.7043 9.77572 14.8501 9.29036 15.1418 8.85742C 15.438 8.42448 15.8459 8.09635 16.3654 7.87305C 15.9234 7.6543 15.5747 7.35124 15.3195 6.96387C 15.0643 6.5765 14.9367 6.13672 14.9367 5.64453C 14.9367 4.80599 15.2056 4.14062 15.7433 3.64844C 16.2811 3.15625 16.9898 2.91016 17.8693 2.91016C 18.7443 2.91016 19.4507 3.15625 19.9885 3.64844C 20.5308 4.14062 20.8019 4.80599 20.8019 5.64453ZM 19.7697 10.2861C 19.7697 9.73014 19.592 9.27669 19.2365 8.92578C 18.8856 8.57487 18.4253 8.39941 17.8556 8.39941C 17.286 8.39941 16.828 8.57259 16.4816 8.91895C 16.1398 9.2653 15.9689 9.72103 15.9689 10.2861C 15.9689 10.8512 16.1353 11.2956 16.468 11.6191C 16.8052 11.9427 17.2723 12.1045 17.8693 12.1045C 18.4618 12.1045 18.9266 11.9427 19.2638 11.6191C 19.6011 11.291 19.7697 10.8467 19.7697 10.2861ZM 17.8693 3.94922C 17.3726 3.94922 16.9693 4.10417 16.6594 4.41406C 16.354 4.7194 16.2013 5.13639 16.2013 5.66504C 16.2013 6.1709 16.3517 6.58105 16.6525 6.89551C 16.9579 7.2054 17.3635 7.36035 17.8693 7.36035C 18.3752 7.36035 18.7785 7.2054 19.0793 6.89551C 19.3846 6.58105 19.5373 6.1709 19.5373 5.66504C 19.5373 5.15918 19.3801 4.74674 19.0656 4.42773C 18.7512 4.10872 18.3524 3.94922 17.8693 3.94922Z"/>
<path id="path3_fill" d="M 15.3469 8.00977L 15.8527 3.04688L 20.9523 3.04688L 20.9523 4.21582L 16.926 4.21582L 16.6252 6.92969C 17.1128 6.64258 17.6665 6.49902 18.2863 6.49902C 19.1932 6.49902 19.9133 6.7998 20.4465 7.40137C 20.9797 7.99837 21.2463 8.80729 21.2463 9.82812C 21.2463 10.8535 20.9683 11.6624 20.4123 12.2549C 19.8609 12.8428 19.0884 13.1367 18.0949 13.1367C 17.2153 13.1367 16.4976 12.8929 15.9416 12.4053C 15.3856 11.9176 15.0689 11.2432 14.9914 10.3818L 16.1877 10.3818C 16.2652 10.9515 16.468 11.3822 16.7961 11.6738C 17.1242 11.9609 17.5571 12.1045 18.0949 12.1045C 18.6828 12.1045 19.1431 11.904 19.4758 11.5029C 19.813 11.1019 19.9816 10.5482 19.9816 9.8418C 19.9816 9.17643 19.7993 8.64323 19.4347 8.24219C 19.0747 7.83659 18.5939 7.63379 17.9924 7.63379C 17.4409 7.63379 17.008 7.75456 16.6935 7.99609L 16.3586 8.26953L 15.3469 8.00977Z"/>
<path id="path4_fill" d="M 6.46548 5.60352L 6.50649 6.5332C 7.0716 5.82227 7.80988 5.4668 8.72134 5.4668C 10.2845 5.4668 11.0729 6.34863 11.0866 8.1123L 11.0866 13L 9.82192 13L 9.82192 8.10547C 9.81737 7.57227 9.69432 7.17806 9.45278 6.92285C 9.2158 6.66764 8.84438 6.54004 8.33852 6.54004C 7.92837 6.54004 7.56834 6.64941 7.25845 6.86816C 6.94855 7.08691 6.70701 7.37402 6.53384 7.72949L 6.53384 13L 5.26919 13L 5.26919 5.60352L 6.46548 5.60352ZM 17.5602 12.2686C 17.068 12.8473 16.3457 13.1367 15.3932 13.1367C 14.6048 13.1367 14.0032 12.9089 13.5885 12.4531C 13.1784 11.9928 12.971 11.3138 12.9665 10.416L 12.9665 5.60352L 14.2311 5.60352L 14.2311 10.3818C 14.2311 11.5029 14.6868 12.0635 15.5983 12.0635C 16.5644 12.0635 17.207 11.7035 17.526 10.9834L 17.526 5.60352L 18.7907 5.60352L 18.7907 13L 17.5875 13L 17.5602 12.2686ZM 21.9079 5.60352L 21.942 6.42383C 22.4844 5.78581 23.2158 5.4668 24.1364 5.4668C 25.1709 5.4668 25.875 5.86328 26.2487 6.65625C 26.4948 6.30078 26.8138 6.01367 27.2057 5.79492C 27.6022 5.57617 28.0693 5.4668 28.6071 5.4668C 30.2295 5.4668 31.0543 6.32585 31.0817 8.04395L 31.0817 13L 29.817 13L 29.817 8.11914C 29.817 7.59049 29.6963 7.19629 29.4547 6.93652C 29.2132 6.6722 28.8076 6.54004 28.2379 6.54004C 27.7685 6.54004 27.3789 6.68132 27.069 6.96387C 26.7591 7.24186 26.5791 7.61784 26.529 8.0918L 26.529 13L 25.2575 13L 25.2575 8.15332C 25.2575 7.0778 24.7311 6.54004 23.6784 6.54004C 22.8489 6.54004 22.2816 6.89323 21.9762 7.59961L 21.9762 13L 20.7116 13L 20.7116 5.60352L 21.9079 5.60352Z"/>
<path id="path5_fill" d="M 8.46582 8.30371L 10.1064 5.60352L 11.583 5.60352L 9.16309 9.26074L 11.6582 13L 10.1953 13L 8.48633 10.2314L 6.77734 13L 5.30762 13L 7.80273 9.26074L 5.38281 5.60352L 6.8457 5.60352L 8.46582 8.30371Z"/>
<path id="path6_fill" d="M 8.56152 11.1475L 10.2842 5.60352L 11.6377 5.60352L 8.66406 14.1416C 8.20378 15.3721 7.47233 15.9873 6.46973 15.9873L 6.23047 15.9668L 5.75879 15.8779L 5.75879 14.8525L 6.10059 14.8799C 6.52897 14.8799 6.86165 14.7933 7.09863 14.6201C 7.34017 14.4469 7.53841 14.1302 7.69336 13.6699L 7.97363 12.918L 5.33496 5.60352L 6.71582 5.60352L 8.56152 11.1475Z"/>
<path id="path7_fill" d="M 7.17383 11.9678L 11.501 11.9678L 11.501 13L 5.62891 13L 5.62891 12.0703L 9.70996 6.64941L 5.69043 6.64941L 5.69043 5.60352L 11.2959 5.60352L 11.2959 6.49902L 7.17383 11.9678Z"/>
<path id="path8_fill" d="M 10.7422 11.2568L 12.1641 5.60352L 13.4287 5.60352L 11.2754 13L 10.25 13L 8.45215 7.39453L 6.70215 13L 5.67676 13L 3.53027 5.60352L 4.78809 5.60352L 6.24414 11.1406L 7.9668 5.60352L 8.98535 5.60352L 10.7422 11.2568Z"/>
<path id="path9_stroke" d="M 0 0L 0 -0.5L -0.5 -0.5L -0.5 0L 0 0ZM 56 0L 56.5 0L 56.5 -0.5L 56 -0.5L 56 0ZM 56 26.5L 56 27L 56.5 27L 56.5 26.5L 56 26.5ZM 0 26.5L -0.5 26.5L -0.5 27L 0 27L 0 26.5ZM 0 0.5L 56 0.5L 56 -0.5L 0 -0.5L 0 0.5ZM 55.5 0L 55.5 26.5L 56.5 26.5L 56.5 0L 55.5 0ZM 56 26L 0 26L 0 27L 56 27L 56 26ZM 0.5 26.5L 0.5 0L -0.5 0L -0.5 26.5L 0.5 26.5Z"/>
<path id="path10_fill" d="M 16.0464 8.37207L 14.8296 9.63672L 14.8296 13L 13.5171 13L 13.5171 3.04688L 14.8296 3.04688L 14.8296 7.96875L 19.2525 3.04688L 20.8384 3.04688L 16.9214 7.44238L 21.146 13L 19.5738 13L 16.0464 8.37207ZM 24.2427 11.1475L 25.9654 5.60352L 27.3189 5.60352L 24.3453 14.1416C 23.885 15.3721 23.1535 15.9873 22.1509 15.9873L 21.9117 15.9668L 21.44 15.8779L 21.44 14.8525L 21.7818 14.8799C 22.2102 14.8799 22.5428 14.7933 22.7798 14.6201C 23.0214 14.4469 23.2196 14.1302 23.3746 13.6699L 23.6548 12.918L 21.0162 5.60352L 22.397 5.60352L 24.2427 11.1475ZM 29.8277 13L 28.563 13L 28.563 2.5L 29.8277 2.5L 29.8277 13ZM 33.232 13L 31.9673 13L 31.9673 5.60352L 33.232 5.60352L 33.232 13ZM 31.8648 3.6416C 31.8648 3.43652 31.9263 3.26335 32.0494 3.12207C 32.177 2.98079 32.3638 2.91016 32.6099 2.91016C 32.856 2.91016 33.0428 2.98079 33.1705 3.12207C 33.2981 3.26335 33.3619 3.43652 33.3619 3.6416C 33.3619 3.84668 33.2981 4.01758 33.1705 4.1543C 33.0428 4.29102 32.856 4.35938 32.6099 4.35938C 32.3638 4.35938 32.177 4.29102 32.0494 4.1543C 31.9263 4.01758 31.8648 3.84668 31.8648 3.6416ZM 38.3316 13.1367C 37.329 13.1367 36.5132 12.8086 35.8843 12.1523C 35.2554 11.4915 34.941 10.6097 34.941 9.50684L 34.941 9.27441C 34.941 8.54069 35.08 7.88672 35.358 7.3125C 35.6405 6.73372 36.0324 6.28255 36.5337 5.95898C 37.0396 5.63086 37.5865 5.4668 38.1744 5.4668C 39.136 5.4668 39.8833 5.78353 40.4165 6.41699C 40.9498 7.05046 41.2164 7.95736 41.2164 9.1377L 41.2164 9.66406L 36.2056 9.66406C 36.2238 10.3932 36.4358 10.9834 36.8414 11.4346C 37.2515 11.8812 37.771 12.1045 38.3999 12.1045C 38.8466 12.1045 39.2248 12.0133 39.5347 11.8311C 39.8446 11.6488 40.1158 11.4072 40.3482 11.1064L 41.1207 11.708C 40.5009 12.6605 39.5712 13.1367 38.3316 13.1367ZM 38.1744 6.50586C 37.6639 6.50586 37.2356 6.69271 36.8892 7.06641C 36.5429 7.43555 36.3287 7.95508 36.2466 8.625L 39.9517 8.625L 39.9517 8.5293C 39.9152 7.88672 39.7421 7.38997 39.4322 7.03906C 39.1223 6.68359 38.703 6.50586 38.1744 6.50586Z"/>
<path id="path11_fill" d="M 14.3101 8.97363L 11.9722 8.97363L 11.9722 13L 10.6529 13L 10.6529 3.04688L 13.9478 3.04688C 15.0689 3.04688 15.9302 3.30208 16.5318 3.8125C 17.1379 4.32292 17.441 5.06576 17.441 6.04102C 17.441 6.66081 17.2723 7.20085 16.9351 7.66113C 16.6024 8.12142 16.1376 8.46549 15.5406 8.69336L 17.8785 12.918L 17.8785 13L 16.4703 13L 14.3101 8.97363ZM 11.9722 7.90039L 13.9888 7.90039C 14.6405 7.90039 15.1578 7.73177 15.5406 7.39453C 15.9279 7.05729 16.1216 6.60612 16.1216 6.04102C 16.1216 5.42578 15.9371 4.9541 15.5679 4.62598C 15.2033 4.29785 14.6747 4.13151 13.982 4.12695L 11.9722 4.12695L 11.9722 7.90039ZM 23.6548 13C 23.5819 12.8542 23.5227 12.5944 23.4771 12.2207C 22.8892 12.8314 22.1874 13.1367 21.3716 13.1367C 20.6425 13.1367 20.0432 12.9316 19.5738 12.5215C 19.1089 12.1068 18.8765 11.5827 18.8765 10.9492C 18.8765 10.179 19.1682 9.58203 19.7515 9.1582C 20.3394 8.72982 21.1643 8.51562 22.2261 8.51562L 23.4566 8.51562L 23.4566 7.93457C 23.4566 7.49251 23.3244 7.1416 23.0601 6.88184C 22.7958 6.61751 22.4061 6.48535 21.8912 6.48535C 21.44 6.48535 21.0617 6.59928 20.7564 6.82715C 20.4511 7.05501 20.2984 7.33073 20.2984 7.6543L 19.0269 7.6543C 19.0269 7.28516 19.1568 6.92969 19.4165 6.58789C 19.6809 6.24154 20.0363 5.9681 20.483 5.76758C 20.9341 5.56706 21.4286 5.4668 21.9664 5.4668C 22.8186 5.4668 23.4862 5.68099 23.9693 6.10938C 24.4524 6.5332 24.703 7.11882 24.7212 7.86621L 24.7212 11.2705C 24.7212 11.9495 24.8078 12.4896 24.981 12.8906L 24.981 13L 23.6548 13ZM 21.5562 12.0361C 21.9527 12.0361 22.3287 11.9336 22.6841 11.7285C 23.0396 11.5234 23.2971 11.2568 23.4566 10.9287L 23.4566 9.41113L 22.4654 9.41113C 20.9159 9.41113 20.1412 9.86458 20.1412 10.7715C 20.1412 11.168 20.2733 11.4779 20.5376 11.7012C 20.802 11.9245 21.1415 12.0361 21.5562 12.0361ZM 27.9683 6.49902C 28.5289 5.81087 29.258 5.4668 30.1558 5.4668C 31.719 5.4668 32.5074 6.34863 32.521 8.1123L 32.521 13L 31.2564 13L 31.2564 8.10547C 31.2518 7.57227 31.1288 7.17806 30.8873 6.92285C 30.6503 6.66764 30.2789 6.54004 29.773 6.54004C 29.3628 6.54004 29.0028 6.64941 28.6929 6.86816C 28.383 7.08691 28.1415 7.37402 27.9683 7.72949L 27.9683 13L 26.7037 13L 26.7037 2.5L 27.9683 2.5L 27.9683 6.49902ZM 38.981 12.2686C 38.4888 12.8473 37.7665 13.1367 36.814 13.1367C 36.0256 13.1367 35.424 12.9089 35.0093 12.4531C 34.5992 11.9928 34.3918 11.3138 34.3873 10.416L 34.3873 5.60352L 35.6519 5.60352L 35.6519 10.3818C 35.6519 11.5029 36.1076 12.0635 37.0191 12.0635C 37.9852 12.0635 38.6278 11.7035 38.9468 10.9834L 38.9468 5.60352L 40.2115 5.60352L 40.2115 13L 39.0083 13L 38.981 12.2686ZM 43.5132 13L 42.2486 13L 42.2486 2.5L 43.5132 2.5L 43.5132 13Z"/>
<path id="path12_fill" d="M 5.34135 3.04688L 8.59526 11.168L 11.8492 3.04688L 13.5513 3.04688L 13.5513 13L 12.2388 13L 12.2388 9.12402L 12.3619 4.94043L 9.09428 13L 8.0894 13L 4.82866 4.96094L 4.95854 9.12402L 4.95854 13L 3.64604 13L 3.64604 3.04688L 5.34135 3.04688ZM 17.0445 13L 15.7798 13L 15.7798 5.60352L 17.0445 5.60352L 17.0445 13ZM 15.6773 3.6416C 15.6773 3.43652 15.7388 3.26335 15.8619 3.12207C 15.9895 2.98079 16.1763 2.91016 16.4224 2.91016C 16.6685 2.91016 16.8553 2.98079 16.983 3.12207C 17.1106 3.26335 17.1744 3.43652 17.1744 3.6416C 17.1744 3.84668 17.1106 4.01758 16.983 4.1543C 16.8553 4.29102 16.6685 4.35938 16.4224 4.35938C 16.1763 4.35938 15.9895 4.29102 15.8619 4.1543C 15.7388 4.01758 15.6773 3.84668 15.6773 3.6416ZM 22.0415 12.1045C 22.4927 12.1045 22.8869 11.9678 23.2242 11.6943C 23.5614 11.4209 23.7483 11.0791 23.7847 10.6689L 24.981 10.6689C 24.9582 11.0928 24.8124 11.4961 24.5435 11.8789C 24.2746 12.2617 23.9146 12.5671 23.4634 12.7949C 23.0168 13.0228 22.5428 13.1367 22.0415 13.1367C 21.0344 13.1367 20.2323 12.8018 19.6353 12.1318C 19.0428 11.4574 18.7466 10.5368 18.7466 9.37012L 18.7466 9.1582C 18.7466 8.43815 18.8788 7.79785 19.1431 7.2373C 19.4074 6.67676 19.7857 6.24154 20.2779 5.93164C 20.7746 5.62174 21.3602 5.4668 22.0347 5.4668C 22.8641 5.4668 23.5523 5.71517 24.0992 6.21191C 24.6506 6.70866 24.9445 7.35352 24.981 8.14648L 23.7847 8.14648C 23.7483 7.66797 23.566 7.27604 23.2378 6.9707C 22.9143 6.66081 22.5132 6.50586 22.0347 6.50586C 21.3921 6.50586 20.8931 6.73828 20.5376 7.20312C 20.1867 7.66341 20.0113 8.33105 20.0113 9.20605L 20.0113 9.44531C 20.0113 10.2975 20.1867 10.9538 20.5376 11.4141C 20.8886 11.8743 21.3899 12.1045 22.0415 12.1045ZM 27.6675 6.49902C 28.2281 5.81087 28.9572 5.4668 29.855 5.4668C 31.4182 5.4668 32.2066 6.34863 32.2203 8.1123L 32.2203 13L 30.9556 13L 30.9556 8.10547C 30.9511 7.57227 30.828 7.17806 30.5865 6.92285C 30.3495 6.66764 29.9781 6.54004 29.4722 6.54004C 29.0621 6.54004 28.702 6.64941 28.3921 6.86816C 28.0822 7.08691 27.8407 7.37402 27.6675 7.72949L 27.6675 13L 26.4029 13L 26.4029 2.5L 27.6675 2.5L 27.6675 6.49902ZM 38.6802 13C 38.6073 12.8542 38.5481 12.5944 38.5025 12.2207C 37.9146 12.8314 37.2128 13.1367 36.397 13.1367C 35.6679 13.1367 35.0686 12.9316 34.5992 12.5215C 34.1343 12.1068 33.9019 11.5827 33.9019 10.9492C 33.9019 10.179 34.1936 9.58203 34.7769 9.1582C 35.3648 8.72982 36.1897 8.51562 37.2515 8.51562L 38.482 8.51562L 38.482 7.93457C 38.482 7.49251 38.3498 7.1416 38.0855 6.88184C 37.8212 6.61751 37.4315 6.48535 36.9165 6.48535C 36.4654 6.48535 36.0871 6.59928 35.7818 6.82715C 35.4764 7.05501 35.3238 7.33073 35.3238 7.6543L 34.0523 7.6543C 34.0523 7.28516 34.1822 6.92969 34.4419 6.58789C 34.7063 6.24154 35.0617 5.9681 35.5083 5.76758C 35.9595 5.56706 36.454 5.4668 36.9917 5.4668C 37.844 5.4668 38.5116 5.68099 38.9947 6.10938C 39.4777 6.5332 39.7284 7.11882 39.7466 7.86621L 39.7466 11.2705C 39.7466 11.9495 39.8332 12.4896 40.0064 12.8906L 40.0064 13L 38.6802 13ZM 36.5816 12.0361C 36.9781 12.0361 37.354 11.9336 37.7095 11.7285C 38.065 11.5234 38.3225 11.2568 38.482 10.9287L 38.482 9.41113L 37.4908 9.41113C 35.9413 9.41113 35.1665 9.86458 35.1665 10.7715C 35.1665 11.168 35.2987 11.4779 35.563 11.7012C 35.8274 11.9245 36.1669 12.0361 36.5816 12.0361ZM 44.7984 13.1367C 43.7958 13.1367 42.98 12.8086 42.3511 12.1523C 41.7222 11.4915 41.4078 10.6097 41.4078 9.50684L 41.4078 9.27441C 41.4078 8.54069 41.5468 7.88672 41.8248 7.3125C 42.1073 6.73372 42.4992 6.28255 43.0005 5.95898C 43.5064 5.63086 44.0533 5.4668 44.6412 5.4668C 45.6027 5.4668 46.3501 5.78353 46.8833 6.41699C 47.4165 7.05046 47.6832 7.95736 47.6832 9.1377L 47.6832 9.66406L 42.6724 9.66406C 42.6906 10.3932 42.9026 10.9834 43.3082 11.4346C 43.7183 11.8812 44.2378 12.1045 44.8667 12.1045C 45.3134 12.1045 45.6916 12.0133 46.0015 11.8311C 46.3114 11.6488 46.5826 11.4072 46.815 11.1064L 47.5874 11.708C 46.9677 12.6605 46.038 13.1367 44.7984 13.1367ZM 44.6412 6.50586C 44.1307 6.50586 43.7024 6.69271 43.356 7.06641C 43.0096 7.43555 42.7955 7.95508 42.7134 8.625L 46.4185 8.625L 46.4185 8.5293C 46.382 7.88672 46.2089 7.38997 45.899 7.03906C 45.5891 6.68359 45.1698 6.50586 44.6412 6.50586ZM 50.5269 13L 49.2623 13L 49.2623 2.5L 50.5269 2.5L 50.5269 13Z"/>
<path id="path13_fill" d="M 13.271 8.56348C 12.1454 8.23991 11.3251 7.84342 10.8101 7.37402C 10.2997 6.90007 10.0445 6.31673 10.0445 5.62402C 10.0445 4.84017 10.3567 4.19303 10.981 3.68262C 11.6099 3.16764 12.4257 2.91016 13.4283 2.91016C 14.1119 2.91016 14.7203 3.04232 15.2535 3.30664C 15.7912 3.57096 16.2059 3.93555 16.4976 4.40039C 16.7938 4.86523 16.9419 5.37337 16.9419 5.9248L 15.6226 5.9248C 15.6226 5.32324 15.4312 4.85156 15.0484 4.50977C 14.6656 4.16341 14.1255 3.99023 13.4283 3.99023C 12.7811 3.99023 12.2753 4.13379 11.9107 4.4209C 11.5507 4.70345 11.3706 5.09766 11.3706 5.60352C 11.3706 6.00911 11.5415 6.35319 11.8833 6.63574C 12.2297 6.91374 12.8153 7.16895 13.6402 7.40137C 14.4696 7.63379 15.1167 7.89128 15.5816 8.17383C 16.051 8.45182 16.3973 8.77767 16.6206 9.15137C 16.8485 9.52507 16.9624 9.96484 16.9624 10.4707C 16.9624 11.2773 16.648 11.9245 16.0191 12.4121C 15.3902 12.8952 14.5494 13.1367 13.4966 13.1367C 12.813 13.1367 12.175 13.0068 11.5826 12.7471C 10.9901 12.4827 10.5321 12.1227 10.2085 11.667C 9.88953 11.2113 9.73002 10.694 9.73002 10.1152L 11.0494 10.1152C 11.0494 10.7168 11.2704 11.193 11.7124 11.5439C 12.1591 11.8903 12.7538 12.0635 13.4966 12.0635C 14.1893 12.0635 14.7203 11.9222 15.0894 11.6396C 15.4585 11.3571 15.6431 10.972 15.6431 10.4844C 15.6431 9.99674 15.4722 9.62077 15.1304 9.35645C 14.7886 9.08757 14.1688 8.82324 13.271 8.56348ZM 23.0191 13C 22.9462 12.8542 22.8869 12.5944 22.8414 12.2207C 22.2535 12.8314 21.5516 13.1367 20.7359 13.1367C 20.0067 13.1367 19.4074 12.9316 18.938 12.5215C 18.4732 12.1068 18.2408 11.5827 18.2408 10.9492C 18.2408 10.179 18.5324 9.58203 19.1158 9.1582C 19.7037 8.72982 20.5285 8.51562 21.5904 8.51562L 22.8208 8.51562L 22.8208 7.93457C 22.8208 7.49251 22.6887 7.1416 22.4244 6.88184C 22.16 6.61751 21.7704 6.48535 21.2554 6.48535C 20.8042 6.48535 20.426 6.59928 20.1206 6.82715C 19.8153 7.05501 19.6626 7.33073 19.6626 7.6543L 18.3912 7.6543C 18.3912 7.28516 18.521 6.92969 18.7808 6.58789C 19.0451 6.24154 19.4006 5.9681 19.8472 5.76758C 20.2984 5.56706 20.7928 5.4668 21.3306 5.4668C 22.1828 5.4668 22.8505 5.68099 23.3335 6.10938C 23.8166 6.5332 24.0673 7.11882 24.0855 7.86621L 24.0855 11.2705C 24.0855 11.9495 24.1721 12.4896 24.3453 12.8906L 24.3453 13L 23.0191 13ZM 20.9205 12.0361C 21.3169 12.0361 21.6929 11.9336 22.0484 11.7285C 22.4039 11.5234 22.6613 11.2568 22.8208 10.9287L 22.8208 9.41113L 21.8296 9.41113C 20.2802 9.41113 19.5054 9.86458 19.5054 10.7715C 19.5054 11.168 19.6376 11.4779 19.9019 11.7012C 20.1662 11.9245 20.5057 12.0361 20.9205 12.0361ZM 29.6431 6.73828C 29.4517 6.70638 29.2443 6.69043 29.021 6.69043C 28.1916 6.69043 27.6288 7.04362 27.3326 7.75L 27.3326 13L 26.0679 13L 26.0679 5.60352L 27.2984 5.60352L 27.3189 6.45801C 27.7336 5.7972 28.3215 5.4668 29.0826 5.4668C 29.3287 5.4668 29.5155 5.4987 29.6431 5.5625L 29.6431 6.73828ZM 35.105 13C 35.0321 12.8542 34.9729 12.5944 34.9273 12.2207C 34.3394 12.8314 33.6376 13.1367 32.8218 13.1367C 32.0927 13.1367 31.4934 12.9316 31.024 12.5215C 30.5591 12.1068 30.3267 11.5827 30.3267 10.9492C 30.3267 10.179 30.6184 9.58203 31.2017 9.1582C 31.7896 8.72982 32.6145 8.51562 33.6763 8.51562L 34.9068 8.51562L 34.9068 7.93457C 34.9068 7.49251 34.7746 7.1416 34.5103 6.88184C 34.246 6.61751 33.8563 6.48535 33.3414 6.48535C 32.8902 6.48535 32.5119 6.59928 32.2066 6.82715C 31.9012 7.05501 31.7486 7.33073 31.7486 7.6543L 30.4771 7.6543C 30.4771 7.28516 30.607 6.92969 30.8667 6.58789C 31.1311 6.24154 31.4865 5.9681 31.9331 5.76758C 32.3843 5.56706 32.8788 5.4668 33.4165 5.4668C 34.2688 5.4668 34.9364 5.68099 35.4195 6.10938C 35.9026 6.5332 36.1532 7.11882 36.1714 7.86621L 36.1714 11.2705C 36.1714 11.9495 36.258 12.4896 36.4312 12.8906L 36.4312 13L 35.105 13ZM 33.0064 12.0361C 33.4029 12.0361 33.7789 11.9336 34.1343 11.7285C 34.4898 11.5234 34.7473 11.2568 34.9068 10.9287L 34.9068 9.41113L 33.9156 9.41113C 32.3661 9.41113 31.5914 9.86458 31.5914 10.7715C 31.5914 11.168 31.7235 11.4779 31.9878 11.7012C 32.2522 11.9245 32.5917 12.0361 33.0064 12.0361ZM 39.4185 6.49902C 39.979 5.81087 40.7082 5.4668 41.606 5.4668C 43.1692 5.4668 43.9576 6.34863 43.9712 8.1123L 43.9712 13L 42.7066 13L 42.7066 8.10547C 42.702 7.57227 42.579 7.17806 42.3374 6.92285C 42.1005 6.66764 41.729 6.54004 41.2232 6.54004C 40.813 6.54004 40.453 6.64941 40.1431 6.86816C 39.8332 7.08691 39.5917 7.37402 39.4185 7.72949L 39.4185 13L 38.1539 13L 38.1539 2.5L 39.4185 2.5L 39.4185 6.49902Z"/>
<path id="path14_fill" d="M 13.6328 5.60352L 13.6738 6.5332C 14.2389 5.82227 14.9772 5.4668 15.8887 5.4668C 17.4518 5.4668 18.2402 6.34863 18.2539 8.1123L 18.2539 13L 16.9893 13L 16.9893 8.10547C 16.9847 7.57227 16.8617 7.17806 16.6201 6.92285C 16.3831 6.66764 16.0117 6.54004 15.5059 6.54004C 15.0957 6.54004 14.7357 6.64941 14.4258 6.86816C 14.1159 7.08691 13.8743 7.37402 13.7012 7.72949L 13.7012 13L 12.4365 13L 12.4365 5.60352L 13.6328 5.60352ZM 24.7275 13C 24.6546 12.8542 24.5954 12.5944 24.5498 12.2207C 23.9619 12.8314 23.2601 13.1367 22.4443 13.1367C 21.7152 13.1367 21.1159 12.9316 20.6465 12.5215C 20.1816 12.1068 19.9492 11.5827 19.9492 10.9492C 19.9492 10.179 20.2409 9.58203 20.8242 9.1582C 21.4121 8.72982 22.237 8.51562 23.2988 8.51562L 24.5293 8.51562L 24.5293 7.93457C 24.5293 7.49251 24.3971 7.1416 24.1328 6.88184C 23.8685 6.61751 23.4788 6.48535 22.9639 6.48535C 22.5127 6.48535 22.1344 6.59928 21.8291 6.82715C 21.5238 7.05501 21.3711 7.33073 21.3711 7.6543L 20.0996 7.6543C 20.0996 7.28516 20.2295 6.92969 20.4893 6.58789C 20.7536 6.24154 21.109 5.9681 21.5557 5.76758C 22.0068 5.56706 22.5013 5.4668 23.0391 5.4668C 23.8913 5.4668 24.5589 5.68099 25.042 6.10938C 25.5251 6.5332 25.7757 7.11882 25.7939 7.86621L 25.7939 11.2705C 25.7939 11.9495 25.8805 12.4896 26.0537 12.8906L 26.0537 13L 24.7275 13ZM 22.6289 12.0361C 23.0254 12.0361 23.4014 11.9336 23.7568 11.7285C 24.1123 11.5234 24.3698 11.2568 24.5293 10.9287L 24.5293 9.41113L 23.5381 9.41113C 21.9886 9.41113 21.2139 9.86458 21.2139 10.7715C 21.2139 11.168 21.346 11.4779 21.6104 11.7012C 21.8747 11.9245 22.2142 12.0361 22.6289 12.0361ZM 28.9658 5.60352L 29 6.42383C 29.5423 5.78581 30.2738 5.4668 31.1943 5.4668C 32.2288 5.4668 32.9329 5.86328 33.3066 6.65625C 33.5527 6.30078 33.8717 6.01367 34.2637 5.79492C 34.6602 5.57617 35.1273 5.4668 35.665 5.4668C 37.2874 5.4668 38.1123 6.32585 38.1396 8.04395L 38.1396 13L 36.875 13L 36.875 8.11914C 36.875 7.59049 36.7542 7.19629 36.5127 6.93652C 36.2712 6.6722 35.8656 6.54004 35.2959 6.54004C 34.8265 6.54004 34.4368 6.68132 34.127 6.96387C 33.8171 7.24186 33.637 7.61784 33.5869 8.0918L 33.5869 13L 32.3154 13L 32.3154 8.15332C 32.3154 7.0778 31.7891 6.54004 30.7363 6.54004C 29.9069 6.54004 29.3395 6.89323 29.0342 7.59961L 29.0342 13L 27.7695 13L 27.7695 5.60352L 28.9658 5.60352ZM 43.123 13.1367C 42.1204 13.1367 41.3047 12.8086 40.6758 12.1523C 40.0469 11.4915 39.7324 10.6097 39.7324 9.50684L 39.7324 9.27441C 39.7324 8.54069 39.8714 7.88672 40.1494 7.3125C 40.432 6.73372 40.8239 6.28255 41.3252 5.95898C 41.8311 5.63086 42.3779 5.4668 42.9658 5.4668C 43.9274 5.4668 44.6748 5.78353 45.208 6.41699C 45.7412 7.05046 46.0078 7.95736 46.0078 9.1377L 46.0078 9.66406L 40.9971 9.66406C 41.0153 10.3932 41.2272 10.9834 41.6328 11.4346C 42.043 11.8812 42.5625 12.1045 43.1914 12.1045C 43.638 12.1045 44.0163 12.0133 44.3262 11.8311C 44.6361 11.6488 44.9072 11.4072 45.1396 11.1064L 45.9121 11.708C 45.2923 12.6605 44.3626 13.1367 43.123 13.1367ZM 42.9658 6.50586C 42.4554 6.50586 42.027 6.69271 41.6807 7.06641C 41.3343 7.43555 41.1201 7.95508 41.0381 8.625L 44.7432 8.625L 44.7432 8.5293C 44.7067 7.88672 44.5335 7.38997 44.2236 7.03906C 43.9137 6.68359 43.4945 6.50586 42.9658 6.50586Z"/>
<path id="path15_fill" d="M 14.7635 10.528C 14.7635 9.95867 14.8475 9.45 15.0155 9.002C 15.1835 8.554 15.4028 8.176 15.6735 7.868C 15.9535 7.55067 16.2708 7.308 16.6255 7.14C 16.9801 6.972 17.3488 6.888 17.7315 6.888C 18.1328 6.888 18.4688 6.958 18.7395 7.098C 19.0101 7.22867 19.2668 7.406 19.5095 7.63L 19.4395 6.552L 19.4395 4.186L 21.4975 4.186L 21.4975 14L 19.8175 14L 19.6635 13.286L 19.6215 13.286C 19.3601 13.538 19.0615 13.748 18.7255 13.916C 18.3895 14.084 18.0441 14.168 17.6895 14.168C 17.2508 14.168 16.8495 14.084 16.4855 13.916C 16.1308 13.748 15.8228 13.51 15.5615 13.202C 15.3095 12.8847 15.1135 12.502 14.9735 12.054C 14.8335 11.606 14.7635 11.0973 14.7635 10.528ZM 16.8775 10.5C 16.8775 11.1907 16.9941 11.6947 17.2275 12.012C 17.4608 12.3293 17.7921 12.488 18.2215 12.488C 18.4548 12.488 18.6695 12.4413 18.8655 12.348C 19.0615 12.2453 19.2528 12.0773 19.4395 11.844L 19.4395 9.03C 19.2528 8.862 19.0615 8.74533 18.8655 8.68C 18.6788 8.60533 18.4828 8.568 18.2775 8.568C 17.8948 8.568 17.5635 8.72667 17.2835 9.044C 17.0128 9.36133 16.8775 9.84667 16.8775 10.5ZM 30.298 5.908C 29.8407 5.73067 29.3553 5.642 28.842 5.642C 28.394 5.642 28.0627 5.74 27.848 5.936C 27.6427 6.132 27.54 6.44 27.54 6.86L 27.54 7.056L 29.934 7.056L 29.934 8.666L 27.54 8.666L 27.54 14L 25.482 14L 25.482 8.666L 23.648 8.666L 23.648 7.14L 25.482 7.056L 25.482 6.874C 25.482 6.47267 25.5427 6.09933 25.664 5.754C 25.7853 5.40867 25.972 5.11 26.224 4.858C 26.476 4.59667 26.798 4.39133 27.19 4.242C 27.582 4.09267 28.0487 4.018 28.59 4.018C 28.9913 4.018 29.3647 4.05533 29.71 4.13C 30.0647 4.20467 30.3913 4.29333 30.69 4.396L 30.298 5.908Z"/>
</defs>
</svg>
