<svg width="1120" height="400" viewBox="0 0 1120 400" fill="none" xmlns="http://www.w3.org/2000/svg">
<rect width="560" height="200" transform="scale(2)" fill="white"/>
<rect x="282" y="55.963" width="116" height="53.1482" stroke="black"/>
<path d="M320.112 91.9532V79.1154H317.775V77.1603H320.112V75.6427C320.112 74.0568 320.536 72.8309 321.384 71.965C322.232 71.0991 323.43 70.6661 324.98 70.6661C325.563 70.6661 326.142 70.7436 326.716 70.8986L326.579 72.9493C326.151 72.8673 325.695 72.8263 325.212 72.8263C324.392 72.8263 323.758 73.0678 323.312 73.5509C322.865 74.0249 322.642 74.7085 322.642 75.6017V77.1603H325.8V79.1154H322.642V91.9532H320.112ZM335.753 79.4298C335.37 79.366 334.956 79.3341 334.509 79.3341C332.85 79.3341 331.724 80.0405 331.132 81.4532V91.9532H328.603V77.1603H331.064L331.105 78.8693C331.934 77.5476 333.11 76.8868 334.632 76.8868C335.124 76.8868 335.498 76.9506 335.753 77.0782V79.4298ZM347.224 90.4904C346.239 91.6479 344.795 92.2267 342.89 92.2267C341.313 92.2267 340.11 91.771 339.28 90.8595C338.46 89.9389 338.045 88.5809 338.036 86.7853V77.1603H340.566V86.7169C340.566 88.9591 341.477 90.0802 343.3 90.0802C345.232 90.0802 346.517 89.3601 347.155 87.92V77.1603H349.685V91.9532H347.278L347.224 90.4904ZM356.288 91.9532H353.759V77.1603H356.288V91.9532ZM353.554 73.2365C353.554 72.8263 353.677 72.4799 353.923 72.1974C354.178 71.9148 354.552 71.7736 355.044 71.7736C355.536 71.7736 355.91 71.9148 356.165 72.1974C356.42 72.4799 356.548 72.8263 356.548 73.2365C356.548 73.6466 356.42 73.9884 356.165 74.2618C355.91 74.5353 355.536 74.672 355.044 74.672C354.552 74.672 354.178 74.5353 353.923 74.2618C353.677 73.9884 353.554 73.6466 353.554 73.2365ZM363.78 73.5782V77.1603H366.542V79.1154H363.78V88.2892C363.78 88.8816 363.903 89.3282 364.15 89.629C364.396 89.9207 364.815 90.0665 365.407 90.0665C365.699 90.0665 366.1 90.0118 366.61 89.9025V91.9532C365.945 92.1355 365.298 92.2267 364.669 92.2267C363.539 92.2267 362.687 91.8849 362.112 91.2013C361.538 90.5177 361.251 89.547 361.251 88.2892V79.1154H358.558V77.1603H361.251V73.5782H363.78Z" fill="black"/>
<rect x="282" y="109.111" width="116" height="53.1482" stroke="black"/>
<path d="M327.099 141.888L330.763 130.527H333.347L328.042 145.32H326.114L320.755 130.527H323.339L327.099 141.888ZM341.728 145.593C339.722 145.593 338.091 144.937 336.833 143.625C335.575 142.303 334.946 140.539 334.946 138.334V137.869C334.946 136.401 335.224 135.093 335.78 133.945C336.345 132.787 337.129 131.885 338.132 131.238C339.144 130.582 340.237 130.254 341.413 130.254C343.336 130.254 344.831 130.887 345.898 132.154C346.964 133.421 347.497 135.235 347.497 137.595V138.648H337.476C337.512 140.106 337.936 141.287 338.747 142.189C339.567 143.082 340.607 143.529 341.864 143.529C342.758 143.529 343.514 143.347 344.134 142.982C344.754 142.617 345.296 142.134 345.761 141.533L347.306 142.736C346.066 144.641 344.207 145.593 341.728 145.593ZM341.413 132.332C340.392 132.332 339.536 132.705 338.843 133.453C338.15 134.191 337.722 135.23 337.558 136.57H344.968V136.379C344.895 135.093 344.549 134.1 343.929 133.398C343.309 132.687 342.47 132.332 341.413 132.332ZM349.835 137.8C349.835 135.494 350.368 133.662 351.435 132.304C352.501 130.937 353.914 130.254 355.673 130.254C357.478 130.254 358.886 130.892 359.898 132.168L360.021 130.527H362.331V144.964C362.331 146.879 361.761 148.387 360.622 149.49C359.492 150.593 357.97 151.144 356.056 151.144C354.989 151.144 353.946 150.916 352.925 150.461C351.904 150.005 351.125 149.38 350.587 148.587L351.9 147.07C352.984 148.41 354.31 149.08 355.878 149.08C357.108 149.08 358.066 148.733 358.749 148.041C359.442 147.348 359.788 146.373 359.788 145.115V143.843C358.776 145.01 357.396 145.593 355.646 145.593C353.914 145.593 352.51 144.896 351.435 143.502C350.368 142.107 349.835 140.207 349.835 137.8ZM352.378 138.087C352.378 139.755 352.72 141.068 353.403 142.025C354.087 142.973 355.044 143.447 356.275 143.447C357.87 143.447 359.041 142.722 359.788 141.273V134.519C359.013 133.106 357.851 132.4 356.302 132.4C355.071 132.4 354.11 132.879 353.417 133.836C352.724 134.793 352.378 136.21 352.378 138.087Z" fill="black"/>
<rect x="282" y="162" width="116" height="54" stroke="black"/>
<path d="M320.223 198.646V185.808H317.886V183.853H320.223V182.336C320.223 180.75 320.647 179.524 321.495 178.658C322.343 177.792 323.541 177.359 325.091 177.359C325.674 177.359 326.253 177.436 326.827 177.591L326.69 179.642C326.262 179.56 325.806 179.519 325.323 179.519C324.503 179.519 323.869 179.761 323.423 180.244C322.976 180.718 322.753 181.401 322.753 182.294V183.853H325.911V185.808H322.753V198.646H320.223ZM335.864 186.123C335.481 186.059 335.067 186.027 334.62 186.027C332.961 186.027 331.835 186.733 331.243 188.146V198.646H328.714V183.853H331.175L331.216 185.562C332.045 184.24 333.221 183.58 334.743 183.58C335.235 183.58 335.609 183.643 335.864 183.771V186.123ZM347.335 197.183C346.35 198.341 344.906 198.919 343.001 198.919C341.424 198.919 340.221 198.464 339.391 197.552C338.571 196.632 338.156 195.274 338.147 193.478V183.853H340.677V193.41C340.677 195.652 341.588 196.773 343.411 196.773C345.343 196.773 346.628 196.053 347.266 194.613V183.853H349.796V198.646H347.39L347.335 197.183ZM356.399 198.646H353.87V183.853H356.399V198.646ZM353.665 179.929C353.665 179.519 353.788 179.173 354.034 178.89C354.289 178.608 354.663 178.466 355.155 178.466C355.647 178.466 356.021 178.608 356.276 178.89C356.531 179.173 356.659 179.519 356.659 179.929C356.659 180.339 356.531 180.681 356.276 180.955C356.021 181.228 355.647 181.365 355.155 181.365C354.663 181.365 354.289 181.228 354.034 180.955C353.788 180.681 353.665 180.339 353.665 179.929ZM363.891 180.271V183.853H366.653V185.808H363.891V194.982C363.891 195.574 364.015 196.021 364.261 196.322C364.507 196.614 364.926 196.759 365.518 196.759C365.81 196.759 366.211 196.705 366.722 196.595V198.646C366.056 198.828 365.409 198.919 364.78 198.919C363.65 198.919 362.798 198.578 362.223 197.894C361.649 197.211 361.362 196.24 361.362 194.982V185.808H358.669V183.853H361.362V180.271H363.891Z" fill="black"/>
<path d="M206.129 144.209C207.031 144.209 207.82 143.936 208.494 143.389C209.169 142.842 209.542 142.158 209.615 141.338H212.008C211.962 142.186 211.671 142.992 211.133 143.758C210.595 144.523 209.875 145.134 208.973 145.59C208.079 146.046 207.132 146.273 206.129 146.273C204.115 146.273 202.51 145.604 201.316 144.264C200.132 142.915 199.539 141.074 199.539 138.74V138.316C199.539 136.876 199.803 135.596 200.332 134.475C200.861 133.354 201.617 132.483 202.602 131.863C203.595 131.243 204.766 130.934 206.115 130.934C207.774 130.934 209.15 131.43 210.244 132.424C211.347 133.417 211.935 134.707 212.008 136.293H209.615C209.542 135.336 209.178 134.552 208.521 133.941C207.874 133.322 207.072 133.012 206.115 133.012C204.83 133.012 203.832 133.477 203.121 134.406C202.419 135.327 202.068 136.662 202.068 138.412V138.891C202.068 140.595 202.419 141.908 203.121 142.828C203.823 143.749 204.826 144.209 206.129 144.209ZM223.984 146C223.839 145.708 223.72 145.189 223.629 144.441C222.453 145.663 221.049 146.273 219.418 146.273C217.96 146.273 216.761 145.863 215.822 145.043C214.893 144.214 214.428 143.165 214.428 141.898C214.428 140.358 215.011 139.164 216.178 138.316C217.354 137.46 219.003 137.031 221.127 137.031H223.588V135.869C223.588 134.985 223.324 134.283 222.795 133.764C222.266 133.235 221.487 132.971 220.457 132.971C219.555 132.971 218.798 133.199 218.188 133.654C217.577 134.11 217.271 134.661 217.271 135.309H214.729C214.729 134.57 214.988 133.859 215.508 133.176C216.036 132.483 216.747 131.936 217.641 131.535C218.543 131.134 219.532 130.934 220.607 130.934C222.312 130.934 223.647 131.362 224.613 132.219C225.579 133.066 226.081 134.238 226.117 135.732V142.541C226.117 143.899 226.29 144.979 226.637 145.781V146H223.984ZM219.787 144.072C220.58 144.072 221.332 143.867 222.043 143.457C222.754 143.047 223.269 142.514 223.588 141.857V138.822H221.605C218.507 138.822 216.957 139.729 216.957 141.543C216.957 142.336 217.221 142.956 217.75 143.402C218.279 143.849 218.958 144.072 219.787 144.072ZM237.232 133.477C236.85 133.413 236.435 133.381 235.988 133.381C234.329 133.381 233.204 134.087 232.611 135.5V146H230.082V131.207H232.543L232.584 132.916C233.413 131.594 234.589 130.934 236.111 130.934C236.604 130.934 236.977 130.997 237.232 131.125V133.477ZM246.721 133.477C246.338 133.413 245.923 133.381 245.477 133.381C243.818 133.381 242.692 134.087 242.1 135.5V146H239.57V131.207H242.031L242.072 132.916C242.902 131.594 244.077 130.934 245.6 130.934C246.092 130.934 246.465 130.997 246.721 131.125V133.477ZM248.115 138.467C248.115 137.018 248.398 135.714 248.963 134.557C249.537 133.399 250.33 132.506 251.342 131.877C252.363 131.248 253.525 130.934 254.828 130.934C256.842 130.934 258.469 131.631 259.709 133.025C260.958 134.42 261.582 136.275 261.582 138.59V138.768C261.582 140.208 261.304 141.502 260.748 142.65C260.201 143.79 259.413 144.678 258.383 145.316C257.362 145.954 256.186 146.273 254.855 146.273C252.85 146.273 251.223 145.576 249.975 144.182C248.735 142.787 248.115 140.941 248.115 138.645V138.467ZM250.658 138.768C250.658 140.408 251.036 141.725 251.793 142.719C252.559 143.712 253.579 144.209 254.855 144.209C256.141 144.209 257.161 143.708 257.918 142.705C258.674 141.693 259.053 140.281 259.053 138.467C259.053 136.844 258.665 135.532 257.891 134.529C257.125 133.518 256.104 133.012 254.828 133.012C253.579 133.012 252.572 133.508 251.807 134.502C251.041 135.495 250.658 136.917 250.658 138.768ZM268.186 127.625V131.207H270.947V133.162H268.186V142.336C268.186 142.928 268.309 143.375 268.555 143.676C268.801 143.967 269.22 144.113 269.812 144.113C270.104 144.113 270.505 144.059 271.016 143.949V146C270.35 146.182 269.703 146.273 269.074 146.273C267.944 146.273 267.092 145.932 266.518 145.248C265.943 144.564 265.656 143.594 265.656 142.336V133.162H262.963V131.207H265.656V127.625H268.186Z" fill="#F2994A"/>
<path d="M223.754 198.593H221.224V177.593H223.754V198.593ZM230.562 198.593H228.033V183.8H230.562V198.593ZM227.828 179.876C227.828 179.466 227.951 179.119 228.197 178.837C228.452 178.554 228.826 178.413 229.318 178.413C229.81 178.413 230.184 178.554 230.439 178.837C230.694 179.119 230.822 179.466 230.822 179.876C230.822 180.286 230.694 180.628 230.439 180.901C230.184 181.175 229.81 181.311 229.318 181.311C228.826 181.311 228.452 181.175 228.197 180.901C227.951 180.628 227.828 180.286 227.828 179.876ZM237.002 183.8L237.07 185.44C238.155 184.164 239.618 183.526 241.459 183.526C243.528 183.526 244.936 184.319 245.683 185.905C246.176 185.194 246.814 184.62 247.597 184.182C248.39 183.745 249.325 183.526 250.4 183.526C253.645 183.526 255.295 185.244 255.349 188.68V198.593H252.82V188.831C252.82 187.774 252.579 186.985 252.095 186.466C251.612 185.937 250.801 185.673 249.662 185.673C248.723 185.673 247.944 185.955 247.324 186.52C246.704 187.076 246.344 187.828 246.244 188.776V198.593H243.701V188.899C243.701 186.748 242.648 185.673 240.543 185.673C238.884 185.673 237.749 186.379 237.138 187.792V198.593H234.609V183.8H237.002ZM265.316 198.866C263.311 198.866 261.679 198.21 260.422 196.897C259.164 195.576 258.535 193.812 258.535 191.606V191.141C258.535 189.674 258.813 188.366 259.369 187.218C259.934 186.06 260.718 185.158 261.72 184.511C262.732 183.854 263.826 183.526 265.002 183.526C266.925 183.526 268.42 184.16 269.486 185.427C270.553 186.694 271.086 188.507 271.086 190.868V191.921H261.064C261.101 193.379 261.525 194.559 262.336 195.462C263.156 196.355 264.195 196.802 265.453 196.802C266.346 196.802 267.103 196.619 267.722 196.255C268.342 195.89 268.885 195.407 269.349 194.805L270.894 196.009C269.655 197.914 267.795 198.866 265.316 198.866ZM265.002 185.604C263.981 185.604 263.124 185.978 262.431 186.725C261.739 187.464 261.31 188.503 261.146 189.843H268.556V189.651C268.483 188.366 268.137 187.373 267.517 186.671C266.898 185.96 266.059 185.604 265.002 185.604Z" fill="#27AE60"/>
<path d="M387.018 347.816C386.103 347.461 385.133 347.284 384.106 347.284C383.21 347.284 382.547 347.48 382.118 347.872C381.707 348.264 381.502 348.88 381.502 349.72V350.112H386.29V353.332H381.502V364H377.386V353.332H373.718V350.28L377.386 350.112V349.748C377.386 348.945 377.507 348.199 377.75 347.508C377.993 346.817 378.366 346.22 378.87 345.716C379.374 345.193 380.018 344.783 380.802 344.484C381.586 344.185 382.519 344.036 383.602 344.036C384.405 344.036 385.151 344.111 385.842 344.26C386.551 344.409 387.205 344.587 387.802 344.792L387.018 347.816ZM389.527 357.056C389.527 355.899 389.723 354.872 390.115 353.976C390.507 353.061 391.03 352.296 391.683 351.68C392.355 351.064 393.111 350.597 393.951 350.28C394.81 349.944 395.696 349.776 396.611 349.776C397.526 349.776 398.403 349.944 399.243 350.28C400.102 350.597 400.858 351.064 401.511 351.68C402.183 352.296 402.715 353.061 403.107 353.976C403.499 354.872 403.695 355.899 403.695 357.056C403.695 358.213 403.499 359.249 403.107 360.164C402.715 361.06 402.183 361.816 401.511 362.432C400.858 363.048 400.102 363.524 399.243 363.86C398.403 364.177 397.526 364.336 396.611 364.336C395.696 364.336 394.81 364.177 393.951 363.86C393.111 363.524 392.355 363.048 391.683 362.432C391.03 361.816 390.507 361.06 390.115 360.164C389.723 359.249 389.527 358.213 389.527 357.056ZM393.755 357.056C393.755 358.269 393.988 359.231 394.455 359.94C394.94 360.649 395.659 361.004 396.611 361.004C397.563 361.004 398.272 360.649 398.739 359.94C399.224 359.231 399.467 358.269 399.467 357.056C399.467 355.843 399.224 354.881 398.739 354.172C398.272 353.463 397.563 353.108 396.611 353.108C395.659 353.108 394.94 353.463 394.455 354.172C393.988 354.881 393.755 355.843 393.755 357.056ZM406.316 357.056C406.316 355.899 406.512 354.872 406.904 353.976C407.296 353.061 407.819 352.296 408.472 351.68C409.144 351.064 409.9 350.597 410.74 350.28C411.599 349.944 412.485 349.776 413.4 349.776C414.315 349.776 415.192 349.944 416.032 350.28C416.891 350.597 417.647 351.064 418.3 351.68C418.972 352.296 419.504 353.061 419.896 353.976C420.288 354.872 420.484 355.899 420.484 357.056C420.484 358.213 420.288 359.249 419.896 360.164C419.504 361.06 418.972 361.816 418.3 362.432C417.647 363.048 416.891 363.524 416.032 363.86C415.192 364.177 414.315 364.336 413.4 364.336C412.485 364.336 411.599 364.177 410.74 363.86C409.9 363.524 409.144 363.048 408.472 362.432C407.819 361.816 407.296 361.06 406.904 360.164C406.512 359.249 406.316 358.213 406.316 357.056ZM410.544 357.056C410.544 358.269 410.777 359.231 411.244 359.94C411.729 360.649 412.448 361.004 413.4 361.004C414.352 361.004 415.061 360.649 415.528 359.94C416.013 359.231 416.256 358.269 416.256 357.056C416.256 355.843 416.013 354.881 415.528 354.172C415.061 353.463 414.352 353.108 413.4 353.108C412.448 353.108 411.729 353.463 411.244 354.172C410.777 354.881 410.544 355.843 410.544 357.056ZM423.105 357.056C423.105 355.917 423.273 354.9 423.609 354.004C423.945 353.108 424.384 352.352 424.925 351.736C425.485 351.101 426.12 350.616 426.829 350.28C427.538 349.944 428.276 349.776 429.041 349.776C429.844 349.776 430.516 349.916 431.057 350.196C431.598 350.457 432.112 350.812 432.597 351.26L432.457 349.104V344.372H436.573V364H433.213L432.905 362.572H432.821C432.298 363.076 431.701 363.496 431.029 363.832C430.357 364.168 429.666 364.336 428.957 364.336C428.08 364.336 427.277 364.168 426.549 363.832C425.84 363.496 425.224 363.02 424.701 362.404C424.197 361.769 423.805 361.004 423.525 360.108C423.245 359.212 423.105 358.195 423.105 357.056ZM427.333 357C427.333 358.381 427.566 359.389 428.033 360.024C428.5 360.659 429.162 360.976 430.021 360.976C430.488 360.976 430.917 360.883 431.309 360.696C431.701 360.491 432.084 360.155 432.457 359.688V354.06C432.084 353.724 431.701 353.491 431.309 353.36C430.936 353.211 430.544 353.136 430.133 353.136C429.368 353.136 428.705 353.453 428.145 354.088C427.604 354.723 427.333 355.693 427.333 357Z" fill="#4F4F4F"/>
<path d="M224.285 248.209C225.188 248.209 225.976 247.936 226.65 247.389C227.325 246.842 227.699 246.158 227.771 245.338H230.164C230.118 246.186 229.827 246.992 229.289 247.758C228.751 248.523 228.031 249.134 227.129 249.59C226.236 250.046 225.288 250.273 224.285 250.273C222.271 250.273 220.667 249.604 219.473 248.264C218.288 246.915 217.695 245.074 217.695 242.74V242.316C217.695 240.876 217.96 239.596 218.488 238.475C219.017 237.354 219.773 236.483 220.758 235.863C221.751 235.243 222.923 234.934 224.271 234.934C225.93 234.934 227.307 235.43 228.4 236.424C229.503 237.417 230.091 238.707 230.164 240.293H227.771C227.699 239.336 227.334 238.552 226.678 237.941C226.031 237.322 225.229 237.012 224.271 237.012C222.986 237.012 221.988 237.477 221.277 238.406C220.576 239.327 220.225 240.662 220.225 242.412V242.891C220.225 244.595 220.576 245.908 221.277 246.828C221.979 247.749 222.982 248.209 224.285 248.209ZM232.338 242.467C232.338 241.018 232.62 239.714 233.186 238.557C233.76 237.399 234.553 236.506 235.564 235.877C236.585 235.248 237.747 234.934 239.051 234.934C241.065 234.934 242.692 235.631 243.932 237.025C245.18 238.42 245.805 240.275 245.805 242.59V242.768C245.805 244.208 245.527 245.502 244.971 246.65C244.424 247.79 243.635 248.678 242.605 249.316C241.585 249.954 240.409 250.273 239.078 250.273C237.073 250.273 235.446 249.576 234.197 248.182C232.958 246.787 232.338 244.941 232.338 242.645V242.467ZM234.881 242.768C234.881 244.408 235.259 245.725 236.016 246.719C236.781 247.712 237.802 248.209 239.078 248.209C240.363 248.209 241.384 247.708 242.141 246.705C242.897 245.693 243.275 244.281 243.275 242.467C243.275 240.844 242.888 239.532 242.113 238.529C241.348 237.518 240.327 237.012 239.051 237.012C237.802 237.012 236.795 237.508 236.029 238.502C235.264 239.495 234.881 240.917 234.881 242.768ZM256.127 237.477C255.744 237.413 255.329 237.381 254.883 237.381C253.224 237.381 252.098 238.087 251.506 239.5V250H248.977V235.207H251.438L251.479 236.916C252.308 235.594 253.484 234.934 255.006 234.934C255.498 234.934 255.872 234.997 256.127 235.125V237.477ZM260.857 235.207L260.939 237.066C262.07 235.645 263.546 234.934 265.369 234.934C268.495 234.934 270.072 236.697 270.1 240.225V250H267.57V240.211C267.561 239.145 267.315 238.356 266.832 237.846C266.358 237.335 265.615 237.08 264.604 237.08C263.783 237.08 263.063 237.299 262.443 237.736C261.824 238.174 261.34 238.748 260.994 239.459V250H258.465V235.207H260.857Z" fill="#F2C94C"/>
<path d="M171.389 304.273C169.383 304.273 167.752 303.617 166.494 302.305C165.236 300.983 164.607 299.219 164.607 297.014V296.549C164.607 295.081 164.885 293.773 165.441 292.625C166.006 291.467 166.79 290.565 167.793 289.918C168.805 289.262 169.898 288.934 171.074 288.934C172.997 288.934 174.492 289.567 175.559 290.834C176.625 292.101 177.158 293.915 177.158 296.275V297.328H167.137C167.173 298.786 167.597 299.967 168.408 300.869C169.229 301.762 170.268 302.209 171.525 302.209C172.419 302.209 173.175 302.027 173.795 301.662C174.415 301.298 174.957 300.814 175.422 300.213L176.967 301.416C175.727 303.321 173.868 304.273 171.389 304.273ZM171.074 291.012C170.053 291.012 169.197 291.385 168.504 292.133C167.811 292.871 167.383 293.91 167.219 295.25H174.629V295.059C174.556 293.773 174.21 292.78 173.59 292.078C172.97 291.367 172.131 291.012 171.074 291.012ZM179.496 296.48C179.496 294.174 180.029 292.342 181.096 290.984C182.162 289.617 183.575 288.934 185.334 288.934C187.139 288.934 188.547 289.572 189.559 290.848L189.682 289.207H191.992V303.645C191.992 305.559 191.423 307.067 190.283 308.17C189.153 309.273 187.631 309.824 185.717 309.824C184.65 309.824 183.607 309.596 182.586 309.141C181.565 308.685 180.786 308.061 180.248 307.268L181.561 305.75C182.645 307.09 183.971 307.76 185.539 307.76C186.77 307.76 187.727 307.413 188.41 306.721C189.103 306.028 189.449 305.053 189.449 303.795V302.523C188.437 303.69 187.057 304.273 185.307 304.273C183.575 304.273 182.171 303.576 181.096 302.182C180.029 300.787 179.496 298.887 179.496 296.48ZM182.039 296.768C182.039 298.436 182.381 299.748 183.064 300.705C183.748 301.653 184.705 302.127 185.936 302.127C187.531 302.127 188.702 301.402 189.449 299.953V293.199C188.674 291.786 187.512 291.08 185.963 291.08C184.732 291.08 183.771 291.559 183.078 292.516C182.385 293.473 182.039 294.89 182.039 296.768ZM195.219 296.48C195.219 294.174 195.752 292.342 196.818 290.984C197.885 289.617 199.298 288.934 201.057 288.934C202.861 288.934 204.27 289.572 205.281 290.848L205.404 289.207H207.715V303.645C207.715 305.559 207.145 307.067 206.006 308.17C204.876 309.273 203.354 309.824 201.439 309.824C200.373 309.824 199.329 309.596 198.309 309.141C197.288 308.685 196.508 308.061 195.971 307.268L197.283 305.75C198.368 307.09 199.694 307.76 201.262 307.76C202.492 307.76 203.449 307.413 204.133 306.721C204.826 306.028 205.172 305.053 205.172 303.795V302.523C204.16 303.69 202.779 304.273 201.029 304.273C199.298 304.273 197.894 303.576 196.818 302.182C195.752 300.787 195.219 298.887 195.219 296.48ZM197.762 296.768C197.762 298.436 198.104 299.748 198.787 300.705C199.471 301.653 200.428 302.127 201.658 302.127C203.253 302.127 204.424 301.402 205.172 299.953V293.199C204.397 291.786 203.235 291.08 201.686 291.08C200.455 291.08 199.493 291.559 198.801 292.516C198.108 293.473 197.762 294.89 197.762 296.768ZM224.039 296.768C224.039 299.019 223.524 300.833 222.494 302.209C221.464 303.585 220.07 304.273 218.311 304.273C216.515 304.273 215.102 303.704 214.072 302.564V309.688H211.543V289.207H213.854L213.977 290.848C215.006 289.572 216.437 288.934 218.27 288.934C220.047 288.934 221.451 289.604 222.48 290.943C223.52 292.283 224.039 294.147 224.039 296.535V296.768ZM221.51 296.48C221.51 294.812 221.154 293.495 220.443 292.529C219.732 291.563 218.757 291.08 217.518 291.08C215.986 291.08 214.838 291.759 214.072 293.117V300.186C214.829 301.535 215.986 302.209 217.545 302.209C218.757 302.209 219.719 301.73 220.43 300.773C221.15 299.807 221.51 298.376 221.51 296.48ZM230.014 304H227.484V283H230.014V304ZM243.207 304C243.061 303.708 242.943 303.189 242.852 302.441C241.676 303.663 240.272 304.273 238.641 304.273C237.182 304.273 235.984 303.863 235.045 303.043C234.115 302.214 233.65 301.165 233.65 299.898C233.65 298.358 234.234 297.164 235.4 296.316C236.576 295.46 238.226 295.031 240.35 295.031H242.811V293.869C242.811 292.985 242.546 292.283 242.018 291.764C241.489 291.235 240.71 290.971 239.68 290.971C238.777 290.971 238.021 291.199 237.41 291.654C236.799 292.11 236.494 292.661 236.494 293.309H233.951C233.951 292.57 234.211 291.859 234.73 291.176C235.259 290.483 235.97 289.936 236.863 289.535C237.766 289.134 238.755 288.934 239.83 288.934C241.534 288.934 242.87 289.362 243.836 290.219C244.802 291.066 245.303 292.238 245.34 293.732V300.541C245.34 301.899 245.513 302.979 245.859 303.781V304H243.207ZM239.01 302.072C239.803 302.072 240.555 301.867 241.266 301.457C241.977 301.047 242.492 300.514 242.811 299.857V296.822H240.828C237.729 296.822 236.18 297.729 236.18 299.543C236.18 300.336 236.444 300.956 236.973 301.402C237.501 301.849 238.18 302.072 239.01 302.072ZM251.697 289.207L251.779 291.066C252.909 289.645 254.386 288.934 256.209 288.934C259.335 288.934 260.912 290.697 260.939 294.225V304H258.41V294.211C258.401 293.145 258.155 292.356 257.672 291.846C257.198 291.335 256.455 291.08 255.443 291.08C254.623 291.08 253.903 291.299 253.283 291.736C252.663 292.174 252.18 292.748 251.834 293.459V304H249.305V289.207H251.697ZM268.186 285.625V289.207H270.947V291.162H268.186V300.336C268.186 300.928 268.309 301.375 268.555 301.676C268.801 301.967 269.22 302.113 269.812 302.113C270.104 302.113 270.505 302.059 271.016 301.949V304C270.35 304.182 269.703 304.273 269.074 304.273C267.944 304.273 267.092 303.932 266.518 303.248C265.943 302.564 265.656 301.594 265.656 300.336V291.162H262.963V289.207H265.656V285.625H268.186Z" fill="#9B51E0"/>
<path d="M187.85 73.625V77.207H190.611V79.1621H187.85V88.3359C187.85 88.9284 187.973 89.375 188.219 89.6758C188.465 89.9674 188.884 90.1133 189.477 90.1133C189.768 90.1133 190.169 90.0586 190.68 89.9492V92C190.014 92.1823 189.367 92.2734 188.738 92.2734C187.608 92.2734 186.756 91.9316 186.182 91.248C185.607 90.5645 185.32 89.5938 185.32 88.3359V79.1621H182.627V77.207H185.32V73.625H187.85ZM192.635 84.4668C192.635 83.0176 192.917 81.7142 193.482 80.5566C194.057 79.3991 194.85 78.5059 195.861 77.877C196.882 77.248 198.044 76.9336 199.348 76.9336C201.362 76.9336 202.989 77.6309 204.229 79.0254C205.477 80.4199 206.102 82.2747 206.102 84.5898V84.7676C206.102 86.2077 205.824 87.502 205.268 88.6504C204.721 89.7897 203.932 90.6784 202.902 91.3164C201.882 91.9544 200.706 92.2734 199.375 92.2734C197.37 92.2734 195.743 91.5762 194.494 90.1816C193.255 88.7871 192.635 86.9414 192.635 84.6445V84.4668ZM195.178 84.7676C195.178 86.4082 195.556 87.7253 196.312 88.7188C197.078 89.7122 198.099 90.209 199.375 90.209C200.66 90.209 201.681 89.7077 202.438 88.7051C203.194 87.6934 203.572 86.2806 203.572 84.4668C203.572 82.8444 203.185 81.5319 202.41 80.5293C201.645 79.5176 200.624 79.0117 199.348 79.0117C198.099 79.0117 197.092 79.5085 196.326 80.502C195.561 81.4954 195.178 82.9173 195.178 84.7676ZM211.652 77.207L211.721 78.8477C212.805 77.5716 214.268 76.9336 216.109 76.9336C218.178 76.9336 219.587 77.7266 220.334 79.3125C220.826 78.6016 221.464 78.0273 222.248 77.5898C223.041 77.1523 223.975 76.9336 225.051 76.9336C228.296 76.9336 229.945 78.6517 230 82.0879V92H227.471V82.2383C227.471 81.181 227.229 80.3926 226.746 79.873C226.263 79.3444 225.452 79.0801 224.312 79.0801C223.374 79.0801 222.594 79.3626 221.975 79.9277C221.355 80.4837 220.995 81.2357 220.895 82.1836V92H218.352V82.3066C218.352 80.1556 217.299 79.0801 215.193 79.0801C213.535 79.0801 212.4 79.7865 211.789 81.1992V92H209.26V77.207H211.652ZM242.961 92C242.815 91.7083 242.697 91.1888 242.605 90.4414C241.43 91.6628 240.026 92.2734 238.395 92.2734C236.936 92.2734 235.738 91.8633 234.799 91.043C233.869 90.2135 233.404 89.1654 233.404 87.8984C233.404 86.3581 233.988 85.1641 235.154 84.3164C236.33 83.4596 237.98 83.0312 240.104 83.0312H242.564V81.8691C242.564 80.985 242.3 80.2832 241.771 79.7637C241.243 79.235 240.464 78.9707 239.434 78.9707C238.531 78.9707 237.775 79.1986 237.164 79.6543C236.553 80.11 236.248 80.6615 236.248 81.3086H233.705C233.705 80.5703 233.965 79.8594 234.484 79.1758C235.013 78.4831 235.724 77.9362 236.617 77.5352C237.52 77.1341 238.508 76.9336 239.584 76.9336C241.288 76.9336 242.624 77.362 243.59 78.2188C244.556 79.0664 245.057 80.2376 245.094 81.7324V88.541C245.094 89.8991 245.267 90.9792 245.613 91.7812V92H242.961ZM238.764 90.0723C239.557 90.0723 240.309 89.8672 241.02 89.457C241.73 89.0469 242.245 88.5137 242.564 87.8574V84.8223H240.582C237.483 84.8223 235.934 85.7292 235.934 87.543C235.934 88.3359 236.198 88.9557 236.727 89.4023C237.255 89.849 237.934 90.0723 238.764 90.0723ZM252.49 73.625V77.207H255.252V79.1621H252.49V88.3359C252.49 88.9284 252.613 89.375 252.859 89.6758C253.105 89.9674 253.525 90.1133 254.117 90.1133C254.409 90.1133 254.81 90.0586 255.32 89.9492V92C254.655 92.1823 254.008 92.2734 253.379 92.2734C252.249 92.2734 251.396 91.9316 250.822 91.248C250.248 90.5645 249.961 89.5938 249.961 88.3359V79.1621H247.268V77.207H249.961V73.625H252.49ZM257.275 84.4668C257.275 83.0176 257.558 81.7142 258.123 80.5566C258.697 79.3991 259.49 78.5059 260.502 77.877C261.523 77.248 262.685 76.9336 263.988 76.9336C266.003 76.9336 267.63 77.6309 268.869 79.0254C270.118 80.4199 270.742 82.2747 270.742 84.5898V84.7676C270.742 86.2077 270.464 87.502 269.908 88.6504C269.361 89.7897 268.573 90.6784 267.543 91.3164C266.522 91.9544 265.346 92.2734 264.016 92.2734C262.01 92.2734 260.383 91.5762 259.135 90.1816C257.895 88.7871 257.275 86.9414 257.275 84.6445V84.4668ZM259.818 84.7676C259.818 86.4082 260.197 87.7253 260.953 88.7188C261.719 89.7122 262.74 90.209 264.016 90.209C265.301 90.209 266.322 89.7077 267.078 88.7051C267.835 87.6934 268.213 86.2806 268.213 84.4668C268.213 82.8444 267.826 81.5319 267.051 80.5293C266.285 79.5176 265.264 79.0117 263.988 79.0117C262.74 79.0117 261.732 79.5085 260.967 80.502C260.201 81.4954 259.818 82.9173 259.818 84.7676Z" fill="#EB5757"/>
<path d="M289.551 44V31.1621H287.213V29.207H289.551V27.6895C289.551 26.1035 289.975 24.8776 290.822 24.0117C291.67 23.1458 292.868 22.7129 294.418 22.7129C295.001 22.7129 295.58 22.7904 296.154 22.9453L296.018 24.9961C295.589 24.9141 295.133 24.873 294.65 24.873C293.83 24.873 293.197 25.1146 292.75 25.5977C292.303 26.0716 292.08 26.7552 292.08 27.6484V29.207H295.238V31.1621H292.08V44H289.551ZM305.191 31.4766C304.809 31.4128 304.394 31.3809 303.947 31.3809C302.288 31.3809 301.163 32.0872 300.57 33.5V44H298.041V29.207H300.502L300.543 30.916C301.372 29.5944 302.548 28.9336 304.07 28.9336C304.562 28.9336 304.936 28.9974 305.191 29.125V31.4766ZM316.662 42.5371C315.678 43.6947 314.233 44.2734 312.328 44.2734C310.751 44.2734 309.548 43.8177 308.719 42.9062C307.898 41.9857 307.484 40.6276 307.475 38.832V29.207H310.004V38.7637C310.004 41.0059 310.915 42.127 312.738 42.127C314.671 42.127 315.956 41.4069 316.594 39.9668V29.207H319.123V44H316.717L316.662 42.5371ZM325.727 44H323.197V29.207H325.727V44ZM322.992 25.2832C322.992 24.873 323.115 24.5267 323.361 24.2441C323.617 23.9616 323.99 23.8203 324.482 23.8203C324.975 23.8203 325.348 23.9616 325.604 24.2441C325.859 24.5267 325.986 24.873 325.986 25.2832C325.986 25.6934 325.859 26.0352 325.604 26.3086C325.348 26.582 324.975 26.7188 324.482 26.7188C323.99 26.7188 323.617 26.582 323.361 26.3086C323.115 26.0352 322.992 25.6934 322.992 25.2832ZM333.219 25.625V29.207H335.98V31.1621H333.219V40.3359C333.219 40.9284 333.342 41.375 333.588 41.6758C333.834 41.9674 334.253 42.1133 334.846 42.1133C335.137 42.1133 335.538 42.0586 336.049 41.9492V44C335.383 44.1823 334.736 44.2734 334.107 44.2734C332.977 44.2734 332.125 43.9316 331.551 43.248C330.977 42.5645 330.689 41.5938 330.689 40.3359V31.1621H327.996V29.207H330.689V25.625H333.219ZM349.611 46.0645H337.088V44H349.611V46.0645ZM356.461 40.5684L360.125 29.207H362.709L357.404 44H355.477L350.117 29.207H352.701L356.461 40.5684ZM371.09 44.2734C369.085 44.2734 367.453 43.6172 366.195 42.3047C364.938 40.9831 364.309 39.2194 364.309 37.0137V36.5488C364.309 35.0814 364.587 33.7734 365.143 32.625C365.708 31.4674 366.492 30.5651 367.494 29.918C368.506 29.2617 369.6 28.9336 370.775 28.9336C372.699 28.9336 374.193 29.5671 375.26 30.834C376.326 32.1009 376.859 33.9147 376.859 36.2754V37.3281H366.838C366.874 38.7865 367.298 39.9668 368.109 40.8691C368.93 41.7624 369.969 42.209 371.227 42.209C372.12 42.209 372.876 42.0267 373.496 41.6621C374.116 41.2975 374.658 40.8145 375.123 40.2129L376.668 41.416C375.428 43.321 373.569 44.2734 371.09 44.2734ZM370.775 31.0117C369.755 31.0117 368.898 31.3854 368.205 32.1328C367.512 32.8711 367.084 33.9102 366.92 35.25H374.33V35.0586C374.257 33.7734 373.911 32.7799 373.291 32.0781C372.671 31.3672 371.833 31.0117 370.775 31.0117ZM379.197 36.4805C379.197 34.1745 379.73 32.3424 380.797 30.9844C381.863 29.6172 383.276 28.9336 385.035 28.9336C386.84 28.9336 388.248 29.5716 389.26 30.8477L389.383 29.207H391.693V43.6445C391.693 45.5586 391.124 47.0671 389.984 48.1699C388.854 49.2728 387.332 49.8242 385.418 49.8242C384.352 49.8242 383.308 49.5964 382.287 49.1406C381.266 48.6849 380.487 48.0605 379.949 47.2676L381.262 45.75C382.346 47.0898 383.673 47.7598 385.24 47.7598C386.471 47.7598 387.428 47.4134 388.111 46.7207C388.804 46.028 389.15 45.0527 389.15 43.7949V42.5234C388.139 43.6901 386.758 44.2734 385.008 44.2734C383.276 44.2734 381.872 43.5762 380.797 42.1816C379.73 40.7871 379.197 38.8867 379.197 36.4805ZM381.74 36.7676C381.74 38.4355 382.082 39.748 382.766 40.7051C383.449 41.653 384.406 42.127 385.637 42.127C387.232 42.127 388.403 41.4023 389.15 39.9531V33.1992C388.376 31.7865 387.214 31.0801 385.664 31.0801C384.434 31.0801 383.472 31.5586 382.779 32.5156C382.087 33.4727 381.74 34.89 381.74 36.7676Z" fill="#828282"/>
<rect x="398" y="56" width="130" height="53.2" stroke="black"/>
<path d="M468.209 85.9544H470.971V88.0189H468.209V92.64H465.666V88.0189H456.602V86.5286L465.516 72.7337H468.209V85.9544ZM459.473 85.9544H465.666V76.1927L465.366 76.7396L459.473 85.9544Z" fill="black"/>
<rect x="398" y="109.2" width="130" height="53.2" stroke="black"/>
<path d="M470.575 145.84H457.532V144.022L464.422 136.365C465.443 135.208 466.145 134.269 466.528 133.549C466.92 132.82 467.116 132.068 467.116 131.293C467.116 130.254 466.801 129.402 466.172 128.736C465.543 128.071 464.705 127.738 463.657 127.738C462.399 127.738 461.419 128.098 460.717 128.818C460.024 129.529 459.678 130.523 459.678 131.799H457.149C457.149 129.967 457.737 128.486 458.913 127.356C460.097 126.225 461.679 125.66 463.657 125.66C465.507 125.66 466.97 126.148 468.045 127.123C469.121 128.089 469.659 129.379 469.659 130.992C469.659 132.952 468.41 135.285 465.913 137.992L460.58 143.776H470.575V145.84Z" fill="black"/>
<rect x="398" y="162" width="130" height="54" stroke="black"/>
<path d="M468.32 192.147H471.082V194.212H468.32V198.833H465.777V194.212H456.713V192.721L465.627 178.926H468.32V192.147ZM459.584 192.147H465.777V182.385L465.477 182.932L459.584 192.147Z" fill="black"/>
<rect x="282" y="216" width="116" height="52" stroke="black"/>
<path d="M327.099 246.918L330.763 235.557H333.347L328.042 250.35H326.114L320.755 235.557H323.339L327.099 246.918ZM341.728 250.623C339.722 250.623 338.091 249.967 336.833 248.654C335.575 247.333 334.946 245.569 334.946 243.363V242.899C334.946 241.431 335.224 240.123 335.78 238.975C336.345 237.817 337.129 236.915 338.132 236.268C339.144 235.612 340.237 235.283 341.413 235.283C343.336 235.283 344.831 235.917 345.898 237.184C346.964 238.451 347.497 240.265 347.497 242.625V243.678H337.476C337.512 245.136 337.936 246.317 338.747 247.219C339.567 248.112 340.607 248.559 341.864 248.559C342.758 248.559 343.514 248.376 344.134 248.012C344.754 247.647 345.296 247.164 345.761 246.563L347.306 247.766C346.066 249.671 344.207 250.623 341.728 250.623ZM341.413 237.362C340.392 237.362 339.536 237.735 338.843 238.483C338.15 239.221 337.722 240.26 337.558 241.6H344.968V241.408C344.895 240.123 344.549 239.13 343.929 238.428C343.309 237.717 342.47 237.362 341.413 237.362ZM349.835 242.83C349.835 240.524 350.368 238.692 351.435 237.334C352.501 235.967 353.914 235.283 355.673 235.283C357.478 235.283 358.886 235.921 359.898 237.197L360.021 235.557H362.331V249.994C362.331 251.908 361.761 253.417 360.622 254.52C359.492 255.623 357.97 256.174 356.056 256.174C354.989 256.174 353.946 255.946 352.925 255.49C351.904 255.035 351.125 254.41 350.587 253.617L351.9 252.1C352.984 253.44 354.31 254.11 355.878 254.11C357.108 254.11 358.066 253.763 358.749 253.07C359.442 252.378 359.788 251.403 359.788 250.145V248.873C358.776 250.04 357.396 250.623 355.646 250.623C353.914 250.623 352.51 249.926 351.435 248.531C350.368 247.137 349.835 245.237 349.835 242.83ZM352.378 243.117C352.378 244.785 352.72 246.098 353.403 247.055C354.087 248.003 355.044 248.477 356.275 248.477C357.87 248.477 359.041 247.752 359.788 246.303V239.549C359.013 238.136 357.851 237.43 356.302 237.43C355.071 237.43 354.11 237.908 353.417 238.865C352.724 239.822 352.378 241.24 352.378 243.117Z" fill="black"/>
<rect x="282" y="268" width="116" height="52" stroke="black"/>
<path d="M327.099 300.285L330.763 288.924H333.347L328.042 303.716H326.114L320.755 288.924H323.339L327.099 300.285ZM341.728 303.99C339.722 303.99 338.091 303.334 336.833 302.021C335.575 300.7 334.946 298.936 334.946 296.73V296.265C334.946 294.798 335.224 293.49 335.78 292.341C336.345 291.184 337.129 290.282 338.132 289.634C339.144 288.978 340.237 288.65 341.413 288.65C343.336 288.65 344.831 289.284 345.898 290.55C346.964 291.817 347.497 293.631 347.497 295.992V297.045H337.476C337.512 298.503 337.936 299.683 338.747 300.586C339.567 301.479 340.607 301.925 341.864 301.925C342.758 301.925 343.514 301.743 344.134 301.379C344.754 301.014 345.296 300.531 345.761 299.929L347.306 301.133C346.066 303.037 344.207 303.99 341.728 303.99ZM341.413 290.728C340.392 290.728 339.536 291.102 338.843 291.849C338.15 292.588 337.722 293.627 337.558 294.966H344.968V294.775C344.895 293.49 344.549 292.496 343.929 291.795C343.309 291.084 342.47 290.728 341.413 290.728ZM349.835 296.197C349.835 293.891 350.368 292.059 351.435 290.701C352.501 289.334 353.914 288.65 355.673 288.65C357.478 288.65 358.886 289.288 359.898 290.564L360.021 288.924H362.331V303.361C362.331 305.275 361.761 306.784 360.622 307.886C359.492 308.989 357.97 309.541 356.056 309.541C354.989 309.541 353.946 309.313 352.925 308.857C351.904 308.401 351.125 307.777 350.587 306.984L351.9 305.466C352.984 306.806 354.31 307.476 355.878 307.476C357.108 307.476 358.066 307.13 358.749 306.437C359.442 305.744 359.788 304.769 359.788 303.511V302.24C358.776 303.407 357.396 303.99 355.646 303.99C353.914 303.99 352.51 303.293 351.435 301.898C350.368 300.504 349.835 298.603 349.835 296.197ZM352.378 296.484C352.378 298.152 352.72 299.465 353.403 300.422C354.087 301.369 355.044 301.843 356.275 301.843C357.87 301.843 359.041 301.119 359.788 299.67V292.916C359.013 291.503 357.851 290.797 356.302 290.797C355.071 290.797 354.11 291.275 353.417 292.232C352.724 293.189 352.378 294.606 352.378 296.484Z" fill="black"/>
<rect x="398" y="216" width="130" height="52" stroke="black"/>
<path d="M465.844 250.64H463.301V233.783L458.202 235.656V233.359L465.448 230.638H465.844V250.64Z" fill="black"/>
<rect x="398" y="268" width="130" height="52" stroke="black"/>
<path d="M470.575 303.84H457.532V302.022L464.422 294.365C465.443 293.208 466.145 292.269 466.528 291.549C466.92 290.82 467.116 290.068 467.116 289.293C467.116 288.254 466.801 287.402 466.172 286.737C465.543 286.071 464.705 285.739 463.657 285.739C462.399 285.739 461.419 286.099 460.717 286.819C460.024 287.53 459.678 288.523 459.678 289.799H457.149C457.149 287.967 457.737 286.486 458.913 285.356C460.097 284.226 461.679 283.66 463.657 283.66C465.507 283.66 466.97 284.148 468.045 285.123C469.121 286.089 469.659 287.379 469.659 288.992C469.659 290.952 468.41 293.285 465.913 295.992L460.58 301.776H470.575V303.84Z" fill="black"/>
<path d="M445.131 36.4805C445.131 34.1562 445.664 32.3197 446.73 30.9707C447.797 29.6126 449.228 28.9336 451.023 28.9336C452.773 28.9336 454.154 29.5215 455.166 30.6973L455.275 29.207H457.6V49.6875H455.07V42.6328C454.049 43.7266 452.691 44.2734 450.996 44.2734C449.21 44.2734 447.783 43.5807 446.717 42.1953C445.66 40.8008 445.131 38.9551 445.131 36.6582V36.4805ZM447.66 36.7676C447.66 38.4629 448.016 39.7936 448.727 40.7598C449.447 41.7259 450.413 42.209 451.625 42.209C453.129 42.209 454.277 41.5436 455.07 40.2129V32.9668C454.268 31.6634 453.129 31.0117 451.652 31.0117C450.431 31.0117 449.46 31.4993 448.74 32.4746C448.02 33.4408 447.66 34.8717 447.66 36.7676ZM465.092 25.625V29.207H467.854V31.1621H465.092V40.3359C465.092 40.9284 465.215 41.375 465.461 41.6758C465.707 41.9674 466.126 42.1133 466.719 42.1133C467.01 42.1133 467.411 42.0586 467.922 41.9492V44C467.257 44.1823 466.609 44.2734 465.98 44.2734C464.85 44.2734 463.998 43.9316 463.424 43.248C462.85 42.5645 462.562 41.5938 462.562 40.3359V31.1621H459.869V29.207H462.562V25.625H465.092ZM475.66 40.2949L479.105 29.207H481.812L475.865 46.2832C474.945 48.7441 473.482 49.9746 471.477 49.9746L470.998 49.9336L470.055 49.7559V47.7051L470.738 47.7598C471.595 47.7598 472.26 47.5866 472.734 47.2402C473.217 46.8939 473.614 46.2604 473.924 45.3398L474.484 43.8359L469.207 29.207H471.969L475.66 40.2949Z" fill="#828282"/>
<rect width="229" height="135" transform="translate(596 114) scale(2)" fill="white"/>
<rect x="763.45" y="210" width="192" height="53.9924" stroke="black"/>
<path d="M812.799 246.644C812.653 246.353 812.534 245.833 812.443 245.086C811.267 246.307 809.864 246.918 808.232 246.918C806.774 246.918 805.575 246.508 804.636 245.687C803.707 244.858 803.242 243.81 803.242 242.543C803.242 241.002 803.825 239.808 804.992 238.961C806.168 238.104 807.817 237.676 809.941 237.676H812.402V236.514C812.402 235.629 812.138 234.928 811.609 234.408C811.08 233.879 810.301 233.615 809.271 233.615C808.369 233.615 807.612 233.843 807.002 234.299C806.391 234.754 806.086 235.306 806.086 235.953H803.543C803.543 235.215 803.802 234.504 804.322 233.82C804.851 233.127 805.562 232.581 806.455 232.18C807.357 231.779 808.346 231.578 809.422 231.578C811.126 231.578 812.461 232.006 813.427 232.863C814.394 233.711 814.895 234.882 814.931 236.377V243.185C814.931 244.543 815.105 245.624 815.451 246.426V246.644H812.799ZM808.601 244.717C809.394 244.717 810.146 244.512 810.857 244.101C811.568 243.691 812.083 243.158 812.402 242.502V239.467H810.42C807.321 239.467 805.771 240.374 805.771 242.187C805.771 242.98 806.036 243.6 806.564 244.047C807.093 244.493 807.772 244.717 808.601 244.717ZM828.029 245.182C827.045 246.339 825.6 246.918 823.695 246.918C822.118 246.918 820.915 246.462 820.086 245.551C819.265 244.63 818.851 243.272 818.841 241.476V231.851H821.371V241.408C821.371 243.65 822.282 244.771 824.105 244.771C826.037 244.771 827.323 244.051 827.961 242.611V231.851H830.49V246.644H828.084L828.029 245.182ZM846.869 239.412C846.869 241.672 846.349 243.491 845.31 244.867C844.271 246.234 842.877 246.918 841.127 246.918C839.258 246.918 837.814 246.257 836.793 244.935L836.67 246.644H834.345V225.644H836.875V233.478C837.896 232.211 839.304 231.578 841.099 231.578C842.895 231.578 844.303 232.257 845.324 233.615C846.354 234.973 846.869 236.833 846.869 239.193V239.412ZM844.34 239.125C844.34 237.402 844.007 236.071 843.341 235.133C842.676 234.194 841.719 233.724 840.47 233.724C838.802 233.724 837.604 234.499 836.875 236.049V242.447C837.649 243.997 838.857 244.771 840.498 244.771C841.71 244.771 842.653 244.302 843.328 243.363C844.002 242.424 844.34 241.012 844.34 239.125ZM856.207 246.918C854.202 246.918 852.57 246.262 851.312 244.949C850.054 243.627 849.425 241.864 849.425 239.658V239.193C849.425 237.726 849.703 236.418 850.259 235.269C850.825 234.112 851.608 233.21 852.611 232.562C853.623 231.906 854.716 231.578 855.892 231.578C857.815 231.578 859.31 232.211 860.377 233.478C861.443 234.745 861.976 236.559 861.976 238.92V239.973H851.955C851.991 241.431 852.415 242.611 853.226 243.514C854.047 244.407 855.086 244.853 856.343 244.853C857.237 244.853 857.993 244.671 858.613 244.307C859.233 243.942 859.775 243.459 860.24 242.857L861.785 244.06C860.545 245.965 858.686 246.918 856.207 246.918ZM855.892 233.656C854.871 233.656 854.015 234.03 853.322 234.777C852.629 235.516 852.201 236.555 852.037 237.894H859.447V237.703C859.374 236.418 859.028 235.424 858.408 234.723C857.788 234.012 856.95 233.656 855.892 233.656ZM872.066 234.121C871.683 234.057 871.269 234.025 870.822 234.025C869.163 234.025 868.037 234.732 867.445 236.144V246.644H864.916V231.851H867.377L867.418 233.56C868.247 232.239 869.423 231.578 870.945 231.578C871.437 231.578 871.811 231.642 872.066 231.769V234.121ZM873.529 239.125C873.529 236.819 874.062 234.987 875.129 233.629C876.195 232.262 877.608 231.578 879.367 231.578C881.172 231.578 882.58 232.216 883.591 233.492L883.715 231.851H886.025V246.289C886.025 248.203 885.455 249.711 884.316 250.814C883.186 251.917 881.664 252.469 879.75 252.469C878.683 252.469 877.64 252.241 876.619 251.785C875.598 251.329 874.819 250.705 874.281 249.912L875.593 248.394C876.678 249.734 878.004 250.404 879.572 250.404C880.802 250.404 881.759 250.058 882.443 249.365C883.136 248.672 883.482 247.697 883.482 246.439V245.168C882.47 246.335 881.09 246.918 879.34 246.918C877.608 246.918 876.204 246.221 875.129 244.826C874.062 243.432 873.529 241.531 873.529 239.125ZM876.072 239.412C876.072 241.08 876.414 242.392 877.097 243.349C877.781 244.297 878.738 244.771 879.968 244.771C881.564 244.771 882.735 244.047 883.482 242.598V235.844C882.707 234.431 881.545 233.724 879.996 233.724C878.765 233.724 877.804 234.203 877.111 235.16C876.418 236.117 876.072 237.534 876.072 239.412ZM892.601 246.644H890.072V231.851H892.601V246.644ZM889.867 227.928C889.867 227.517 889.99 227.171 890.236 226.889C890.491 226.606 890.865 226.465 891.357 226.465C891.849 226.465 892.223 226.606 892.478 226.889C892.733 227.171 892.861 227.517 892.861 227.928C892.861 228.338 892.733 228.68 892.478 228.953C892.223 229.226 891.849 229.363 891.357 229.363C890.865 229.363 890.491 229.226 890.236 228.953C889.99 228.68 889.867 228.338 889.867 227.928ZM899.054 231.851L899.136 233.711C900.267 232.289 901.743 231.578 903.566 231.578C906.692 231.578 908.269 233.342 908.297 236.869V246.644H905.767V236.855C905.758 235.789 905.512 235.001 905.029 234.49C904.555 233.98 903.812 233.724 902.8 233.724C901.98 233.724 901.26 233.943 900.64 234.381C900.021 234.818 899.537 235.392 899.191 236.103V246.644H896.662V231.851H899.054ZM918.25 246.918C916.244 246.918 914.613 246.262 913.355 244.949C912.097 243.627 911.468 241.864 911.468 239.658V239.193C911.468 237.726 911.746 236.418 912.302 235.269C912.868 234.112 913.651 233.21 914.654 232.562C915.666 231.906 916.759 231.578 917.935 231.578C919.858 231.578 921.353 232.211 922.42 233.478C923.486 234.745 924.019 236.559 924.019 238.92V239.973H913.998C914.034 241.431 914.458 242.611 915.269 243.514C916.09 244.407 917.129 244.853 918.386 244.853C919.28 244.853 920.036 244.671 920.656 244.307C921.276 243.942 921.818 243.459 922.283 242.857L923.828 244.06C922.588 245.965 920.729 246.918 918.25 246.918ZM917.935 233.656C916.914 233.656 916.058 234.03 915.365 234.777C914.672 235.516 914.244 236.555 914.08 237.894H921.49V237.703C921.417 236.418 921.071 235.424 920.451 234.723C919.831 234.012 918.993 233.656 917.935 233.656Z" fill="black"/>
<path d="M652.838 246.844C650.833 246.844 649.202 246.188 647.944 244.875C646.686 243.553 646.057 241.79 646.057 239.584V239.119C646.057 237.652 646.335 236.344 646.891 235.195C647.456 234.038 648.24 233.135 649.243 232.488C650.254 231.832 651.348 231.504 652.524 231.504C654.447 231.504 655.942 232.137 657.008 233.404C658.075 234.671 658.608 236.485 658.608 238.846V239.898H648.586C648.623 241.357 649.047 242.537 649.858 243.439C650.678 244.333 651.717 244.779 652.975 244.779C653.868 244.779 654.625 244.597 655.244 244.232C655.864 243.868 656.407 243.385 656.871 242.783L658.416 243.986C657.177 245.891 655.317 246.844 652.838 246.844ZM652.524 233.582C651.503 233.582 650.646 233.956 649.953 234.703C649.261 235.441 648.832 236.48 648.668 237.82H656.078V237.629C656.006 236.344 655.659 235.35 655.039 234.648C654.42 233.938 653.581 233.582 652.524 233.582ZM660.946 239.051C660.946 236.745 661.479 234.913 662.545 233.555C663.612 232.188 665.024 231.504 666.784 231.504C668.588 231.504 669.996 232.142 671.008 233.418L671.131 231.777H673.442V246.215C673.442 248.129 672.872 249.637 671.733 250.74C670.603 251.843 669.08 252.395 667.166 252.395C666.1 252.395 665.056 252.167 664.035 251.711C663.015 251.255 662.235 250.631 661.698 249.838L663.01 248.32C664.095 249.66 665.421 250.33 666.989 250.33C668.219 250.33 669.176 249.984 669.86 249.291C670.552 248.598 670.899 247.623 670.899 246.365V245.094C669.887 246.26 668.506 246.844 666.756 246.844C665.024 246.844 663.621 246.146 662.545 244.752C661.479 243.357 660.946 241.457 660.946 239.051ZM663.489 239.338C663.489 241.006 663.83 242.318 664.514 243.275C665.198 244.223 666.155 244.697 667.385 244.697C668.98 244.697 670.151 243.973 670.899 242.523V235.77C670.124 234.357 668.962 233.65 667.412 233.65C666.182 233.65 665.22 234.129 664.528 235.086C663.835 236.043 663.489 237.46 663.489 239.338ZM676.668 239.051C676.668 236.745 677.202 234.913 678.268 233.555C679.334 232.188 680.747 231.504 682.506 231.504C684.311 231.504 685.719 232.142 686.731 233.418L686.854 231.777H689.164V246.215C689.164 248.129 688.595 249.637 687.455 250.74C686.325 251.843 684.803 252.395 682.889 252.395C681.823 252.395 680.779 252.167 679.758 251.711C678.737 251.255 677.958 250.631 677.42 249.838L678.733 248.32C679.817 249.66 681.144 250.33 682.711 250.33C683.942 250.33 684.899 249.984 685.582 249.291C686.275 248.598 686.621 247.623 686.621 246.365V245.094C685.61 246.26 684.229 246.844 682.479 246.844C680.747 246.844 679.343 246.146 678.268 244.752C677.202 243.357 676.668 241.457 676.668 239.051ZM679.211 239.338C679.211 241.006 679.553 242.318 680.237 243.275C680.92 244.223 681.877 244.697 683.108 244.697C684.703 244.697 685.874 243.973 686.621 242.523V235.77C685.847 234.357 684.685 233.65 683.135 233.65C681.905 233.65 680.943 234.129 680.25 235.086C679.558 236.043 679.211 237.46 679.211 239.338ZM705.489 239.338C705.489 241.589 704.974 243.403 703.944 244.779C702.914 246.156 701.519 246.844 699.76 246.844C697.965 246.844 696.552 246.274 695.522 245.135V252.258H692.993V231.777H695.303L695.426 233.418C696.456 232.142 697.887 231.504 699.719 231.504C701.496 231.504 702.9 232.174 703.93 233.514C704.969 234.854 705.489 236.717 705.489 239.105V239.338ZM702.959 239.051C702.959 237.383 702.604 236.066 701.893 235.1C701.182 234.133 700.207 233.65 698.967 233.65C697.436 233.65 696.287 234.329 695.522 235.688V242.756C696.278 244.105 697.436 244.779 698.994 244.779C700.207 244.779 701.168 244.301 701.879 243.344C702.599 242.378 702.959 240.947 702.959 239.051ZM711.463 246.57H708.934V225.57H711.463V246.57ZM724.657 246.57C724.511 246.279 724.392 245.759 724.301 245.012C723.125 246.233 721.722 246.844 720.09 246.844C718.632 246.844 717.433 246.434 716.494 245.613C715.565 244.784 715.1 243.736 715.1 242.469C715.1 240.928 715.683 239.734 716.85 238.887C718.026 238.03 719.675 237.602 721.799 237.602H724.26V236.439C724.26 235.555 723.996 234.854 723.467 234.334C722.938 233.805 722.159 233.541 721.129 233.541C720.227 233.541 719.47 233.769 718.86 234.225C718.249 234.68 717.944 235.232 717.944 235.879H715.401C715.401 235.141 715.66 234.43 716.18 233.746C716.709 233.053 717.42 232.507 718.313 232.105C719.215 231.704 720.204 231.504 721.28 231.504C722.984 231.504 724.319 231.932 725.285 232.789C726.252 233.637 726.753 234.808 726.789 236.303V243.111C726.789 244.469 726.963 245.549 727.309 246.352V246.57H724.657ZM720.459 244.643C721.252 244.643 722.004 244.438 722.715 244.027C723.426 243.617 723.941 243.084 724.26 242.428V239.393H722.278C719.179 239.393 717.629 240.299 717.629 242.113C717.629 242.906 717.894 243.526 718.422 243.973C718.951 244.419 719.63 244.643 720.459 244.643ZM733.147 231.777L733.229 233.637C734.359 232.215 735.836 231.504 737.659 231.504C740.785 231.504 742.362 233.268 742.389 236.795V246.57H739.86V236.781C739.851 235.715 739.605 234.926 739.121 234.416C738.647 233.906 737.905 233.65 736.893 233.65C736.073 233.65 735.353 233.869 734.733 234.307C734.113 234.744 733.63 235.318 733.284 236.029V246.57H730.754V231.777H733.147ZM749.635 228.195V231.777H752.397V233.732H749.635V242.906C749.635 243.499 749.758 243.945 750.004 244.246C750.25 244.538 750.67 244.684 751.262 244.684C751.554 244.684 751.955 244.629 752.465 244.52V246.57C751.8 246.753 751.153 246.844 750.524 246.844C749.394 246.844 748.541 246.502 747.967 245.818C747.393 245.135 747.106 244.164 747.106 242.906V233.732H744.412V231.777H747.106V228.195H749.635Z" fill="#9B51E0"/>
<rect x="763.357" y="156" width="192" height="53.9924" stroke="black"/>
<path d="M833.488 180.121C833.105 180.057 832.69 180.025 832.243 180.025C830.585 180.025 829.459 180.732 828.866 182.144V192.644H826.337V177.851H828.798L828.839 179.56C829.669 178.239 830.844 177.578 832.366 177.578C832.859 177.578 833.232 177.642 833.488 177.769V180.121ZM834.882 185.111C834.882 183.662 835.165 182.359 835.73 181.201C836.304 180.043 837.097 179.15 838.109 178.521C839.129 177.892 840.292 177.578 841.595 177.578C843.609 177.578 845.236 178.275 846.476 179.67C847.725 181.064 848.349 182.919 848.349 185.234V185.412C848.349 186.852 848.071 188.146 847.515 189.295C846.968 190.434 846.18 191.323 845.15 191.961C844.129 192.599 842.953 192.918 841.622 192.918C839.617 192.918 837.99 192.221 836.741 190.826C835.502 189.432 834.882 187.586 834.882 185.289V185.111ZM837.425 185.412C837.425 187.053 837.803 188.37 838.56 189.363C839.325 190.357 840.346 190.853 841.622 190.853C842.907 190.853 843.928 190.352 844.685 189.349C845.441 188.338 845.82 186.925 845.82 185.111C845.82 183.489 845.432 182.176 844.657 181.174C843.892 180.162 842.871 179.656 841.595 179.656C840.346 179.656 839.339 180.153 838.573 181.146C837.808 182.14 837.425 183.562 837.425 185.412ZM857.454 190.853C858.357 190.853 859.145 190.58 859.82 190.033C860.494 189.486 860.868 188.803 860.941 187.982H863.333C863.288 188.83 862.996 189.637 862.458 190.402C861.92 191.168 861.2 191.779 860.298 192.234C859.405 192.69 858.457 192.918 857.454 192.918C855.44 192.918 853.836 192.248 852.642 190.908C851.457 189.559 850.864 187.718 850.864 185.385V184.961C850.864 183.521 851.129 182.24 851.657 181.119C852.186 179.998 852.943 179.127 853.927 178.508C854.92 177.888 856.092 177.578 857.441 177.578C859.1 177.578 860.476 178.075 861.57 179.068C862.672 180.062 863.26 181.351 863.333 182.937H860.941C860.868 181.98 860.503 181.196 859.847 180.586C859.2 179.966 858.398 179.656 857.441 179.656C856.155 179.656 855.157 180.121 854.447 181.051C853.745 181.971 853.394 183.307 853.394 185.057V185.535C853.394 187.239 853.745 188.552 854.447 189.473C855.148 190.393 856.151 190.853 857.454 190.853ZM870.306 185.795L868.72 187.449V192.644H866.191V171.644H868.72V184.346L870.073 182.719L874.681 177.851H877.757L872.001 184.031L878.427 192.644H875.46L870.306 185.795ZM886.234 192.918C884.228 192.918 882.597 192.262 881.339 190.949C880.081 189.627 879.452 187.864 879.452 185.658V185.193C879.452 183.726 879.73 182.418 880.286 181.269C880.851 180.112 881.635 179.21 882.638 178.562C883.65 177.906 884.743 177.578 885.919 177.578C887.842 177.578 889.337 178.211 890.404 179.478C891.47 180.745 892.003 182.559 892.003 184.92V185.973H881.982C882.018 187.431 882.442 188.611 883.253 189.514C884.073 190.407 885.113 190.853 886.37 190.853C887.264 190.853 888.02 190.671 888.64 190.307C889.26 189.942 889.802 189.459 890.267 188.857L891.812 190.06C890.572 191.965 888.713 192.918 886.234 192.918ZM885.919 179.656C884.898 179.656 884.042 180.03 883.349 180.777C882.656 181.516 882.228 182.555 882.064 183.894H889.474V183.703C889.401 182.418 889.055 181.424 888.435 180.723C887.815 180.012 886.976 179.656 885.919 179.656ZM898.374 174.269V177.851H901.136V179.807H898.374V188.98C898.374 189.573 898.497 190.019 898.743 190.32C898.989 190.612 899.409 190.758 900.001 190.758C900.293 190.758 900.694 190.703 901.204 190.594V192.644C900.539 192.827 899.892 192.918 899.263 192.918C898.133 192.918 897.28 192.576 896.706 191.892C896.132 191.209 895.845 190.238 895.845 188.98V179.807H893.152V177.851H895.845V174.269H898.374Z" fill="black"/>
<path d="M671.025 192.57C670.879 192.279 670.761 191.759 670.67 191.012C669.494 192.233 668.09 192.844 666.459 192.844C665.001 192.844 663.802 192.434 662.863 191.613C661.933 190.784 661.469 189.736 661.469 188.469C661.469 186.928 662.052 185.734 663.219 184.887C664.394 184.03 666.044 183.602 668.168 183.602H670.629V182.439C670.629 181.555 670.364 180.854 669.836 180.334C669.307 179.805 668.528 179.541 667.498 179.541C666.596 179.541 665.839 179.769 665.228 180.225C664.618 180.68 664.312 181.232 664.312 181.879H661.769C661.769 181.141 662.029 180.43 662.549 179.746C663.077 179.053 663.788 178.507 664.682 178.105C665.584 177.704 666.573 177.504 667.648 177.504C669.353 177.504 670.688 177.932 671.654 178.789C672.62 179.637 673.122 180.808 673.158 182.303V189.111C673.158 190.469 673.331 191.549 673.678 192.352V192.57H671.025ZM666.828 190.643C667.621 190.643 668.373 190.438 669.084 190.027C669.795 189.617 670.31 189.084 670.629 188.428V185.393H668.646C665.547 185.393 663.998 186.299 663.998 188.113C663.998 188.906 664.262 189.526 664.791 189.973C665.32 190.419 665.999 190.643 666.828 190.643ZM684.273 180.047C683.891 179.983 683.476 179.951 683.029 179.951C681.37 179.951 680.245 180.658 679.652 182.07V192.57H677.123V177.777H679.584L679.625 179.486C680.454 178.165 681.63 177.504 683.152 177.504C683.644 177.504 684.018 177.568 684.273 177.695V180.047ZM695.744 191.107C694.76 192.265 693.315 192.844 691.41 192.844C689.833 192.844 688.63 192.388 687.801 191.477C686.98 190.556 686.566 189.198 686.557 187.402V177.777H689.086V187.334C689.086 189.576 689.997 190.697 691.82 190.697C693.752 190.697 695.038 189.977 695.676 188.537V177.777H698.205V192.57H695.799L695.744 191.107ZM701.459 185.051C701.459 182.745 701.992 180.913 703.058 179.555C704.125 178.188 705.538 177.504 707.297 177.504C709.101 177.504 710.51 178.142 711.521 179.418L711.644 177.777H713.955V192.215C713.955 194.129 713.385 195.637 712.246 196.74C711.116 197.843 709.594 198.395 707.68 198.395C706.613 198.395 705.57 198.167 704.549 197.711C703.528 197.255 702.749 196.631 702.211 195.838L703.523 194.32C704.608 195.66 705.934 196.33 707.502 196.33C708.732 196.33 709.689 195.984 710.373 195.291C711.066 194.598 711.412 193.623 711.412 192.365V191.094C710.4 192.26 709.019 192.844 707.269 192.844C705.538 192.844 704.134 192.146 703.058 190.752C701.992 189.357 701.459 187.457 701.459 185.051ZM704.002 185.338C704.002 187.006 704.344 188.318 705.027 189.275C705.711 190.223 706.668 190.697 707.898 190.697C709.493 190.697 710.665 189.973 711.412 188.523V181.77C710.637 180.357 709.475 179.65 707.926 179.65C706.695 179.65 705.734 180.129 705.041 181.086C704.348 182.043 704.002 183.46 704.002 185.338ZM726.916 191.107C725.932 192.265 724.487 192.844 722.582 192.844C721.005 192.844 719.802 192.388 718.973 191.477C718.152 190.556 717.738 189.198 717.728 187.402V177.777H720.258V187.334C720.258 189.576 721.169 190.697 722.992 190.697C724.924 190.697 726.21 189.977 726.848 188.537V177.777H729.377V192.57H726.971L726.916 191.107ZM735.98 192.57H733.451V171.57H735.98V192.57ZM749.174 192.57C749.028 192.279 748.909 191.759 748.818 191.012C747.642 192.233 746.239 192.844 744.607 192.844C743.149 192.844 741.95 192.434 741.012 191.613C740.082 190.784 739.617 189.736 739.617 188.469C739.617 186.928 740.2 185.734 741.367 184.887C742.543 184.03 744.193 183.602 746.316 183.602H748.777V182.439C748.777 181.555 748.513 180.854 747.984 180.334C747.456 179.805 746.676 179.541 745.646 179.541C744.744 179.541 743.988 179.769 743.377 180.225C742.766 180.68 742.461 181.232 742.461 181.879H739.918C739.918 181.141 740.178 180.43 740.697 179.746C741.226 179.053 741.937 178.507 742.83 178.105C743.732 177.704 744.721 177.504 745.797 177.504C747.501 177.504 748.836 177.932 749.803 178.789C750.769 179.637 751.27 180.808 751.307 182.303V189.111C751.307 190.469 751.48 191.549 751.826 192.352V192.57H749.174ZM744.976 190.643C745.769 190.643 746.521 190.438 747.232 190.027C747.943 189.617 748.458 189.084 748.777 188.428V185.393H746.795C743.696 185.393 742.146 186.299 742.146 188.113C742.146 188.906 742.411 189.526 742.939 189.973C743.468 190.419 744.147 190.643 744.976 190.643Z" fill="#219653"/>
<path d="M794.001 354.114C794.001 353.33 794.169 352.648 794.505 352.07C794.841 351.472 795.373 350.968 796.101 350.558C796.848 350.147 797.8 349.82 798.957 349.578C800.115 349.316 801.515 349.139 803.157 349.046C803.083 348.411 802.803 347.916 802.317 347.562C801.851 347.207 801.141 347.03 800.189 347.03C799.517 347.03 798.836 347.151 798.145 347.394C797.473 347.618 796.745 347.926 795.961 348.318L794.505 345.63C795.457 345.088 796.475 344.64 797.557 344.286C798.659 343.931 799.807 343.754 801.001 343.754C802.943 343.754 804.473 344.267 805.593 345.294C806.713 346.32 807.273 347.898 807.273 350.026V357.978H803.913L803.605 356.41H803.493C802.784 356.951 802.009 357.408 801.169 357.782C800.329 358.136 799.461 358.314 798.565 358.314C797.856 358.314 797.221 358.202 796.661 357.978C796.101 357.772 795.625 357.483 795.233 357.11C794.841 356.718 794.533 356.27 794.309 355.766C794.104 355.262 794.001 354.711 794.001 354.114ZM797.949 353.806C797.949 354.254 798.117 354.59 798.453 354.814C798.808 355.019 799.284 355.122 799.881 355.122C800.497 355.122 801.076 355 801.617 354.758C802.159 354.496 802.672 354.179 803.157 353.806V351.51C802.131 351.566 801.281 351.659 800.609 351.79C799.937 351.92 799.405 352.088 799.013 352.294C798.621 352.48 798.341 352.704 798.173 352.966C798.024 353.227 797.949 353.507 797.949 353.806ZM810.818 338.35H818.966V352.714C818.966 353.143 819.022 353.507 819.134 353.806C819.265 354.086 819.433 354.319 819.638 354.506C819.862 354.674 820.105 354.795 820.366 354.87C820.646 354.944 820.926 354.982 821.206 354.982C821.524 354.982 821.86 354.954 822.214 354.898C822.569 354.823 822.961 354.702 823.39 354.534L824.314 357.558C823.941 357.67 823.596 357.772 823.278 357.866C822.961 357.959 822.644 358.034 822.326 358.09C822.009 358.164 821.673 358.22 821.318 358.258C820.964 358.295 820.572 358.314 820.142 358.314C818.388 358.314 817.062 357.8 816.166 356.774C815.289 355.728 814.85 354.319 814.85 352.546V341.598H810.818V338.35ZM830.743 347.31H827.243V344.258L830.939 344.09L831.471 340.394H834.859V344.09H840.739V347.31H834.859V352.182C834.859 353.246 835.093 354.002 835.559 354.45C836.026 354.879 836.763 355.094 837.771 355.094C838.313 355.094 838.807 355.047 839.255 354.954C839.703 354.86 840.133 354.739 840.543 354.59L841.271 357.558C840.655 357.744 839.965 357.912 839.199 358.062C838.453 358.23 837.631 358.314 836.735 358.314C835.634 358.314 834.701 358.164 833.935 357.866C833.17 357.567 832.545 357.156 832.059 356.634C831.593 356.092 831.257 355.448 831.051 354.702C830.846 353.955 830.743 353.124 830.743 352.21V347.31ZM857.78 359.49V362.57H844.34V359.49H857.78ZM861.466 344.09H864.826L865.134 345.938H865.246C865.843 345.34 866.524 344.827 867.29 344.398C868.074 343.968 868.988 343.754 870.034 343.754C871.602 343.754 872.75 344.258 873.478 345.266C874.206 346.274 874.57 347.655 874.57 349.41V357.978H870.454V349.942C870.454 349.008 870.304 348.327 870.006 347.898C869.707 347.468 869.175 347.254 868.41 347.254C867.85 347.254 867.355 347.375 866.926 347.618C866.515 347.86 866.067 348.224 865.582 348.71V357.978H861.466V344.09ZM877.947 354.114C877.947 353.33 878.115 352.648 878.451 352.07C878.787 351.472 879.319 350.968 880.047 350.558C880.793 350.147 881.745 349.82 882.903 349.578C884.06 349.316 885.46 349.139 887.103 349.046C887.028 348.411 886.748 347.916 886.263 347.562C885.796 347.207 885.087 347.03 884.135 347.03C883.463 347.03 882.781 347.151 882.091 347.394C881.419 347.618 880.691 347.926 879.907 348.318L878.451 345.63C879.403 345.088 880.42 344.64 881.503 344.286C882.604 343.931 883.752 343.754 884.947 343.754C886.888 343.754 888.419 344.267 889.539 345.294C890.659 346.32 891.219 347.898 891.219 350.026V357.978H887.859L887.551 356.41H887.439C886.729 356.951 885.955 357.408 885.115 357.782C884.275 358.136 883.407 358.314 882.511 358.314C881.801 358.314 881.167 358.202 880.607 357.978C880.047 357.772 879.571 357.483 879.179 357.11C878.787 356.718 878.479 356.27 878.255 355.766C878.049 355.262 877.947 354.711 877.947 354.114ZM881.895 353.806C881.895 354.254 882.063 354.59 882.399 354.814C882.753 355.019 883.229 355.122 883.827 355.122C884.443 355.122 885.021 355 885.563 354.758C886.104 354.496 886.617 354.179 887.103 353.806V351.51C886.076 351.566 885.227 351.659 884.555 351.79C883.883 351.92 883.351 352.088 882.959 352.294C882.567 352.48 882.287 352.704 882.119 352.966C881.969 353.227 881.895 353.507 881.895 353.806ZM894.036 344.09H897.116L897.424 345.826H897.536C897.797 345.247 898.152 344.762 898.6 344.37C899.066 343.959 899.701 343.754 900.504 343.754C901.12 343.754 901.633 343.95 902.044 344.342C902.473 344.715 902.772 345.275 902.94 346.022C903.201 345.387 903.574 344.855 904.06 344.426C904.564 343.978 905.208 343.754 905.992 343.754C906.962 343.754 907.718 344.155 908.26 344.958C908.801 345.742 909.072 346.834 909.072 348.234V357.978H905.208V348.542C905.208 347.683 904.946 347.254 904.424 347.254C903.92 347.254 903.49 347.702 903.136 348.598V357.978H899.972V348.542C899.972 347.683 899.701 347.254 899.16 347.254C898.898 347.254 898.674 347.366 898.488 347.59C898.301 347.814 898.105 348.15 897.9 348.598V357.978H894.036V344.09ZM911.357 351.034C911.357 349.895 911.553 348.878 911.945 347.982C912.355 347.086 912.897 346.33 913.569 345.714C914.241 345.079 915.006 344.594 915.865 344.258C916.742 343.922 917.647 343.754 918.581 343.754C919.645 343.754 920.587 343.922 921.409 344.258C922.23 344.594 922.911 345.06 923.453 345.658C923.994 346.255 924.405 346.964 924.685 347.786C924.965 348.588 925.105 349.466 925.105 350.418C925.105 350.791 925.086 351.146 925.049 351.482C925.011 351.818 924.974 352.07 924.937 352.238H915.585C915.734 353.283 916.182 354.039 916.929 354.506C917.694 354.954 918.59 355.178 919.617 355.178C920.251 355.178 920.849 355.103 921.409 354.954C921.987 354.786 922.585 354.543 923.201 354.226L924.545 356.69C923.761 357.194 922.883 357.595 921.913 357.894C920.942 358.174 919.99 358.314 919.057 358.314C917.974 358.314 916.966 358.155 916.033 357.838C915.099 357.502 914.287 357.026 913.597 356.41C912.906 355.775 912.355 355.01 911.945 354.114C911.553 353.218 911.357 352.191 911.357 351.034ZM921.381 349.522C921.381 348.738 921.166 348.103 920.737 347.618C920.307 347.132 919.617 346.89 918.665 346.89C917.918 346.89 917.255 347.104 916.677 347.534C916.098 347.963 915.715 348.626 915.529 349.522H921.381Z" fill="#4F4F4F"/>
<path d="M705.642 296.187C706.545 296.187 707.333 295.913 708.008 295.366C708.682 294.82 709.056 294.136 709.129 293.316H711.521C711.476 294.163 711.184 294.97 710.646 295.736C710.109 296.501 709.389 297.112 708.486 297.568C707.593 298.023 706.645 298.251 705.642 298.251C703.628 298.251 702.024 297.581 700.83 296.241C699.645 294.892 699.053 293.051 699.053 290.718V290.294C699.053 288.854 699.317 287.573 699.846 286.452C700.374 285.331 701.131 284.461 702.115 283.841C703.109 283.221 704.28 282.911 705.629 282.911C707.288 282.911 708.664 283.408 709.758 284.402C710.861 285.395 711.448 286.685 711.521 288.271H709.129C709.056 287.314 708.691 286.53 708.035 285.919C707.388 285.299 706.586 284.99 705.629 284.99C704.344 284.99 703.346 285.454 702.635 286.384C701.933 287.305 701.582 288.64 701.582 290.39V290.868C701.582 292.573 701.933 293.885 702.635 294.806C703.336 295.726 704.339 296.187 705.642 296.187ZM713.695 290.445C713.695 288.995 713.978 287.692 714.543 286.534C715.117 285.377 715.91 284.484 716.922 283.855C717.943 283.226 719.105 282.911 720.408 282.911C722.422 282.911 724.049 283.609 725.289 285.003C726.538 286.398 727.162 288.253 727.162 290.568V290.745C727.162 292.185 726.884 293.48 726.328 294.628C725.781 295.767 724.993 296.656 723.963 297.294C722.942 297.932 721.766 298.251 720.435 298.251C718.43 298.251 716.803 297.554 715.555 296.159C714.315 294.765 713.695 292.919 713.695 290.622V290.445ZM716.238 290.745C716.238 292.386 716.616 293.703 717.373 294.697C718.139 295.69 719.159 296.187 720.435 296.187C721.721 296.187 722.741 295.685 723.498 294.683C724.254 293.671 724.633 292.258 724.633 290.445C724.633 288.822 724.245 287.51 723.471 286.507C722.705 285.495 721.684 284.99 720.408 284.99C719.159 284.99 718.152 285.486 717.387 286.48C716.621 287.473 716.238 288.895 716.238 290.745ZM737.484 285.454C737.101 285.391 736.687 285.359 736.24 285.359C734.581 285.359 733.456 286.065 732.863 287.478V297.978H730.334V283.185H732.795L732.836 284.894C733.665 283.572 734.841 282.911 736.363 282.911C736.855 282.911 737.229 282.975 737.484 283.103V285.454ZM742.215 283.185L742.297 285.044C743.427 283.622 744.904 282.911 746.726 282.911C749.853 282.911 751.43 284.675 751.457 288.202V297.978H748.928V288.189C748.919 287.122 748.672 286.334 748.189 285.823C747.715 285.313 746.973 285.058 745.961 285.058C745.141 285.058 744.42 285.277 743.801 285.714C743.181 286.152 742.698 286.726 742.351 287.437V297.978H739.822V283.185H742.215Z" fill="#F2C94C"/>
<rect x="763.45" y="263.992" width="192" height="51.9927" stroke="black"/>
<path d="M829.951 283.548L830.019 285.189C831.104 283.913 832.566 283.275 834.408 283.275C836.477 283.275 837.885 284.068 838.632 285.654C839.124 284.943 839.762 284.368 840.546 283.931C841.339 283.493 842.273 283.275 843.349 283.275C846.594 283.275 848.244 284.993 848.298 288.429V298.341H845.769V288.579C845.769 287.522 845.527 286.734 845.044 286.214C844.561 285.685 843.75 285.421 842.611 285.421C841.672 285.421 840.893 285.704 840.273 286.269C839.653 286.825 839.293 287.577 839.193 288.525V298.341H836.65V288.648C836.65 286.497 835.597 285.421 833.492 285.421C831.833 285.421 830.698 286.128 830.087 287.54V298.341H827.558V283.548H829.951ZM861.259 298.341C861.113 298.049 860.995 297.53 860.904 296.782C859.728 298.004 858.324 298.615 856.693 298.615C855.234 298.615 854.036 298.204 853.097 297.384C852.167 296.555 851.703 295.506 851.703 294.24C851.703 292.699 852.286 291.505 853.453 290.657C854.628 289.801 856.278 289.372 858.402 289.372H860.863V288.21C860.863 287.326 860.598 286.624 860.07 286.105C859.541 285.576 858.762 285.312 857.732 285.312C856.829 285.312 856.073 285.54 855.462 285.995C854.852 286.451 854.546 287.003 854.546 287.65H852.003C852.003 286.911 852.263 286.2 852.783 285.517C853.311 284.824 854.022 284.277 854.915 283.876C855.818 283.475 856.807 283.275 857.882 283.275C859.587 283.275 860.922 283.703 861.888 284.56C862.854 285.407 863.356 286.579 863.392 288.073V294.882C863.392 296.24 863.565 297.32 863.912 298.122V298.341H861.259ZM857.062 296.413C857.855 296.413 858.607 296.208 859.318 295.798C860.029 295.388 860.544 294.855 860.863 294.198V291.163H858.88C855.781 291.163 854.232 292.07 854.232 293.884C854.232 294.677 854.496 295.297 855.025 295.743C855.553 296.19 856.232 296.413 857.062 296.413ZM870.105 298.341H867.576V283.548H870.105V298.341ZM867.37 279.624C867.37 279.214 867.494 278.868 867.74 278.585C867.995 278.303 868.369 278.161 868.861 278.161C869.353 278.161 869.727 278.303 869.982 278.585C870.237 278.868 870.365 279.214 870.365 279.624C870.365 280.034 870.237 280.376 869.982 280.65C869.727 280.923 869.353 281.06 868.861 281.06C868.369 281.06 867.995 280.923 867.74 280.65C867.494 280.376 867.37 280.034 867.37 279.624ZM876.544 296.277H885.199V298.341H873.454V296.482L881.617 285.64H873.578V283.548H884.788V285.339L876.544 296.277ZM893.976 298.615C891.971 298.615 890.339 297.958 889.081 296.646C887.824 295.324 887.195 293.56 887.195 291.355V290.89C887.195 289.422 887.473 288.115 888.029 286.966C888.594 285.809 889.378 284.906 890.38 284.259C891.392 283.603 892.486 283.275 893.662 283.275C895.585 283.275 897.079 283.908 898.146 285.175C899.212 286.442 899.745 288.256 899.745 290.616V291.669H889.724C889.76 293.128 890.184 294.308 890.995 295.21C891.816 296.103 892.855 296.55 894.113 296.55C895.006 296.55 895.762 296.368 896.382 296.003C897.002 295.639 897.544 295.156 898.009 294.554L899.554 295.757C898.315 297.662 896.455 298.615 893.976 298.615ZM893.662 285.353C892.641 285.353 891.784 285.726 891.091 286.474C890.398 287.212 889.97 288.251 889.806 289.591H897.216V289.4C897.143 288.115 896.797 287.121 896.177 286.419C895.557 285.708 894.719 285.353 893.662 285.353Z" fill="black"/>
</svg>
