<svg width="1120" height="406" viewBox="0 0 1120 406" fill="none" xmlns="http://www.w3.org/2000/svg">
<rect width="560" height="203" transform="scale(2)" fill="white"/>
<rect x="366" y="71.9629" width="116" height="53.1482" stroke="black"/>
<path d="M404.112 107.953V95.1154H401.775V93.1603H404.112V91.6427C404.112 90.0568 404.536 88.8309 405.384 87.965C406.232 87.0991 407.43 86.6661 408.98 86.6661C409.563 86.6661 410.142 86.7436 410.716 86.8986L410.579 88.9493C410.151 88.8673 409.695 88.8263 409.212 88.8263C408.392 88.8263 407.758 89.0678 407.312 89.5509C406.865 90.0249 406.642 90.7085 406.642 91.6017V93.1603H409.8V95.1154H406.642V107.953H404.112ZM419.753 95.4298C419.37 95.366 418.956 95.3341 418.509 95.3341C416.85 95.3341 415.724 96.0405 415.132 97.4532V107.953H412.603V93.1603H415.064L415.105 94.8693C415.934 93.5476 417.11 92.8868 418.632 92.8868C419.124 92.8868 419.498 92.9506 419.753 93.0782V95.4298ZM431.224 106.49C430.239 107.648 428.795 108.227 426.89 108.227C425.313 108.227 424.11 107.771 423.28 106.859C422.46 105.939 422.045 104.581 422.036 102.785V93.1603H424.566V102.717C424.566 104.959 425.477 106.08 427.3 106.08C429.232 106.08 430.517 105.36 431.155 103.92V93.1603H433.685V107.953H431.278L431.224 106.49ZM440.288 107.953H437.759V93.1603H440.288V107.953ZM437.554 89.2365C437.554 88.8263 437.677 88.4799 437.923 88.1974C438.178 87.9148 438.552 87.7736 439.044 87.7736C439.536 87.7736 439.91 87.9148 440.165 88.1974C440.42 88.4799 440.548 88.8263 440.548 89.2365C440.548 89.6466 440.42 89.9884 440.165 90.2618C439.91 90.5353 439.536 90.672 439.044 90.672C438.552 90.672 438.178 90.5353 437.923 90.2618C437.677 89.9884 437.554 89.6466 437.554 89.2365ZM447.78 89.5782V93.1603H450.542V95.1154H447.78V104.289C447.78 104.882 447.903 105.328 448.15 105.629C448.396 105.921 448.815 106.067 449.407 106.067C449.699 106.067 450.1 106.012 450.61 105.902V107.953C449.945 108.136 449.298 108.227 448.669 108.227C447.539 108.227 446.687 107.885 446.112 107.201C445.538 106.518 445.251 105.547 445.251 104.289V95.1154H442.558V93.1603H445.251V89.5782H447.78Z" fill="black"/>
<rect x="366" y="125.111" width="116" height="53.1482" stroke="black"/>
<path d="M411.099 157.888L414.763 146.527H417.347L412.042 161.32H410.114L404.755 146.527H407.339L411.099 157.888ZM425.728 161.593C423.722 161.593 422.091 160.937 420.833 159.625C419.575 158.303 418.946 156.539 418.946 154.334V153.869C418.946 152.401 419.224 151.093 419.78 149.945C420.345 148.787 421.129 147.885 422.132 147.238C423.144 146.582 424.237 146.254 425.413 146.254C427.336 146.254 428.831 146.887 429.898 148.154C430.964 149.421 431.497 151.235 431.497 153.595V154.648H421.476C421.512 156.106 421.936 157.287 422.747 158.189C423.567 159.082 424.607 159.529 425.864 159.529C426.758 159.529 427.514 159.347 428.134 158.982C428.754 158.617 429.296 158.134 429.761 157.533L431.306 158.736C430.066 160.641 428.207 161.593 425.728 161.593ZM425.413 148.332C424.392 148.332 423.536 148.705 422.843 149.453C422.15 150.191 421.722 151.23 421.558 152.57H428.968V152.379C428.895 151.093 428.549 150.1 427.929 149.398C427.309 148.687 426.47 148.332 425.413 148.332ZM433.835 153.8C433.835 151.494 434.368 149.662 435.435 148.304C436.501 146.937 437.914 146.254 439.673 146.254C441.478 146.254 442.886 146.892 443.898 148.168L444.021 146.527H446.331V160.964C446.331 162.879 445.761 164.387 444.622 165.49C443.492 166.593 441.97 167.144 440.056 167.144C438.989 167.144 437.946 166.916 436.925 166.461C435.904 166.005 435.125 165.38 434.587 164.588L435.9 163.07C436.984 164.41 438.31 165.08 439.878 165.08C441.108 165.08 442.066 164.733 442.749 164.041C443.442 163.348 443.788 162.373 443.788 161.115V159.843C442.776 161.01 441.396 161.593 439.646 161.593C437.914 161.593 436.51 160.896 435.435 159.502C434.368 158.107 433.835 156.207 433.835 153.8ZM436.378 154.088C436.378 155.755 436.72 157.068 437.403 158.025C438.087 158.973 439.044 159.447 440.275 159.447C441.87 159.447 443.041 158.722 443.788 157.273V150.519C443.013 149.106 441.851 148.4 440.302 148.4C439.071 148.4 438.11 148.879 437.417 149.836C436.724 150.793 436.378 152.21 436.378 154.088Z" fill="black"/>
<rect x="366" y="178" width="116" height="54" stroke="black"/>
<path d="M404.223 214.646V201.808H401.886V199.853H404.223V198.335C404.223 196.75 404.647 195.524 405.495 194.658C406.343 193.792 407.541 193.359 409.091 193.359C409.674 193.359 410.253 193.436 410.827 193.591L410.69 195.642C410.262 195.56 409.806 195.519 409.323 195.519C408.503 195.519 407.869 195.761 407.423 196.244C406.976 196.718 406.753 197.401 406.753 198.294V199.853H409.911V201.808H406.753V214.646H404.223ZM419.864 202.123C419.481 202.059 419.067 202.027 418.62 202.027C416.961 202.027 415.835 202.733 415.243 204.146V214.646H412.714V199.853H415.175L415.216 201.562C416.045 200.24 417.221 199.58 418.743 199.58C419.235 199.58 419.609 199.643 419.864 199.771V202.123ZM431.335 213.183C430.35 214.341 428.906 214.919 427.001 214.919C425.424 214.919 424.221 214.464 423.391 213.552C422.571 212.632 422.156 211.274 422.147 209.478V199.853H424.677V209.41C424.677 211.652 425.588 212.773 427.411 212.773C429.343 212.773 430.628 212.053 431.266 210.613V199.853H433.796V214.646H431.39L431.335 213.183ZM440.399 214.646H437.87V199.853H440.399V214.646ZM437.665 195.929C437.665 195.519 437.788 195.173 438.034 194.89C438.289 194.608 438.663 194.466 439.155 194.466C439.647 194.466 440.021 194.608 440.276 194.89C440.531 195.173 440.659 195.519 440.659 195.929C440.659 196.339 440.531 196.681 440.276 196.955C440.021 197.228 439.647 197.365 439.155 197.365C438.663 197.365 438.289 197.228 438.034 196.955C437.788 196.681 437.665 196.339 437.665 195.929ZM447.891 196.271V199.853H450.653V201.808H447.891V210.982C447.891 211.574 448.015 212.021 448.261 212.322C448.507 212.613 448.926 212.759 449.518 212.759C449.81 212.759 450.211 212.705 450.722 212.595V214.646C450.056 214.828 449.409 214.919 448.78 214.919C447.65 214.919 446.798 214.578 446.223 213.894C445.649 213.21 445.362 212.24 445.362 210.982V201.808H442.669V199.853H445.362V196.271H447.891Z" fill="black"/>
<path d="M290.037 160.209C290.939 160.209 291.727 159.936 292.402 159.389C293.076 158.842 293.45 158.158 293.523 157.338H295.916C295.87 158.186 295.578 158.992 295.041 159.758C294.503 160.523 293.783 161.134 292.88 161.59C291.987 162.046 291.039 162.273 290.037 162.273C288.022 162.273 286.418 161.604 285.224 160.264C284.039 158.915 283.447 157.074 283.447 154.74V154.316C283.447 152.876 283.711 151.596 284.24 150.475C284.768 149.354 285.525 148.483 286.509 147.863C287.503 147.243 288.674 146.934 290.023 146.934C291.682 146.934 293.058 147.43 294.152 148.424C295.255 149.417 295.843 150.707 295.916 152.293H293.523C293.45 151.336 293.086 150.552 292.429 149.941C291.782 149.322 290.98 149.012 290.023 149.012C288.738 149.012 287.74 149.477 287.029 150.406C286.327 151.327 285.976 152.662 285.976 154.412V154.891C285.976 156.595 286.327 157.908 287.029 158.828C287.731 159.749 288.733 160.209 290.037 160.209ZM307.892 162C307.746 161.708 307.628 161.189 307.537 160.441C306.361 161.663 304.957 162.273 303.326 162.273C301.867 162.273 300.669 161.863 299.73 161.043C298.8 160.214 298.336 159.165 298.336 157.898C298.336 156.358 298.919 155.164 300.086 154.316C301.261 153.46 302.911 153.031 305.035 153.031H307.496V151.869C307.496 150.985 307.231 150.283 306.703 149.764C306.174 149.235 305.395 148.971 304.365 148.971C303.462 148.971 302.706 149.199 302.095 149.654C301.485 150.11 301.179 150.661 301.179 151.309H298.636C298.636 150.57 298.896 149.859 299.416 149.176C299.944 148.483 300.655 147.936 301.548 147.535C302.451 147.134 303.44 146.934 304.515 146.934C306.22 146.934 307.555 147.362 308.521 148.219C309.487 149.066 309.988 150.238 310.025 151.732V158.541C310.025 159.899 310.198 160.979 310.544 161.781V162H307.892ZM303.695 160.072C304.488 160.072 305.24 159.867 305.951 159.457C306.662 159.047 307.177 158.514 307.496 157.857V154.822H305.513C302.414 154.822 300.865 155.729 300.865 157.543C300.865 158.336 301.129 158.956 301.658 159.402C302.186 159.849 302.865 160.072 303.695 160.072ZM321.14 149.477C320.757 149.413 320.343 149.381 319.896 149.381C318.237 149.381 317.112 150.087 316.519 151.5V162H313.99V147.207H316.451L316.492 148.916C317.321 147.594 318.497 146.934 320.019 146.934C320.511 146.934 320.885 146.997 321.14 147.125V149.477ZM330.628 149.477C330.246 149.413 329.831 149.381 329.384 149.381C327.725 149.381 326.6 150.087 326.007 151.5V162H323.478V147.207H325.939L325.98 148.916C326.809 147.594 327.985 146.934 329.507 146.934C330 146.934 330.373 146.997 330.628 147.125V149.477ZM332.023 154.467C332.023 153.018 332.306 151.714 332.871 150.557C333.445 149.399 334.238 148.506 335.25 147.877C336.27 147.248 337.433 146.934 338.736 146.934C340.75 146.934 342.377 147.631 343.617 149.025C344.865 150.42 345.49 152.275 345.49 154.59V154.768C345.49 156.208 345.212 157.502 344.656 158.65C344.109 159.79 343.321 160.678 342.291 161.316C341.27 161.954 340.094 162.273 338.763 162.273C336.758 162.273 335.131 161.576 333.882 160.182C332.643 158.787 332.023 156.941 332.023 154.645V154.467ZM334.566 154.768C334.566 156.408 334.944 157.725 335.701 158.719C336.466 159.712 337.487 160.209 338.763 160.209C340.048 160.209 341.069 159.708 341.826 158.705C342.582 157.693 342.961 156.281 342.961 154.467C342.961 152.844 342.573 151.532 341.798 150.529C341.033 149.518 340.012 149.012 338.736 149.012C337.487 149.012 336.48 149.508 335.714 150.502C334.949 151.495 334.566 152.917 334.566 154.768ZM352.093 143.625V147.207H354.855V149.162H352.093V158.336C352.093 158.928 352.216 159.375 352.462 159.676C352.709 159.967 353.128 160.113 353.72 160.113C354.012 160.113 354.413 160.059 354.923 159.949V162C354.258 162.182 353.611 162.273 352.982 162.273C351.852 162.273 351 161.932 350.425 161.248C349.851 160.564 349.564 159.594 349.564 158.336V149.162H346.871V147.207H349.564V143.625H352.093Z" fill="#F2994A"/>
<path d="M307.643 214.593H305.113V193.593H307.643V214.593ZM314.451 214.593H311.922V199.8H314.451V214.593ZM311.717 195.876C311.717 195.466 311.84 195.119 312.086 194.837C312.341 194.554 312.715 194.413 313.207 194.413C313.699 194.413 314.073 194.554 314.328 194.837C314.583 195.119 314.711 195.466 314.711 195.876C314.711 196.286 314.583 196.628 314.328 196.901C314.073 197.175 313.699 197.311 313.207 197.311C312.715 197.311 312.341 197.175 312.086 196.901C311.84 196.628 311.717 196.286 311.717 195.876ZM320.891 199.8L320.959 201.44C322.044 200.164 323.507 199.526 325.348 199.526C327.417 199.526 328.825 200.319 329.572 201.905C330.064 201.194 330.702 200.62 331.486 200.182C332.279 199.745 333.214 199.526 334.289 199.526C337.534 199.526 339.184 201.244 339.238 204.68V214.593H336.709V204.831C336.709 203.774 336.467 202.985 335.984 202.466C335.501 201.937 334.69 201.673 333.551 201.673C332.612 201.673 331.833 201.955 331.213 202.52C330.593 203.076 330.233 203.828 330.133 204.776V214.593H327.59V204.899C327.59 202.748 326.537 201.673 324.432 201.673C322.773 201.673 321.638 202.379 321.027 203.792V214.593H318.498V199.8H320.891ZM349.205 214.866C347.2 214.866 345.568 214.21 344.311 212.897C343.053 211.576 342.424 209.812 342.424 207.606V207.141C342.424 205.674 342.702 204.366 343.258 203.218C343.823 202.06 344.607 201.158 345.609 200.51C346.621 199.854 347.715 199.526 348.891 199.526C350.814 199.526 352.309 200.16 353.375 201.427C354.441 202.693 354.975 204.507 354.975 206.868V207.921H344.953C344.99 209.379 345.413 210.559 346.225 211.462C347.045 212.355 348.084 212.802 349.342 212.802C350.235 212.802 350.992 212.619 351.611 212.255C352.231 211.89 352.773 211.407 353.238 210.805L354.783 212.009C353.544 213.913 351.684 214.866 349.205 214.866ZM348.891 201.604C347.87 201.604 347.013 201.978 346.32 202.725C345.628 203.464 345.199 204.503 345.035 205.843H352.445V205.651C352.372 204.366 352.026 203.372 351.406 202.671C350.786 201.96 349.948 201.604 348.891 201.604Z" fill="#27AE60"/>
<path d="M536.018 363.816C535.103 363.461 534.133 363.284 533.106 363.284C532.21 363.284 531.547 363.48 531.118 363.872C530.707 364.264 530.502 364.88 530.502 365.72V366.112H535.29V369.332H530.502V380H526.386V369.332H522.718V366.28L526.386 366.112V365.748C526.386 364.945 526.507 364.199 526.75 363.508C526.993 362.817 527.366 362.22 527.87 361.716C528.374 361.193 529.018 360.783 529.802 360.484C530.586 360.185 531.519 360.036 532.602 360.036C533.405 360.036 534.151 360.111 534.842 360.26C535.551 360.409 536.205 360.587 536.802 360.792L536.018 363.816ZM538.527 373.056C538.527 371.899 538.723 370.872 539.115 369.976C539.507 369.061 540.03 368.296 540.683 367.68C541.355 367.064 542.111 366.597 542.951 366.28C543.81 365.944 544.696 365.776 545.611 365.776C546.526 365.776 547.403 365.944 548.243 366.28C549.102 366.597 549.858 367.064 550.511 367.68C551.183 368.296 551.715 369.061 552.107 369.976C552.499 370.872 552.695 371.899 552.695 373.056C552.695 374.213 552.499 375.249 552.107 376.164C551.715 377.06 551.183 377.816 550.511 378.432C549.858 379.048 549.102 379.524 548.243 379.86C547.403 380.177 546.526 380.336 545.611 380.336C544.696 380.336 543.81 380.177 542.951 379.86C542.111 379.524 541.355 379.048 540.683 378.432C540.03 377.816 539.507 377.06 539.115 376.164C538.723 375.249 538.527 374.213 538.527 373.056ZM542.755 373.056C542.755 374.269 542.988 375.231 543.455 375.94C543.94 376.649 544.659 377.004 545.611 377.004C546.563 377.004 547.272 376.649 547.739 375.94C548.224 375.231 548.467 374.269 548.467 373.056C548.467 371.843 548.224 370.881 547.739 370.172C547.272 369.463 546.563 369.108 545.611 369.108C544.659 369.108 543.94 369.463 543.455 370.172C542.988 370.881 542.755 371.843 542.755 373.056ZM555.316 373.056C555.316 371.899 555.512 370.872 555.904 369.976C556.296 369.061 556.819 368.296 557.472 367.68C558.144 367.064 558.9 366.597 559.74 366.28C560.599 365.944 561.485 365.776 562.4 365.776C563.315 365.776 564.192 365.944 565.032 366.28C565.891 366.597 566.647 367.064 567.3 367.68C567.972 368.296 568.504 369.061 568.896 369.976C569.288 370.872 569.484 371.899 569.484 373.056C569.484 374.213 569.288 375.249 568.896 376.164C568.504 377.06 567.972 377.816 567.3 378.432C566.647 379.048 565.891 379.524 565.032 379.86C564.192 380.177 563.315 380.336 562.4 380.336C561.485 380.336 560.599 380.177 559.74 379.86C558.9 379.524 558.144 379.048 557.472 378.432C556.819 377.816 556.296 377.06 555.904 376.164C555.512 375.249 555.316 374.213 555.316 373.056ZM559.544 373.056C559.544 374.269 559.777 375.231 560.244 375.94C560.729 376.649 561.448 377.004 562.4 377.004C563.352 377.004 564.061 376.649 564.528 375.94C565.013 375.231 565.256 374.269 565.256 373.056C565.256 371.843 565.013 370.881 564.528 370.172C564.061 369.463 563.352 369.108 562.4 369.108C561.448 369.108 560.729 369.463 560.244 370.172C559.777 370.881 559.544 371.843 559.544 373.056ZM572.105 373.056C572.105 371.917 572.273 370.9 572.609 370.004C572.945 369.108 573.384 368.352 573.925 367.736C574.485 367.101 575.12 366.616 575.829 366.28C576.538 365.944 577.276 365.776 578.041 365.776C578.844 365.776 579.516 365.916 580.057 366.196C580.598 366.457 581.112 366.812 581.597 367.26L581.457 365.104V360.372H585.573V380H582.213L581.905 378.572H581.821C581.298 379.076 580.701 379.496 580.029 379.832C579.357 380.168 578.666 380.336 577.957 380.336C577.08 380.336 576.277 380.168 575.549 379.832C574.84 379.496 574.224 379.02 573.701 378.404C573.197 377.769 572.805 377.004 572.525 376.108C572.245 375.212 572.105 374.195 572.105 373.056ZM576.333 373C576.333 374.381 576.566 375.389 577.033 376.024C577.5 376.659 578.162 376.976 579.021 376.976C579.488 376.976 579.917 376.883 580.309 376.696C580.701 376.491 581.084 376.155 581.457 375.688V370.06C581.084 369.724 580.701 369.491 580.309 369.36C579.936 369.211 579.544 369.136 579.133 369.136C578.368 369.136 577.705 369.453 577.145 370.088C576.604 370.723 576.333 371.693 576.333 373Z" fill="#4F4F4F"/>
<path d="M308.193 264.209C309.095 264.209 309.884 263.936 310.558 263.389C311.233 262.842 311.606 262.158 311.679 261.338H314.072C314.026 262.186 313.735 262.992 313.197 263.758C312.659 264.523 311.939 265.134 311.037 265.59C310.143 266.046 309.196 266.273 308.193 266.273C306.179 266.273 304.574 265.604 303.38 264.264C302.196 262.915 301.603 261.074 301.603 258.74V258.316C301.603 256.876 301.867 255.596 302.396 254.475C302.925 253.354 303.681 252.483 304.666 251.863C305.659 251.243 306.83 250.934 308.179 250.934C309.838 250.934 311.214 251.43 312.308 252.424C313.411 253.417 313.999 254.707 314.072 256.293H311.679C311.606 255.336 311.242 254.552 310.585 253.941C309.938 253.322 309.136 253.012 308.179 253.012C306.894 253.012 305.896 253.477 305.185 254.406C304.483 255.327 304.132 256.662 304.132 258.412V258.891C304.132 260.595 304.483 261.908 305.185 262.828C305.887 263.749 306.89 264.209 308.193 264.209ZM316.246 258.467C316.246 257.018 316.528 255.714 317.093 254.557C317.668 253.399 318.46 252.506 319.472 251.877C320.493 251.248 321.655 250.934 322.959 250.934C324.973 250.934 326.6 251.631 327.839 253.025C329.088 254.42 329.712 256.275 329.712 258.59V258.768C329.712 260.208 329.434 261.502 328.878 262.65C328.332 263.79 327.543 264.678 326.513 265.316C325.492 265.954 324.317 266.273 322.986 266.273C320.981 266.273 319.354 265.576 318.105 264.182C316.865 262.787 316.246 260.941 316.246 258.645V258.467ZM318.789 258.768C318.789 260.408 319.167 261.725 319.923 262.719C320.689 263.712 321.71 264.209 322.986 264.209C324.271 264.209 325.292 263.708 326.048 262.705C326.805 261.693 327.183 260.281 327.183 258.467C327.183 256.844 326.796 255.532 326.021 254.529C325.255 253.518 324.235 253.012 322.959 253.012C321.71 253.012 320.703 253.508 319.937 254.502C319.171 255.495 318.789 256.917 318.789 258.768ZM340.035 253.477C339.652 253.413 339.237 253.381 338.791 253.381C337.132 253.381 336.006 254.087 335.414 255.5V266H332.884V251.207H335.345L335.386 252.916C336.216 251.594 337.391 250.934 338.914 250.934C339.406 250.934 339.779 250.997 340.035 251.125V253.477ZM344.765 251.207L344.847 253.066C345.977 251.645 347.454 250.934 349.277 250.934C352.403 250.934 353.98 252.697 354.007 256.225V266H351.478V256.211C351.469 255.145 351.223 254.356 350.74 253.846C350.266 253.335 349.523 253.08 348.511 253.08C347.691 253.08 346.971 253.299 346.351 253.736C345.731 254.174 345.248 254.748 344.902 255.459V266H342.373V251.207H344.765Z" fill="#F2C94C"/>
<path d="M255.296 320.273C253.291 320.273 251.66 319.617 250.402 318.305C249.144 316.983 248.515 315.219 248.515 313.014V312.549C248.515 311.081 248.793 309.773 249.349 308.625C249.914 307.467 250.698 306.565 251.701 305.918C252.712 305.262 253.806 304.934 254.982 304.934C256.905 304.934 258.4 305.567 259.466 306.834C260.533 308.101 261.066 309.915 261.066 312.275V313.328H251.044C251.081 314.786 251.505 315.967 252.316 316.869C253.136 317.762 254.175 318.209 255.433 318.209C256.326 318.209 257.083 318.027 257.703 317.662C258.322 317.298 258.865 316.814 259.33 316.213L260.875 317.416C259.635 319.321 257.776 320.273 255.296 320.273ZM254.982 307.012C253.961 307.012 253.104 307.385 252.412 308.133C251.719 308.871 251.291 309.91 251.126 311.25H258.537V311.059C258.464 309.773 258.117 308.78 257.498 308.078C256.878 307.367 256.039 307.012 254.982 307.012ZM263.404 312.48C263.404 310.174 263.937 308.342 265.003 306.984C266.07 305.617 267.483 304.934 269.242 304.934C271.046 304.934 272.455 305.572 273.466 306.848L273.589 305.207H275.9V319.645C275.9 321.559 275.33 323.067 274.191 324.17C273.061 325.273 271.539 325.824 269.625 325.824C268.558 325.824 267.515 325.596 266.494 325.141C265.473 324.685 264.694 324.061 264.156 323.268L265.468 321.75C266.553 323.09 267.879 323.76 269.447 323.76C270.677 323.76 271.634 323.413 272.318 322.721C273.011 322.028 273.357 321.053 273.357 319.795V318.523C272.345 319.69 270.964 320.273 269.214 320.273C267.483 320.273 266.079 319.576 265.003 318.182C263.937 316.787 263.404 314.887 263.404 312.48ZM265.947 312.768C265.947 314.436 266.289 315.748 266.972 316.705C267.656 317.653 268.613 318.127 269.843 318.127C271.438 318.127 272.61 317.402 273.357 315.953V309.199C272.582 307.786 271.42 307.08 269.871 307.08C268.64 307.08 267.679 307.559 266.986 308.516C266.293 309.473 265.947 310.89 265.947 312.768ZM279.126 312.48C279.126 310.174 279.66 308.342 280.726 306.984C281.793 305.617 283.205 304.934 284.964 304.934C286.769 304.934 288.177 305.572 289.189 306.848L289.312 305.207H291.623V319.645C291.623 321.559 291.053 323.067 289.914 324.17C288.783 325.273 287.261 325.824 285.347 325.824C284.281 325.824 283.237 325.596 282.216 325.141C281.195 324.685 280.416 324.061 279.878 323.268L281.191 321.75C282.276 323.09 283.602 323.76 285.169 323.76C286.4 323.76 287.357 323.413 288.041 322.721C288.733 322.028 289.08 321.053 289.08 319.795V318.523C288.068 319.69 286.687 320.273 284.937 320.273C283.205 320.273 281.802 319.576 280.726 318.182C279.66 316.787 279.126 314.887 279.126 312.48ZM281.669 312.768C281.669 314.436 282.011 315.748 282.695 316.705C283.378 317.653 284.335 318.127 285.566 318.127C287.161 318.127 288.332 317.402 289.08 315.953V309.199C288.305 307.786 287.143 307.08 285.593 307.08C284.363 307.08 283.401 307.559 282.709 308.516C282.016 309.473 281.669 310.89 281.669 312.768ZM307.947 312.768C307.947 315.019 307.432 316.833 306.402 318.209C305.372 319.585 303.977 320.273 302.218 320.273C300.423 320.273 299.01 319.704 297.98 318.564V325.688H295.451V305.207H297.761L297.884 306.848C298.914 305.572 300.345 304.934 302.177 304.934C303.955 304.934 305.358 305.604 306.388 306.943C307.427 308.283 307.947 310.147 307.947 312.535V312.768ZM305.418 312.48C305.418 310.812 305.062 309.495 304.351 308.529C303.64 307.563 302.665 307.08 301.425 307.08C299.894 307.08 298.746 307.759 297.98 309.117V316.186C298.737 317.535 299.894 318.209 301.453 318.209C302.665 318.209 303.626 317.73 304.337 316.773C305.057 315.807 305.418 314.376 305.418 312.48ZM313.921 320H311.392V299H313.921V320ZM327.115 320C326.969 319.708 326.85 319.189 326.759 318.441C325.584 319.663 324.18 320.273 322.548 320.273C321.09 320.273 319.891 319.863 318.953 319.043C318.023 318.214 317.558 317.165 317.558 315.898C317.558 314.358 318.141 313.164 319.308 312.316C320.484 311.46 322.134 311.031 324.257 311.031H326.718V309.869C326.718 308.985 326.454 308.283 325.925 307.764C325.397 307.235 324.617 306.971 323.587 306.971C322.685 306.971 321.929 307.199 321.318 307.654C320.707 308.11 320.402 308.661 320.402 309.309H317.859C317.859 308.57 318.119 307.859 318.638 307.176C319.167 306.483 319.878 305.936 320.771 305.535C321.673 305.134 322.662 304.934 323.738 304.934C325.442 304.934 326.778 305.362 327.744 306.219C328.71 307.066 329.211 308.238 329.248 309.732V316.541C329.248 317.899 329.421 318.979 329.767 319.781V320H327.115ZM322.918 318.072C323.71 318.072 324.462 317.867 325.173 317.457C325.884 317.047 326.399 316.514 326.718 315.857V312.822H324.736C321.637 312.822 320.087 313.729 320.087 315.543C320.087 316.336 320.352 316.956 320.88 317.402C321.409 317.849 322.088 318.072 322.918 318.072ZM335.605 305.207L335.687 307.066C336.817 305.645 338.294 304.934 340.117 304.934C343.243 304.934 344.82 306.697 344.847 310.225V320H342.318V310.211C342.309 309.145 342.063 308.356 341.58 307.846C341.106 307.335 340.363 307.08 339.351 307.08C338.531 307.08 337.811 307.299 337.191 307.736C336.571 308.174 336.088 308.748 335.742 309.459V320H333.212V305.207H335.605ZM352.093 301.625V305.207H354.855V307.162H352.093V316.336C352.093 316.928 352.216 317.375 352.462 317.676C352.709 317.967 353.128 318.113 353.72 318.113C354.012 318.113 354.413 318.059 354.923 317.949V320C354.258 320.182 353.611 320.273 352.982 320.273C351.852 320.273 351 319.932 350.425 319.248C349.851 318.564 349.564 317.594 349.564 316.336V307.162H346.871V305.207H349.564V301.625H352.093Z" fill="#9B51E0"/>
<path d="M271.757 89.625V93.207H274.519V95.1621H271.757V104.336C271.757 104.928 271.88 105.375 272.127 105.676C272.373 105.967 272.792 106.113 273.384 106.113C273.676 106.113 274.077 106.059 274.587 105.949V108C273.922 108.182 273.275 108.273 272.646 108.273C271.516 108.273 270.664 107.932 270.089 107.248C269.515 106.564 269.228 105.594 269.228 104.336V95.1621H266.535V93.207H269.228V89.625H271.757ZM276.543 100.467C276.543 99.0176 276.825 97.7142 277.39 96.5566C277.964 95.3991 278.757 94.5059 279.769 93.877C280.79 93.248 281.952 92.9336 283.255 92.9336C285.27 92.9336 286.897 93.6309 288.136 95.0254C289.385 96.4199 290.009 98.2747 290.009 100.59V100.768C290.009 102.208 289.731 103.502 289.175 104.65C288.628 105.79 287.84 106.678 286.81 107.316C285.789 107.954 284.613 108.273 283.283 108.273C281.278 108.273 279.651 107.576 278.402 106.182C277.162 104.787 276.543 102.941 276.543 100.645V100.467ZM279.085 100.768C279.085 102.408 279.464 103.725 280.22 104.719C280.986 105.712 282.007 106.209 283.283 106.209C284.568 106.209 285.589 105.708 286.345 104.705C287.102 103.693 287.48 102.281 287.48 100.467C287.48 98.8444 287.093 97.5319 286.318 96.5293C285.552 95.5176 284.531 95.0117 283.255 95.0117C282.007 95.0117 281 95.5085 280.234 96.502C279.468 97.4954 279.085 98.9173 279.085 100.768ZM295.56 93.207L295.628 94.8477C296.713 93.5716 298.176 92.9336 300.017 92.9336C302.086 92.9336 303.494 93.7266 304.242 95.3125C304.734 94.6016 305.372 94.0273 306.156 93.5898C306.949 93.1523 307.883 92.9336 308.959 92.9336C312.203 92.9336 313.853 94.6517 313.908 98.0879V108H311.378V98.2383C311.378 97.181 311.137 96.3926 310.654 95.873C310.171 95.3444 309.36 95.0801 308.22 95.0801C307.281 95.0801 306.502 95.3626 305.882 95.9277C305.263 96.4837 304.903 97.2357 304.802 98.1836V108H302.259V98.3066C302.259 96.1556 301.207 95.0801 299.101 95.0801C297.442 95.0801 296.307 95.7865 295.697 97.1992V108H293.168V93.207H295.56ZM326.869 108C326.723 107.708 326.604 107.189 326.513 106.441C325.337 107.663 323.934 108.273 322.302 108.273C320.844 108.273 319.645 107.863 318.707 107.043C317.777 106.214 317.312 105.165 317.312 103.898C317.312 102.358 317.895 101.164 319.062 100.316C320.238 99.4596 321.888 99.0312 324.011 99.0312H326.472V97.8691C326.472 96.985 326.208 96.2832 325.679 95.7637C325.151 95.235 324.371 94.9707 323.341 94.9707C322.439 94.9707 321.682 95.1986 321.072 95.6543C320.461 96.11 320.156 96.6615 320.156 97.3086H317.613C317.613 96.5703 317.873 95.8594 318.392 95.1758C318.921 94.4831 319.632 93.9362 320.525 93.5352C321.427 93.1341 322.416 92.9336 323.492 92.9336C325.196 92.9336 326.531 93.362 327.498 94.2188C328.464 95.0664 328.965 96.2376 329.002 97.7324V104.541C329.002 105.899 329.175 106.979 329.521 107.781V108H326.869ZM322.671 106.072C323.464 106.072 324.216 105.867 324.927 105.457C325.638 105.047 326.153 104.514 326.472 103.857V100.822H324.49C321.391 100.822 319.841 101.729 319.841 103.543C319.841 104.336 320.106 104.956 320.634 105.402C321.163 105.849 321.842 106.072 322.671 106.072ZM336.398 89.625V93.207H339.16V95.1621H336.398V104.336C336.398 104.928 336.521 105.375 336.767 105.676C337.013 105.967 337.432 106.113 338.025 106.113C338.317 106.113 338.718 106.059 339.228 105.949V108C338.563 108.182 337.916 108.273 337.287 108.273C336.156 108.273 335.304 107.932 334.73 107.248C334.156 106.564 333.869 105.594 333.869 104.336V95.1621H331.175V93.207H333.869V89.625H336.398ZM341.183 100.467C341.183 99.0176 341.466 97.7142 342.031 96.5566C342.605 95.3991 343.398 94.5059 344.41 93.877C345.431 93.248 346.593 92.9336 347.896 92.9336C349.91 92.9336 351.537 93.6309 352.777 95.0254C354.026 96.4199 354.65 98.2747 354.65 100.59V100.768C354.65 102.208 354.372 103.502 353.816 104.65C353.269 105.79 352.481 106.678 351.451 107.316C350.43 107.954 349.254 108.273 347.923 108.273C345.918 108.273 344.291 107.576 343.043 106.182C341.803 104.787 341.183 102.941 341.183 100.645V100.467ZM343.726 100.768C343.726 102.408 344.104 103.725 344.861 104.719C345.627 105.712 346.647 106.209 347.923 106.209C349.209 106.209 350.229 105.708 350.986 104.705C351.742 103.693 352.121 102.281 352.121 100.467C352.121 98.8444 351.733 97.5319 350.959 96.5293C350.193 95.5176 349.172 95.0117 347.896 95.0117C346.647 95.0117 345.64 95.5085 344.875 96.502C344.109 97.4954 343.726 98.9173 343.726 100.768Z" fill="#EB5757"/>
<path d="M373.551 60V47.1621H371.213V45.207H373.551V43.6895C373.551 42.1035 373.975 40.8776 374.822 40.0117C375.67 39.1458 376.868 38.7129 378.418 38.7129C379.001 38.7129 379.58 38.7904 380.154 38.9453L380.018 40.9961C379.589 40.9141 379.133 40.873 378.65 40.873C377.83 40.873 377.197 41.1146 376.75 41.5977C376.303 42.0716 376.08 42.7552 376.08 43.6484V45.207H379.238V47.1621H376.08V60H373.551ZM389.191 47.4766C388.809 47.4128 388.394 47.3809 387.947 47.3809C386.288 47.3809 385.163 48.0872 384.57 49.5V60H382.041V45.207H384.502L384.543 46.916C385.372 45.5944 386.548 44.9336 388.07 44.9336C388.562 44.9336 388.936 44.9974 389.191 45.125V47.4766ZM400.662 58.5371C399.678 59.6947 398.233 60.2734 396.328 60.2734C394.751 60.2734 393.548 59.8177 392.719 58.9062C391.898 57.9857 391.484 56.6276 391.475 54.832V45.207H394.004V54.7637C394.004 57.0059 394.915 58.127 396.738 58.127C398.671 58.127 399.956 57.4069 400.594 55.9668V45.207H403.123V60H400.717L400.662 58.5371ZM409.727 60H407.197V45.207H409.727V60ZM406.992 41.2832C406.992 40.873 407.115 40.5267 407.361 40.2441C407.617 39.9616 407.99 39.8203 408.482 39.8203C408.975 39.8203 409.348 39.9616 409.604 40.2441C409.859 40.5267 409.986 40.873 409.986 41.2832C409.986 41.6934 409.859 42.0352 409.604 42.3086C409.348 42.582 408.975 42.7188 408.482 42.7188C407.99 42.7188 407.617 42.582 407.361 42.3086C407.115 42.0352 406.992 41.6934 406.992 41.2832ZM417.219 41.625V45.207H419.98V47.1621H417.219V56.3359C417.219 56.9284 417.342 57.375 417.588 57.6758C417.834 57.9674 418.253 58.1133 418.846 58.1133C419.137 58.1133 419.538 58.0586 420.049 57.9492V60C419.383 60.1823 418.736 60.2734 418.107 60.2734C416.977 60.2734 416.125 59.9316 415.551 59.248C414.977 58.5645 414.689 57.5938 414.689 56.3359V47.1621H411.996V45.207H414.689V41.625H417.219ZM433.611 62.0645H421.088V60H433.611V62.0645ZM440.461 56.5684L444.125 45.207H446.709L441.404 60H439.477L434.117 45.207H436.701L440.461 56.5684ZM455.09 60.2734C453.085 60.2734 451.453 59.6172 450.195 58.3047C448.938 56.9831 448.309 55.2194 448.309 53.0137V52.5488C448.309 51.0814 448.587 49.7734 449.143 48.625C449.708 47.4674 450.492 46.5651 451.494 45.918C452.506 45.2617 453.6 44.9336 454.775 44.9336C456.699 44.9336 458.193 45.5671 459.26 46.834C460.326 48.1009 460.859 49.9147 460.859 52.2754V53.3281H450.838C450.874 54.7865 451.298 55.9668 452.109 56.8691C452.93 57.7624 453.969 58.209 455.227 58.209C456.12 58.209 456.876 58.0267 457.496 57.6621C458.116 57.2975 458.658 56.8145 459.123 56.2129L460.668 57.416C459.428 59.321 457.569 60.2734 455.09 60.2734ZM454.775 47.0117C453.755 47.0117 452.898 47.3854 452.205 48.1328C451.512 48.8711 451.084 49.9102 450.92 51.25H458.33V51.0586C458.257 49.7734 457.911 48.7799 457.291 48.0781C456.671 47.3672 455.833 47.0117 454.775 47.0117ZM463.197 52.4805C463.197 50.1745 463.73 48.3424 464.797 46.9844C465.863 45.6172 467.276 44.9336 469.035 44.9336C470.84 44.9336 472.248 45.5716 473.26 46.8477L473.383 45.207H475.693V59.6445C475.693 61.5586 475.124 63.0671 473.984 64.1699C472.854 65.2728 471.332 65.8242 469.418 65.8242C468.352 65.8242 467.308 65.5964 466.287 65.1406C465.266 64.6849 464.487 64.0605 463.949 63.2676L465.262 61.75C466.346 63.0898 467.673 63.7598 469.24 63.7598C470.471 63.7598 471.428 63.4134 472.111 62.7207C472.804 62.028 473.15 61.0527 473.15 59.7949V58.5234C472.139 59.6901 470.758 60.2734 469.008 60.2734C467.276 60.2734 465.872 59.5762 464.797 58.1816C463.73 56.7871 463.197 54.8867 463.197 52.4805ZM465.74 52.7676C465.74 54.4355 466.082 55.748 466.766 56.7051C467.449 57.653 468.406 58.127 469.637 58.127C471.232 58.127 472.403 57.4023 473.15 55.9531V49.1992C472.376 47.7865 471.214 47.0801 469.664 47.0801C468.434 47.0801 467.472 47.5586 466.779 48.5156C466.087 49.4727 465.74 50.89 465.74 52.7676Z" fill="#828282"/>
<rect x="482" y="72" width="130" height="53.2" stroke="black"/>
<path d="M552.209 101.954H554.971V104.019H552.209V108.64H549.666V104.019H540.602V102.529L549.516 88.7336H552.209V101.954ZM543.473 101.954H549.666V92.1926L549.366 92.7395L543.473 101.954Z" fill="black"/>
<rect x="482" y="125.2" width="130" height="53.2" stroke="black"/>
<path d="M554.575 161.84H541.532V160.022L548.422 152.365C549.443 151.208 550.145 150.269 550.528 149.549C550.92 148.82 551.116 148.068 551.116 147.293C551.116 146.254 550.801 145.402 550.172 144.736C549.543 144.071 548.705 143.738 547.657 143.738C546.399 143.738 545.419 144.098 544.717 144.818C544.024 145.529 543.678 146.523 543.678 147.799H541.149C541.149 145.967 541.737 144.486 542.913 143.356C544.097 142.225 545.679 141.66 547.657 141.66C549.507 141.66 550.97 142.148 552.045 143.123C553.121 144.089 553.659 145.379 553.659 146.992C553.659 148.952 552.41 151.285 549.913 153.992L544.58 159.776H554.575V161.84Z" fill="black"/>
<rect x="482" y="178" width="130" height="54" stroke="black"/>
<path d="M552.32 208.147H555.082V210.212H552.32V214.833H549.777V210.212H540.713V208.721L549.627 194.927H552.32V208.147ZM543.584 208.147H549.777V198.385L549.477 198.932L543.584 208.147Z" fill="black"/>
<rect x="366" y="232" width="116" height="52" stroke="black"/>
<path d="M411.099 262.918L414.763 251.557H417.347L412.042 266.35H410.114L404.755 251.557H407.339L411.099 262.918ZM425.728 266.623C423.722 266.623 422.091 265.967 420.833 264.655C419.575 263.333 418.946 261.569 418.946 259.364V258.899C418.946 257.431 419.224 256.123 419.78 254.975C420.345 253.817 421.129 252.915 422.132 252.268C423.144 251.612 424.237 251.283 425.413 251.283C427.336 251.283 428.831 251.917 429.898 253.184C430.964 254.451 431.497 256.265 431.497 258.625V259.678H421.476C421.512 261.136 421.936 262.317 422.747 263.219C423.567 264.112 424.607 264.559 425.864 264.559C426.758 264.559 427.514 264.377 428.134 264.012C428.754 263.647 429.296 263.164 429.761 262.563L431.306 263.766C430.066 265.671 428.207 266.623 425.728 266.623ZM425.413 253.362C424.392 253.362 423.536 253.735 422.843 254.483C422.15 255.221 421.722 256.26 421.558 257.6H428.968V257.408C428.895 256.123 428.549 255.13 427.929 254.428C427.309 253.717 426.47 253.362 425.413 253.362ZM433.835 258.83C433.835 256.524 434.368 254.692 435.435 253.334C436.501 251.967 437.914 251.283 439.673 251.283C441.478 251.283 442.886 251.921 443.898 253.198L444.021 251.557H446.331V265.994C446.331 267.908 445.761 269.417 444.622 270.52C443.492 271.623 441.97 272.174 440.056 272.174C438.989 272.174 437.946 271.946 436.925 271.49C435.904 271.035 435.125 270.41 434.587 269.617L435.9 268.1C436.984 269.44 438.31 270.11 439.878 270.11C441.108 270.11 442.066 269.763 442.749 269.071C443.442 268.378 443.788 267.403 443.788 266.145V264.873C442.776 266.04 441.396 266.623 439.646 266.623C437.914 266.623 436.51 265.926 435.435 264.531C434.368 263.137 433.835 261.237 433.835 258.83ZM436.378 259.117C436.378 260.785 436.72 262.098 437.403 263.055C438.087 264.003 439.044 264.477 440.275 264.477C441.87 264.477 443.041 263.752 443.788 262.303V255.549C443.013 254.136 441.851 253.43 440.302 253.43C439.071 253.43 438.11 253.908 437.417 254.865C436.724 255.823 436.378 257.24 436.378 259.117Z" fill="black"/>
<rect x="366" y="284" width="116" height="52" stroke="black"/>
<path d="M411.099 316.285L414.763 304.924H417.347L412.042 319.717H410.114L404.755 304.924H407.339L411.099 316.285ZM425.728 319.99C423.722 319.99 422.091 319.334 420.833 318.021C419.575 316.7 418.946 314.936 418.946 312.73V312.265C418.946 310.798 419.224 309.49 419.78 308.342C420.345 307.184 421.129 306.282 422.132 305.635C423.144 304.978 424.237 304.65 425.413 304.65C427.336 304.65 428.831 305.284 429.898 306.551C430.964 307.817 431.497 309.631 431.497 311.992V313.045H421.476C421.512 314.503 421.936 315.683 422.747 316.586C423.567 317.479 424.607 317.926 425.864 317.926C426.758 317.926 427.514 317.743 428.134 317.379C428.754 317.014 429.296 316.531 429.761 315.929L431.306 317.133C430.066 319.038 428.207 319.99 425.728 319.99ZM425.413 306.728C424.392 306.728 423.536 307.102 422.843 307.849C422.15 308.588 421.722 309.627 421.558 310.967H428.968V310.775C428.895 309.49 428.549 308.497 427.929 307.795C427.309 307.084 426.47 306.728 425.413 306.728ZM433.835 312.197C433.835 309.891 434.368 308.059 435.435 306.701C436.501 305.334 437.914 304.65 439.673 304.65C441.478 304.65 442.886 305.288 443.898 306.564L444.021 304.924H446.331V319.361C446.331 321.275 445.761 322.784 444.622 323.886C443.492 324.989 441.97 325.541 440.056 325.541C438.989 325.541 437.946 325.313 436.925 324.857C435.904 324.401 435.125 323.777 434.587 322.984L435.9 321.467C436.984 322.806 438.31 323.476 439.878 323.476C441.108 323.476 442.066 323.13 442.749 322.437C443.442 321.745 443.788 320.769 443.788 319.511V318.24C442.776 319.407 441.396 319.99 439.646 319.99C437.914 319.99 436.51 319.293 435.435 317.898C434.368 316.504 433.835 314.603 433.835 312.197ZM436.378 312.484C436.378 314.152 436.72 315.465 437.403 316.422C438.087 317.37 439.044 317.844 440.275 317.844C441.87 317.844 443.041 317.119 443.788 315.67V308.916C443.013 307.503 441.851 306.797 440.302 306.797C439.071 306.797 438.11 307.275 437.417 308.232C436.724 309.189 436.378 310.607 436.378 312.484Z" fill="black"/>
<rect x="482" y="232" width="130" height="52" stroke="black"/>
<path d="M549.844 266.64H547.301V249.783L542.202 251.656V249.359L549.448 246.638H549.844V266.64Z" fill="black"/>
<rect x="482" y="284" width="130" height="52" stroke="black"/>
<path d="M554.575 319.84H541.532V318.022L548.422 310.365C549.443 309.208 550.145 308.269 550.528 307.549C550.92 306.82 551.116 306.068 551.116 305.293C551.116 304.254 550.801 303.402 550.172 302.737C549.543 302.071 548.705 301.739 547.657 301.739C546.399 301.739 545.419 302.099 544.717 302.819C544.024 303.53 543.678 304.523 543.678 305.799H541.149C541.149 303.967 541.737 302.486 542.913 301.356C544.097 300.226 545.679 299.66 547.657 299.66C549.507 299.66 550.97 300.148 552.045 301.123C553.121 302.089 553.659 303.379 553.659 304.992C553.659 306.952 552.41 309.285 549.913 311.992L544.58 317.776H554.575V319.84Z" fill="black"/>
<path d="M529.131 52.4805C529.131 50.1562 529.664 48.3197 530.73 46.9707C531.797 45.6126 533.228 44.9336 535.023 44.9336C536.773 44.9336 538.154 45.5215 539.166 46.6973L539.275 45.207H541.6V65.6875H539.07V58.6328C538.049 59.7266 536.691 60.2734 534.996 60.2734C533.21 60.2734 531.783 59.5807 530.717 58.1953C529.66 56.8008 529.131 54.9551 529.131 52.6582V52.4805ZM531.66 52.7676C531.66 54.4629 532.016 55.7936 532.727 56.7598C533.447 57.7259 534.413 58.209 535.625 58.209C537.129 58.209 538.277 57.5436 539.07 56.2129V48.9668C538.268 47.6634 537.129 47.0117 535.652 47.0117C534.431 47.0117 533.46 47.4993 532.74 48.4746C532.02 49.4408 531.66 50.8717 531.66 52.7676ZM549.092 41.625V45.207H551.854V47.1621H549.092V56.3359C549.092 56.9284 549.215 57.375 549.461 57.6758C549.707 57.9674 550.126 58.1133 550.719 58.1133C551.01 58.1133 551.411 58.0586 551.922 57.9492V60C551.257 60.1823 550.609 60.2734 549.98 60.2734C548.85 60.2734 547.998 59.9316 547.424 59.248C546.85 58.5645 546.562 57.5938 546.562 56.3359V47.1621H543.869V45.207H546.562V41.625H549.092ZM559.66 56.2949L563.105 45.207H565.812L559.865 62.2832C558.945 64.7441 557.482 65.9746 555.477 65.9746L554.998 65.9336L554.055 65.7559V63.7051L554.738 63.7598C555.595 63.7598 556.26 63.5866 556.734 63.2402C557.217 62.8939 557.614 62.2604 557.924 61.3398L558.484 59.8359L553.207 45.207H555.969L559.66 56.2949Z" fill="#828282"/>
<rect x="612" y="72" width="164" height="54" stroke="black"/>
<rect x="612" y="126" width="164" height="52" stroke="black"/>
<rect x="612" y="178" width="164" height="54" stroke="black"/>
<rect x="612" y="232" width="164" height="52" stroke="black"/>
<rect x="612" y="284" width="164" height="52" stroke="black"/>
<path d="M679.84 108.64H677.201L667.18 93.3V108.64H664.541V88.7336H667.18L677.229 104.142V88.7336H679.84V108.64ZM693.238 108.64C693.093 108.348 692.974 107.829 692.883 107.081C691.707 108.303 690.304 108.913 688.672 108.913C687.214 108.913 686.015 108.503 685.076 107.683C684.147 106.853 683.682 105.805 683.682 104.538C683.682 102.998 684.265 101.804 685.432 100.956C686.608 100.1 688.257 99.6711 690.381 99.6711H692.842V98.509C692.842 97.6249 692.578 96.9231 692.049 96.4036C691.52 95.8749 690.741 95.6106 689.711 95.6106C688.809 95.6106 688.052 95.8385 687.442 96.2942C686.831 96.7499 686.526 97.3014 686.526 97.9485H683.983C683.983 97.2102 684.242 96.4993 684.762 95.8157C685.291 95.123 686.002 94.5761 686.895 94.175C687.797 93.774 688.786 93.5735 689.862 93.5735C691.566 93.5735 692.901 94.0019 693.867 94.8586C694.834 95.7063 695.335 96.8775 695.371 98.3723V105.181C695.371 106.539 695.544 107.619 695.891 108.421V108.64H693.238ZM689.041 106.712C689.834 106.712 690.586 106.507 691.297 106.097C692.008 105.687 692.523 105.154 692.842 104.497V101.462H690.86C687.761 101.462 686.211 102.369 686.211 104.183C686.211 104.976 686.475 105.596 687.004 106.042C687.533 106.489 688.212 106.712 689.041 106.712ZM715.031 108.64H712.393L702.371 93.3V108.64H699.733V88.7336H702.371L712.42 104.142V88.7336H715.031V108.64Z" fill="black"/>
<path d="M681.84 161.84H679.201L669.18 146.5V161.84H666.541V141.934H669.18L679.229 157.342V141.934H681.84V161.84ZM695.238 161.84C695.093 161.548 694.974 161.029 694.883 160.281C693.707 161.503 692.304 162.113 690.672 162.113C689.214 162.113 688.015 161.703 687.076 160.883C686.147 160.054 685.682 159.005 685.682 157.738C685.682 156.198 686.265 155.004 687.432 154.156C688.608 153.3 690.257 152.871 692.381 152.871H694.842V151.709C694.842 150.825 694.578 150.123 694.049 149.604C693.52 149.075 692.741 148.811 691.711 148.811C690.809 148.811 690.052 149.039 689.442 149.494C688.831 149.95 688.526 150.501 688.526 151.149H685.983C685.983 150.41 686.242 149.699 686.762 149.016C687.291 148.323 688.002 147.776 688.895 147.375C689.797 146.974 690.786 146.774 691.862 146.774C693.566 146.774 694.901 147.202 695.867 148.059C696.834 148.906 697.335 150.078 697.371 151.572V158.381C697.371 159.739 697.544 160.819 697.891 161.621V161.84H695.238ZM691.041 159.912C691.834 159.912 692.586 159.707 693.297 159.297C694.008 158.887 694.523 158.354 694.842 157.697V154.662H692.86C689.761 154.662 688.211 155.569 688.211 157.383C688.211 158.176 688.475 158.796 689.004 159.242C689.533 159.689 690.212 159.912 691.041 159.912ZM717.031 161.84H714.393L704.371 146.5V161.84H701.733V141.934H704.371L714.42 157.342V141.934H717.031V161.84Z" fill="black"/>
<path d="M681.961 214.833H679.323L669.301 199.493V214.833H666.663V194.927H669.301L679.35 210.335V194.927H681.961V214.833ZM695.36 214.833C695.214 214.541 695.095 214.022 695.004 213.274C693.829 214.496 692.425 215.106 690.793 215.106C689.335 215.106 688.137 214.696 687.198 213.876C686.268 213.046 685.803 211.998 685.803 210.731C685.803 209.191 686.387 207.997 687.553 207.149C688.729 206.292 690.379 205.864 692.502 205.864H694.963V204.702C694.963 203.818 694.699 203.116 694.17 202.596C693.642 202.068 692.862 201.803 691.832 201.803C690.93 201.803 690.174 202.031 689.563 202.487C688.952 202.943 688.647 203.494 688.647 204.141H686.104C686.104 203.403 686.364 202.692 686.883 202.009C687.412 201.316 688.123 200.769 689.016 200.368C689.918 199.967 690.907 199.766 691.983 199.766C693.687 199.766 695.023 200.195 695.989 201.052C696.955 201.899 697.456 203.07 697.493 204.565V211.374C697.493 212.732 697.666 213.812 698.012 214.614V214.833H695.36ZM691.163 212.905C691.956 212.905 692.707 212.7 693.418 212.29C694.129 211.88 694.644 211.346 694.963 210.69V207.655H692.981C689.882 207.655 688.332 208.562 688.332 210.376C688.332 211.169 688.597 211.788 689.125 212.235C689.654 212.682 690.333 212.905 691.163 212.905ZM717.153 214.833H714.514L704.493 199.493V214.833H701.854V194.927H704.493L714.541 210.335V194.927H717.153V214.833Z" fill="black"/>
<path d="M660.543 251.847L660.612 253.488C661.696 252.212 663.159 251.574 665 251.574C667.069 251.574 668.477 252.367 669.225 253.953C669.717 253.242 670.355 252.667 671.139 252.23C671.932 251.792 672.866 251.574 673.942 251.574C677.186 251.574 678.836 253.292 678.891 256.728V266.64H676.362V256.878C676.362 255.821 676.12 255.033 675.637 254.513C675.154 253.985 674.343 253.72 673.203 253.72C672.265 253.72 671.485 254.003 670.865 254.568C670.246 255.124 669.886 255.876 669.785 256.824V266.64H667.242V256.947C667.242 254.796 666.19 253.72 664.084 253.72C662.425 253.72 661.291 254.427 660.68 255.839V266.64H658.151V251.847H660.543ZM691.852 266.64C691.706 266.348 691.587 265.829 691.496 265.082C690.321 266.303 688.917 266.914 687.285 266.914C685.827 266.914 684.628 266.503 683.69 265.683C682.76 264.854 682.295 263.806 682.295 262.539C682.295 260.998 682.878 259.804 684.045 258.957C685.221 258.1 686.871 257.671 688.994 257.671H691.455V256.509C691.455 255.625 691.191 254.923 690.662 254.404C690.134 253.875 689.354 253.611 688.324 253.611C687.422 253.611 686.666 253.839 686.055 254.294C685.444 254.75 685.139 255.302 685.139 255.949H682.596C682.596 255.21 682.856 254.5 683.375 253.816C683.904 253.123 684.615 252.576 685.508 252.175C686.41 251.774 687.399 251.574 688.475 251.574C690.179 251.574 691.515 252.002 692.481 252.859C693.447 253.707 693.948 254.878 693.985 256.373V263.181C693.985 264.539 694.158 265.619 694.504 266.421V266.64H691.852ZM687.654 264.712C688.447 264.712 689.199 264.507 689.91 264.097C690.621 263.687 691.136 263.154 691.455 262.498V259.462H689.473C686.374 259.462 684.824 260.369 684.824 262.183C684.824 262.976 685.089 263.596 685.617 264.042C686.146 264.489 686.825 264.712 687.654 264.712ZM700.697 266.64H698.168V251.847H700.697V266.64ZM697.963 247.923C697.963 247.513 698.086 247.167 698.332 246.884C698.587 246.602 698.961 246.46 699.453 246.46C699.946 246.46 700.319 246.602 700.574 246.884C700.83 247.167 700.957 247.513 700.957 247.923C700.957 248.333 700.83 248.675 700.574 248.949C700.319 249.222 699.946 249.359 699.453 249.359C698.961 249.359 698.587 249.222 698.332 248.949C698.086 248.675 697.963 248.333 697.963 247.923ZM707.137 264.576H715.791V266.64H704.047V264.781L712.209 253.939H704.17V251.847H715.381V253.638L707.137 264.576ZM724.569 266.914C722.563 266.914 720.932 266.257 719.674 264.945C718.416 263.623 717.787 261.86 717.787 259.654V259.189C717.787 257.722 718.065 256.414 718.621 255.265C719.186 254.108 719.97 253.205 720.973 252.558C721.985 251.902 723.078 251.574 724.254 251.574C726.177 251.574 727.672 252.207 728.738 253.474C729.805 254.741 730.338 256.555 730.338 258.916V259.968H720.317C720.353 261.427 720.777 262.607 721.588 263.509C722.408 264.403 723.447 264.849 724.705 264.849C725.599 264.849 726.355 264.667 726.975 264.302C727.595 263.938 728.137 263.455 728.602 262.853L730.147 264.056C728.907 265.961 727.048 266.914 724.569 266.914ZM724.254 253.652C723.233 253.652 722.377 254.026 721.684 254.773C720.991 255.511 720.563 256.55 720.399 257.89H727.809V257.699C727.736 256.414 727.39 255.42 726.77 254.718C726.15 254.007 725.311 253.652 724.254 253.652Z" fill="black"/>
<path d="M645.207 319.84C645.061 319.548 644.943 319.029 644.852 318.281C643.676 319.503 642.272 320.114 640.641 320.114C639.182 320.114 637.984 319.703 637.045 318.883C636.115 318.054 635.651 317.005 635.651 315.739C635.651 314.198 636.234 313.004 637.401 312.156C638.576 311.3 640.226 310.871 642.35 310.871H644.811V309.709C644.811 308.825 644.546 308.123 644.018 307.604C643.489 307.075 642.71 306.811 641.68 306.811C640.778 306.811 640.021 307.039 639.41 307.494C638.8 307.95 638.494 308.502 638.494 309.149H635.951C635.951 308.41 636.211 307.699 636.731 307.016C637.259 306.323 637.97 305.776 638.863 305.375C639.766 304.974 640.755 304.774 641.83 304.774C643.535 304.774 644.87 305.202 645.836 306.059C646.802 306.906 647.304 308.078 647.34 309.573V316.381C647.34 317.739 647.513 318.819 647.86 319.621V319.84H645.207ZM641.01 317.912C641.803 317.912 642.555 317.707 643.266 317.297C643.977 316.887 644.492 316.354 644.811 315.698V312.662H642.828C639.729 312.662 638.18 313.569 638.18 315.383C638.18 316.176 638.444 316.796 638.973 317.242C639.502 317.689 640.181 317.912 641.01 317.912ZM660.438 318.377C659.453 319.535 658.009 320.114 656.104 320.114C654.527 320.114 653.324 319.658 652.494 318.746C651.674 317.826 651.259 316.468 651.25 314.672V305.047H653.779V314.604C653.779 316.846 654.691 317.967 656.514 317.967C658.446 317.967 659.731 317.247 660.369 315.807V305.047H662.899V319.84H660.492L660.438 318.377ZM679.278 312.608C679.278 314.868 678.758 316.686 677.719 318.063C676.68 319.43 675.285 320.114 673.535 320.114C671.667 320.114 670.222 319.453 669.201 318.131L669.078 319.84H666.754V298.84H669.283V306.674C670.304 305.407 671.712 304.774 673.508 304.774C675.304 304.774 676.712 305.453 677.733 306.811C678.763 308.169 679.278 310.028 679.278 312.389V312.608ZM676.748 312.321C676.748 310.598 676.416 309.267 675.75 308.328C675.085 307.39 674.128 306.92 672.879 306.92C671.211 306.92 670.013 307.695 669.283 309.244V315.643C670.058 317.192 671.266 317.967 672.906 317.967C674.119 317.967 675.062 317.498 675.737 316.559C676.411 315.62 676.748 314.207 676.748 312.321ZM688.615 320.114C686.61 320.114 684.979 319.457 683.721 318.145C682.463 316.823 681.834 315.059 681.834 312.854V312.389C681.834 310.921 682.112 309.614 682.668 308.465C683.233 307.308 684.017 306.405 685.02 305.758C686.031 305.102 687.125 304.774 688.301 304.774C690.224 304.774 691.719 305.407 692.785 306.674C693.852 307.941 694.385 309.755 694.385 312.115V313.168H684.363C684.4 314.627 684.824 315.807 685.635 316.709C686.455 317.602 687.494 318.049 688.752 318.049C689.645 318.049 690.402 317.867 691.022 317.502C691.641 317.138 692.184 316.655 692.649 316.053L694.194 317.256C692.954 319.161 691.095 320.114 688.615 320.114ZM688.301 306.852C687.28 306.852 686.423 307.226 685.731 307.973C685.038 308.711 684.61 309.75 684.446 311.09H691.856V310.899C691.783 309.614 691.436 308.62 690.817 307.918C690.197 307.207 689.358 306.852 688.301 306.852ZM704.475 307.317C704.092 307.253 703.677 307.221 703.231 307.221C701.572 307.221 700.446 307.927 699.854 309.34V319.84H697.324V305.047H699.785L699.826 306.756C700.656 305.434 701.832 304.774 703.354 304.774C703.846 304.774 704.22 304.837 704.475 304.965V307.317ZM705.938 312.321C705.938 310.015 706.471 308.183 707.537 306.824C708.604 305.457 710.016 304.774 711.776 304.774C713.58 304.774 714.988 305.412 716 306.688L716.123 305.047H718.434V319.485C718.434 321.399 717.864 322.907 716.725 324.01C715.595 325.113 714.072 325.664 712.158 325.664C711.092 325.664 710.048 325.436 709.028 324.981C708.007 324.525 707.227 323.901 706.69 323.108L708.002 321.59C709.087 322.93 710.413 323.6 711.981 323.6C713.211 323.6 714.168 323.253 714.852 322.561C715.544 321.868 715.891 320.893 715.891 319.635V318.364C714.879 319.53 713.498 320.114 711.748 320.114C710.016 320.114 708.613 319.416 707.537 318.022C706.471 316.627 705.938 314.727 705.938 312.321ZM708.481 312.608C708.481 314.276 708.822 315.588 709.506 316.545C710.19 317.493 711.147 317.967 712.377 317.967C713.972 317.967 715.143 317.242 715.891 315.793V309.039C715.116 307.627 713.954 306.92 712.404 306.92C711.174 306.92 710.212 307.399 709.52 308.356C708.827 309.313 708.481 310.73 708.481 312.608ZM725.01 319.84H722.481V305.047H725.01V319.84ZM722.276 301.123C722.276 300.713 722.399 300.367 722.645 300.084C722.9 299.802 723.274 299.66 723.766 299.66C724.258 299.66 724.632 299.802 724.887 300.084C725.142 300.367 725.27 300.713 725.27 301.123C725.27 301.533 725.142 301.875 724.887 302.149C724.632 302.422 724.258 302.559 723.766 302.559C723.274 302.559 722.9 302.422 722.645 302.149C722.399 301.875 722.276 301.533 722.276 301.123ZM731.463 305.047L731.545 306.906C732.675 305.485 734.152 304.774 735.975 304.774C739.101 304.774 740.678 306.537 740.705 310.065V319.84H738.176V310.051C738.167 308.985 737.921 308.196 737.438 307.686C736.964 307.175 736.221 306.92 735.209 306.92C734.389 306.92 733.669 307.139 733.049 307.576C732.429 308.014 731.946 308.588 731.6 309.299V319.84H729.071V305.047H731.463ZM750.658 320.114C748.653 320.114 747.022 319.457 745.764 318.145C744.506 316.823 743.877 315.059 743.877 312.854V312.389C743.877 310.921 744.155 309.614 744.711 308.465C745.276 307.308 746.06 306.405 747.063 305.758C748.074 305.102 749.168 304.774 750.344 304.774C752.267 304.774 753.762 305.407 754.828 306.674C755.895 307.941 756.428 309.755 756.428 312.115V313.168H746.406C746.443 314.627 746.867 315.807 747.678 316.709C748.498 317.602 749.537 318.049 750.795 318.049C751.688 318.049 752.445 317.867 753.065 317.502C753.684 317.138 754.227 316.655 754.692 316.053L756.237 317.256C754.997 319.161 753.138 320.114 750.658 320.114ZM750.344 306.852C749.323 306.852 748.466 307.226 747.774 307.973C747.081 308.711 746.653 309.75 746.488 311.09H753.899V310.899C753.826 309.614 753.479 308.62 752.86 307.918C752.24 307.207 751.401 306.852 750.344 306.852Z" fill="black"/>
<path d="M637.09 60C636.944 59.7083 636.826 59.1888 636.734 58.4414C635.559 59.6628 634.155 60.2734 632.523 60.2734C631.065 60.2734 629.867 59.8633 628.928 59.043C627.998 58.2135 627.533 57.1654 627.533 55.8984C627.533 54.3581 628.117 53.1641 629.283 52.3164C630.459 51.4596 632.109 51.0312 634.232 51.0312H636.693V49.8691C636.693 48.985 636.429 48.2832 635.9 47.7637C635.372 47.235 634.592 46.9707 633.562 46.9707C632.66 46.9707 631.904 47.1986 631.293 47.6543C630.682 48.11 630.377 48.6615 630.377 49.3086H627.834C627.834 48.5703 628.094 47.8594 628.613 47.1758C629.142 46.4831 629.853 45.9362 630.746 45.5352C631.648 45.1341 632.637 44.9336 633.713 44.9336C635.417 44.9336 636.753 45.362 637.719 46.2188C638.685 47.0664 639.186 48.2376 639.223 49.7324V56.541C639.223 57.8991 639.396 58.9792 639.742 59.7812V60H637.09ZM632.893 58.0723C633.686 58.0723 634.438 57.8672 635.148 57.457C635.859 57.0469 636.374 56.5137 636.693 55.8574V52.8223H634.711C631.612 52.8223 630.062 53.7292 630.062 55.543C630.062 56.3359 630.327 56.9557 630.855 57.4023C631.384 57.849 632.063 58.0723 632.893 58.0723ZM645.936 60H643.406V39H645.936V60ZM653.428 41.625V45.207H656.189V47.1621H653.428V56.3359C653.428 56.9284 653.551 57.375 653.797 57.6758C654.043 57.9674 654.462 58.1133 655.055 58.1133C655.346 58.1133 655.747 58.0586 656.258 57.9492V60C655.592 60.1823 654.945 60.2734 654.316 60.2734C653.186 60.2734 652.334 59.9316 651.76 59.248C651.186 58.5645 650.898 57.5938 650.898 56.3359V47.1621H648.205V45.207H650.898V41.625H653.428ZM669.82 62.0645H657.297V60H669.82V62.0645ZM674.182 45.207L674.264 47.0664C675.394 45.6445 676.87 44.9336 678.693 44.9336C681.82 44.9336 683.396 46.6973 683.424 50.2246V60H680.895V50.2109C680.885 49.1445 680.639 48.3561 680.156 47.8457C679.682 47.3353 678.939 47.0801 677.928 47.0801C677.107 47.0801 676.387 47.2988 675.768 47.7363C675.148 48.1738 674.665 48.748 674.318 49.459V60H671.789V45.207H674.182ZM696.371 60C696.225 59.7083 696.107 59.1888 696.016 58.4414C694.84 59.6628 693.436 60.2734 691.805 60.2734C690.346 60.2734 689.148 59.8633 688.209 59.043C687.279 58.2135 686.814 57.1654 686.814 55.8984C686.814 54.3581 687.398 53.1641 688.564 52.3164C689.74 51.4596 691.39 51.0312 693.514 51.0312H695.975V49.8691C695.975 48.985 695.71 48.2832 695.182 47.7637C694.653 47.235 693.874 46.9707 692.844 46.9707C691.941 46.9707 691.185 47.1986 690.574 47.6543C689.964 48.11 689.658 48.6615 689.658 49.3086H687.115C687.115 48.5703 687.375 47.8594 687.895 47.1758C688.423 46.4831 689.134 45.9362 690.027 45.5352C690.93 45.1341 691.919 44.9336 692.994 44.9336C694.699 44.9336 696.034 45.362 697 46.2188C697.966 47.0664 698.467 48.2376 698.504 49.7324V56.541C698.504 57.8991 698.677 58.9792 699.023 59.7812V60H696.371ZM692.174 58.0723C692.967 58.0723 693.719 57.8672 694.43 57.457C695.141 57.0469 695.656 56.5137 695.975 55.8574V52.8223H693.992C690.893 52.8223 689.344 53.7292 689.344 55.543C689.344 56.3359 689.608 56.9557 690.137 57.4023C690.665 57.849 691.344 58.0723 692.174 58.0723ZM704.848 45.207L704.916 46.8477C706.001 45.5716 707.464 44.9336 709.305 44.9336C711.374 44.9336 712.782 45.7266 713.529 47.3125C714.021 46.6016 714.66 46.0273 715.443 45.5898C716.236 45.1523 717.171 44.9336 718.246 44.9336C721.491 44.9336 723.141 46.6517 723.195 50.0879V60H720.666V50.2383C720.666 49.181 720.424 48.3926 719.941 47.873C719.458 47.3444 718.647 47.0801 717.508 47.0801C716.569 47.0801 715.79 47.3626 715.17 47.9277C714.55 48.4837 714.19 49.2357 714.09 50.1836V60H711.547V50.3066C711.547 48.1556 710.494 47.0801 708.389 47.0801C706.73 47.0801 705.595 47.7865 704.984 49.1992V60H702.455V45.207H704.848ZM733.162 60.2734C731.157 60.2734 729.525 59.6172 728.268 58.3047C727.01 56.9831 726.381 55.2194 726.381 53.0137V52.5488C726.381 51.0814 726.659 49.7734 727.215 48.625C727.78 47.4674 728.564 46.5651 729.566 45.918C730.578 45.2617 731.672 44.9336 732.848 44.9336C734.771 44.9336 736.266 45.5671 737.332 46.834C738.398 48.1009 738.932 49.9147 738.932 52.2754V53.3281H728.91C728.947 54.7865 729.37 55.9668 730.182 56.8691C731.002 57.7624 732.041 58.209 733.299 58.209C734.192 58.209 734.949 58.0267 735.568 57.6621C736.188 57.2975 736.73 56.8145 737.195 56.2129L738.74 57.416C737.501 59.321 735.641 60.2734 733.162 60.2734ZM732.848 47.0117C731.827 47.0117 730.97 47.3854 730.277 48.1328C729.585 48.8711 729.156 49.9102 728.992 51.25H736.402V51.0586C736.329 49.7734 735.983 48.7799 735.363 48.0781C734.743 47.3672 733.905 47.0117 732.848 47.0117Z" fill="#828282"/>
</svg>
