<svg width="1120" height="660" viewBox="0 0 1120 660" fill="none" xmlns="http://www.w3.org/2000/svg">
<g id="Frame">
<rect width="1120" height="660" fill="white"/>
<g id="Group">
<rect id="Rectangle" x="756" y="32" width="144.667" height="58" stroke="black"/>
<path id="80.0" d="M811.735 58.686C811.735 59.9633 811.396 61.1 810.716 62.0961C810.048 63.0922 809.14 63.8715 807.991 64.434C809.327 65.0082 810.382 65.8461 811.155 66.9477C811.94 68.0493 812.333 69.2973 812.333 70.6918C812.333 72.9067 811.583 74.6703 810.083 75.9828C808.595 77.2953 806.632 77.9516 804.194 77.9516C801.733 77.9516 799.759 77.2953 798.271 75.9828C796.794 74.6586 796.056 72.895 796.056 70.6918C796.056 69.309 796.431 68.061 797.181 66.9477C797.942 65.8344 798.991 64.9907 800.327 64.4164C799.19 63.8539 798.294 63.0746 797.638 62.0786C796.981 61.0825 796.653 59.9516 796.653 58.686C796.653 56.5297 797.345 54.8188 798.728 53.5532C800.11 52.2875 801.933 51.6547 804.194 51.6547C806.444 51.6547 808.261 52.2875 809.644 53.5532C811.038 54.8188 811.735 56.5297 811.735 58.686ZM809.081 70.6215C809.081 69.1918 808.624 68.0258 807.71 67.1235C806.808 66.2211 805.624 65.77 804.159 65.77C802.694 65.77 801.517 66.2153 800.626 67.1059C799.747 67.9965 799.308 69.1684 799.308 70.6215C799.308 72.0746 799.735 73.2172 800.591 74.0493C801.458 74.8813 802.659 75.2973 804.194 75.2973C805.718 75.2973 806.913 74.8813 807.78 74.0493C808.648 73.2055 809.081 72.0629 809.081 70.6215ZM804.194 54.3266C802.917 54.3266 801.88 54.725 801.083 55.5219C800.298 56.3071 799.905 57.3793 799.905 58.7387C799.905 60.0395 800.292 61.0942 801.065 61.9028C801.851 62.6996 802.894 63.0981 804.194 63.0981C805.495 63.0981 806.532 62.6996 807.306 61.9028C808.091 61.0942 808.483 60.0395 808.483 58.7387C808.483 57.4379 808.079 56.3774 807.271 55.5571C806.462 54.7368 805.437 54.3266 804.194 54.3266ZM832.478 66.684C832.478 70.4926 831.827 73.3227 830.526 75.1743C829.226 77.0258 827.192 77.9516 824.427 77.9516C821.696 77.9516 819.675 77.0493 818.362 75.2446C817.05 73.4282 816.37 70.7211 816.323 67.1235V62.7817C816.323 59.02 816.974 56.225 818.274 54.3969C819.575 52.5688 821.614 51.6547 824.392 51.6547C827.146 51.6547 829.173 52.5395 830.474 54.309C831.774 56.0668 832.442 58.7856 832.478 62.4653V66.684ZM829.226 62.2368C829.226 59.4828 828.839 57.4789 828.065 56.225C827.292 54.9594 826.067 54.3266 824.392 54.3266C822.728 54.3266 821.515 54.9536 820.753 56.2075C819.991 57.4614 819.599 59.3891 819.575 61.9907V67.1938C819.575 69.9594 819.974 72.0043 820.771 73.3286C821.579 74.6411 822.798 75.2973 824.427 75.2973C826.032 75.2973 827.222 74.6762 827.995 73.434C828.78 72.1918 829.19 70.2348 829.226 67.5629V62.2368ZM837.048 75.895C837.048 75.3325 837.212 74.8637 837.54 74.4887C837.88 74.1137 838.384 73.9262 839.052 73.9262C839.72 73.9262 840.224 74.1137 840.564 74.4887C840.915 74.8637 841.091 75.3325 841.091 75.895C841.091 76.434 840.915 76.8852 840.564 77.2485C840.224 77.6118 839.72 77.7934 839.052 77.7934C838.384 77.7934 837.88 77.6118 837.54 77.2485C837.212 76.8852 837.048 76.434 837.048 75.895ZM862.185 66.684C862.185 70.4926 861.534 73.3227 860.233 75.1743C858.933 77.0258 856.899 77.9516 854.134 77.9516C851.403 77.9516 849.382 77.0493 848.069 75.2446C846.757 73.4282 846.077 70.7211 846.03 67.1235V62.7817C846.03 59.02 846.681 56.225 847.981 54.3969C849.282 52.5688 851.321 51.6547 854.099 51.6547C856.853 51.6547 858.88 52.5395 860.181 54.309C861.481 56.0668 862.149 58.7856 862.185 62.4653V66.684ZM858.933 62.2368C858.933 59.4828 858.546 57.4789 857.773 56.225C856.999 54.9594 855.774 54.3266 854.099 54.3266C852.435 54.3266 851.222 54.9536 850.46 56.2075C849.698 57.4614 849.306 59.3891 849.282 61.9907V67.1938C849.282 69.9594 849.681 72.0043 850.478 73.3286C851.286 74.6411 852.505 75.2973 854.134 75.2973C855.739 75.2973 856.929 74.6762 857.702 73.434C858.487 72.1918 858.898 70.2348 858.933 67.5629V62.2368Z" fill="black"/>
<rect id="Rectangle_2" x="756" y="90" width="144.667" height="58" stroke="black"/>
<path id="103.4" d="M796.794 135.6H793.524V113.926L786.968 116.334V113.381L796.284 109.883H796.794V135.6ZM822.37 124.684C822.37 128.493 821.72 131.323 820.419 133.174C819.118 135.026 817.085 135.952 814.319 135.952C811.589 135.952 809.567 135.049 808.255 133.245C806.942 131.428 806.263 128.721 806.216 125.123V120.782C806.216 117.02 806.866 114.225 808.167 112.397C809.468 110.569 811.507 109.655 814.284 109.655C817.038 109.655 819.065 110.539 820.366 112.309C821.667 114.067 822.335 116.786 822.37 120.465V124.684ZM819.118 120.237C819.118 117.483 818.731 115.479 817.958 114.225C817.185 112.959 815.96 112.327 814.284 112.327C812.62 112.327 811.407 112.954 810.646 114.207C809.884 115.461 809.491 117.389 809.468 119.991V125.194C809.468 127.959 809.866 130.004 810.663 131.329C811.472 132.641 812.69 133.297 814.319 133.297C815.925 133.297 817.114 132.676 817.888 131.434C818.673 130.192 819.083 128.235 819.118 125.563V120.237ZM831.265 121.221H833.708C835.243 121.198 836.45 120.793 837.329 120.008C838.208 119.223 838.648 118.163 838.648 116.827C838.648 113.827 837.153 112.327 834.165 112.327C832.759 112.327 831.634 112.731 830.79 113.539C829.958 114.336 829.542 115.397 829.542 116.721H826.29C826.29 114.694 827.028 113.012 828.505 111.676C829.993 110.329 831.88 109.655 834.165 109.655C836.579 109.655 838.472 110.293 839.843 111.571C841.214 112.848 841.899 114.623 841.899 116.897C841.899 118.01 841.536 119.088 840.81 120.131C840.095 121.174 839.116 121.954 837.874 122.469C839.28 122.914 840.364 123.653 841.126 124.684C841.899 125.715 842.286 126.975 842.286 128.463C842.286 130.76 841.536 132.582 840.036 133.93C838.536 135.278 836.585 135.952 834.183 135.952C831.78 135.952 829.823 135.301 828.312 134C826.812 132.7 826.062 130.983 826.062 128.85H829.331C829.331 130.198 829.771 131.276 830.649 132.084C831.528 132.893 832.706 133.297 834.183 133.297C835.753 133.297 836.954 132.887 837.786 132.067C838.618 131.247 839.034 130.069 839.034 128.534C839.034 127.045 838.577 125.903 837.663 125.106C836.749 124.309 835.431 123.899 833.708 123.875H831.265V121.221ZM847.155 133.895C847.155 133.332 847.319 132.864 847.648 132.489C847.987 132.114 848.491 131.926 849.159 131.926C849.827 131.926 850.331 132.114 850.671 132.489C851.023 132.864 851.198 133.332 851.198 133.895C851.198 134.434 851.023 134.885 850.671 135.248C850.331 135.612 849.827 135.793 849.159 135.793C848.491 135.793 847.987 135.612 847.648 135.248C847.319 134.885 847.155 134.434 847.155 133.895ZM869.972 127.004H873.523V129.659H869.972V135.6H866.702V129.659H855.048V127.743L866.509 110.006H869.972V127.004ZM858.739 127.004H866.702V114.454L866.315 115.157L858.739 127.004Z" fill="black"/>
<rect id="Rectangle_3" x="756" y="148" width="144.667" height="58" stroke="black"/>
<path id="96.9" d="M808.677 182.35C807.997 183.159 807.183 183.809 806.233 184.301C805.296 184.793 804.265 185.039 803.14 185.039C801.663 185.039 800.374 184.676 799.273 183.95C798.183 183.223 797.339 182.204 796.741 180.891C796.144 179.567 795.845 178.108 795.845 176.514C795.845 174.803 796.167 173.262 796.812 171.891C797.468 170.52 798.394 169.471 799.589 168.745C800.784 168.018 802.179 167.655 803.773 167.655C806.304 167.655 808.296 168.604 809.749 170.502C811.214 172.389 811.946 174.967 811.946 178.237V179.186C811.946 184.166 810.962 187.805 808.993 190.102C807.024 192.387 804.054 193.559 800.081 193.618H799.448V190.875H800.134C802.817 190.829 804.88 190.131 806.321 188.784C807.763 187.424 808.548 185.28 808.677 182.35ZM803.667 182.35C804.757 182.35 805.759 182.016 806.673 181.348C807.599 180.68 808.273 179.854 808.694 178.87V177.569C808.694 175.436 808.231 173.702 807.306 172.366C806.38 171.03 805.208 170.362 803.79 170.362C802.36 170.362 801.212 170.913 800.345 172.014C799.478 173.104 799.044 174.545 799.044 176.338C799.044 178.084 799.46 179.526 800.292 180.663C801.136 181.788 802.261 182.35 803.667 182.35ZM829.19 167.989V170.748H828.593C826.062 170.795 824.046 171.545 822.546 172.998C821.046 174.452 820.179 176.497 819.944 179.133C821.292 177.586 823.132 176.813 825.464 176.813C827.69 176.813 829.466 177.598 830.79 179.168C832.126 180.739 832.794 182.766 832.794 185.25C832.794 187.887 832.073 189.997 830.632 191.579C829.202 193.161 827.28 193.952 824.866 193.952C822.417 193.952 820.431 193.014 818.907 191.139C817.384 189.252 816.622 186.827 816.622 183.862V182.614C816.622 177.903 817.624 174.305 819.628 171.821C821.644 169.325 824.638 168.047 828.61 167.989H829.19ZM824.919 179.52C823.806 179.52 822.78 179.854 821.843 180.522C820.905 181.19 820.255 182.028 819.892 183.036V184.231C819.892 186.34 820.366 188.039 821.315 189.329C822.265 190.618 823.448 191.262 824.866 191.262C826.331 191.262 827.48 190.723 828.312 189.645C829.155 188.567 829.577 187.155 829.577 185.409C829.577 183.651 829.149 182.233 828.294 181.155C827.45 180.065 826.325 179.52 824.919 179.52ZM837.048 191.895C837.048 191.332 837.212 190.864 837.54 190.489C837.88 190.114 838.384 189.926 839.052 189.926C839.72 189.926 840.224 190.114 840.564 190.489C840.915 190.864 841.091 191.332 841.091 191.895C841.091 192.434 840.915 192.885 840.564 193.248C840.224 193.612 839.72 193.793 839.052 193.793C838.384 193.793 837.88 193.612 837.54 193.248C837.212 192.885 837.048 192.434 837.048 191.895ZM858.599 182.35C857.919 183.159 857.105 183.809 856.155 184.301C855.218 184.793 854.187 185.039 853.062 185.039C851.585 185.039 850.296 184.676 849.194 183.95C848.105 183.223 847.261 182.204 846.663 180.891C846.065 179.567 845.767 178.108 845.767 176.514C845.767 174.803 846.089 173.262 846.733 171.891C847.39 170.52 848.315 169.471 849.511 168.745C850.706 168.018 852.101 167.655 853.694 167.655C856.226 167.655 858.218 168.604 859.671 170.502C861.136 172.389 861.868 174.967 861.868 178.237V179.186C861.868 184.166 860.884 187.805 858.915 190.102C856.946 192.387 853.976 193.559 850.003 193.618H849.37V190.875H850.056C852.739 190.829 854.802 190.131 856.243 188.784C857.685 187.424 858.47 185.28 858.599 182.35ZM853.589 182.35C854.679 182.35 855.681 182.016 856.595 181.348C857.521 180.68 858.194 179.854 858.616 178.87V177.569C858.616 175.436 858.153 173.702 857.228 172.366C856.302 171.03 855.13 170.362 853.712 170.362C852.282 170.362 851.134 170.913 850.267 172.014C849.399 173.104 848.966 174.545 848.966 176.338C848.966 178.084 849.382 179.526 850.214 180.663C851.058 181.788 852.183 182.35 853.589 182.35Z" fill="black"/>
<rect id="Rectangle_4" x="756" y="206" width="144.667" height="58" stroke="black"/>
<path id="200.3" d="M802.876 251.6H786.106V249.262L794.966 239.418C796.278 237.93 797.181 236.723 797.673 235.797C798.177 234.86 798.429 233.893 798.429 232.897C798.429 231.561 798.024 230.465 797.216 229.61C796.407 228.754 795.329 228.327 793.981 228.327C792.364 228.327 791.105 228.789 790.202 229.715C789.312 230.629 788.866 231.907 788.866 233.547H785.614C785.614 231.192 786.37 229.288 787.882 227.834C789.405 226.381 791.439 225.655 793.981 225.655C796.36 225.655 798.241 226.282 799.624 227.536C801.007 228.778 801.698 230.436 801.698 232.51C801.698 235.03 800.093 238.03 796.882 241.51L790.026 248.946H802.876V251.6ZM822.37 240.684C822.37 244.493 821.72 247.323 820.419 249.174C819.118 251.026 817.085 251.952 814.319 251.952C811.589 251.952 809.567 251.049 808.255 249.245C806.942 247.428 806.263 244.721 806.216 241.123V236.782C806.216 233.02 806.866 230.225 808.167 228.397C809.468 226.569 811.507 225.655 814.284 225.655C817.038 225.655 819.065 226.539 820.366 228.309C821.667 230.067 822.335 232.786 822.37 236.465V240.684ZM819.118 236.237C819.118 233.483 818.731 231.479 817.958 230.225C817.185 228.959 815.96 228.327 814.284 228.327C812.62 228.327 811.407 228.954 810.646 230.207C809.884 231.461 809.491 233.389 809.468 235.991V241.194C809.468 243.959 809.866 246.004 810.663 247.329C811.472 248.641 812.69 249.297 814.319 249.297C815.925 249.297 817.114 248.676 817.888 247.434C818.673 246.192 819.083 244.235 819.118 241.563V236.237ZM842.585 240.684C842.585 244.493 841.935 247.323 840.634 249.174C839.333 251.026 837.3 251.952 834.534 251.952C831.804 251.952 829.782 251.049 828.47 249.245C827.157 247.428 826.478 244.721 826.431 241.123V236.782C826.431 233.02 827.081 230.225 828.382 228.397C829.683 226.569 831.722 225.655 834.499 225.655C837.253 225.655 839.28 226.539 840.581 228.309C841.882 230.067 842.55 232.786 842.585 236.465V240.684ZM839.333 236.237C839.333 233.483 838.946 231.479 838.173 230.225C837.399 228.959 836.175 228.327 834.499 228.327C832.835 228.327 831.622 228.954 830.86 230.207C830.099 231.461 829.706 233.389 829.683 235.991V241.194C829.683 243.959 830.081 246.004 830.878 247.329C831.687 248.641 832.905 249.297 834.534 249.297C836.14 249.297 837.329 248.676 838.103 247.434C838.888 246.192 839.298 244.235 839.333 241.563V236.237ZM847.155 249.895C847.155 249.332 847.319 248.864 847.648 248.489C847.987 248.114 848.491 247.926 849.159 247.926C849.827 247.926 850.331 248.114 850.671 248.489C851.023 248.864 851.198 249.332 851.198 249.895C851.198 250.434 851.023 250.885 850.671 251.248C850.331 251.612 849.827 251.793 849.159 251.793C848.491 251.793 847.987 251.612 847.648 251.248C847.319 250.885 847.155 250.434 847.155 249.895ZM860.972 237.221H863.415C864.95 237.198 866.157 236.793 867.036 236.008C867.915 235.223 868.355 234.163 868.355 232.827C868.355 229.827 866.86 228.327 863.872 228.327C862.466 228.327 861.341 228.731 860.497 229.539C859.665 230.336 859.249 231.397 859.249 232.721H855.997C855.997 230.694 856.735 229.012 858.212 227.676C859.7 226.329 861.587 225.655 863.872 225.655C866.286 225.655 868.179 226.293 869.55 227.571C870.921 228.848 871.606 230.623 871.606 232.897C871.606 234.01 871.243 235.088 870.517 236.131C869.802 237.174 868.823 237.954 867.581 238.469C868.987 238.914 870.071 239.653 870.833 240.684C871.606 241.715 871.993 242.975 871.993 244.463C871.993 246.76 871.243 248.582 869.743 249.93C868.243 251.278 866.292 251.952 863.89 251.952C861.487 251.952 859.53 251.301 858.019 250C856.519 248.7 855.769 246.983 855.769 244.85H859.038C859.038 246.198 859.478 247.276 860.356 248.084C861.235 248.893 862.413 249.297 863.89 249.297C865.46 249.297 866.661 248.887 867.493 248.067C868.325 247.247 868.741 246.069 868.741 244.534C868.741 243.045 868.284 241.903 867.37 241.106C866.456 240.309 865.138 239.899 863.415 239.875H860.972V237.221Z" fill="black"/>
</g>
<path id="c" d="M816.481 295.056C816.481 293.899 816.696 292.872 817.125 291.976C817.573 291.061 818.161 290.296 818.889 289.68C819.636 289.064 820.495 288.597 821.465 288.28C822.436 287.944 823.453 287.776 824.517 287.776C825.619 287.776 826.608 287.953 827.485 288.308C828.381 288.663 829.128 289.111 829.725 289.652L827.821 292.2C826.795 291.472 825.768 291.108 824.741 291.108C823.547 291.108 822.576 291.463 821.829 292.172C821.083 292.881 820.709 293.843 820.709 295.056C820.709 296.269 821.064 297.231 821.773 297.94C822.501 298.649 823.444 299.004 824.601 299.004C825.329 299.004 826.001 298.873 826.617 298.612C827.233 298.351 827.784 298.043 828.269 297.688L829.949 300.292C829.109 301.001 828.176 301.524 827.149 301.86C826.141 302.177 825.161 302.336 824.209 302.336C823.108 302.336 822.091 302.177 821.157 301.86C820.224 301.524 819.403 301.048 818.693 300.432C818.003 299.816 817.461 299.06 817.069 298.164C816.677 297.249 816.481 296.213 816.481 295.056Z" fill="#4F4F4F"/>
<g id="Group_2">
<path id="Rectangle_5" d="M14 102H510V184.476H14V102Z" fill="#F1F4F8"/>
<g id="c = np.array([80.0, 103.4, 96.9, 200.3])">
<path d="M39.6631 129.663C39.6631 128.524 39.8684 127.507 40.2791 126.611C40.7084 125.715 41.2777 124.959 41.9871 124.343C42.6964 123.727 43.5271 123.26 44.4791 122.943C45.4311 122.607 46.4297 122.439 47.4751 122.439C48.5951 122.439 49.5751 122.625 50.4151 122.999C51.2737 123.372 51.9924 123.829 52.5711 124.371L51.0311 126.387C50.4897 125.957 49.9391 125.631 49.3791 125.407C48.8377 125.183 48.2591 125.071 47.6431 125.071C46.2617 125.071 45.1417 125.491 44.2831 126.331C43.4244 127.152 42.9951 128.263 42.9951 129.663C42.9951 130.353 43.1071 130.979 43.3311 131.539C43.5551 132.099 43.8631 132.584 44.2551 132.995C44.6657 133.387 45.1511 133.695 45.7111 133.919C46.2711 134.124 46.8871 134.227 47.5591 134.227C48.3431 134.227 49.0524 134.077 49.6871 133.779C50.3404 133.48 50.9377 133.125 51.4791 132.715L52.8231 134.787C52.0391 135.477 51.1617 136 50.1911 136.355C49.2204 136.691 48.2404 136.859 47.2511 136.859C46.1684 136.859 45.1604 136.7 44.2271 136.383C43.3124 136.065 42.5097 135.599 41.8191 134.983C41.1471 134.367 40.6151 133.611 40.2231 132.715C39.8497 131.819 39.6631 130.801 39.6631 129.663ZM73.3812 122.971H85.8132V125.323H73.3812V122.971ZM73.3812 129.215H85.8132V131.567H73.3812V129.215ZM107.071 122.775H109.731L109.983 124.847H110.095C110.749 124.193 111.467 123.633 112.251 123.167C113.054 122.681 113.987 122.439 115.051 122.439C116.638 122.439 117.805 122.924 118.551 123.895C119.298 124.847 119.671 126.219 119.671 128.011V136.523H116.423V128.431C116.423 127.311 116.227 126.499 115.835 125.995C115.462 125.472 114.799 125.211 113.847 125.211C113.175 125.211 112.578 125.369 112.055 125.687C111.533 126.004 110.954 126.489 110.319 127.143V136.523H107.071V122.775ZM127.108 137.643V141.955H123.86V122.775H126.52L126.772 124.343H126.856C127.454 123.801 128.135 123.353 128.9 122.999C129.684 122.625 130.468 122.439 131.252 122.439C132.148 122.439 132.942 122.607 133.632 122.943C134.342 123.26 134.93 123.727 135.396 124.343C135.882 124.959 136.246 125.696 136.488 126.555C136.75 127.413 136.88 128.375 136.88 129.439C136.88 130.615 136.712 131.669 136.376 132.603C136.04 133.517 135.583 134.292 135.004 134.927C134.444 135.543 133.791 136.019 133.044 136.355C132.316 136.691 131.56 136.859 130.776 136.859C130.142 136.859 129.488 136.719 128.816 136.439C128.163 136.159 127.556 135.757 126.996 135.235L127.108 137.643ZM127.108 132.939C127.612 133.405 128.126 133.732 128.648 133.919C129.19 134.105 129.675 134.199 130.104 134.199C131.094 134.199 131.915 133.807 132.568 133.023C133.222 132.22 133.548 131.035 133.548 129.467C133.548 128.085 133.296 127.012 132.792 126.247C132.288 125.481 131.476 125.099 130.356 125.099C129.834 125.099 129.302 125.229 128.76 125.491C128.219 125.752 127.668 126.172 127.108 126.751V132.939ZM143.981 134.031C143.981 133.209 144.243 132.537 144.765 132.015C145.288 131.473 145.951 131.203 146.753 131.203C147.556 131.203 148.219 131.473 148.741 132.015C149.264 132.537 149.525 133.209 149.525 134.031C149.525 134.852 149.264 135.533 148.741 136.075C148.219 136.597 147.556 136.859 146.753 136.859C145.951 136.859 145.288 136.597 144.765 136.075C144.243 135.533 143.981 134.852 143.981 134.031ZM157.131 132.827C157.131 132.061 157.308 131.389 157.663 130.811C158.017 130.213 158.577 129.709 159.343 129.299C160.108 128.888 161.088 128.552 162.283 128.291C163.477 128.029 164.924 127.843 166.623 127.731C166.567 126.947 166.287 126.303 165.783 125.799C165.279 125.295 164.467 125.043 163.347 125.043C162.563 125.043 161.788 125.192 161.023 125.491C160.276 125.771 159.548 126.107 158.839 126.499L157.663 124.343C158.503 123.857 159.464 123.419 160.547 123.027C161.629 122.635 162.759 122.439 163.935 122.439C165.857 122.439 167.323 122.952 168.331 123.979C169.339 124.987 169.843 126.452 169.843 128.375V136.523H167.211L166.959 134.815H166.875C166.147 135.375 165.335 135.86 164.439 136.271C163.561 136.663 162.656 136.859 161.723 136.859C161.051 136.859 160.435 136.756 159.875 136.551C159.315 136.364 158.829 136.093 158.419 135.739C158.008 135.384 157.691 134.964 157.467 134.479C157.243 133.975 157.131 133.424 157.131 132.827ZM160.239 132.575C160.239 133.191 160.472 133.639 160.939 133.919C161.424 134.199 162.012 134.339 162.703 134.339C163.393 134.339 164.056 134.189 164.691 133.891C165.344 133.573 165.988 133.163 166.623 132.659V129.747C165.391 129.84 164.364 129.971 163.543 130.139C162.721 130.288 162.068 130.484 161.583 130.727C161.097 130.969 160.752 131.249 160.547 131.567C160.341 131.865 160.239 132.201 160.239 132.575ZM175.572 122.775H178.232L178.512 125.883H178.596C179.305 124.763 180.154 123.913 181.144 123.335C182.152 122.737 183.253 122.439 184.448 122.439C185.008 122.439 185.484 122.485 185.876 122.579C186.286 122.653 186.697 122.793 187.108 122.999L186.436 125.715C185.988 125.565 185.586 125.463 185.232 125.407C184.896 125.332 184.466 125.295 183.944 125.295C182.992 125.295 182.077 125.565 181.2 126.107C180.322 126.648 179.529 127.591 178.82 128.935V136.523H175.572V122.775ZM192.361 122.775H195.021L195.301 125.883H195.385C196.094 124.763 196.943 123.913 197.933 123.335C198.941 122.737 200.042 122.439 201.237 122.439C201.797 122.439 202.273 122.485 202.665 122.579C203.075 122.653 203.486 122.793 203.897 122.999L203.225 125.715C202.777 125.565 202.375 125.463 202.021 125.407C201.685 125.332 201.255 125.295 200.733 125.295C199.781 125.295 198.866 125.565 197.989 126.107C197.111 126.648 196.318 127.591 195.609 128.935V136.523H192.361V122.775ZM207.498 132.827C207.498 132.061 207.675 131.389 208.03 130.811C208.384 130.213 208.944 129.709 209.71 129.299C210.475 128.888 211.455 128.552 212.65 128.291C213.844 128.029 215.291 127.843 216.99 127.731C216.934 126.947 216.654 126.303 216.15 125.799C215.646 125.295 214.834 125.043 213.714 125.043C212.93 125.043 212.155 125.192 211.39 125.491C210.643 125.771 209.915 126.107 209.206 126.499L208.03 124.343C208.87 123.857 209.831 123.419 210.914 123.027C211.996 122.635 213.126 122.439 214.302 122.439C216.224 122.439 217.69 122.952 218.698 123.979C219.706 124.987 220.21 126.452 220.21 128.375V136.523H217.578L217.326 134.815H217.242C216.514 135.375 215.702 135.86 214.806 136.271C213.928 136.663 213.023 136.859 212.09 136.859C211.418 136.859 210.802 136.756 210.242 136.551C209.682 136.364 209.196 136.093 208.786 135.739C208.375 135.384 208.058 134.964 207.834 134.479C207.61 133.975 207.498 133.424 207.498 132.827ZM210.606 132.575C210.606 133.191 210.839 133.639 211.306 133.919C211.791 134.199 212.379 134.339 213.07 134.339C213.76 134.339 214.423 134.189 215.058 133.891C215.711 133.573 216.355 133.163 216.99 132.659V129.747C215.758 129.84 214.731 129.971 213.91 130.139C213.088 130.288 212.435 130.484 211.95 130.727C211.464 130.969 211.119 131.249 210.914 131.567C210.708 131.865 210.606 132.201 210.606 132.575ZM224.791 139.379C224.977 139.435 225.164 139.481 225.351 139.519C225.537 139.556 225.733 139.575 225.939 139.575C226.816 139.575 227.516 139.351 228.039 138.903C228.561 138.473 228.963 137.913 229.243 137.223L229.579 136.355L223.419 122.775H226.639L229.467 129.523C229.728 130.139 229.98 130.792 230.223 131.483C230.465 132.173 230.717 132.864 230.979 133.555H231.091C231.296 132.901 231.52 132.229 231.763 131.539C232.005 130.848 232.239 130.176 232.463 129.523L234.955 122.775H238.007L232.267 137.139C231.968 137.923 231.632 138.623 231.259 139.239C230.904 139.855 230.484 140.377 229.999 140.807C229.513 141.255 228.953 141.591 228.319 141.815C227.684 142.057 226.956 142.179 226.135 142.179C225.761 142.179 225.407 142.151 225.071 142.095C224.735 142.057 224.436 141.992 224.175 141.899L224.791 139.379ZM250.624 141.479C248.738 139.911 247.245 138.063 246.144 135.935C245.061 133.807 244.52 131.408 244.52 128.739C244.52 126.069 245.061 123.671 246.144 121.543C247.245 119.415 248.738 117.567 250.624 115.999L252.416 117.483C250.642 119.088 249.345 120.796 248.524 122.607C247.702 124.417 247.292 126.461 247.292 128.739C247.292 131.016 247.702 133.06 248.524 134.871C249.345 136.681 250.642 138.389 252.416 139.995L250.624 141.479ZM261.841 116.699H269.849V118.463H264.333V139.015H269.849V140.779H261.841V116.699ZM345.114 140.611C347.485 139.659 348.68 138.221 348.698 136.299C348.605 136.317 348.474 136.327 348.306 136.327C347.597 136.327 346.981 136.121 346.458 135.711C345.936 135.281 345.674 134.656 345.674 133.835C345.674 133.051 345.936 132.444 346.458 132.015C347 131.567 347.634 131.343 348.362 131.343C349.37 131.343 350.126 131.716 350.63 132.463C351.134 133.209 351.386 134.236 351.386 135.543C351.386 137.26 350.92 138.707 349.986 139.883C349.053 141.077 347.709 141.964 345.954 142.543L345.114 140.611ZM462.638 140.611C465.008 139.659 466.203 138.221 466.222 136.299C466.128 136.317 465.998 136.327 465.83 136.327C465.12 136.327 464.504 136.121 463.982 135.711C463.459 135.281 463.198 134.656 463.198 133.835C463.198 133.051 463.459 132.444 463.982 132.015C464.523 131.567 465.158 131.343 465.886 131.343C466.894 131.343 467.65 131.716 468.154 132.463C468.658 133.209 468.91 134.236 468.91 135.543C468.91 137.26 468.443 138.707 467.51 139.883C466.576 141.077 465.232 141.964 463.478 142.543L462.638 140.611ZM345.114 174.611C347.485 173.659 348.68 172.221 348.698 170.299C348.605 170.317 348.474 170.327 348.306 170.327C347.597 170.327 346.981 170.121 346.458 169.711C345.936 169.281 345.674 168.656 345.674 167.835C345.674 167.051 345.936 166.444 346.458 166.015C347 165.567 347.634 165.343 348.362 165.343C349.37 165.343 350.126 165.716 350.63 166.463C351.134 167.209 351.386 168.236 351.386 169.543C351.386 171.26 350.92 172.707 349.986 173.883C349.053 175.077 347.709 175.964 345.954 176.543L345.114 174.611ZM465.69 173.015V152.463H460.202V150.699H468.21V174.779H460.202V173.015H465.69ZM477.607 173.995C479.38 172.389 480.677 170.681 481.499 168.871C482.32 167.06 482.731 165.016 482.731 162.739C482.731 160.461 482.32 158.417 481.499 156.607C480.677 154.796 479.38 153.088 477.607 151.483L479.399 149.999C481.284 151.567 482.768 153.415 483.851 155.543C484.952 157.671 485.503 160.069 485.503 162.739C485.503 165.408 484.952 167.807 483.851 169.935C482.768 172.063 481.284 173.911 479.399 175.479L477.607 173.995Z" fill="#2E383C"/>
<path d="M277.314 131.623C277.314 132.519 277.669 133.237 278.378 133.779C279.087 134.301 280.011 134.563 281.15 134.563C282.233 134.563 283.082 134.329 283.698 133.863C284.314 133.396 284.622 132.743 284.622 131.903C284.622 131.399 284.491 130.969 284.23 130.615C283.987 130.26 283.642 129.952 283.194 129.691C282.765 129.429 282.251 129.196 281.654 128.991C281.057 128.767 280.403 128.533 279.694 128.291C279.003 128.701 278.434 129.177 277.986 129.719C277.538 130.241 277.314 130.876 277.314 131.623ZM282.41 126.471C283.586 125.519 284.174 124.492 284.174 123.391C284.174 122.607 283.913 121.963 283.39 121.459C282.867 120.936 282.111 120.675 281.122 120.675C280.282 120.675 279.591 120.889 279.05 121.319C278.527 121.729 278.266 122.327 278.266 123.111C278.266 123.559 278.369 123.951 278.574 124.287C278.779 124.623 279.069 124.921 279.442 125.183C279.815 125.425 280.254 125.659 280.758 125.883C281.262 126.088 281.813 126.284 282.41 126.471ZM274.458 131.959C274.458 131.38 274.551 130.857 274.738 130.391C274.943 129.924 275.214 129.513 275.55 129.159C275.886 128.785 276.269 128.459 276.698 128.179C277.146 127.88 277.603 127.619 278.07 127.395V127.283C277.323 126.797 276.689 126.219 276.166 125.547C275.662 124.875 275.41 124.063 275.41 123.111C275.41 122.383 275.55 121.729 275.83 121.151C276.129 120.572 276.53 120.077 277.034 119.667C277.557 119.256 278.163 118.939 278.854 118.715C279.563 118.491 280.338 118.379 281.178 118.379C282.951 118.379 284.342 118.817 285.35 119.695C286.377 120.572 286.89 121.739 286.89 123.195C286.89 124.035 286.629 124.8 286.106 125.491C285.583 126.181 284.958 126.769 284.23 127.255V127.367C284.715 127.609 285.163 127.871 285.574 128.151C286.003 128.431 286.367 128.757 286.666 129.131C286.983 129.485 287.226 129.905 287.394 130.391C287.581 130.857 287.674 131.399 287.674 132.015C287.674 132.705 287.525 133.349 287.226 133.947C286.946 134.525 286.526 135.039 285.966 135.487C285.406 135.916 284.715 136.252 283.894 136.495C283.073 136.737 282.139 136.859 281.094 136.859C280.067 136.859 279.143 136.737 278.322 136.495C277.501 136.252 276.801 135.916 276.222 135.487C275.662 135.057 275.223 134.544 274.906 133.947C274.607 133.349 274.458 132.687 274.458 131.959ZM297.855 136.859C295.82 136.859 294.206 136.056 293.011 134.451C291.835 132.845 291.247 130.54 291.247 127.535C291.247 124.511 291.835 122.233 293.011 120.703C294.206 119.153 295.82 118.379 297.855 118.379C299.89 118.379 301.495 119.153 302.671 120.703C303.866 122.233 304.463 124.511 304.463 127.535C304.463 130.54 303.866 132.845 302.671 134.451C301.495 136.056 299.89 136.859 297.855 136.859ZM297.855 120.899C297.314 120.899 296.819 121.02 296.371 121.263C295.923 121.487 295.531 121.86 295.195 122.383C294.878 122.905 294.626 123.596 294.439 124.455C294.252 125.295 294.159 126.321 294.159 127.535C294.159 128.748 294.252 129.793 294.439 130.671C294.626 131.529 294.878 132.229 295.195 132.771C295.531 133.312 295.923 133.713 296.371 133.975C296.819 134.217 297.314 134.339 297.855 134.339C298.378 134.339 298.863 134.217 299.311 133.975C299.778 133.713 300.17 133.312 300.487 132.771C300.823 132.229 301.084 131.529 301.271 130.671C301.458 129.793 301.551 128.748 301.551 127.535C301.551 126.321 301.458 125.295 301.271 124.455C301.084 123.596 300.823 122.905 300.487 122.383C300.17 121.86 299.778 121.487 299.311 121.263C298.863 121.02 298.378 120.899 297.855 120.899ZM297.855 129.411C297.314 129.411 296.856 129.233 296.483 128.879C296.11 128.524 295.923 128.039 295.923 127.423C295.923 126.807 296.11 126.321 296.483 125.967C296.856 125.612 297.314 125.435 297.855 125.435C298.396 125.435 298.854 125.612 299.227 125.967C299.6 126.321 299.787 126.807 299.787 127.423C299.787 128.039 299.6 128.524 299.227 128.879C298.854 129.233 298.396 129.411 297.855 129.411ZM311.872 134.031C311.872 133.209 312.133 132.537 312.656 132.015C313.179 131.473 313.841 131.203 314.644 131.203C315.447 131.203 316.109 131.473 316.632 132.015C317.155 132.537 317.416 133.209 317.416 134.031C317.416 134.852 317.155 135.533 316.632 136.075C316.109 136.597 315.447 136.859 314.644 136.859C313.841 136.859 313.179 136.597 312.656 136.075C312.133 135.533 311.872 134.852 311.872 134.031ZM331.433 136.859C329.398 136.859 327.784 136.056 326.589 134.451C325.413 132.845 324.825 130.54 324.825 127.535C324.825 124.511 325.413 122.233 326.589 120.703C327.784 119.153 329.398 118.379 331.433 118.379C333.468 118.379 335.073 119.153 336.249 120.703C337.444 122.233 338.041 124.511 338.041 127.535C338.041 130.54 337.444 132.845 336.249 134.451C335.073 136.056 333.468 136.859 331.433 136.859ZM331.433 120.899C330.892 120.899 330.397 121.02 329.949 121.263C329.501 121.487 329.109 121.86 328.773 122.383C328.456 122.905 328.204 123.596 328.017 124.455C327.83 125.295 327.737 126.321 327.737 127.535C327.737 128.748 327.83 129.793 328.017 130.671C328.204 131.529 328.456 132.229 328.773 132.771C329.109 133.312 329.501 133.713 329.949 133.975C330.397 134.217 330.892 134.339 331.433 134.339C331.956 134.339 332.441 134.217 332.889 133.975C333.356 133.713 333.748 133.312 334.065 132.771C334.401 132.229 334.662 131.529 334.849 130.671C335.036 129.793 335.129 128.748 335.129 127.535C335.129 126.321 335.036 125.295 334.849 124.455C334.662 123.596 334.401 122.905 334.065 122.383C333.748 121.86 333.356 121.487 332.889 121.263C332.441 121.02 331.956 120.899 331.433 120.899ZM331.433 129.411C330.892 129.411 330.434 129.233 330.061 128.879C329.688 128.524 329.501 128.039 329.501 127.423C329.501 126.807 329.688 126.321 330.061 125.967C330.434 125.612 330.892 125.435 331.433 125.435C331.974 125.435 332.432 125.612 332.805 125.967C333.178 126.321 333.365 126.807 333.365 127.423C333.365 128.039 333.178 128.524 332.805 128.879C332.432 129.233 331.974 129.411 331.433 129.411ZM388.324 133.891V136.523H375.92V133.891H380.736V122.187H377.012V120.171C378.02 120.003 378.879 119.807 379.588 119.583C380.316 119.34 380.988 119.051 381.604 118.715H383.956V133.891H388.324ZM398.589 136.859C396.555 136.859 394.94 136.056 393.745 134.451C392.569 132.845 391.981 130.54 391.981 127.535C391.981 124.511 392.569 122.233 393.745 120.703C394.94 119.153 396.555 118.379 398.589 118.379C400.624 118.379 402.229 119.153 403.405 120.703C404.6 122.233 405.197 124.511 405.197 127.535C405.197 130.54 404.6 132.845 403.405 134.451C402.229 136.056 400.624 136.859 398.589 136.859ZM398.589 120.899C398.048 120.899 397.553 121.02 397.105 121.263C396.657 121.487 396.265 121.86 395.929 122.383C395.612 122.905 395.36 123.596 395.173 124.455C394.987 125.295 394.893 126.321 394.893 127.535C394.893 128.748 394.987 129.793 395.173 130.671C395.36 131.529 395.612 132.229 395.929 132.771C396.265 133.312 396.657 133.713 397.105 133.975C397.553 134.217 398.048 134.339 398.589 134.339C399.112 134.339 399.597 134.217 400.045 133.975C400.512 133.713 400.904 133.312 401.221 132.771C401.557 132.229 401.819 131.529 402.005 130.671C402.192 129.793 402.285 128.748 402.285 127.535C402.285 126.321 402.192 125.295 402.005 124.455C401.819 123.596 401.557 122.905 401.221 122.383C400.904 121.86 400.512 121.487 400.045 121.263C399.597 121.02 399.112 120.899 398.589 120.899ZM398.589 129.411C398.048 129.411 397.591 129.233 397.217 128.879C396.844 128.524 396.657 128.039 396.657 127.423C396.657 126.807 396.844 126.321 397.217 125.967C397.591 125.612 398.048 125.435 398.589 125.435C399.131 125.435 399.588 125.612 399.961 125.967C400.335 126.321 400.521 126.807 400.521 127.423C400.521 128.039 400.335 128.524 399.961 128.879C399.588 129.233 399.131 129.411 398.589 129.411ZM409.89 132.267C410.488 132.808 411.178 133.275 411.962 133.667C412.765 134.04 413.652 134.227 414.622 134.227C415.724 134.227 416.629 133.993 417.338 133.527C418.066 133.041 418.43 132.379 418.43 131.539C418.43 131.072 418.328 130.652 418.122 130.279C417.917 129.905 417.581 129.588 417.114 129.327C416.666 129.065 416.06 128.869 415.294 128.739C414.548 128.589 413.624 128.515 412.522 128.515V126.163C413.474 126.163 414.286 126.097 414.958 125.967C415.63 125.817 416.172 125.621 416.582 125.379C417.012 125.117 417.32 124.809 417.506 124.455C417.712 124.1 417.814 123.717 417.814 123.307C417.814 122.56 417.525 121.981 416.946 121.571C416.386 121.141 415.63 120.927 414.678 120.927C413.894 120.927 413.166 121.085 412.494 121.403C411.841 121.701 411.216 122.103 410.618 122.607L408.938 120.619C409.76 119.947 410.656 119.405 411.626 118.995C412.597 118.584 413.661 118.379 414.818 118.379C415.733 118.379 416.573 118.481 417.338 118.687C418.104 118.892 418.757 119.2 419.298 119.611C419.858 120.003 420.288 120.497 420.586 121.095C420.904 121.673 421.062 122.336 421.062 123.083C421.062 124.091 420.736 124.931 420.082 125.603C419.429 126.275 418.552 126.797 417.45 127.171V127.283C418.029 127.432 418.57 127.637 419.074 127.899C419.597 128.141 420.045 128.449 420.418 128.823C420.81 129.196 421.118 129.625 421.342 130.111C421.566 130.596 421.678 131.128 421.678 131.707C421.678 132.528 421.492 133.256 421.118 133.891C420.764 134.525 420.278 135.067 419.662 135.515C419.046 135.944 418.328 136.28 417.506 136.523C416.685 136.747 415.817 136.859 414.902 136.859C413.372 136.859 412.065 136.616 410.982 136.131C409.9 135.645 409.032 135.048 408.378 134.339L409.89 132.267ZM429.396 134.031C429.396 133.209 429.657 132.537 430.18 132.015C430.702 131.473 431.365 131.203 432.168 131.203C432.97 131.203 433.633 131.473 434.156 132.015C434.678 132.537 434.94 133.209 434.94 134.031C434.94 134.852 434.678 135.533 434.156 136.075C433.633 136.597 432.97 136.859 432.168 136.859C431.365 136.859 430.702 136.597 430.18 136.075C429.657 135.533 429.396 134.852 429.396 134.031ZM450.469 129.439V125.183C450.487 124.641 450.506 124.053 450.525 123.419C450.562 122.784 450.599 122.196 450.637 121.655H450.497C450.198 122.121 449.89 122.588 449.573 123.055C449.255 123.521 448.938 123.997 448.621 124.483L444.869 129.439H450.469ZM456.013 131.931H453.493V136.523H450.469V131.931H441.593V129.747L449.769 118.687H453.493V129.439H456.013V131.931ZM280.534 161.395C281.15 161.395 281.794 161.236 282.466 160.919C283.138 160.601 283.801 160.06 284.454 159.295C284.249 157.727 283.801 156.597 283.11 155.907C282.419 155.197 281.57 154.843 280.562 154.843C280.114 154.843 279.694 154.917 279.302 155.067C278.91 155.216 278.565 155.431 278.266 155.711C277.986 155.991 277.753 156.345 277.566 156.775C277.398 157.185 277.314 157.661 277.314 158.203C277.314 159.267 277.594 160.069 278.154 160.611C278.733 161.133 279.526 161.395 280.534 161.395ZM276.362 166.883C276.791 167.275 277.295 167.601 277.874 167.863C278.453 168.105 279.069 168.227 279.722 168.227C280.338 168.227 280.926 168.115 281.486 167.891C282.065 167.667 282.569 167.293 282.998 166.771C283.446 166.248 283.81 165.567 284.09 164.727C284.37 163.868 284.529 162.823 284.566 161.591C283.857 162.244 283.091 162.767 282.27 163.159C281.467 163.532 280.674 163.719 279.89 163.719C279.087 163.719 278.341 163.607 277.65 163.383C276.978 163.159 276.399 162.823 275.914 162.375C275.429 161.908 275.046 161.329 274.766 160.639C274.486 159.948 274.346 159.136 274.346 158.203C274.346 157.307 274.514 156.504 274.85 155.795C275.186 155.067 275.634 154.451 276.194 153.947C276.754 153.443 277.407 153.06 278.154 152.799C278.901 152.519 279.685 152.379 280.506 152.379C281.458 152.379 282.354 152.556 283.194 152.911C284.053 153.247 284.799 153.769 285.434 154.479C286.087 155.188 286.601 156.093 286.974 157.195C287.347 158.277 287.534 159.565 287.534 161.059C287.534 162.795 287.319 164.279 286.89 165.511C286.479 166.743 285.919 167.76 285.21 168.563C284.519 169.347 283.717 169.925 282.802 170.299C281.887 170.672 280.945 170.859 279.974 170.859C278.798 170.859 277.762 170.663 276.866 170.271C275.97 169.879 275.223 169.403 274.626 168.843L276.362 166.883ZM298.359 168.395C298.807 168.395 299.218 168.32 299.591 168.171C299.983 168.021 300.328 167.807 300.627 167.527C300.926 167.228 301.159 166.873 301.327 166.463C301.495 166.033 301.579 165.548 301.579 165.007C301.579 163.943 301.29 163.149 300.711 162.627C300.151 162.104 299.367 161.843 298.359 161.843C297.762 161.843 297.127 162.001 296.455 162.319C295.783 162.617 295.12 163.149 294.467 163.915C294.672 165.501 295.12 166.649 295.811 167.359C296.502 168.049 297.351 168.395 298.359 168.395ZM302.531 156.355C302.12 155.963 301.616 155.645 301.019 155.403C300.44 155.141 299.834 155.011 299.199 155.011C298.564 155.011 297.958 155.123 297.379 155.347C296.819 155.571 296.315 155.944 295.867 156.467C295.438 156.989 295.083 157.68 294.803 158.539C294.542 159.379 294.392 160.415 294.355 161.647C295.046 160.975 295.802 160.452 296.623 160.079C297.444 159.687 298.247 159.491 299.031 159.491C299.834 159.491 300.571 159.603 301.243 159.827C301.915 160.051 302.494 160.396 302.979 160.863C303.483 161.311 303.875 161.88 304.155 162.571C304.435 163.261 304.575 164.073 304.575 165.007C304.575 165.903 304.407 166.715 304.071 167.443C303.735 168.152 303.278 168.759 302.699 169.263C302.139 169.767 301.486 170.159 300.739 170.439C299.992 170.719 299.208 170.859 298.387 170.859C297.454 170.859 296.558 170.691 295.699 170.355C294.859 170 294.112 169.468 293.459 168.759C292.824 168.049 292.311 167.144 291.919 166.043C291.546 164.941 291.359 163.644 291.359 162.151C291.359 160.415 291.564 158.931 291.975 157.699C292.404 156.467 292.974 155.459 293.683 154.675C294.392 153.891 295.195 153.312 296.091 152.939C297.006 152.565 297.958 152.379 298.947 152.379C300.123 152.379 301.15 152.575 302.027 152.967C302.923 153.359 303.67 153.835 304.267 154.395L302.531 156.355ZM311.872 168.031C311.872 167.209 312.133 166.537 312.656 166.015C313.179 165.473 313.841 165.203 314.644 165.203C315.447 165.203 316.109 165.473 316.632 166.015C317.155 166.537 317.416 167.209 317.416 168.031C317.416 168.852 317.155 169.533 316.632 170.075C316.109 170.597 315.447 170.859 314.644 170.859C313.841 170.859 313.179 170.597 312.656 170.075C312.133 169.533 311.872 168.852 311.872 168.031ZM330.901 161.395C331.517 161.395 332.161 161.236 332.833 160.919C333.505 160.601 334.168 160.06 334.821 159.295C334.616 157.727 334.168 156.597 333.477 155.907C332.786 155.197 331.937 154.843 330.929 154.843C330.481 154.843 330.061 154.917 329.669 155.067C329.277 155.216 328.932 155.431 328.633 155.711C328.353 155.991 328.12 156.345 327.933 156.775C327.765 157.185 327.681 157.661 327.681 158.203C327.681 159.267 327.961 160.069 328.521 160.611C329.1 161.133 329.893 161.395 330.901 161.395ZM326.729 166.883C327.158 167.275 327.662 167.601 328.241 167.863C328.82 168.105 329.436 168.227 330.089 168.227C330.705 168.227 331.293 168.115 331.853 167.891C332.432 167.667 332.936 167.293 333.365 166.771C333.813 166.248 334.177 165.567 334.457 164.727C334.737 163.868 334.896 162.823 334.933 161.591C334.224 162.244 333.458 162.767 332.637 163.159C331.834 163.532 331.041 163.719 330.257 163.719C329.454 163.719 328.708 163.607 328.017 163.383C327.345 163.159 326.766 162.823 326.281 162.375C325.796 161.908 325.413 161.329 325.133 160.639C324.853 159.948 324.713 159.136 324.713 158.203C324.713 157.307 324.881 156.504 325.217 155.795C325.553 155.067 326.001 154.451 326.561 153.947C327.121 153.443 327.774 153.06 328.521 152.799C329.268 152.519 330.052 152.379 330.873 152.379C331.825 152.379 332.721 152.556 333.561 152.911C334.42 153.247 335.166 153.769 335.801 154.479C336.454 155.188 336.968 156.093 337.341 157.195C337.714 158.277 337.901 159.565 337.901 161.059C337.901 162.795 337.686 164.279 337.257 165.511C336.846 166.743 336.286 167.76 335.577 168.563C334.886 169.347 334.084 169.925 333.169 170.299C332.254 170.672 331.312 170.859 330.341 170.859C329.165 170.859 328.129 170.663 327.233 170.271C326.337 169.879 325.59 169.403 324.993 168.843L326.729 166.883ZM375.22 168.647C376.62 167.452 377.871 166.36 378.972 165.371C380.074 164.363 381.007 163.429 381.772 162.571C382.556 161.712 383.154 160.909 383.564 160.163C383.975 159.416 384.18 158.697 384.18 158.007C384.18 157.055 383.891 156.308 383.312 155.767C382.734 155.207 381.884 154.927 380.764 154.927C379.98 154.927 379.262 155.123 378.608 155.515C377.974 155.907 377.386 156.373 376.844 156.915L375.08 155.123C375.939 154.245 376.844 153.573 377.796 153.107C378.748 152.621 379.878 152.379 381.184 152.379C382.099 152.379 382.93 152.509 383.676 152.771C384.423 153.032 385.058 153.405 385.58 153.891C386.122 154.357 386.532 154.927 386.812 155.599C387.111 156.271 387.26 157.017 387.26 157.839C387.26 158.623 387.064 159.425 386.672 160.247C386.299 161.049 385.786 161.871 385.132 162.711C384.479 163.532 383.695 164.381 382.78 165.259C381.884 166.136 380.923 167.041 379.896 167.975C380.419 167.937 380.97 167.9 381.548 167.863C382.127 167.807 382.659 167.779 383.144 167.779H388.184V170.523H375.22V168.647ZM398.589 170.859C396.555 170.859 394.94 170.056 393.745 168.451C392.569 166.845 391.981 164.54 391.981 161.535C391.981 158.511 392.569 156.233 393.745 154.703C394.94 153.153 396.555 152.379 398.589 152.379C400.624 152.379 402.229 153.153 403.405 154.703C404.6 156.233 405.197 158.511 405.197 161.535C405.197 164.54 404.6 166.845 403.405 168.451C402.229 170.056 400.624 170.859 398.589 170.859ZM398.589 154.899C398.048 154.899 397.553 155.02 397.105 155.263C396.657 155.487 396.265 155.86 395.929 156.383C395.612 156.905 395.36 157.596 395.173 158.455C394.987 159.295 394.893 160.321 394.893 161.535C394.893 162.748 394.987 163.793 395.173 164.671C395.36 165.529 395.612 166.229 395.929 166.771C396.265 167.312 396.657 167.713 397.105 167.975C397.553 168.217 398.048 168.339 398.589 168.339C399.112 168.339 399.597 168.217 400.045 167.975C400.512 167.713 400.904 167.312 401.221 166.771C401.557 166.229 401.819 165.529 402.005 164.671C402.192 163.793 402.285 162.748 402.285 161.535C402.285 160.321 402.192 159.295 402.005 158.455C401.819 157.596 401.557 156.905 401.221 156.383C400.904 155.86 400.512 155.487 400.045 155.263C399.597 155.02 399.112 154.899 398.589 154.899ZM398.589 163.411C398.048 163.411 397.591 163.233 397.217 162.879C396.844 162.524 396.657 162.039 396.657 161.423C396.657 160.807 396.844 160.321 397.217 159.967C397.591 159.612 398.048 159.435 398.589 159.435C399.131 159.435 399.588 159.612 399.961 159.967C400.335 160.321 400.521 160.807 400.521 161.423C400.521 162.039 400.335 162.524 399.961 162.879C399.588 163.233 399.131 163.411 398.589 163.411ZM415.378 170.859C413.344 170.859 411.729 170.056 410.534 168.451C409.358 166.845 408.77 164.54 408.77 161.535C408.77 158.511 409.358 156.233 410.534 154.703C411.729 153.153 413.344 152.379 415.378 152.379C417.413 152.379 419.018 153.153 420.194 154.703C421.389 156.233 421.986 158.511 421.986 161.535C421.986 164.54 421.389 166.845 420.194 168.451C419.018 170.056 417.413 170.859 415.378 170.859ZM415.378 154.899C414.837 154.899 414.342 155.02 413.894 155.263C413.446 155.487 413.054 155.86 412.718 156.383C412.401 156.905 412.149 157.596 411.962 158.455C411.776 159.295 411.682 160.321 411.682 161.535C411.682 162.748 411.776 163.793 411.962 164.671C412.149 165.529 412.401 166.229 412.718 166.771C413.054 167.312 413.446 167.713 413.894 167.975C414.342 168.217 414.837 168.339 415.378 168.339C415.901 168.339 416.386 168.217 416.834 167.975C417.301 167.713 417.693 167.312 418.01 166.771C418.346 166.229 418.608 165.529 418.794 164.671C418.981 163.793 419.074 162.748 419.074 161.535C419.074 160.321 418.981 159.295 418.794 158.455C418.608 157.596 418.346 156.905 418.01 156.383C417.693 155.86 417.301 155.487 416.834 155.263C416.386 155.02 415.901 154.899 415.378 154.899ZM415.378 163.411C414.837 163.411 414.38 163.233 414.006 162.879C413.633 162.524 413.446 162.039 413.446 161.423C413.446 160.807 413.633 160.321 414.006 159.967C414.38 159.612 414.837 159.435 415.378 159.435C415.92 159.435 416.377 159.612 416.75 159.967C417.124 160.321 417.31 160.807 417.31 161.423C417.31 162.039 417.124 162.524 416.75 162.879C416.377 163.233 415.92 163.411 415.378 163.411ZM429.396 168.031C429.396 167.209 429.657 166.537 430.18 166.015C430.702 165.473 431.365 165.203 432.168 165.203C432.97 165.203 433.633 165.473 434.156 166.015C434.678 166.537 434.94 167.209 434.94 168.031C434.94 168.852 434.678 169.533 434.156 170.075C433.633 170.597 432.97 170.859 432.168 170.859C431.365 170.859 430.702 170.597 430.18 170.075C429.657 169.533 429.396 168.852 429.396 168.031ZM443.469 166.267C444.066 166.808 444.757 167.275 445.541 167.667C446.343 168.04 447.23 168.227 448.201 168.227C449.302 168.227 450.207 167.993 450.917 167.527C451.645 167.041 452.009 166.379 452.009 165.539C452.009 165.072 451.906 164.652 451.701 164.279C451.495 163.905 451.159 163.588 450.693 163.327C450.245 163.065 449.638 162.869 448.873 162.739C448.126 162.589 447.202 162.515 446.101 162.515V160.163C447.053 160.163 447.865 160.097 448.537 159.967C449.209 159.817 449.75 159.621 450.161 159.379C450.59 159.117 450.898 158.809 451.085 158.455C451.29 158.1 451.393 157.717 451.393 157.307C451.393 156.56 451.103 155.981 450.525 155.571C449.965 155.141 449.209 154.927 448.257 154.927C447.473 154.927 446.745 155.085 446.073 155.403C445.419 155.701 444.794 156.103 444.197 156.607L442.517 154.619C443.338 153.947 444.234 153.405 445.205 152.995C446.175 152.584 447.239 152.379 448.397 152.379C449.311 152.379 450.151 152.481 450.917 152.687C451.682 152.892 452.335 153.2 452.877 153.611C453.437 154.003 453.866 154.497 454.165 155.095C454.482 155.673 454.641 156.336 454.641 157.083C454.641 158.091 454.314 158.931 453.661 159.603C453.007 160.275 452.13 160.797 451.029 161.171V161.283C451.607 161.432 452.149 161.637 452.653 161.899C453.175 162.141 453.623 162.449 453.997 162.823C454.389 163.196 454.697 163.625 454.921 164.111C455.145 164.596 455.257 165.128 455.257 165.707C455.257 166.528 455.07 167.256 454.697 167.891C454.342 168.525 453.857 169.067 453.241 169.515C452.625 169.944 451.906 170.28 451.085 170.523C450.263 170.747 449.395 170.859 448.481 170.859C446.95 170.859 445.643 170.616 444.561 170.131C443.478 169.645 442.61 169.048 441.957 168.339L443.469 166.267Z" fill="#0C570A"/>
</g>
</g>
<g id="Group_3">
<rect id="Rectangle_6" x="756" y="344" width="144.667" height="58" stroke="black"/>
<path id="False" d="M803.597 378.297H792.856V389.6H789.481V364.006H805.337V366.784H792.856V375.538H803.597V378.297ZM820.015 389.6C819.827 389.225 819.675 388.557 819.558 387.596C818.046 389.166 816.241 389.952 814.144 389.952C812.269 389.952 810.728 389.424 809.521 388.37C808.325 387.303 807.728 385.956 807.728 384.327C807.728 382.346 808.478 380.811 809.978 379.721C811.489 378.62 813.61 378.069 816.341 378.069H819.505V376.575C819.505 375.438 819.165 374.536 818.485 373.868C817.806 373.188 816.804 372.848 815.48 372.848C814.319 372.848 813.347 373.141 812.562 373.727C811.776 374.313 811.384 375.022 811.384 375.854H808.114C808.114 374.905 808.448 373.991 809.116 373.112C809.796 372.221 810.71 371.518 811.858 371.002C813.019 370.487 814.29 370.229 815.673 370.229C817.864 370.229 819.581 370.78 820.823 371.881C822.065 372.971 822.71 374.477 822.757 376.399V385.153C822.757 386.899 822.98 388.288 823.425 389.319V389.6H820.015ZM814.618 387.122C815.638 387.122 816.605 386.858 817.519 386.331C818.433 385.803 819.095 385.118 819.505 384.274V380.372H816.956C812.972 380.372 810.98 381.538 810.98 383.87C810.98 384.889 811.319 385.686 811.999 386.26C812.679 386.834 813.552 387.122 814.618 387.122ZM831.388 389.6H828.136V362.6H831.388V389.6ZM847.683 384.555C847.683 383.676 847.349 382.997 846.681 382.516C846.024 382.024 844.87 381.602 843.218 381.25C841.577 380.899 840.271 380.477 839.298 379.985C838.337 379.493 837.622 378.907 837.153 378.227C836.696 377.547 836.468 376.739 836.468 375.801C836.468 374.243 837.124 372.924 838.437 371.846C839.761 370.768 841.448 370.229 843.499 370.229C845.655 370.229 847.401 370.786 848.737 371.899C850.085 373.012 850.759 374.436 850.759 376.17H847.489C847.489 375.28 847.108 374.512 846.347 373.868C845.597 373.223 844.648 372.901 843.499 372.901C842.315 372.901 841.39 373.159 840.722 373.674C840.054 374.19 839.72 374.864 839.72 375.696C839.72 376.481 840.03 377.073 840.651 377.471C841.273 377.87 842.392 378.25 844.009 378.614C845.638 378.977 846.956 379.411 847.964 379.914C848.972 380.418 849.716 381.028 850.196 381.743C850.689 382.446 850.935 383.307 850.935 384.327C850.935 386.026 850.255 387.391 848.896 388.422C847.536 389.442 845.773 389.952 843.605 389.952C842.081 389.952 840.733 389.682 839.562 389.143C838.39 388.604 837.47 387.854 836.802 386.893C836.146 385.92 835.817 384.872 835.817 383.747H839.069C839.128 384.836 839.562 385.704 840.37 386.348C841.19 386.981 842.269 387.297 843.605 387.297C844.835 387.297 845.819 387.051 846.558 386.559C847.308 386.055 847.683 385.387 847.683 384.555ZM863.064 389.952C860.485 389.952 858.388 389.108 856.771 387.42C855.153 385.721 854.345 383.454 854.345 380.618V380.02C854.345 378.133 854.702 376.452 855.417 374.975C856.144 373.487 857.151 372.327 858.44 371.495C859.741 370.651 861.148 370.229 862.659 370.229C865.132 370.229 867.054 371.043 868.425 372.672C869.796 374.301 870.481 376.633 870.481 379.668V381.022H857.597C857.644 382.897 858.189 384.414 859.231 385.575C860.286 386.723 861.622 387.297 863.239 387.297C864.388 387.297 865.36 387.063 866.157 386.594C866.954 386.125 867.651 385.504 868.249 384.731L870.235 386.278C868.642 388.727 866.251 389.952 863.064 389.952ZM862.659 372.901C861.347 372.901 860.245 373.381 859.355 374.342C858.464 375.291 857.913 376.627 857.702 378.35H867.23V378.104C867.136 376.452 866.69 375.174 865.894 374.272C865.097 373.358 864.019 372.901 862.659 372.901Z" fill="#EB5757"/>
<rect id="Rectangle_7" x="756" y="402" width="144.667" height="58" stroke="black"/>
<path id="True" d="M814.161 424.784H805.935V447.6H802.577V424.784H794.368V422.006H814.161V424.784ZM825.306 431.498C824.814 431.416 824.28 431.375 823.706 431.375C821.573 431.375 820.126 432.284 819.364 434.1V447.6H816.112V428.581H819.276L819.329 430.778C820.396 429.079 821.907 428.229 823.864 428.229C824.497 428.229 824.978 428.311 825.306 428.475V431.498ZM840.054 445.719C838.788 447.207 836.931 447.952 834.481 447.952C832.454 447.952 830.907 447.366 829.841 446.194C828.786 445.01 828.253 443.264 828.241 440.956V428.581H831.493V440.868C831.493 443.75 832.665 445.192 835.009 445.192C837.493 445.192 839.146 444.266 839.966 442.414V428.581H843.218V447.6H840.124L840.054 445.719ZM856.067 447.952C853.489 447.952 851.392 447.108 849.774 445.42C848.157 443.721 847.349 441.454 847.349 438.618V438.02C847.349 436.133 847.706 434.452 848.421 432.975C849.148 431.487 850.155 430.327 851.444 429.495C852.745 428.651 854.151 428.229 855.663 428.229C858.136 428.229 860.058 429.043 861.429 430.672C862.8 432.301 863.485 434.633 863.485 437.668V439.022H850.601C850.648 440.897 851.192 442.414 852.235 443.575C853.29 444.723 854.626 445.297 856.243 445.297C857.392 445.297 858.364 445.063 859.161 444.594C859.958 444.125 860.655 443.504 861.253 442.731L863.239 444.278C861.646 446.727 859.255 447.952 856.067 447.952ZM855.663 430.901C854.351 430.901 853.249 431.381 852.358 432.342C851.468 433.291 850.917 434.627 850.706 436.35H860.233V436.104C860.14 434.452 859.694 433.174 858.898 432.272C858.101 431.358 857.023 430.901 855.663 430.901Z" fill="#27AE60"/>
<rect id="Rectangle_8" x="756" y="460" width="144.667" height="58" stroke="black"/>
<path id="False_2" d="M803.597 494.297H792.856V505.6H789.481V480.006H805.337V482.784H792.856V491.538H803.597V494.297ZM820.015 505.6C819.827 505.225 819.675 504.557 819.558 503.596C818.046 505.166 816.241 505.952 814.144 505.952C812.269 505.952 810.728 505.424 809.521 504.37C808.325 503.303 807.728 501.956 807.728 500.327C807.728 498.346 808.478 496.811 809.978 495.721C811.489 494.62 813.61 494.069 816.341 494.069H819.505V492.575C819.505 491.438 819.165 490.536 818.485 489.868C817.806 489.188 816.804 488.848 815.48 488.848C814.319 488.848 813.347 489.141 812.562 489.727C811.776 490.313 811.384 491.022 811.384 491.854H808.114C808.114 490.905 808.448 489.991 809.116 489.112C809.796 488.221 810.71 487.518 811.858 487.002C813.019 486.487 814.29 486.229 815.673 486.229C817.864 486.229 819.581 486.78 820.823 487.881C822.065 488.971 822.71 490.477 822.757 492.399V501.153C822.757 502.899 822.98 504.288 823.425 505.319V505.6H820.015ZM814.618 503.122C815.638 503.122 816.605 502.858 817.519 502.331C818.433 501.803 819.095 501.118 819.505 500.274V496.372H816.956C812.972 496.372 810.98 497.538 810.98 499.87C810.98 500.889 811.319 501.686 811.999 502.26C812.679 502.834 813.552 503.122 814.618 503.122ZM831.388 505.6H828.136V478.6H831.388V505.6ZM847.683 500.555C847.683 499.676 847.349 498.997 846.681 498.516C846.024 498.024 844.87 497.602 843.218 497.25C841.577 496.899 840.271 496.477 839.298 495.985C838.337 495.493 837.622 494.907 837.153 494.227C836.696 493.547 836.468 492.739 836.468 491.801C836.468 490.243 837.124 488.924 838.437 487.846C839.761 486.768 841.448 486.229 843.499 486.229C845.655 486.229 847.401 486.786 848.737 487.899C850.085 489.012 850.759 490.436 850.759 492.17H847.489C847.489 491.28 847.108 490.512 846.347 489.868C845.597 489.223 844.648 488.901 843.499 488.901C842.315 488.901 841.39 489.159 840.722 489.674C840.054 490.19 839.72 490.864 839.72 491.696C839.72 492.481 840.03 493.073 840.651 493.471C841.273 493.87 842.392 494.25 844.009 494.614C845.638 494.977 846.956 495.411 847.964 495.914C848.972 496.418 849.716 497.028 850.196 497.743C850.689 498.446 850.935 499.307 850.935 500.327C850.935 502.026 850.255 503.391 848.896 504.422C847.536 505.442 845.773 505.952 843.605 505.952C842.081 505.952 840.733 505.682 839.562 505.143C838.39 504.604 837.47 503.854 836.802 502.893C836.146 501.92 835.817 500.872 835.817 499.747H839.069C839.128 500.836 839.562 501.704 840.37 502.348C841.19 502.981 842.269 503.297 843.605 503.297C844.835 503.297 845.819 503.051 846.558 502.559C847.308 502.055 847.683 501.387 847.683 500.555ZM863.064 505.952C860.485 505.952 858.388 505.108 856.771 503.42C855.153 501.721 854.345 499.454 854.345 496.618V496.02C854.345 494.133 854.702 492.452 855.417 490.975C856.144 489.487 857.151 488.327 858.44 487.495C859.741 486.651 861.148 486.229 862.659 486.229C865.132 486.229 867.054 487.043 868.425 488.672C869.796 490.301 870.481 492.633 870.481 495.668V497.022H857.597C857.644 498.897 858.189 500.414 859.231 501.575C860.286 502.723 861.622 503.297 863.239 503.297C864.388 503.297 865.36 503.063 866.157 502.594C866.954 502.125 867.651 501.504 868.249 500.731L870.235 502.278C868.642 504.727 866.251 505.952 863.064 505.952ZM862.659 488.901C861.347 488.901 860.245 489.381 859.355 490.342C858.464 491.291 857.913 492.627 857.702 494.35H867.23V494.104C867.136 492.452 866.69 491.174 865.894 490.272C865.097 489.358 864.019 488.901 862.659 488.901Z" fill="#EB5757"/>
<rect id="Rectangle_9" x="756" y="518" width="144.667" height="58" stroke="black"/>
<path id="True_2" d="M814.161 540.784H805.935V563.6H802.577V540.784H794.368V538.006H814.161V540.784ZM825.306 547.498C824.814 547.416 824.28 547.375 823.706 547.375C821.573 547.375 820.126 548.284 819.364 550.1V563.6H816.112V544.581H819.276L819.329 546.778C820.396 545.079 821.907 544.229 823.864 544.229C824.497 544.229 824.978 544.311 825.306 544.475V547.498ZM840.054 561.719C838.788 563.207 836.931 563.952 834.481 563.952C832.454 563.952 830.907 563.366 829.841 562.194C828.786 561.01 828.253 559.264 828.241 556.956V544.581H831.493V556.868C831.493 559.75 832.665 561.192 835.009 561.192C837.493 561.192 839.146 560.266 839.966 558.414V544.581H843.218V563.6H840.124L840.054 561.719ZM856.067 563.952C853.489 563.952 851.392 563.108 849.774 561.42C848.157 559.721 847.349 557.454 847.349 554.618V554.02C847.349 552.133 847.706 550.452 848.421 548.975C849.148 547.487 850.155 546.327 851.444 545.495C852.745 544.651 854.151 544.229 855.663 544.229C858.136 544.229 860.058 545.043 861.429 546.672C862.8 548.301 863.485 550.633 863.485 553.668V555.022H850.601C850.648 556.897 851.192 558.414 852.235 559.575C853.29 560.723 854.626 561.297 856.243 561.297C857.392 561.297 858.364 561.063 859.161 560.594C859.958 560.125 860.655 559.504 861.253 558.731L863.239 560.278C861.646 562.727 859.255 563.952 856.067 563.952ZM855.663 546.901C854.351 546.901 853.249 547.381 852.358 548.342C851.468 549.291 850.917 550.627 850.706 552.35H860.233V552.104C860.14 550.452 859.694 549.174 858.898 548.272C858.101 547.358 857.023 546.901 855.663 546.901Z" fill="#27AE60"/>
</g>
<path id="c_bool" d="M788.509 617.056C788.509 615.899 788.723 614.872 789.153 613.976C789.601 613.061 790.189 612.296 790.917 611.68C791.663 611.064 792.522 610.597 793.493 610.28C794.463 609.944 795.481 609.776 796.545 609.776C797.646 609.776 798.635 609.953 799.513 610.308C800.409 610.663 801.155 611.111 801.753 611.652L799.849 614.2C798.822 613.472 797.795 613.108 796.769 613.108C795.574 613.108 794.603 613.463 793.857 614.172C793.11 614.881 792.737 615.843 792.737 617.056C792.737 618.269 793.091 619.231 793.801 619.94C794.529 620.649 795.471 621.004 796.629 621.004C797.357 621.004 798.029 620.873 798.645 620.612C799.261 620.351 799.811 620.043 800.297 619.688L801.977 622.292C801.137 623.001 800.203 623.524 799.177 623.86C798.169 624.177 797.189 624.336 796.237 624.336C795.135 624.336 794.118 624.177 793.185 623.86C792.251 623.524 791.43 623.048 790.721 622.432C790.03 621.816 789.489 621.06 789.097 620.164C788.705 619.249 788.509 618.213 788.509 617.056ZM818.542 625.512V628.592H805.102V625.512H818.542ZM822.227 604.372H826.343V609.188L826.231 611.372C826.772 610.868 827.379 610.476 828.051 610.196C828.742 609.916 829.423 609.776 830.095 609.776C830.954 609.776 831.728 609.944 832.419 610.28C833.128 610.616 833.716 611.092 834.183 611.708C834.668 612.305 835.042 613.043 835.303 613.92C835.564 614.779 835.695 615.74 835.695 616.804C835.695 617.999 835.527 619.063 835.191 619.996C834.855 620.929 834.407 621.723 833.847 622.376C833.287 623.011 832.643 623.496 831.915 623.832C831.206 624.168 830.459 624.336 829.675 624.336C829.022 624.336 828.368 624.177 827.715 623.86C827.08 623.543 826.474 623.085 825.895 622.488H825.783L825.447 624H822.227V604.372ZM826.343 620.052C826.735 620.388 827.136 620.631 827.547 620.78C827.976 620.911 828.378 620.976 828.751 620.976C829.516 620.976 830.16 620.659 830.683 620.024C831.206 619.371 831.467 618.325 831.467 616.888C831.467 614.387 830.618 613.136 828.919 613.136C828.042 613.136 827.183 613.565 826.343 614.424V620.052ZM838.316 617.056C838.316 615.899 838.512 614.872 838.904 613.976C839.296 613.061 839.819 612.296 840.472 611.68C841.144 611.064 841.9 610.597 842.74 610.28C843.599 609.944 844.485 609.776 845.4 609.776C846.315 609.776 847.192 609.944 848.032 610.28C848.891 610.597 849.647 611.064 850.3 611.68C850.972 612.296 851.504 613.061 851.896 613.976C852.288 614.872 852.484 615.899 852.484 617.056C852.484 618.213 852.288 619.249 851.896 620.164C851.504 621.06 850.972 621.816 850.3 622.432C849.647 623.048 848.891 623.524 848.032 623.86C847.192 624.177 846.315 624.336 845.4 624.336C844.485 624.336 843.599 624.177 842.74 623.86C841.9 623.524 841.144 623.048 840.472 622.432C839.819 621.816 839.296 621.06 838.904 620.164C838.512 619.249 838.316 618.213 838.316 617.056ZM842.544 617.056C842.544 618.269 842.777 619.231 843.244 619.94C843.729 620.649 844.448 621.004 845.4 621.004C846.352 621.004 847.061 620.649 847.528 619.94C848.013 619.231 848.256 618.269 848.256 617.056C848.256 615.843 848.013 614.881 847.528 614.172C847.061 613.463 846.352 613.108 845.4 613.108C844.448 613.108 843.729 613.463 843.244 614.172C842.777 614.881 842.544 615.843 842.544 617.056ZM855.105 617.056C855.105 615.899 855.301 614.872 855.693 613.976C856.085 613.061 856.608 612.296 857.261 611.68C857.933 611.064 858.689 610.597 859.529 610.28C860.388 609.944 861.274 609.776 862.189 609.776C863.104 609.776 863.981 609.944 864.821 610.28C865.68 610.597 866.436 611.064 867.089 611.68C867.761 612.296 868.293 613.061 868.685 613.976C869.077 614.872 869.273 615.899 869.273 617.056C869.273 618.213 869.077 619.249 868.685 620.164C868.293 621.06 867.761 621.816 867.089 622.432C866.436 623.048 865.68 623.524 864.821 623.86C863.981 624.177 863.104 624.336 862.189 624.336C861.274 624.336 860.388 624.177 859.529 623.86C858.689 623.524 857.933 623.048 857.261 622.432C856.608 621.816 856.085 621.06 855.693 620.164C855.301 619.249 855.105 618.213 855.105 617.056ZM859.333 617.056C859.333 618.269 859.566 619.231 860.033 619.94C860.518 620.649 861.237 621.004 862.189 621.004C863.141 621.004 863.85 620.649 864.317 619.94C864.802 619.231 865.045 618.269 865.045 617.056C865.045 615.843 864.802 614.881 864.317 614.172C863.85 613.463 863.141 613.108 862.189 613.108C861.237 613.108 860.518 613.463 860.033 614.172C859.566 614.881 859.333 615.843 859.333 617.056ZM872.314 604.372H880.462V618.736C880.462 619.165 880.518 619.529 880.63 619.828C880.761 620.108 880.929 620.341 881.134 620.528C881.358 620.696 881.601 620.817 881.862 620.892C882.142 620.967 882.422 621.004 882.702 621.004C883.019 621.004 883.355 620.976 883.71 620.92C884.065 620.845 884.457 620.724 884.886 620.556L885.81 623.58C885.437 623.692 885.091 623.795 884.774 623.888C884.457 623.981 884.139 624.056 883.822 624.112C883.505 624.187 883.169 624.243 882.814 624.28C882.459 624.317 882.067 624.336 881.638 624.336C879.883 624.336 878.558 623.823 877.662 622.796C876.785 621.751 876.346 620.341 876.346 618.568V607.62H872.314V604.372Z" fill="#4F4F4F"/>
<g id="Group_4">
<path id="Rectangle_10" d="M14 416H510V500H14V416Z" fill="#F1F4F8"/>
<g id="c_bool = c &#62; 100">
<path d="M39.6631 439.686C39.6631 438.547 39.8684 437.53 40.2791 436.634C40.7084 435.738 41.2777 434.982 41.9871 434.366C42.6964 433.75 43.5271 433.283 44.4791 432.966C45.4311 432.63 46.4297 432.462 47.4751 432.462C48.5951 432.462 49.5751 432.648 50.4151 433.022C51.2737 433.395 51.9924 433.852 52.5711 434.394L51.0311 436.41C50.4897 435.98 49.9391 435.654 49.3791 435.43C48.8377 435.206 48.2591 435.094 47.6431 435.094C46.2617 435.094 45.1417 435.514 44.2831 436.354C43.4244 437.175 42.9951 438.286 42.9951 439.686C42.9951 440.376 43.1071 441.002 43.3311 441.562C43.5551 442.122 43.8631 442.607 44.2551 443.018C44.6657 443.41 45.1511 443.718 45.7111 443.942C46.2711 444.147 46.8871 444.25 47.5591 444.25C48.3431 444.25 49.0524 444.1 49.6871 443.802C50.3404 443.503 50.9377 443.148 51.4791 442.738L52.8231 444.81C52.0391 445.5 51.1617 446.023 50.1911 446.378C49.2204 446.714 48.2404 446.882 47.2511 446.882C46.1684 446.882 45.1604 446.723 44.2271 446.406C43.3124 446.088 42.5097 445.622 41.8191 445.006C41.1471 444.39 40.6151 443.634 40.2231 442.738C39.8497 441.842 39.6631 440.824 39.6631 439.686ZM69.5281 448.282V450.802H56.0881V448.282H69.5281ZM73.4932 426.778H76.7412V431.874L76.6292 434.282C77.2265 433.722 77.8985 433.283 78.6452 432.966C79.3919 432.63 80.1385 432.462 80.8852 432.462C81.7812 432.462 82.5745 432.63 83.2652 432.966C83.9559 433.283 84.5439 433.75 85.0292 434.366C85.5145 434.963 85.8785 435.691 86.1212 436.55C86.3825 437.408 86.5132 438.37 86.5132 439.434C86.5132 440.61 86.3452 441.664 86.0092 442.598C85.6732 443.512 85.2159 444.287 84.6372 444.922C84.0772 445.556 83.4239 446.042 82.6772 446.378C81.9492 446.714 81.1932 446.882 80.4092 446.882C79.7559 446.882 79.0745 446.723 78.3652 446.406C77.6559 446.088 77.0025 445.631 76.4052 445.034H76.3212L76.0412 446.546H73.4932V426.778ZM76.7412 442.962C77.2452 443.428 77.7679 443.755 78.3092 443.942C78.8505 444.128 79.3359 444.222 79.7652 444.222C80.7359 444.222 81.5479 443.83 82.2012 443.046C82.8545 442.243 83.1812 441.058 83.1812 439.49C83.1812 438.108 82.9292 437.035 82.4252 436.27C81.9212 435.504 81.1092 435.122 79.9892 435.122C79.4665 435.122 78.9345 435.252 78.3932 435.514C77.8519 435.775 77.3012 436.195 76.7412 436.774V442.962ZM89.4703 439.686C89.4703 438.547 89.6569 437.53 90.0303 436.634C90.4223 435.738 90.9356 434.982 91.5703 434.366C92.2049 433.75 92.9423 433.283 93.7823 432.966C94.6223 432.63 95.4903 432.462 96.3863 432.462C97.2823 432.462 98.1503 432.63 98.9903 432.966C99.8303 433.283 100.568 433.75 101.202 434.366C101.837 434.982 102.341 435.738 102.714 436.634C103.106 437.53 103.302 438.547 103.302 439.686C103.302 440.824 103.106 441.842 102.714 442.738C102.341 443.634 101.837 444.39 101.202 445.006C100.568 445.622 99.8303 446.088 98.9903 446.406C98.1503 446.723 97.2823 446.882 96.3863 446.882C95.4903 446.882 94.6223 446.723 93.7823 446.406C92.9423 446.088 92.2049 445.622 91.5703 445.006C90.9356 444.39 90.4223 443.634 90.0303 442.738C89.6569 441.842 89.4703 440.824 89.4703 439.686ZM92.8023 439.686C92.8023 441.067 93.1196 442.178 93.7543 443.018C94.3889 443.839 95.2663 444.25 96.3863 444.25C97.5063 444.25 98.3836 443.839 99.0183 443.018C99.6529 442.178 99.9703 441.067 99.9703 439.686C99.9703 438.286 99.6529 437.175 99.0183 436.354C98.3836 435.514 97.5063 435.094 96.3863 435.094C95.2663 435.094 94.3889 435.514 93.7543 436.354C93.1196 437.175 92.8023 438.286 92.8023 439.686ZM106.259 439.686C106.259 438.547 106.446 437.53 106.819 436.634C107.211 435.738 107.725 434.982 108.359 434.366C108.994 433.75 109.731 433.283 110.571 432.966C111.411 432.63 112.279 432.462 113.175 432.462C114.071 432.462 114.939 432.63 115.779 432.966C116.619 433.283 117.357 433.75 117.991 434.366C118.626 434.982 119.13 435.738 119.503 436.634C119.895 437.53 120.091 438.547 120.091 439.686C120.091 440.824 119.895 441.842 119.503 442.738C119.13 443.634 118.626 444.39 117.991 445.006C117.357 445.622 116.619 446.088 115.779 446.406C114.939 446.723 114.071 446.882 113.175 446.882C112.279 446.882 111.411 446.723 110.571 446.406C109.731 446.088 108.994 445.622 108.359 445.006C107.725 444.39 107.211 443.634 106.819 442.738C106.446 441.842 106.259 440.824 106.259 439.686ZM109.591 439.686C109.591 441.067 109.909 442.178 110.543 443.018C111.178 443.839 112.055 444.25 113.175 444.25C114.295 444.25 115.173 443.839 115.807 443.018C116.442 442.178 116.759 441.067 116.759 439.686C116.759 438.286 116.442 437.175 115.807 436.354C115.173 435.514 114.295 435.094 113.175 435.094C112.055 435.094 111.178 435.514 110.543 436.354C109.909 437.175 109.591 438.286 109.591 439.686ZM123.552 426.778H131.112V441.702C131.112 442.635 131.346 443.298 131.812 443.69C132.279 444.063 132.867 444.25 133.576 444.25C134.248 444.25 135.032 444.072 135.928 443.718L136.684 446.098C136.031 446.322 135.415 446.508 134.836 446.658C134.276 446.807 133.595 446.882 132.792 446.882C131.168 446.882 129.946 446.415 129.124 445.482C128.303 444.548 127.892 443.232 127.892 441.534V429.326H123.552V426.778ZM157.327 432.994H169.759V435.346H157.327V432.994ZM157.327 439.238H169.759V441.59H157.327V439.238ZM190.765 439.686C190.765 438.547 190.97 437.53 191.381 436.634C191.81 435.738 192.379 434.982 193.089 434.366C193.798 433.75 194.629 433.283 195.581 432.966C196.533 432.63 197.531 432.462 198.577 432.462C199.697 432.462 200.677 432.648 201.517 433.022C202.375 433.395 203.094 433.852 203.673 434.394L202.133 436.41C201.591 435.98 201.041 435.654 200.481 435.43C199.939 435.206 199.361 435.094 198.745 435.094C197.363 435.094 196.243 435.514 195.385 436.354C194.526 437.175 194.097 438.286 194.097 439.686C194.097 440.376 194.209 441.002 194.433 441.562C194.657 442.122 194.965 442.607 195.357 443.018C195.767 443.41 196.253 443.718 196.813 443.942C197.373 444.147 197.989 444.25 198.661 444.25C199.445 444.25 200.154 444.1 200.789 443.802C201.442 443.503 202.039 443.148 202.581 442.738L203.925 444.81C203.141 445.5 202.263 446.023 201.293 446.378C200.322 446.714 199.342 446.882 198.353 446.882C197.27 446.882 196.262 446.723 195.329 446.406C194.414 446.088 193.611 445.622 192.921 445.006C192.249 444.39 191.717 443.634 191.325 442.738C190.951 441.842 190.765 440.824 190.765 439.686Z" fill="#2E383C"/>
<path d="M235.795 438.398L225.155 445.454V442.458L233.079 437.306V437.194L225.155 432.042V429.046L235.795 436.102V438.398Z" fill="#A541F8"/>
<path d="M270.801 443.914V446.546H258.397V443.914H263.213V432.21H259.489V430.194C260.497 430.026 261.356 429.83 262.065 429.606C262.793 429.363 263.465 429.074 264.081 428.738H266.433V443.914H270.801ZM281.066 446.882C279.031 446.882 277.417 446.079 276.222 444.474C275.046 442.868 274.458 440.563 274.458 437.558C274.458 434.534 275.046 432.256 276.222 430.726C277.417 429.176 279.031 428.402 281.066 428.402C283.101 428.402 284.706 429.176 285.882 430.726C287.077 432.256 287.674 434.534 287.674 437.558C287.674 440.563 287.077 442.868 285.882 444.474C284.706 446.079 283.101 446.882 281.066 446.882ZM281.066 430.922C280.525 430.922 280.03 431.043 279.582 431.286C279.134 431.51 278.742 431.883 278.406 432.406C278.089 432.928 277.837 433.619 277.65 434.478C277.463 435.318 277.37 436.344 277.37 437.558C277.37 438.771 277.463 439.816 277.65 440.694C277.837 441.552 278.089 442.252 278.406 442.794C278.742 443.335 279.134 443.736 279.582 443.998C280.03 444.24 280.525 444.362 281.066 444.362C281.589 444.362 282.074 444.24 282.522 443.998C282.989 443.736 283.381 443.335 283.698 442.794C284.034 442.252 284.295 441.552 284.482 440.694C284.669 439.816 284.762 438.771 284.762 437.558C284.762 436.344 284.669 435.318 284.482 434.478C284.295 433.619 284.034 432.928 283.698 432.406C283.381 431.883 282.989 431.51 282.522 431.286C282.074 431.043 281.589 430.922 281.066 430.922ZM281.066 439.434C280.525 439.434 280.067 439.256 279.694 438.902C279.321 438.547 279.134 438.062 279.134 437.446C279.134 436.83 279.321 436.344 279.694 435.99C280.067 435.635 280.525 435.458 281.066 435.458C281.607 435.458 282.065 435.635 282.438 435.99C282.811 436.344 282.998 436.83 282.998 437.446C282.998 438.062 282.811 438.547 282.438 438.902C282.065 439.256 281.607 439.434 281.066 439.434ZM297.855 446.882C295.82 446.882 294.206 446.079 293.011 444.474C291.835 442.868 291.247 440.563 291.247 437.558C291.247 434.534 291.835 432.256 293.011 430.726C294.206 429.176 295.82 428.402 297.855 428.402C299.89 428.402 301.495 429.176 302.671 430.726C303.866 432.256 304.463 434.534 304.463 437.558C304.463 440.563 303.866 442.868 302.671 444.474C301.495 446.079 299.89 446.882 297.855 446.882ZM297.855 430.922C297.314 430.922 296.819 431.043 296.371 431.286C295.923 431.51 295.531 431.883 295.195 432.406C294.878 432.928 294.626 433.619 294.439 434.478C294.252 435.318 294.159 436.344 294.159 437.558C294.159 438.771 294.252 439.816 294.439 440.694C294.626 441.552 294.878 442.252 295.195 442.794C295.531 443.335 295.923 443.736 296.371 443.998C296.819 444.24 297.314 444.362 297.855 444.362C298.378 444.362 298.863 444.24 299.311 443.998C299.778 443.736 300.17 443.335 300.487 442.794C300.823 442.252 301.084 441.552 301.271 440.694C301.458 439.816 301.551 438.771 301.551 437.558C301.551 436.344 301.458 435.318 301.271 434.478C301.084 433.619 300.823 432.928 300.487 432.406C300.17 431.883 299.778 431.51 299.311 431.286C298.863 431.043 298.378 430.922 297.855 430.922ZM297.855 439.434C297.314 439.434 296.856 439.256 296.483 438.902C296.11 438.547 295.923 438.062 295.923 437.446C295.923 436.83 296.11 436.344 296.483 435.99C296.856 435.635 297.314 435.458 297.855 435.458C298.396 435.458 298.854 435.635 299.227 435.99C299.6 436.344 299.787 436.83 299.787 437.446C299.787 438.062 299.6 438.547 299.227 438.902C298.854 439.256 298.396 439.434 297.855 439.434Z" fill="#0C570A"/>
</g>
</g>
</g>
</svg>
