<svg width="1120" height="502" viewBox="0 0 1120 502" fill="none" xmlns="http://www.w3.org/2000/svg">
<path d="M0 0H560V251H0V0Z" transform="scale(2)" fill="white"/>
<path d="M0.5 0.5V0H0V0.5H0.5ZM31.5 0.5H32V0H31.5V0.5ZM31.5 29.5V30H32V29.5H31.5ZM0.5 29.5H0V30H0.5V29.5ZM0.5 1H31.5V0H0.5V1ZM31 0.5V29.5H32V0.5H31ZM31.5 29H0.5V30H31.5V29ZM1 29.5V0.5H0V29.5H1Z" transform="translate(525 259) scale(2)" fill="black"/>
<path d="M7.0577 7.14548H1.6875V12.7969H0V0H7.9278V1.38868H1.6875V5.76563H7.0577V7.14548Z" transform="translate(550.375 280.006) scale(2)" fill="#EB5757"/>
<path d="M9.8965 1.38868H5.7832V12.7969H4.1045V1.38868H0V0H9.8965V1.38868Z" transform="translate(547.778 334.406) scale(2)" fill="#27AE60"/>
<path d="M0.5 0.5V0H0V0.5H0.5ZM31.5 0.5H32V0H31.5V0.5ZM31.5 29.5V30H32V29.5H31.5ZM0.5 29.5H0V30H0.5V29.5ZM0.5 1H31.5V0H0.5V1ZM31 0.5V29.5H32V0.5H31ZM31.5 29H0.5V30H31.5V29ZM1 29.5V0.5H0V29.5H1Z" transform="translate(525 317) scale(2)" fill="black"/>
<path d="M9.8965 1.38868H5.7832V12.7969H4.1045V1.38868H0V0H9.8965V1.38868Z" transform="translate(546.064 394.406) scale(2)" fill="#27AE60"/>
<path d="M0.5 0.5V0H0V0.5H0.5ZM31.5 0.5H32V0H31.5V0.5ZM31.5 29.5V30H32V29.5H31.5ZM0.5 29.5H0V30H0.5V29.5ZM0.5 1H31.5V0H0.5V1ZM31 0.5V29.5H32V0.5H31ZM31.5 29H0.5V30H31.5V29ZM1 29.5V0.5H0V29.5H1Z" transform="translate(525 375) scale(2)" fill="black"/>
<path d="M0 0H31V29H0V0Z" transform="translate(464 260) scale(2)" fill="#BDBDBD"/>
<path d="M0.5 0.5V0H0V0.5H0.5ZM31.5 0.5H32V0H31.5V0.5ZM31.5 29.5V30H32V29.5H31.5ZM0.5 29.5H0V30H0.5V29.5ZM0.5 1H31.5V0H0.5V1ZM31 0.5V29.5H32V0.5H31ZM31.5 29H0.5V30H31.5V29ZM1 29.5V0.5H0V29.5H1Z" transform="translate(463 259) scale(2)" fill="black"/>
<path d="M0 0H31V29H0V0Z" transform="translate(464 318) scale(2)" fill="#BDBDBD"/>
<path d="M0.5 0.5V0H0V0.5H0.5ZM31.5 0.5H32V0H31.5V0.5ZM31.5 29.5V30H32V29.5H31.5ZM0.5 29.5H0V30H0.5V29.5ZM0.5 1H31.5V0H0.5V1ZM31 0.5V29.5H32V0.5H31ZM31.5 29H0.5V30H31.5V29ZM1 29.5V0.5H0V29.5H1Z" transform="translate(463 317) scale(2)" fill="black"/>
<path d="M0 0H31V29H0V0Z" transform="translate(464 376) scale(2)" fill="#BDBDBD"/>
<path d="M0.5 0.5V0H0V0.5H0.5ZM31.5 0.5H32V0H31.5V0.5ZM31.5 29.5V30H32V29.5H31.5ZM0.5 29.5H0V30H0.5V29.5ZM0.5 1H31.5V0H0.5V1ZM31 0.5V29.5H32V0.5H31ZM31.5 29H0.5V30H31.5V29ZM1 29.5V0.5H0V29.5H1Z" transform="translate(463 375) scale(2)" fill="black"/>
<path d="M0 0H31V29H0V0Z" transform="translate(588 260) scale(2)" fill="#BDBDBD"/>
<path d="M0.5 0.5V0H0V0.5H0.5ZM31.5 0.5H32V0H31.5V0.5ZM31.5 29.5V30H32V29.5H31.5ZM0.5 29.5H0V30H0.5V29.5ZM0.5 1H31.5V0H0.5V1ZM31 0.5V29.5H32V0.5H31ZM31.5 29H0.5V30H31.5V29ZM1 29.5V0.5H0V29.5H1Z" transform="translate(587 259) scale(2)" fill="black"/>
<path d="M0 0H31V29H0V0Z" transform="translate(588 318) scale(2)" fill="#BDBDBD"/>
<path d="M0.5 0.5V0H0V0.5H0.5ZM31.5 0.5H32V0H31.5V0.5ZM31.5 29.5V30H32V29.5H31.5ZM0.5 29.5H0V30H0.5V29.5ZM0.5 1H31.5V0H0.5V1ZM31 0.5V29.5H32V0.5H31ZM31.5 29H0.5V30H31.5V29ZM1 29.5V0.5H0V29.5H1Z" transform="translate(587 317) scale(2)" fill="black"/>
<path d="M0 0H31V29H0V0Z" transform="translate(588 376) scale(2)" fill="#BDBDBD"/>
<path d="M0.5 0.5V0H0V0.5H0.5ZM31.5 0.5H32V0H31.5V0.5ZM31.5 29.5V30H32V29.5H31.5ZM0.5 29.5H0V30H0.5V29.5ZM0.5 1H31.5V0H0.5V1ZM31 0.5V29.5H32V0.5H31ZM31.5 29H0.5V30H31.5V29ZM1 29.5V0.5H0V29.5H1Z" transform="translate(587 375) scale(2)" fill="black"/>
<path d="M0 3.64C0 3.06133 0.107399 2.548 0.321999 2.1C0.545999 1.64267 0.839999 1.26 1.204 0.952C1.5774 0.644 2.0067 0.41067 2.492 0.252C2.9774 0.0839999 3.486 0 4.018 0C4.5687 0 5.0634 0.0886698 5.502 0.266C5.95 0.44333 6.3234 0.66733 6.622 0.938L5.67 2.212C5.1567 1.848 4.6434 1.666 4.13 1.666C3.5327 1.666 3.0474 1.84333 2.674 2.198C2.3007 2.55267 2.114 3.03333 2.114 3.64C2.114 4.2467 2.2914 4.7273 2.646 5.082C3.01 5.4367 3.4814 5.614 4.06 5.614C4.424 5.614 4.76 5.5487 5.068 5.418C5.376 5.2873 5.6514 5.1333 5.894 4.956L6.734 6.258C6.314 6.6127 5.8474 6.874 5.334 7.042C4.83 7.2007 4.34 7.28 3.864 7.28C3.3134 7.28 2.8047 7.2007 2.338 7.042C1.8714 6.874 1.4607 6.636 1.106 6.328C0.760699 6.02 0.489999 5.642 0.293999 5.194C0.0979987 4.7367 0 4.2187 0 3.64Z" transform="translate(1012.48 455.776) scale(2)" fill="#4F4F4F"/>
<path d="M22 29V0H0V29H22Z" transform="translate(650 318) scale(2)" fill="#27AE60" fill-opacity="0.4"/>
<path d="M13.2785 8.07107C13.6691 7.68054 13.6691 7.04738 13.2785 6.65685L6.91457 0.29289C6.52405 -0.09763 5.89088 -0.09763 5.50036 0.29289C5.10984 0.68342 5.10984 1.31658 5.50036 1.70711L11.1572 7.36396L5.50036 13.0208C5.10984 13.4113 5.10984 14.0445 5.50036 14.435C5.89088 14.8255 6.52405 14.8255 6.91457 14.435L13.2785 8.07107ZM0 8.36396H12.5714V6.36396H0V8.36396Z" transform="translate(657.858 333.272) scale(2)" fill="white"/>
<path d="M22 29V0H0V29H22Z" transform="translate(650 376) scale(2)" fill="#27AE60" fill-opacity="0.4"/>
<path d="M13.2785 8.07107C13.6691 7.68054 13.6691 7.04738 13.2785 6.65685L6.91457 0.29289C6.52405 -0.09763 5.89088 -0.09763 5.50036 0.29289C5.10984 0.68342 5.10984 1.31658 5.50036 1.70711L11.1572 7.36396L5.50036 13.0208C5.10984 13.4113 5.10984 14.0445 5.50036 14.435C5.89088 14.8255 6.52405 14.8255 6.91457 14.435L13.2785 8.07107ZM0 8.36396H12.5714V6.36396H0V8.36396Z" transform="translate(657.858 391.272) scale(2)" fill="white"/>
<path d="M23 29V0H0V29H23Z" transform="translate(880 318) scale(2)" fill="#27AE60" fill-opacity="0.4"/>
<path d="M13.85 8.07107C14.2405 7.68054 14.2405 7.04738 13.85 6.65685L7.486 0.29289C7.09548 -0.09763 6.46231 -0.09763 6.07179 0.29289C5.68127 0.68342 5.68127 1.31658 6.07179 1.70711L11.7286 7.36396L6.07179 13.0208C5.68127 13.4113 5.68127 14.0445 6.07179 14.435C6.46231 14.8255 7.09548 14.8255 7.486 14.435L13.85 8.07107ZM0 8.36396H13.1429V6.36396H0V8.36396Z" transform="translate(888.214 333.272) scale(2)" fill="white"/>
<path d="M23 29V0H0V29H23Z" transform="translate(880 376) scale(2)" fill="#27AE60" fill-opacity="0.4"/>
<path d="M13.85 8.07107C14.2405 7.68054 14.2405 7.04738 13.85 6.65685L7.486 0.29289C7.09548 -0.09763 6.46231 -0.09763 6.07179 0.29289C5.68127 0.68342 5.68127 1.31658 6.07179 1.70711L11.7286 7.36396L6.07179 13.0208C5.68127 13.4113 5.68127 14.0445 6.07179 14.435C6.46231 14.8255 7.09548 14.8255 7.486 14.435L13.85 8.07107ZM0 8.36396H13.1429V6.36396H0V8.36396Z" transform="translate(888.214 391.272) scale(2)" fill="white"/>
<path d="M0.5 0.5V0H0V0.5H0.5ZM31.5 0.5H32V0H31.5V0.5ZM31.5 29.5V30H32V29.5H31.5ZM0.5 29.5H0V30H0.5V29.5ZM0.5 1H31.5V0H0.5V1ZM31 0.5V29.5H32V0.5H31ZM31.5 29H0.5V30H31.5V29ZM1 29.5V0.5H0V29.5H1Z" transform="translate(693 259) scale(2)" fill="black"/>
<path d="M4.9131 12.8584H3.2783V2.02149L0 3.22559V1.74902L4.6582 0H4.9131V12.8584Z" transform="translate(718.234 279.883) scale(2)" fill="black"/>
<path d="M0.5 0.5V0H0V0.5H0.5ZM31.5 0.5H32V0H31.5V0.5ZM31.5 29.5V30H32V29.5H31.5ZM0.5 29.5H0V30H0.5V29.5ZM0.5 1H31.5V0H0.5V1ZM31 0.5V29.5H32V0.5H31ZM31.5 29H0.5V30H31.5V29ZM1 29.5V0.5H0V29.5H1Z" transform="translate(693 317) scale(2)" fill="black"/>
<path d="M7.4619 8.49898H9.2373V9.82618H7.4619V12.7969H5.8271V9.82618H0V8.86818L5.7305 0H7.4619V8.49898ZM1.8457 8.49898H5.8271V2.22364L5.6338 2.5752L1.8457 8.49898Z" transform="translate(716.177 338.006) scale(2)" fill="black"/>
<path d="M0.5 0.5V0H0V0.5H0.5ZM31.5 0.5H32V0H31.5V0.5ZM31.5 29.5V30H32V29.5H31.5ZM0.5 29.5H0V30H0.5V29.5ZM0.5 1H31.5V0H0.5V1ZM31 0.5V29.5H32V0.5H31ZM31.5 29H0.5V30H31.5V29ZM1 29.5V0.5H0V29.5H1Z" transform="translate(693 375) scale(2)" fill="black"/>
<path d="M8.6485 0.91407L3.3487 12.7969H1.6436L6.9258 1.33594H0V0H8.6485V0.91407Z" transform="translate(716.599 396.006) scale(2)" fill="black"/>
<path d="M0.5 0.5V0H0V0.5H0.5ZM31.5 0.5H32V0H31.5V0.5ZM31.5 29.5V30H32V29.5H31.5ZM0.5 29.5H0V30H0.5V29.5ZM0.5 1H31.5V0H0.5V1ZM31 0.5V29.5H32V0.5H31ZM31.5 29H0.5V30H31.5V29ZM1 29.5V0.5H0V29.5H1Z" transform="translate(755 259) scale(2)" fill="black"/>
<path d="M8.6308 12.9727H0.246099V11.8038L4.6757 6.88186C5.332 6.13766 5.7832 5.53418 6.0293 5.07129C6.2812 4.60254 6.4072 4.11914 6.4072 3.6211C6.4072 2.95313 6.205 2.40528 5.8007 1.97754C5.3964 1.54981 4.8574 1.33594 4.1836 1.33594C3.375 1.33594 2.7451 1.56739 2.2939 2.03028C1.8486 2.48731 1.6259 3.12598 1.6259 3.94629H0C0 2.76856 0.3779 1.81641 1.1338 1.08985C1.8955 0.36329 2.9121 0 4.1836 0C5.373 0 6.3134 0.31348 7.0048 0.94043C7.6963 1.56153 8.042 2.39063 8.042 3.42774C8.042 4.6875 7.2392 6.18746 5.6338 7.92776L2.206 11.6456H8.6308V12.9727Z" transform="translate(778.881 279.655) scale(2)" fill="black"/>
<path d="M0 0H31V29H0V0Z" transform="translate(756 318) scale(2)" fill="#27AE60" fill-opacity="0.4"/>
<path d="M0.5 0.5V0H0V0.5H0.5ZM31.5 0.5H32V0H31.5V0.5ZM31.5 29.5V30H32V29.5H31.5ZM0.5 29.5H0V30H0.5V29.5ZM0.5 1H31.5V0H0.5V1ZM31 0.5V29.5H32V0.5H31ZM31.5 29H0.5V30H31.5V29ZM1 29.5V0.5H0V29.5H1Z" transform="translate(755 317) scale(2)" fill="black"/>
<path d="M0.457 6.38088L1.1074 0H7.6641V1.50293H2.4873L2.1006 4.99219C2.7275 4.62305 3.4394 4.43848 4.2363 4.43848C5.4023 4.43848 6.3281 4.8252 7.0137 5.59864C7.6992 6.36618 8.042 7.40628 8.042 8.71878C8.042 10.0371 7.6846 11.0772 6.9697 11.8389C6.2607 12.5948 5.2676 12.9727 3.9902 12.9727C2.8594 12.9727 1.9365 12.6592 1.2217 12.0323C0.5068 11.4053 0.0996 10.5381 0 9.43068H1.5381C1.6377 10.1631 1.8984 10.7168 2.3203 11.0918C2.7422 11.461 3.2988 11.6455 3.9902 11.6455C4.7461 11.6455 5.3379 11.3877 5.7656 10.8721C6.1992 10.3565 6.416 9.64458 6.416 8.73638C6.416 7.88088 6.1816 7.19528 5.7129 6.67968C5.25 6.15818 4.6318 5.89748 3.8584 5.89748C3.1494 5.89748 2.5928 6.05278 2.1885 6.36328L1.7578 6.71488L0.457 6.38088Z" transform="translate(779.953 338.006) scale(2)" fill="black"/>
<path d="M0 0H31V29H0V0Z" transform="translate(756 376) scale(2)" fill="#27AE60" fill-opacity="0.4"/>
<path d="M0.5 0.5V0H0V0.5H0.5ZM31.5 0.5H32V0H31.5V0.5ZM31.5 29.5V30H32V29.5H31.5ZM0.5 29.5H0V30H0.5V29.5ZM0.5 1H31.5V0H0.5V1ZM31 0.5V29.5H32V0.5H31ZM31.5 29H0.5V30H31.5V29ZM1 29.5V0.5H0V29.5H1Z" transform="translate(755 375) scale(2)" fill="black"/>
<path d="M7.8398 3.51563C7.8398 4.1543 7.6699 4.72266 7.33 5.22071C6.996 5.71875 6.5419 6.10836 5.9677 6.38966C6.6357 6.67676 7.163 7.09566 7.5498 7.64646C7.9423 8.19726 8.1386 8.82126 8.1386 9.51856C8.1386 10.626 7.7636 11.5079 7.0136 12.1641C6.2695 12.8204 5.288 13.1485 4.0693 13.1485C2.8388 13.1485 1.8515 12.8204 1.1074 12.1641C0.3691 11.502 0 10.6202 0 9.51856C0 8.82716 0.1875 8.20316 0.5625 7.64646C0.9433 7.08986 1.4677 6.66796 2.1357 6.38086C1.5673 6.09966 1.1191 5.70996 0.791 5.21192C0.4628 4.71387 0.2988 4.14844 0.2988 3.51563C0.2988 2.4375 0.6445 1.58204 1.3359 0.94922C2.0273 0.31641 2.9384 0 4.0693 0C5.1943 0 6.1025 0.31641 6.7939 0.94922C7.4912 1.58204 7.8398 2.4375 7.8398 3.51563ZM6.5126 9.48336C6.5126 8.76856 6.2841 8.18556 5.8271 7.73436C5.3759 7.28316 4.7841 7.05766 4.0517 7.05766C3.3193 7.05766 2.7304 7.28026 2.2851 7.72556C1.8457 8.17086 1.6259 8.75686 1.6259 9.48336C1.6259 10.21 1.8398 10.7813 2.2675 11.1973C2.7011 11.6133 3.3017 11.8213 4.0693 11.8213C4.831 11.8213 5.4287 11.6133 5.8623 11.1973C6.2959 10.7754 6.5126 10.2041 6.5126 9.48336ZM4.0693 1.33594C3.4306 1.33594 2.9121 1.53516 2.5136 1.9336C2.121 2.32618 1.9248 2.86231 1.9248 3.542C1.9248 4.19239 2.1181 4.71973 2.5048 5.12403C2.8974 5.52246 3.4189 5.72168 4.0693 5.72168C4.7197 5.72168 5.2382 5.52246 5.625 5.12403C6.0175 4.71973 6.2138 4.19239 6.2138 3.542C6.2138 2.89161 6.0117 2.36133 5.6074 1.95118C5.2031 1.54102 4.6904 1.33594 4.0693 1.33594Z" transform="translate(779.215 395.655) scale(2)" fill="black"/>
<path d="M0.5 0.5V0H0V0.5H0.5ZM31.5 0.5H32V0H31.5V0.5ZM31.5 29.5V30H32V29.5H31.5ZM0.5 29.5H0V30H0.5V29.5ZM0.5 1H31.5V0H0.5V1ZM31 0.5V29.5H32V0.5H31ZM31.5 29H0.5V30H31.5V29ZM1 29.5V0.5H0V29.5H1Z" transform="translate(817 259) scale(2)" fill="black"/>
<path d="M2.6015 5.78321H3.8232C4.5908 5.77149 5.1943 5.56934 5.6337 5.17676C6.0732 4.78418 6.2929 4.25391 6.2929 3.58594C6.2929 2.08594 5.5458 1.33594 4.0517 1.33594C3.3486 1.33594 2.7861 1.53809 2.3642 1.94239C1.9482 2.34082 1.7402 2.8711 1.7402 3.53321H0.114201C0.114201 2.51953 0.483301 1.67871 1.2216 1.01075C1.9658 0.33692 2.9091 0 4.0517 0C5.2587 0 6.205 0.31934 6.8906 0.95801C7.5761 1.59668 7.9189 2.48438 7.9189 3.6211C7.9189 4.17774 7.7373 4.7168 7.374 5.23828C7.0166 5.75977 6.5273 6.14946 5.9062 6.40726C6.6093 6.62986 7.1513 6.99906 7.5322 7.51466C7.9189 8.03026 8.1123 8.66016 8.1123 9.40426C8.1123 10.5528 7.7373 11.4639 6.9873 12.1377C6.2373 12.8116 5.2617 13.1485 4.0605 13.1485C2.8593 13.1485 1.8808 12.8233 1.125 12.1729C0.375 11.5225 0 10.6641 0 9.59766H1.6347C1.6347 10.2715 1.8544 10.8106 2.2939 11.2149C2.7333 11.6192 3.3222 11.8213 4.0605 11.8213C4.8457 11.8213 5.4462 11.6163 5.8623 11.2061C6.2783 10.7959 6.4863 10.2071 6.4863 9.43946C6.4863 8.69536 6.2578 8.12406 5.8007 7.72556C5.3437 7.32716 4.6845 7.12206 3.8232 7.11036H2.6015V5.78321Z" transform="translate(840.898 279.655) scale(2)" fill="black"/>
<path d="M0.5 0.5V0H0V0.5H0.5ZM31.5 0.5H32V0H31.5V0.5ZM31.5 29.5V30H32V29.5H31.5ZM0.5 29.5H0V30H0.5V29.5ZM0.5 1H31.5V0H0.5V1ZM31 0.5V29.5H32V0.5H31ZM31.5 29H0.5V30H31.5V29ZM1 29.5V0.5H0V29.5H1Z" transform="translate(817 317) scale(2)" fill="black"/>
<path d="M6.2842 0V1.37988H5.9854C4.7198 1.40332 3.7119 1.77832 2.9619 2.50488C2.2119 3.23144 1.7784 4.2539 1.6612 5.57226C2.335 4.79882 3.2549 4.41211 4.4209 4.41211C5.5342 4.41211 6.4219 4.80468 7.084 5.58984C7.752 6.37496 8.086 7.38866 8.086 8.63086C8.086 9.94926 7.7256 11.0039 7.0049 11.795C6.2901 12.586 5.3291 12.9815 4.1221 12.9815C2.8975 12.9815 1.9043 12.5127 1.1426 11.5752C0.3809 10.6319 0 9.41896 0 7.93656V7.31246C0 4.95703 0.501 3.1582 1.503 1.91601C2.5108 0.66796 4.0078 0.02929 5.9942 0H6.2842ZM4.1485 5.76562C3.5918 5.76562 3.0791 5.93266 2.6104 6.26656C2.1416 6.60056 1.8164 7.01956 1.6348 7.52346V8.12106C1.6348 9.17576 1.8721 10.0254 2.3467 10.67C2.8213 11.3145 3.4131 11.6368 4.1221 11.6368C4.8545 11.6368 5.4287 11.3672 5.8448 10.8282C6.2666 10.2891 6.4776 9.58296 6.4776 8.70996C6.4776 7.83106 6.2637 7.12206 5.836 6.58296C5.4141 6.03806 4.8516 5.76562 4.1485 5.76562Z" transform="translate(841.566 337.989) scale(2)" fill="black"/>
<path d="M0.5 0.5V0H0V0.5H0.5ZM31.5 0.5H32V0H31.5V0.5ZM31.5 29.5V30H32V29.5H31.5ZM0.5 29.5H0V30H0.5V29.5ZM0.5 1H31.5V0H0.5V1ZM31 0.5V29.5H32V0.5H31ZM31.5 29H0.5V30H31.5V29ZM1 29.5V0.5H0V29.5H1Z" transform="translate(817 375) scale(2)" fill="black"/>
<path d="M6.416 7.34766C6.0762 7.75196 5.6689 8.07716 5.1943 8.32326C4.7256 8.56936 4.2099 8.69236 3.6474 8.69236C2.9092 8.69236 2.2646 8.51076 1.7139 8.14746C1.1689 7.78416 0.7471 7.27446 0.4482 6.61816C0.1494 5.95606 0 5.22657 0 4.42969C0 3.57422 0.1611 2.80371 0.4834 2.11817C0.8115 1.43262 1.2744 0.90821 1.8721 0.54493C2.4697 0.18164 3.167 0 3.9639 0C5.2295 0 6.2256 0.47461 6.9521 1.42383C7.6846 2.36719 8.0508 3.65625 8.0508 5.29102V5.76563C8.0508 8.25586 7.5586 10.0752 6.5742 11.2237C5.5898 12.3663 4.1045 12.9522 2.1181 12.9815H1.8017V11.6104H2.1445C3.4863 11.587 4.5176 11.2383 5.2383 10.5645C5.959 9.88476 6.3515 8.81246 6.416 7.34766ZM3.9111 7.34766C4.456 7.34766 4.957 7.18066 5.414 6.84666C5.8769 6.51266 6.2139 6.09966 6.4248 5.60743V4.95704C6.4248 3.89063 6.1933 3.02344 5.7305 2.35547C5.2676 1.6875 4.6816 1.35352 3.9726 1.35352C3.2578 1.35352 2.6836 1.62891 2.25 2.17969C1.8164 2.72461 1.5996 3.44532 1.5996 4.3418C1.5996 5.21485 1.8076 5.93555 2.2236 6.50386C2.6455 7.06646 3.208 7.34766 3.9111 7.34766Z" transform="translate(841.004 395.655) scale(2)" fill="black"/>
<path d="M0.5 0.5V0H0V0.5H0.5ZM31.5 0.5H32V0H31.5V0.5ZM31.5 29.5V30H32V29.5H31.5ZM0.5 29.5H0V30H0.5V29.5ZM0.5 1H31.5V0H0.5V1ZM31 0.5V29.5H32V0.5H31ZM31.5 29H0.5V30H31.5V29ZM1 29.5V0.5H0V29.5H1Z" transform="translate(925 259) scale(2)" fill="black"/>
<path d="M4.9131 12.8584H3.2783V2.02149L0 3.22559V1.74902L4.6582 0H4.9131V12.8584Z" transform="translate(950.234 279.883) scale(2)" fill="black"/>
<path d="M0.5 0.5V0H0V0.5H0.5ZM31.5 0.5H32V0H31.5V0.5ZM31.5 29.5V30H32V29.5H31.5ZM0.5 29.5H0V30H0.5V29.5ZM0.5 1H31.5V0H0.5V1ZM31 0.5V29.5H32V0.5H31ZM31.5 29H0.5V30H31.5V29ZM1 29.5V0.5H0V29.5H1Z" transform="translate(925 317) scale(2)" fill="black"/>
<path d="M7.4619 8.49898H9.2373V9.82618H7.4619V12.7969H5.8271V9.82618H0V8.86818L5.7305 0H7.4619V8.49898ZM1.8457 8.49898H5.8271V2.22364L5.6338 2.5752L1.8457 8.49898Z" transform="translate(948.177 338.006) scale(2)" fill="black"/>
<path d="M0.5 0.5V0H0V0.5H0.5ZM31.5 0.5H32V0H31.5V0.5ZM31.5 29.5V30H32V29.5H31.5ZM0.5 29.5H0V30H0.5V29.5ZM0.5 1H31.5V0H0.5V1ZM31 0.5V29.5H32V0.5H31ZM31.5 29H0.5V30H31.5V29ZM1 29.5V0.5H0V29.5H1Z" transform="translate(925 375) scale(2)" fill="black"/>
<path d="M8.6485 0.91407L3.3487 12.7969H1.6436L6.9258 1.33594H0V0H8.6485V0.91407Z" transform="translate(948.599 396.006) scale(2)" fill="black"/>
<path d="M0.5 0.5V0H0V0.5H0.5ZM31.5 0.5H32V0H31.5V0.5ZM31.5 29.5V30H32V29.5H31.5ZM0.5 29.5H0V30H0.5V29.5ZM0.5 1H31.5V0H0.5V1ZM31 0.5V29.5H32V0.5H31ZM31.5 29H0.5V30H31.5V29ZM1 29.5V0.5H0V29.5H1Z" transform="translate(987 259) scale(2)" fill="black"/>
<path d="M8.6308 12.9727H0.246099V11.8038L4.6757 6.88186C5.332 6.13766 5.7832 5.53418 6.0293 5.07129C6.2812 4.60254 6.4072 4.11914 6.4072 3.6211C6.4072 2.95313 6.205 2.40528 5.8007 1.97754C5.3964 1.54981 4.8574 1.33594 4.1836 1.33594C3.375 1.33594 2.7451 1.56739 2.2939 2.03028C1.8486 2.48731 1.6259 3.12598 1.6259 3.94629H0C0 2.76856 0.3779 1.81641 1.1338 1.08985C1.8955 0.36329 2.9121 0 4.1836 0C5.373 0 6.3134 0.31348 7.0048 0.94043C7.6963 1.56153 8.042 2.39063 8.042 3.42774C8.042 4.6875 7.2392 6.18746 5.6338 7.92776L2.206 11.6456H8.6308V12.9727Z" transform="translate(1010.88 279.655) scale(2)" fill="black"/>
<path d="M0.5 0.5V0H0V0.5H0.5ZM31.5 0.5H32V0H31.5V0.5ZM31.5 29.5V30H32V29.5H31.5ZM0.5 29.5H0V30H0.5V29.5ZM0.5 1H31.5V0H0.5V1ZM31 0.5V29.5H32V0.5H31ZM31.5 29H0.5V30H31.5V29ZM1 29.5V0.5H0V29.5H1Z" transform="translate(987 317) scale(2)" fill="black"/>
<path d="M6.41603 7.34766C6.07613 7.75196 5.66893 8.07716 5.19433 8.32326C4.72563 8.56936 4.20997 8.69236 3.64747 8.69236C2.90918 8.69236 2.26465 8.51076 1.71387 8.14746C1.16895 7.78416 0.74707 7.27446 0.44825 6.61816C0.14942 5.95606 0 5.22657 0 4.42969C0 3.57422 0.16114 2.80371 0.4834 2.11817C0.81153 1.43262 1.27442 0.90821 1.87207 0.54493C2.46973 0.18164 3.167 0 3.96387 0C5.22953 0 6.22563 0.47461 6.95213 1.42383C7.68453 2.36719 8.05083 3.65625 8.05083 5.29102V5.76563C8.05083 8.25586 7.55863 10.0752 6.57423 11.2237C5.58983 12.3663 4.1045 12.9522 2.11817 12.9815H1.80176V11.6104H2.14454C3.48633 11.587 4.51763 11.2383 5.23833 10.5645C5.95903 9.88476 6.35153 8.81246 6.41603 7.34766ZM3.91114 7.34766C4.45603 7.34766 4.95703 7.18066 5.41403 6.84666C5.87693 6.51266 6.21383 6.09966 6.42483 5.60743V4.95704C6.42483 3.89063 6.19333 3.02344 5.73043 2.35547C5.26763 1.6875 4.68163 1.35352 3.97266 1.35352C3.25782 1.35352 2.6836 1.62891 2.25 2.17969C1.81641 2.72461 1.59961 3.44532 1.59961 4.3418C1.59961 5.21485 1.80762 5.93555 2.22364 6.50386C2.64551 7.06646 3.20801 7.34766 3.91114 7.34766ZM16.5234 7.34766C16.1836 7.75196 15.7763 8.07716 15.3017 8.32326C14.833 8.56936 14.3174 8.69236 13.7549 8.69236C13.0166 8.69236 12.372 8.51076 11.8213 8.14746C11.2763 7.78416 10.8545 7.27446 10.5556 6.61816C10.2568 5.95606 10.1074 5.22657 10.1074 4.42969C10.1074 3.57422 10.2685 2.80371 10.5908 2.11817C10.9189 1.43262 11.3818 0.90821 11.9795 0.54493C12.5771 0.18164 13.2744 0 14.0713 0C15.3369 0 16.333 0.47461 17.0595 1.42383C17.792 2.36719 18.1582 3.65625 18.1582 5.29102V5.76563C18.1582 8.25586 17.666 10.0752 16.6816 11.2237C15.6972 12.3663 14.2119 12.9522 12.2256 12.9815H11.9092V11.6104H12.2519C13.5937 11.587 14.625 11.2383 15.3457 10.5645C16.0664 9.88476 16.459 8.81246 16.5234 7.34766ZM14.0185 7.34766C14.5635 7.34766 15.0644 7.18066 15.5215 6.84666C15.9843 6.51266 16.3213 6.09966 16.5322 5.60743V4.95704C16.5322 3.89063 16.3008 3.02344 15.8379 2.35547C15.375 1.6875 14.789 1.35352 14.0801 1.35352C13.3652 1.35352 12.791 1.62891 12.3574 2.17969C11.9238 2.72461 11.707 3.44532 11.707 4.3418C11.707 5.21485 11.915 5.93555 12.331 6.50386C12.7529 7.06646 13.3154 7.34766 14.0185 7.34766Z" transform="translate(1000.9 337.655) scale(2)" fill="#27AE60"/>
<path d="M0.5 0.5V0H0V0.5H0.5ZM31.5 0.5H32V0H31.5V0.5ZM31.5 29.5V30H32V29.5H31.5ZM0.5 29.5H0V30H0.5V29.5ZM0.5 1H31.5V0H0.5V1ZM31 0.5V29.5H32V0.5H31ZM31.5 29H0.5V30H31.5V29ZM1 29.5V0.5H0V29.5H1Z" transform="translate(987 375) scale(2)" fill="black"/>
<path d="M6.41603 7.34766C6.07613 7.75196 5.66893 8.07716 5.19433 8.32326C4.72563 8.56936 4.20997 8.69236 3.64747 8.69236C2.90918 8.69236 2.26465 8.51076 1.71387 8.14746C1.16895 7.78416 0.74707 7.27446 0.44825 6.61816C0.14942 5.95606 0 5.22657 0 4.42969C0 3.57422 0.16114 2.80371 0.4834 2.11817C0.81153 1.43262 1.27442 0.90821 1.87207 0.54493C2.46973 0.18164 3.167 0 3.96387 0C5.22953 0 6.22563 0.47461 6.95213 1.42383C7.68453 2.36719 8.05083 3.65625 8.05083 5.29102V5.76563C8.05083 8.25586 7.55863 10.0752 6.57423 11.2237C5.58983 12.3663 4.1045 12.9522 2.11817 12.9815H1.80176V11.6104H2.14454C3.48633 11.587 4.51763 11.2383 5.23833 10.5645C5.95903 9.88476 6.35153 8.81246 6.41603 7.34766ZM3.91114 7.34766C4.45603 7.34766 4.95703 7.18066 5.41403 6.84666C5.87693 6.51266 6.21383 6.09966 6.42483 5.60743V4.95704C6.42483 3.89063 6.19333 3.02344 5.73043 2.35547C5.26763 1.6875 4.68163 1.35352 3.97266 1.35352C3.25782 1.35352 2.6836 1.62891 2.25 2.17969C1.81641 2.72461 1.59961 3.44532 1.59961 4.3418C1.59961 5.21485 1.80762 5.93555 2.22364 6.50386C2.64551 7.06646 3.20801 7.34766 3.91114 7.34766ZM16.5234 7.34766C16.1836 7.75196 15.7763 8.07716 15.3017 8.32326C14.833 8.56936 14.3174 8.69236 13.7549 8.69236C13.0166 8.69236 12.372 8.51076 11.8213 8.14746C11.2763 7.78416 10.8545 7.27446 10.5556 6.61816C10.2568 5.95606 10.1074 5.22657 10.1074 4.42969C10.1074 3.57422 10.2685 2.80371 10.5908 2.11817C10.9189 1.43262 11.3818 0.90821 11.9795 0.54493C12.5771 0.18164 13.2744 0 14.0713 0C15.3369 0 16.333 0.47461 17.0595 1.42383C17.792 2.36719 18.1582 3.65625 18.1582 5.29102V5.76563C18.1582 8.25586 17.666 10.0752 16.6816 11.2237C15.6972 12.3663 14.2119 12.9522 12.2256 12.9815H11.9092V11.6104H12.2519C13.5937 11.587 14.625 11.2383 15.3457 10.5645C16.0664 9.88476 16.459 8.81246 16.5234 7.34766ZM14.0185 7.34766C14.5635 7.34766 15.0644 7.18066 15.5215 6.84666C15.9843 6.51266 16.3213 6.09966 16.5322 5.60743V4.95704C16.5322 3.89063 16.3008 3.02344 15.8379 2.35547C15.375 1.6875 14.789 1.35352 14.0801 1.35352C13.3652 1.35352 12.791 1.62891 12.3574 2.17969C11.9238 2.72461 11.707 3.44532 11.707 4.3418C11.707 5.21485 11.915 5.93555 12.331 6.50386C12.7529 7.06646 13.3154 7.34766 14.0185 7.34766Z" transform="translate(1001.49 396.055) scale(2)" fill="#27AE60"/>
<path d="M0.5 0.5V0H0V0.5H0.5ZM31.5 0.5H32V0H31.5V0.5ZM31.5 29.5V30H32V29.5H31.5ZM0.5 29.5H0V30H0.5V29.5ZM0.5 1H31.5V0H0.5V1ZM31 0.5V29.5H32V0.5H31ZM31.5 29H0.5V30H31.5V29ZM1 29.5V0.5H0V29.5H1Z" transform="translate(1049 259) scale(2)" fill="black"/>
<path d="M2.6015 5.78321H3.8232C4.5908 5.77149 5.1943 5.56934 5.6337 5.17676C6.0732 4.78418 6.2929 4.25391 6.2929 3.58594C6.2929 2.08594 5.5458 1.33594 4.0517 1.33594C3.3486 1.33594 2.7861 1.53809 2.3642 1.94239C1.9482 2.34082 1.7402 2.8711 1.7402 3.53321H0.114201C0.114201 2.51953 0.483301 1.67871 1.2216 1.01075C1.9658 0.33692 2.9091 0 4.0517 0C5.2587 0 6.205 0.31934 6.8906 0.95801C7.5761 1.59668 7.9189 2.48438 7.9189 3.6211C7.9189 4.17774 7.7373 4.7168 7.374 5.23828C7.0166 5.75977 6.5273 6.14946 5.9062 6.40726C6.6093 6.62986 7.1513 6.99906 7.5322 7.51466C7.9189 8.03026 8.1123 8.66016 8.1123 9.40426C8.1123 10.5528 7.7373 11.4639 6.9873 12.1377C6.2373 12.8116 5.2617 13.1485 4.0605 13.1485C2.8593 13.1485 1.8808 12.8233 1.125 12.1729C0.375 11.5225 0 10.6641 0 9.59766H1.6347C1.6347 10.2715 1.8544 10.8106 2.2939 11.2149C2.7333 11.6192 3.3222 11.8213 4.0605 11.8213C4.8457 11.8213 5.4462 11.6163 5.8623 11.2061C6.2783 10.7959 6.4863 10.2071 6.4863 9.43946C6.4863 8.69536 6.2578 8.12406 5.8007 7.72556C5.3437 7.32716 4.6845 7.12206 3.8232 7.11036H2.6015V5.78321Z" transform="translate(1072.9 279.655) scale(2)" fill="black"/>
<path d="M0.5 0.5V0H0V0.5H0.5ZM31.5 0.5H32V0H31.5V0.5ZM31.5 29.5V30H32V29.5H31.5ZM0.5 29.5H0V30H0.5V29.5ZM0.5 1H31.5V0H0.5V1ZM31 0.5V29.5H32V0.5H31ZM31.5 29H0.5V30H31.5V29ZM1 29.5V0.5H0V29.5H1Z" transform="translate(1049 317) scale(2)" fill="black"/>
<path d="M6.2842 0V1.37988H5.9854C4.7198 1.40332 3.7119 1.77832 2.9619 2.50488C2.2119 3.23144 1.7784 4.2539 1.6612 5.57226C2.335 4.79882 3.2549 4.41211 4.4209 4.41211C5.5342 4.41211 6.4219 4.80468 7.084 5.58984C7.752 6.37496 8.086 7.38866 8.086 8.63086C8.086 9.94926 7.7256 11.0039 7.0049 11.795C6.2901 12.586 5.3291 12.9815 4.1221 12.9815C2.8975 12.9815 1.9043 12.5127 1.1426 11.5752C0.3809 10.6319 0 9.41896 0 7.93656V7.31246C0 4.95703 0.501 3.1582 1.503 1.91601C2.5108 0.66796 4.0078 0.02929 5.9942 0H6.2842ZM4.1485 5.76562C3.5918 5.76562 3.0791 5.93266 2.6104 6.26656C2.1416 6.60056 1.8164 7.01956 1.6348 7.52346V8.12106C1.6348 9.17576 1.8721 10.0254 2.3467 10.67C2.8213 11.3145 3.4131 11.6368 4.1221 11.6368C4.8545 11.6368 5.4287 11.3672 5.8448 10.8282C6.2666 10.2891 6.4776 9.58296 6.4776 8.70996C6.4776 7.83106 6.2637 7.12206 5.836 6.58296C5.4141 6.03806 4.8516 5.76562 4.1485 5.76562Z" transform="translate(1073.57 337.989) scale(2)" fill="black"/>
<path d="M0.5 0.5V0H0V0.5H0.5ZM31.5 0.5H32V0H31.5V0.5ZM31.5 29.5V30H32V29.5H31.5ZM0.5 29.5H0V30H0.5V29.5ZM0.5 1H31.5V0H0.5V1ZM31 0.5V29.5H32V0.5H31ZM31.5 29H0.5V30H31.5V29ZM1 29.5V0.5H0V29.5H1Z" transform="translate(1049 375) scale(2)" fill="black"/>
<path d="M6.416 7.34766C6.0762 7.75196 5.6689 8.07716 5.1943 8.32326C4.7256 8.56936 4.2099 8.69236 3.6474 8.69236C2.9092 8.69236 2.2646 8.51076 1.7139 8.14746C1.1689 7.78416 0.7471 7.27446 0.4482 6.61816C0.1494 5.95606 0 5.22657 0 4.42969C0 3.57422 0.1611 2.80371 0.4834 2.11817C0.8115 1.43262 1.2744 0.90821 1.8721 0.54493C2.4697 0.18164 3.167 0 3.9639 0C5.2295 0 6.2256 0.47461 6.9521 1.42383C7.6846 2.36719 8.0508 3.65625 8.0508 5.29102V5.76563C8.0508 8.25586 7.5586 10.0752 6.5742 11.2237C5.5898 12.3663 4.1045 12.9522 2.1181 12.9815H1.8017V11.6104H2.1445C3.4863 11.587 4.5176 11.2383 5.2383 10.5645C5.959 9.88476 6.3515 8.81246 6.416 7.34766ZM3.9111 7.34766C4.456 7.34766 4.957 7.18066 5.414 6.84666C5.8769 6.51266 6.2139 6.09966 6.4248 5.60743V4.95704C6.4248 3.89063 6.1933 3.02344 5.7305 2.35547C5.2676 1.6875 4.6816 1.35352 3.9726 1.35352C3.2578 1.35352 2.6836 1.62891 2.25 2.17969C1.8164 2.72461 1.5996 3.44532 1.5996 4.3418C1.5996 5.21485 1.8076 5.93555 2.2236 6.50386C2.6455 7.06646 3.208 7.34766 3.9111 7.34766Z" transform="translate(1073 395.655) scale(2)" fill="black"/>
<path d="M0 0H216V67H0V0Z" transform="translate(10 280) scale(2)" fill="#F1F4F8"/>
<path d="M1.898 19.63C1.898 18.5727 2.08867 17.628 2.47 16.796C2.86867 15.964 3.39733 15.262 4.056 14.69C4.71467 14.118 5.486 13.6847 6.37 13.39C7.254 13.078 8.18133 12.922 9.152 12.922C10.192 12.922 11.102 13.0953 11.882 13.442C12.6793 13.7887 13.3467 14.2133 13.884 14.716L12.454 16.588C11.9513 16.1893 11.44 15.886 10.92 15.678C10.4173 15.47 9.88 15.366 9.308 15.366C8.02533 15.366 6.98533 15.756 6.188 16.536C5.39067 17.2987 4.992 18.33 4.992 19.63C4.992 20.2713 5.096 20.852 5.304 21.372C5.512 21.892 5.798 22.3427 6.162 22.724C6.54333 23.088 6.994 23.374 7.514 23.582C8.034 23.7727 8.606 23.868 9.23 23.868C9.958 23.868 10.6167 23.7293 11.206 23.452C11.8127 23.1747 12.3673 22.8453 12.87 22.464L14.118 24.388C13.39 25.0293 12.5753 25.5147 11.674 25.844C10.7727 26.156 9.86267 26.312 8.944 26.312C7.93867 26.312 7.00267 26.1647 6.136 25.87C5.28667 25.5753 4.54133 25.142 3.9 24.57C3.276 23.998 2.782 23.296 2.418 22.464C2.07133 21.632 1.898 20.6873 1.898 19.63ZM21.1278 7.592H28.5638V9.23H23.4418V28.314H28.5638V29.952H21.1278V7.592ZM33.0777 19.63C33.0777 18.5727 33.2684 17.628 33.6497 16.796C34.0484 15.964 34.577 15.262 35.2357 14.69C35.8944 14.118 36.6657 13.6847 37.5497 13.39C38.4337 13.078 39.361 12.922 40.3317 12.922C41.3717 12.922 42.2817 13.0953 43.0617 13.442C43.859 13.7887 44.5264 14.2133 45.0637 14.716L43.6337 16.588C43.131 16.1893 42.6197 15.886 42.0997 15.678C41.597 15.47 41.0597 15.366 40.4877 15.366C39.205 15.366 38.165 15.756 37.3677 16.536C36.5704 17.2987 36.1717 18.33 36.1717 19.63C36.1717 20.2713 36.2757 20.852 36.4837 21.372C36.6917 21.892 36.9777 22.3427 37.3417 22.724C37.723 23.088 38.1737 23.374 38.6937 23.582C39.2137 23.7727 39.7857 23.868 40.4097 23.868C41.1377 23.868 41.7964 23.7293 42.3857 23.452C42.9924 23.1747 43.547 22.8453 44.0497 22.464L45.2977 24.388C44.5697 25.0293 43.755 25.5147 42.8537 25.844C41.9524 26.156 41.0424 26.312 40.1237 26.312C39.1184 26.312 38.1824 26.1647 37.3157 25.87C36.4664 25.5753 35.721 25.142 35.0797 24.57C34.4557 23.998 33.9617 23.296 33.5977 22.464C33.251 21.632 33.0777 20.6873 33.0777 19.63ZM52.3075 7.592H59.7435V9.23H54.6215V28.314H59.7435V29.952H52.3075V7.592ZM67.5854 14.846C67.5854 14.0833 67.828 13.4593 68.3134 12.974C68.7987 12.4713 69.414 12.22 70.1594 12.22C70.9047 12.22 71.52 12.4713 72.0054 12.974C72.4907 13.4593 72.7334 14.0833 72.7334 14.846C72.7334 15.6087 72.4907 16.2413 72.0054 16.744C71.52 17.2293 70.9047 17.472 70.1594 17.472C69.414 17.472 68.7987 17.2293 68.3134 16.744C67.828 16.2413 67.5854 15.6087 67.5854 14.846ZM67.5854 23.686C67.5854 22.9233 67.828 22.2993 68.3134 21.814C68.7987 21.3113 69.414 21.06 70.1594 21.06C70.9047 21.06 71.52 21.3113 72.0054 21.814C72.4907 22.2993 72.7334 22.9233 72.7334 23.686C72.7334 24.4487 72.4907 25.0813 72.0054 25.584C71.52 26.0693 70.9047 26.312 70.1594 26.312C69.414 26.312 68.7987 26.0693 68.3134 25.584C67.828 25.0813 67.5854 24.4487 67.5854 23.686ZM82.8632 29.796C85.0646 28.912 86.1739 27.5773 86.1912 25.792C86.1046 25.8093 85.9832 25.818 85.8272 25.818C85.1686 25.818 84.5966 25.6273 84.1112 25.246C83.6259 24.8473 83.3832 24.2667 83.3832 23.504C83.3832 22.776 83.6259 22.2127 84.1112 21.814C84.6139 21.398 85.2032 21.19 85.8792 21.19C86.8152 21.19 87.5172 21.5367 87.9852 22.23C88.4532 22.9233 88.6872 23.8767 88.6872 25.09C88.6872 26.6847 88.2539 28.028 87.3872 29.12C86.5206 30.2293 85.2726 31.0527 83.6432 31.59L82.8632 29.796ZM132.467 28.314V9.23H127.371V7.592H134.807V29.952H127.371V28.314H132.467ZM168.43 18.434L158.55 24.986V22.204L165.908 17.42V17.316L158.55 12.532V9.75L168.43 16.302V18.434ZM207.582 29.796C209.783 28.912 210.893 27.5773 210.91 25.792C210.823 25.8093 210.702 25.818 210.546 25.818C209.887 25.818 209.315 25.6273 208.83 25.246C208.345 24.8473 208.102 24.2667 208.102 23.504C208.102 22.776 208.345 22.2127 208.83 21.814C209.333 21.398 209.922 21.19 210.598 21.19C211.534 21.19 212.236 21.5367 212.704 22.23C213.172 22.9233 213.406 23.8767 213.406 25.09C213.406 26.6847 212.973 28.028 212.106 29.12C211.239 30.2293 209.991 31.0527 208.362 31.59L207.582 29.796ZM257.186 28.314V9.23H252.09V7.592H259.526V29.952H252.09V28.314H257.186ZM282.645 13.416H294.189V15.6H282.645V13.416ZM282.645 19.214H294.189V21.398H282.645V19.214ZM319.103 17.524C319.675 17.524 320.273 17.3767 320.897 17.082C321.521 16.7873 322.136 16.2847 322.743 15.574C322.552 14.118 322.136 13.0693 321.495 12.428C320.854 11.7693 320.065 11.44 319.129 11.44C318.713 11.44 318.323 11.5093 317.959 11.648C317.595 11.7867 317.274 11.986 316.997 12.246C316.737 12.506 316.52 12.8353 316.347 13.234C316.191 13.6153 316.113 14.0573 316.113 14.56C316.113 15.548 316.373 16.2933 316.893 16.796C317.43 17.2813 318.167 17.524 319.103 17.524ZM315.229 22.62C315.628 22.984 316.096 23.2873 316.633 23.53C317.17 23.7553 317.742 23.868 318.349 23.868C318.921 23.868 319.467 23.764 319.987 23.556C320.524 23.348 320.992 23.0013 321.391 22.516C321.807 22.0307 322.145 21.398 322.405 20.618C322.665 19.8207 322.812 18.85 322.847 17.706C322.188 18.3127 321.478 18.798 320.715 19.162C319.97 19.5087 319.233 19.682 318.505 19.682C317.76 19.682 317.066 19.578 316.425 19.37C315.801 19.162 315.264 18.85 314.813 18.434C314.362 18.0007 314.007 17.4633 313.747 16.822C313.487 16.1807 313.357 15.4267 313.357 14.56C313.357 13.728 313.513 12.9827 313.825 12.324C314.137 11.648 314.553 11.076 315.073 10.608C315.593 10.14 316.2 9.78467 316.893 9.542C317.586 9.282 318.314 9.152 319.077 9.152C319.961 9.152 320.793 9.31667 321.573 9.646C322.37 9.958 323.064 10.4433 323.653 11.102C324.26 11.7607 324.736 12.6013 325.083 13.624C325.43 14.6293 325.603 15.8253 325.603 17.212C325.603 18.824 325.404 20.202 325.005 21.346C324.624 22.49 324.104 23.4347 323.445 24.18C322.804 24.908 322.058 25.4453 321.209 25.792C320.36 26.1387 319.484 26.312 318.583 26.312C317.491 26.312 316.529 26.13 315.697 25.766C314.865 25.402 314.172 24.96 313.617 24.44L315.229 22.62ZM334.693 17.524C335.265 17.524 335.863 17.3767 336.487 17.082C337.111 16.7873 337.726 16.2847 338.333 15.574C338.142 14.118 337.726 13.0693 337.085 12.428C336.443 11.7693 335.655 11.44 334.719 11.44C334.303 11.44 333.913 11.5093 333.549 11.648C333.185 11.7867 332.864 11.986 332.587 12.246C332.327 12.506 332.11 12.8353 331.937 13.234C331.781 13.6153 331.703 14.0573 331.703 14.56C331.703 15.548 331.963 16.2933 332.483 16.796C333.02 17.2813 333.757 17.524 334.693 17.524ZM330.819 22.62C331.217 22.984 331.685 23.2873 332.223 23.53C332.76 23.7553 333.332 23.868 333.939 23.868C334.511 23.868 335.057 23.764 335.577 23.556C336.114 23.348 336.582 23.0013 336.981 22.516C337.397 22.0307 337.735 21.398 337.995 20.618C338.255 19.8207 338.402 18.85 338.437 17.706C337.778 18.3127 337.067 18.798 336.305 19.162C335.559 19.5087 334.823 19.682 334.095 19.682C333.349 19.682 332.656 19.578 332.015 19.37C331.391 19.162 330.853 18.85 330.403 18.434C329.952 18.0007 329.597 17.4633 329.337 16.822C329.077 16.1807 328.947 15.4267 328.947 14.56C328.947 13.728 329.103 12.9827 329.415 12.324C329.727 11.648 330.143 11.076 330.663 10.608C331.183 10.14 331.789 9.78467 332.483 9.542C333.176 9.282 333.904 9.152 334.667 9.152C335.551 9.152 336.383 9.31667 337.163 9.646C337.96 9.958 338.653 10.4433 339.243 11.102C339.849 11.7607 340.326 12.6013 340.673 13.624C341.019 14.6293 341.193 15.8253 341.193 17.212C341.193 18.824 340.993 20.202 340.595 21.346C340.213 22.49 339.693 23.4347 339.035 24.18C338.393 24.908 337.648 25.4453 336.799 25.792C335.949 26.1387 335.074 26.312 334.173 26.312C333.081 26.312 332.119 26.13 331.287 25.766C330.455 25.402 329.761 24.96 329.207 24.44L330.819 22.62Z" transform="translate(20 293)" fill="black"/>
<path d="M122.987 23.556V26H111.469V23.556H115.941V12.688H112.483V10.816C113.419 10.66 114.216 10.478 114.875 10.27C115.551 10.0447 116.175 9.776 116.747 9.464H118.931V23.556H122.987ZM188.768 24.258C190.068 23.1487 191.229 22.1347 192.252 21.216C193.275 20.28 194.141 19.4133 194.852 18.616C195.58 17.8187 196.135 17.0733 196.516 16.38C196.897 15.6867 197.088 15.0193 197.088 14.378C197.088 13.494 196.819 12.8007 196.282 12.298C195.745 11.778 194.956 11.518 193.916 11.518C193.188 11.518 192.521 11.7 191.914 12.064C191.325 12.428 190.779 12.8613 190.276 13.364L188.638 11.7C189.435 10.8853 190.276 10.2613 191.16 9.828C192.044 9.37733 193.093 9.152 194.306 9.152C195.155 9.152 195.927 9.27333 196.62 9.516C197.313 9.75867 197.903 10.1053 198.388 10.556C198.891 10.9893 199.272 11.518 199.532 12.142C199.809 12.766 199.948 13.4593 199.948 14.222C199.948 14.95 199.766 15.6953 199.402 16.458C199.055 17.2033 198.579 17.966 197.972 18.746C197.365 19.5087 196.637 20.2973 195.788 21.112C194.956 21.9267 194.063 22.7673 193.11 23.634C193.595 23.5993 194.107 23.5647 194.644 23.53C195.181 23.478 195.675 23.452 196.126 23.452H200.806V26H188.768V24.258ZM247.706 23.556V26H236.188V23.556H240.66V12.688H237.202V10.816C238.138 10.66 238.935 10.478 239.594 10.27C240.27 10.0447 240.894 9.776 241.466 9.464H243.65V23.556H247.706Z" transform="translate(20 293)" fill="#0C570A"/>
<path d="M0 3.64C0 3.06133 0.107399 2.548 0.321999 2.1C0.545999 1.64267 0.839999 1.26 1.204 0.952C1.5774 0.644 2.0067 0.41067 2.492 0.252C2.9774 0.0839999 3.486 0 4.018 0C4.5687 0 5.0634 0.0886698 5.502 0.266C5.95 0.44333 6.3234 0.66733 6.622 0.938L5.67 2.212C5.1567 1.848 4.6434 1.666 4.13 1.666C3.5327 1.666 3.0474 1.84333 2.674 2.198C2.3007 2.55267 2.114 3.03333 2.114 3.64C2.114 4.2467 2.2914 4.7273 2.646 5.082C3.01 5.4367 3.4814 5.614 4.06 5.614C4.424 5.614 4.76 5.5487 5.068 5.418C5.376 5.2873 5.6514 5.1333 5.894 4.956L6.734 6.258C6.314 6.6127 5.8474 6.874 5.334 7.042C4.83 7.2007 4.34 7.28 3.864 7.28C3.3134 7.28 2.8047 7.2007 2.338 7.042C1.8714 6.874 1.4607 6.636 1.106 6.328C0.760699 6.02 0.489999 5.642 0.293999 5.194C0.0979987 4.7367 0 4.2187 0 3.64Z" transform="translate(780.481 209.776) scale(2)" fill="#4F4F4F"/>
<path d="M0.5 0.5V0H0V0.5H0.5ZM31.5 0.5H32V0H31.5V0.5ZM31.5 29.5V30H32V29.5H31.5ZM0.5 29.5H0V30H0.5V29.5ZM0.5 1H31.5V0H0.5V1ZM31 0.5V29.5H32V0.5H31ZM31.5 29H0.5V30H31.5V29ZM1 29.5V0.5H0V29.5H1Z" transform="translate(693 17) scale(2)" fill="black"/>
<path d="M4.9131 12.8584H3.2783V2.02149L0 3.22559V1.74902L4.6582 0H4.9131V12.8584Z" transform="translate(718.234 37.8832) scale(2)" fill="black"/>
<path d="M0.5 0.5V0H0V0.5H0.5ZM31.5 0.5H32V0H31.5V0.5ZM31.5 29.5V30H32V29.5H31.5ZM0.5 29.5H0V30H0.5V29.5ZM0.5 1H31.5V0H0.5V1ZM31 0.5V29.5H32V0.5H31ZM31.5 29H0.5V30H31.5V29ZM1 29.5V0.5H0V29.5H1Z" transform="translate(693 75) scale(2)" fill="black"/>
<path d="M7.4619 8.49898H9.2373V9.82618H7.4619V12.7969H5.8271V9.82618H0V8.86818L5.7305 0H7.4619V8.49898ZM1.8457 8.49898H5.8271V2.22364L5.6338 2.5752L1.8457 8.49898Z" transform="translate(716.177 96.0062) scale(2)" fill="black"/>
<path d="M0.5 0.5V0H0V0.5H0.5ZM31.5 0.5H32V0H31.5V0.5ZM31.5 29.5V30H32V29.5H31.5ZM0.5 29.5H0V30H0.5V29.5ZM0.5 1H31.5V0H0.5V1ZM31 0.5V29.5H32V0.5H31ZM31.5 29H0.5V30H31.5V29ZM1 29.5V0.5H0V29.5H1Z" transform="translate(693 133) scale(2)" fill="black"/>
<path d="M8.6485 0.91407L3.3487 12.7969H1.6436L6.9258 1.33594H0V0H8.6485V0.91407Z" transform="translate(716.599 154.006) scale(2)" fill="black"/>
<path d="M0.5 0.5V0H0V0.5H0.5ZM31.5 0.5H32V0H31.5V0.5ZM31.5 29.5V30H32V29.5H31.5ZM0.5 29.5H0V30H0.5V29.5ZM0.5 1H31.5V0H0.5V1ZM31 0.5V29.5H32V0.5H31ZM31.5 29H0.5V30H31.5V29ZM1 29.5V0.5H0V29.5H1Z" transform="translate(755 17) scale(2)" fill="black"/>
<path d="M8.6308 12.9727H0.246099V11.8038L4.6757 6.88186C5.332 6.13766 5.7832 5.53418 6.0293 5.07129C6.2812 4.60254 6.4072 4.11914 6.4072 3.6211C6.4072 2.95313 6.205 2.40528 5.8007 1.97754C5.3964 1.54981 4.8574 1.33594 4.1836 1.33594C3.375 1.33594 2.7451 1.56739 2.2939 2.03028C1.8486 2.48731 1.6259 3.12598 1.6259 3.94629H0C0 2.76856 0.3779 1.81641 1.1338 1.08985C1.8955 0.36329 2.9121 0 4.1836 0C5.373 0 6.3134 0.31348 7.0048 0.94043C7.6963 1.56153 8.042 2.39063 8.042 3.42774C8.042 4.6875 7.2392 6.18746 5.6338 7.92776L2.206 11.6456H8.6308V12.9727Z" transform="translate(778.881 37.6547) scale(2)" fill="black"/>
<path d="M0.5 0.5V0H0V0.5H0.5ZM31.5 0.5H32V0H31.5V0.5ZM31.5 29.5V30H32V29.5H31.5ZM0.5 29.5H0V30H0.5V29.5ZM0.5 1H31.5V0H0.5V1ZM31 0.5V29.5H32V0.5H31ZM31.5 29H0.5V30H31.5V29ZM1 29.5V0.5H0V29.5H1Z" transform="translate(755 75) scale(2)" fill="black"/>
<path d="M0.457 6.38088L1.1074 0H7.6641V1.50293H2.4873L2.1006 4.99219C2.7275 4.62305 3.4394 4.43848 4.2363 4.43848C5.4023 4.43848 6.3281 4.8252 7.0137 5.59864C7.6992 6.36618 8.042 7.40628 8.042 8.71878C8.042 10.0371 7.6846 11.0772 6.9697 11.8389C6.2607 12.5948 5.2676 12.9727 3.9902 12.9727C2.8594 12.9727 1.9365 12.6592 1.2217 12.0323C0.5068 11.4053 0.0996 10.5381 0 9.43068H1.5381C1.6377 10.1631 1.8984 10.7168 2.3203 11.0918C2.7422 11.461 3.2988 11.6455 3.9902 11.6455C4.7461 11.6455 5.3379 11.3877 5.7656 10.8721C6.1992 10.3565 6.416 9.64458 6.416 8.73638C6.416 7.88088 6.1816 7.19528 5.7129 6.67968C5.25 6.15818 4.6318 5.89748 3.8584 5.89748C3.1494 5.89748 2.5928 6.05278 2.1885 6.36328L1.7578 6.71488L0.457 6.38088Z" transform="translate(779.953 96.0062) scale(2)" fill="black"/>
<path d="M0.5 0.5V0H0V0.5H0.5ZM31.5 0.5H32V0H31.5V0.5ZM31.5 29.5V30H32V29.5H31.5ZM0.5 29.5H0V30H0.5V29.5ZM0.5 1H31.5V0H0.5V1ZM31 0.5V29.5H32V0.5H31ZM31.5 29H0.5V30H31.5V29ZM1 29.5V0.5H0V29.5H1Z" transform="translate(755 133) scale(2)" fill="black"/>
<path d="M7.8398 3.51563C7.8398 4.1543 7.6699 4.72266 7.33 5.22071C6.996 5.71875 6.5419 6.10836 5.9677 6.38966C6.6357 6.67676 7.163 7.09566 7.5498 7.64646C7.9423 8.19726 8.1386 8.82126 8.1386 9.51856C8.1386 10.626 7.7636 11.5079 7.0136 12.1641C6.2695 12.8204 5.288 13.1485 4.0693 13.1485C2.8388 13.1485 1.8515 12.8204 1.1074 12.1641C0.3691 11.502 0 10.6202 0 9.51856C0 8.82716 0.1875 8.20316 0.5625 7.64646C0.9433 7.08986 1.4677 6.66796 2.1357 6.38086C1.5673 6.09966 1.1191 5.70996 0.791 5.21192C0.4628 4.71387 0.2988 4.14844 0.2988 3.51563C0.2988 2.4375 0.6445 1.58204 1.3359 0.94922C2.0273 0.31641 2.9384 0 4.0693 0C5.1943 0 6.1025 0.31641 6.7939 0.94922C7.4912 1.58204 7.8398 2.4375 7.8398 3.51563ZM6.5126 9.48336C6.5126 8.76856 6.2841 8.18556 5.8271 7.73436C5.3759 7.28316 4.7841 7.05766 4.0517 7.05766C3.3193 7.05766 2.7304 7.28026 2.2851 7.72556C1.8457 8.17086 1.6259 8.75686 1.6259 9.48336C1.6259 10.21 1.8398 10.7813 2.2675 11.1973C2.7011 11.6133 3.3017 11.8213 4.0693 11.8213C4.831 11.8213 5.4287 11.6133 5.8623 11.1973C6.2959 10.7754 6.5126 10.2041 6.5126 9.48336ZM4.0693 1.33594C3.4306 1.33594 2.9121 1.53516 2.5136 1.9336C2.121 2.32618 1.9248 2.86231 1.9248 3.542C1.9248 4.19239 2.1181 4.71973 2.5048 5.12403C2.8974 5.52246 3.4189 5.72168 4.0693 5.72168C4.7197 5.72168 5.2382 5.52246 5.625 5.12403C6.0175 4.71973 6.2138 4.19239 6.2138 3.542C6.2138 2.89161 6.0117 2.36133 5.6074 1.95118C5.2031 1.54102 4.6904 1.33594 4.0693 1.33594Z" transform="translate(779.215 153.655) scale(2)" fill="black"/>
<path d="M0.5 0.5V0H0V0.5H0.5ZM31.5 0.5H32V0H31.5V0.5ZM31.5 29.5V30H32V29.5H31.5ZM0.5 29.5H0V30H0.5V29.5ZM0.5 1H31.5V0H0.5V1ZM31 0.5V29.5H32V0.5H31ZM31.5 29H0.5V30H31.5V29ZM1 29.5V0.5H0V29.5H1Z" transform="translate(817 17) scale(2)" fill="black"/>
<path d="M2.6015 5.78321H3.8232C4.5908 5.77149 5.1943 5.56934 5.6337 5.17676C6.0732 4.78418 6.2929 4.25391 6.2929 3.58594C6.2929 2.08594 5.5458 1.33594 4.0517 1.33594C3.3486 1.33594 2.7861 1.53809 2.3642 1.94239C1.9482 2.34082 1.7402 2.8711 1.7402 3.53321H0.114201C0.114201 2.51953 0.483301 1.67871 1.2216 1.01075C1.9658 0.33692 2.9091 0 4.0517 0C5.2587 0 6.205 0.31934 6.8906 0.95801C7.5761 1.59668 7.9189 2.48438 7.9189 3.6211C7.9189 4.17774 7.7373 4.7168 7.374 5.23828C7.0166 5.75977 6.5273 6.14946 5.9062 6.40726C6.6093 6.62986 7.1513 6.99906 7.5322 7.51466C7.9189 8.03026 8.1123 8.66016 8.1123 9.40426C8.1123 10.5528 7.7373 11.4639 6.9873 12.1377C6.2373 12.8116 5.2617 13.1485 4.0605 13.1485C2.8593 13.1485 1.8808 12.8233 1.125 12.1729C0.375 11.5225 0 10.6641 0 9.59766H1.6347C1.6347 10.2715 1.8544 10.8106 2.2939 11.2149C2.7333 11.6192 3.3222 11.8213 4.0605 11.8213C4.8457 11.8213 5.4462 11.6163 5.8623 11.2061C6.2783 10.7959 6.4863 10.2071 6.4863 9.43946C6.4863 8.69536 6.2578 8.12406 5.8007 7.72556C5.3437 7.32716 4.6845 7.12206 3.8232 7.11036H2.6015V5.78321Z" transform="translate(840.898 37.6547) scale(2)" fill="black"/>
<path d="M0.5 0.5V0H0V0.5H0.5ZM31.5 0.5H32V0H31.5V0.5ZM31.5 29.5V30H32V29.5H31.5ZM0.5 29.5H0V30H0.5V29.5ZM0.5 1H31.5V0H0.5V1ZM31 0.5V29.5H32V0.5H31ZM31.5 29H0.5V30H31.5V29ZM1 29.5V0.5H0V29.5H1Z" transform="translate(817 75) scale(2)" fill="black"/>
<path d="M6.2842 0V1.37988H5.9854C4.7198 1.40332 3.7119 1.77832 2.9619 2.50488C2.2119 3.23144 1.7784 4.2539 1.6612 5.57226C2.335 4.79882 3.2549 4.41211 4.4209 4.41211C5.5342 4.41211 6.4219 4.80468 7.084 5.58984C7.752 6.37496 8.086 7.38866 8.086 8.63086C8.086 9.94926 7.7256 11.0039 7.0049 11.795C6.2901 12.586 5.3291 12.9815 4.1221 12.9815C2.8975 12.9815 1.9043 12.5127 1.1426 11.5752C0.3809 10.6319 0 9.41896 0 7.93656V7.31246C0 4.95703 0.501 3.1582 1.503 1.91601C2.5108 0.66796 4.0078 0.02929 5.9942 0H6.2842ZM4.1485 5.76562C3.5918 5.76562 3.0791 5.93266 2.6104 6.26656C2.1416 6.60056 1.8164 7.01956 1.6348 7.52346V8.12106C1.6348 9.17576 1.8721 10.0254 2.3467 10.67C2.8213 11.3145 3.4131 11.6368 4.1221 11.6368C4.8545 11.6368 5.4287 11.3672 5.8448 10.8282C6.2666 10.2891 6.4776 9.58296 6.4776 8.70996C6.4776 7.83106 6.2637 7.12206 5.836 6.58296C5.4141 6.03806 4.8516 5.76562 4.1485 5.76562Z" transform="translate(841.566 95.9887) scale(2)" fill="black"/>
<path d="M0.5 0.5V0H0V0.5H0.5ZM31.5 0.5H32V0H31.5V0.5ZM31.5 29.5V30H32V29.5H31.5ZM0.5 29.5H0V30H0.5V29.5ZM0.5 1H31.5V0H0.5V1ZM31 0.5V29.5H32V0.5H31ZM31.5 29H0.5V30H31.5V29ZM1 29.5V0.5H0V29.5H1Z" transform="translate(817 133) scale(2)" fill="black"/>
<path d="M6.416 7.34766C6.0762 7.75196 5.6689 8.07716 5.1943 8.32326C4.7256 8.56936 4.2099 8.69236 3.6474 8.69236C2.9092 8.69236 2.2646 8.51076 1.7139 8.14746C1.1689 7.78416 0.7471 7.27446 0.4482 6.61816C0.1494 5.95606 0 5.22657 0 4.42969C0 3.57422 0.1611 2.80371 0.4834 2.11817C0.8115 1.43262 1.2744 0.90821 1.8721 0.54493C2.4697 0.18164 3.167 0 3.9639 0C5.2295 0 6.2256 0.47461 6.9521 1.42383C7.6846 2.36719 8.0508 3.65625 8.0508 5.29102V5.76563C8.0508 8.25586 7.5586 10.0752 6.5742 11.2237C5.5898 12.3663 4.1045 12.9522 2.1181 12.9815H1.8017V11.6104H2.1445C3.4863 11.587 4.5176 11.2383 5.2383 10.5645C5.959 9.88476 6.3515 8.81246 6.416 7.34766ZM3.9111 7.34766C4.456 7.34766 4.957 7.18066 5.414 6.84666C5.8769 6.51266 6.2139 6.09966 6.4248 5.60743V4.95704C6.4248 3.89063 6.1933 3.02344 5.7305 2.35547C5.2676 1.6875 4.6816 1.35352 3.9726 1.35352C3.2578 1.35352 2.6836 1.62891 2.25 2.17969C1.8164 2.72461 1.5996 3.44532 1.5996 4.3418C1.5996 5.21485 1.8076 5.93555 2.2236 6.50386C2.6455 7.06646 3.208 7.34766 3.9111 7.34766Z" transform="translate(841.004 153.655) scale(2)" fill="black"/>
<path d="M0 0H215V67H0V0Z" transform="translate(10 40) scale(2)" fill="#F1F4F8"/>
<path d="M0 6.832C0 6.2627 0.10267 5.754 0.308 5.306C0.52267 4.858 0.80733 4.48 1.162 4.172C1.51667 3.864 1.932 3.63067 2.408 3.472C2.884 3.304 3.38333 3.22 3.906 3.22C4.466 3.22 4.956 3.31333 5.376 3.5C5.80533 3.68667 6.16467 3.91533 6.454 4.186L5.684 5.194C5.41333 4.97933 5.138 4.816 4.858 4.704C4.58733 4.592 4.298 4.536 3.99 4.536C3.29933 4.536 2.73933 4.746 2.31 5.166C1.88067 5.57667 1.666 6.132 1.666 6.832C1.666 7.1773 1.722 7.49 1.834 7.77C1.946 8.05 2.1 8.2927 2.296 8.498C2.50133 8.694 2.744 8.848 3.024 8.96C3.304 9.0627 3.612 9.114 3.948 9.114C4.34 9.114 4.69467 9.0393 5.012 8.89C5.33867 8.7407 5.63733 8.5633 5.908 8.358L6.58 9.394C6.188 9.7393 5.74933 10.0007 5.264 10.178C4.77867 10.346 4.28867 10.43 3.794 10.43C3.25267 10.43 2.74867 10.3507 2.282 10.192C1.82467 10.0333 1.42333 9.8 1.078 9.492C0.742 9.184 0.476 8.806 0.28 8.358C0.0933301 7.91 0 7.4013 0 6.832ZM16.8591 3.486H23.0751V4.662H16.8591V3.486ZM16.8591 6.608H23.0751V7.784H16.8591V6.608ZM33.7041 3.388H35.0341L35.1601 4.424H35.2161C35.5428 4.09733 35.9021 3.81733 36.2941 3.584C36.6955 3.34133 37.1621 3.22 37.6941 3.22C38.4875 3.22 39.0708 3.46267 39.4441 3.948C39.8175 4.424 40.0041 5.11 40.0041 6.006V10.262H38.3801V6.216C38.3801 5.656 38.2821 5.25 38.0861 4.998C37.8995 4.73667 37.5681 4.606 37.0921 4.606C36.7561 4.606 36.4575 4.68533 36.1961 4.844C35.9348 5.00267 35.6455 5.24533 35.3281 5.572V10.262H33.7041V3.388ZM43.7227 10.822V12.978H42.0987V3.388H43.4287L43.5547 4.172H43.5967C43.8953 3.90133 44.236 3.67733 44.6187 3.5C45.0107 3.31333 45.4027 3.22 45.7947 3.22C46.2427 3.22 46.6393 3.304 46.9847 3.472C47.3393 3.63067 47.6333 3.864 47.8667 4.172C48.1093 4.48 48.2913 4.84867 48.4127 5.278C48.5433 5.70733 48.6087 6.188 48.6087 6.72C48.6087 7.308 48.5247 7.8353 48.3567 8.302C48.1887 8.7593 47.96 9.1467 47.6707 9.464C47.3907 9.772 47.064 10.01 46.6907 10.178C46.3267 10.346 45.9487 10.43 45.5567 10.43C45.2393 10.43 44.9127 10.36 44.5767 10.22C44.25 10.08 43.9467 9.8793 43.6667 9.618L43.7227 10.822ZM43.7227 8.47C43.9747 8.7033 44.2313 8.8667 44.4927 8.96C44.7633 9.0533 45.006 9.1 45.2207 9.1C45.7153 9.1 46.126 8.904 46.4527 8.512C46.7793 8.1107 46.9427 7.518 46.9427 6.734C46.9427 6.04333 46.8167 5.50667 46.5647 5.124C46.3127 4.74133 45.9067 4.55 45.3467 4.55C45.0853 4.55 44.8193 4.61533 44.5487 4.746C44.278 4.87667 44.0027 5.08667 43.7227 5.376V8.47ZM52.1592 9.016C52.1592 8.6053 52.2899 8.2693 52.5512 8.008C52.8125 7.7373 53.1439 7.602 53.5452 7.602C53.9465 7.602 54.2779 7.7373 54.5392 8.008C54.8005 8.2693 54.9312 8.6053 54.9312 9.016C54.9312 9.4267 54.8005 9.7673 54.5392 10.038C54.2779 10.2993 53.9465 10.43 53.5452 10.43C53.1439 10.43 52.8125 10.2993 52.5512 10.038C52.2899 9.7673 52.1592 9.4267 52.1592 9.016ZM58.7337 8.414C58.7337 8.0313 58.8224 7.6953 58.9997 7.406C59.1771 7.1073 59.4571 6.8553 59.8397 6.65C60.2224 6.4447 60.7124 6.2767 61.3097 6.146C61.9071 6.01533 62.6304 5.922 63.4797 5.866C63.4517 5.474 63.3117 5.152 63.0597 4.9C62.8077 4.648 62.4017 4.522 61.8417 4.522C61.4497 4.522 61.0624 4.59667 60.6797 4.746C60.3064 4.886 59.9424 5.054 59.5877 5.25L58.9997 4.172C59.4197 3.92933 59.9004 3.71 60.4417 3.514C60.9831 3.318 61.5477 3.22 62.1357 3.22C63.0971 3.22 63.8297 3.47667 64.3337 3.99C64.8377 4.494 65.0897 5.22667 65.0897 6.188V10.262H63.7737L63.6477 9.408H63.6057C63.2417 9.688 62.8357 9.9307 62.3877 10.136C61.9491 10.332 61.4964 10.43 61.0297 10.43C60.6937 10.43 60.3857 10.3787 60.1057 10.276C59.8257 10.1827 59.5831 10.0473 59.3777 9.87C59.1724 9.6927 59.0137 9.4827 58.9017 9.24C58.7897 8.988 58.7337 8.7127 58.7337 8.414ZM60.2877 8.288C60.2877 8.596 60.4044 8.82 60.6377 8.96C60.8804 9.1 61.1744 9.17 61.5197 9.17C61.8651 9.17 62.1964 9.0953 62.5137 8.946C62.8404 8.7873 63.1624 8.582 63.4797 8.33V6.874C62.8637 6.9207 62.3504 6.986 61.9397 7.07C61.5291 7.1447 61.2024 7.2427 60.9597 7.364C60.7171 7.4853 60.5444 7.6253 60.4417 7.784C60.3391 7.9333 60.2877 8.1013 60.2877 8.288ZM67.9542 3.388H69.2842L69.4242 4.942H69.4663C69.8209 4.382 70.2456 3.95733 70.7402 3.668C71.2443 3.36933 71.7949 3.22 72.3922 3.22C72.6723 3.22 72.9102 3.24333 73.1062 3.29C73.3116 3.32733 73.5169 3.39733 73.7222 3.5L73.3863 4.858C73.1622 4.78333 72.9616 4.732 72.7842 4.704C72.6162 4.66667 72.4016 4.648 72.1402 4.648C71.6643 4.648 71.2069 4.78333 70.7683 5.054C70.3296 5.32467 69.9329 5.796 69.5783 6.468V10.262H67.9542V3.388ZM76.3488 3.388H77.6788L77.8188 4.942H77.8608C78.2154 4.382 78.6401 3.95733 79.1348 3.668C79.6388 3.36933 80.1894 3.22 80.7868 3.22C81.0668 3.22 81.3048 3.24333 81.5008 3.29C81.7061 3.32733 81.9114 3.39733 82.1168 3.5L81.7808 4.858C81.5568 4.78333 81.3561 4.732 81.1788 4.704C81.0108 4.66667 80.7961 4.648 80.5348 4.648C80.0588 4.648 79.6014 4.78333 79.1628 5.054C78.7241 5.32467 78.3274 5.796 77.9728 6.468V10.262H76.3488V3.388ZM83.9173 8.414C83.9173 8.0313 84.006 7.6953 84.1833 7.406C84.3606 7.1073 84.6406 6.8553 85.0233 6.65C85.406 6.4447 85.896 6.2767 86.4933 6.146C87.0906 6.01533 87.814 5.922 88.6633 5.866C88.6353 5.474 88.4953 5.152 88.2433 4.9C87.9913 4.648 87.5853 4.522 87.0253 4.522C86.6333 4.522 86.246 4.59667 85.8633 4.746C85.49 4.886 85.126 5.054 84.7713 5.25L84.1833 4.172C84.6033 3.92933 85.084 3.71 85.6253 3.514C86.1666 3.318 86.7313 3.22 87.3193 3.22C88.2806 3.22 89.0133 3.47667 89.5173 3.99C90.0213 4.494 90.2733 5.22667 90.2733 6.188V10.262H88.9573L88.8313 9.408H88.7893C88.4253 9.688 88.0193 9.9307 87.5713 10.136C87.1326 10.332 86.68 10.43 86.2133 10.43C85.8773 10.43 85.5693 10.3787 85.2893 10.276C85.0093 10.1827 84.7666 10.0473 84.5613 9.87C84.356 9.6927 84.1973 9.4827 84.0853 9.24C83.9733 8.988 83.9173 8.7127 83.9173 8.414ZM85.4713 8.288C85.4713 8.596 85.588 8.82 85.8213 8.96C86.064 9.1 86.358 9.17 86.7033 9.17C87.0486 9.17 87.38 9.0953 87.6973 8.946C88.024 8.7873 88.346 8.582 88.6633 8.33V6.874C88.0473 6.9207 87.534 6.986 87.1233 7.07C86.7126 7.1447 86.386 7.2427 86.1433 7.364C85.9006 7.4853 85.728 7.6253 85.6253 7.784C85.5226 7.9333 85.4713 8.1013 85.4713 8.288ZM92.5638 11.69C92.6572 11.718 92.7505 11.7413 92.8438 11.76C92.9372 11.7787 93.0352 11.788 93.1378 11.788C93.5765 11.788 93.9265 11.676 94.1878 11.452C94.4492 11.2373 94.6498 10.9573 94.7898 10.612L94.9578 10.178L91.8778 3.388H93.4878L94.9018 6.762C95.0325 7.07 95.1585 7.3967 95.2798 7.742C95.4012 8.0873 95.5272 8.4327 95.6578 8.778H95.7138C95.8165 8.4513 95.9285 8.1153 96.0498 7.77C96.1712 7.4247 96.2878 7.0887 96.3998 6.762L97.6458 3.388H99.172L96.3018 10.57C96.1525 10.962 95.9845 11.312 95.7978 11.62C95.6205 11.928 95.4105 12.1893 95.1678 12.404C94.9252 12.628 94.6452 12.796 94.3278 12.908C94.0105 13.0293 93.6465 13.09 93.2358 13.09C93.0492 13.09 92.8718 13.076 92.7038 13.048C92.5358 13.0293 92.3865 12.9967 92.2558 12.95L92.5638 11.69ZM105.48 12.74C104.538 11.956 103.791 11.032 103.24 9.968C102.699 8.904 102.428 7.7047 102.428 6.37C102.428 5.03533 102.699 3.836 103.24 2.772C103.791 1.708 104.538 0.784 105.48 0L106.376 0.742C105.49 1.54467 104.841 2.39867 104.43 3.304C104.02 4.20933 103.814 5.23133 103.814 6.37C103.814 7.5087 104.02 8.5307 104.43 9.436C104.841 10.3413 105.49 11.1953 106.376 11.998L105.48 12.74ZM111.089 0.35H115.093V1.232H112.335V11.508H115.093V12.39H111.089V0.35ZM119.483 0.35H123.487V1.232H120.729V11.508H123.487V12.39H119.483V0.35ZM135.936 12.306C137.122 11.83 137.719 11.1113 137.729 10.15C137.682 10.1593 137.616 10.164 137.533 10.164C137.178 10.164 136.87 10.0613 136.609 9.856C136.347 9.6413 136.217 9.3287 136.217 8.918C136.217 8.526 136.347 8.2227 136.609 8.008C136.879 7.784 137.197 7.672 137.561 7.672C138.064 7.672 138.443 7.8587 138.695 8.232C138.947 8.6053 139.072 9.1187 139.072 9.772C139.072 10.6307 138.839 11.354 138.373 11.942C137.906 12.5393 137.234 12.9827 136.356 13.272L135.936 12.306ZM161.12 12.306C162.305 11.83 162.903 11.1113 162.912 10.15C162.865 10.1593 162.8 10.164 162.716 10.164C162.361 10.164 162.053 10.0613 161.792 9.856C161.531 9.6413 161.4 9.3287 161.4 8.918C161.4 8.526 161.531 8.2227 161.792 8.008C162.063 7.784 162.38 7.672 162.744 7.672C163.248 7.672 163.626 7.8587 163.878 8.232C164.13 8.6053 164.256 9.1187 164.256 9.772C164.256 10.6307 164.023 11.354 163.556 11.942C163.089 12.5393 162.417 12.9827 161.54 13.272L161.12 12.306ZM187.83 11.508V1.232H185.086V0.35H189.09V12.39H185.086V11.508H187.83ZM194.698 12.306C195.884 11.83 196.481 11.1113 196.49 10.15C196.444 10.1593 196.378 10.164 196.294 10.164C195.94 10.164 195.632 10.0613 195.37 9.856C195.109 9.6413 194.978 9.3287 194.978 8.918C194.978 8.526 195.109 8.2227 195.37 8.008C195.641 7.784 195.958 7.672 196.322 7.672C196.826 7.672 197.204 7.8587 197.456 8.232C197.708 8.6053 197.834 9.1187 197.834 9.772C197.834 10.6307 197.601 11.354 197.134 11.942C196.668 12.5393 195.996 12.9827 195.118 13.272L194.698 12.306ZM119.483 17.35H123.487V18.232H120.729V28.508H123.487V29.39H119.483V17.35ZM135.936 29.306C137.122 28.83 137.719 28.1113 137.729 27.15C137.682 27.1593 137.616 27.164 137.533 27.164C137.178 27.164 136.87 27.0613 136.609 26.856C136.347 26.6413 136.217 26.3287 136.217 25.918C136.217 25.526 136.347 25.2227 136.609 25.008C136.879 24.784 137.197 24.672 137.561 24.672C138.064 24.672 138.443 24.8587 138.695 25.232C138.947 25.6053 139.072 26.1187 139.072 26.772C139.072 27.6307 138.839 28.354 138.373 28.942C137.906 29.5393 137.234 29.9827 136.356 30.272L135.936 29.306ZM161.12 29.306C162.305 28.83 162.903 28.1113 162.912 27.15C162.865 27.1593 162.8 27.164 162.716 27.164C162.361 27.164 162.053 27.0613 161.792 26.856C161.531 26.6413 161.4 26.3287 161.4 25.918C161.4 25.526 161.531 25.2227 161.792 25.008C162.063 24.784 162.38 24.672 162.744 24.672C163.248 24.672 163.626 24.8587 163.878 25.232C164.13 25.6053 164.256 26.1187 164.256 26.772C164.256 27.6307 164.023 28.354 163.556 28.942C163.089 29.5393 162.417 29.9827 161.54 30.272L161.12 29.306ZM187.83 28.508V18.232H185.086V17.35H189.09V29.39H185.086V28.508H187.83ZM194.698 29.306C195.884 28.83 196.481 28.1113 196.49 27.15C196.444 27.1593 196.378 27.164 196.294 27.164C195.94 27.164 195.632 27.0613 195.37 26.856C195.109 26.6413 194.978 26.3287 194.978 25.918C194.978 25.526 195.109 25.2227 195.37 25.008C195.641 24.784 195.958 24.672 196.322 24.672C196.826 24.672 197.204 24.8587 197.456 25.232C197.708 25.6053 197.834 26.1187 197.834 26.772C197.834 27.6307 197.601 28.354 197.134 28.942C196.668 29.5393 195.996 29.9827 195.118 30.272L194.698 29.306ZM119.483 35.35H123.487V36.232H120.729V46.508H123.487V47.39H119.483V35.35ZM135.936 47.306C137.122 46.83 137.719 46.1113 137.729 45.15C137.682 45.1593 137.616 45.164 137.533 45.164C137.178 45.164 136.87 45.0613 136.609 44.856C136.347 44.6413 136.217 44.3287 136.217 43.918C136.217 43.526 136.347 43.2227 136.609 43.008C136.879 42.784 137.197 42.672 137.561 42.672C138.064 42.672 138.443 42.8587 138.695 43.232C138.947 43.6053 139.072 44.1187 139.072 44.772C139.072 45.6307 138.839 46.354 138.373 46.942C137.906 47.5393 137.234 47.9827 136.356 48.272L135.936 47.306ZM161.12 47.306C162.305 46.83 162.903 46.1113 162.912 45.15C162.865 45.1593 162.8 45.164 162.716 45.164C162.361 45.164 162.053 45.0613 161.792 44.856C161.531 44.6413 161.4 44.3287 161.4 43.918C161.4 43.526 161.531 43.2227 161.792 43.008C162.063 42.784 162.38 42.672 162.744 42.672C163.248 42.672 163.626 42.8587 163.878 43.232C164.13 43.6053 164.256 44.1187 164.256 44.772C164.256 45.6307 164.023 46.354 163.556 46.942C163.089 47.5393 162.417 47.9827 161.54 48.272L161.12 47.306ZM187.83 46.508V36.232H185.086V35.35H189.09V47.39H185.086V46.508H187.83ZM196.224 46.508V36.232H193.48V35.35H197.484V47.39H193.48V46.508H196.224ZM202.183 46.998C203.069 46.1953 203.718 45.3413 204.129 44.436C204.539 43.5307 204.745 42.5087 204.745 41.37C204.745 40.2313 204.539 39.2093 204.129 38.304C203.718 37.3987 203.069 36.5447 202.183 35.742L203.079 35C204.021 35.784 204.763 36.708 205.305 37.772C205.855 38.836 206.131 40.0353 206.131 41.37C206.131 42.7047 205.855 43.904 205.305 44.968C204.763 46.032 204.021 46.956 203.079 47.74L202.183 46.998Z" transform="translate(20.044 51.476) scale(2)" fill="#2E383C"/>
<path d="M6.94401 7.756V9.072H0.742004V7.756H3.15V1.904H1.288V0.896C1.792 0.812 2.221 0.714 2.576 0.602C2.94 0.48067 3.27601 0.336 3.58401 0.168H4.76V7.756H6.94401ZM25.576 8.134C26.276 7.5367 26.901 6.9907 27.452 6.496C28.002 5.992 28.469 5.5253 28.852 5.096C29.244 4.66667 29.542 4.26533 29.748 3.892C29.953 3.51867 30.056 3.15933 30.056 2.814C30.056 2.338 29.911 1.96467 29.622 1.694C29.332 1.414 28.908 1.274 28.348 1.274C27.956 1.274 27.596 1.372 27.27 1.568C26.952 1.764 26.658 1.99733 26.388 2.268L25.506 1.372C25.935 0.93333 26.388 0.59733 26.864 0.364C27.34 0.12133 27.904 0 28.558 0C29.015 0 29.43 0.0653301 29.804 0.196C30.177 0.32667 30.494 0.51333 30.756 0.756C31.026 0.98933 31.232 1.274 31.372 1.61C31.521 1.946 31.596 2.31933 31.596 2.73C31.596 3.122 31.498 3.52333 31.302 3.934C31.115 4.33533 30.858 4.746 30.532 5.166C30.205 5.5767 29.813 6.0013 29.356 6.44C28.908 6.8787 28.427 7.3313 27.914 7.798C28.175 7.7793 28.45 7.7607 28.74 7.742C29.029 7.714 29.295 7.7 29.538 7.7H32.058V9.072H25.576V8.134ZM51.305 6.944C51.604 7.2147 51.949 7.448 52.341 7.644C52.742 7.8307 53.186 7.924 53.671 7.924C54.222 7.924 54.674 7.8073 55.029 7.574C55.393 7.3313 55.575 7 55.575 6.58C55.575 6.3467 55.524 6.1367 55.421 5.95C55.318 5.7633 55.15 5.6047 54.917 5.474C54.693 5.3433 54.39 5.2453 54.007 5.18C53.634 5.1053 53.172 5.068 52.621 5.068V3.892C53.097 3.892 53.503 3.85933 53.839 3.794C54.175 3.71933 54.446 3.62133 54.651 3.5C54.866 3.36933 55.02 3.21533 55.113 3.038C55.216 2.86067 55.267 2.66933 55.267 2.464C55.267 2.09067 55.122 1.80133 54.833 1.596C54.553 1.38133 54.175 1.274 53.699 1.274C53.307 1.274 52.943 1.35333 52.607 1.512C52.28 1.66133 51.968 1.862 51.669 2.114L50.829 1.12C51.24 0.784 51.688 0.51333 52.173 0.308C52.658 0.10267 53.19 0 53.769 0C54.226 0 54.646 0.0513298 55.029 0.154C55.412 0.25667 55.738 0.41067 56.009 0.616C56.289 0.812 56.504 1.05933 56.653 1.358C56.812 1.64733 56.891 1.97867 56.891 2.352C56.891 2.856 56.728 3.276 56.401 3.612C56.074 3.948 55.636 4.20933 55.085 4.396V4.452C55.374 4.52667 55.645 4.62933 55.897 4.76C56.158 4.88133 56.382 5.03533 56.569 5.222C56.765 5.4087 56.919 5.6233 57.031 5.866C57.143 6.1087 57.199 6.3747 57.199 6.664C57.199 7.0747 57.106 7.4387 56.919 7.756C56.742 8.0733 56.499 8.344 56.191 8.568C55.883 8.7827 55.524 8.9507 55.113 9.072C54.702 9.184 54.268 9.24 53.811 9.24C53.046 9.24 52.392 9.1187 51.851 8.876C51.31 8.6333 50.876 8.3347 50.549 7.98L51.305 6.944ZM4.438 22.53V20.402C4.447 20.1313 4.457 19.8373 4.466 19.52C4.485 19.2027 4.503 18.9087 4.522 18.638H4.452C4.303 18.8713 4.149 19.1047 3.99 19.338C3.831 19.5713 3.673 19.8093 3.514 20.052L1.63801 22.53H4.438ZM7.21 23.776H5.95V26.072H4.438V23.776H0V22.684L4.08801 17.154H5.95V22.53H7.21V23.776ZM26.122 23.972C26.42 24.224 26.752 24.448 27.116 24.644C27.489 24.8307 27.932 24.924 28.446 24.924C29.006 24.924 29.472 24.7747 29.846 24.476C30.228 24.1773 30.42 23.7573 30.42 23.216C30.42 22.684 30.242 22.2733 29.888 21.984C29.542 21.6947 29.085 21.55 28.516 21.55C28.189 21.55 27.909 21.592 27.676 21.676C27.442 21.7507 27.172 21.8767 26.864 22.054L26.094 21.564L26.374 17.168H31.624V18.526H27.774L27.578 20.682C27.811 20.5887 28.035 20.5187 28.25 20.472C28.464 20.416 28.707 20.388 28.978 20.388C29.398 20.388 29.794 20.444 30.168 20.556C30.541 20.668 30.863 20.8407 31.134 21.074C31.414 21.298 31.633 21.5873 31.792 21.942C31.96 22.2873 32.044 22.698 32.044 23.174C32.044 23.6593 31.95 24.0933 31.764 24.476C31.577 24.8587 31.325 25.1807 31.008 25.442C30.69 25.7033 30.326 25.904 29.916 26.044C29.514 26.1747 29.09 26.24 28.642 26.24C27.858 26.24 27.204 26.1187 26.682 25.876C26.168 25.624 25.734 25.3347 25.38 25.008L26.122 23.972ZM54.301 25.008C54.525 25.008 54.73 24.9707 54.917 24.896C55.113 24.8213 55.286 24.714 55.435 24.574C55.584 24.4247 55.701 24.2473 55.785 24.042C55.869 23.8273 55.911 23.5847 55.911 23.314C55.911 22.782 55.766 22.3853 55.477 22.124C55.197 21.8627 54.805 21.732 54.301 21.732C54.002 21.732 53.685 21.8113 53.349 21.97C53.013 22.1193 52.682 22.3853 52.355 22.768C52.458 23.5613 52.682 24.1353 53.027 24.49C53.372 24.8353 53.797 25.008 54.301 25.008ZM56.387 18.988C56.182 18.792 55.93 18.6333 55.631 18.512C55.342 18.3813 55.038 18.316 54.721 18.316C54.404 18.316 54.1 18.372 53.811 18.484C53.531 18.596 53.279 18.7827 53.055 19.044C52.84 19.3053 52.663 19.6507 52.523 20.08C52.392 20.5 52.318 21.018 52.299 21.634C52.644 21.298 53.022 21.0367 53.433 20.85C53.844 20.654 54.245 20.556 54.637 20.556C55.038 20.556 55.407 20.612 55.743 20.724C56.079 20.836 56.368 21.0087 56.611 21.242C56.863 21.466 57.059 21.7507 57.199 22.096C57.339 22.4413 57.409 22.8473 57.409 23.314C57.409 23.762 57.325 24.168 57.157 24.532C56.989 24.8867 56.76 25.19 56.471 25.442C56.191 25.694 55.864 25.89 55.491 26.03C55.118 26.17 54.726 26.24 54.315 26.24C53.848 26.24 53.4 26.156 52.971 25.988C52.551 25.8107 52.178 25.5447 51.851 25.19C51.534 24.8353 51.277 24.3827 51.081 23.832C50.894 23.2813 50.801 22.6327 50.801 21.886C50.801 21.018 50.904 20.276 51.109 19.66C51.324 19.044 51.608 18.54 51.963 18.148C52.318 17.756 52.719 17.4667 53.167 17.28C53.624 17.0933 54.1 17 54.595 17C55.183 17 55.696 17.098 56.135 17.294C56.583 17.49 56.956 17.728 57.255 18.008L56.387 18.988ZM2.408 44.072C2.445 43.2787 2.52 42.5553 2.632 41.902C2.753 41.2393 2.92101 40.614 3.13601 40.026C3.36001 39.4287 3.64001 38.85 3.97601 38.29C4.31201 37.7207 4.723 37.1327 5.208 36.526H0.406006V35.168H6.986V36.148C6.407 36.792 5.936 37.408 5.572 37.996C5.208 38.5747 4.919 39.1673 4.704 39.774C4.489 40.3807 4.335 41.034 4.242 41.734C4.149 42.4247 4.083 43.204 4.046 44.072H2.408ZM26.99 41.622C26.99 42.07 27.167 42.4293 27.522 42.7C27.876 42.9613 28.338 43.092 28.908 43.092C29.449 43.092 29.874 42.9753 30.182 42.742C30.49 42.5087 30.644 42.182 30.644 41.762C30.644 41.51 30.578 41.2953 30.448 41.118C30.326 40.9407 30.154 40.7867 29.93 40.656C29.715 40.5253 29.458 40.4087 29.16 40.306C28.861 40.194 28.534 40.0773 28.18 39.956C27.834 40.1613 27.55 40.3993 27.326 40.67C27.102 40.9313 26.99 41.2487 26.99 41.622ZM29.538 39.046C30.126 38.57 30.42 38.0567 30.42 37.506C30.42 37.114 30.289 36.792 30.028 36.54C29.766 36.2787 29.388 36.148 28.894 36.148C28.474 36.148 28.128 36.2553 27.858 36.47C27.596 36.6753 27.466 36.974 27.466 37.366C27.466 37.59 27.517 37.786 27.62 37.954C27.722 38.122 27.867 38.2713 28.054 38.402C28.24 38.5233 28.46 38.64 28.712 38.752C28.964 38.8547 29.239 38.9527 29.538 39.046ZM25.562 41.79C25.562 41.5007 25.608 41.2393 25.702 41.006C25.804 40.7727 25.94 40.5673 26.108 40.39C26.276 40.2033 26.467 40.04 26.682 39.9C26.906 39.7507 27.134 39.62 27.368 39.508V39.452C26.994 39.2093 26.677 38.92 26.416 38.584C26.164 38.248 26.038 37.842 26.038 37.366C26.038 37.002 26.108 36.6753 26.248 36.386C26.397 36.0967 26.598 35.8493 26.85 35.644C27.111 35.4387 27.414 35.28 27.76 35.168C28.114 35.056 28.502 35 28.922 35C29.808 35 30.504 35.2193 31.008 35.658C31.521 36.0967 31.778 36.68 31.778 37.408C31.778 37.828 31.647 38.2107 31.386 38.556C31.124 38.9013 30.812 39.1953 30.448 39.438V39.494C30.69 39.6153 30.914 39.746 31.12 39.886C31.334 40.026 31.516 40.1893 31.666 40.376C31.824 40.5533 31.946 40.7633 32.03 41.006C32.123 41.2393 32.17 41.51 32.17 41.818C32.17 42.1633 32.095 42.4853 31.946 42.784C31.806 43.0733 31.596 43.33 31.316 43.554C31.036 43.7687 30.69 43.9367 30.28 44.058C29.869 44.1793 29.402 44.24 28.88 44.24C28.366 44.24 27.904 44.1793 27.494 44.058C27.083 43.9367 26.733 43.7687 26.444 43.554C26.164 43.3393 25.944 43.0827 25.786 42.784C25.636 42.4853 25.562 42.154 25.562 41.79ZM53.783 39.508C54.091 39.508 54.413 39.4287 54.749 39.27C55.085 39.1113 55.416 38.8407 55.743 38.458C55.64 37.674 55.416 37.1093 55.071 36.764C54.726 36.4093 54.301 36.232 53.797 36.232C53.573 36.232 53.363 36.2693 53.167 36.344C52.971 36.4187 52.798 36.526 52.649 36.666C52.509 36.806 52.392 36.9833 52.299 37.198C52.215 37.4033 52.173 37.6413 52.173 37.912C52.173 38.444 52.313 38.8453 52.593 39.116C52.882 39.3773 53.279 39.508 53.783 39.508ZM51.697 42.252C51.912 42.448 52.164 42.6113 52.453 42.742C52.742 42.8633 53.05 42.924 53.377 42.924C53.685 42.924 53.979 42.868 54.259 42.756C54.548 42.644 54.8 42.4573 55.015 42.196C55.239 41.9347 55.421 41.594 55.561 41.174C55.701 40.7447 55.78 40.222 55.799 39.606C55.444 39.9327 55.062 40.194 54.651 40.39C54.25 40.5767 53.853 40.67 53.461 40.67C53.06 40.67 52.686 40.614 52.341 40.502C52.005 40.39 51.716 40.222 51.473 39.998C51.23 39.7647 51.039 39.4753 50.899 39.13C50.759 38.7847 50.689 38.3787 50.689 37.912C50.689 37.464 50.773 37.0627 50.941 36.708C51.109 36.344 51.333 36.036 51.613 35.784C51.893 35.532 52.22 35.3407 52.593 35.21C52.966 35.07 53.358 35 53.769 35C54.245 35 54.693 35.0887 55.113 35.266C55.542 35.434 55.916 35.6953 56.233 36.05C56.56 36.4047 56.816 36.8573 57.003 37.408C57.19 37.9493 57.283 38.5933 57.283 39.34C57.283 40.208 57.176 40.95 56.961 41.566C56.756 42.182 56.476 42.6907 56.121 43.092C55.776 43.484 55.374 43.7733 54.917 43.96C54.46 44.1467 53.988 44.24 53.503 44.24C52.915 44.24 52.397 44.142 51.949 43.946C51.501 43.75 51.128 43.512 50.829 43.232L51.697 42.252Z" transform="translate(270.872 53.856) scale(2)" fill="#0C570A"/>
</svg>

