<svg width="1120" height="734" viewBox="0 0 1120 734" version="1.1" xmlns="http://www.w3.org/2000/svg" xmlns:xlink="http://www.w3.org/1999/xlink">
<title>Frame</title>
<desc>Created using Figma</desc>
<g id="Canvas" transform="matrix(2 0 0 2 154 888)">
<clipPath id="clip-0" clip-rule="evenodd">
<path d="M -77 -444L 483 -444L 483 -77L -77 -77L -77 -444Z" fill="#FFFFFF"/>
</clipPath>
<g id="Frame" clip-path="url(#clip-0)">
<path d="M -77 -444L 483 -444L 483 -77L -77 -77L -77 -444Z" fill="#FFFFFF"/>
<g id="Group">
<g id="Rectangle">
<use xlink:href="#path0_stroke" transform="translate(241 -247)"/>
</g>
<g id="False">
<use xlink:href="#path1_fill" transform="translate(242.644 -241.2)" fill="#EB5757"/>
</g>
<g id="False">
<use xlink:href="#path1_fill" transform="translate(243 -214)" fill="#EB5757"/>
</g>
<g id="Rectangle">
<use xlink:href="#path0_stroke" transform="translate(241 -218)"/>
</g>
<g id="True">
<use xlink:href="#path2_fill" transform="translate(241 -184)" fill="#27AE60"/>
</g>
<g id="Rectangle">
<use xlink:href="#path0_stroke" transform="translate(241 -189)"/>
</g>
<g id="Rectangle">
<use xlink:href="#path0_stroke" transform="translate(241 -160)"/>
</g>
<g id="True">
<use xlink:href="#path2_fill" transform="translate(242.644 -154.2)" fill="#27AE60"/>
</g>
<g id="Rectangle">
<use xlink:href="#path0_stroke" transform="translate(241 -131)"/>
</g>
<g id="True">
<use xlink:href="#path2_fill" transform="translate(242.644 -125.2)" fill="#27AE60"/>
</g>
</g>
<g id="a">
<use xlink:href="#path3_fill" transform="translate(340 -289)" fill="#4F4F4F"/>
</g>
<g id="a">
<use xlink:href="#path3_fill" transform="translate(422 -99)" fill="#4F4F4F"/>
</g>
<g id="Group">
<g id="Rectangle">
<use xlink:href="#path4_fill" transform="translate(-71 -195)" fill="#F1F4F8"/>
</g>
<g id="a[a &#62; 2] = 99">
<use xlink:href="#path5_fill" transform="translate(-57.0952 -193.727)" fill="#2E383C"/>
<use xlink:href="#path6_fill" transform="translate(-57.0952 -193.727)" fill="#A541F8"/>
<use xlink:href="#path7_fill" transform="translate(-57.0952 -193.727)" fill="#0C570A"/>
</g>
</g>
<g id="Group 2">
<g id="Vector">
<use xlink:href="#path8_fill" transform="translate(314 -189)" fill="#27AE60" fill-opacity="0.4"/>
</g>
<g id="Arrow">
<use xlink:href="#path9_stroke" transform="translate(319 -174)" fill="#FFFFFF"/>
</g>
<g id="Arrow">
<use xlink:href="#path9_stroke" transform="translate(400 -174)" fill="#FFFFFF"/>
</g>
</g>
<g id="Group 2.1">
<g id="Vector">
<use xlink:href="#path8_fill" transform="translate(314 -160)" fill="#27AE60" fill-opacity="0.4"/>
</g>
<g id="Arrow">
<use xlink:href="#path9_stroke" transform="translate(319 -145)" fill="#FFFFFF"/>
</g>
<g id="Arrow">
<use xlink:href="#path9_stroke" transform="translate(400 -145)" fill="#FFFFFF"/>
</g>
</g>
<g id="Group 2.2">
<g id="Vector">
<use xlink:href="#path8_fill" transform="translate(314 -131)" fill="#27AE60" fill-opacity="0.4"/>
</g>
<g id="Arrow">
<use xlink:href="#path9_stroke" transform="translate(319 -116)" fill="#FFFFFF"/>
</g>
<g id="Arrow">
<use xlink:href="#path9_stroke" transform="translate(400 -116)" fill="#FFFFFF"/>
</g>
</g>
<g id="Rectangle">
<use xlink:href="#path10_stroke" transform="translate(340 -436)"/>
</g>
<g id="1">
<use xlink:href="#path11_fill" transform="translate(341.205 -430.2)"/>
</g>
<g id="Rectangle">
<use xlink:href="#path10_stroke" transform="translate(340 -407)"/>
</g>
<g id="2">
<use xlink:href="#path12_fill" transform="translate(341.205 -401.2)"/>
</g>
<g id="Rectangle">
<use xlink:href="#path10_stroke" transform="translate(340 -378)"/>
</g>
<g id="3">
<use xlink:href="#path13_fill" transform="translate(341.205 -372.2)"/>
</g>
<g id="Rectangle">
<use xlink:href="#path10_stroke" transform="translate(340 -349)"/>
</g>
<g id="4">
<use xlink:href="#path14_fill" transform="translate(341.205 -343.2)"/>
</g>
<g id="Rectangle">
<use xlink:href="#path10_stroke" transform="translate(340 -320)"/>
</g>
<g id="5">
<use xlink:href="#path15_fill" transform="translate(341.205 -314.2)"/>
</g>
<g id="Rectangle">
<use xlink:href="#path10_stroke" transform="translate(422 -247)"/>
</g>
<g id="1">
<use xlink:href="#path11_fill" transform="translate(423.205 -241.2)"/>
</g>
<g id="Rectangle">
<use xlink:href="#path10_stroke" transform="translate(422 -218)"/>
</g>
<g id="2">
<use xlink:href="#path12_fill" transform="translate(423.205 -212.2)"/>
</g>
<g id="Rectangle">
<use xlink:href="#path10_stroke" transform="translate(422 -189)"/>
</g>
<g id="99">
<use xlink:href="#path16_fill" transform="translate(423.205 -183.2)" fill="#27AE60"/>
</g>
<g id="Rectangle">
<use xlink:href="#path10_stroke" transform="translate(422 -160)"/>
</g>
<g id="99">
<use xlink:href="#path16_fill" transform="translate(423.205 -154.2)" fill="#27AE60"/>
</g>
<g id="Rectangle">
<use xlink:href="#path10_stroke" transform="translate(422 -131)"/>
</g>
<g id="99">
<use xlink:href="#path16_fill" transform="translate(423.205 -125.2)" fill="#27AE60"/>
</g>
<g id="Rectangle">
<use xlink:href="#path10_stroke" transform="translate(340 -247)"/>
</g>
<g id="1">
<use xlink:href="#path11_fill" transform="translate(341.205 -241.2)"/>
</g>
<g id="Rectangle">
<use xlink:href="#path10_stroke" transform="translate(340 -218)"/>
</g>
<g id="2">
<use xlink:href="#path12_fill" transform="translate(341.205 -212.2)"/>
</g>
<g id="Rectangle">
<use xlink:href="#path10_stroke" transform="translate(340 -189)"/>
</g>
<g id="3">
<use xlink:href="#path13_fill" transform="translate(341.205 -183.2)"/>
</g>
<g id="Rectangle">
<use xlink:href="#path10_stroke" transform="translate(340 -160)"/>
</g>
<g id="4">
<use xlink:href="#path14_fill" transform="translate(341.205 -154.2)"/>
</g>
<g id="Rectangle">
<use xlink:href="#path10_stroke" transform="translate(340 -131)"/>
</g>
<g id="5">
<use xlink:href="#path15_fill" transform="translate(341.205 -125.2)"/>
</g>
<g id="Group">
<g id="Rectangle">
<use xlink:href="#path4_fill" transform="translate(-71 -385)" fill="#F1F4F8"/>
</g>
<g id="a = np.array([1, 2, 3, 4, 5])">
<use xlink:href="#path17_fill" transform="translate(-57.0952 -383.727)" fill="#2E383C"/>
<use xlink:href="#path18_fill" transform="translate(-57.0952 -383.727)" fill="#0C570A"/>
</g>
</g>
</g>
</g>
<defs>
<path id="path0_stroke" d="M 0 0L 0 -0.5L -0.5 -0.5L -0.5 0L 0 0ZM 72.3333 0L 72.8333 0L 72.8333 -0.5L 72.3333 -0.5L 72.3333 0ZM 72.3333 29L 72.3333 29.5L 72.8333 29.5L 72.8333 29L 72.3333 29ZM 0 29L -0.5 29L -0.5 29.5L 0 29.5L 0 29ZM 0 0.5L 72.3333 0.5L 72.3333 -0.5L 0 -0.5L 0 0.5ZM 71.8333 0L 71.8333 29L 72.8333 29L 72.8333 0L 71.8333 0ZM 72.3333 28.5L 0 28.5L 0 29.5L 72.3333 29.5L 72.3333 28.5ZM 0.5 29L 0.5 0L -0.5 0L -0.5 29L 0.5 29Z"/>
<path id="path1_fill" d="M 22.1544 11.3486L 16.7843 11.3486L 16.7843 17L 15.0968 17L 15.0968 4.20312L 23.0245 4.20312L 23.0245 5.5918L 16.7843 5.5918L 16.7843 9.96875L 22.1544 9.96875L 22.1544 11.3486ZM 30.3634 17C 30.2696 16.8125 30.1935 16.4785 30.1349 15.998C 29.379 16.7832 28.4767 17.1758 27.4279 17.1758C 26.4904 17.1758 25.7198 16.9121 25.1163 16.3848C 24.5187 15.8516 24.2198 15.1777 24.2198 14.3633C 24.2198 13.373 24.5948 12.6055 25.3448 12.0605C 26.1007 11.5098 27.1613 11.2344 28.5265 11.2344L 30.1085 11.2344L 30.1085 10.4873C 30.1085 9.91895 29.9386 9.46777 29.5988 9.13379C 29.2589 8.79395 28.7579 8.62402 28.0958 8.62402C 27.5157 8.62402 27.0294 8.77051 26.6368 9.06348C 26.2443 9.35645 26.048 9.71094 26.048 10.127L 24.4132 10.127C 24.4132 9.65234 24.5802 9.19531 24.9142 8.75586C 25.254 8.31055 25.7111 7.95898 26.2853 7.70117C 26.8654 7.44336 27.5011 7.31445 28.1925 7.31445C 29.2882 7.31445 30.1466 7.58984 30.7677 8.14062C 31.3888 8.68555 31.7111 9.43848 31.7345 10.3994L 31.7345 14.7764C 31.7345 15.6494 31.8458 16.3438 32.0685 16.8594L 32.0685 17L 30.3634 17ZM 27.6652 15.7607C 28.1749 15.7607 28.6583 15.6289 29.1154 15.3652C 29.5724 15.1016 29.9034 14.7588 30.1085 14.3369L 30.1085 12.3857L 28.8341 12.3857C 26.8419 12.3857 25.8458 12.9688 25.8458 14.1348C 25.8458 14.6445 26.0157 15.043 26.3556 15.3301C 26.6954 15.6172 27.132 15.7607 27.6652 15.7607ZM 36.0499 17L 34.4239 17L 34.4239 3.5L 36.0499 3.5L 36.0499 17ZM 44.1974 14.4775C 44.1974 14.0381 44.0304 13.6982 43.6964 13.458C 43.3683 13.2119 42.7911 13.001 41.965 12.8252C 41.1446 12.6494 40.4913 12.4385 40.005 12.1924C 39.5245 11.9463 39.1671 11.6533 38.9327 11.3135C 38.7042 10.9736 38.59 10.5693 38.59 10.1006C 38.59 9.32129 38.9181 8.66211 39.5743 8.12305C 40.2364 7.58398 41.0802 7.31445 42.1056 7.31445C 43.1837 7.31445 44.0568 7.59277 44.7247 8.14941C 45.3986 8.70605 45.7355 9.41797 45.7355 10.2852L 44.1007 10.2852C 44.1007 9.83984 43.9103 9.45605 43.5294 9.13379C 43.1544 8.81152 42.6798 8.65039 42.1056 8.65039C 41.5138 8.65039 41.0509 8.7793 40.7169 9.03711C 40.3829 9.29492 40.2159 9.63184 40.2159 10.0479C 40.2159 10.4404 40.3712 10.7363 40.6818 10.9355C 40.9923 11.1348 41.5519 11.3252 42.3605 11.5068C 43.1749 11.6885 43.8341 11.9053 44.338 12.1572C 44.8419 12.4092 45.214 12.7139 45.4542 13.0713C 45.7003 13.4229 45.8234 13.8535 45.8234 14.3633C 45.8234 15.2129 45.4835 15.8955 44.8038 16.4111C 44.1241 16.9209 43.2423 17.1758 42.1583 17.1758C 41.3966 17.1758 40.7228 17.041 40.1368 16.7715C 39.5509 16.502 39.0909 16.127 38.757 15.6465C 38.4288 15.1602 38.2648 14.6357 38.2648 14.0732L 39.8907 14.0732C 39.92 14.6182 40.1368 15.0518 40.5411 15.374C 40.9513 15.6904 41.4904 15.8486 42.1583 15.8486C 42.7736 15.8486 43.2657 15.7256 43.6349 15.4795C 44.0099 15.2275 44.1974 14.8936 44.1974 14.4775ZM 51.8878 17.1758C 50.5988 17.1758 49.5499 16.7539 48.7413 15.9102C 47.9327 15.0605 47.5284 13.9268 47.5284 12.5088L 47.5284 12.21C 47.5284 11.2666 47.7071 10.4258 48.0646 9.6875C 48.4279 8.94336 48.9318 8.36328 49.5763 7.94727C 50.2267 7.52539 50.9298 7.31445 51.6857 7.31445C 52.922 7.31445 53.8829 7.72168 54.5685 8.53613C 55.254 9.35059 55.5968 10.5166 55.5968 12.0342L 55.5968 12.7109L 49.1544 12.7109C 49.1779 13.6484 49.4503 14.4072 49.9718 14.9873C 50.4991 15.5615 51.1671 15.8486 51.9757 15.8486C 52.5499 15.8486 53.0363 15.7314 53.4347 15.4971C 53.8331 15.2627 54.1818 14.9521 54.4806 14.5654L 55.4738 15.3389C 54.6769 16.5635 53.4816 17.1758 51.8878 17.1758ZM 51.6857 8.65039C 51.0294 8.65039 50.4786 8.89062 50.0333 9.37109C 49.588 9.8457 49.3126 10.5137 49.2071 11.375L 53.9708 11.375L 53.9708 11.252C 53.9239 10.4258 53.7013 9.78711 53.3029 9.33594C 52.9044 8.87891 52.3654 8.65039 51.6857 8.65039Z"/>
<path id="path2_fill" d="M 27.4366 5.5918L 23.3234 5.5918L 23.3234 17L 21.6446 17L 21.6446 5.5918L 17.5402 5.5918L 17.5402 4.20312L 27.4366 4.20312L 27.4366 5.5918ZM 33.0089 8.94922C 32.7628 8.9082 32.4962 8.8877 32.2091 8.8877C 31.1427 8.8877 30.4191 9.3418 30.0382 10.25L 30.0382 17L 28.4122 17L 28.4122 7.49023L 29.9943 7.49023L 30.0206 8.58887C 30.5538 7.73926 31.3097 7.31445 32.2882 7.31445C 32.6046 7.31445 32.8448 7.35547 33.0089 7.4375L 33.0089 8.94922ZM 40.3829 16.0596C 39.7501 16.8037 38.8214 17.1758 37.5968 17.1758C 36.5831 17.1758 35.8097 16.8828 35.2765 16.2969C 34.7491 15.7051 34.4825 14.832 34.4767 13.6777L 34.4767 7.49023L 36.1027 7.49023L 36.1027 13.6338C 36.1027 15.0752 36.6886 15.7959 37.8605 15.7959C 39.1027 15.7959 39.9288 15.333 40.339 14.4072L 40.339 7.49023L 41.965 7.49023L 41.965 17L 40.4181 17L 40.3829 16.0596ZM 48.3898 17.1758C 47.1007 17.1758 46.0519 16.7539 45.2433 15.9102C 44.4347 15.0605 44.0304 13.9268 44.0304 12.5088L 44.0304 12.21C 44.0304 11.2666 44.2091 10.4258 44.5665 9.6875C 44.9298 8.94336 45.4337 8.36328 46.0782 7.94727C 46.7286 7.52539 47.4318 7.31445 48.1876 7.31445C 49.4239 7.31445 50.3849 7.72168 51.0704 8.53613C 51.756 9.35059 52.0988 10.5166 52.0988 12.0342L 52.0988 12.7109L 45.6564 12.7109C 45.6798 13.6484 45.9523 14.4072 46.4738 14.9873C 47.0011 15.5615 47.6691 15.8486 48.4777 15.8486C 49.0519 15.8486 49.5382 15.7314 49.9366 15.4971C 50.3351 15.2627 50.6837 14.9521 50.9825 14.5654L 51.9757 15.3389C 51.1788 16.5635 49.9835 17.1758 48.3898 17.1758ZM 48.1876 8.65039C 47.5314 8.65039 46.9806 8.89062 46.5353 9.37109C 46.09 9.8457 45.8146 10.5137 45.7091 11.375L 50.4728 11.375L 50.4728 11.252C 50.4259 10.4258 50.2032 9.78711 49.8048 9.33594C 49.4064 8.87891 48.8673 8.65039 48.1876 8.65039Z"/>
<path id="path3_fill" d="M 23.1567 12.068C 23.1567 11.676 23.2407 11.3353 23.4087 11.046C 23.5767 10.7473 23.8427 10.4953 24.2067 10.29C 24.5801 10.0847 25.0561 9.92133 25.6347 9.8C 26.2134 9.66933 26.9134 9.58067 27.7347 9.534C 27.6974 9.21667 27.5574 8.96933 27.3147 8.792C 27.0814 8.61467 26.7267 8.526 26.2507 8.526C 25.9147 8.526 25.5741 8.58667 25.2287 8.708C 24.8927 8.82 24.5287 8.974 24.1367 9.17L 23.4087 7.826C 23.8847 7.55533 24.3934 7.33133 24.9347 7.154C 25.4854 6.97667 26.0594 6.888 26.6567 6.888C 27.6274 6.888 28.3927 7.14467 28.9527 7.658C 29.5127 8.17133 29.7927 8.96 29.7927 10.024L 29.7927 14L 28.1127 14L 27.9587 13.216L 27.9027 13.216C 27.5481 13.4867 27.1607 13.7153 26.7407 13.902C 26.3207 14.0793 25.8867 14.168 25.4387 14.168C 25.0841 14.168 24.7667 14.112 24.4867 14C 24.2067 13.8973 23.9687 13.7527 23.7727 13.566C 23.5767 13.37 23.4227 13.146 23.3107 12.894C 23.2081 12.642 23.1567 12.3667 23.1567 12.068ZM 25.1307 11.914C 25.1307 12.138 25.2147 12.306 25.3827 12.418C 25.5601 12.5207 25.7981 12.572 26.0967 12.572C 26.4047 12.572 26.6941 12.5113 26.9647 12.39C 27.2354 12.2593 27.4921 12.1007 27.7347 11.914L 27.7347 10.766C 27.2214 10.794 26.7967 10.8407 26.4607 10.906C 26.1247 10.9713 25.8587 11.0553 25.6627 11.158C 25.4667 11.2513 25.3267 11.3633 25.2427 11.494C 25.1681 11.6247 25.1307 11.7647 25.1307 11.914Z"/>
<path id="path4_fill" d="M 0 0L 292 0L 292 42L 0 42L 0 0Z"/>
<path id="path5_fill" d="M 0.994 12.152C 0.994 11.7693 1.08267 11.4333 1.26 11.144C 1.43733 10.8453 1.71733 10.5933 2.1 10.388C 2.48267 10.1827 2.97267 10.0147 3.57 9.884C 4.16733 9.75333 4.89067 9.66 5.74 9.604C 5.712 9.212 5.572 8.89 5.32 8.638C 5.068 8.386 4.662 8.26 4.102 8.26C 3.71 8.26 3.32267 8.33467 2.94 8.484C 2.56667 8.624 2.20267 8.792 1.848 8.988L 1.26 7.91C 1.68 7.66733 2.16067 7.448 2.702 7.252C 3.24333 7.056 3.808 6.958 4.396 6.958C 5.35733 6.958 6.09 7.21467 6.594 7.728C 7.098 8.232 7.35 8.96467 7.35 9.926L 7.35 14L 6.034 14L 5.908 13.146L 5.866 13.146C 5.502 13.426 5.096 13.6687 4.648 13.874C 4.20933 14.07 3.75667 14.168 3.29 14.168C 2.954 14.168 2.646 14.1167 2.366 14.014C 2.086 13.9207 1.84333 13.7853 1.638 13.608C 1.43267 13.4307 1.274 13.2207 1.162 12.978C 1.05 12.726 0.994 12.4507 0.994 12.152ZM 2.548 12.026C 2.548 12.334 2.66467 12.558 2.898 12.698C 3.14067 12.838 3.43467 12.908 3.78 12.908C 4.12533 12.908 4.45667 12.8333 4.774 12.684C 5.10067 12.5253 5.42267 12.32 5.74 12.068L 5.74 10.612C 5.124 10.6587 4.61067 10.724 4.2 10.808C 3.78933 10.8827 3.46267 10.9807 3.22 11.102C 2.97733 11.2233 2.80467 11.3633 2.702 11.522C 2.59933 11.6713 2.548 11.8393 2.548 12.026ZM 11.3765 4.088L 15.3805 4.088L 15.3805 4.97L 12.6225 4.97L 12.6225 15.246L 15.3805 15.246L 15.3805 16.128L 11.3765 16.128L 11.3765 4.088ZM 17.7831 12.152C 17.7831 11.7693 17.8717 11.4333 18.0491 11.144C 18.2264 10.8453 18.5064 10.5933 18.8891 10.388C 19.2717 10.1827 19.7617 10.0147 20.3591 9.884C 20.9564 9.75333 21.6797 9.66 22.5291 9.604C 22.5011 9.212 22.3611 8.89 22.1091 8.638C 21.8571 8.386 21.4511 8.26 20.8911 8.26C 20.4991 8.26 20.1117 8.33467 19.7291 8.484C 19.3557 8.624 18.9917 8.792 18.6371 8.988L 18.0491 7.91C 18.4691 7.66733 18.9497 7.448 19.4911 7.252C 20.0324 7.056 20.5971 6.958 21.1851 6.958C 22.1464 6.958 22.8791 7.21467 23.3831 7.728C 23.8871 8.232 24.1391 8.96467 24.1391 9.926L 24.1391 14L 22.8231 14L 22.6971 13.146L 22.6551 13.146C 22.2911 13.426 21.8851 13.6687 21.4371 13.874C 20.9984 14.07 20.5457 14.168 20.0791 14.168C 19.7431 14.168 19.4351 14.1167 19.1551 14.014C 18.8751 13.9207 18.6324 13.7853 18.4271 13.608C 18.2217 13.4307 18.0631 13.2207 17.9511 12.978C 17.8391 12.726 17.7831 12.4507 17.7831 12.152ZM 19.3371 12.026C 19.3371 12.334 19.4537 12.558 19.6871 12.698C 19.9297 12.838 20.2237 12.908 20.5691 12.908C 20.9144 12.908 21.2457 12.8333 21.5631 12.684C 21.8897 12.5253 22.2117 12.32 22.5291 12.068L 22.5291 10.612C 21.9131 10.6587 21.3997 10.724 20.9891 10.808C 20.5784 10.8827 20.2517 10.9807 20.0091 11.102C 19.7664 11.2233 19.5937 11.3633 19.4911 11.522C 19.3884 11.6713 19.3371 11.8393 19.3371 12.026ZM 62.9337 15.246L 62.9337 4.97L 60.1897 4.97L 60.1897 4.088L 64.1937 4.088L 64.1937 16.128L 60.1897 16.128L 60.1897 15.246L 62.9337 15.246ZM 76.6428 7.224L 82.8588 7.224L 82.8588 8.4L 76.6428 8.4L 76.6428 7.224ZM 76.6428 10.346L 82.8588 10.346L 82.8588 11.522L 76.6428 11.522L 76.6428 10.346Z"/>
<path id="path6_fill" d="M 40.3261 9.926L 35.0061 13.454L 35.0061 11.956L 38.9681 9.38L 38.9681 9.324L 35.0061 6.748L 35.0061 5.25L 40.3261 8.778L 40.3261 9.926Z"/>
<path id="path7_fill" d="M 51.2772 13.062C 51.9772 12.4647 52.6025 11.9187 53.1532 11.424C 53.7039 10.92 54.1705 10.4533 54.5532 10.024C 54.9452 9.59467 55.2439 9.19333 55.4492 8.82C 55.6545 8.44667 55.7572 8.08733 55.7572 7.742C 55.7572 7.266 55.6125 6.89267 55.3232 6.622C 55.0339 6.342 54.6092 6.202 54.0492 6.202C 53.6572 6.202 53.2979 6.3 52.9712 6.496C 52.6539 6.692 52.3599 6.92533 52.0892 7.196L 51.2072 6.3C 51.6365 5.86133 52.0892 5.52533 52.5652 5.292C 53.0412 5.04933 53.6059 4.928 54.2592 4.928C 54.7165 4.928 55.1319 4.99333 55.5052 5.124C 55.8785 5.25467 56.1959 5.44133 56.4572 5.684C 56.7279 5.91733 56.9332 6.202 57.0732 6.538C 57.2225 6.874 57.2972 7.24733 57.2972 7.658C 57.2972 8.05 57.1992 8.45133 57.0032 8.862C 56.8165 9.26333 56.5599 9.674 56.2332 10.094C 55.9065 10.5047 55.5145 10.9293 55.0572 11.368C 54.6092 11.8067 54.1285 12.2593 53.6152 12.726C 53.8765 12.7073 54.1519 12.6887 54.4412 12.67C 54.7305 12.642 54.9965 12.628 55.2392 12.628L 57.7592 12.628L 57.7592 14L 51.2772 14L 51.2772 13.062ZM 96.2738 9.436C 96.5818 9.436 96.9038 9.35667 97.2398 9.198C 97.5758 9.03933 97.9072 8.76867 98.2338 8.386C 98.1312 7.602 97.9072 7.03733 97.5618 6.692C 97.2165 6.33733 96.7918 6.16 96.2878 6.16C 96.0638 6.16 95.8538 6.19733 95.6578 6.272C 95.4618 6.34667 95.2892 6.454 95.1398 6.594C 94.9998 6.734 94.8832 6.91133 94.7898 7.126C 94.7058 7.33133 94.6638 7.56933 94.6638 7.84C 94.6638 8.372 94.8038 8.77333 95.0838 9.044C 95.3732 9.30533 95.7698 9.436 96.2738 9.436ZM 94.1878 12.18C 94.4025 12.376 94.6545 12.5393 94.9438 12.67C 95.2332 12.7913 95.5412 12.852 95.8678 12.852C 96.1758 12.852 96.4698 12.796 96.7498 12.684C 97.0392 12.572 97.2912 12.3853 97.5058 12.124C 97.7298 11.8627 97.9118 11.522 98.0518 11.102C 98.1918 10.6727 98.2712 10.15 98.2898 9.534C 97.9352 9.86067 97.5525 10.122 97.1418 10.318C 96.7405 10.5047 96.3438 10.598 95.9518 10.598C 95.5505 10.598 95.1772 10.542 94.8318 10.43C 94.4958 10.318 94.2065 10.15 93.9638 9.926C 93.7212 9.69267 93.5298 9.40333 93.3898 9.058C 93.2498 8.71267 93.1798 8.30667 93.1798 7.84C 93.1798 7.392 93.2638 6.99067 93.4318 6.636C 93.5998 6.272 93.8238 5.964 94.1038 5.712C 94.3838 5.46 94.7105 5.26867 95.0838 5.138C 95.4572 4.998 95.8492 4.928 96.2598 4.928C 96.7358 4.928 97.1838 5.01667 97.6038 5.194C 98.0332 5.362 98.4065 5.62333 98.7238 5.978C 99.0505 6.33267 99.3072 6.78533 99.4938 7.336C 99.6805 7.87733 99.7738 8.52133 99.7738 9.268C 99.7738 10.136 99.6665 10.878 99.4518 11.494C 99.2465 12.11 98.9665 12.6187 98.6118 13.02C 98.2665 13.412 97.8652 13.7013 97.4078 13.888C 96.9505 14.0747 96.4792 14.168 95.9938 14.168C 95.4058 14.168 94.8878 14.07 94.4398 13.874C 93.9918 13.678 93.6185 13.44 93.3198 13.16L 94.1878 12.18ZM 104.668 9.436C 104.976 9.436 105.298 9.35667 105.634 9.198C 105.97 9.03933 106.302 8.76867 106.628 8.386C 106.526 7.602 106.302 7.03733 105.956 6.692C 105.611 6.33733 105.186 6.16 104.682 6.16C 104.458 6.16 104.248 6.19733 104.052 6.272C 103.856 6.34667 103.684 6.454 103.534 6.594C 103.394 6.734 103.278 6.91133 103.184 7.126C 103.1 7.33133 103.058 7.56933 103.058 7.84C 103.058 8.372 103.198 8.77333 103.478 9.044C 103.768 9.30533 104.164 9.436 104.668 9.436ZM 102.582 12.18C 102.797 12.376 103.049 12.5393 103.338 12.67C 103.628 12.7913 103.936 12.852 104.262 12.852C 104.57 12.852 104.864 12.796 105.144 12.684C 105.434 12.572 105.686 12.3853 105.9 12.124C 106.124 11.8627 106.306 11.522 106.446 11.102C 106.586 10.6727 106.666 10.15 106.684 9.534C 106.33 9.86067 105.947 10.122 105.536 10.318C 105.135 10.5047 104.738 10.598 104.346 10.598C 103.945 10.598 103.572 10.542 103.226 10.43C 102.89 10.318 102.601 10.15 102.358 9.926C 102.116 9.69267 101.924 9.40333 101.784 9.058C 101.644 8.71267 101.574 8.30667 101.574 7.84C 101.574 7.392 101.658 6.99067 101.826 6.636C 101.994 6.272 102.218 5.964 102.498 5.712C 102.778 5.46 103.105 5.26867 103.478 5.138C 103.852 4.998 104.244 4.928 104.654 4.928C 105.13 4.928 105.578 5.01667 105.998 5.194C 106.428 5.362 106.801 5.62333 107.118 5.978C 107.445 6.33267 107.702 6.78533 107.888 7.336C 108.075 7.87733 108.168 8.52133 108.168 9.268C 108.168 10.136 108.061 10.878 107.846 11.494C 107.641 12.11 107.361 12.6187 107.006 13.02C 106.661 13.412 106.26 13.7013 105.802 13.888C 105.345 14.0747 104.874 14.168 104.388 14.168C 103.8 14.168 103.282 14.07 102.834 13.874C 102.386 13.678 102.013 13.44 101.714 13.16L 102.582 12.18Z"/>
<path id="path8_fill" d="M 109 29L 109 0L 0 0L 0 29L 109 29Z"/>
<path id="path9_stroke" d="M 16.7071 0.707107C 17.0976 0.316583 17.0976 -0.316583 16.7071 -0.707107L 10.3431 -7.07107C 9.95262 -7.46159 9.31946 -7.46159 8.92893 -7.07107C 8.53841 -6.68054 8.53841 -6.04738 8.92893 -5.65685L 14.5858 0L 8.92893 5.65685C 8.53841 6.04738 8.53841 6.68054 8.92893 7.07107C 9.31946 7.46159 9.95262 7.46159 10.3431 7.07107L 16.7071 0.707107ZM 0 1L 16 1L 16 -1L 0 -1L 0 1Z"/>
<path id="path10_stroke" d="M 0 0L 0 -0.5L -0.5 -0.5L -0.5 0L 0 0ZM 53 0L 53.5 0L 53.5 -0.5L 53 -0.5L 53 0ZM 53 29L 53 29.5L 53.5 29.5L 53.5 29L 53 29ZM 0 29L -0.5 29L -0.5 29.5L 0 29.5L 0 29ZM 0 0.5L 53 0.5L 53 -0.5L 0 -0.5L 0 0.5ZM 52.5 0L 52.5 29L 53.5 29L 53.5 0L 52.5 0ZM 53 28.5L 0 28.5L 0 29.5L 53 29.5L 53 28.5ZM 0.5 29L 0.5 0L -0.5 0L -0.5 29L 0.5 29Z"/>
<path id="path11_fill" d="M 26.9501 17L 25.3153 17L 25.3153 6.16309L 22.037 7.36719L 22.037 5.89062L 26.6952 4.1416L 26.9501 4.1416L 26.9501 17Z"/>
<path id="path12_fill" d="M 29.9911 17L 21.6064 17L 21.6064 15.8311L 26.036 10.9092C 26.6923 10.165 27.1435 9.56152 27.3896 9.09863C 27.6415 8.62988 27.7675 8.14648 27.7675 7.64844C 27.7675 6.98047 27.5653 6.43262 27.161 6.00488C 26.7567 5.57715 26.2177 5.36328 25.5439 5.36328C 24.7353 5.36328 24.1054 5.59473 23.6542 6.05762C 23.2089 6.51465 22.9862 7.15332 22.9862 7.97363L 21.3603 7.97363C 21.3603 6.7959 21.7382 5.84375 22.4941 5.11719C 23.2558 4.39063 24.2724 4.02734 25.5439 4.02734C 26.7333 4.02734 27.6737 4.34082 28.3651 4.96777C 29.0566 5.58887 29.4023 6.41797 29.4023 7.45508C 29.4023 8.71484 28.5995 10.2148 26.9941 11.9551L 23.5663 15.6729L 29.9911 15.6729L 29.9911 17Z"/>
<path id="path13_fill" d="M 23.9706 9.81055L 25.1923 9.81055C 25.9599 9.79883 26.5634 9.59668 27.0028 9.2041C 27.4423 8.81152 27.662 8.28125 27.662 7.61328C 27.662 6.11328 26.9149 5.36328 25.4208 5.36328C 24.7177 5.36328 24.1552 5.56543 23.7333 5.96973C 23.3173 6.36816 23.1093 6.89844 23.1093 7.56055L 21.4833 7.56055C 21.4833 6.54687 21.8524 5.70605 22.5907 5.03809C 23.3349 4.36426 24.2782 4.02734 25.4208 4.02734C 26.6278 4.02734 27.5741 4.34668 28.2597 4.98535C 28.9452 5.62402 29.288 6.51172 29.288 7.64844C 29.288 8.20508 29.1064 8.74414 28.7431 9.26562C 28.3857 9.78711 27.8964 10.1768 27.2753 10.4346C 27.9784 10.6572 28.5204 11.0264 28.9013 11.542C 29.288 12.0576 29.4814 12.6875 29.4814 13.4316C 29.4814 14.5801 29.1064 15.4912 28.3564 16.165C 27.6064 16.8389 26.6308 17.1758 25.4296 17.1758C 24.2284 17.1758 23.2499 16.8506 22.4941 16.2002C 21.7441 15.5498 21.3691 14.6914 21.3691 13.625L 23.0038 13.625C 23.0038 14.2988 23.2235 14.8379 23.663 15.2422C 24.1024 15.6465 24.6913 15.8486 25.4296 15.8486C 26.2148 15.8486 26.8153 15.6436 27.2314 15.2334C 27.6474 14.8232 27.8554 14.2344 27.8554 13.4668C 27.8554 12.7227 27.6269 12.1514 27.1698 11.7529C 26.7128 11.3545 26.0536 11.1494 25.1923 11.1377L 23.9706 11.1377L 23.9706 9.81055Z"/>
<path id="path14_fill" d="M 28.4706 12.7021L 30.246 12.7021L 30.246 14.0293L 28.4706 14.0293L 28.4706 17L 26.8358 17L 26.8358 14.0293L 21.0087 14.0293L 21.0087 13.0713L 26.7392 4.20312L 28.4706 4.20312L 28.4706 12.7021ZM 22.8544 12.7021L 26.8358 12.7021L 26.8358 6.42676L 26.6425 6.77832L 22.8544 12.7021Z"/>
<path id="path15_fill" d="M 22.3534 10.584L 23.0038 4.20312L 29.5605 4.20312L 29.5605 5.70605L 24.3837 5.70605L 23.997 9.19531C 24.6239 8.82617 25.3358 8.6416 26.1327 8.6416C 27.2987 8.6416 28.2245 9.02832 28.9101 9.80176C 29.5956 10.5693 29.9384 11.6094 29.9384 12.9219C 29.9384 14.2402 29.581 15.2803 28.8661 16.042C 28.1571 16.7979 27.164 17.1758 25.8866 17.1758C 24.7558 17.1758 23.8329 16.8623 23.1181 16.2354C 22.4032 15.6084 21.996 14.7412 21.8964 13.6338L 23.4345 13.6338C 23.5341 14.3662 23.7948 14.9199 24.2167 15.2949C 24.6386 15.6641 25.1952 15.8486 25.8866 15.8486C 26.6425 15.8486 27.2343 15.5908 27.662 15.0752C 28.0956 14.5596 28.3124 13.8477 28.3124 12.9395C 28.3124 12.084 28.078 11.3984 27.6093 10.8828C 27.1464 10.3613 26.5282 10.1006 25.7548 10.1006C 25.0458 10.1006 24.4892 10.2559 24.0849 10.5664L 23.6542 10.918L 22.3534 10.584Z"/>
<path id="path16_fill" d="M 22.7841 11.375C 22.4442 11.7793 22.037 12.1045 21.5624 12.3506C 21.0937 12.5967 20.578 12.7197 20.0155 12.7197C 19.2773 12.7197 18.6327 12.5381 18.0819 12.1748C 17.537 11.8115 17.1151 11.3018 16.8163 10.6455C 16.5175 9.9834 16.3681 9.25391 16.3681 8.45703C 16.3681 7.60156 16.5292 6.83105 16.8515 6.14551C 17.1796 5.45996 17.6425 4.93555 18.2401 4.57227C 18.8378 4.20898 19.5351 4.02734 20.3319 4.02734C 21.5976 4.02734 22.5937 4.50195 23.3202 5.45117C 24.0526 6.39453 24.4189 7.68359 24.4189 9.31836L 24.4189 9.79297C 24.4189 12.2832 23.9267 14.1025 22.9423 15.251C 21.9579 16.3936 20.4726 16.9795 18.4862 17.0088L 18.1698 17.0088L 18.1698 15.6377L 18.5126 15.6377C 19.8544 15.6143 20.8857 15.2656 21.6064 14.5918C 22.3271 13.9121 22.7196 12.8398 22.7841 11.375ZM 20.2792 11.375C 20.8241 11.375 21.3251 11.208 21.7821 10.874C 22.245 10.54 22.5819 10.127 22.7929 9.63477L 22.7929 8.98438C 22.7929 7.91797 22.5614 7.05078 22.0985 6.38281C 21.6357 5.71484 21.0497 5.38086 20.3407 5.38086C 19.6259 5.38086 19.0517 5.65625 18.6181 6.20703C 18.1845 6.75195 17.9677 7.47266 17.9677 8.36914C 17.9677 9.24219 18.1757 9.96289 18.5917 10.5312C 19.0136 11.0938 19.5761 11.375 20.2792 11.375ZM 32.8915 11.375C 32.5517 11.7793 32.1444 12.1045 31.6698 12.3506C 31.2011 12.5967 30.6855 12.7197 30.123 12.7197C 29.3847 12.7197 28.7401 12.5381 28.1894 12.1748C 27.6444 11.8115 27.2226 11.3018 26.9237 10.6455C 26.6249 9.9834 26.4755 9.25391 26.4755 8.45703C 26.4755 7.60156 26.6366 6.83105 26.9589 6.14551C 27.287 5.45996 27.7499 4.93555 28.3476 4.57227C 28.9452 4.20898 29.6425 4.02734 30.4394 4.02734C 31.705 4.02734 32.7011 4.50195 33.4276 5.45117C 34.1601 6.39453 34.5263 7.68359 34.5263 9.31836L 34.5263 9.79297C 34.5263 12.2832 34.0341 14.1025 33.0497 15.251C 32.0653 16.3936 30.58 16.9795 28.5937 17.0088L 28.2773 17.0088L 28.2773 15.6377L 28.62 15.6377C 29.9618 15.6143 30.9931 15.2656 31.7138 14.5918C 32.4345 13.9121 32.8271 12.8398 32.8915 11.375ZM 30.3866 11.375C 30.9316 11.375 31.4325 11.208 31.8896 10.874C 32.3524 10.54 32.6894 10.127 32.9003 9.63477L 32.9003 8.98438C 32.9003 7.91797 32.6689 7.05078 32.206 6.38281C 31.7431 5.71484 31.1571 5.38086 30.4482 5.38086C 29.7333 5.38086 29.1591 5.65625 28.7255 6.20703C 28.2919 6.75195 28.0751 7.47266 28.0751 8.36914C 28.0751 9.24219 28.2831 9.96289 28.6991 10.5312C 29.121 11.0938 29.6835 11.375 30.3866 11.375Z"/>
<path id="path17_fill" d="M 0.994 12.152C 0.994 11.7693 1.08267 11.4333 1.26 11.144C 1.43733 10.8453 1.71733 10.5933 2.1 10.388C 2.48267 10.1827 2.97267 10.0147 3.57 9.884C 4.16733 9.75333 4.89067 9.66 5.74 9.604C 5.712 9.212 5.572 8.89 5.32 8.638C 5.068 8.386 4.662 8.26 4.102 8.26C 3.71 8.26 3.32267 8.33467 2.94 8.484C 2.56667 8.624 2.20267 8.792 1.848 8.988L 1.26 7.91C 1.68 7.66733 2.16067 7.448 2.702 7.252C 3.24333 7.056 3.808 6.958 4.396 6.958C 5.35733 6.958 6.09 7.21467 6.594 7.728C 7.098 8.232 7.35 8.96467 7.35 9.926L 7.35 14L 6.034 14L 5.908 13.146L 5.866 13.146C 5.502 13.426 5.096 13.6687 4.648 13.874C 4.20933 14.07 3.75667 14.168 3.29 14.168C 2.954 14.168 2.646 14.1167 2.366 14.014C 2.086 13.9207 1.84333 13.7853 1.638 13.608C 1.43267 13.4307 1.274 13.2207 1.162 12.978C 1.05 12.726 0.994 12.4507 0.994 12.152ZM 2.548 12.026C 2.548 12.334 2.66467 12.558 2.898 12.698C 3.14067 12.838 3.43467 12.908 3.78 12.908C 4.12533 12.908 4.45667 12.8333 4.774 12.684C 5.10067 12.5253 5.42267 12.32 5.74 12.068L 5.74 10.612C 5.124 10.6587 4.61067 10.724 4.2 10.808C 3.78933 10.8827 3.46267 10.9807 3.22 11.102C 2.97733 11.2233 2.80467 11.3633 2.702 11.522C 2.59933 11.6713 2.548 11.8393 2.548 12.026ZM 17.8811 7.224L 24.0971 7.224L 24.0971 8.4L 17.8811 8.4L 17.8811 7.224ZM 17.8811 10.346L 24.0971 10.346L 24.0971 11.522L 17.8811 11.522L 17.8811 10.346ZM 34.7261 7.126L 36.0561 7.126L 36.1821 8.162L 36.2381 8.162C 36.5648 7.83533 36.9241 7.55533 37.3161 7.322C 37.7175 7.07933 38.1841 6.958 38.7161 6.958C 39.5095 6.958 40.0928 7.20067 40.4661 7.686C 40.8395 8.162 41.0261 8.848 41.0261 9.744L 41.0261 14L 39.4021 14L 39.4021 9.954C 39.4021 9.394 39.3041 8.988 39.1081 8.736C 38.9215 8.47467 38.5901 8.344 38.1141 8.344C 37.7781 8.344 37.4795 8.42333 37.2181 8.582C 36.9568 8.74067 36.6675 8.98333 36.3501 9.31L 36.3501 14L 34.7261 14L 34.7261 7.126ZM 44.7447 14.56L 44.7447 16.716L 43.1207 16.716L 43.1207 7.126L 44.4507 7.126L 44.5767 7.91L 44.6187 7.91C 44.9173 7.63933 45.258 7.41533 45.6407 7.238C 46.0327 7.05133 46.4247 6.958 46.8167 6.958C 47.2647 6.958 47.6613 7.042 48.0067 7.21C 48.3613 7.36867 48.6553 7.602 48.8887 7.91C 49.1313 8.218 49.3133 8.58667 49.4347 9.016C 49.5653 9.44533 49.6307 9.926 49.6307 10.458C 49.6307 11.046 49.5467 11.5733 49.3787 12.04C 49.2107 12.4973 48.982 12.8847 48.6927 13.202C 48.4127 13.51 48.086 13.748 47.7127 13.916C 47.3487 14.084 46.9707 14.168 46.5787 14.168C 46.2613 14.168 45.9347 14.098 45.5987 13.958C 45.272 13.818 44.9687 13.6173 44.6887 13.356L 44.7447 14.56ZM 44.7447 12.208C 44.9967 12.4413 45.2533 12.6047 45.5147 12.698C 45.7853 12.7913 46.028 12.838 46.2427 12.838C 46.7373 12.838 47.148 12.642 47.4747 12.25C 47.8013 11.8487 47.9647 11.256 47.9647 10.472C 47.9647 9.78133 47.8387 9.24467 47.5867 8.862C 47.3347 8.47933 46.9287 8.288 46.3687 8.288C 46.1073 8.288 45.8413 8.35333 45.5707 8.484C 45.3 8.61467 45.0247 8.82467 44.7447 9.114L 44.7447 12.208ZM 53.1812 12.754C 53.1812 12.3433 53.3119 12.0073 53.5732 11.746C 53.8345 11.4753 54.1659 11.34 54.5672 11.34C 54.9685 11.34 55.2999 11.4753 55.5612 11.746C 55.8225 12.0073 55.9532 12.3433 55.9532 12.754C 55.9532 13.1647 55.8225 13.5053 55.5612 13.776C 55.2999 14.0373 54.9685 14.168 54.5672 14.168C 54.1659 14.168 53.8345 14.0373 53.5732 13.776C 53.3119 13.5053 53.1812 13.1647 53.1812 12.754ZM 59.7557 12.152C 59.7557 11.7693 59.8444 11.4333 60.0217 11.144C 60.1991 10.8453 60.4791 10.5933 60.8617 10.388C 61.2444 10.1827 61.7344 10.0147 62.3317 9.884C 62.9291 9.75333 63.6524 9.66 64.5017 9.604C 64.4737 9.212 64.3337 8.89 64.0817 8.638C 63.8297 8.386 63.4237 8.26 62.8637 8.26C 62.4717 8.26 62.0844 8.33467 61.7017 8.484C 61.3284 8.624 60.9644 8.792 60.6097 8.988L 60.0217 7.91C 60.4417 7.66733 60.9224 7.448 61.4637 7.252C 62.0051 7.056 62.5697 6.958 63.1577 6.958C 64.1191 6.958 64.8517 7.21467 65.3557 7.728C 65.8597 8.232 66.1117 8.96467 66.1117 9.926L 66.1117 14L 64.7957 14L 64.6697 13.146L 64.6277 13.146C 64.2637 13.426 63.8577 13.6687 63.4097 13.874C 62.9711 14.07 62.5184 14.168 62.0517 14.168C 61.7157 14.168 61.4077 14.1167 61.1277 14.014C 60.8477 13.9207 60.6051 13.7853 60.3997 13.608C 60.1944 13.4307 60.0357 13.2207 59.9237 12.978C 59.8117 12.726 59.7557 12.4507 59.7557 12.152ZM 61.3097 12.026C 61.3097 12.334 61.4264 12.558 61.6597 12.698C 61.9024 12.838 62.1964 12.908 62.5417 12.908C 62.8871 12.908 63.2184 12.8333 63.5357 12.684C 63.8624 12.5253 64.1844 12.32 64.5017 12.068L 64.5017 10.612C 63.8857 10.6587 63.3724 10.724 62.9617 10.808C 62.5511 10.8827 62.2244 10.9807 61.9817 11.102C 61.7391 11.2233 61.5664 11.3633 61.4637 11.522C 61.3611 11.6713 61.3097 11.8393 61.3097 12.026ZM 68.9762 7.126L 70.3062 7.126L 70.4462 8.68L 70.4883 8.68C 70.8429 8.12 71.2676 7.69533 71.7622 7.406C 72.2663 7.10733 72.8169 6.958 73.4142 6.958C 73.6943 6.958 73.9322 6.98133 74.1282 7.028C 74.3336 7.06533 74.5389 7.13533 74.7442 7.238L 74.4083 8.596C 74.1842 8.52133 73.9836 8.47 73.8062 8.442C 73.6382 8.40467 73.4236 8.386 73.1622 8.386C 72.6863 8.386 72.2289 8.52133 71.7903 8.792C 71.3516 9.06267 70.9549 9.534 70.6003 10.206L 70.6003 14L 68.9762 14L 68.9762 7.126ZM 77.3708 7.126L 78.7008 7.126L 78.8408 8.68L 78.8828 8.68C 79.2374 8.12 79.6621 7.69533 80.1568 7.406C 80.6608 7.10733 81.2114 6.958 81.8088 6.958C 82.0888 6.958 82.3268 6.98133 82.5228 7.028C 82.7281 7.06533 82.9334 7.13533 83.1388 7.238L 82.8028 8.596C 82.5788 8.52133 82.3781 8.47 82.2008 8.442C 82.0328 8.40467 81.8181 8.386 81.5568 8.386C 81.0808 8.386 80.6234 8.52133 80.1848 8.792C 79.7461 9.06267 79.3494 9.534 78.9948 10.206L 78.9948 14L 77.3708 14L 77.3708 7.126ZM 84.9393 12.152C 84.9393 11.7693 85.028 11.4333 85.2053 11.144C 85.3826 10.8453 85.6626 10.5933 86.0453 10.388C 86.428 10.1827 86.918 10.0147 87.5153 9.884C 88.1126 9.75333 88.836 9.66 89.6853 9.604C 89.6573 9.212 89.5173 8.89 89.2653 8.638C 89.0133 8.386 88.6073 8.26 88.0473 8.26C 87.6553 8.26 87.268 8.33467 86.8853 8.484C 86.512 8.624 86.148 8.792 85.7933 8.988L 85.2053 7.91C 85.6253 7.66733 86.106 7.448 86.6473 7.252C 87.1886 7.056 87.7533 6.958 88.3413 6.958C 89.3026 6.958 90.0353 7.21467 90.5393 7.728C 91.0433 8.232 91.2953 8.96467 91.2953 9.926L 91.2953 14L 89.9793 14L 89.8533 13.146L 89.8113 13.146C 89.4473 13.426 89.0413 13.6687 88.5933 13.874C 88.1546 14.07 87.702 14.168 87.2353 14.168C 86.8993 14.168 86.5913 14.1167 86.3113 14.014C 86.0313 13.9207 85.7886 13.7853 85.5833 13.608C 85.378 13.4307 85.2193 13.2207 85.1073 12.978C 84.9953 12.726 84.9393 12.4507 84.9393 12.152ZM 86.4933 12.026C 86.4933 12.334 86.61 12.558 86.8433 12.698C 87.086 12.838 87.38 12.908 87.7253 12.908C 88.0706 12.908 88.402 12.8333 88.7193 12.684C 89.046 12.5253 89.368 12.32 89.6853 12.068L 89.6853 10.612C 89.0693 10.6587 88.556 10.724 88.1453 10.808C 87.7346 10.8827 87.408 10.9807 87.1653 11.102C 86.9226 11.2233 86.75 11.3633 86.6473 11.522C 86.5446 11.6713 86.4933 11.8393 86.4933 12.026ZM 93.5858 15.428C 93.6792 15.456 93.7725 15.4793 93.8658 15.498C 93.9592 15.5167 94.0572 15.526 94.1598 15.526C 94.5985 15.526 94.9485 15.414 95.2098 15.19C 95.4712 14.9753 95.6718 14.6953 95.8118 14.35L 95.9798 13.916L 92.8998 7.126L 94.5098 7.126L 95.9238 10.5C 96.0545 10.808 96.1805 11.1347 96.3018 11.48C 96.4232 11.8253 96.5492 12.1707 96.6798 12.516L 96.7358 12.516C 96.8385 12.1893 96.9505 11.8533 97.0718 11.508C 97.1932 11.1627 97.3098 10.8267 97.4218 10.5L 98.6678 7.126L 100.194 7.126L 97.3238 14.308C 97.1745 14.7 97.0065 15.05 96.8198 15.358C 96.6425 15.666 96.4325 15.9273 96.1898 16.142C 95.9472 16.366 95.6672 16.534 95.3498 16.646C 95.0325 16.7673 94.6685 16.828 94.2578 16.828C 94.0712 16.828 93.8938 16.814 93.7258 16.786C 93.5578 16.7673 93.4085 16.7347 93.2778 16.688L 93.5858 15.428ZM 106.502 16.478C 105.56 15.694 104.813 14.77 104.262 13.706C 103.721 12.642 103.45 11.4427 103.45 10.108C 103.45 8.77333 103.721 7.574 104.262 6.51C 104.813 5.446 105.56 4.522 106.502 3.738L 107.398 4.48C 106.512 5.28267 105.863 6.13667 105.452 7.042C 105.042 7.94733 104.836 8.96933 104.836 10.108C 104.836 11.2467 105.042 12.2687 105.452 13.174C 105.863 14.0793 106.512 14.9333 107.398 15.736L 106.502 16.478ZM 112.111 4.088L 116.115 4.088L 116.115 4.97L 113.357 4.97L 113.357 15.246L 116.115 15.246L 116.115 16.128L 112.111 16.128L 112.111 4.088ZM 128.564 16.044C 129.749 15.568 130.347 14.8493 130.356 13.888C 130.309 13.8973 130.244 13.902 130.16 13.902C 129.805 13.902 129.497 13.7993 129.236 13.594C 128.975 13.3793 128.844 13.0667 128.844 12.656C 128.844 12.264 128.975 11.9607 129.236 11.746C 129.507 11.522 129.824 11.41 130.188 11.41C 130.692 11.41 131.07 11.5967 131.322 11.97C 131.574 12.3433 131.7 12.8567 131.7 13.51C 131.7 14.3687 131.467 15.092 131 15.68C 130.533 16.2773 129.861 16.7207 128.984 17.01L 128.564 16.044ZM 153.748 16.044C 154.933 15.568 155.53 14.8493 155.54 13.888C 155.493 13.8973 155.428 13.902 155.344 13.902C 154.989 13.902 154.681 13.7993 154.42 13.594C 154.158 13.3793 154.028 13.0667 154.028 12.656C 154.028 12.264 154.158 11.9607 154.42 11.746C 154.69 11.522 155.008 11.41 155.372 11.41C 155.876 11.41 156.254 11.5967 156.506 11.97C 156.758 12.3433 156.884 12.8567 156.884 13.51C 156.884 14.3687 156.65 15.092 156.184 15.68C 155.717 16.2773 155.045 16.7207 154.168 17.01L 153.748 16.044ZM 178.931 16.044C 180.116 15.568 180.714 14.8493 180.723 13.888C 180.676 13.8973 180.611 13.902 180.527 13.902C 180.172 13.902 179.864 13.7993 179.603 13.594C 179.342 13.3793 179.211 13.0667 179.211 12.656C 179.211 12.264 179.342 11.9607 179.603 11.746C 179.874 11.522 180.191 11.41 180.555 11.41C 181.059 11.41 181.437 11.5967 181.689 11.97C 181.941 12.3433 182.067 12.8567 182.067 13.51C 182.067 14.3687 181.834 15.092 181.367 15.68C 180.9 16.2773 180.228 16.7207 179.351 17.01L 178.931 16.044ZM 204.115 16.044C 205.3 15.568 205.897 14.8493 205.907 13.888C 205.86 13.8973 205.795 13.902 205.711 13.902C 205.356 13.902 205.048 13.7993 204.787 13.594C 204.525 13.3793 204.395 13.0667 204.395 12.656C 204.395 12.264 204.525 11.9607 204.787 11.746C 205.057 11.522 205.375 11.41 205.739 11.41C 206.243 11.41 206.621 11.5967 206.873 11.97C 207.125 12.3433 207.251 12.8567 207.251 13.51C 207.251 14.3687 207.017 15.092 206.551 15.68C 206.084 16.2773 205.412 16.7207 204.535 17.01L 204.115 16.044ZM 230.824 15.246L 230.824 4.97L 228.08 4.97L 228.08 4.088L 232.084 4.088L 232.084 16.128L 228.08 16.128L 228.08 15.246L 230.824 15.246ZM 236.783 15.736C 237.67 14.9333 238.318 14.0793 238.729 13.174C 239.14 12.2687 239.345 11.2467 239.345 10.108C 239.345 8.96933 239.14 7.94733 238.729 7.042C 238.318 6.13667 237.67 5.28267 236.783 4.48L 237.679 3.738C 238.622 4.522 239.364 5.446 239.905 6.51C 240.456 7.574 240.731 8.77333 240.731 10.108C 240.731 11.4427 240.456 12.642 239.905 13.706C 239.364 14.77 238.622 15.694 237.679 16.478L 236.783 15.736Z"/>
<path id="path18_fill" d="M 124.985 12.684L 124.985 14L 118.783 14L 118.783 12.684L 121.191 12.684L 121.191 6.832L 119.329 6.832L 119.329 5.824C 119.833 5.74 120.263 5.642 120.617 5.53C 120.981 5.40867 121.317 5.264 121.625 5.096L 122.801 5.096L 122.801 12.684L 124.985 12.684ZM 143.617 13.062C 144.317 12.4647 144.942 11.9187 145.493 11.424C 146.044 10.92 146.51 10.4533 146.893 10.024C 147.285 9.59467 147.584 9.19333 147.789 8.82C 147.994 8.44667 148.097 8.08733 148.097 7.742C 148.097 7.266 147.952 6.89267 147.663 6.622C 147.374 6.342 146.949 6.202 146.389 6.202C 145.997 6.202 145.638 6.3 145.311 6.496C 144.994 6.692 144.7 6.92533 144.429 7.196L 143.547 6.3C 143.976 5.86133 144.429 5.52533 144.905 5.292C 145.381 5.04933 145.946 4.928 146.599 4.928C 147.056 4.928 147.472 4.99333 147.845 5.124C 148.218 5.25467 148.536 5.44133 148.797 5.684C 149.068 5.91733 149.273 6.202 149.413 6.538C 149.562 6.874 149.637 7.24733 149.637 7.658C 149.637 8.05 149.539 8.45133 149.343 8.862C 149.156 9.26333 148.9 9.674 148.573 10.094C 148.246 10.5047 147.854 10.9293 147.397 11.368C 146.949 11.8067 146.468 12.2593 145.955 12.726C 146.216 12.7073 146.492 12.6887 146.781 12.67C 147.07 12.642 147.336 12.628 147.579 12.628L 150.099 12.628L 150.099 14L 143.617 14L 143.617 13.062ZM 169.347 11.872C 169.645 12.1427 169.991 12.376 170.383 12.572C 170.784 12.7587 171.227 12.852 171.713 12.852C 172.263 12.852 172.716 12.7353 173.071 12.502C 173.435 12.2593 173.617 11.928 173.617 11.508C 173.617 11.2747 173.565 11.0647 173.463 10.878C 173.36 10.6913 173.192 10.5327 172.959 10.402C 172.735 10.2713 172.431 10.1733 172.049 10.108C 171.675 10.0333 171.213 9.996 170.663 9.996L 170.663 8.82C 171.139 8.82 171.545 8.78733 171.881 8.722C 172.217 8.64733 172.487 8.54933 172.693 8.428C 172.907 8.29733 173.061 8.14333 173.155 7.966C 173.257 7.78867 173.309 7.59733 173.309 7.392C 173.309 7.01867 173.164 6.72933 172.875 6.524C 172.595 6.30933 172.217 6.202 171.741 6.202C 171.349 6.202 170.985 6.28133 170.649 6.44C 170.322 6.58933 170.009 6.79 169.711 7.042L 168.871 6.048C 169.281 5.712 169.729 5.44133 170.215 5.236C 170.7 5.03067 171.232 4.928 171.811 4.928C 172.268 4.928 172.688 4.97933 173.071 5.082C 173.453 5.18467 173.78 5.33867 174.051 5.544C 174.331 5.74 174.545 5.98733 174.695 6.286C 174.853 6.57533 174.933 6.90667 174.933 7.28C 174.933 7.784 174.769 8.204 174.443 8.54C 174.116 8.876 173.677 9.13733 173.127 9.324L 173.127 9.38C 173.416 9.45467 173.687 9.55733 173.939 9.688C 174.2 9.80933 174.424 9.96333 174.611 10.15C 174.807 10.3367 174.961 10.5513 175.073 10.794C 175.185 11.0367 175.241 11.3027 175.241 11.592C 175.241 12.0027 175.147 12.3667 174.961 12.684C 174.783 13.0013 174.541 13.272 174.233 13.496C 173.925 13.7107 173.565 13.8787 173.155 14C 172.744 14.112 172.31 14.168 171.853 14.168C 171.087 14.168 170.434 14.0467 169.893 13.804C 169.351 13.5613 168.917 13.2627 168.591 12.908L 169.347 11.872ZM 198.03 10.458L 198.03 8.33C 198.04 8.05933 198.049 7.76533 198.058 7.448C 198.077 7.13067 198.096 6.83667 198.114 6.566L 198.044 6.566C 197.895 6.79933 197.741 7.03267 197.582 7.266C 197.424 7.49933 197.265 7.73733 197.106 7.98L 195.23 10.458L 198.03 10.458ZM 200.802 11.704L 199.542 11.704L 199.542 14L 198.03 14L 198.03 11.704L 193.592 11.704L 193.592 10.612L 197.68 5.082L 199.542 5.082L 199.542 10.458L 200.802 10.458L 200.802 11.704ZM 219.714 11.9C 220.012 12.152 220.344 12.376 220.708 12.572C 221.081 12.7587 221.524 12.852 222.038 12.852C 222.598 12.852 223.064 12.7027 223.438 12.404C 223.82 12.1053 224.012 11.6853 224.012 11.144C 224.012 10.612 223.834 10.2013 223.48 9.912C 223.134 9.62267 222.677 9.478 222.108 9.478C 221.781 9.478 221.501 9.52 221.268 9.604C 221.034 9.67867 220.764 9.80467 220.456 9.982L 219.686 9.492L 219.966 5.096L 225.216 5.096L 225.216 6.454L 221.366 6.454L 221.17 8.61C 221.403 8.51667 221.627 8.44667 221.842 8.4C 222.056 8.344 222.299 8.316 222.57 8.316C 222.99 8.316 223.386 8.372 223.76 8.484C 224.133 8.596 224.455 8.76867 224.726 9.002C 225.006 9.226 225.225 9.51533 225.384 9.87C 225.552 10.2153 225.636 10.626 225.636 11.102C 225.636 11.5873 225.542 12.0213 225.356 12.404C 225.169 12.7867 224.917 13.1087 224.6 13.37C 224.282 13.6313 223.918 13.832 223.508 13.972C 223.106 14.1027 222.682 14.168 222.234 14.168C 221.45 14.168 220.796 14.0467 220.274 13.804C 219.76 13.552 219.326 13.2627 218.972 12.936L 219.714 11.9Z"/>
</defs>
</svg>
