<svg width="1120" height="382" viewBox="0 0 1120 382" version="1.1" xmlns="http://www.w3.org/2000/svg" xmlns:xlink="http://www.w3.org/1999/xlink">
<title>Frame</title>
<desc>Created using Figma</desc>
<g id="Canvas" transform="matrix(2 0 0 2 278 1012)">
<clipPath id="clip-0" clip-rule="evenodd">
<path d="M -139 -506L 421 -506L 421 -315L -139 -315L -139 -506Z" fill="#FFFFFF"/>
</clipPath>
<g id="Frame" clip-path="url(#clip-0)">
<path d="M -139 -506L 421 -506L 421 -315L -139 -315L -139 -506Z" fill="#FFFFFF"/>
<g id="Boolean array">
<use xlink:href="#path0_fill" transform="translate(293 -365)" fill="#4F4F4F"/>
</g>
<g id="Group 2">
<g id="Rectangle">
<use xlink:href="#path1_stroke" transform="translate(285.667 -490)"/>
</g>
<g id="True">
<use xlink:href="#path2_fill" transform="translate(288.346 -484.636)"/>
</g>
<g id="Rectangle">
<use xlink:href="#path3_stroke" transform="translate(285.667 -460.497)"/>
</g>
<g id="True">
<use xlink:href="#path4_fill" transform="translate(287.311 -454.865)"/>
</g>
<g id="Rectangle">
<use xlink:href="#path5_stroke" transform="translate(285.667 -432.335)"/>
</g>
<g id="False">
<use xlink:href="#path6_fill" transform="translate(287.311 -426.569)"/>
</g>
<g id="Rectangle">
<use xlink:href="#path5_stroke" transform="translate(285.667 -403.503)"/>
</g>
<g id="False">
<use xlink:href="#path6_fill" transform="translate(287.311 -397.736)"/>
</g>
</g>
<g id="Vectorized boolean operation">
<use xlink:href="#path7_fill" transform="translate(75 -365)" fill="#4F4F4F"/>
</g>
<g id="Group 2">
<g id="&#60; 5">
<use xlink:href="#path8_fill" transform="translate(158.414 -397.468)"/>
</g>
<g id="&#60; 5">
<use xlink:href="#path8_fill" transform="translate(158.414 -425.63)"/>
</g>
<g id="&#60; 5">
<use xlink:href="#path8_fill" transform="translate(158.414 -455.133)"/>
</g>
<g id="&#60; 5">
<use xlink:href="#path8_fill" transform="translate(158.414 -484.636)"/>
</g>
<g id="Rectangle">
<use xlink:href="#path1_stroke" transform="translate(82.0617 -490)"/>
</g>
<g id="2">
<use xlink:href="#path9_fill" transform="translate(83.7057 -484.2)"/>
</g>
<g id="Rectangle">
<use xlink:href="#path1_stroke" transform="translate(82.0617 -461)"/>
</g>
<g id="4">
<use xlink:href="#path10_fill" transform="translate(83.7057 -455.2)"/>
</g>
<g id="Rectangle">
<use xlink:href="#path1_stroke" transform="translate(82.0617 -432)"/>
</g>
<g id="6">
<use xlink:href="#path11_fill" transform="translate(83.7057 -426.2)"/>
</g>
<g id="Rectangle">
<use xlink:href="#path1_stroke" transform="translate(82.0617 -403)"/>
</g>
<g id="8">
<use xlink:href="#path12_fill" transform="translate(83.7057 -397.2)"/>
</g>
</g>
<g id="Group">
<g id="Rectangle">
<use xlink:href="#path1_stroke" transform="translate(-76 -490)"/>
</g>
<g id="2">
<use xlink:href="#path9_fill" transform="translate(-74.356 -484.2)"/>
</g>
<g id="Rectangle">
<use xlink:href="#path1_stroke" transform="translate(-76 -461)"/>
</g>
<g id="4">
<use xlink:href="#path10_fill" transform="translate(-74.356 -455.2)"/>
</g>
<g id="Rectangle">
<use xlink:href="#path1_stroke" transform="translate(-76 -432)"/>
</g>
<g id="6">
<use xlink:href="#path11_fill" transform="translate(-74.356 -426.2)"/>
</g>
<g id="Rectangle">
<use xlink:href="#path1_stroke" transform="translate(-76 -403)"/>
</g>
<g id="8">
<use xlink:href="#path12_fill" transform="translate(-74.356 -397.2)"/>
</g>
</g>
<g id="ndarray">
<use xlink:href="#path13_fill" transform="translate(-63 -357)" fill="#4F4F4F"/>
</g>
<g id="Arrow">
<use xlink:href="#path14_stroke" transform="translate(11.0679 -432.335)" fill="#2F80ED"/>
</g>
<g id="Arrow">
<use xlink:href="#path14_stroke" transform="translate(213.333 -432.335)" fill="#2F80ED"/>
</g>
</g>
</g>
<defs>
<path id="path0_fill" d="M 4.22559 13L 4.22559 3.04688L 7.47949 3.04688C 8.55957 3.04688 9.37077 3.27018 9.91309 3.7168C 10.46 4.16341 10.7334 4.82422 10.7334 5.69922C 10.7334 6.16406 10.6012 6.5765 10.3369 6.93652C 10.0726 7.29199 9.71257 7.56771 9.25684 7.76367C 9.7946 7.91406 10.2184 8.20117 10.5283 8.625C 10.8428 9.04427 11 9.54557 11 10.1289C 11 11.0221 10.7106 11.724 10.1318 12.2344C 9.55306 12.7448 8.73503 13 7.67773 13L 4.22559 13ZM 5.53809 8.34473L 5.53809 11.9268L 7.70508 11.9268C 8.31576 11.9268 8.79655 11.7695 9.14746 11.4551C 9.50293 11.1361 9.68066 10.6986 9.68066 10.1426C 9.68066 8.94401 9.02897 8.34473 7.72559 8.34473L 5.53809 8.34473ZM 5.53809 7.29199L 7.52051 7.29199C 8.09473 7.29199 8.55273 7.14844 8.89453 6.86133C 9.24089 6.57422 9.41406 6.18457 9.41406 5.69238C 9.41406 5.14551 9.25456 4.74902 8.93555 4.50293C 8.61654 4.25228 8.13118 4.12695 7.47949 4.12695L 5.53809 4.12695L 5.53809 7.29199ZM 12.415 9.2334C 12.415 8.50879 12.5563 7.8571 12.8389 7.27832C 13.126 6.69954 13.5225 6.25293 14.0283 5.93848C 14.5387 5.62402 15.1198 5.4668 15.7715 5.4668C 16.7786 5.4668 17.5921 5.81543 18.2119 6.5127C 18.8363 7.20996 19.1484 8.13737 19.1484 9.29492L 19.1484 9.38379C 19.1484 10.1038 19.0094 10.751 18.7314 11.3252C 18.458 11.8949 18.0638 12.3392 17.5488 12.6582C 17.0384 12.9772 16.4505 13.1367 15.7852 13.1367C 14.7826 13.1367 13.9691 12.7881 13.3447 12.0908C 12.7249 11.3936 12.415 10.4707 12.415 9.32227L 12.415 9.2334ZM 13.6865 9.38379C 13.6865 10.2041 13.8757 10.8626 14.2539 11.3594C 14.6367 11.8561 15.1471 12.1045 15.7852 12.1045C 16.4277 12.1045 16.9382 11.8538 17.3164 11.3525C 17.6947 10.8467 17.8838 10.1403 17.8838 9.2334C 17.8838 8.4222 17.6901 7.76595 17.3027 7.26465C 16.9199 6.75879 16.4095 6.50586 15.7715 6.50586C 15.1471 6.50586 14.6436 6.75423 14.2607 7.25098C 13.8779 7.74772 13.6865 8.45866 13.6865 9.38379ZM 20.3994 9.2334C 20.3994 8.50879 20.5407 7.8571 20.8232 7.27832C 21.1104 6.69954 21.5068 6.25293 22.0127 5.93848C 22.5231 5.62402 23.1042 5.4668 23.7559 5.4668C 24.763 5.4668 25.5765 5.81543 26.1963 6.5127C 26.8206 7.20996 27.1328 8.13737 27.1328 9.29492L 27.1328 9.38379C 27.1328 10.1038 26.9938 10.751 26.7158 11.3252C 26.4424 11.8949 26.0482 12.3392 25.5332 12.6582C 25.0228 12.9772 24.4349 13.1367 23.7695 13.1367C 22.7669 13.1367 21.9535 12.7881 21.3291 12.0908C 20.7093 11.3936 20.3994 10.4707 20.3994 9.32227L 20.3994 9.2334ZM 21.6709 9.38379C 21.6709 10.2041 21.86 10.8626 22.2383 11.3594C 22.6211 11.8561 23.1315 12.1045 23.7695 12.1045C 24.4121 12.1045 24.9225 11.8538 25.3008 11.3525C 25.679 10.8467 25.8682 10.1403 25.8682 9.2334C 25.8682 8.4222 25.6745 7.76595 25.2871 7.26465C 24.9043 6.75879 24.3939 6.50586 23.7559 6.50586C 23.1315 6.50586 22.6279 6.75423 22.2451 7.25098C 21.8623 7.74772 21.6709 8.45866 21.6709 9.38379ZM 30.0928 13L 28.8281 13L 28.8281 2.5L 30.0928 2.5L 30.0928 13ZM 35.1924 13.1367C 34.1898 13.1367 33.374 12.8086 32.7451 12.1523C 32.1162 11.4915 31.8018 10.6097 31.8018 9.50684L 31.8018 9.27441C 31.8018 8.54069 31.9408 7.88672 32.2188 7.3125C 32.5013 6.73372 32.8932 6.28255 33.3945 5.95898C 33.9004 5.63086 34.4473 5.4668 35.0352 5.4668C 35.9967 5.4668 36.7441 5.78353 37.2773 6.41699C 37.8105 7.05046 38.0771 7.95736 38.0771 9.1377L 38.0771 9.66406L 33.0664 9.66406C 33.0846 10.3932 33.2965 10.9834 33.7021 11.4346C 34.1123 11.8812 34.6318 12.1045 35.2607 12.1045C 35.7074 12.1045 36.0856 12.0133 36.3955 11.8311C 36.7054 11.6488 36.9766 11.4072 37.209 11.1064L 37.9814 11.708C 37.3617 12.6605 36.432 13.1367 35.1924 13.1367ZM 35.0352 6.50586C 34.5247 6.50586 34.0964 6.69271 33.75 7.06641C 33.4036 7.43555 33.1895 7.95508 33.1074 8.625L 36.8125 8.625L 36.8125 8.5293C 36.776 7.88672 36.6029 7.38997 36.293 7.03906C 35.9831 6.68359 35.5638 6.50586 35.0352 6.50586ZM 44.1133 13C 44.0404 12.8542 43.9811 12.5944 43.9355 12.2207C 43.3477 12.8314 42.6458 13.1367 41.8301 13.1367C 41.1009 13.1367 40.5016 12.9316 40.0322 12.5215C 39.5674 12.1068 39.335 11.5827 39.335 10.9492C 39.335 10.179 39.6266 9.58203 40.21 9.1582C 40.7979 8.72982 41.6227 8.51562 42.6846 8.51562L 43.915 8.51562L 43.915 7.93457C 43.915 7.49251 43.7829 7.1416 43.5186 6.88184C 43.2542 6.61751 42.8646 6.48535 42.3496 6.48535C 41.8984 6.48535 41.5202 6.59928 41.2148 6.82715C 40.9095 7.05501 40.7568 7.33073 40.7568 7.6543L 39.4854 7.6543C 39.4854 7.28516 39.6152 6.92969 39.875 6.58789C 40.1393 6.24154 40.4948 5.9681 40.9414 5.76758C 41.3926 5.56706 41.887 5.4668 42.4248 5.4668C 43.277 5.4668 43.9447 5.68099 44.4277 6.10938C 44.9108 6.5332 45.1615 7.11882 45.1797 7.86621L 45.1797 11.2705C 45.1797 11.9495 45.2663 12.4896 45.4395 12.8906L 45.4395 13L 44.1133 13ZM 42.0146 12.0361C 42.4111 12.0361 42.7871 11.9336 43.1426 11.7285C 43.498 11.5234 43.7555 11.2568 43.915 10.9287L 43.915 9.41113L 42.9238 9.41113C 41.3743 9.41113 40.5996 9.86458 40.5996 10.7715C 40.5996 11.168 40.7318 11.4779 40.9961 11.7012C 41.2604 11.9245 41.5999 12.0361 42.0146 12.0361ZM 48.3584 5.60352L 48.3994 6.5332C 48.9645 5.82227 49.7028 5.4668 50.6143 5.4668C 52.1774 5.4668 52.9658 6.34863 52.9795 8.1123L 52.9795 13L 51.7148 13L 51.7148 8.10547C 51.7103 7.57227 51.5872 7.17806 51.3457 6.92285C 51.1087 6.66764 50.7373 6.54004 50.2314 6.54004C 49.8213 6.54004 49.4613 6.64941 49.1514 6.86816C 48.8415 7.08691 48.5999 7.37402 48.4268 7.72949L 48.4268 13L 47.1621 13L 47.1621 5.60352L 48.3584 5.60352ZM 18.54 29C 18.4671 28.8542 18.4079 28.5944 18.3623 28.2207C 17.7744 28.8314 17.0726 29.1367 16.2568 29.1367C 15.5277 29.1367 14.9284 28.9316 14.459 28.5215C 13.9941 28.1068 13.7617 27.5827 13.7617 26.9492C 13.7617 26.179 14.0534 25.582 14.6367 25.1582C 15.2246 24.7298 16.0495 24.5156 17.1113 24.5156L 18.3418 24.5156L 18.3418 23.9346C 18.3418 23.4925 18.2096 23.1416 17.9453 22.8818C 17.681 22.6175 17.2913 22.4854 16.7764 22.4854C 16.3252 22.4854 15.9469 22.5993 15.6416 22.8271C 15.3363 23.055 15.1836 23.3307 15.1836 23.6543L 13.9121 23.6543C 13.9121 23.2852 14.042 22.9297 14.3018 22.5879C 14.5661 22.2415 14.9215 21.9681 15.3682 21.7676C 15.8193 21.5671 16.3138 21.4668 16.8516 21.4668C 17.7038 21.4668 18.3714 21.681 18.8545 22.1094C 19.3376 22.5332 19.5882 23.1188 19.6064 23.8662L 19.6064 27.2705C 19.6064 27.9495 19.693 28.4896 19.8662 28.8906L 19.8662 29L 18.54 29ZM 16.4414 28.0361C 16.8379 28.0361 17.2139 27.9336 17.5693 27.7285C 17.9248 27.5234 18.1823 27.2568 18.3418 26.9287L 18.3418 25.4111L 17.3506 25.4111C 15.8011 25.4111 15.0264 25.8646 15.0264 26.7715C 15.0264 27.168 15.1585 27.4779 15.4229 27.7012C 15.6872 27.9245 16.0267 28.0361 16.4414 28.0361ZM 25.1641 22.7383C 24.9727 22.7064 24.7653 22.6904 24.542 22.6904C 23.7126 22.6904 23.1497 23.0436 22.8535 23.75L 22.8535 29L 21.5889 29L 21.5889 21.6035L 22.8193 21.6035L 22.8398 22.458C 23.2546 21.7972 23.8424 21.4668 24.6035 21.4668C 24.8496 21.4668 25.0365 21.4987 25.1641 21.5625L 25.1641 22.7383ZM 29.9082 22.7383C 29.7168 22.7064 29.5094 22.6904 29.2861 22.6904C 28.4567 22.6904 27.8939 23.0436 27.5977 23.75L 27.5977 29L 26.333 29L 26.333 21.6035L 27.5635 21.6035L 27.584 22.458C 27.9987 21.7972 28.5866 21.4668 29.3477 21.4668C 29.5938 21.4668 29.7806 21.4987 29.9082 21.5625L 29.9082 22.7383ZM 35.3701 29C 35.2972 28.8542 35.238 28.5944 35.1924 28.2207C 34.6045 28.8314 33.9027 29.1367 33.0869 29.1367C 32.3577 29.1367 31.7585 28.9316 31.2891 28.5215C 30.8242 28.1068 30.5918 27.5827 30.5918 26.9492C 30.5918 26.179 30.8835 25.582 31.4668 25.1582C 32.0547 24.7298 32.8796 24.5156 33.9414 24.5156L 35.1719 24.5156L 35.1719 23.9346C 35.1719 23.4925 35.0397 23.1416 34.7754 22.8818C 34.5111 22.6175 34.1214 22.4854 33.6064 22.4854C 33.1553 22.4854 32.777 22.5993 32.4717 22.8271C 32.1663 23.055 32.0137 23.3307 32.0137 23.6543L 30.7422 23.6543C 30.7422 23.2852 30.8721 22.9297 31.1318 22.5879C 31.3962 22.2415 31.7516 21.9681 32.1982 21.7676C 32.6494 21.5671 33.1439 21.4668 33.6816 21.4668C 34.5339 21.4668 35.2015 21.681 35.6846 22.1094C 36.1676 22.5332 36.4183 23.1188 36.4365 23.8662L 36.4365 27.2705C 36.4365 27.9495 36.5231 28.4896 36.6963 28.8906L 36.6963 29L 35.3701 29ZM 33.2715 28.0361C 33.668 28.0361 34.0439 27.9336 34.3994 27.7285C 34.7549 27.5234 35.0124 27.2568 35.1719 26.9287L 35.1719 25.4111L 34.1807 25.4111C 32.6312 25.4111 31.8564 25.8646 31.8564 26.7715C 31.8564 27.168 31.9886 27.4779 32.2529 27.7012C 32.5173 27.9245 32.8568 28.0361 33.2715 28.0361ZM 40.7295 27.1475L 42.4521 21.6035L 43.8057 21.6035L 40.832 30.1416C 40.3717 31.3721 39.6403 31.9873 38.6377 31.9873L 38.3984 31.9668L 37.9268 31.8779L 37.9268 30.8525L 38.2686 30.8799C 38.6969 30.8799 39.0296 30.7933 39.2666 30.6201C 39.5081 30.4469 39.7064 30.1302 39.8613 29.6699L 40.1416 28.918L 37.5029 21.6035L 38.8838 21.6035L 40.7295 27.1475Z"/>
<path id="path1_stroke" d="M 0 0L 0 -0.5L -0.5 -0.5L -0.5 0L 0 0ZM 72.3333 0L 72.8333 0L 72.8333 -0.5L 72.3333 -0.5L 72.3333 0ZM 72.3333 29L 72.3333 29.5L 72.8333 29.5L 72.8333 29L 72.3333 29ZM 0 29L -0.5 29L -0.5 29.5L 0 29.5L 0 29ZM 0 0.5L 72.3333 0.5L 72.3333 -0.5L 0 -0.5L 0 0.5ZM 71.8333 0L 71.8333 29L 72.8333 29L 72.8333 0L 71.8333 0ZM 72.3333 28.5L 0 28.5L 0 29.5L 72.3333 29.5L 72.3333 28.5ZM 0.5 29L 0.5 0L -0.5 0L -0.5 29L 0.5 29Z"/>
<path id="path2_fill" d="M 26.6603 5.5918L 22.5471 5.5918L 22.5471 17L 20.8683 17L 20.8683 5.5918L 16.7639 5.5918L 16.7639 4.20312L 26.6603 4.20312L 26.6603 5.5918ZM 32.2326 8.94922C 31.9865 8.9082 31.7199 8.8877 31.4328 8.8877C 30.3664 8.8877 29.6428 9.3418 29.2619 10.25L 29.2619 17L 27.6359 17L 27.6359 7.49023L 29.218 7.49023L 29.2443 8.58887C 29.7775 7.73926 30.5334 7.31445 31.5119 7.31445C 31.8283 7.31445 32.0685 7.35547 32.2326 7.4375L 32.2326 8.94922ZM 39.6066 16.0596C 38.9738 16.8037 38.0451 17.1758 36.8205 17.1758C 35.8068 17.1758 35.0334 16.8828 34.5002 16.2969C 33.9728 15.7051 33.7062 14.832 33.7004 13.6777L 33.7004 7.49023L 35.3264 7.49023L 35.3264 13.6338C 35.3264 15.0752 35.9123 15.7959 37.0842 15.7959C 38.3264 15.7959 39.1525 15.333 39.5627 14.4072L 39.5627 7.49023L 41.1887 7.49023L 41.1887 17L 39.6418 17L 39.6066 16.0596ZM 47.6135 17.1758C 46.3244 17.1758 45.2756 16.7539 44.467 15.9102C 43.6584 15.0605 43.2541 13.9268 43.2541 12.5088L 43.2541 12.21C 43.2541 11.2666 43.4328 10.4258 43.7902 9.6875C 44.1535 8.94336 44.6574 8.36328 45.3019 7.94727C 45.9523 7.52539 46.6555 7.31445 47.4113 7.31445C 48.6476 7.31445 49.6086 7.72168 50.2941 8.53613C 50.9797 9.35059 51.3224 10.5166 51.3224 12.0342L 51.3224 12.7109L 44.8801 12.7109C 44.9035 13.6484 45.176 14.4072 45.6974 14.9873C 46.2248 15.5615 46.8928 15.8486 47.7014 15.8486C 48.2756 15.8486 48.7619 15.7314 49.1603 15.4971C 49.5588 15.2627 49.9074 14.9521 50.2062 14.5654L 51.1994 15.3389C 50.4025 16.5635 49.2072 17.1758 47.6135 17.1758ZM 47.4113 8.65039C 46.7551 8.65039 46.2043 8.89062 45.759 9.37109C 45.3137 9.8457 45.0383 10.5137 44.9328 11.375L 49.6965 11.375L 49.6965 11.252C 49.6496 10.4258 49.4269 9.78711 49.0285 9.33594C 48.6301 8.87891 48.091 8.65039 47.4113 8.65039Z"/>
<path id="path3_stroke" d="M 0 0L 0 -0.5L -0.5 -0.5L -0.5 0L 0 0ZM 72.3333 0L 72.8333 0L 72.8333 -0.5L 72.3333 -0.5L 72.3333 0ZM 72.3333 28.1618L 72.3333 28.6618L 72.8333 28.6618L 72.8333 28.1618L 72.3333 28.1618ZM 0 28.1618L -0.5 28.1618L -0.5 28.6618L 0 28.6618L 0 28.1618ZM 0 0.5L 72.3333 0.5L 72.3333 -0.5L 0 -0.5L 0 0.5ZM 71.8333 0L 71.8333 28.1618L 72.8333 28.1618L 72.8333 0L 71.8333 0ZM 72.3333 27.6618L 0 27.6618L 0 28.6618L 72.3333 28.6618L 72.3333 27.6618ZM 0.5 28.1618L 0.5 0L -0.5 0L -0.5 28.1618L 0.5 28.1618Z"/>
<path id="path4_fill" d="M 27.4366 5.5918L 23.3234 5.5918L 23.3234 17L 21.6446 17L 21.6446 5.5918L 17.5402 5.5918L 17.5402 4.20312L 27.4366 4.20312L 27.4366 5.5918ZM 33.0089 8.94922C 32.7628 8.9082 32.4962 8.8877 32.2091 8.8877C 31.1427 8.8877 30.4191 9.3418 30.0382 10.25L 30.0382 17L 28.4122 17L 28.4122 7.49023L 29.9943 7.49023L 30.0206 8.58887C 30.5538 7.73926 31.3097 7.31445 32.2882 7.31445C 32.6046 7.31445 32.8448 7.35547 33.0089 7.4375L 33.0089 8.94922ZM 40.3829 16.0596C 39.7501 16.8037 38.8214 17.1758 37.5968 17.1758C 36.5831 17.1758 35.8097 16.8828 35.2765 16.2969C 34.7491 15.7051 34.4825 14.832 34.4767 13.6777L 34.4767 7.49023L 36.1027 7.49023L 36.1027 13.6338C 36.1027 15.0752 36.6886 15.7959 37.8605 15.7959C 39.1027 15.7959 39.9288 15.333 40.339 14.4072L 40.339 7.49023L 41.965 7.49023L 41.965 17L 40.4181 17L 40.3829 16.0596ZM 48.3898 17.1758C 47.1007 17.1758 46.0519 16.7539 45.2433 15.9102C 44.4347 15.0605 44.0304 13.9268 44.0304 12.5088L 44.0304 12.21C 44.0304 11.2666 44.2091 10.4258 44.5665 9.6875C 44.9298 8.94336 45.4337 8.36328 46.0782 7.94727C 46.7286 7.52539 47.4318 7.31445 48.1876 7.31445C 49.4239 7.31445 50.3849 7.72168 51.0704 8.53613C 51.756 9.35059 52.0988 10.5166 52.0988 12.0342L 52.0988 12.7109L 45.6564 12.7109C 45.6798 13.6484 45.9523 14.4072 46.4738 14.9873C 47.0011 15.5615 47.6691 15.8486 48.4777 15.8486C 49.0519 15.8486 49.5382 15.7314 49.9366 15.4971C 50.3351 15.2627 50.6837 14.9521 50.9825 14.5654L 51.9757 15.3389C 51.1788 16.5635 49.9835 17.1758 48.3898 17.1758ZM 48.1876 8.65039C 47.5314 8.65039 46.9806 8.89062 46.5353 9.37109C 46.09 9.8457 45.8146 10.5137 45.7091 11.375L 50.4728 11.375L 50.4728 11.252C 50.4259 10.4258 50.2032 9.78711 49.8048 9.33594C 49.4064 8.87891 48.8673 8.65039 48.1876 8.65039Z"/>
<path id="path5_stroke" d="M 0 0L 0 -0.5L -0.5 -0.5L -0.5 0L 0 0ZM 72.3333 0L 72.8333 0L 72.8333 -0.5L 72.3333 -0.5L 72.3333 0ZM 72.3333 28.8324L 72.3333 29.3324L 72.8333 29.3324L 72.8333 28.8324L 72.3333 28.8324ZM 0 28.8324L -0.5 28.8324L -0.5 29.3324L 0 29.3324L 0 28.8324ZM 0 0.5L 72.3333 0.5L 72.3333 -0.5L 0 -0.5L 0 0.5ZM 71.8333 0L 71.8333 28.8324L 72.8333 28.8324L 72.8333 0L 71.8333 0ZM 72.3333 28.3324L 0 28.3324L 0 29.3324L 72.3333 29.3324L 72.3333 28.3324ZM 0.5 28.8324L 0.5 0L -0.5 0L -0.5 28.8324L 0.5 28.8324Z"/>
<path id="path6_fill" d="M 22.1544 11.3486L 16.7843 11.3486L 16.7843 17L 15.0968 17L 15.0968 4.20312L 23.0245 4.20312L 23.0245 5.5918L 16.7843 5.5918L 16.7843 9.96875L 22.1544 9.96875L 22.1544 11.3486ZM 30.3634 17C 30.2696 16.8125 30.1935 16.4785 30.1349 15.998C 29.379 16.7832 28.4767 17.1758 27.4279 17.1758C 26.4904 17.1758 25.7198 16.9121 25.1163 16.3848C 24.5187 15.8516 24.2198 15.1777 24.2198 14.3633C 24.2198 13.373 24.5948 12.6055 25.3448 12.0605C 26.1007 11.5098 27.1613 11.2344 28.5265 11.2344L 30.1085 11.2344L 30.1085 10.4873C 30.1085 9.91895 29.9386 9.46777 29.5988 9.13379C 29.2589 8.79395 28.7579 8.62402 28.0958 8.62402C 27.5157 8.62402 27.0294 8.77051 26.6368 9.06348C 26.2443 9.35645 26.048 9.71094 26.048 10.127L 24.4132 10.127C 24.4132 9.65234 24.5802 9.19531 24.9142 8.75586C 25.254 8.31055 25.7111 7.95898 26.2853 7.70117C 26.8654 7.44336 27.5011 7.31445 28.1925 7.31445C 29.2882 7.31445 30.1466 7.58984 30.7677 8.14062C 31.3888 8.68555 31.7111 9.43848 31.7345 10.3994L 31.7345 14.7764C 31.7345 15.6494 31.8458 16.3438 32.0685 16.8594L 32.0685 17L 30.3634 17ZM 27.6652 15.7607C 28.1749 15.7607 28.6583 15.6289 29.1154 15.3652C 29.5724 15.1016 29.9034 14.7588 30.1085 14.3369L 30.1085 12.3857L 28.8341 12.3857C 26.8419 12.3857 25.8458 12.9688 25.8458 14.1348C 25.8458 14.6445 26.0157 15.043 26.3556 15.3301C 26.6954 15.6172 27.132 15.7607 27.6652 15.7607ZM 36.0499 17L 34.4239 17L 34.4239 3.5L 36.0499 3.5L 36.0499 17ZM 44.1974 14.4775C 44.1974 14.0381 44.0304 13.6982 43.6964 13.458C 43.3683 13.2119 42.7911 13.001 41.965 12.8252C 41.1446 12.6494 40.4913 12.4385 40.005 12.1924C 39.5245 11.9463 39.1671 11.6533 38.9327 11.3135C 38.7042 10.9736 38.59 10.5693 38.59 10.1006C 38.59 9.32129 38.9181 8.66211 39.5743 8.12305C 40.2364 7.58398 41.0802 7.31445 42.1056 7.31445C 43.1837 7.31445 44.0568 7.59277 44.7247 8.14941C 45.3986 8.70605 45.7355 9.41797 45.7355 10.2852L 44.1007 10.2852C 44.1007 9.83984 43.9103 9.45605 43.5294 9.13379C 43.1544 8.81152 42.6798 8.65039 42.1056 8.65039C 41.5138 8.65039 41.0509 8.7793 40.7169 9.03711C 40.3829 9.29492 40.2159 9.63184 40.2159 10.0479C 40.2159 10.4404 40.3712 10.7363 40.6818 10.9355C 40.9923 11.1348 41.5519 11.3252 42.3605 11.5068C 43.1749 11.6885 43.8341 11.9053 44.338 12.1572C 44.8419 12.4092 45.214 12.7139 45.4542 13.0713C 45.7003 13.4229 45.8234 13.8535 45.8234 14.3633C 45.8234 15.2129 45.4835 15.8955 44.8038 16.4111C 44.1241 16.9209 43.2423 17.1758 42.1583 17.1758C 41.3966 17.1758 40.7228 17.041 40.1368 16.7715C 39.5509 16.502 39.0909 16.127 38.757 15.6465C 38.4288 15.1602 38.2648 14.6357 38.2648 14.0732L 39.8907 14.0732C 39.92 14.6182 40.1368 15.0518 40.5411 15.374C 40.9513 15.6904 41.4904 15.8486 42.1583 15.8486C 42.7736 15.8486 43.2657 15.7256 43.6349 15.4795C 44.0099 15.2275 44.1974 14.8936 44.1974 14.4775ZM 51.8878 17.1758C 50.5988 17.1758 49.5499 16.7539 48.7413 15.9102C 47.9327 15.0605 47.5284 13.9268 47.5284 12.5088L 47.5284 12.21C 47.5284 11.2666 47.7071 10.4258 48.0646 9.6875C 48.4279 8.94336 48.9318 8.36328 49.5763 7.94727C 50.2267 7.52539 50.9298 7.31445 51.6857 7.31445C 52.922 7.31445 53.8829 7.72168 54.5685 8.53613C 55.254 9.35059 55.5968 10.5166 55.5968 12.0342L 55.5968 12.7109L 49.1544 12.7109C 49.1779 13.6484 49.4503 14.4072 49.9718 14.9873C 50.4991 15.5615 51.1671 15.8486 51.9757 15.8486C 52.5499 15.8486 53.0363 15.7314 53.4347 15.4971C 53.8331 15.2627 54.1818 14.9521 54.4806 14.5654L 55.4738 15.3389C 54.6769 16.5635 53.4816 17.1758 51.8878 17.1758ZM 51.6857 8.65039C 51.0294 8.65039 50.4786 8.89062 50.0333 9.37109C 49.588 9.8457 49.3126 10.5137 49.2071 11.375L 53.9708 11.375L 53.9708 11.252C 53.9239 10.4258 53.7013 9.78711 53.3029 9.33594C 52.9044 8.87891 52.3654 8.65039 51.6857 8.65039Z"/>
<path id="path7_fill" d="M 27.8984 11.2568L 30.7422 3.04688L 32.1777 3.04688L 28.4863 13L 27.3242 13L 23.6396 3.04688L 25.0684 3.04688L 27.8984 11.2568ZM 36.0879 13.1367C 35.0853 13.1367 34.2695 12.8086 33.6406 12.1523C 33.0117 11.4915 32.6973 10.6097 32.6973 9.50684L 32.6973 9.27441C 32.6973 8.54069 32.8363 7.88672 33.1143 7.3125C 33.3968 6.73372 33.7887 6.28255 34.29 5.95898C 34.7959 5.63086 35.3428 5.4668 35.9307 5.4668C 36.8923 5.4668 37.6396 5.78353 38.1729 6.41699C 38.7061 7.05046 38.9727 7.95736 38.9727 9.1377L 38.9727 9.66406L 33.9619 9.66406C 33.9801 10.3932 34.1921 10.9834 34.5977 11.4346C 35.0078 11.8812 35.5273 12.1045 36.1562 12.1045C 36.6029 12.1045 36.9811 12.0133 37.291 11.8311C 37.6009 11.6488 37.8721 11.4072 38.1045 11.1064L 38.877 11.708C 38.2572 12.6605 37.3275 13.1367 36.0879 13.1367ZM 35.9307 6.50586C 35.4202 6.50586 34.9919 6.69271 34.6455 7.06641C 34.2992 7.43555 34.085 7.95508 34.0029 8.625L 37.708 8.625L 37.708 8.5293C 37.6715 7.88672 37.4984 7.38997 37.1885 7.03906C 36.8786 6.68359 36.4593 6.50586 35.9307 6.50586ZM 43.4092 12.1045C 43.8604 12.1045 44.2546 11.9678 44.5918 11.6943C 44.929 11.4209 45.1159 11.0791 45.1523 10.6689L 46.3486 10.6689C 46.3258 11.0928 46.18 11.4961 45.9111 11.8789C 45.6423 12.2617 45.2822 12.5671 44.8311 12.7949C 44.3844 13.0228 43.9105 13.1367 43.4092 13.1367C 42.402 13.1367 41.5999 12.8018 41.0029 12.1318C 40.4105 11.4574 40.1143 10.5368 40.1143 9.37012L 40.1143 9.1582C 40.1143 8.43815 40.2464 7.79785 40.5107 7.2373C 40.7751 6.67676 41.1533 6.24154 41.6455 5.93164C 42.1423 5.62174 42.7279 5.4668 43.4023 5.4668C 44.2318 5.4668 44.9199 5.71517 45.4668 6.21191C 46.0182 6.70866 46.3122 7.35352 46.3486 8.14648L 45.1523 8.14648C 45.1159 7.66797 44.9336 7.27604 44.6055 6.9707C 44.2819 6.66081 43.8809 6.50586 43.4023 6.50586C 42.7598 6.50586 42.2607 6.73828 41.9053 7.20312C 41.5544 7.66341 41.3789 8.33105 41.3789 9.20605L 41.3789 9.44531C 41.3789 10.2975 41.5544 10.9538 41.9053 11.4141C 42.2562 11.8743 42.7575 12.1045 43.4092 12.1045ZM 49.4863 3.8125L 49.4863 5.60352L 50.8672 5.60352L 50.8672 6.58105L 49.4863 6.58105L 49.4863 11.168C 49.4863 11.4642 49.5479 11.6875 49.6709 11.8379C 49.7939 11.9837 50.0036 12.0566 50.2998 12.0566C 50.4456 12.0566 50.6462 12.0293 50.9014 11.9746L 50.9014 13C 50.5687 13.0911 50.2451 13.1367 49.9307 13.1367C 49.3656 13.1367 48.9395 12.9658 48.6523 12.624C 48.3652 12.2822 48.2217 11.7969 48.2217 11.168L 48.2217 6.58105L 46.875 6.58105L 46.875 5.60352L 48.2217 5.60352L 48.2217 3.8125L 49.4863 3.8125ZM 51.8789 9.2334C 51.8789 8.50879 52.0202 7.8571 52.3027 7.27832C 52.5898 6.69954 52.9863 6.25293 53.4922 5.93848C 54.0026 5.62402 54.5837 5.4668 55.2354 5.4668C 56.2425 5.4668 57.056 5.81543 57.6758 6.5127C 58.3001 7.20996 58.6123 8.13737 58.6123 9.29492L 58.6123 9.38379C 58.6123 10.1038 58.4733 10.751 58.1953 11.3252C 57.9219 11.8949 57.5277 12.3392 57.0127 12.6582C 56.5023 12.9772 55.9144 13.1367 55.249 13.1367C 54.2464 13.1367 53.4329 12.7881 52.8086 12.0908C 52.1888 11.3936 51.8789 10.4707 51.8789 9.32227L 51.8789 9.2334ZM 53.1504 9.38379C 53.1504 10.2041 53.3395 10.8626 53.7178 11.3594C 54.1006 11.8561 54.611 12.1045 55.249 12.1045C 55.8916 12.1045 56.402 11.8538 56.7803 11.3525C 57.1585 10.8467 57.3477 10.1403 57.3477 9.2334C 57.3477 8.4222 57.154 7.76595 56.7666 7.26465C 56.3838 6.75879 55.8734 6.50586 55.2354 6.50586C 54.611 6.50586 54.1074 6.75423 53.7246 7.25098C 53.3418 7.74772 53.1504 8.45866 53.1504 9.38379ZM 63.7734 6.73828C 63.582 6.70638 63.3747 6.69043 63.1514 6.69043C 62.3219 6.69043 61.7591 7.04362 61.4629 7.75L 61.4629 13L 60.1982 13L 60.1982 5.60352L 61.4287 5.60352L 61.4492 6.45801C 61.8639 5.7972 62.4518 5.4668 63.2129 5.4668C 63.459 5.4668 63.6458 5.4987 63.7734 5.5625L 63.7734 6.73828ZM 66.3164 13L 65.0518 13L 65.0518 5.60352L 66.3164 5.60352L 66.3164 13ZM 64.9492 3.6416C 64.9492 3.43652 65.0107 3.26335 65.1338 3.12207C 65.2614 2.98079 65.4482 2.91016 65.6943 2.91016C 65.9404 2.91016 66.1273 2.98079 66.2549 3.12207C 66.3825 3.26335 66.4463 3.43652 66.4463 3.6416C 66.4463 3.84668 66.3825 4.01758 66.2549 4.1543C 66.1273 4.29102 65.9404 4.35938 65.6943 4.35938C 65.4482 4.35938 65.2614 4.29102 65.1338 4.1543C 65.0107 4.01758 64.9492 3.84668 64.9492 3.6416ZM 69.5361 11.9678L 73.8633 11.9678L 73.8633 13L 67.9912 13L 67.9912 12.0703L 72.0723 6.64941L 68.0527 6.64941L 68.0527 5.60352L 73.6582 5.60352L 73.6582 6.49902L 69.5361 11.9678ZM 78.252 13.1367C 77.2493 13.1367 76.4336 12.8086 75.8047 12.1523C 75.1758 11.4915 74.8613 10.6097 74.8613 9.50684L 74.8613 9.27441C 74.8613 8.54069 75.0003 7.88672 75.2783 7.3125C 75.5609 6.73372 75.9528 6.28255 76.4541 5.95898C 76.96 5.63086 77.5068 5.4668 78.0947 5.4668C 79.0563 5.4668 79.8037 5.78353 80.3369 6.41699C 80.8701 7.05046 81.1367 7.95736 81.1367 9.1377L 81.1367 9.66406L 76.126 9.66406C 76.1442 10.3932 76.3561 10.9834 76.7617 11.4346C 77.1719 11.8812 77.6914 12.1045 78.3203 12.1045C 78.7669 12.1045 79.1452 12.0133 79.4551 11.8311C 79.765 11.6488 80.0361 11.4072 80.2686 11.1064L 81.041 11.708C 80.4212 12.6605 79.4915 13.1367 78.252 13.1367ZM 78.0947 6.50586C 77.5843 6.50586 77.1559 6.69271 76.8096 7.06641C 76.4632 7.43555 76.249 7.95508 76.167 8.625L 79.8721 8.625L 79.8721 8.5293C 79.8356 7.88672 79.6624 7.38997 79.3525 7.03906C 79.0426 6.68359 78.6234 6.50586 78.0947 6.50586ZM 82.2988 9.24023C 82.2988 8.10547 82.5677 7.19401 83.1055 6.50586C 83.6432 5.81315 84.3473 5.4668 85.2178 5.4668C 86.0837 5.4668 86.7695 5.76302 87.2754 6.35547L 87.2754 2.5L 88.54 2.5L 88.54 13L 87.3779 13L 87.3164 12.207C 86.8105 12.8268 86.1064 13.1367 85.2041 13.1367C 84.3473 13.1367 83.6478 12.7858 83.1055 12.084C 82.5677 11.3822 82.2988 10.4661 82.2988 9.33594L 82.2988 9.24023ZM 83.5635 9.38379C 83.5635 10.2223 83.7367 10.8786 84.083 11.3525C 84.4294 11.8265 84.9079 12.0635 85.5186 12.0635C 86.3206 12.0635 86.9062 11.7035 87.2754 10.9834L 87.2754 7.58594C 86.8971 6.88867 86.3161 6.54004 85.5322 6.54004C 84.9124 6.54004 84.4294 6.7793 84.083 7.25781C 83.7367 7.73633 83.5635 8.44499 83.5635 9.38379ZM 7.45898 25.3838C 7.45898 26.514 7.19922 27.4232 6.67969 28.1113C 6.16016 28.7949 5.46289 29.1367 4.58789 29.1367C 3.65365 29.1367 2.93132 28.8063 2.4209 28.1455L 2.35938 29L 1.19727 29L 1.19727 18.5L 2.46191 18.5L 2.46191 22.417C 2.97233 21.7835 3.67643 21.4668 4.57422 21.4668C 5.47201 21.4668 6.17611 21.8063 6.68652 22.4854C 7.2015 23.1644 7.45898 24.0941 7.45898 25.2744L 7.45898 25.3838ZM 6.19434 25.2402C 6.19434 24.3789 6.02799 23.7135 5.69531 23.2441C 5.36263 22.7747 4.88411 22.54 4.25977 22.54C 3.42578 22.54 2.8265 22.9274 2.46191 23.7021L 2.46191 26.9014C 2.84928 27.6761 3.45312 28.0635 4.27344 28.0635C 4.87956 28.0635 5.35124 27.8288 5.68848 27.3594C 6.02572 26.89 6.19434 26.1836 6.19434 25.2402ZM 8.72363 25.2334C 8.72363 24.5088 8.86491 23.8571 9.14746 23.2783C 9.43457 22.6995 9.83105 22.2529 10.3369 21.9385C 10.8473 21.624 11.4284 21.4668 12.0801 21.4668C 13.0872 21.4668 13.9007 21.8154 14.5205 22.5127C 15.1449 23.21 15.457 24.1374 15.457 25.2949L 15.457 25.3838C 15.457 26.1038 15.318 26.751 15.04 27.3252C 14.7666 27.8949 14.3724 28.3392 13.8574 28.6582C 13.347 28.9772 12.7591 29.1367 12.0938 29.1367C 11.0911 29.1367 10.2777 28.7881 9.65332 28.0908C 9.03353 27.3936 8.72363 26.4707 8.72363 25.3223L 8.72363 25.2334ZM 9.99512 25.3838C 9.99512 26.2041 10.1842 26.8626 10.5625 27.3594C 10.9453 27.8561 11.4557 28.1045 12.0938 28.1045C 12.7363 28.1045 13.2467 27.8538 13.625 27.3525C 14.0033 26.8467 14.1924 26.1403 14.1924 25.2334C 14.1924 24.4222 13.9987 23.766 13.6113 23.2646C 13.2285 22.7588 12.7181 22.5059 12.0801 22.5059C 11.4557 22.5059 10.9521 22.7542 10.5693 23.251C 10.1865 23.7477 9.99512 24.4587 9.99512 25.3838ZM 16.708 25.2334C 16.708 24.5088 16.8493 23.8571 17.1318 23.2783C 17.4189 22.6995 17.8154 22.2529 18.3213 21.9385C 18.8317 21.624 19.4128 21.4668 20.0645 21.4668C 21.0716 21.4668 21.8851 21.8154 22.5049 22.5127C 23.1292 23.21 23.4414 24.1374 23.4414 25.2949L 23.4414 25.3838C 23.4414 26.1038 23.3024 26.751 23.0244 27.3252C 22.751 27.8949 22.3568 28.3392 21.8418 28.6582C 21.3314 28.9772 20.7435 29.1367 20.0781 29.1367C 19.0755 29.1367 18.262 28.7881 17.6377 28.0908C 17.0179 27.3936 16.708 26.4707 16.708 25.3223L 16.708 25.2334ZM 17.9795 25.3838C 17.9795 26.2041 18.1686 26.8626 18.5469 27.3594C 18.9297 27.8561 19.4401 28.1045 20.0781 28.1045C 20.7207 28.1045 21.2311 27.8538 21.6094 27.3525C 21.9876 26.8467 22.1768 26.1403 22.1768 25.2334C 22.1768 24.4222 21.9831 23.766 21.5957 23.2646C 21.2129 22.7588 20.7025 22.5059 20.0645 22.5059C 19.4401 22.5059 18.9365 22.7542 18.5537 23.251C 18.1709 23.7477 17.9795 24.4587 17.9795 25.3838ZM 26.4014 29L 25.1367 29L 25.1367 18.5L 26.4014 18.5L 26.4014 29ZM 31.501 29.1367C 30.4984 29.1367 29.6826 28.8086 29.0537 28.1523C 28.4248 27.4915 28.1104 26.6097 28.1104 25.5068L 28.1104 25.2744C 28.1104 24.5407 28.2493 23.8867 28.5273 23.3125C 28.8099 22.7337 29.2018 22.2826 29.7031 21.959C 30.209 21.6309 30.7559 21.4668 31.3438 21.4668C 32.3053 21.4668 33.0527 21.7835 33.5859 22.417C 34.1191 23.0505 34.3857 23.9574 34.3857 25.1377L 34.3857 25.6641L 29.375 25.6641C 29.3932 26.3932 29.6051 26.9834 30.0107 27.4346C 30.4209 27.8812 30.9404 28.1045 31.5693 28.1045C 32.016 28.1045 32.3942 28.0133 32.7041 27.8311C 33.014 27.6488 33.2852 27.4072 33.5176 27.1064L 34.29 27.708C 33.6702 28.6605 32.7406 29.1367 31.501 29.1367ZM 31.3438 22.5059C 30.8333 22.5059 30.4049 22.6927 30.0586 23.0664C 29.7122 23.4355 29.498 23.9551 29.416 24.625L 33.1211 24.625L 33.1211 24.5293C 33.0846 23.8867 32.9115 23.39 32.6016 23.0391C 32.2917 22.6836 31.8724 22.5059 31.3438 22.5059ZM 40.4219 29C 40.349 28.8542 40.2897 28.5944 40.2441 28.2207C 39.6562 28.8314 38.9544 29.1367 38.1387 29.1367C 37.4095 29.1367 36.8102 28.9316 36.3408 28.5215C 35.876 28.1068 35.6436 27.5827 35.6436 26.9492C 35.6436 26.179 35.9352 25.582 36.5186 25.1582C 37.1064 24.7298 37.9313 24.5156 38.9932 24.5156L 40.2236 24.5156L 40.2236 23.9346C 40.2236 23.4925 40.0915 23.1416 39.8271 22.8818C 39.5628 22.6175 39.1732 22.4854 38.6582 22.4854C 38.207 22.4854 37.8288 22.5993 37.5234 22.8271C 37.2181 23.055 37.0654 23.3307 37.0654 23.6543L 35.7939 23.6543C 35.7939 23.2852 35.9238 22.9297 36.1836 22.5879C 36.4479 22.2415 36.8034 21.9681 37.25 21.7676C 37.7012 21.5671 38.1956 21.4668 38.7334 21.4668C 39.5856 21.4668 40.2533 21.681 40.7363 22.1094C 41.2194 22.5332 41.4701 23.1188 41.4883 23.8662L 41.4883 27.2705C 41.4883 27.9495 41.5749 28.4896 41.748 28.8906L 41.748 29L 40.4219 29ZM 38.3232 28.0361C 38.7197 28.0361 39.0957 27.9336 39.4512 27.7285C 39.8066 27.5234 40.0641 27.2568 40.2236 26.9287L 40.2236 25.4111L 39.2324 25.4111C 37.6829 25.4111 36.9082 25.8646 36.9082 26.7715C 36.9082 27.168 37.0404 27.4779 37.3047 27.7012C 37.569 27.9245 37.9085 28.0361 38.3232 28.0361ZM 44.667 21.6035L 44.708 22.5332C 45.2731 21.8223 46.0114 21.4668 46.9229 21.4668C 48.486 21.4668 49.2744 22.3486 49.2881 24.1123L 49.2881 29L 48.0234 29L 48.0234 24.1055C 48.0189 23.5723 47.8958 23.1781 47.6543 22.9229C 47.4173 22.6676 47.0459 22.54 46.54 22.54C 46.1299 22.54 45.7699 22.6494 45.46 22.8682C 45.1501 23.0869 44.9085 23.374 44.7354 23.7295L 44.7354 29L 43.4707 29L 43.4707 21.6035L 44.667 21.6035ZM 54.333 25.2334C 54.333 24.5088 54.4743 23.8571 54.7568 23.2783C 55.0439 22.6995 55.4404 22.2529 55.9463 21.9385C 56.4567 21.624 57.0378 21.4668 57.6895 21.4668C 58.6966 21.4668 59.5101 21.8154 60.1299 22.5127C 60.7542 23.21 61.0664 24.1374 61.0664 25.2949L 61.0664 25.3838C 61.0664 26.1038 60.9274 26.751 60.6494 27.3252C 60.376 27.8949 59.9818 28.3392 59.4668 28.6582C 58.9564 28.9772 58.3685 29.1367 57.7031 29.1367C 56.7005 29.1367 55.887 28.7881 55.2627 28.0908C 54.6429 27.3936 54.333 26.4707 54.333 25.3223L 54.333 25.2334ZM 55.6045 25.3838C 55.6045 26.2041 55.7936 26.8626 56.1719 27.3594C 56.5547 27.8561 57.0651 28.1045 57.7031 28.1045C 58.3457 28.1045 58.8561 27.8538 59.2344 27.3525C 59.6126 26.8467 59.8018 26.1403 59.8018 25.2334C 59.8018 24.4222 59.6081 23.766 59.2207 23.2646C 58.8379 22.7588 58.3275 22.5059 57.6895 22.5059C 57.0651 22.5059 56.5615 22.7542 56.1787 23.251C 55.7959 23.7477 55.6045 24.4587 55.6045 25.3838ZM 68.9004 25.3838C 68.9004 26.5094 68.6429 27.4163 68.1279 28.1045C 67.613 28.7926 66.9157 29.1367 66.0361 29.1367C 65.1383 29.1367 64.432 28.8519 63.917 28.2822L 63.917 31.8438L 62.6523 31.8438L 62.6523 21.6035L 63.8076 21.6035L 63.8691 22.4238C 64.3841 21.7858 65.0996 21.4668 66.0156 21.4668C 66.9043 21.4668 67.6061 21.8018 68.1211 22.4717C 68.6406 23.1416 68.9004 24.0736 68.9004 25.2676L 68.9004 25.3838ZM 67.6357 25.2402C 67.6357 24.4062 67.458 23.7477 67.1025 23.2646C 66.7471 22.7816 66.2594 22.54 65.6396 22.54C 64.874 22.54 64.2998 22.8796 63.917 23.5586L 63.917 27.0928C 64.2952 27.7673 64.874 28.1045 65.6533 28.1045C 66.2594 28.1045 66.7402 27.8652 67.0957 27.3867C 67.4557 26.9036 67.6357 26.1882 67.6357 25.2402ZM 73.583 29.1367C 72.5804 29.1367 71.7646 28.8086 71.1357 28.1523C 70.5068 27.4915 70.1924 26.6097 70.1924 25.5068L 70.1924 25.2744C 70.1924 24.5407 70.3314 23.8867 70.6094 23.3125C 70.8919 22.7337 71.2839 22.2826 71.7852 21.959C 72.291 21.6309 72.8379 21.4668 73.4258 21.4668C 74.3874 21.4668 75.1348 21.7835 75.668 22.417C 76.2012 23.0505 76.4678 23.9574 76.4678 25.1377L 76.4678 25.6641L 71.457 25.6641C 71.4753 26.3932 71.6872 26.9834 72.0928 27.4346C 72.5029 27.8812 73.0225 28.1045 73.6514 28.1045C 74.098 28.1045 74.4762 28.0133 74.7861 27.8311C 75.096 27.6488 75.3672 27.4072 75.5996 27.1064L 76.3721 27.708C 75.7523 28.6605 74.8226 29.1367 73.583 29.1367ZM 73.4258 22.5059C 72.9154 22.5059 72.487 22.6927 72.1406 23.0664C 71.7943 23.4355 71.5801 23.9551 71.498 24.625L 75.2031 24.625L 75.2031 24.5293C 75.1667 23.8867 74.9935 23.39 74.6836 23.0391C 74.3737 22.6836 73.9544 22.5059 73.4258 22.5059ZM 81.5127 22.7383C 81.3213 22.7064 81.1139 22.6904 80.8906 22.6904C 80.0612 22.6904 79.4984 23.0436 79.2021 23.75L 79.2021 29L 77.9375 29L 77.9375 21.6035L 79.168 21.6035L 79.1885 22.458C 79.6032 21.7972 80.1911 21.4668 80.9521 21.4668C 81.1982 21.4668 81.3851 21.4987 81.5127 21.5625L 81.5127 22.7383ZM 86.9746 29C 86.9017 28.8542 86.8424 28.5944 86.7969 28.2207C 86.209 28.8314 85.5072 29.1367 84.6914 29.1367C 83.9622 29.1367 83.363 28.9316 82.8936 28.5215C 82.4287 28.1068 82.1963 27.5827 82.1963 26.9492C 82.1963 26.179 82.488 25.582 83.0713 25.1582C 83.6592 24.7298 84.484 24.5156 85.5459 24.5156L 86.7764 24.5156L 86.7764 23.9346C 86.7764 23.4925 86.6442 23.1416 86.3799 22.8818C 86.1156 22.6175 85.7259 22.4854 85.2109 22.4854C 84.7598 22.4854 84.3815 22.5993 84.0762 22.8271C 83.7708 23.055 83.6182 23.3307 83.6182 23.6543L 82.3467 23.6543C 82.3467 23.2852 82.4766 22.9297 82.7363 22.5879C 83.0007 22.2415 83.3561 21.9681 83.8027 21.7676C 84.2539 21.5671 84.7484 21.4668 85.2861 21.4668C 86.1383 21.4668 86.806 21.681 87.2891 22.1094C 87.7721 22.5332 88.0228 23.1188 88.041 23.8662L 88.041 27.2705C 88.041 27.9495 88.1276 28.4896 88.3008 28.8906L 88.3008 29L 86.9746 29ZM 84.876 28.0361C 85.2725 28.0361 85.6484 27.9336 86.0039 27.7285C 86.3594 27.5234 86.6169 27.2568 86.7764 26.9287L 86.7764 25.4111L 85.7852 25.4111C 84.2357 25.4111 83.4609 25.8646 83.4609 26.7715C 83.4609 27.168 83.5931 27.4779 83.8574 27.7012C 84.1217 27.9245 84.4613 28.0361 84.876 28.0361ZM 91.7393 19.8125L 91.7393 21.6035L 93.1201 21.6035L 93.1201 22.5811L 91.7393 22.5811L 91.7393 27.168C 91.7393 27.4642 91.8008 27.6875 91.9238 27.8379C 92.0469 27.9837 92.2565 28.0566 92.5527 28.0566C 92.6986 28.0566 92.8991 28.0293 93.1543 27.9746L 93.1543 29C 92.8216 29.0911 92.498 29.1367 92.1836 29.1367C 91.6185 29.1367 91.1924 28.9658 90.9053 28.624C 90.6182 28.2822 90.4746 27.7969 90.4746 27.168L 90.4746 22.5811L 89.1279 22.5811L 89.1279 21.6035L 90.4746 21.6035L 90.4746 19.8125L 91.7393 19.8125ZM 95.9775 29L 94.7129 29L 94.7129 21.6035L 95.9775 21.6035L 95.9775 29ZM 94.6104 19.6416C 94.6104 19.4365 94.6719 19.2633 94.7949 19.1221C 94.9225 18.9808 95.1094 18.9102 95.3555 18.9102C 95.6016 18.9102 95.7884 18.9808 95.916 19.1221C 96.0436 19.2633 96.1074 19.4365 96.1074 19.6416C 96.1074 19.8467 96.0436 20.0176 95.916 20.1543C 95.7884 20.291 95.6016 20.3594 95.3555 20.3594C 95.1094 20.3594 94.9225 20.291 94.7949 20.1543C 94.6719 20.0176 94.6104 19.8467 94.6104 19.6416ZM 97.6729 25.2334C 97.6729 24.5088 97.8141 23.8571 98.0967 23.2783C 98.3838 22.6995 98.7803 22.2529 99.2861 21.9385C 99.7965 21.624 100.378 21.4668 101.029 21.4668C 102.036 21.4668 102.85 21.8154 103.47 22.5127C 104.094 23.21 104.406 24.1374 104.406 25.2949L 104.406 25.3838C 104.406 26.1038 104.267 26.751 103.989 27.3252C 103.716 27.8949 103.322 28.3392 102.807 28.6582C 102.296 28.9772 101.708 29.1367 101.043 29.1367C 100.04 29.1367 99.2269 28.7881 98.6025 28.0908C 97.9827 27.3936 97.6729 26.4707 97.6729 25.3223L 97.6729 25.2334ZM 98.9443 25.3838C 98.9443 26.2041 99.1335 26.8626 99.5117 27.3594C 99.8945 27.8561 100.405 28.1045 101.043 28.1045C 101.686 28.1045 102.196 27.8538 102.574 27.3525C 102.952 26.8467 103.142 26.1403 103.142 25.2334C 103.142 24.4222 102.948 23.766 102.561 23.2646C 102.178 22.7588 101.667 22.5059 101.029 22.5059C 100.405 22.5059 99.9014 22.7542 99.5186 23.251C 99.1357 23.7477 98.9443 24.4587 98.9443 25.3838ZM 107.188 21.6035L 107.229 22.5332C 107.795 21.8223 108.533 21.4668 109.444 21.4668C 111.007 21.4668 111.796 22.3486 111.81 24.1123L 111.81 29L 110.545 29L 110.545 24.1055C 110.54 23.5723 110.417 23.1781 110.176 22.9229C 109.939 22.6676 109.567 22.54 109.062 22.54C 108.651 22.54 108.291 22.6494 107.981 22.8682C 107.672 23.0869 107.43 23.374 107.257 23.7295L 107.257 29L 105.992 29L 105.992 21.6035L 107.188 21.6035Z"/>
<path id="path8_fill" d="M 11.2174 11.3398L 16.7194 13.5635L 16.7194 15.2861L 9.52992 11.9551L 9.52992 10.6719L 16.7194 7.34961L 16.7194 9.07227L 11.2174 11.3398ZM 24.3307 10.584L 24.9811 4.20312L 31.5377 4.20312L 31.5377 5.70605L 26.361 5.70605L 25.9743 9.19531C 26.6012 8.82617 27.3131 8.6416 28.11 8.6416C 29.276 8.6416 30.2018 9.02832 30.8873 9.80176C 31.5729 10.5693 31.9157 11.6094 31.9157 12.9219C 31.9157 14.2402 31.5582 15.2803 30.8434 16.042C 30.1344 16.7979 29.1413 17.1758 27.8639 17.1758C 26.733 17.1758 25.8102 16.8623 25.0954 16.2354C 24.3805 15.6084 23.9733 14.7412 23.8737 13.6338L 25.4118 13.6338C 25.5114 14.3662 25.7721 14.9199 26.194 15.2949C 26.6159 15.6641 27.1725 15.8486 27.8639 15.8486C 28.6198 15.8486 29.2116 15.5908 29.6393 15.0752C 30.0729 14.5596 30.2897 13.8477 30.2897 12.9395C 30.2897 12.084 30.0553 11.3984 29.5866 10.8828C 29.1237 10.3613 28.5055 10.1006 27.7321 10.1006C 27.0231 10.1006 26.4664 10.2559 26.0622 10.5664L 25.6315 10.918L 24.3307 10.584Z"/>
<path id="path9_fill" d="M 39.3282 17L 30.9435 17L 30.9435 15.8311L 35.3732 10.9092C 36.0294 10.165 36.4806 9.56152 36.7267 9.09863C 36.9786 8.62988 37.1046 8.14648 37.1046 7.64844C 37.1046 6.98047 36.9025 6.43262 36.4982 6.00488C 36.0939 5.57715 35.5548 5.36328 34.881 5.36328C 34.0724 5.36328 33.4425 5.59473 32.9913 6.05762C 32.546 6.51465 32.3234 7.15332 32.3234 7.97363L 30.6974 7.97363C 30.6974 6.7959 31.0753 5.84375 31.8312 5.11719C 32.5929 4.39063 33.6095 4.02734 34.881 4.02734C 36.0704 4.02734 37.0109 4.34082 37.7023 4.96777C 38.3937 5.58887 38.7394 6.41797 38.7394 7.45508C 38.7394 8.71484 37.9366 10.2148 36.3312 11.9551L 32.9034 15.6729L 39.3282 15.6729L 39.3282 17Z"/>
<path id="path10_fill" d="M 37.8077 12.7021L 39.5831 12.7021L 39.5831 14.0293L 37.8077 14.0293L 37.8077 17L 36.173 17L 36.173 14.0293L 30.3458 14.0293L 30.3458 13.0713L 36.0763 4.20312L 37.8077 4.20312L 37.8077 12.7021ZM 32.1915 12.7021L 36.173 12.7021L 36.173 6.42676L 35.9796 6.77832L 32.1915 12.7021Z"/>
<path id="path11_fill" d="M 37.3243 4.19434L 37.3243 5.57422L 37.0255 5.57422C 35.7599 5.59766 34.7521 5.97266 34.0021 6.69922C 33.2521 7.42578 32.8185 8.44824 32.7013 9.7666C 33.3751 8.99316 34.295 8.60645 35.4611 8.60645C 36.5743 8.60645 37.462 8.99902 38.1241 9.78418C 38.7921 10.5693 39.1261 11.583 39.1261 12.8252C 39.1261 14.1436 38.7657 15.1982 38.045 15.9893C 37.3302 16.7803 36.3693 17.1758 35.1622 17.1758C 33.9376 17.1758 32.9445 16.707 32.1827 15.7695C 31.421 14.8262 31.0402 13.6133 31.0402 12.1309L 31.0402 11.5068C 31.0402 9.15137 31.5411 7.35254 32.5431 6.11035C 33.5509 4.8623 35.048 4.22363 37.0343 4.19434L 37.3243 4.19434ZM 35.1886 9.95996C 34.632 9.95996 34.1193 10.127 33.6505 10.4609C 33.1818 10.7949 32.8566 11.2139 32.6749 11.7178L 32.6749 12.3154C 32.6749 13.3701 32.9122 14.2197 33.3868 14.8643C 33.8614 15.5088 34.4532 15.8311 35.1622 15.8311C 35.8946 15.8311 36.4689 15.5615 36.8849 15.0225C 37.3068 14.4834 37.5177 13.7773 37.5177 12.9043C 37.5177 12.0254 37.3038 11.3164 36.8761 10.7773C 36.4542 10.2324 35.8917 9.95996 35.1886 9.95996Z"/>
<path id="path12_fill" d="M 38.7042 7.54297C 38.7042 8.18164 38.5343 8.75 38.1945 9.24805C 37.8605 9.74609 37.4064 10.1357 36.8321 10.417C 37.5001 10.7041 38.0275 11.123 38.4142 11.6738C 38.8068 12.2246 39.003 12.8486 39.003 13.5459C 39.003 14.6533 38.628 15.5352 37.878 16.1914C 37.1339 16.8477 36.1525 17.1758 34.9337 17.1758C 33.7032 17.1758 32.7159 16.8477 31.9718 16.1914C 31.2335 15.5293 30.8644 14.6475 30.8644 13.5459C 30.8644 12.8545 31.0519 12.2305 31.4269 11.6738C 31.8077 11.1172 32.3321 10.6953 33.0001 10.4082C 32.4318 10.127 31.9835 9.7373 31.6554 9.23926C 31.3273 8.74121 31.1632 8.17578 31.1632 7.54297C 31.1632 6.46484 31.5089 5.60938 32.2003 4.97656C 32.8917 4.34375 33.8029 4.02734 34.9337 4.02734C 36.0587 4.02734 36.9669 4.34375 37.6583 4.97656C 38.3556 5.60938 38.7042 6.46484 38.7042 7.54297ZM 37.3771 13.5107C 37.3771 12.7959 37.1486 12.2129 36.6915 11.7617C 36.2404 11.3105 35.6486 11.085 34.9161 11.085C 34.1837 11.085 33.5948 11.3076 33.1495 11.7529C 32.7101 12.1982 32.4904 12.7842 32.4904 13.5107C 32.4904 14.2373 32.7042 14.8086 33.132 15.2246C 33.5655 15.6406 34.1661 15.8486 34.9337 15.8486C 35.6954 15.8486 36.2931 15.6406 36.7267 15.2246C 37.1603 14.8027 37.3771 14.2314 37.3771 13.5107ZM 34.9337 5.36328C 34.295 5.36328 33.7765 5.5625 33.378 5.96094C 32.9855 6.35352 32.7892 6.88965 32.7892 7.56934C 32.7892 8.21973 32.9825 8.74707 33.3693 9.15137C 33.7618 9.5498 34.2833 9.74902 34.9337 9.74902C 35.5841 9.74902 36.1027 9.5498 36.4894 9.15137C 36.882 8.74707 37.0782 8.21973 37.0782 7.56934C 37.0782 6.91895 36.8761 6.38867 36.4718 5.97852C 36.0675 5.56836 35.5548 5.36328 34.9337 5.36328Z"/>
<path id="path13_fill" d="M 2.15332 5.60352L 2.19434 6.5332C 2.75944 5.82227 3.49772 5.4668 4.40918 5.4668C 5.97233 5.4668 6.76074 6.34863 6.77441 8.1123L 6.77441 13L 5.50977 13L 5.50977 8.10547C 5.50521 7.57227 5.38216 7.17806 5.14062 6.92285C 4.90365 6.66764 4.53223 6.54004 4.02637 6.54004C 3.61621 6.54004 3.25618 6.64941 2.94629 6.86816C 2.63639 7.08691 2.39486 7.37402 2.22168 7.72949L 2.22168 13L 0.957031 13L 0.957031 5.60352L 2.15332 5.60352ZM 8.37402 9.24023C 8.37402 8.10547 8.6429 7.19401 9.18066 6.50586C 9.71842 5.81315 10.4225 5.4668 11.293 5.4668C 12.1589 5.4668 12.8447 5.76302 13.3506 6.35547L 13.3506 2.5L 14.6152 2.5L 14.6152 13L 13.4531 13L 13.3916 12.207C 12.8857 12.8268 12.1816 13.1367 11.2793 13.1367C 10.4225 13.1367 9.72298 12.7858 9.18066 12.084C 8.6429 11.3822 8.37402 10.4661 8.37402 9.33594L 8.37402 9.24023ZM 9.63867 9.38379C 9.63867 10.2223 9.81185 10.8786 10.1582 11.3525C 10.5046 11.8265 10.9831 12.0635 11.5938 12.0635C 12.3958 12.0635 12.9814 11.7035 13.3506 10.9834L 13.3506 7.58594C 12.9723 6.88867 12.3913 6.54004 11.6074 6.54004C 10.9876 6.54004 10.5046 6.7793 10.1582 7.25781C 9.81185 7.73633 9.63867 8.44499 9.63867 9.38379ZM 21.1504 13C 21.0775 12.8542 21.0182 12.5944 20.9727 12.2207C 20.3848 12.8314 19.6829 13.1367 18.8672 13.1367C 18.138 13.1367 17.5387 12.9316 17.0693 12.5215C 16.6045 12.1068 16.3721 11.5827 16.3721 10.9492C 16.3721 10.179 16.6637 9.58203 17.2471 9.1582C 17.835 8.72982 18.6598 8.51562 19.7217 8.51562L 20.9521 8.51562L 20.9521 7.93457C 20.9521 7.49251 20.82 7.1416 20.5557 6.88184C 20.2913 6.61751 19.9017 6.48535 19.3867 6.48535C 18.9355 6.48535 18.5573 6.59928 18.252 6.82715C 17.9466 7.05501 17.7939 7.33073 17.7939 7.6543L 16.5225 7.6543C 16.5225 7.28516 16.6523 6.92969 16.9121 6.58789C 17.1764 6.24154 17.5319 5.9681 17.9785 5.76758C 18.4297 5.56706 18.9242 5.4668 19.4619 5.4668C 20.3141 5.4668 20.9818 5.68099 21.4648 6.10938C 21.9479 6.5332 22.1986 7.11882 22.2168 7.86621L 22.2168 11.2705C 22.2168 11.9495 22.3034 12.4896 22.4766 12.8906L 22.4766 13L 21.1504 13ZM 19.0518 12.0361C 19.4482 12.0361 19.8242 11.9336 20.1797 11.7285C 20.5352 11.5234 20.7926 11.2568 20.9521 10.9287L 20.9521 9.41113L 19.9609 9.41113C 18.4115 9.41113 17.6367 9.86458 17.6367 10.7715C 17.6367 11.168 17.7689 11.4779 18.0332 11.7012C 18.2975 11.9245 18.637 12.0361 19.0518 12.0361ZM 27.7744 6.73828C 27.583 6.70638 27.3757 6.69043 27.1523 6.69043C 26.3229 6.69043 25.7601 7.04362 25.4639 7.75L 25.4639 13L 24.1992 13L 24.1992 5.60352L 25.4297 5.60352L 25.4502 6.45801C 25.8649 5.7972 26.4528 5.4668 27.2139 5.4668C 27.46 5.4668 27.6468 5.4987 27.7744 5.5625L 27.7744 6.73828ZM 32.5186 6.73828C 32.3271 6.70638 32.1198 6.69043 31.8965 6.69043C 31.0671 6.69043 30.5042 7.04362 30.208 7.75L 30.208 13L 28.9434 13L 28.9434 5.60352L 30.1738 5.60352L 30.1943 6.45801C 30.609 5.7972 31.1969 5.4668 31.958 5.4668C 32.2041 5.4668 32.391 5.4987 32.5186 5.5625L 32.5186 6.73828ZM 37.9805 13C 37.9076 12.8542 37.8483 12.5944 37.8027 12.2207C 37.2148 12.8314 36.513 13.1367 35.6973 13.1367C 34.9681 13.1367 34.3688 12.9316 33.8994 12.5215C 33.4346 12.1068 33.2021 11.5827 33.2021 10.9492C 33.2021 10.179 33.4938 9.58203 34.0771 9.1582C 34.665 8.72982 35.4899 8.51562 36.5518 8.51562L 37.7822 8.51562L 37.7822 7.93457C 37.7822 7.49251 37.6501 7.1416 37.3857 6.88184C 37.1214 6.61751 36.7318 6.48535 36.2168 6.48535C 35.7656 6.48535 35.3874 6.59928 35.082 6.82715C 34.7767 7.05501 34.624 7.33073 34.624 7.6543L 33.3525 7.6543C 33.3525 7.28516 33.4824 6.92969 33.7422 6.58789C 34.0065 6.24154 34.362 5.9681 34.8086 5.76758C 35.2598 5.56706 35.7542 5.4668 36.292 5.4668C 37.1442 5.4668 37.8118 5.68099 38.2949 6.10938C 38.778 6.5332 39.0286 7.11882 39.0469 7.86621L 39.0469 11.2705C 39.0469 11.9495 39.1335 12.4896 39.3066 12.8906L 39.3066 13L 37.9805 13ZM 35.8818 12.0361C 36.2783 12.0361 36.6543 11.9336 37.0098 11.7285C 37.3652 11.5234 37.6227 11.2568 37.7822 10.9287L 37.7822 9.41113L 36.791 9.41113C 35.2415 9.41113 34.4668 9.86458 34.4668 10.7715C 34.4668 11.168 34.599 11.4779 34.8633 11.7012C 35.1276 11.9245 35.4671 12.0361 35.8818 12.0361ZM 43.3398 11.1475L 45.0625 5.60352L 46.416 5.60352L 43.4424 14.1416C 42.9821 15.3721 42.2507 15.9873 41.248 15.9873L 41.0088 15.9668L 40.5371 15.8779L 40.5371 14.8525L 40.8789 14.8799C 41.3073 14.8799 41.64 14.7933 41.877 14.6201C 42.1185 14.4469 42.3167 14.1302 42.4717 13.6699L 42.752 12.918L 40.1133 5.60352L 41.4941 5.60352L 43.3398 11.1475Z"/>
<path id="path14_stroke" d="M 48.9293 0.707107C 49.3199 0.316583 49.3199 -0.316583 48.9293 -0.707107L 42.5654 -7.07107C 42.1748 -7.46159 41.5417 -7.46159 41.1512 -7.07107C 40.7606 -6.68054 40.7606 -6.04738 41.1512 -5.65685L 46.808 0L 41.1512 5.65685C 40.7606 6.04738 40.7606 6.68054 41.1512 7.07107C 41.5417 7.46159 42.1748 7.46159 42.5654 7.07107L 48.9293 0.707107ZM 0 1L 48.2222 1L 48.2222 -1L 0 -1L 0 1Z"/>
</defs>
</svg>
