<svg width="400" height="266" viewBox="0 0 400 266" fill="none" xmlns="http://www.w3.org/2000/svg">
<g clip-path="url(#clip0)">
<rect width="400" height="266" fill="white"/>
<line x1="59.5" y1="4" x2="59.5" y2="225" stroke="black"/>
<line x1="59" y1="224.5" x2="280" y2="224.5" stroke="black"/>
<path d="M35.224 128.332L36.304 128.584C36.376 128.368 36.424 128.14 36.424 127.816C36.424 126.532 35.596 125.92 34.264 125.428L28.108 123.292V124.624L31 125.512C31.528 125.656 32.116 125.812 32.656 125.956V126.004C32.104 126.184 31.516 126.352 31 126.52L28.108 127.54V128.944L33.928 126.628L34.3 126.736C34.888 126.928 35.308 127.288 35.308 127.912C35.308 128.056 35.26 128.224 35.224 128.332ZM31.48 122.642V119.786H30.472V122.642H31.48ZM32.416 118.655C33.448 118.655 34.144 117.935 34.144 116.903C34.144 116.207 33.796 115.607 33.352 115.079V115.043L34 114.935V113.807H30.508C28.864 113.807 27.964 114.527 27.964 116.003C27.964 116.939 28.324 117.767 28.732 118.415L29.656 117.911C29.344 117.395 29.08 116.843 29.08 116.255C29.08 115.463 29.608 115.199 30.232 115.187C30.496 117.599 31.156 118.655 32.416 118.655ZM32.308 117.311C31.72 117.311 31.3 116.783 31.096 115.187H32.416C32.824 115.619 33.064 115.991 33.064 116.471C33.064 116.963 32.836 117.311 32.308 117.311ZM34 112.83V111.39L32.836 110.766C32.476 110.598 32.128 110.418 31.792 110.25V110.202C32.128 109.998 32.488 109.794 32.836 109.602L34 108.882V107.394L31.084 109.266L28.108 107.526V108.954L29.224 109.518C29.548 109.662 29.896 109.83 30.22 109.974V110.022C29.896 110.202 29.548 110.394 29.224 110.562L28.108 111.222V112.71L30.928 110.958L34 112.83ZM27.076 105.649C27.076 105.157 26.752 104.797 26.296 104.797C25.828 104.797 25.504 105.157 25.504 105.649C25.504 106.141 25.828 106.501 26.296 106.501C26.752 106.501 27.076 106.141 27.076 105.649ZM34 106.345V104.965H28.108V106.345H34ZM33.328 103.792C33.796 103.216 34.144 102.364 34.144 101.56C34.144 100.072 33.328 99.2681 32.32 99.2681C31.216 99.2681 30.832 100.156 30.532 100.96C30.304 101.596 30.112 102.184 29.656 102.184C29.284 102.184 29.008 101.908 29.008 101.32C29.008 100.852 29.212 100.432 29.512 100.024L28.672 99.3881C28.3 99.8681 27.964 100.528 27.964 101.344C27.964 102.664 28.696 103.492 29.728 103.492C30.712 103.492 31.156 102.616 31.444 101.836C31.684 101.212 31.9 100.576 32.392 100.576C32.8 100.576 33.1 100.876 33.1 101.512C33.1 102.112 32.848 102.616 32.44 103.144L33.328 103.792Z" fill="black"/>
<path d="M154.756 259H156.196L156.82 257.836C156.988 257.476 157.168 257.128 157.336 256.792H157.384C157.588 257.128 157.792 257.488 157.984 257.836L158.704 259H160.192L158.32 256.084L160.06 253.108H158.632L158.068 254.224C157.924 254.548 157.756 254.896 157.612 255.22H157.564C157.384 254.896 157.192 254.548 157.024 254.224L156.364 253.108H154.876L156.628 255.928L154.756 259ZM160.682 256.48H163.538V255.472H160.682V256.48ZM164.669 257.416C164.669 258.448 165.389 259.144 166.421 259.144C167.117 259.144 167.717 258.796 168.245 258.352H168.281L168.389 259H169.517V255.508C169.517 253.864 168.797 252.964 167.321 252.964C166.385 252.964 165.557 253.324 164.909 253.732L165.413 254.656C165.929 254.344 166.481 254.08 167.069 254.08C167.861 254.08 168.125 254.608 168.137 255.232C165.725 255.496 164.669 256.156 164.669 257.416ZM166.013 257.308C166.013 256.72 166.541 256.3 168.137 256.096V257.416C167.705 257.824 167.333 258.064 166.853 258.064C166.361 258.064 166.013 257.836 166.013 257.308ZM170.494 259H171.934L172.558 257.836C172.726 257.476 172.906 257.128 173.074 256.792H173.122C173.326 257.128 173.53 257.488 173.722 257.836L174.442 259H175.93L174.058 256.084L175.798 253.108H174.37L173.806 254.224C173.662 254.548 173.494 254.896 173.35 255.22H173.302C173.122 254.896 172.93 254.548 172.762 254.224L172.102 253.108H170.614L172.366 255.928L170.494 259ZM177.676 252.076C178.168 252.076 178.528 251.752 178.528 251.296C178.528 250.828 178.168 250.504 177.676 250.504C177.184 250.504 176.824 250.828 176.824 251.296C176.824 251.752 177.184 252.076 177.676 252.076ZM176.98 259H178.36V253.108H176.98V259ZM179.532 258.328C180.108 258.796 180.96 259.144 181.764 259.144C183.252 259.144 184.056 258.328 184.056 257.32C184.056 256.216 183.168 255.832 182.364 255.532C181.728 255.304 181.14 255.112 181.14 254.656C181.14 254.284 181.416 254.008 182.004 254.008C182.472 254.008 182.892 254.212 183.3 254.512L183.936 253.672C183.456 253.3 182.796 252.964 181.98 252.964C180.66 252.964 179.832 253.696 179.832 254.728C179.832 255.712 180.708 256.156 181.488 256.444C182.112 256.684 182.748 256.9 182.748 257.392C182.748 257.8 182.448 258.1 181.812 258.1C181.212 258.1 180.708 257.848 180.18 257.44L179.532 258.328Z" fill="black"/>
<path d="M289.486 58.1667C289.578 57.6222 289.211 57.1061 288.667 57.014L279.793 55.5133C279.248 55.4212 278.732 55.788 278.64 56.3326C278.548 56.8771 278.915 57.3932 279.459 57.4853L287.347 58.8193L286.013 66.7073C285.921 67.2518 286.288 67.7679 286.833 67.86C287.377 67.9521 287.893 67.5853 287.985 67.0407L289.486 58.1667ZM69.5793 214.815L289.079 58.8151L287.921 57.1849L68.4207 213.185L69.5793 214.815Z" fill="#BB6BD9"/>
<path d="M290.2 38.714C290.595 38.3273 290.601 37.6941 290.214 37.2998L283.912 30.8747C283.525 30.4804 282.892 30.4743 282.498 30.861C282.103 31.2478 282.097 31.8809 282.484 32.2752L288.086 37.9864L282.375 43.5884C281.98 43.9751 281.974 44.6082 282.361 45.0025C282.748 45.3968 283.381 45.4029 283.775 45.0162L290.2 38.714ZM70.4983 214.942C66.7449 150.633 70.0677 106.367 99.7497 78.289C114.599 64.2426 136.136 54.1604 166.947 47.7211C197.759 41.2815 237.771 38.5003 289.49 39L289.51 37.0001C237.729 36.4998 197.554 39.2812 166.538 45.7634C135.52 52.246 113.589 62.445 98.3753 76.8361C67.9323 105.634 64.7551 150.867 68.5017 215.058L70.4983 214.942Z" fill="#31CB8A"/>
<path d="M289.399 18.5615C289.157 18.0651 288.558 17.8591 288.061 18.1013L279.973 22.0482C279.477 22.2904 279.271 22.8891 279.513 23.3855C279.755 23.8818 280.354 24.0878 280.85 23.8456L288.04 20.3373L291.548 27.5269C291.79 28.0233 292.389 28.2293 292.885 27.9871C293.382 27.7449 293.588 27.1462 293.346 26.6498L289.399 18.5615ZM69 215C100.086 215 136.703 220.411 174.748 198.555C212.812 176.687 252.167 127.657 289.446 19.3254L287.554 18.6746C250.333 126.843 211.188 175.313 173.752 196.82C136.297 218.339 100.414 213 69 213V215Z" fill="#29A1F8"/>
<path d="M158.963 38.8906L158.148 31.085L159.52 30.9417L160.213 37.5777L163.877 37.1952L163.999 38.3648L158.963 38.8906ZM168.282 38.0625C167.9 38.1024 167.523 38.0734 167.151 37.9755C166.779 37.8776 166.444 37.7115 166.146 37.4772C165.848 37.2428 165.596 36.9434 165.389 36.5789C165.19 36.2136 165.065 35.7883 165.014 35.3029C164.963 34.8176 164.998 34.3756 165.117 33.9771C165.244 33.5777 165.429 33.2326 165.672 32.9418C165.916 32.651 166.209 32.4193 166.553 32.2466C166.896 32.066 167.259 31.9558 167.641 31.9159C168.023 31.8761 168.4 31.9091 168.773 32.0149C169.145 32.1128 169.48 32.2789 169.778 32.5132C170.076 32.7476 170.325 33.0474 170.524 33.4127C170.731 33.7772 170.859 34.2021 170.91 34.6875C170.961 35.1728 170.922 35.6152 170.795 36.0146C170.676 36.4131 170.495 36.7578 170.252 37.0486C170.008 37.3394 169.715 37.5711 169.371 37.7438C169.027 37.9164 168.664 38.0227 168.282 38.0625ZM168.165 36.9406C168.643 36.8908 168.998 36.6767 169.232 36.2984C169.465 35.9121 169.551 35.4245 169.49 34.8357C169.427 34.239 169.243 33.7797 168.936 33.4578C168.628 33.128 168.235 32.988 167.758 33.0378C167.28 33.0877 166.925 33.3057 166.692 33.692C166.458 34.0704 166.372 34.5579 166.434 35.1547C166.496 35.7435 166.681 36.2028 166.988 36.5326C167.295 36.8545 167.688 36.9905 168.165 36.9406ZM175.527 39.7797C175.121 39.822 174.752 39.8284 174.419 39.7988C174.086 39.7692 173.793 39.6992 173.54 39.5889C173.296 39.4857 173.1 39.3412 172.952 39.1556C172.805 38.9779 172.718 38.7578 172.69 38.4952C172.64 38.0178 172.908 37.5757 173.493 37.1687L173.488 37.121C173.319 37.0421 173.167 36.9333 173.032 36.7946C172.896 36.6479 172.815 36.4513 172.789 36.2046C172.769 36.0136 172.812 35.8121 172.919 35.5998C173.025 35.3876 173.179 35.1987 173.379 35.0331L173.374 34.9853C173.151 34.8557 172.951 34.6715 172.773 34.4327C172.603 34.193 172.5 33.8981 172.463 33.548C172.429 33.2139 172.461 32.9088 172.561 32.633C172.669 32.3563 172.821 32.1192 173.018 31.9217C173.221 31.7155 173.461 31.5496 173.738 31.4243C174.022 31.298 174.328 31.2179 174.654 31.1839C174.988 31.149 175.299 31.1647 175.588 31.2311L177.987 30.9807L178.096 32.031L176.748 32.1718C176.863 32.2724 176.965 32.4065 177.055 32.5741C177.152 32.7329 177.211 32.9077 177.231 33.0987C177.265 33.4249 177.231 33.718 177.129 33.978C177.036 34.2371 176.89 34.4614 176.693 34.6509C176.503 34.8396 176.27 34.9926 175.993 35.1101C175.715 35.2275 175.414 35.3032 175.087 35.3373C174.809 35.3664 174.505 35.3418 174.175 35.2636C173.951 35.4318 173.851 35.6272 173.874 35.85C173.912 36.216 174.301 36.3604 175.041 36.2832L176.235 36.1586C176.999 36.0789 177.583 36.1305 177.988 36.3134C178.401 36.4875 178.634 36.8332 178.688 37.3504C178.718 37.6368 178.666 37.9156 178.534 38.1869C178.401 38.4581 178.197 38.7006 177.922 38.9143C177.656 39.1352 177.317 39.3193 176.906 39.4668C176.504 39.6214 176.044 39.7257 175.527 39.7797ZM174.996 34.466C175.299 34.4345 175.547 34.308 175.741 34.0867C175.942 33.8565 176.023 33.5545 175.984 33.1805C175.947 32.8225 175.806 32.5516 175.562 32.368C175.325 32.1836 175.056 32.1071 174.754 32.1387C174.451 32.1702 174.199 32.3011 173.998 32.5312C173.805 32.7605 173.727 33.0542 173.764 33.4122C173.803 33.7862 173.941 34.0654 174.178 34.2499C174.421 34.4255 174.694 34.4976 174.996 34.466ZM175.599 38.8551C175.886 38.8252 176.142 38.7704 176.366 38.6906C176.592 38.6188 176.784 38.5304 176.942 38.4254C177.1 38.3205 177.217 38.2077 177.293 38.0872C177.369 37.9667 177.4 37.8427 177.387 37.7154C177.363 37.4847 177.247 37.3399 177.04 37.2811C176.841 37.2294 176.543 37.2243 176.145 37.2659L175.214 37.3631C174.84 37.4021 174.539 37.4054 174.311 37.3729C174.116 37.5139 173.982 37.6526 173.908 37.789C173.833 37.9255 173.803 38.0613 173.817 38.1966C173.845 38.4592 174.009 38.6471 174.311 38.7604C174.621 38.8809 175.05 38.9125 175.599 38.8551ZM181.819 36.6495C181.533 36.6794 181.266 36.663 181.018 36.6004C180.771 36.5458 180.552 36.452 180.361 36.3191C180.17 36.1862 180.016 36.0213 179.899 35.8243C179.781 35.6195 179.709 35.3897 179.683 35.1351C179.648 34.8089 179.694 34.5146 179.82 34.2521C179.944 33.9817 180.16 33.742 180.468 33.5329C180.776 33.3238 181.179 33.1369 181.677 32.9724C182.174 32.8078 182.783 32.6639 183.502 32.5406C183.443 32.2089 183.295 31.9468 183.058 31.7544C182.821 31.562 182.463 31.4907 181.986 31.5406C181.652 31.5755 181.328 31.6736 181.015 31.8349C180.709 31.9875 180.414 32.1631 180.129 32.3618L179.532 31.4951C179.868 31.2509 180.259 31.0211 180.703 30.8058C181.147 30.5906 181.619 30.4568 182.121 30.4044C182.94 30.3189 183.588 30.4725 184.063 30.8653C184.537 31.2501 184.817 31.8523 184.903 32.6718L185.266 36.1449L184.144 36.2621L183.96 35.5452L183.924 35.549C183.639 35.8201 183.315 36.0631 182.951 36.278C182.594 36.4841 182.217 36.6079 181.819 36.6495ZM182.125 35.5317C182.419 35.501 182.695 35.4078 182.952 35.2523C183.217 35.0879 183.473 34.8842 183.721 34.6412L183.592 33.3999C183.071 33.4945 182.639 33.5959 182.296 33.704C181.953 33.8042 181.683 33.9169 181.487 34.0419C181.291 34.1669 181.156 34.3016 181.083 34.446C181.008 34.5825 180.98 34.7303 180.996 34.8894C181.024 35.152 181.143 35.3326 181.354 35.4312C181.574 35.5289 181.831 35.5624 182.125 35.5317ZM187.708 35.89L187.096 30.0299L188.23 29.9115L188.487 31.2239L188.523 31.2201C188.776 30.7112 189.1 30.3113 189.496 30.0207C189.899 29.7212 190.355 29.5449 190.864 29.4917C191.103 29.4668 191.308 29.4655 191.479 29.4879C191.658 29.5014 191.839 29.5428 192.023 29.6121L191.858 30.7997C191.66 30.756 191.484 30.73 191.331 30.722C191.184 30.7051 190.999 30.7083 190.777 30.7315C190.371 30.7739 189.993 30.93 189.643 31.1997C189.293 31.4695 188.997 31.9066 188.754 32.5111L189.092 35.7455L187.708 35.89ZM196.857 34.9349L196.359 30.1609L193.817 30.4263L193.703 29.3402L197.618 28.9315L198.23 34.7917L196.857 34.9349ZM196.73 27.9383C196.452 27.9674 196.208 27.9084 196 27.7612C195.799 27.6132 195.685 27.4 195.656 27.1215C195.626 26.843 195.695 26.6107 195.86 26.4245C196.033 26.2295 196.259 26.1175 196.537 26.0884C196.815 26.0593 197.055 26.1228 197.257 26.2787C197.465 26.4259 197.584 26.6387 197.613 26.9172C197.642 27.1957 197.57 27.4284 197.396 27.6154C197.231 27.8016 197.009 27.9093 196.73 27.9383ZM205.15 34.214C204.705 34.2605 204.321 34.2403 203.998 34.1534C203.683 34.0656 203.419 33.9242 203.206 33.7293C202.999 33.5256 202.836 33.2732 202.716 32.972C202.604 32.67 202.529 32.332 202.49 31.9581L202.238 29.5472L200.675 29.7104L200.568 28.684L202.185 28.4548L202.172 26.5981L203.306 26.4798L203.497 28.3178L206.171 28.0387L206.284 29.1248L203.611 29.4039L203.862 31.8148C203.913 32.3002 204.05 32.6478 204.273 32.8578C204.503 33.059 204.869 33.1334 205.37 33.0811C205.617 33.0554 205.841 33.0118 206.044 32.9504C206.246 32.8811 206.439 32.8006 206.622 32.7091L206.989 33.6842C206.736 33.7992 206.461 33.9043 206.166 33.9995C205.871 34.1026 205.532 34.1742 205.15 34.214ZM208.604 33.7088L207.724 25.2825L209.109 25.138L209.336 27.3102L209.383 28.5721L209.419 28.5684C209.645 28.2713 209.915 28.0058 210.228 27.772C210.542 27.5382 210.925 27.3976 211.379 27.3503C212.055 27.2797 212.574 27.4347 212.936 27.8152C213.296 28.1878 213.516 28.756 213.596 29.5198L213.975 33.1481L212.59 33.2926L212.23 29.8434C212.18 29.366 212.061 29.0286 211.871 28.8312C211.689 28.625 211.395 28.5431 210.989 28.5855C210.703 28.6154 210.455 28.7096 210.246 28.8681C210.038 29.0266 209.813 29.2592 209.571 29.566L209.988 33.5642L208.604 33.7088ZM215.331 33.0066L214.719 27.1464L215.781 27.0355L215.966 27.7643L216.002 27.7606C216.102 27.4927 216.244 27.2648 216.425 27.0769C216.607 26.8891 216.868 26.7773 217.21 26.7416C217.759 26.6843 218.148 26.9735 218.375 27.6094C218.48 27.3088 218.627 27.0562 218.815 26.8516C219.002 26.647 219.267 26.5269 219.609 26.4911C220.023 26.448 220.358 26.5779 220.615 26.8808C220.879 27.175 221.042 27.6165 221.103 28.2053L221.537 32.3587L220.212 32.497L219.789 28.4391C219.735 27.9219 219.553 27.6795 219.242 27.7119C219.083 27.7285 218.954 27.8063 218.856 27.9452C218.765 28.0753 218.673 28.27 218.579 28.5291L219.007 32.6229L217.861 32.7425L217.437 28.6845C217.411 28.4299 217.355 28.2427 217.27 28.1228C217.184 27.995 217.058 27.9399 216.891 27.9573C216.732 27.9739 216.603 28.0517 216.505 28.1906C216.414 28.3208 216.326 28.515 216.24 28.7733L216.667 32.867L215.331 33.0066ZM225.483 31.9468L224.985 27.1728L222.442 27.4381L222.329 26.352L226.244 25.9434L226.855 31.8036L225.483 31.9468ZM225.356 24.9502C225.077 24.9793 224.834 24.9203 224.625 24.7731C224.425 24.6251 224.31 24.4119 224.281 24.1334C224.252 23.8549 224.32 23.6226 224.486 23.4364C224.659 23.2414 224.884 23.1293 225.163 23.1003C225.441 23.0712 225.681 23.1346 225.882 23.2906C226.091 23.4377 226.21 23.6506 226.239 23.9291C226.268 24.2075 226.195 24.4403 226.022 24.6273C225.856 24.8135 225.634 24.9212 225.356 24.9502ZM233.215 31.2845C232.754 31.3327 232.317 31.3099 231.905 31.2161C231.501 31.1216 231.138 30.9584 230.816 30.7265C230.503 30.4938 230.242 30.1953 230.035 29.8308C229.836 29.4655 229.711 29.0401 229.661 28.5548C229.61 28.0694 229.652 27.6266 229.787 27.2264C229.931 26.8254 230.14 26.4778 230.415 26.1837C230.689 25.8896 231.023 25.6537 231.414 25.476C231.805 25.2905 232.224 25.1744 232.669 25.1279C233.147 25.0781 233.573 25.114 233.947 25.2358C234.33 25.3567 234.657 25.5197 234.927 25.7247L234.361 26.6525C234.111 26.4936 233.861 26.3789 233.613 26.3083C233.372 26.2369 233.12 26.2149 232.858 26.2423C232.269 26.3038 231.81 26.5327 231.482 26.9289C231.152 27.3172 231.019 27.8098 231.081 28.4065C231.112 28.7009 231.187 28.9625 231.308 29.1912C231.428 29.42 231.581 29.6131 231.766 29.7707C231.959 29.9196 232.179 30.0292 232.428 30.0998C232.676 30.1624 232.943 30.1788 233.229 30.1489C233.564 30.114 233.859 30.0188 234.117 29.8632C234.382 29.7068 234.621 29.5291 234.833 29.33L235.498 30.1534C235.187 30.4835 234.832 30.7457 234.434 30.9401C234.043 31.1257 233.637 31.2405 233.215 31.2845Z" fill="#31CB8A"/>
<path d="M220.205 97.8231L215.69 91.4038L216.819 90.6099L220.657 96.0673L223.671 93.9479L224.347 94.9099L220.205 97.8231ZM227.828 92.4618L225.066 88.5357L222.976 90.0061L222.347 89.1129L225.567 86.8486L228.956 91.6679L227.828 92.4618ZM224.308 86.4139C224.079 86.575 223.837 86.642 223.583 86.6151C223.336 86.5835 223.132 86.4532 222.971 86.2242C222.81 85.9952 222.756 85.759 222.81 85.5157C222.866 85.2613 223.009 85.0536 223.238 84.8925C223.467 84.7314 223.707 84.6699 223.959 84.708C224.212 84.735 224.42 84.863 224.581 85.092C224.742 85.3211 224.792 85.5595 224.732 85.8074C224.678 86.0506 224.537 86.2528 224.308 86.4139ZM231.603 89.8067L228.213 84.9873L229.146 84.3315L229.745 84.9957L229.784 84.9681C229.852 84.578 229.966 84.2045 230.126 83.8476C230.287 83.4796 230.555 83.1644 230.928 82.9021C231.484 82.5109 232.013 82.3934 232.514 82.5495C233.01 82.6992 233.479 83.0881 233.921 83.7163L236.02 86.7002L234.881 87.501L232.886 84.6643C232.61 84.2717 232.341 84.0354 232.079 83.9553C231.82 83.8642 231.523 83.9359 231.189 84.1706C230.954 84.3363 230.783 84.5392 230.678 84.7793C230.573 85.0194 230.49 85.3322 230.429 85.7177L232.741 89.0059L231.603 89.8067ZM240.005 84.0731C239.639 84.3308 239.256 84.5168 238.857 84.6311C238.454 84.7388 238.055 84.7698 237.661 84.7242C237.274 84.6739 236.901 84.5401 236.542 84.3226C236.184 84.1052 235.865 83.7969 235.584 83.3977C235.308 83.0051 235.13 82.6067 235.051 82.2025C234.968 81.7918 234.965 81.3979 235.042 81.0209C235.121 80.6327 235.269 80.2794 235.485 79.9611C235.703 79.6316 235.976 79.3518 236.303 79.1217C236.663 78.8686 237.021 78.7042 237.379 78.6287C237.732 78.5467 238.075 78.5403 238.407 78.6097C238.735 78.6726 239.047 78.8102 239.343 79.0225C239.639 79.2348 239.905 79.5079 240.139 79.8416C240.218 79.9528 240.287 80.0654 240.348 80.1793C240.41 80.2821 240.458 80.3708 240.491 80.4454L236.947 82.9375C237.33 83.343 237.745 83.5502 238.191 83.559C238.638 83.5679 239.087 83.4135 239.538 83.0959C239.793 82.9165 240.004 82.7148 240.169 82.4909C240.334 82.2671 240.481 82.017 240.61 81.7408L241.489 82.1783C241.354 82.5279 241.159 82.8702 240.906 83.205C240.659 83.5352 240.359 83.8245 240.005 84.0731ZM236.947 79.9745C236.613 80.2093 236.387 80.5145 236.27 80.8903C236.16 81.2615 236.207 81.6687 236.411 82.112L238.973 80.3102C238.657 79.9452 238.326 79.7381 237.978 79.6891C237.637 79.6355 237.293 79.7306 236.947 79.9745ZM244.958 80.5895C244.723 80.7552 244.481 80.8711 244.234 80.9372C243.992 81.0098 243.755 81.0346 243.524 81.0115C243.292 80.9884 243.078 80.9194 242.88 80.8045C242.677 80.6831 242.502 80.5177 242.354 80.3083C242.166 80.04 242.062 79.7607 242.044 79.4704C242.021 79.1736 242.093 78.8588 242.26 78.5262C242.427 78.1935 242.688 77.8341 243.042 77.4479C243.396 77.0618 243.858 76.6397 244.425 76.1816C244.212 75.9206 243.956 75.7639 243.655 75.7114C243.354 75.659 243.007 75.7709 242.614 76.047C242.339 76.2403 242.105 76.4837 241.91 76.7771C241.717 77.0593 241.545 77.3566 241.393 77.6689L240.449 77.203C240.624 76.8258 240.853 76.435 241.136 76.0307C241.419 75.6263 241.766 75.2792 242.178 74.9892C242.852 74.5152 243.493 74.3338 244.099 74.4452C244.701 74.5501 245.239 74.9395 245.713 75.6135L247.722 78.4697L246.799 79.1187L246.29 78.5821L246.26 78.6028C246.143 78.9786 245.978 79.3489 245.765 79.7138C245.554 80.0675 245.285 80.3594 244.958 80.5895ZM244.68 79.4645C244.923 79.2942 245.118 79.0785 245.267 78.8173C245.418 78.545 245.542 78.2423 245.64 77.9091L244.922 76.8883C244.514 77.2248 244.186 77.5237 243.939 77.7851C243.688 78.04 243.508 78.2697 243.397 78.4745C243.287 78.6792 243.235 78.8625 243.241 79.0244C243.243 79.1797 243.29 79.3228 243.382 79.4537C243.534 79.6696 243.726 79.7691 243.959 79.7522C244.198 79.7307 244.438 79.6348 244.68 79.4645ZM249.73 77.0572L246.341 72.2379L247.273 71.582L248.138 72.6025L248.167 72.5818C248.139 72.0143 248.228 71.5072 248.432 71.0604C248.638 70.6025 248.95 70.2262 249.369 69.9317C249.566 69.7936 249.744 69.6926 249.904 69.6287C250.067 69.5536 250.245 69.5014 250.44 69.4722L250.874 70.59C250.68 70.6481 250.514 70.711 250.376 70.7788C250.24 70.8355 250.08 70.9283 249.897 71.0571C249.563 71.2918 249.309 71.6122 249.135 72.0183C248.961 72.4244 248.915 72.9504 248.998 73.5965L250.869 76.2564L249.73 77.0572Z" fill="#BB6BD9"/>
<path d="M240.431 156.437L233.639 152.504L236.159 148.153L237.177 148.742L235.354 151.889L237.089 152.893L238.634 150.224L239.652 150.813L238.106 153.482L240.11 154.643L241.993 151.393L243.01 151.982L240.431 156.437ZM243.724 150.75L242.146 147.368L238.697 147.673L239.449 146.375L240.799 146.269C240.986 146.267 241.183 146.261 241.392 146.252C241.593 146.239 241.795 146.227 241.996 146.214L242.02 146.172C241.919 146.012 241.818 145.843 241.718 145.665C241.618 145.486 241.521 145.319 241.426 145.163L240.82 144.007L241.548 142.751L243.119 145.976L246.718 145.579L245.967 146.877L244.532 147.031C244.338 147.047 244.129 147.065 243.906 147.084C243.686 147.095 243.474 147.111 243.268 147.131L243.244 147.172C243.34 147.357 243.439 147.539 243.539 147.717C243.636 147.884 243.736 148.063 243.839 148.252L244.451 149.494L243.724 150.75ZM249.53 145.368L242.417 141.249L242.988 140.262L243.624 140.506L243.642 140.475C243.57 140.137 243.55 139.788 243.583 139.428C243.613 139.057 243.712 138.726 243.88 138.435C244.073 138.103 244.305 137.845 244.578 137.661C244.848 137.466 245.148 137.348 245.476 137.307C245.809 137.26 246.161 137.283 246.531 137.377C246.906 137.465 247.29 137.623 247.685 137.851C248.121 138.104 248.476 138.393 248.75 138.718C249.017 139.039 249.206 139.375 249.317 139.726C249.426 140.066 249.462 140.41 249.426 140.759C249.394 141.102 249.294 141.418 249.126 141.709C248.99 141.944 248.797 142.156 248.549 142.346C248.305 142.528 248.028 142.663 247.718 142.752L247.7 142.783L248.629 143.238L250.228 144.164L249.53 145.368ZM247.995 141.387C248.208 141.02 248.239 140.631 248.088 140.22C247.931 139.806 247.561 139.43 246.98 139.093C246.467 138.797 246.015 138.659 245.623 138.682C245.231 138.705 244.915 138.924 244.674 139.339C244.562 139.533 244.496 139.758 244.477 140.015C244.457 140.272 244.495 140.566 244.589 140.898L246.884 142.227C247.166 142.141 247.397 142.02 247.578 141.867C247.764 141.706 247.903 141.546 247.995 141.387ZM252.557 135.783C252.365 136.116 252.12 136.404 251.821 136.647C251.523 136.89 251.192 137.064 250.827 137.167C250.462 137.27 250.072 137.298 249.655 137.251C249.243 137.197 248.825 137.047 248.403 136.803C247.981 136.558 247.644 136.271 247.391 135.94C247.143 135.602 246.973 135.249 246.881 134.881C246.789 134.514 246.774 134.14 246.837 133.76C246.893 133.377 247.017 133.019 247.209 132.686C247.402 132.354 247.65 132.068 247.955 131.829C248.254 131.585 248.585 131.412 248.95 131.309C249.315 131.206 249.703 131.182 250.116 131.236C250.532 131.283 250.952 131.428 251.374 131.673C251.796 131.917 252.131 132.209 252.379 132.546C252.632 132.877 252.804 133.227 252.896 133.594C252.988 133.962 253.003 134.336 252.94 134.715C252.877 135.095 252.75 135.451 252.557 135.783ZM251.581 135.218C251.822 134.803 251.858 134.389 251.689 133.977C251.514 133.562 251.171 133.205 250.658 132.909C250.139 132.608 249.659 132.487 249.218 132.546C248.77 132.601 248.426 132.836 248.185 133.252C247.945 133.667 247.912 134.083 248.087 134.498C248.256 134.91 248.6 135.266 249.119 135.567C249.631 135.864 250.111 135.985 250.559 135.93C251 135.871 251.341 135.633 251.581 135.218ZM254.728 131.748L249.629 128.796L250.2 127.809L251.023 128.161L251.047 128.119C250.945 127.737 250.891 127.35 250.887 126.959C250.879 126.557 250.989 126.159 251.218 125.764C251.559 125.176 251.989 124.847 252.51 124.779C253.023 124.706 253.612 124.862 254.277 125.247L257.434 127.075L256.736 128.28L253.735 126.542C253.32 126.302 252.976 126.2 252.705 126.237C252.431 126.263 252.192 126.453 251.987 126.806C251.843 127.055 251.774 127.311 251.779 127.573C251.785 127.835 251.84 128.154 251.946 128.529L255.425 130.544L254.728 131.748ZM259.949 123.019C259.725 123.406 259.455 123.736 259.141 124.007C258.82 124.274 258.471 124.469 258.095 124.593C257.722 124.71 257.327 124.745 256.911 124.698C256.494 124.651 256.075 124.505 255.652 124.261C255.237 124.02 254.909 123.733 254.668 123.399C254.419 123.061 254.251 122.705 254.163 122.33C254.072 121.945 254.058 121.562 254.121 121.183C254.181 120.792 254.311 120.424 254.511 120.077C254.732 119.697 254.988 119.397 255.281 119.178C255.567 118.956 255.876 118.806 256.207 118.73C256.531 118.649 256.872 118.643 257.229 118.712C257.587 118.78 257.943 118.917 258.296 119.121C258.413 119.189 258.524 119.263 258.626 119.34C258.726 119.408 258.807 119.468 258.868 119.522L256.697 123.271C257.215 123.478 257.678 123.492 258.087 123.313C258.496 123.134 258.839 122.805 259.115 122.328C259.272 122.058 259.378 121.786 259.434 121.514C259.49 121.241 259.519 120.953 259.519 120.648L260.502 120.676C260.525 121.05 260.492 121.442 260.403 121.853C260.317 122.256 260.166 122.645 259.949 123.019ZM255.453 120.581C255.249 120.935 255.172 121.306 255.224 121.696C255.279 122.08 255.492 122.43 255.864 122.747L257.433 120.036C256.994 119.837 256.606 119.788 256.27 119.89C255.938 119.984 255.666 120.215 255.453 120.581ZM261.939 119.295L256.84 116.343L257.412 115.356L258.234 115.708L258.258 115.666C258.156 115.283 258.103 114.897 258.098 114.506C258.091 114.104 258.201 113.705 258.43 113.311C258.77 112.722 259.201 112.394 259.721 112.325C260.235 112.253 260.824 112.409 261.488 112.794L264.645 114.622L263.948 115.827L260.947 114.089C260.531 113.848 260.188 113.747 259.917 113.784C259.643 113.81 259.404 114 259.199 114.353C259.055 114.602 258.985 114.857 258.991 115.119C258.996 115.381 259.052 115.7 259.158 116.076L262.637 118.091L261.939 119.295ZM267.528 109.932C267.303 110.32 267.061 110.618 266.801 110.828C266.544 111.031 266.275 111.162 265.992 111.22C265.706 111.266 265.406 111.25 265.091 111.17C264.781 111.083 264.464 110.945 264.138 110.756L262.041 109.542L261.253 110.902L260.36 110.385L261.126 108.942L259.617 107.861L260.188 106.874L261.787 107.8L263.134 105.474L264.079 106.021L262.732 108.347L264.83 109.562C265.252 109.807 265.614 109.901 265.915 109.844C266.213 109.776 266.488 109.524 266.741 109.088C266.865 108.873 266.962 108.666 267.032 108.466C267.094 108.262 267.143 108.059 267.176 107.857L268.181 108.133C268.125 108.406 268.048 108.69 267.951 108.985C267.861 109.284 267.72 109.6 267.528 109.932ZM270.444 104.609L266.29 102.204L265.009 104.416L264.064 103.869L266.036 100.462L271.135 103.415L270.444 104.609ZM264.711 100.596C264.571 100.838 264.38 101.001 264.138 101.083C263.9 101.158 263.661 101.125 263.418 100.985C263.176 100.844 263.028 100.652 262.975 100.409C262.919 100.155 262.961 99.9064 263.101 99.6641C263.242 99.4218 263.434 99.2651 263.679 99.1941C263.92 99.1121 264.162 99.1413 264.404 99.2816C264.647 99.4219 264.792 99.6172 264.842 99.8676C264.895 100.111 264.851 100.354 264.711 100.596ZM273.801 99.0987C273.657 99.3479 273.486 99.5543 273.29 99.7179C273.101 99.8855 272.896 100.007 272.676 100.083C272.456 100.16 272.233 100.187 272.004 100.166C271.769 100.141 271.541 100.064 271.32 99.9358C271.036 99.7714 270.825 99.5613 270.686 99.3055C270.541 99.0457 270.474 98.7297 270.486 98.3577C270.498 97.9856 270.584 97.55 270.744 97.0508C270.903 96.5516 271.145 95.975 271.468 95.321C271.165 95.1734 270.866 95.1389 270.571 95.2176C270.276 95.2962 270.008 95.5433 269.768 95.9586C269.599 96.2494 269.488 96.5688 269.435 96.9168C269.378 97.2538 269.346 97.596 269.34 97.9432L268.287 97.9163C268.288 97.5006 268.332 97.0498 268.419 96.5641C268.506 96.0784 268.676 95.6175 268.928 95.1813C269.341 94.4682 269.846 94.035 270.444 93.8817C271.034 93.7243 271.686 93.8521 272.399 94.2651L275.421 96.015L274.855 96.9912L274.168 96.7178L274.15 96.7489C274.201 97.1392 274.207 97.5446 274.166 97.9651C274.123 98.3747 274.002 98.7525 273.801 99.0987ZM273.077 98.194C273.225 97.9378 273.312 97.66 273.338 97.3605C273.36 97.05 273.346 96.723 273.296 96.3794L272.216 95.7539C271.986 96.2309 271.814 96.6397 271.7 96.9804C271.579 97.3171 271.511 97.6015 271.497 97.8336C271.483 98.0657 271.512 98.2539 271.586 98.3982C271.653 98.5385 271.755 98.6488 271.894 98.729C272.122 98.8613 272.338 98.8709 272.542 98.758C272.751 98.6381 272.929 98.4501 273.077 98.194ZM278.405 91.1482C278.06 91.7436 277.625 92.0968 277.098 92.2079C276.576 92.3121 275.999 92.1817 275.369 91.8169L270.842 89.195L269.856 90.898L268.911 90.3508L270.588 87.4536L276.123 90.6588C276.469 90.8592 276.765 90.915 277.011 90.8261C277.254 90.7263 277.449 90.5483 277.597 90.2922C277.754 90.0222 277.856 89.6933 277.905 89.3056L278.95 89.5364C278.903 89.8418 278.843 90.1123 278.772 90.3481C278.7 90.5838 278.578 90.8505 278.405 91.1482Z" fill="#29A1F8"/>
</g>
<defs>
<clipPath id="clip0">
<rect width="400" height="266" fill="white"/>
</clipPath>
</defs>
</svg>
