<svg width="405" height="164" viewBox="0 0 405 164" version="1.1" xmlns="http://www.w3.org/2000/svg" xmlns:xlink="http://www.w3.org/1999/xlink">
<title>s1m4_uniform</title>
<desc>Created using Figma</desc>
<g id="Canvas" transform="translate(443 229)">
<rect x="-443" y="-229" width="405" height="164" fill="#FFFFFF"/>
<g id="Rectangle 2.21">
<use xlink:href="#path0_fill" transform="translate(-254 -177)" fill="#0072B2"/>
</g>
<g id="Rectangle 2.22">
<use xlink:href="#path0_fill" transform="translate(-227 -177)" fill="#0072B2"/>
</g>
<g id="Rectangle 2.23">
<use xlink:href="#path0_fill" transform="translate(-200 -177)" fill="#0072B2"/>
</g>
<g id="Rectangle 2.24">
<use xlink:href="#path1_fill" transform="translate(-173 -176.906)" fill="#0072B2"/>
</g>
<g id="Rectangle 2.25">
<use xlink:href="#path0_fill" transform="translate(-146 -177)" fill="#0072B2"/>
</g>
<g id="Rectangle 2.26">
<use xlink:href="#path0_fill" transform="translate(-119 -177)" fill="#0072B2"/>
</g>
<g id="Rectangle 2.27">
<use xlink:href="#path0_fill" transform="translate(-92 -177)" fill="#0072B2"/>
</g>
<g id="Rectangle 2.32">
<use xlink:href="#path0_fill" transform="translate(-308 -177)" fill="#0072B2"/>
</g>
<g id="Rectangle 2.33">
<use xlink:href="#path0_fill" transform="translate(-281 -177)" fill="#0072B2"/>
</g>
<g id="Rectangle 2.41">
<use xlink:href="#path0_fill" transform="translate(-416 -177)" fill="#0072B2"/>
</g>
<g id="Rectangle 2.42">
<use xlink:href="#path0_fill" transform="translate(-389 -177)" fill="#0072B2"/>
</g>
<g id="Rectangle 2.43">
<use xlink:href="#path0_fill" transform="translate(-362 -177)" fill="#0072B2"/>
</g>
<g id="Rectangle 2.44">
<use xlink:href="#path1_fill" transform="translate(-335 -176.906)" fill="#0072B2"/>
</g>
<g id="Line 2.1">
<use xlink:href="#path2_stroke" transform="translate(-443 -65)"/>
</g>
<g id="The values are distributed uniformly">
<use xlink:href="#path3_fill" transform="translate(-371 -131)" fill="#FFFFFF"/>
</g>
<g id="Rectangle 3">
<use xlink:href="#path4_fill" transform="translate(-416 -229)" fill="#FFFFFF"/>
</g>
</g>
<defs>
<path id="path0_fill" d="M 0 0L 27 0L 27 110L 0 110L 0 0Z"/>
<path id="path1_fill" d="M 0 0L 27 0L 27 109.642L 0 109.642L 0 0Z"/>
<path id="path2_stroke" d="M 0 0L 405 0L 405 -2L 0 -2L 0 0Z"/>
<path id="path3_fill" d="M 9.57812 5.52344L 6.09375 5.52344L 6.09375 15L 3.75 15L 3.75 5.52344L 0.3125 5.52344L 0.3125 3.625L 9.57812 3.625L 9.57812 5.52344ZM 12.9766 7.46875C 13.5755 6.75 14.3281 6.39062 15.2344 6.39062C 17.0677 6.39062 17.9974 7.45573 18.0234 9.58594L 18.0234 15L 15.7656 15L 15.7656 9.64844C 15.7656 9.16406 15.6615 8.80729 15.4531 8.57812C 15.2448 8.34375 14.8984 8.22656 14.4141 8.22656C 13.7526 8.22656 13.2734 8.48177 12.9766 8.99219L 12.9766 15L 10.7188 15L 10.7188 3L 12.9766 3L 12.9766 7.46875ZM 23.6172 15.1562C 22.3776 15.1562 21.3672 14.776 20.5859 14.0156C 19.8099 13.2552 19.4219 12.2422 19.4219 10.9766L 19.4219 10.7578C 19.4219 9.90885 19.5859 9.15104 19.9141 8.48438C 20.2422 7.8125 20.7057 7.29688 21.3047 6.9375C 21.9089 6.57292 22.5964 6.39062 23.3672 6.39062C 24.5234 6.39062 25.4323 6.75521 26.0938 7.48438C 26.7604 8.21354 27.0938 9.2474 27.0938 10.5859L 27.0938 11.5078L 21.7109 11.5078C 21.7839 12.0599 22.0026 12.5026 22.3672 12.8359C 22.737 13.1693 23.2031 13.3359 23.7656 13.3359C 24.6354 13.3359 25.3151 13.0208 25.8047 12.3906L 26.9141 13.6328C 26.5755 14.112 26.1172 14.487 25.5391 14.7578C 24.9609 15.0234 24.3203 15.1562 23.6172 15.1562ZM 23.3594 8.21875C 22.9115 8.21875 22.5469 8.36979 22.2656 8.67188C 21.9896 8.97396 21.8125 9.40625 21.7344 9.96875L 24.875 9.96875L 24.875 9.78906C 24.8646 9.28906 24.7292 8.90365 24.4688 8.63281C 24.2083 8.35677 23.8385 8.21875 23.3594 8.21875ZM 35.5312 12.2422L 37.1016 6.54688L 39.4609 6.54688L 36.6094 15L 34.4531 15L 31.6016 6.54688L 33.9609 6.54688L 35.5312 12.2422ZM 45.2344 15C 45.1302 14.7969 45.0547 14.5443 45.0078 14.2422C 44.4609 14.8516 43.75 15.1562 42.875 15.1562C 42.0469 15.1562 41.3594 14.9167 40.8125 14.4375C 40.2708 13.9583 40 13.3542 40 12.625C 40 11.7292 40.3307 11.0417 40.9922 10.5625C 41.6589 10.0833 42.6198 9.84115 43.875 9.83594L 44.9141 9.83594L 44.9141 9.35156C 44.9141 8.96094 44.8125 8.64844 44.6094 8.41406C 44.4115 8.17969 44.0964 8.0625 43.6641 8.0625C 43.2839 8.0625 42.9844 8.15365 42.7656 8.33594C 42.5521 8.51823 42.4453 8.76823 42.4453 9.08594L 40.1875 9.08594C 40.1875 8.59635 40.3385 8.14323 40.6406 7.72656C 40.9427 7.3099 41.3698 6.98438 41.9219 6.75C 42.474 6.51042 43.0938 6.39062 43.7812 6.39062C 44.8229 6.39062 45.6484 6.65365 46.2578 7.17969C 46.8724 7.70052 47.1797 8.4349 47.1797 9.38281L 47.1797 13.0469C 47.1849 13.849 47.2969 14.4557 47.5156 14.8672L 47.5156 15L 45.2344 15ZM 43.3672 13.4297C 43.7005 13.4297 44.0078 13.3568 44.2891 13.2109C 44.5703 13.0599 44.7786 12.8594 44.9141 12.6094L 44.9141 11.1562L 44.0703 11.1562C 42.9401 11.1562 42.3385 11.5469 42.2656 12.3281L 42.2578 12.4609C 42.2578 12.7422 42.3568 12.974 42.5547 13.1562C 42.7526 13.3385 43.0234 13.4297 43.3672 13.4297ZM 51.2969 15L 49.0312 15L 49.0312 3L 51.2969 3L 51.2969 15ZM 58.2266 14.1406C 57.6693 14.8177 56.8984 15.1562 55.9141 15.1562C 55.0078 15.1562 54.3151 14.8958 53.8359 14.375C 53.362 13.8542 53.1198 13.0911 53.1094 12.0859L 53.1094 6.54688L 55.3672 6.54688L 55.3672 12.0078C 55.3672 12.888 55.7682 13.3281 56.5703 13.3281C 57.3359 13.3281 57.862 13.0625 58.1484 12.5312L 58.1484 6.54688L 60.4141 6.54688L 60.4141 15L 58.2891 15L 58.2266 14.1406ZM 66.0078 15.1562C 64.7682 15.1562 63.7578 14.776 62.9766 14.0156C 62.2005 13.2552 61.8125 12.2422 61.8125 10.9766L 61.8125 10.7578C 61.8125 9.90885 61.9766 9.15104 62.3047 8.48438C 62.6328 7.8125 63.0964 7.29688 63.6953 6.9375C 64.2995 6.57292 64.987 6.39062 65.7578 6.39062C 66.9141 6.39062 67.8229 6.75521 68.4844 7.48438C 69.151 8.21354 69.4844 9.2474 69.4844 10.5859L 69.4844 11.5078L 64.1016 11.5078C 64.1745 12.0599 64.3932 12.5026 64.7578 12.8359C 65.1276 13.1693 65.5938 13.3359 66.1562 13.3359C 67.026 13.3359 67.7057 13.0208 68.1953 12.3906L 69.3047 13.6328C 68.9661 14.112 68.5078 14.487 67.9297 14.7578C 67.3516 15.0234 66.7109 15.1562 66.0078 15.1562ZM 65.75 8.21875C 65.3021 8.21875 64.9375 8.36979 64.6562 8.67188C 64.3802 8.97396 64.2031 9.40625 64.125 9.96875L 67.2656 9.96875L 67.2656 9.78906C 67.2552 9.28906 67.1198 8.90365 66.8594 8.63281C 66.599 8.35677 66.2292 8.21875 65.75 8.21875ZM 75.3516 12.6641C 75.3516 12.388 75.2135 12.1719 74.9375 12.0156C 74.6667 11.8542 74.2292 11.7109 73.625 11.5859C 71.6146 11.1641 70.6094 10.3099 70.6094 9.02344C 70.6094 8.27344 70.9193 7.64844 71.5391 7.14844C 72.1641 6.64323 72.9792 6.39062 73.9844 6.39062C 75.0573 6.39062 75.9141 6.64323 76.5547 7.14844C 77.2005 7.65365 77.5234 8.3099 77.5234 9.11719L 75.2656 9.11719C 75.2656 8.79427 75.1615 8.52865 74.9531 8.32031C 74.7448 8.10677 74.4193 8 73.9766 8C 73.5964 8 73.3021 8.08594 73.0938 8.25781C 72.8854 8.42969 72.7812 8.64844 72.7812 8.91406C 72.7812 9.16406 72.8984 9.36719 73.1328 9.52344C 73.3724 9.67448 73.7734 9.80729 74.3359 9.92188C 74.8984 10.0312 75.3724 10.1562 75.7578 10.2969C 76.9505 10.7344 77.5469 11.4922 77.5469 12.5703C 77.5469 13.3411 77.2161 13.9661 76.5547 14.4453C 75.8932 14.9193 75.0391 15.1562 73.9922 15.1562C 73.2839 15.1562 72.6536 15.0312 72.1016 14.7812C 71.5547 14.526 71.125 14.1797 70.8125 13.7422C 70.5 13.2995 70.3438 12.8229 70.3438 12.3125L 72.4844 12.3125C 72.5052 12.7135 72.6536 13.0208 72.9297 13.2344C 73.2057 13.4479 73.5755 13.5547 74.0391 13.5547C 74.4714 13.5547 74.7969 13.474 75.0156 13.3125C 75.2396 13.1458 75.3516 12.9297 75.3516 12.6641ZM 87.8906 15C 87.7865 14.7969 87.7109 14.5443 87.6641 14.2422C 87.1172 14.8516 86.4062 15.1562 85.5312 15.1562C 84.7031 15.1562 84.0156 14.9167 83.4688 14.4375C 82.9271 13.9583 82.6562 13.3542 82.6562 12.625C 82.6562 11.7292 82.987 11.0417 83.6484 10.5625C 84.3151 10.0833 85.276 9.84115 86.5312 9.83594L 87.5703 9.83594L 87.5703 9.35156C 87.5703 8.96094 87.4688 8.64844 87.2656 8.41406C 87.0677 8.17969 86.7526 8.0625 86.3203 8.0625C 85.9401 8.0625 85.6406 8.15365 85.4219 8.33594C 85.2083 8.51823 85.1016 8.76823 85.1016 9.08594L 82.8438 9.08594C 82.8438 8.59635 82.9948 8.14323 83.2969 7.72656C 83.599 7.3099 84.026 6.98438 84.5781 6.75C 85.1302 6.51042 85.75 6.39062 86.4375 6.39062C 87.4792 6.39062 88.3047 6.65365 88.9141 7.17969C 89.5286 7.70052 89.8359 8.4349 89.8359 9.38281L 89.8359 13.0469C 89.8411 13.849 89.9531 14.4557 90.1719 14.8672L 90.1719 15L 87.8906 15ZM 86.0234 13.4297C 86.3568 13.4297 86.6641 13.3568 86.9453 13.2109C 87.2266 13.0599 87.4349 12.8594 87.5703 12.6094L 87.5703 11.1562L 86.7266 11.1562C 85.5964 11.1562 84.9948 11.5469 84.9219 12.3281L 84.9141 12.4609C 84.9141 12.7422 85.013 12.974 85.2109 13.1562C 85.4089 13.3385 85.6797 13.4297 86.0234 13.4297ZM 96.3203 8.66406C 96.013 8.6224 95.7422 8.60156 95.5078 8.60156C 94.6536 8.60156 94.0938 8.89062 93.8281 9.46875L 93.8281 15L 91.5703 15L 91.5703 6.54688L 93.7031 6.54688L 93.7656 7.55469C 94.2188 6.77865 94.8464 6.39062 95.6484 6.39062C 95.8984 6.39062 96.1328 6.42448 96.3516 6.49219L 96.3203 8.66406ZM 101.148 15.1562C 99.9089 15.1562 98.8984 14.776 98.1172 14.0156C 97.3411 13.2552 96.9531 12.2422 96.9531 10.9766L 96.9531 10.7578C 96.9531 9.90885 97.1172 9.15104 97.4453 8.48438C 97.7734 7.8125 98.237 7.29688 98.8359 6.9375C 99.4401 6.57292 100.128 6.39062 100.898 6.39062C 102.055 6.39062 102.964 6.75521 103.625 7.48438C 104.292 8.21354 104.625 9.2474 104.625 10.5859L 104.625 11.5078L 99.2422 11.5078C 99.3151 12.0599 99.5339 12.5026 99.8984 12.8359C 100.268 13.1693 100.734 13.3359 101.297 13.3359C 102.167 13.3359 102.846 13.0208 103.336 12.3906L 104.445 13.6328C 104.107 14.112 103.648 14.487 103.07 14.7578C 102.492 15.0234 101.852 15.1562 101.148 15.1562ZM 100.891 8.21875C 100.443 8.21875 100.078 8.36979 99.7969 8.67188C 99.5208 8.97396 99.3438 9.40625 99.2656 9.96875L 102.406 9.96875L 102.406 9.78906C 102.396 9.28906 102.26 8.90365 102 8.63281C 101.74 8.35677 101.37 8.21875 100.891 8.21875ZM 109.547 10.7109C 109.547 9.39323 109.841 8.34375 110.43 7.5625C 111.023 6.78125 111.833 6.39062 112.859 6.39062C 113.682 6.39062 114.362 6.69792 114.898 7.3125L 114.898 3L 117.164 3L 117.164 15L 115.125 15L 115.016 14.1016C 114.453 14.8047 113.729 15.1562 112.844 15.1562C 111.849 15.1562 111.049 14.7656 110.445 13.9844C 109.846 13.1979 109.547 12.1068 109.547 10.7109ZM 111.805 10.875C 111.805 11.6667 111.943 12.2734 112.219 12.6953C 112.495 13.1172 112.896 13.3281 113.422 13.3281C 114.12 13.3281 114.612 13.0339 114.898 12.4453L 114.898 9.10938C 114.617 8.52083 114.13 8.22656 113.438 8.22656C 112.349 8.22656 111.805 9.10938 111.805 10.875ZM 121.297 15L 119.031 15L 119.031 6.54688L 121.297 6.54688L 121.297 15ZM 118.898 4.35938C 118.898 4.02083 119.01 3.74219 119.234 3.52344C 119.464 3.30469 119.773 3.19531 120.164 3.19531C 120.549 3.19531 120.857 3.30469 121.086 3.52344C 121.315 3.74219 121.43 4.02083 121.43 4.35938C 121.43 4.70312 121.312 4.98438 121.078 5.20312C 120.849 5.42188 120.544 5.53125 120.164 5.53125C 119.784 5.53125 119.477 5.42188 119.242 5.20312C 119.013 4.98438 118.898 4.70312 118.898 4.35938ZM 127.742 12.6641C 127.742 12.388 127.604 12.1719 127.328 12.0156C 127.057 11.8542 126.62 11.7109 126.016 11.5859C 124.005 11.1641 123 10.3099 123 9.02344C 123 8.27344 123.31 7.64844 123.93 7.14844C 124.555 6.64323 125.37 6.39062 126.375 6.39062C 127.448 6.39062 128.305 6.64323 128.945 7.14844C 129.591 7.65365 129.914 8.3099 129.914 9.11719L 127.656 9.11719C 127.656 8.79427 127.552 8.52865 127.344 8.32031C 127.135 8.10677 126.81 8 126.367 8C 125.987 8 125.693 8.08594 125.484 8.25781C 125.276 8.42969 125.172 8.64844 125.172 8.91406C 125.172 9.16406 125.289 9.36719 125.523 9.52344C 125.763 9.67448 126.164 9.80729 126.727 9.92188C 127.289 10.0312 127.763 10.1562 128.148 10.2969C 129.341 10.7344 129.938 11.4922 129.938 12.5703C 129.938 13.3411 129.607 13.9661 128.945 14.4453C 128.284 14.9193 127.43 15.1562 126.383 15.1562C 125.674 15.1562 125.044 15.0312 124.492 14.7812C 123.945 14.526 123.516 14.1797 123.203 13.7422C 122.891 13.2995 122.734 12.8229 122.734 12.3125L 124.875 12.3125C 124.896 12.7135 125.044 13.0208 125.32 13.2344C 125.596 13.4479 125.966 13.5547 126.43 13.5547C 126.862 13.5547 127.188 13.474 127.406 13.3125C 127.63 13.1458 127.742 12.9297 127.742 12.6641ZM 134.102 4.46875L 134.102 6.54688L 135.547 6.54688L 135.547 8.20312L 134.102 8.20312L 134.102 12.4219C 134.102 12.7344 134.161 12.9583 134.281 13.0938C 134.401 13.2292 134.63 13.2969 134.969 13.2969C 135.219 13.2969 135.44 13.2786 135.633 13.2422L 135.633 14.9531C 135.19 15.0885 134.734 15.1562 134.266 15.1562C 132.682 15.1562 131.875 14.3568 131.844 12.7578L 131.844 8.20312L 130.609 8.20312L 130.609 6.54688L 131.844 6.54688L 131.844 4.46875L 134.102 4.46875ZM 141.555 8.66406C 141.247 8.6224 140.977 8.60156 140.742 8.60156C 139.888 8.60156 139.328 8.89062 139.062 9.46875L 139.062 15L 136.805 15L 136.805 6.54688L 138.938 6.54688L 139 7.55469C 139.453 6.77865 140.081 6.39062 140.883 6.39062C 141.133 6.39062 141.367 6.42448 141.586 6.49219L 141.555 8.66406ZM 145.031 15L 142.766 15L 142.766 6.54688L 145.031 6.54688L 145.031 15ZM 142.633 4.35938C 142.633 4.02083 142.745 3.74219 142.969 3.52344C 143.198 3.30469 143.508 3.19531 143.898 3.19531C 144.284 3.19531 144.591 3.30469 144.82 3.52344C 145.049 3.74219 145.164 4.02083 145.164 4.35938C 145.164 4.70312 145.047 4.98438 144.812 5.20312C 144.583 5.42188 144.279 5.53125 143.898 5.53125C 143.518 5.53125 143.211 5.42188 142.977 5.20312C 142.747 4.98438 142.633 4.70312 142.633 4.35938ZM 154.516 10.8516C 154.516 12.2057 154.227 13.263 153.648 14.0234C 153.07 14.7786 152.263 15.1562 151.227 15.1562C 150.31 15.1562 149.578 14.8047 149.031 14.1016L 148.93 15L 146.898 15L 146.898 3L 149.156 3L 149.156 7.30469C 149.677 6.69531 150.362 6.39062 151.211 6.39062C 152.242 6.39062 153.049 6.77083 153.633 7.53125C 154.221 8.28646 154.516 9.35156 154.516 10.7266L 154.516 10.8516ZM 152.258 10.6875C 152.258 9.83333 152.122 9.21094 151.852 8.82031C 151.581 8.42448 151.177 8.22656 150.641 8.22656C 149.922 8.22656 149.427 8.52083 149.156 9.10938L 149.156 12.4453C 149.432 13.0391 149.932 13.3359 150.656 13.3359C 151.385 13.3359 151.865 12.9766 152.094 12.2578C 152.203 11.9141 152.258 11.3906 152.258 10.6875ZM 160.977 14.1406C 160.419 14.8177 159.648 15.1562 158.664 15.1562C 157.758 15.1562 157.065 14.8958 156.586 14.375C 156.112 13.8542 155.87 13.0911 155.859 12.0859L 155.859 6.54688L 158.117 6.54688L 158.117 12.0078C 158.117 12.888 158.518 13.3281 159.32 13.3281C 160.086 13.3281 160.612 13.0625 160.898 12.5312L 160.898 6.54688L 163.164 6.54688L 163.164 15L 161.039 15L 160.977 14.1406ZM 167.57 4.46875L 167.57 6.54688L 169.016 6.54688L 169.016 8.20312L 167.57 8.20312L 167.57 12.4219C 167.57 12.7344 167.63 12.9583 167.75 13.0938C 167.87 13.2292 168.099 13.2969 168.438 13.2969C 168.688 13.2969 168.909 13.2786 169.102 13.2422L 169.102 14.9531C 168.659 15.0885 168.203 15.1562 167.734 15.1562C 166.151 15.1562 165.344 14.3568 165.312 12.7578L 165.312 8.20312L 164.078 8.20312L 164.078 6.54688L 165.312 6.54688L 165.312 4.46875L 167.57 4.46875ZM 174.164 15.1562C 172.924 15.1562 171.914 14.776 171.133 14.0156C 170.357 13.2552 169.969 12.2422 169.969 10.9766L 169.969 10.7578C 169.969 9.90885 170.133 9.15104 170.461 8.48438C 170.789 7.8125 171.253 7.29688 171.852 6.9375C 172.456 6.57292 173.143 6.39062 173.914 6.39062C 175.07 6.39062 175.979 6.75521 176.641 7.48438C 177.307 8.21354 177.641 9.2474 177.641 10.5859L 177.641 11.5078L 172.258 11.5078C 172.331 12.0599 172.549 12.5026 172.914 12.8359C 173.284 13.1693 173.75 13.3359 174.312 13.3359C 175.182 13.3359 175.862 13.0208 176.352 12.3906L 177.461 13.6328C 177.122 14.112 176.664 14.487 176.086 14.7578C 175.508 15.0234 174.867 15.1562 174.164 15.1562ZM 173.906 8.21875C 173.458 8.21875 173.094 8.36979 172.812 8.67188C 172.536 8.97396 172.359 9.40625 172.281 9.96875L 175.422 9.96875L 175.422 9.78906C 175.411 9.28906 175.276 8.90365 175.016 8.63281C 174.755 8.35677 174.385 8.21875 173.906 8.21875ZM 178.578 10.7109C 178.578 9.39323 178.872 8.34375 179.461 7.5625C 180.055 6.78125 180.865 6.39062 181.891 6.39062C 182.714 6.39062 183.393 6.69792 183.93 7.3125L 183.93 3L 186.195 3L 186.195 15L 184.156 15L 184.047 14.1016C 183.484 14.8047 182.76 15.1562 181.875 15.1562C 180.88 15.1562 180.081 14.7656 179.477 13.9844C 178.878 13.1979 178.578 12.1068 178.578 10.7109ZM 180.836 10.875C 180.836 11.6667 180.974 12.2734 181.25 12.6953C 181.526 13.1172 181.927 13.3281 182.453 13.3281C 183.151 13.3281 183.643 13.0339 183.93 12.4453L 183.93 9.10938C 183.648 8.52083 183.161 8.22656 182.469 8.22656C 181.38 8.22656 180.836 9.10938 180.836 10.875ZM 196.992 14.1406C 196.435 14.8177 195.664 15.1562 194.68 15.1562C 193.773 15.1562 193.081 14.8958 192.602 14.375C 192.128 13.8542 191.885 13.0911 191.875 12.0859L 191.875 6.54688L 194.133 6.54688L 194.133 12.0078C 194.133 12.888 194.534 13.3281 195.336 13.3281C 196.102 13.3281 196.628 13.0625 196.914 12.5312L 196.914 6.54688L 199.18 6.54688L 199.18 15L 197.055 15L 196.992 14.1406ZM 202.961 6.54688L 203.031 7.52344C 203.635 6.76823 204.445 6.39062 205.461 6.39062C 206.357 6.39062 207.023 6.65365 207.461 7.17969C 207.898 7.70573 208.122 8.49219 208.133 9.53906L 208.133 15L 205.875 15L 205.875 9.59375C 205.875 9.11458 205.771 8.76823 205.562 8.55469C 205.354 8.33594 205.008 8.22656 204.523 8.22656C 203.888 8.22656 203.411 8.4974 203.094 9.03906L 203.094 15L 200.836 15L 200.836 6.54688L 202.961 6.54688ZM 212.234 15L 209.969 15L 209.969 6.54688L 212.234 6.54688L 212.234 15ZM 209.836 4.35938C 209.836 4.02083 209.948 3.74219 210.172 3.52344C 210.401 3.30469 210.711 3.19531 211.102 3.19531C 211.487 3.19531 211.794 3.30469 212.023 3.52344C 212.253 3.74219 212.367 4.02083 212.367 4.35938C 212.367 4.70312 212.25 4.98438 212.016 5.20312C 211.786 5.42188 211.482 5.53125 211.102 5.53125C 210.721 5.53125 210.414 5.42188 210.18 5.20312C 209.951 4.98438 209.836 4.70312 209.836 4.35938ZM 214.719 15L 214.719 8.20312L 213.461 8.20312L 213.461 6.54688L 214.719 6.54688L 214.719 5.82812C 214.719 4.88021 214.99 4.14583 215.531 3.625C 216.078 3.09896 216.841 2.83594 217.82 2.83594C 218.133 2.83594 218.516 2.88802 218.969 2.99219L 218.945 4.74219C 218.758 4.69531 218.529 4.67188 218.258 4.67188C 217.409 4.67188 216.984 5.07031 216.984 5.86719L 216.984 6.54688L 218.664 6.54688L 218.664 8.20312L 216.984 8.20312L 216.984 15L 214.719 15ZM 219.484 10.6953C 219.484 9.85677 219.646 9.10938 219.969 8.45312C 220.292 7.79688 220.755 7.28906 221.359 6.92969C 221.969 6.57031 222.674 6.39062 223.477 6.39062C 224.617 6.39062 225.547 6.73958 226.266 7.4375C 226.99 8.13542 227.393 9.08333 227.477 10.2812L 227.492 10.8594C 227.492 12.1562 227.13 13.1979 226.406 13.9844C 225.682 14.7656 224.711 15.1562 223.492 15.1562C 222.273 15.1562 221.299 14.7656 220.57 13.9844C 219.846 13.2031 219.484 12.1406 219.484 10.7969L 219.484 10.6953ZM 221.742 10.8594C 221.742 11.6615 221.893 12.276 222.195 12.7031C 222.497 13.125 222.93 13.3359 223.492 13.3359C 224.039 13.3359 224.466 13.1276 224.773 12.7109C 225.081 12.2891 225.234 11.6172 225.234 10.6953C 225.234 9.90885 225.081 9.29948 224.773 8.86719C 224.466 8.4349 224.034 8.21875 223.477 8.21875C 222.924 8.21875 222.497 8.4349 222.195 8.86719C 221.893 9.29427 221.742 9.95833 221.742 10.8594ZM 233.633 8.66406C 233.326 8.6224 233.055 8.60156 232.82 8.60156C 231.966 8.60156 231.406 8.89062 231.141 9.46875L 231.141 15L 228.883 15L 228.883 6.54688L 231.016 6.54688L 231.078 7.55469C 231.531 6.77865 232.159 6.39062 232.961 6.39062C 233.211 6.39062 233.445 6.42448 233.664 6.49219L 233.633 8.66406ZM 236.844 6.54688L 236.914 7.49219C 237.513 6.75781 238.323 6.39062 239.344 6.39062C 240.432 6.39062 241.18 6.82031 241.586 7.67969C 242.18 6.82031 243.026 6.39062 244.125 6.39062C 245.042 6.39062 245.724 6.65885 246.172 7.19531C 246.62 7.72656 246.844 8.52865 246.844 9.60156L 246.844 15L 244.578 15L 244.578 9.60938C 244.578 9.13021 244.484 8.78125 244.297 8.5625C 244.109 8.33854 243.779 8.22656 243.305 8.22656C 242.628 8.22656 242.159 8.54948 241.898 9.19531L 241.906 15L 239.648 15L 239.648 9.61719C 239.648 9.1276 239.552 8.77344 239.359 8.55469C 239.167 8.33594 238.839 8.22656 238.375 8.22656C 237.734 8.22656 237.271 8.49219 236.984 9.02344L 236.984 15L 234.727 15L 234.727 6.54688L 236.844 6.54688ZM 250.969 15L 248.703 15L 248.703 3L 250.969 3L 250.969 15ZM 255.992 11.8047L 257.555 6.54688L 259.977 6.54688L 256.578 16.3125L 256.391 16.7578C 255.885 17.862 255.052 18.4141 253.891 18.4141C 253.562 18.4141 253.229 18.3646 252.891 18.2656L 252.891 16.5547L 253.234 16.5625C 253.661 16.5625 253.979 16.4974 254.188 16.3672C 254.401 16.237 254.568 16.0208 254.688 15.7188L 254.953 15.0234L 251.992 6.54688L 254.422 6.54688L 255.992 11.8047Z"/>
<path id="path4_fill" d="M 0 0L 351 0L 351 48L 0 48L 0 0Z"/>
</defs>
</svg>
