<svg width="388" height="251" viewBox="0 0 388 251" version="1.1" xmlns="http://www.w3.org/2000/svg" xmlns:xlink="http://www.w3.org/1999/xlink">
<title>s1m4_body_tail</title>
<desc>Created using Figma</desc>
<g id="Canvas" transform="translate(251 252)">
<rect x="-251" y="-252" width="388" height="251" fill="#FFFFFF"/>
<g id="Rectangle">
<use xlink:href="#path0_fill" transform="translate(-240 -227)" fill="#D55E00"/>
</g>
<g id="Rectangle">
<use xlink:href="#path1_fill" transform="translate(-208 -198)" fill="#D55E00"/>
</g>
<g id="Rectangle">
<use xlink:href="#path2_fill" transform="translate(-176 -172)" fill="#D55E00"/>
</g>
<g id="Rectangle">
<use xlink:href="#path3_fill" transform="translate(-144 -128)" fill="#D55E00"/>
</g>
<g id="Rectangle">
<use xlink:href="#path4_fill" transform="translate(-112 -59)" fill="#56B4E9"/>
</g>
<g id="Rectangle">
<use xlink:href="#path5_fill" transform="translate(-80 -41)" fill="#56B4E9"/>
</g>
<g id="Rectangle">
<use xlink:href="#path6_fill" transform="translate(-48 -31)" fill="#56B4E9"/>
</g>
<g id="Rectangle">
<use xlink:href="#path7_fill" transform="translate(-16 -19)" fill="#56B4E9"/>
</g>
<g id="Rectangle">
<use xlink:href="#path8_fill" transform="translate(16 -13)" fill="#56B4E9"/>
</g>
<g id="Rectangle">
<use xlink:href="#path8_fill" transform="translate(48 -13)" fill="#56B4E9"/>
</g>
<g id="Rectangle">
<use xlink:href="#path9_fill" transform="translate(80 -8)" fill="#56B4E9"/>
</g>
<g id="Line">
<use xlink:href="#path10_stroke" transform="translate(-251 -1)"/>
</g>
<g id="Line">
<use xlink:href="#path11_stroke" transform="matrix(5.55112e-17 -1 1 5.55112e-17 -249 -1.83806)"/>
</g>
<g id="Body">
<use xlink:href="#path12_fill" transform="translate(-199 -90)" fill="#FFFFFF"/>
</g>
<g id="Tail">
<use xlink:href="#path13_fill" transform="translate(-97 -31)" fill="#FFFFFF"/>
</g>
</g>
<defs>
<path id="path0_fill" d="M 0 0L 32 0L 32 224L 0 224L 0 0Z"/>
<path id="path1_fill" d="M 0 0L 32 0L 32 195L 0 195L 0 0Z"/>
<path id="path2_fill" d="M 0 0L 32 0L 32 169L 0 169L 0 0Z"/>
<path id="path3_fill" d="M 0 0L 32 0L 32 125L 0 125L 0 0Z"/>
<path id="path4_fill" d="M 0 0L 32 0L 32 56L 0 56L 0 0Z"/>
<path id="path5_fill" d="M 0 0L 32 0L 32 38L 0 38L 0 0Z"/>
<path id="path6_fill" d="M 0 0L 32 0L 32 28L 0 28L 0 0Z"/>
<path id="path7_fill" d="M 0 0L 32 0L 32 16L 0 16L 0 0Z"/>
<path id="path8_fill" d="M 0 0L 32 0L 32 10L 0 10L 0 0Z"/>
<path id="path9_fill" d="M 0 0L 32 0L 32 5L 0 5L 0 0Z"/>
<path id="path10_stroke" d="M 0 0L 388 0L 388 -2L 0 -2L 0 0Z"/>
<path id="path11_stroke" d="M 0 0L 250.162 0L 250.162 -2L 0 -2L 0 0Z"/>
<path id="path12_fill" d="M 1.57422 19L 1.57422 4.78125L 6.55469 4.78125C 8.27995 4.78125 9.58854 5.11328 10.4805 5.77734C 11.3724 6.4349 11.8184 7.40169 11.8184 8.67773C 11.8184 9.37435 11.6393 9.98958 11.2812 10.5234C 10.9232 11.0508 10.4251 11.4382 9.78711 11.6855C 10.5163 11.8678 11.0892 12.2357 11.5059 12.7891C 11.929 13.3424 12.1406 14.0195 12.1406 14.8203C 12.1406 16.1875 11.7044 17.2227 10.832 17.9258C 9.95964 18.6289 8.71615 18.987 7.10156 19L 1.57422 19ZM 4.50391 12.8086L 4.50391 16.6465L 7.01367 16.6465C 7.70378 16.6465 8.24089 16.4837 8.625 16.1582C 9.01562 15.8262 9.21094 15.3704 9.21094 14.791C 9.21094 13.4889 8.53711 12.8281 7.18945 12.8086L 4.50391 12.8086ZM 4.50391 10.7383L 6.67188 10.7383C 8.14974 10.7122 8.88867 10.123 8.88867 8.9707C 8.88867 8.32617 8.69987 7.86393 8.32227 7.58398C 7.95117 7.29753 7.36198 7.1543 6.55469 7.1543L 4.50391 7.1543L 4.50391 10.7383ZM 13.7227 13.6191C 13.7227 12.571 13.9245 11.6367 14.3281 10.8164C 14.7318 9.99609 15.3112 9.36133 16.0664 8.91211C 16.8281 8.46289 17.7103 8.23828 18.7129 8.23828C 20.1387 8.23828 21.3008 8.67448 22.1992 9.54688C 23.1042 10.4193 23.6087 11.6042 23.7129 13.1016L 23.7324 13.8242C 23.7324 15.4453 23.2799 16.7474 22.375 17.7305C 21.4701 18.707 20.2559 19.1953 18.7324 19.1953C 17.209 19.1953 15.9915 18.707 15.0801 17.7305C 14.1751 16.7539 13.7227 15.4258 13.7227 13.7461L 13.7227 13.6191ZM 16.5449 13.8242C 16.5449 14.8268 16.7337 15.5951 17.1113 16.1289C 17.4889 16.6562 18.0293 16.9199 18.7324 16.9199C 19.416 16.9199 19.9499 16.6595 20.334 16.1387C 20.7181 15.6113 20.9102 14.7715 20.9102 13.6191C 20.9102 12.6361 20.7181 11.8743 20.334 11.334C 19.9499 10.7936 19.4095 10.5234 18.7129 10.5234C 18.0228 10.5234 17.4889 10.7936 17.1113 11.334C 16.7337 11.8678 16.5449 12.6979 16.5449 13.8242ZM 25.0312 13.6387C 25.0312 11.9915 25.3991 10.6797 26.1348 9.70312C 26.877 8.72656 27.8893 8.23828 29.1719 8.23828C 30.2005 8.23828 31.0501 8.6224 31.7207 9.39062L 31.7207 4L 34.5527 4L 34.5527 19L 32.0039 19L 31.8672 17.877C 31.1641 18.7559 30.2591 19.1953 29.1523 19.1953C 27.9089 19.1953 26.9095 18.707 26.1543 17.7305C 25.4056 16.7474 25.0312 15.3835 25.0312 13.6387ZM 27.8535 13.8438C 27.8535 14.8333 28.026 15.5918 28.3711 16.1191C 28.7161 16.6465 29.2174 16.9102 29.875 16.9102C 30.7474 16.9102 31.3626 16.5423 31.7207 15.8066L 31.7207 11.6367C 31.3691 10.901 30.7604 10.5332 29.8945 10.5332C 28.5339 10.5332 27.8535 11.6367 27.8535 13.8438ZM 40.6855 15.0059L 42.6387 8.43359L 45.666 8.43359L 41.418 20.6406L 41.1836 21.1973C 40.5521 22.5775 39.5104 23.2676 38.0586 23.2676C 37.6484 23.2676 37.2318 23.2057 36.8086 23.082L 36.8086 20.9434L 37.2383 20.9531C 37.7721 20.9531 38.1693 20.8717 38.4297 20.709C 38.6966 20.5462 38.9049 20.276 39.0547 19.8984L 39.3867 19.0293L 35.6855 8.43359L 38.7227 8.43359L 40.6855 15.0059Z"/>
<path id="path13_fill" d="M 12.4277 7.1543L 8.07227 7.1543L 8.07227 19L 5.14258 19L 5.14258 7.1543L 0.845703 7.1543L 0.845703 4.78125L 12.4277 4.78125L 12.4277 7.1543ZM 18.4043 19C 18.2741 18.7461 18.1797 18.4303 18.1211 18.0527C 17.4375 18.8145 16.5488 19.1953 15.4551 19.1953C 14.4199 19.1953 13.5605 18.8958 12.877 18.2969C 12.1999 17.6979 11.8613 16.9427 11.8613 16.0312C 11.8613 14.9115 12.2747 14.0521 13.1016 13.4531C 13.9349 12.8542 15.1361 12.5514 16.7051 12.5449L 18.0039 12.5449L 18.0039 11.9395C 18.0039 11.4512 17.877 11.0605 17.623 10.7676C 17.3757 10.4746 16.9818 10.3281 16.4414 10.3281C 15.9661 10.3281 15.5918 10.4421 15.3184 10.6699C 15.0514 10.8978 14.918 11.2103 14.918 11.6074L 12.0957 11.6074C 12.0957 10.9954 12.2845 10.429 12.6621 9.9082C 13.0397 9.38737 13.5736 8.98047 14.2637 8.6875C 14.9538 8.38802 15.7285 8.23828 16.5879 8.23828C 17.89 8.23828 18.9219 8.56706 19.6836 9.22461C 20.4518 9.87565 20.8359 10.7936 20.8359 11.9785L 20.8359 16.5586C 20.8424 17.5612 20.9824 18.3197 21.2559 18.834L 21.2559 19L 18.4043 19ZM 16.0703 17.0371C 16.487 17.0371 16.8711 16.946 17.2227 16.7637C 17.5742 16.5749 17.8346 16.3242 18.0039 16.0117L 18.0039 14.1953L 16.9492 14.1953C 15.5365 14.1953 14.7845 14.6836 14.6934 15.6602L 14.6836 15.8262C 14.6836 16.1777 14.8073 16.4674 15.0547 16.6953C 15.3021 16.9232 15.6406 17.0371 16.0703 17.0371ZM 25.9824 19L 23.1504 19L 23.1504 8.43359L 25.9824 8.43359L 25.9824 19ZM 22.9844 5.69922C 22.9844 5.27604 23.1243 4.92773 23.4043 4.6543C 23.6908 4.38086 24.0781 4.24414 24.5664 4.24414C 25.0482 4.24414 25.4323 4.38086 25.7188 4.6543C 26.0052 4.92773 26.1484 5.27604 26.1484 5.69922C 26.1484 6.12891 26.002 6.48047 25.709 6.75391C 25.4225 7.02734 25.0417 7.16406 24.5664 7.16406C 24.0911 7.16406 23.707 7.02734 23.4141 6.75391C 23.1276 6.48047 22.9844 6.12891 22.9844 5.69922ZM 31.2949 19L 28.4629 19L 28.4629 4L 31.2949 4L 31.2949 19Z"/>
</defs>
</svg>
