<svg width="690" height="212" viewBox="0 0 690 212" version="1.1" xmlns="http://www.w3.org/2000/svg" xmlns:xlink="http://www.w3.org/1999/xlink">
<title>s1m4_symmetry</title>
<desc>Created using Figma</desc>
<g id="Canvas" transform="translate(443 229)">
<rect x="-443" y="-229" width="690" height="212" fill="#FFFFFF"/>
<g id="Rectangle 2.21">
<use xlink:href="#path0_fill" transform="translate(-295.067 -198)" fill="#0072B2"/>
</g>
<g id="Rectangle 2.22">
<use xlink:href="#path1_fill" transform="translate(-273.933 -179.608)" fill="#0072B2"/>
</g>
<g id="Rectangle 2.23">
<use xlink:href="#path2_fill" transform="translate(-252.8 -166.471)" fill="#0072B2"/>
</g>
<g id="Rectangle 2.24">
<use xlink:href="#path3_fill" transform="translate(-231.667 -145.451)" fill="#0072B2"/>
</g>
<g id="Rectangle 2.25">
<use xlink:href="#path4_fill" transform="translate(-210.533 -121.804)" fill="#0072B2"/>
</g>
<g id="Rectangle 2.26">
<use xlink:href="#path5_fill" transform="translate(-189.4 -100.784)" fill="#0072B2"/>
</g>
<g id="Rectangle 2.27">
<use xlink:href="#path6_fill" transform="translate(-168.267 -85.0195)" fill="#0072B2"/>
</g>
<g id="Rectangle 2.34">
<use xlink:href="#path7_fill" transform="translate(90 -198)" fill="#0072B2"/>
</g>
<g id="Rectangle 2.35">
<use xlink:href="#path1_fill" transform="translate(100.133 -179.608)" fill="#0072B2"/>
</g>
<g id="Rectangle 2.36">
<use xlink:href="#path2_fill" transform="translate(121.267 -166.471)" fill="#0072B2"/>
</g>
<g id="Rectangle 2.37">
<use xlink:href="#path3_fill" transform="translate(142.4 -145.451)" fill="#0072B2"/>
</g>
<g id="Rectangle 2.38">
<use xlink:href="#path4_fill" transform="translate(163.533 -121.804)" fill="#0072B2"/>
</g>
<g id="Rectangle 2.39">
<use xlink:href="#path5_fill" transform="translate(184.667 -100.784)" fill="#0072B2"/>
</g>
<g id="Rectangle 2.40">
<use xlink:href="#path6_fill" transform="translate(205.8 -85.0195)" fill="#0072B2"/>
</g>
<g id="Rectangle 2.28">
<use xlink:href="#path6_fill" transform="translate(-421.867 -85.0195)" fill="#0072B2"/>
</g>
<g id="Rectangle 2.29">
<use xlink:href="#path5_fill" transform="translate(-400.733 -100.784)" fill="#0072B2"/>
</g>
<g id="Rectangle 2.30">
<use xlink:href="#path4_fill" transform="translate(-379.6 -121.804)" fill="#0072B2"/>
</g>
<g id="Rectangle 2.31">
<use xlink:href="#path3_fill" transform="translate(-358.467 -145.451)" fill="#0072B2"/>
</g>
<g id="Rectangle 2.32">
<use xlink:href="#path2_fill" transform="translate(-337.333 -166.471)" fill="#0072B2"/>
</g>
<g id="Rectangle 2.33">
<use xlink:href="#path1_fill" transform="translate(-316.2 -179.608)" fill="#0072B2"/>
</g>
<g id="Rectangle 2.41">
<use xlink:href="#path6_fill" transform="translate(-421.867 -85.0195)" fill="#0072B2"/>
</g>
<g id="Rectangle 2.42">
<use xlink:href="#path5_fill" transform="translate(-400.733 -100.784)" fill="#0072B2"/>
</g>
<g id="Rectangle 2.43">
<use xlink:href="#path4_fill" transform="translate(-379.6 -121.804)" fill="#0072B2"/>
</g>
<g id="Rectangle 2.44">
<use xlink:href="#path3_fill" transform="translate(-358.467 -145.451)" fill="#0072B2"/>
</g>
<g id="Rectangle 2.45">
<use xlink:href="#path2_fill" transform="translate(-337.333 -166.471)" fill="#0072B2"/>
</g>
<g id="Rectangle 2.46">
<use xlink:href="#path1_fill" transform="translate(-316.2 -179.608)" fill="#0072B2"/>
</g>
<g id="Rectangle 2.47">
<use xlink:href="#path7_fill" transform="translate(59 -198)" fill="#0072B2"/>
</g>
<g id="Rectangle 2.48">
<use xlink:href="#path6_fill" transform="translate(-68 -85.0195)" fill="#0072B2"/>
</g>
<g id="Rectangle 2.49">
<use xlink:href="#path5_fill" transform="translate(-46.8667 -100.784)" fill="#0072B2"/>
</g>
<g id="Rectangle 2.50">
<use xlink:href="#path4_fill" transform="translate(-25.7333 -121.804)" fill="#0072B2"/>
</g>
<g id="Rectangle 2.51">
<use xlink:href="#path3_fill" transform="translate(-4.60001 -145.451)" fill="#0072B2"/>
</g>
<g id="Rectangle 2.52">
<use xlink:href="#path2_fill" transform="translate(16.5334 -166.471)" fill="#0072B2"/>
</g>
<g id="Rectangle 2.53">
<use xlink:href="#path1_fill" transform="translate(37.6666 -179.608)" fill="#0072B2"/>
</g>
<g id="Rectangle 2.54">
<use xlink:href="#path6_fill" transform="translate(-68 -85.0195)" fill="#0072B2"/>
</g>
<g id="Rectangle 2.55">
<use xlink:href="#path5_fill" transform="translate(-46.8667 -100.784)" fill="#0072B2"/>
</g>
<g id="Rectangle 2.56">
<use xlink:href="#path4_fill" transform="translate(-25.7333 -121.804)" fill="#0072B2"/>
</g>
<g id="Rectangle 2.57">
<use xlink:href="#path3_fill" transform="translate(-4.60001 -145.451)" fill="#0072B2"/>
</g>
<g id="Rectangle 2.58">
<use xlink:href="#path2_fill" transform="translate(16.5334 -166.471)" fill="#0072B2"/>
</g>
<g id="Rectangle 2.59">
<use xlink:href="#path1_fill" transform="translate(37.6666 -179.608)" fill="#0072B2"/>
</g>
<g id="Line 2.1">
<use xlink:href="#path8_stroke" transform="translate(-443 -65)"/>
</g>
<g id="Line 2.2">
<use xlink:href="#path9_stroke" transform="matrix(1 -2.44929e-16 2.44929e-16 1 -88 -65)"/>
</g>
<g id="Line 2.3">
<use xlink:href="#path9_stroke" transform="translate(90 -65)"/>
</g>
<g id="Line 3">
<use xlink:href="#path10_stroke" transform="matrix(6.12323e-17 -1 1 6.12323e-17 80 -17)"/>
</g>
</g>
<defs>
<path id="path0_fill" d="M 0 0L 21.1333 0L 21.1333 131.373L 0 131.373L 0 0Z"/>
<path id="path1_fill" d="M 0 0L 21.1333 0L 21.1333 112.98L 0 112.98L 0 0Z"/>
<path id="path2_fill" d="M 0 0L 21.1333 0L 21.1333 99.8431L 0 99.8431L 0 0Z"/>
<path id="path3_fill" d="M 0 0L 21.1333 0L 21.1333 78.8235L 0 78.8235L 0 0Z"/>
<path id="path4_fill" d="M 0 0L 21.1333 0L 21.1333 55.1765L 0 55.1765L 0 0Z"/>
<path id="path5_fill" d="M 0 0L 21.1333 0L 21.1333 34.1569L 0 34.1569L 0 0Z"/>
<path id="path6_fill" d="M 0 0L 21.1333 0L 21.1333 18.3922L 0 18.3922L 0 0Z"/>
<path id="path7_fill" d="M 0 0L 10 0L 10 131L 0 131L 0 0Z"/>
<path id="path8_stroke" d="M 0 0L 317 0L 317 -2L 0 -2L 0 0Z"/>
<path id="path9_stroke" d="M 0 0L 157 0L 157 -2L 0 -2L 0 0Z"/>
<path id="path10_stroke" d="M 0 0L 1.51429 0L 1.51429 -2L 0 -2L 0 0ZM 4.54286 0L 7.57143 0L 7.57143 -2L 4.54286 -2L 4.54286 0ZM 10.6 0L 13.6286 0L 13.6286 -2L 10.6 -2L 10.6 0ZM 16.6571 0L 19.6857 0L 19.6857 -2L 16.6571 -2L 16.6571 0ZM 22.7143 0L 25.7429 0L 25.7429 -2L 22.7143 -2L 22.7143 0ZM 28.7714 0L 31.8 0L 31.8 -2L 28.7714 -2L 28.7714 0ZM 34.8286 0L 37.8571 0L 37.8571 -2L 34.8286 -2L 34.8286 0ZM 40.8857 0L 43.9143 0L 43.9143 -2L 40.8857 -2L 40.8857 0ZM 46.9429 0L 49.9714 0L 49.9714 -2L 46.9429 -2L 46.9429 0ZM 53 0L 56.0286 0L 56.0286 -2L 53 -2L 53 0ZM 59.0571 0L 62.0857 0L 62.0857 -2L 59.0571 -2L 59.0571 0ZM 65.1143 0L 68.1429 0L 68.1429 -2L 65.1143 -2L 65.1143 0ZM 71.1714 0L 74.2 0L 74.2 -2L 71.1714 -2L 71.1714 0ZM 77.2286 0L 80.2571 0L 80.2571 -2L 77.2286 -2L 77.2286 0ZM 83.2857 0L 86.3143 0L 86.3143 -2L 83.2857 -2L 83.2857 0ZM 89.3429 0L 92.3714 0L 92.3714 -2L 89.3429 -2L 89.3429 0ZM 95.4 0L 98.4286 0L 98.4286 -2L 95.4 -2L 95.4 0ZM 101.457 0L 104.486 0L 104.486 -2L 101.457 -2L 101.457 0ZM 107.514 -1.11022e-16L 110.543 -1.11022e-16L 110.543 -2L 107.514 -2L 107.514 -1.11022e-16ZM 113.571 0L 116.6 0L 116.6 -2L 113.571 -2L 113.571 0ZM 119.629 0L 122.657 0L 122.657 -2L 119.629 -2L 119.629 0ZM 125.686 0L 128.714 0L 128.714 -2L 125.686 -2L 125.686 0ZM 131.743 0L 134.771 0L 134.771 -2L 131.743 -2L 131.743 0ZM 137.8 0L 140.829 0L 140.829 -2L 137.8 -2L 137.8 0ZM 143.857 0L 146.886 0L 146.886 -2L 143.857 -2L 143.857 0ZM 149.914 0L 152.943 0L 152.943 -2L 149.914 -2L 149.914 0ZM 155.971 0L 159 0L 159 -2L 155.971 -2L 155.971 0ZM 162.029 0L 165.057 0L 165.057 -2L 162.029 -2L 162.029 0ZM 168.086 0L 171.114 0L 171.114 -2L 168.086 -2L 168.086 0ZM 174.143 0L 177.171 0L 177.171 -2L 174.143 -2L 174.143 0ZM 180.2 0L 183.229 0L 183.229 -2L 180.2 -2L 180.2 0ZM 186.257 0L 189.286 0L 189.286 -2L 186.257 -2L 186.257 0ZM 192.314 0L 195.343 0L 195.343 -2L 192.314 -2L 192.314 0ZM 198.371 0L 201.4 0L 201.4 -2L 198.371 -2L 198.371 0ZM 204.429 0L 207.457 0L 207.457 -2L 204.429 -2L 204.429 0ZM 210.486 0L 212 0L 212 -2L 210.486 -2L 210.486 0Z"/>
</defs>
</svg>
