<svg width="598" height="277" viewBox="0 0 598 277" version="1.1" xmlns="http://www.w3.org/2000/svg" xmlns:xlink="http://www.w3.org/1999/xlink">
<title>s1m4_normal</title>
<desc>Created using Figma</desc>
<g id="Canvas" transform="translate(548 305)">
<rect x="-548" y="-305" width="598" height="277" fill="#FFFFFF"/>
<g id="Rectangle 2.21">
<use xlink:href="#path0_fill" transform="translate(-254 -250)" fill="#D55E00"/>
</g>
<g id="Rectangle 2.22">
<use xlink:href="#path1_fill" transform="translate(-227 -224.417)" fill="#D55E00"/>
</g>
<g id="Rectangle 2.23">
<use xlink:href="#path2_fill" transform="translate(-200 -206.143)" fill="#D55E00"/>
</g>
<g id="Rectangle 2.24">
<use xlink:href="#path3_fill" transform="translate(-173 -176.906)" fill="#0072B2"/>
</g>
<g id="Rectangle 2.25">
<use xlink:href="#path4_fill" transform="translate(-146 -144.013)" fill="#0072B2"/>
</g>
<g id="Rectangle 2.26">
<use xlink:href="#path5_fill" transform="translate(-119 -114.775)" fill="#0072B2"/>
</g>
<g id="Rectangle 2.27">
<use xlink:href="#path6_fill" transform="translate(-92.0001 -92.8467)" fill="#0072B2"/>
</g>
<g id="Rectangle 2.28">
<use xlink:href="#path6_fill" transform="translate(-416 -92.8467)" fill="#0072B2"/>
</g>
<g id="Rectangle 2.29">
<use xlink:href="#path5_fill" transform="translate(-389 -114.775)" fill="#0072B2"/>
</g>
<g id="Rectangle 2.30">
<use xlink:href="#path4_fill" transform="translate(-362 -144.013)" fill="#0072B2"/>
</g>
<g id="Rectangle 2.31">
<use xlink:href="#path3_fill" transform="translate(-335 -176.906)" fill="#0072B2"/>
</g>
<g id="Rectangle 2.32">
<use xlink:href="#path2_fill" transform="translate(-308 -206.143)" fill="#D55E00"/>
</g>
<g id="Rectangle 2.33">
<use xlink:href="#path1_fill" transform="translate(-281 -224.417)" fill="#D55E00"/>
</g>
<g id="Rectangle 2.41">
<use xlink:href="#path6_fill" transform="translate(-416 -92.8467)" fill="#0072B2"/>
</g>
<g id="Rectangle 2.42">
<use xlink:href="#path5_fill" transform="translate(-389 -114.775)" fill="#0072B2"/>
</g>
<g id="Rectangle 2.43">
<use xlink:href="#path4_fill" transform="translate(-362 -144.013)" fill="#0072B2"/>
</g>
<g id="Rectangle 2.44">
<use xlink:href="#path3_fill" transform="translate(-335 -176.906)" fill="#0072B2"/>
</g>
<g id="Line 2.1">
<use xlink:href="#path7_stroke" transform="translate(-443 -65)"/>
</g>
<g id="Most values pile up in the middle">
<use xlink:href="#path8_fill" transform="translate(-310 -162)" fill="#FFFFFF"/>
</g>
<g id="Arrow">
<use xlink:href="#path9_stroke" transform="matrix(-0.730735 0.682661 -0.682661 -0.730735 -348 -186)" fill="#000000" fill-opacity="0.2"/>
</g>
<g id="Arrow">
<use xlink:href="#path10_stroke" transform="matrix(0.726207 0.687476 -0.687476 0.726207 -133 -186)" fill="#000000" fill-opacity="0.2"/>
</g>
<g id="Frequencies gradually decrease" opacity="0.2">
<use xlink:href="#path11_fill" transform="translate(-109 -193)"/>
</g>
<g id="Frequencies gradually decrease" opacity="0.2">
<use xlink:href="#path11_fill" transform="translate(-548 -193)"/>
</g>
<g id="Rectangle 3">
<mask id="mask0_outline_ins">
<use xlink:href="#path12_fill" fill="white" transform="translate(-548 -305)"/>
</mask>
<g mask="url(#mask0_outline_ins)">
<use xlink:href="#path13_stroke_2x" transform="translate(-548 -305)" fill="#FFFFFF"/>
</g>
</g>
</g>
<defs>
<path id="path0_fill" d="M 0 0L 27 0L 27 182.736L 0 182.736L 0 0Z"/>
<path id="path1_fill" d="M 0 0L 27 0L 27 157.153L 0 157.153L 0 0Z"/>
<path id="path2_fill" d="M 0 0L 27 0L 27 138.88L 0 138.88L 0 0Z"/>
<path id="path3_fill" d="M 0 0L 27 0L 27 109.642L 0 109.642L 0 0Z"/>
<path id="path4_fill" d="M 0 0L 27 0L 27 76.7492L 0 76.7492L 0 0Z"/>
<path id="path5_fill" d="M 0 0L 27 0L 27 47.5114L 0 47.5114L 0 0Z"/>
<path id="path6_fill" d="M 0 0L 27 0L 27 25.5831L 0 25.5831L 0 0Z"/>
<path id="path7_stroke" d="M 0 0L 405 0L 405 -2L 0 -2L 0 0Z"/>
<path id="path8_fill" d="M 30.4141 3.625L 33.3359 11.875L 36.2422 3.625L 39.3203 3.625L 39.3203 15L 36.9688 15L 36.9688 11.8906L 37.2031 6.52344L 34.1328 15L 32.5234 15L 29.4609 6.53125L 29.6953 11.8906L 29.6953 15L 27.3516 15L 27.3516 3.625L 30.4141 3.625ZM 40.8672 10.6953C 40.8672 9.85677 41.0286 9.10938 41.3516 8.45312C 41.6745 7.79688 42.138 7.28906 42.7422 6.92969C 43.3516 6.57031 44.0573 6.39062 44.8594 6.39062C 46 6.39062 46.9297 6.73958 47.6484 7.4375C 48.3724 8.13542 48.776 9.08333 48.8594 10.2812L 48.875 10.8594C 48.875 12.1562 48.513 13.1979 47.7891 13.9844C 47.0651 14.7656 46.0938 15.1562 44.875 15.1562C 43.6562 15.1562 42.6823 14.7656 41.9531 13.9844C 41.2292 13.2031 40.8672 12.1406 40.8672 10.7969L 40.8672 10.6953ZM 43.125 10.8594C 43.125 11.6615 43.276 12.276 43.5781 12.7031C 43.8802 13.125 44.3125 13.3359 44.875 13.3359C 45.4219 13.3359 45.849 13.1276 46.1562 12.7109C 46.4635 12.2891 46.6172 11.6172 46.6172 10.6953C 46.6172 9.90885 46.4635 9.29948 46.1562 8.86719C 45.849 8.4349 45.4167 8.21875 44.8594 8.21875C 44.3073 8.21875 43.8802 8.4349 43.5781 8.86719C 43.276 9.29427 43.125 9.95833 43.125 10.8594ZM 54.8438 12.6641C 54.8438 12.388 54.7057 12.1719 54.4297 12.0156C 54.1589 11.8542 53.7214 11.7109 53.1172 11.5859C 51.1068 11.1641 50.1016 10.3099 50.1016 9.02344C 50.1016 8.27344 50.4115 7.64844 51.0312 7.14844C 51.6562 6.64323 52.4714 6.39062 53.4766 6.39062C 54.5495 6.39062 55.4062 6.64323 56.0469 7.14844C 56.6927 7.65365 57.0156 8.3099 57.0156 9.11719L 54.7578 9.11719C 54.7578 8.79427 54.6536 8.52865 54.4453 8.32031C 54.237 8.10677 53.9115 8 53.4688 8C 53.0885 8 52.7943 8.08594 52.5859 8.25781C 52.3776 8.42969 52.2734 8.64844 52.2734 8.91406C 52.2734 9.16406 52.3906 9.36719 52.625 9.52344C 52.8646 9.67448 53.2656 9.80729 53.8281 9.92188C 54.3906 10.0312 54.8646 10.1562 55.25 10.2969C 56.4427 10.7344 57.0391 11.4922 57.0391 12.5703C 57.0391 13.3411 56.7083 13.9661 56.0469 14.4453C 55.3854 14.9193 54.5312 15.1562 53.4844 15.1562C 52.776 15.1562 52.1458 15.0312 51.5938 14.7812C 51.0469 14.526 50.6172 14.1797 50.3047 13.7422C 49.9922 13.2995 49.8359 12.8229 49.8359 12.3125L 51.9766 12.3125C 51.9974 12.7135 52.1458 13.0208 52.4219 13.2344C 52.6979 13.4479 53.0677 13.5547 53.5312 13.5547C 53.9635 13.5547 54.2891 13.474 54.5078 13.3125C 54.7318 13.1458 54.8438 12.9297 54.8438 12.6641ZM 61.2031 4.46875L 61.2031 6.54688L 62.6484 6.54688L 62.6484 8.20312L 61.2031 8.20312L 61.2031 12.4219C 61.2031 12.7344 61.263 12.9583 61.3828 13.0938C 61.5026 13.2292 61.7318 13.2969 62.0703 13.2969C 62.3203 13.2969 62.5417 13.2786 62.7344 13.2422L 62.7344 14.9531C 62.2917 15.0885 61.8359 15.1562 61.3672 15.1562C 59.7839 15.1562 58.9766 14.3568 58.9453 12.7578L 58.9453 8.20312L 57.7109 8.20312L 57.7109 6.54688L 58.9453 6.54688L 58.9453 4.46875L 61.2031 4.46875ZM 71.0547 12.2422L 72.625 6.54688L 74.9844 6.54688L 72.1328 15L 69.9766 15L 67.125 6.54688L 69.4844 6.54688L 71.0547 12.2422ZM 80.7578 15C 80.6536 14.7969 80.5781 14.5443 80.5312 14.2422C 79.9844 14.8516 79.2734 15.1562 78.3984 15.1562C 77.5703 15.1562 76.8828 14.9167 76.3359 14.4375C 75.7943 13.9583 75.5234 13.3542 75.5234 12.625C 75.5234 11.7292 75.8542 11.0417 76.5156 10.5625C 77.1823 10.0833 78.1432 9.84115 79.3984 9.83594L 80.4375 9.83594L 80.4375 9.35156C 80.4375 8.96094 80.3359 8.64844 80.1328 8.41406C 79.9349 8.17969 79.6198 8.0625 79.1875 8.0625C 78.8073 8.0625 78.5078 8.15365 78.2891 8.33594C 78.0755 8.51823 77.9688 8.76823 77.9688 9.08594L 75.7109 9.08594C 75.7109 8.59635 75.862 8.14323 76.1641 7.72656C 76.4661 7.3099 76.8932 6.98438 77.4453 6.75C 77.9974 6.51042 78.6172 6.39062 79.3047 6.39062C 80.3464 6.39062 81.1719 6.65365 81.7812 7.17969C 82.3958 7.70052 82.7031 8.4349 82.7031 9.38281L 82.7031 13.0469C 82.7083 13.849 82.8203 14.4557 83.0391 14.8672L 83.0391 15L 80.7578 15ZM 78.8906 13.4297C 79.224 13.4297 79.5312 13.3568 79.8125 13.2109C 80.0938 13.0599 80.3021 12.8594 80.4375 12.6094L 80.4375 11.1562L 79.5938 11.1562C 78.4635 11.1562 77.862 11.5469 77.7891 12.3281L 77.7812 12.4609C 77.7812 12.7422 77.8802 12.974 78.0781 13.1562C 78.276 13.3385 78.5469 13.4297 78.8906 13.4297ZM 86.8203 15L 84.5547 15L 84.5547 3L 86.8203 3L 86.8203 15ZM 93.75 14.1406C 93.1927 14.8177 92.4219 15.1562 91.4375 15.1562C 90.5312 15.1562 89.8385 14.8958 89.3594 14.375C 88.8854 13.8542 88.6432 13.0911 88.6328 12.0859L 88.6328 6.54688L 90.8906 6.54688L 90.8906 12.0078C 90.8906 12.888 91.2917 13.3281 92.0938 13.3281C 92.8594 13.3281 93.3854 13.0625 93.6719 12.5312L 93.6719 6.54688L 95.9375 6.54688L 95.9375 15L 93.8125 15L 93.75 14.1406ZM 101.531 15.1562C 100.292 15.1562 99.2812 14.776 98.5 14.0156C 97.724 13.2552 97.3359 12.2422 97.3359 10.9766L 97.3359 10.7578C 97.3359 9.90885 97.5 9.15104 97.8281 8.48438C 98.1562 7.8125 98.6198 7.29688 99.2188 6.9375C 99.8229 6.57292 100.51 6.39062 101.281 6.39062C 102.438 6.39062 103.346 6.75521 104.008 7.48438C 104.674 8.21354 105.008 9.2474 105.008 10.5859L 105.008 11.5078L 99.625 11.5078C 99.6979 12.0599 99.9167 12.5026 100.281 12.8359C 100.651 13.1693 101.117 13.3359 101.68 13.3359C 102.549 13.3359 103.229 13.0208 103.719 12.3906L 104.828 13.6328C 104.49 14.112 104.031 14.487 103.453 14.7578C 102.875 15.0234 102.234 15.1562 101.531 15.1562ZM 101.273 8.21875C 100.826 8.21875 100.461 8.36979 100.18 8.67188C 99.9036 8.97396 99.7266 9.40625 99.6484 9.96875L 102.789 9.96875L 102.789 9.78906C 102.779 9.28906 102.643 8.90365 102.383 8.63281C 102.122 8.35677 101.753 8.21875 101.273 8.21875ZM 110.875 12.6641C 110.875 12.388 110.737 12.1719 110.461 12.0156C 110.19 11.8542 109.753 11.7109 109.148 11.5859C 107.138 11.1641 106.133 10.3099 106.133 9.02344C 106.133 8.27344 106.443 7.64844 107.062 7.14844C 107.688 6.64323 108.503 6.39062 109.508 6.39062C 110.581 6.39062 111.438 6.64323 112.078 7.14844C 112.724 7.65365 113.047 8.3099 113.047 9.11719L 110.789 9.11719C 110.789 8.79427 110.685 8.52865 110.477 8.32031C 110.268 8.10677 109.943 8 109.5 8C 109.12 8 108.826 8.08594 108.617 8.25781C 108.409 8.42969 108.305 8.64844 108.305 8.91406C 108.305 9.16406 108.422 9.36719 108.656 9.52344C 108.896 9.67448 109.297 9.80729 109.859 9.92188C 110.422 10.0312 110.896 10.1562 111.281 10.2969C 112.474 10.7344 113.07 11.4922 113.07 12.5703C 113.07 13.3411 112.74 13.9661 112.078 14.4453C 111.417 14.9193 110.562 15.1562 109.516 15.1562C 108.807 15.1562 108.177 15.0312 107.625 14.7812C 107.078 14.526 106.648 14.1797 106.336 13.7422C 106.023 13.2995 105.867 12.8229 105.867 12.3125L 108.008 12.3125C 108.029 12.7135 108.177 13.0208 108.453 13.2344C 108.729 13.4479 109.099 13.5547 109.562 13.5547C 109.995 13.5547 110.32 13.474 110.539 13.3125C 110.763 13.1458 110.875 12.9297 110.875 12.6641ZM 54.4141 29.8516C 54.4141 31.1536 54.1172 32.1979 53.5234 32.9844C 52.9349 33.7656 52.138 34.1562 51.1328 34.1562C 50.2786 34.1562 49.5885 33.8594 49.0625 33.2656L 49.0625 37.25L 46.8047 37.25L 46.8047 25.5469L 48.8984 25.5469L 48.9766 26.375C 49.5234 25.7188 50.237 25.3906 51.1172 25.3906C 52.1589 25.3906 52.9688 25.776 53.5469 26.5469C 54.125 27.3177 54.4141 28.3802 54.4141 29.7344L 54.4141 29.8516ZM 52.1562 29.6875C 52.1562 28.901 52.0156 28.2943 51.7344 27.8672C 51.4583 27.4401 51.0547 27.2266 50.5234 27.2266C 49.8151 27.2266 49.3281 27.4974 49.0625 28.0391L 49.0625 31.5C 49.3385 32.0573 49.8307 32.3359 50.5391 32.3359C 51.6172 32.3359 52.1562 31.4531 52.1562 29.6875ZM 58.2031 34L 55.9375 34L 55.9375 25.5469L 58.2031 25.5469L 58.2031 34ZM 55.8047 23.3594C 55.8047 23.0208 55.9167 22.7422 56.1406 22.5234C 56.3698 22.3047 56.6797 22.1953 57.0703 22.1953C 57.4557 22.1953 57.763 22.3047 57.9922 22.5234C 58.2214 22.7422 58.3359 23.0208 58.3359 23.3594C 58.3359 23.7031 58.2188 23.9844 57.9844 24.2031C 57.7552 24.4219 57.4505 24.5312 57.0703 24.5312C 56.6901 24.5312 56.3828 24.4219 56.1484 24.2031C 55.9193 23.9844 55.8047 23.7031 55.8047 23.3594ZM 62.4531 34L 60.1875 34L 60.1875 22L 62.4531 22L 62.4531 34ZM 68.2109 34.1562C 66.9714 34.1562 65.9609 33.776 65.1797 33.0156C 64.4036 32.2552 64.0156 31.2422 64.0156 29.9766L 64.0156 29.7578C 64.0156 28.9089 64.1797 28.151 64.5078 27.4844C 64.8359 26.8125 65.2995 26.2969 65.8984 25.9375C 66.5026 25.5729 67.1901 25.3906 67.9609 25.3906C 69.1172 25.3906 70.026 25.7552 70.6875 26.4844C 71.3542 27.2135 71.6875 28.2474 71.6875 29.5859L 71.6875 30.5078L 66.3047 30.5078C 66.3776 31.0599 66.5964 31.5026 66.9609 31.8359C 67.3307 32.1693 67.7969 32.3359 68.3594 32.3359C 69.2292 32.3359 69.9089 32.0208 70.3984 31.3906L 71.5078 32.6328C 71.1693 33.112 70.7109 33.487 70.1328 33.7578C 69.5547 34.0234 68.9141 34.1562 68.2109 34.1562ZM 67.9531 27.2188C 67.5052 27.2188 67.1406 27.3698 66.8594 27.6719C 66.5833 27.974 66.4062 28.4062 66.3281 28.9688L 69.4688 28.9688L 69.4688 28.7891C 69.4583 28.2891 69.3229 27.9036 69.0625 27.6328C 68.8021 27.3568 68.4323 27.2188 67.9531 27.2188ZM 82.0234 33.1406C 81.4661 33.8177 80.6953 34.1562 79.7109 34.1562C 78.8047 34.1562 78.112 33.8958 77.6328 33.375C 77.1589 32.8542 76.9167 32.0911 76.9062 31.0859L 76.9062 25.5469L 79.1641 25.5469L 79.1641 31.0078C 79.1641 31.888 79.5651 32.3281 80.3672 32.3281C 81.1328 32.3281 81.6589 32.0625 81.9453 31.5312L 81.9453 25.5469L 84.2109 25.5469L 84.2109 34L 82.0859 34L 82.0234 33.1406ZM 93.5234 29.8516C 93.5234 31.1536 93.2266 32.1979 92.6328 32.9844C 92.0443 33.7656 91.2474 34.1562 90.2422 34.1562C 89.388 34.1562 88.6979 33.8594 88.1719 33.2656L 88.1719 37.25L 85.9141 37.25L 85.9141 25.5469L 88.0078 25.5469L 88.0859 26.375C 88.6328 25.7188 89.3464 25.3906 90.2266 25.3906C 91.2682 25.3906 92.0781 25.776 92.6562 26.5469C 93.2344 27.3177 93.5234 28.3802 93.5234 29.7344L 93.5234 29.8516ZM 91.2656 29.6875C 91.2656 28.901 91.125 28.2943 90.8438 27.8672C 90.5677 27.4401 90.1641 27.2266 89.6328 27.2266C 88.9245 27.2266 88.4375 27.4974 88.1719 28.0391L 88.1719 31.5C 88.4479 32.0573 88.9401 32.3359 89.6484 32.3359C 90.7266 32.3359 91.2656 31.4531 91.2656 29.6875ZM 26.625 52L 24.3594 52L 24.3594 43.5469L 26.625 43.5469L 26.625 52ZM 24.2266 41.3594C 24.2266 41.0208 24.3385 40.7422 24.5625 40.5234C 24.7917 40.3047 25.1016 40.1953 25.4922 40.1953C 25.8776 40.1953 26.1849 40.3047 26.4141 40.5234C 26.6432 40.7422 26.7578 41.0208 26.7578 41.3594C 26.7578 41.7031 26.6406 41.9844 26.4062 42.2031C 26.1771 42.4219 25.8724 42.5312 25.4922 42.5312C 25.112 42.5312 24.8047 42.4219 24.5703 42.2031C 24.3411 41.9844 24.2266 41.7031 24.2266 41.3594ZM 30.5703 43.5469L 30.6406 44.5234C 31.2448 43.7682 32.0547 43.3906 33.0703 43.3906C 33.9661 43.3906 34.6328 43.6536 35.0703 44.1797C 35.5078 44.7057 35.7318 45.4922 35.7422 46.5391L 35.7422 52L 33.4844 52L 33.4844 46.5938C 33.4844 46.1146 33.3802 45.7682 33.1719 45.5547C 32.9635 45.3359 32.6172 45.2266 32.1328 45.2266C 31.4974 45.2266 31.0208 45.4974 30.7031 46.0391L 30.7031 52L 28.4453 52L 28.4453 43.5469L 30.5703 43.5469ZM 44.1484 41.4688L 44.1484 43.5469L 45.5938 43.5469L 45.5938 45.2031L 44.1484 45.2031L 44.1484 49.4219C 44.1484 49.7344 44.2083 49.9583 44.3281 50.0938C 44.4479 50.2292 44.6771 50.2969 45.0156 50.2969C 45.2656 50.2969 45.487 50.2786 45.6797 50.2422L 45.6797 51.9531C 45.237 52.0885 44.7812 52.1562 44.3125 52.1562C 42.7292 52.1562 41.9219 51.3568 41.8906 49.7578L 41.8906 45.2031L 40.6562 45.2031L 40.6562 43.5469L 41.8906 43.5469L 41.8906 41.4688L 44.1484 41.4688ZM 49.0547 44.4688C 49.6536 43.75 50.4062 43.3906 51.3125 43.3906C 53.1458 43.3906 54.0755 44.4557 54.1016 46.5859L 54.1016 52L 51.8438 52L 51.8438 46.6484C 51.8438 46.1641 51.7396 45.8073 51.5312 45.5781C 51.3229 45.3438 50.9766 45.2266 50.4922 45.2266C 49.8307 45.2266 49.3516 45.4818 49.0547 45.9922L 49.0547 52L 46.7969 52L 46.7969 40L 49.0547 40L 49.0547 44.4688ZM 59.6953 52.1562C 58.4557 52.1562 57.4453 51.776 56.6641 51.0156C 55.888 50.2552 55.5 49.2422 55.5 47.9766L 55.5 47.7578C 55.5 46.9089 55.6641 46.151 55.9922 45.4844C 56.3203 44.8125 56.7839 44.2969 57.3828 43.9375C 57.987 43.5729 58.6745 43.3906 59.4453 43.3906C 60.6016 43.3906 61.5104 43.7552 62.1719 44.4844C 62.8385 45.2135 63.1719 46.2474 63.1719 47.5859L 63.1719 48.5078L 57.7891 48.5078C 57.862 49.0599 58.0807 49.5026 58.4453 49.8359C 58.8151 50.1693 59.2812 50.3359 59.8438 50.3359C 60.7135 50.3359 61.3932 50.0208 61.8828 49.3906L 62.9922 50.6328C 62.6536 51.112 62.1953 51.487 61.6172 51.7578C 61.0391 52.0234 60.3984 52.1562 59.6953 52.1562ZM 59.4375 45.2188C 58.9896 45.2188 58.625 45.3698 58.3438 45.6719C 58.0677 45.974 57.8906 46.4062 57.8125 46.9688L 60.9531 46.9688L 60.9531 46.7891C 60.9427 46.2891 60.8073 45.9036 60.5469 45.6328C 60.2865 45.3568 59.9167 45.2188 59.4375 45.2188ZM 70.5625 43.5469L 70.6328 44.4922C 71.2318 43.7578 72.0417 43.3906 73.0625 43.3906C 74.151 43.3906 74.8984 43.8203 75.3047 44.6797C 75.8984 43.8203 76.7448 43.3906 77.8438 43.3906C 78.7604 43.3906 79.4427 43.6589 79.8906 44.1953C 80.3385 44.7266 80.5625 45.5286 80.5625 46.6016L 80.5625 52L 78.2969 52L 78.2969 46.6094C 78.2969 46.1302 78.2031 45.7812 78.0156 45.5625C 77.8281 45.3385 77.4974 45.2266 77.0234 45.2266C 76.3464 45.2266 75.8776 45.5495 75.6172 46.1953L 75.625 52L 73.3672 52L 73.3672 46.6172C 73.3672 46.1276 73.2708 45.7734 73.0781 45.5547C 72.8854 45.3359 72.5573 45.2266 72.0938 45.2266C 71.4531 45.2266 70.9896 45.4922 70.7031 46.0234L 70.7031 52L 68.4453 52L 68.4453 43.5469L 70.5625 43.5469ZM 84.6875 52L 82.4219 52L 82.4219 43.5469L 84.6875 43.5469L 84.6875 52ZM 82.2891 41.3594C 82.2891 41.0208 82.401 40.7422 82.625 40.5234C 82.8542 40.3047 83.1641 40.1953 83.5547 40.1953C 83.9401 40.1953 84.2474 40.3047 84.4766 40.5234C 84.7057 40.7422 84.8203 41.0208 84.8203 41.3594C 84.8203 41.7031 84.7031 41.9844 84.4688 42.2031C 84.2396 42.4219 83.9349 42.5312 83.5547 42.5312C 83.1745 42.5312 82.8672 42.4219 82.6328 42.2031C 82.4036 41.9844 82.2891 41.7031 82.2891 41.3594ZM 86.2031 47.7109C 86.2031 46.3932 86.4974 45.3438 87.0859 44.5625C 87.6797 43.7812 88.4896 43.3906 89.5156 43.3906C 90.3385 43.3906 91.0182 43.6979 91.5547 44.3125L 91.5547 40L 93.8203 40L 93.8203 52L 91.7812 52L 91.6719 51.1016C 91.1094 51.8047 90.3854 52.1562 89.5 52.1562C 88.5052 52.1562 87.7057 51.7656 87.1016 50.9844C 86.5026 50.1979 86.2031 49.1068 86.2031 47.7109ZM 88.4609 47.875C 88.4609 48.6667 88.599 49.2734 88.875 49.6953C 89.151 50.1172 89.5521 50.3281 90.0781 50.3281C 90.776 50.3281 91.2682 50.0339 91.5547 49.4453L 91.5547 46.1094C 91.2734 45.5208 90.7865 45.2266 90.0938 45.2266C 89.0052 45.2266 88.4609 46.1094 88.4609 47.875ZM 95.2188 47.7109C 95.2188 46.3932 95.513 45.3438 96.1016 44.5625C 96.6953 43.7812 97.5052 43.3906 98.5312 43.3906C 99.3542 43.3906 100.034 43.6979 100.57 44.3125L 100.57 40L 102.836 40L 102.836 52L 100.797 52L 100.688 51.1016C 100.125 51.8047 99.401 52.1562 98.5156 52.1562C 97.5208 52.1562 96.7214 51.7656 96.1172 50.9844C 95.5182 50.1979 95.2188 49.1068 95.2188 47.7109ZM 97.4766 47.875C 97.4766 48.6667 97.6146 49.2734 97.8906 49.6953C 98.1667 50.1172 98.5677 50.3281 99.0938 50.3281C 99.7917 50.3281 100.284 50.0339 100.57 49.4453L 100.57 46.1094C 100.289 45.5208 99.8021 45.2266 99.1094 45.2266C 98.0208 45.2266 97.4766 46.1094 97.4766 47.875ZM 106.969 52L 104.703 52L 104.703 40L 106.969 40L 106.969 52ZM 112.727 52.1562C 111.487 52.1562 110.477 51.776 109.695 51.0156C 108.919 50.2552 108.531 49.2422 108.531 47.9766L 108.531 47.7578C 108.531 46.9089 108.695 46.151 109.023 45.4844C 109.352 44.8125 109.815 44.2969 110.414 43.9375C 111.018 43.5729 111.706 43.3906 112.477 43.3906C 113.633 43.3906 114.542 43.7552 115.203 44.4844C 115.87 45.2135 116.203 46.2474 116.203 47.5859L 116.203 48.5078L 110.82 48.5078C 110.893 49.0599 111.112 49.5026 111.477 49.8359C 111.846 50.1693 112.312 50.3359 112.875 50.3359C 113.745 50.3359 114.424 50.0208 114.914 49.3906L 116.023 50.6328C 115.685 51.112 115.227 51.487 114.648 51.7578C 114.07 52.0234 113.43 52.1562 112.727 52.1562ZM 112.469 45.2188C 112.021 45.2188 111.656 45.3698 111.375 45.6719C 111.099 45.974 110.922 46.4062 110.844 46.9688L 113.984 46.9688L 113.984 46.7891C 113.974 46.2891 113.839 45.9036 113.578 45.6328C 113.318 45.3568 112.948 45.2188 112.469 45.2188Z"/>
<path id="path9_stroke" d="M 105.065 1.06066C 105.651 0.474874 105.651 -0.474874 105.065 -1.06066L 95.5195 -10.6066C 94.9337 -11.1924 93.984 -11.1924 93.3982 -10.6066C 92.8124 -10.0208 92.8124 -9.07107 93.3982 -8.48528L 101.883 0L 93.3982 8.48528C 92.8124 9.07107 92.8124 10.0208 93.3982 10.6066C 93.984 11.1924 94.9337 11.1924 95.5195 10.6066L 105.065 1.06066ZM 0 1.5L 104.005 1.5L 104.005 -1.5L 0 -1.5L 0 1.5Z"/>
<path id="path10_stroke" d="M 104.337 1.06066C 104.923 0.474874 104.923 -0.474874 104.337 -1.06066L 94.791 -10.6066C 94.2053 -11.1924 93.2555 -11.1924 92.6697 -10.6066C 92.0839 -10.0208 92.0839 -9.07107 92.6697 -8.48528L 101.155 0L 92.6697 8.48528C 92.0839 9.07107 92.0839 10.0208 92.6697 10.6066C 93.2555 11.1924 94.2053 11.1924 94.791 10.6066L 104.337 1.06066ZM 0 1.5L 103.276 1.5L 103.276 -1.5L 0 -1.5L 0 1.5Z"/>
<path id="path11_fill" d="M 8.15625 10.3516L 3.65625 10.3516L 3.65625 15L 1.3125 15L 1.3125 3.625L 8.71875 3.625L 8.71875 5.52344L 3.65625 5.52344L 3.65625 8.46094L 8.15625 8.46094L 8.15625 10.3516ZM 14.4766 8.66406C 14.1693 8.6224 13.8984 8.60156 13.6641 8.60156C 12.8099 8.60156 12.25 8.89062 11.9844 9.46875L 11.9844 15L 9.72656 15L 9.72656 6.54688L 11.8594 6.54688L 11.9219 7.55469C 12.375 6.77865 13.0026 6.39062 13.8047 6.39062C 14.0547 6.39062 14.2891 6.42448 14.5078 6.49219L 14.4766 8.66406ZM 19.3047 15.1562C 18.0651 15.1562 17.0547 14.776 16.2734 14.0156C 15.4974 13.2552 15.1094 12.2422 15.1094 10.9766L 15.1094 10.7578C 15.1094 9.90885 15.2734 9.15104 15.6016 8.48438C 15.9297 7.8125 16.3932 7.29688 16.9922 6.9375C 17.5964 6.57292 18.2839 6.39062 19.0547 6.39062C 20.2109 6.39062 21.1198 6.75521 21.7812 7.48438C 22.4479 8.21354 22.7812 9.2474 22.7812 10.5859L 22.7812 11.5078L 17.3984 11.5078C 17.4714 12.0599 17.6901 12.5026 18.0547 12.8359C 18.4245 13.1693 18.8906 13.3359 19.4531 13.3359C 20.3229 13.3359 21.0026 13.0208 21.4922 12.3906L 22.6016 13.6328C 22.263 14.112 21.8047 14.487 21.2266 14.7578C 20.6484 15.0234 20.0078 15.1562 19.3047 15.1562ZM 19.0469 8.21875C 18.599 8.21875 18.2344 8.36979 17.9531 8.67188C 17.6771 8.97396 17.5 9.40625 17.4219 9.96875L 20.5625 9.96875L 20.5625 9.78906C 20.5521 9.28906 20.4167 8.90365 20.1562 8.63281C 19.8958 8.35677 19.526 8.21875 19.0469 8.21875ZM 23.7188 10.6953C 23.7188 9.36719 24.013 8.31771 24.6016 7.54688C 25.1953 6.77604 26.0078 6.39062 27.0391 6.39062C 27.9453 6.39062 28.6667 6.73698 29.2031 7.42969L 29.3516 6.54688L 31.3359 6.54688L 31.3359 18.25L 29.0703 18.25L 29.0703 14.2734C 28.5495 14.862 27.8672 15.1562 27.0234 15.1562C 26.0182 15.1562 25.2161 14.7656 24.6172 13.9844C 24.0182 13.2031 23.7188 12.1068 23.7188 10.6953ZM 25.9766 10.8594C 25.9766 11.6667 26.1172 12.2812 26.3984 12.7031C 26.6849 13.125 27.0859 13.3359 27.6016 13.3359C 28.2943 13.3359 28.7839 13.0599 29.0703 12.5078L 29.0703 9.01562C 28.7891 8.48438 28.3047 8.21875 27.6172 8.21875C 27.0964 8.21875 26.6927 8.42969 26.4062 8.85156C 26.1198 9.27344 25.9766 9.94271 25.9766 10.8594ZM 38.1797 14.1406C 37.6224 14.8177 36.8516 15.1562 35.8672 15.1562C 34.9609 15.1562 34.2682 14.8958 33.7891 14.375C 33.3151 13.8542 33.0729 13.0911 33.0625 12.0859L 33.0625 6.54688L 35.3203 6.54688L 35.3203 12.0078C 35.3203 12.888 35.7214 13.3281 36.5234 13.3281C 37.2891 13.3281 37.8151 13.0625 38.1016 12.5312L 38.1016 6.54688L 40.3672 6.54688L 40.3672 15L 38.2422 15L 38.1797 14.1406ZM 45.9609 15.1562C 44.7214 15.1562 43.7109 14.776 42.9297 14.0156C 42.1536 13.2552 41.7656 12.2422 41.7656 10.9766L 41.7656 10.7578C 41.7656 9.90885 41.9297 9.15104 42.2578 8.48438C 42.5859 7.8125 43.0495 7.29688 43.6484 6.9375C 44.2526 6.57292 44.9401 6.39062 45.7109 6.39062C 46.8672 6.39062 47.776 6.75521 48.4375 7.48438C 49.1042 8.21354 49.4375 9.2474 49.4375 10.5859L 49.4375 11.5078L 44.0547 11.5078C 44.1276 12.0599 44.3464 12.5026 44.7109 12.8359C 45.0807 13.1693 45.5469 13.3359 46.1094 13.3359C 46.9792 13.3359 47.6589 13.0208 48.1484 12.3906L 49.2578 13.6328C 48.9193 14.112 48.4609 14.487 47.8828 14.7578C 47.3047 15.0234 46.6641 15.1562 45.9609 15.1562ZM 45.7031 8.21875C 45.2552 8.21875 44.8906 8.36979 44.6094 8.67188C 44.3333 8.97396 44.1562 9.40625 44.0781 9.96875L 47.2188 9.96875L 47.2188 9.78906C 47.2083 9.28906 47.0729 8.90365 46.8125 8.63281C 46.5521 8.35677 46.1823 8.21875 45.7031 8.21875ZM 52.8047 6.54688L 52.875 7.52344C 53.4792 6.76823 54.2891 6.39062 55.3047 6.39062C 56.2005 6.39062 56.8672 6.65365 57.3047 7.17969C 57.7422 7.70573 57.9661 8.49219 57.9766 9.53906L 57.9766 15L 55.7188 15L 55.7188 9.59375C 55.7188 9.11458 55.6146 8.76823 55.4062 8.55469C 55.1979 8.33594 54.8516 8.22656 54.3672 8.22656C 53.7318 8.22656 53.2552 8.4974 52.9375 9.03906L 52.9375 15L 50.6797 15L 50.6797 6.54688L 52.8047 6.54688ZM 63.2109 13.3359C 63.6276 13.3359 63.9661 13.2214 64.2266 12.9922C 64.487 12.763 64.6224 12.4583 64.6328 12.0781L 66.75 12.0781C 66.7448 12.651 66.5885 13.1771 66.2812 13.6562C 65.974 14.1302 65.5521 14.5 65.0156 14.7656C 64.4844 15.026 63.8958 15.1562 63.25 15.1562C 62.0417 15.1562 61.0885 14.7734 60.3906 14.0078C 59.6927 13.237 59.3438 12.1745 59.3438 10.8203L 59.3438 10.6719C 59.3438 9.36979 59.6901 8.33073 60.3828 7.55469C 61.0755 6.77865 62.026 6.39062 63.2344 6.39062C 64.2917 6.39062 65.138 6.69271 65.7734 7.29688C 66.4141 7.89583 66.7396 8.69531 66.75 9.69531L 64.6328 9.69531C 64.6224 9.25781 64.487 8.90365 64.2266 8.63281C 63.9661 8.35677 63.6224 8.21875 63.1953 8.21875C 62.6693 8.21875 62.2708 8.41146 62 8.79688C 61.7344 9.17708 61.6016 9.79688 61.6016 10.6562L 61.6016 10.8906C 61.6016 11.7604 61.7344 12.3854 62 12.7656C 62.2656 13.1458 62.6693 13.3359 63.2109 13.3359ZM 70.4219 15L 68.1562 15L 68.1562 6.54688L 70.4219 6.54688L 70.4219 15ZM 68.0234 4.35938C 68.0234 4.02083 68.1354 3.74219 68.3594 3.52344C 68.5885 3.30469 68.8984 3.19531 69.2891 3.19531C 69.6745 3.19531 69.9818 3.30469 70.2109 3.52344C 70.4401 3.74219 70.5547 4.02083 70.5547 4.35938C 70.5547 4.70312 70.4375 4.98438 70.2031 5.20312C 69.974 5.42188 69.6693 5.53125 69.2891 5.53125C 68.9089 5.53125 68.6016 5.42188 68.3672 5.20312C 68.138 4.98438 68.0234 4.70312 68.0234 4.35938ZM 76.1797 15.1562C 74.9401 15.1562 73.9297 14.776 73.1484 14.0156C 72.3724 13.2552 71.9844 12.2422 71.9844 10.9766L 71.9844 10.7578C 71.9844 9.90885 72.1484 9.15104 72.4766 8.48438C 72.8047 7.8125 73.2682 7.29688 73.8672 6.9375C 74.4714 6.57292 75.1589 6.39062 75.9297 6.39062C 77.0859 6.39062 77.9948 6.75521 78.6562 7.48438C 79.3229 8.21354 79.6562 9.2474 79.6562 10.5859L 79.6562 11.5078L 74.2734 11.5078C 74.3464 12.0599 74.5651 12.5026 74.9297 12.8359C 75.2995 13.1693 75.7656 13.3359 76.3281 13.3359C 77.1979 13.3359 77.8776 13.0208 78.3672 12.3906L 79.4766 13.6328C 79.138 14.112 78.6797 14.487 78.1016 14.7578C 77.5234 15.0234 76.8828 15.1562 76.1797 15.1562ZM 75.9219 8.21875C 75.474 8.21875 75.1094 8.36979 74.8281 8.67188C 74.5521 8.97396 74.375 9.40625 74.2969 9.96875L 77.4375 9.96875L 77.4375 9.78906C 77.4271 9.28906 77.2917 8.90365 77.0312 8.63281C 76.7708 8.35677 76.401 8.21875 75.9219 8.21875ZM 85.5234 12.6641C 85.5234 12.388 85.3854 12.1719 85.1094 12.0156C 84.8385 11.8542 84.401 11.7109 83.7969 11.5859C 81.7865 11.1641 80.7812 10.3099 80.7812 9.02344C 80.7812 8.27344 81.0911 7.64844 81.7109 7.14844C 82.3359 6.64323 83.151 6.39062 84.1562 6.39062C 85.2292 6.39062 86.0859 6.64323 86.7266 7.14844C 87.3724 7.65365 87.6953 8.3099 87.6953 9.11719L 85.4375 9.11719C 85.4375 8.79427 85.3333 8.52865 85.125 8.32031C 84.9167 8.10677 84.5911 8 84.1484 8C 83.7682 8 83.474 8.08594 83.2656 8.25781C 83.0573 8.42969 82.9531 8.64844 82.9531 8.91406C 82.9531 9.16406 83.0703 9.36719 83.3047 9.52344C 83.5443 9.67448 83.9453 9.80729 84.5078 9.92188C 85.0703 10.0312 85.5443 10.1562 85.9297 10.2969C 87.1224 10.7344 87.7188 11.4922 87.7188 12.5703C 87.7188 13.3411 87.388 13.9661 86.7266 14.4453C 86.0651 14.9193 85.2109 15.1562 84.1641 15.1562C 83.4557 15.1562 82.8255 15.0312 82.2734 14.7812C 81.7266 14.526 81.2969 14.1797 80.9844 13.7422C 80.6719 13.2995 80.5156 12.8229 80.5156 12.3125L 82.6562 12.3125C 82.6771 12.7135 82.8255 13.0208 83.1016 13.2344C 83.3776 13.4479 83.7474 13.5547 84.2109 13.5547C 84.6432 13.5547 84.9688 13.474 85.1875 13.3125C 85.4115 13.1458 85.5234 12.9297 85.5234 12.6641ZM 92.8359 10.7109C 92.8359 9.41406 93.1432 8.36979 93.7578 7.57812C 94.3776 6.78646 95.2109 6.39062 96.2578 6.39062C 97.1849 6.39062 97.9062 6.70833 98.4219 7.34375L 98.5156 6.54688L 100.562 6.54688L 100.562 14.7188C 100.562 15.4583 100.393 16.1016 100.055 16.6484C 99.7214 17.1953 99.25 17.612 98.6406 17.8984C 98.0312 18.1849 97.3177 18.3281 96.5 18.3281C 95.8802 18.3281 95.276 18.2031 94.6875 17.9531C 94.099 17.7083 93.6536 17.3906 93.3516 17L 94.3516 15.625C 94.9141 16.2552 95.5964 16.5703 96.3984 16.5703C 96.9974 16.5703 97.4635 16.4089 97.7969 16.0859C 98.1302 15.7682 98.2969 15.3151 98.2969 14.7266L 98.2969 14.2734C 97.776 14.862 97.0911 15.1562 96.2422 15.1562C 95.2266 15.1562 94.4036 14.7604 93.7734 13.9688C 93.1484 13.1719 92.8359 12.1172 92.8359 10.8047L 92.8359 10.7109ZM 95.0938 10.875C 95.0938 11.6406 95.2474 12.2422 95.5547 12.6797C 95.862 13.112 96.2839 13.3281 96.8203 13.3281C 97.5078 13.3281 98 13.0703 98.2969 12.5547L 98.2969 9C 97.9948 8.48438 97.5078 8.22656 96.8359 8.22656C 96.2943 8.22656 95.8672 8.44792 95.5547 8.89062C 95.2474 9.33333 95.0938 9.99479 95.0938 10.875ZM 107.055 8.66406C 106.747 8.6224 106.477 8.60156 106.242 8.60156C 105.388 8.60156 104.828 8.89062 104.562 9.46875L 104.562 15L 102.305 15L 102.305 6.54688L 104.438 6.54688L 104.5 7.55469C 104.953 6.77865 105.581 6.39062 106.383 6.39062C 106.633 6.39062 106.867 6.42448 107.086 6.49219L 107.055 8.66406ZM 112.812 15C 112.708 14.7969 112.633 14.5443 112.586 14.2422C 112.039 14.8516 111.328 15.1562 110.453 15.1562C 109.625 15.1562 108.938 14.9167 108.391 14.4375C 107.849 13.9583 107.578 13.3542 107.578 12.625C 107.578 11.7292 107.909 11.0417 108.57 10.5625C 109.237 10.0833 110.198 9.84115 111.453 9.83594L 112.492 9.83594L 112.492 9.35156C 112.492 8.96094 112.391 8.64844 112.188 8.41406C 111.99 8.17969 111.674 8.0625 111.242 8.0625C 110.862 8.0625 110.562 8.15365 110.344 8.33594C 110.13 8.51823 110.023 8.76823 110.023 9.08594L 107.766 9.08594C 107.766 8.59635 107.917 8.14323 108.219 7.72656C 108.521 7.3099 108.948 6.98438 109.5 6.75C 110.052 6.51042 110.672 6.39062 111.359 6.39062C 112.401 6.39062 113.227 6.65365 113.836 7.17969C 114.451 7.70052 114.758 8.4349 114.758 9.38281L 114.758 13.0469C 114.763 13.849 114.875 14.4557 115.094 14.8672L 115.094 15L 112.812 15ZM 110.945 13.4297C 111.279 13.4297 111.586 13.3568 111.867 13.2109C 112.148 13.0599 112.357 12.8594 112.492 12.6094L 112.492 11.1562L 111.648 11.1562C 110.518 11.1562 109.917 11.5469 109.844 12.3281L 109.836 12.4609C 109.836 12.7422 109.935 12.974 110.133 13.1562C 110.331 13.3385 110.602 13.4297 110.945 13.4297ZM 116.141 10.7109C 116.141 9.39323 116.435 8.34375 117.023 7.5625C 117.617 6.78125 118.427 6.39062 119.453 6.39062C 120.276 6.39062 120.956 6.69792 121.492 7.3125L 121.492 3L 123.758 3L 123.758 15L 121.719 15L 121.609 14.1016C 121.047 14.8047 120.323 15.1562 119.438 15.1562C 118.443 15.1562 117.643 14.7656 117.039 13.9844C 116.44 13.1979 116.141 12.1068 116.141 10.7109ZM 118.398 10.875C 118.398 11.6667 118.536 12.2734 118.812 12.6953C 119.089 13.1172 119.49 13.3281 120.016 13.3281C 120.714 13.3281 121.206 13.0339 121.492 12.4453L 121.492 9.10938C 121.211 8.52083 120.724 8.22656 120.031 8.22656C 118.943 8.22656 118.398 9.10938 118.398 10.875ZM 130.57 14.1406C 130.013 14.8177 129.242 15.1562 128.258 15.1562C 127.352 15.1562 126.659 14.8958 126.18 14.375C 125.706 13.8542 125.464 13.0911 125.453 12.0859L 125.453 6.54688L 127.711 6.54688L 127.711 12.0078C 127.711 12.888 128.112 13.3281 128.914 13.3281C 129.68 13.3281 130.206 13.0625 130.492 12.5312L 130.492 6.54688L 132.758 6.54688L 132.758 15L 130.633 15L 130.57 14.1406ZM 139.359 15C 139.255 14.7969 139.18 14.5443 139.133 14.2422C 138.586 14.8516 137.875 15.1562 137 15.1562C 136.172 15.1562 135.484 14.9167 134.938 14.4375C 134.396 13.9583 134.125 13.3542 134.125 12.625C 134.125 11.7292 134.456 11.0417 135.117 10.5625C 135.784 10.0833 136.745 9.84115 138 9.83594L 139.039 9.83594L 139.039 9.35156C 139.039 8.96094 138.938 8.64844 138.734 8.41406C 138.536 8.17969 138.221 8.0625 137.789 8.0625C 137.409 8.0625 137.109 8.15365 136.891 8.33594C 136.677 8.51823 136.57 8.76823 136.57 9.08594L 134.312 9.08594C 134.312 8.59635 134.464 8.14323 134.766 7.72656C 135.068 7.3099 135.495 6.98438 136.047 6.75C 136.599 6.51042 137.219 6.39062 137.906 6.39062C 138.948 6.39062 139.773 6.65365 140.383 7.17969C 140.997 7.70052 141.305 8.4349 141.305 9.38281L 141.305 13.0469C 141.31 13.849 141.422 14.4557 141.641 14.8672L 141.641 15L 139.359 15ZM 137.492 13.4297C 137.826 13.4297 138.133 13.3568 138.414 13.2109C 138.695 13.0599 138.904 12.8594 139.039 12.6094L 139.039 11.1562L 138.195 11.1562C 137.065 11.1562 136.464 11.5469 136.391 12.3281L 136.383 12.4609C 136.383 12.7422 136.482 12.974 136.68 13.1562C 136.878 13.3385 137.148 13.4297 137.492 13.4297ZM 145.422 15L 143.156 15L 143.156 3L 145.422 3L 145.422 15ZM 149.672 15L 147.406 15L 147.406 3L 149.672 3L 149.672 15ZM 154.695 11.8047L 156.258 6.54688L 158.68 6.54688L 155.281 16.3125L 155.094 16.7578C 154.589 17.862 153.755 18.4141 152.594 18.4141C 152.266 18.4141 151.932 18.3646 151.594 18.2656L 151.594 16.5547L 151.938 16.5625C 152.365 16.5625 152.682 16.4974 152.891 16.3672C 153.104 16.237 153.271 16.0208 153.391 15.7188L 153.656 15.0234L 150.695 6.54688L 153.125 6.54688L 154.695 11.8047ZM 47.1016 29.7109C 47.1016 28.3932 47.3958 27.3438 47.9844 26.5625C 48.5781 25.7812 49.388 25.3906 50.4141 25.3906C 51.237 25.3906 51.9167 25.6979 52.4531 26.3125L 52.4531 22L 54.7188 22L 54.7188 34L 52.6797 34L 52.5703 33.1016C 52.0078 33.8047 51.2839 34.1562 50.3984 34.1562C 49.4036 34.1562 48.6042 33.7656 48 32.9844C 47.401 32.1979 47.1016 31.1068 47.1016 29.7109ZM 49.3594 29.875C 49.3594 30.6667 49.4974 31.2734 49.7734 31.6953C 50.0495 32.1172 50.4505 32.3281 50.9766 32.3281C 51.6745 32.3281 52.1667 32.0339 52.4531 31.4453L 52.4531 28.1094C 52.1719 27.5208 51.6849 27.2266 50.9922 27.2266C 49.9036 27.2266 49.3594 28.1094 49.3594 29.875ZM 60.3594 34.1562C 59.1198 34.1562 58.1094 33.776 57.3281 33.0156C 56.5521 32.2552 56.1641 31.2422 56.1641 29.9766L 56.1641 29.7578C 56.1641 28.9089 56.3281 28.151 56.6562 27.4844C 56.9844 26.8125 57.4479 26.2969 58.0469 25.9375C 58.651 25.5729 59.3385 25.3906 60.1094 25.3906C 61.2656 25.3906 62.1745 25.7552 62.8359 26.4844C 63.5026 27.2135 63.8359 28.2474 63.8359 29.5859L 63.8359 30.5078L 58.4531 30.5078C 58.526 31.0599 58.7448 31.5026 59.1094 31.8359C 59.4792 32.1693 59.9453 32.3359 60.5078 32.3359C 61.3776 32.3359 62.0573 32.0208 62.5469 31.3906L 63.6562 32.6328C 63.3177 33.112 62.8594 33.487 62.2812 33.7578C 61.7031 34.0234 61.0625 34.1562 60.3594 34.1562ZM 60.1016 27.2188C 59.6536 27.2188 59.2891 27.3698 59.0078 27.6719C 58.7318 27.974 58.5547 28.4062 58.4766 28.9688L 61.6172 28.9688L 61.6172 28.7891C 61.6068 28.2891 61.4714 27.9036 61.2109 27.6328C 60.9505 27.3568 60.5807 27.2188 60.1016 27.2188ZM 68.6406 32.3359C 69.0573 32.3359 69.3958 32.2214 69.6562 31.9922C 69.9167 31.763 70.0521 31.4583 70.0625 31.0781L 72.1797 31.0781C 72.1745 31.651 72.0182 32.1771 71.7109 32.6562C 71.4036 33.1302 70.9818 33.5 70.4453 33.7656C 69.9141 34.026 69.3255 34.1562 68.6797 34.1562C 67.4714 34.1562 66.5182 33.7734 65.8203 33.0078C 65.1224 32.237 64.7734 31.1745 64.7734 29.8203L 64.7734 29.6719C 64.7734 28.3698 65.1198 27.3307 65.8125 26.5547C 66.5052 25.7786 67.4557 25.3906 68.6641 25.3906C 69.7214 25.3906 70.5677 25.6927 71.2031 26.2969C 71.8438 26.8958 72.1693 27.6953 72.1797 28.6953L 70.0625 28.6953C 70.0521 28.2578 69.9167 27.9036 69.6562 27.6328C 69.3958 27.3568 69.0521 27.2188 68.625 27.2188C 68.099 27.2188 67.7005 27.4115 67.4297 27.7969C 67.1641 28.1771 67.0312 28.7969 67.0312 29.6562L 67.0312 29.8906C 67.0312 30.7604 67.1641 31.3854 67.4297 31.7656C 67.6953 32.1458 68.099 32.3359 68.6406 32.3359ZM 78.2188 27.6641C 77.9115 27.6224 77.6406 27.6016 77.4062 27.6016C 76.5521 27.6016 75.9922 27.8906 75.7266 28.4688L 75.7266 34L 73.4688 34L 73.4688 25.5469L 75.6016 25.5469L 75.6641 26.5547C 76.1172 25.7786 76.7448 25.3906 77.5469 25.3906C 77.7969 25.3906 78.0312 25.4245 78.25 25.4922L 78.2188 27.6641ZM 83.0469 34.1562C 81.8073 34.1562 80.7969 33.776 80.0156 33.0156C 79.2396 32.2552 78.8516 31.2422 78.8516 29.9766L 78.8516 29.7578C 78.8516 28.9089 79.0156 28.151 79.3438 27.4844C 79.6719 26.8125 80.1354 26.2969 80.7344 25.9375C 81.3385 25.5729 82.026 25.3906 82.7969 25.3906C 83.9531 25.3906 84.862 25.7552 85.5234 26.4844C 86.1901 27.2135 86.5234 28.2474 86.5234 29.5859L 86.5234 30.5078L 81.1406 30.5078C 81.2135 31.0599 81.4323 31.5026 81.7969 31.8359C 82.1667 32.1693 82.6328 32.3359 83.1953 32.3359C 84.0651 32.3359 84.7448 32.0208 85.2344 31.3906L 86.3438 32.6328C 86.0052 33.112 85.5469 33.487 84.9688 33.7578C 84.3906 34.0234 83.75 34.1562 83.0469 34.1562ZM 82.7891 27.2188C 82.3411 27.2188 81.9766 27.3698 81.6953 27.6719C 81.4193 27.974 81.2422 28.4062 81.1641 28.9688L 84.3047 28.9688L 84.3047 28.7891C 84.2943 28.2891 84.1589 27.9036 83.8984 27.6328C 83.638 27.3568 83.2682 27.2188 82.7891 27.2188ZM 92.7109 34C 92.6068 33.7969 92.5312 33.5443 92.4844 33.2422C 91.9375 33.8516 91.2266 34.1562 90.3516 34.1562C 89.5234 34.1562 88.8359 33.9167 88.2891 33.4375C 87.7474 32.9583 87.4766 32.3542 87.4766 31.625C 87.4766 30.7292 87.8073 30.0417 88.4688 29.5625C 89.1354 29.0833 90.0964 28.8411 91.3516 28.8359L 92.3906 28.8359L 92.3906 28.3516C 92.3906 27.9609 92.2891 27.6484 92.0859 27.4141C 91.888 27.1797 91.5729 27.0625 91.1406 27.0625C 90.7604 27.0625 90.4609 27.1536 90.2422 27.3359C 90.0286 27.5182 89.9219 27.7682 89.9219 28.0859L 87.6641 28.0859C 87.6641 27.5964 87.8151 27.1432 88.1172 26.7266C 88.4193 26.3099 88.8464 25.9844 89.3984 25.75C 89.9505 25.5104 90.5703 25.3906 91.2578 25.3906C 92.2995 25.3906 93.125 25.6536 93.7344 26.1797C 94.349 26.7005 94.6562 27.4349 94.6562 28.3828L 94.6562 32.0469C 94.6615 32.849 94.7734 33.4557 94.9922 33.8672L 94.9922 34L 92.7109 34ZM 90.8438 32.4297C 91.1771 32.4297 91.4844 32.3568 91.7656 32.2109C 92.0469 32.0599 92.2552 31.8594 92.3906 31.6094L 92.3906 30.1562L 91.5469 30.1562C 90.4167 30.1562 89.8151 30.5469 89.7422 31.3281L 89.7344 31.4609C 89.7344 31.7422 89.8333 31.974 90.0312 32.1562C 90.2292 32.3385 90.5 32.4297 90.8438 32.4297ZM 100.969 31.6641C 100.969 31.388 100.831 31.1719 100.555 31.0156C 100.284 30.8542 99.8464 30.7109 99.2422 30.5859C 97.2318 30.1641 96.2266 29.3099 96.2266 28.0234C 96.2266 27.2734 96.5365 26.6484 97.1562 26.1484C 97.7812 25.6432 98.5964 25.3906 99.6016 25.3906C 100.674 25.3906 101.531 25.6432 102.172 26.1484C 102.818 26.6536 103.141 27.3099 103.141 28.1172L 100.883 28.1172C 100.883 27.7943 100.779 27.5286 100.57 27.3203C 100.362 27.1068 100.036 27 99.5938 27C 99.2135 27 98.9193 27.0859 98.7109 27.2578C 98.5026 27.4297 98.3984 27.6484 98.3984 27.9141C 98.3984 28.1641 98.5156 28.3672 98.75 28.5234C 98.9896 28.6745 99.3906 28.8073 99.9531 28.9219C 100.516 29.0312 100.99 29.1562 101.375 29.2969C 102.568 29.7344 103.164 30.4922 103.164 31.5703C 103.164 32.3411 102.833 32.9661 102.172 33.4453C 101.51 33.9193 100.656 34.1562 99.6094 34.1562C 98.901 34.1562 98.2708 34.0312 97.7188 33.7812C 97.1719 33.526 96.7422 33.1797 96.4297 32.7422C 96.1172 32.2995 95.9609 31.8229 95.9609 31.3125L 98.1016 31.3125C 98.1224 31.7135 98.2708 32.0208 98.5469 32.2344C 98.8229 32.4479 99.1927 32.5547 99.6562 32.5547C 100.089 32.5547 100.414 32.474 100.633 32.3125C 100.857 32.1458 100.969 31.9297 100.969 31.6641ZM 108.516 34.1562C 107.276 34.1562 106.266 33.776 105.484 33.0156C 104.708 32.2552 104.32 31.2422 104.32 29.9766L 104.32 29.7578C 104.32 28.9089 104.484 28.151 104.812 27.4844C 105.141 26.8125 105.604 26.2969 106.203 25.9375C 106.807 25.5729 107.495 25.3906 108.266 25.3906C 109.422 25.3906 110.331 25.7552 110.992 26.4844C 111.659 27.2135 111.992 28.2474 111.992 29.5859L 111.992 30.5078L 106.609 30.5078C 106.682 31.0599 106.901 31.5026 107.266 31.8359C 107.635 32.1693 108.102 32.3359 108.664 32.3359C 109.534 32.3359 110.214 32.0208 110.703 31.3906L 111.812 32.6328C 111.474 33.112 111.016 33.487 110.438 33.7578C 109.859 34.0234 109.219 34.1562 108.516 34.1562ZM 108.258 27.2188C 107.81 27.2188 107.445 27.3698 107.164 27.6719C 106.888 27.974 106.711 28.4062 106.633 28.9688L 109.773 28.9688L 109.773 28.7891C 109.763 28.2891 109.628 27.9036 109.367 27.6328C 109.107 27.3568 108.737 27.2188 108.258 27.2188Z"/>
<path id="path12_fill" d="M 0 0L 598 0L 598 277L 0 277L 0 0Z"/>
<path id="path13_stroke_2x" d="M 0 0L 0 -1L -1 -1L -1 0L 0 0ZM 598 0L 599 0L 599 -1L 598 -1L 598 0ZM 598 277L 598 278L 599 278L 599 277L 598 277ZM 0 277L -1 277L -1 278L 0 278L 0 277ZM 0 1L 598 1L 598 -1L 0 -1L 0 1ZM 597 0L 597 277L 599 277L 599 0L 597 0ZM 598 276L 0 276L 0 278L 598 278L 598 276ZM 1 277L 1 0L -1 0L -1 277L 1 277Z"/>
</defs>
</svg>
