<svg width="1096" height="274" viewBox="0 0 1096 274" version="1.1" xmlns="http://www.w3.org/2000/svg" xmlns:xlink="http://www.w3.org/1999/xlink">
<title>Frame</title>
<desc>Created using Figma</desc>
<g id="Canvas" transform="matrix(2 0 0 2 376 1234)">
<clipPath id="clip-0" clip-rule="evenodd">
<path d="M -188 -617L 360 -617L 360 -480L -188 -480L -188 -617Z" fill="#FFFFFF"/>
</clipPath>
<g id="Frame" clip-path="url(#clip-0)">
<path d="M -188 -617L 360 -617L 360 -480L -188 -480L -188 -617Z" fill="#FFFFFF"/>
<g id="code">
<g id="Rectangle">
<use xlink:href="#path0_fill" transform="translate(-188 -556)" fill="#F1F4F8"/>
</g>
<g id="f500_selection.loc[:,&#34;rank&#34;]">
<use xlink:href="#path1_fill" transform="translate(-185.172 -555)" fill="#2E383C"/>
<use xlink:href="#path2_fill" transform="translate(-185.172 -555)" fill="#B82629"/>
</g>
</g>
<g id="Group">
<g id="Rectangle">
<g id="Vector">
<use xlink:href="#path3_fill" transform="matrix(2 0 0 2 314.408 -603)"/>
</g>
</g>
<g id="Rectangle">
<g id="Vector">
<use xlink:href="#path3_fill" transform="matrix(2 0 0 2 314.408 -580.864)"/>
</g>
</g>
<g id="Rectangle">
<g id="Vector">
<use xlink:href="#path3_fill" transform="matrix(2 0 0 2 314.408 -558.728)"/>
</g>
</g>
<g id="1">
<g id="Vector">
<use xlink:href="#path4_fill" transform="matrix(2 0 0 2 331.523 -595.742)" fill="#333333"/>
</g>
</g>
<g id="Walmart">
<g id="Vector">
<use xlink:href="#path5_fill" transform="matrix(2 0 0 2 259.634 -596.222)" fill="#333333"/>
</g>
</g>
<g id="State Grid">
<g id="Vector">
<use xlink:href="#path6_fill" transform="matrix(2 0 0 2 250.414 -573.79)" fill="#333333"/>
</g>
</g>
<g id="Sinopec Group">
<g id="Vector">
<use xlink:href="#path7_fill" transform="matrix(2 0 0 2 221.379 -551.941)" fill="#333333"/>
</g>
</g>
<g id="China Natural Petroleum">
<g id="Vector">
<use xlink:href="#path8_fill" transform="matrix(2 0 0 2 162 -529.674)" fill="#333333"/>
</g>
</g>
<g id="Toyota Motor">
<g id="Vector">
<use xlink:href="#path9_fill" transform="matrix(2 0 0 2 229.871 -506.716)" fill="#333333"/>
</g>
</g>
<g id="2">
<g id="Vector">
<use xlink:href="#path10_fill" transform="matrix(2 0 0 2 331.018 -573.328)" fill="#333333"/>
</g>
</g>
<g id="3">
<g id="Vector">
<use xlink:href="#path11_fill" transform="matrix(2 0 0 2 331.025 -551.853)" fill="#333333"/>
</g>
</g>
<g id="Rectangle">
<g id="Vector">
<use xlink:href="#path3_fill" transform="matrix(2 0 0 2 314.408 -536.491)"/>
</g>
</g>
<g id="Rectangle">
<g id="Vector">
<use xlink:href="#path12_fill" transform="matrix(2 0 0 2 314.408 -514.109)"/>
</g>
</g>
<g id="4">
<g id="Vector">
<use xlink:href="#path13_fill" transform="matrix(2 0 0 2 330.756 -528.865)" fill="#333333"/>
</g>
</g>
<g id="5">
<g id="Vector">
<use xlink:href="#path14_fill" transform="matrix(2 0 0 2 331.419 -507.135)" fill="#333333"/>
</g>
</g>
</g>
</g>
</g>
<defs>
<path id="path0_fill" d="M 0 0L 296 0L 296 18L 0 18L 0 0Z"/>
<path id="path1_fill" d="M 6.696 4.728C 6.48 4.64 6.268 4.576 6.06 4.536C 5.86 4.496 5.64 4.476 5.4 4.476C 4.944 4.476 4.612 4.588 4.404 4.812C 4.204 5.028 4.104 5.344 4.104 5.76L 4.104 6.108L 6.348 6.108L 6.348 7.2L 4.104 7.2L 4.104 12L 2.736 12L 2.736 7.2L 1.104 7.2L 1.104 6.168L 2.736 6.108L 2.736 5.784C 2.736 5.44 2.784 5.12 2.88 4.824C 2.976 4.528 3.124 4.276 3.324 4.068C 3.532 3.852 3.792 3.684 4.104 3.564C 4.424 3.444 4.8 3.384 5.232 3.384C 5.552 3.384 5.856 3.412 6.144 3.468C 6.44 3.524 6.72 3.604 6.984 3.708L 6.696 4.728ZM 8.44331 10.2C 8.69931 10.416 8.98331 10.608 9.29531 10.776C 9.61531 10.936 9.99531 11.016 10.4353 11.016C 10.9153 11.016 11.3153 10.888 11.6353 10.632C 11.9633 10.376 12.1273 10.016 12.1273 9.552C 12.1273 9.096 11.9753 8.744 11.6713 8.496C 11.3753 8.248 10.9833 8.124 10.4953 8.124C 10.2153 8.124 9.97531 8.16 9.77531 8.232C 9.57531 8.296 9.34331 8.404 9.07931 8.556L 8.41931 8.136L 8.65931 4.368L 13.1593 4.368L 13.1593 5.532L 9.85931 5.532L 9.69131 7.38C 9.89131 7.3 10.0833 7.24 10.2673 7.2C 10.4513 7.152 10.6593 7.128 10.8913 7.128C 11.2513 7.128 11.5913 7.176 11.9113 7.272C 12.2313 7.368 12.5073 7.516 12.7393 7.716C 12.9793 7.908 13.1673 8.156 13.3033 8.46C 13.4473 8.756 13.5193 9.108 13.5193 9.516C 13.5193 9.932 13.4393 10.304 13.2793 10.632C 13.1193 10.96 12.9033 11.236 12.6313 11.46C 12.3593 11.684 12.0473 11.856 11.6953 11.976C 11.3513 12.088 10.9873 12.144 10.6033 12.144C 9.93131 12.144 9.37131 12.04 8.92331 11.832C 8.48331 11.616 8.11131 11.368 7.80731 11.088L 8.44331 10.2ZM 17.9906 12.144C 17.1186 12.144 16.4266 11.8 15.9146 11.112C 15.4106 10.424 15.1586 9.436 15.1586 8.148C 15.1586 6.852 15.4106 5.876 15.9146 5.22C 16.4266 4.556 17.1186 4.224 17.9906 4.224C 18.8626 4.224 19.5506 4.556 20.0546 5.22C 20.5666 5.876 20.8226 6.852 20.8226 8.148C 20.8226 9.436 20.5666 10.424 20.0546 11.112C 19.5506 11.8 18.8626 12.144 17.9906 12.144ZM 17.9906 5.304C 17.7586 5.304 17.5466 5.356 17.3546 5.46C 17.1626 5.556 16.9946 5.716 16.8506 5.94C 16.7146 6.164 16.6066 6.46 16.5266 6.828C 16.4466 7.188 16.4066 7.628 16.4066 8.148C 16.4066 8.668 16.4466 9.116 16.5266 9.492C 16.6066 9.86 16.7146 10.16 16.8506 10.392C 16.9946 10.624 17.1626 10.796 17.3546 10.908C 17.5466 11.012 17.7586 11.064 17.9906 11.064C 18.2146 11.064 18.4226 11.012 18.6146 10.908C 18.8146 10.796 18.9826 10.624 19.1186 10.392C 19.2626 10.16 19.3746 9.86 19.4546 9.492C 19.5346 9.116 19.5746 8.668 19.5746 8.148C 19.5746 7.628 19.5346 7.188 19.4546 6.828C 19.3746 6.46 19.2626 6.164 19.1186 5.94C 18.9826 5.716 18.8146 5.556 18.6146 5.46C 18.4226 5.356 18.2146 5.304 17.9906 5.304ZM 17.9906 8.952C 17.7586 8.952 17.5626 8.876 17.4026 8.724C 17.2426 8.572 17.1626 8.364 17.1626 8.1C 17.1626 7.836 17.2426 7.628 17.4026 7.476C 17.5626 7.324 17.7586 7.248 17.9906 7.248C 18.2226 7.248 18.4186 7.324 18.5786 7.476C 18.7386 7.628 18.8186 7.836 18.8186 8.1C 18.8186 8.364 18.7386 8.572 18.5786 8.724C 18.4186 8.876 18.2226 8.952 17.9906 8.952ZM 25.1859 12.144C 24.3139 12.144 23.6219 11.8 23.1099 11.112C 22.6059 10.424 22.3539 9.436 22.3539 8.148C 22.3539 6.852 22.6059 5.876 23.1099 5.22C 23.6219 4.556 24.3139 4.224 25.1859 4.224C 26.0579 4.224 26.7459 4.556 27.2499 5.22C 27.7619 5.876 28.0179 6.852 28.0179 8.148C 28.0179 9.436 27.7619 10.424 27.2499 11.112C 26.7459 11.8 26.0579 12.144 25.1859 12.144ZM 25.1859 5.304C 24.9539 5.304 24.7419 5.356 24.5499 5.46C 24.3579 5.556 24.1899 5.716 24.0459 5.94C 23.9099 6.164 23.8019 6.46 23.7219 6.828C 23.6419 7.188 23.6019 7.628 23.6019 8.148C 23.6019 8.668 23.6419 9.116 23.7219 9.492C 23.8019 9.86 23.9099 10.16 24.0459 10.392C 24.1899 10.624 24.3579 10.796 24.5499 10.908C 24.7419 11.012 24.9539 11.064 25.1859 11.064C 25.4099 11.064 25.6179 11.012 25.8099 10.908C 26.0099 10.796 26.1779 10.624 26.3139 10.392C 26.4579 10.16 26.5699 9.86 26.6499 9.492C 26.7299 9.116 26.7699 8.668 26.7699 8.148C 26.7699 7.628 26.7299 7.188 26.6499 6.828C 26.5699 6.46 26.4579 6.164 26.3139 5.94C 26.1779 5.716 26.0099 5.556 25.8099 5.46C 25.6179 5.356 25.4099 5.304 25.1859 5.304ZM 25.1859 8.952C 24.9539 8.952 24.7579 8.876 24.5979 8.724C 24.4379 8.572 24.3579 8.364 24.3579 8.1C 24.3579 7.836 24.4379 7.628 24.5979 7.476C 24.7579 7.324 24.9539 7.248 25.1859 7.248C 25.4179 7.248 25.6139 7.324 25.7739 7.476C 25.9339 7.628 26.0139 7.836 26.0139 8.1C 26.0139 8.364 25.9339 8.572 25.7739 8.724C 25.6139 8.876 25.4179 8.952 25.1859 8.952ZM 35.2613 12.744L 35.2613 13.824L 29.5012 13.824L 29.5012 12.744L 35.2613 12.744ZM 37.3686 10.356C 37.7046 10.588 38.0526 10.772 38.4126 10.908C 38.7806 11.036 39.1926 11.1 39.6486 11.1C 40.1126 11.1 40.4526 11.036 40.6686 10.908C 40.8846 10.772 40.9926 10.6 40.9926 10.392C 40.9926 10.184 40.8526 10.012 40.5726 9.876C 40.2926 9.732 39.8526 9.58 39.2526 9.42C 38.9726 9.348 38.7006 9.26 38.4366 9.156C 38.1726 9.052 37.9406 8.932 37.7406 8.796C 37.5406 8.66 37.3806 8.504 37.2606 8.328C 37.1406 8.152 37.0806 7.952 37.0806 7.728C 37.0806 7.208 37.3046 6.784 37.7526 6.456C 38.2006 6.128 38.8446 5.964 39.6846 5.964C 40.1646 5.964 40.6166 6.044 41.0406 6.204C 41.4646 6.364 41.8286 6.544 42.1326 6.744L 41.4966 7.596C 41.2326 7.42 40.9486 7.28 40.6446 7.176C 40.3486 7.064 40.0326 7.008 39.6966 7.008C 39.2406 7.008 38.9206 7.072 38.7366 7.2C 38.5526 7.32 38.4606 7.472 38.4606 7.656C 38.4606 7.76 38.5006 7.856 38.5806 7.944C 38.6686 8.024 38.7846 8.1 38.9286 8.172C 39.0806 8.236 39.2566 8.3 39.4566 8.364C 39.6566 8.428 39.8766 8.488 40.1166 8.544C 40.4606 8.632 40.7686 8.732 41.0406 8.844C 41.3206 8.948 41.5566 9.068 41.7486 9.204C 41.9486 9.34 42.1006 9.5 42.2046 9.684C 42.3166 9.868 42.3726 10.08 42.3726 10.32C 42.3726 10.576 42.3126 10.816 42.1926 11.04C 42.0726 11.256 41.8966 11.448 41.6646 11.616C 41.4326 11.776 41.1446 11.904 40.8006 12C 40.4566 12.096 40.0606 12.144 39.6126 12.144C 39.0606 12.144 38.5326 12.056 38.0286 11.88C 37.5246 11.704 37.0886 11.488 36.7206 11.232L 37.3686 10.356ZM 43.9159 9.06C 43.9159 8.58 43.9999 8.148 44.1679 7.764C 44.3439 7.38 44.5719 7.056 44.8519 6.792C 45.1319 6.52 45.4519 6.316 45.8119 6.18C 46.1799 6.036 46.5559 5.964 46.9399 5.964C 47.3799 5.964 47.7679 6.036 48.1039 6.18C 48.4479 6.316 48.7359 6.508 48.9679 6.756C 49.1999 6.996 49.3759 7.288 49.4959 7.632C 49.6159 7.976 49.6759 8.352 49.6759 8.76C 49.6759 8.896 49.6679 9.024 49.6519 9.144C 49.6439 9.264 49.6319 9.36 49.6159 9.432L 45.3319 9.432C 45.3799 9.96 45.5879 10.368 45.9559 10.656C 46.3239 10.936 46.7759 11.076 47.3119 11.076C 47.6159 11.076 47.8999 11.036 48.1639 10.956C 48.4279 10.868 48.6959 10.748 48.9679 10.596L 49.4359 11.46C 49.1159 11.66 48.7599 11.824 48.3679 11.952C 47.9759 12.08 47.5639 12.144 47.1319 12.144C 46.6839 12.144 46.2639 12.076 45.8719 11.94C 45.4799 11.796 45.1399 11.592 44.8519 11.328C 44.5639 11.064 44.3359 10.744 44.1679 10.368C 43.9999 9.984 43.9159 9.548 43.9159 9.06ZM 48.4039 8.496C 48.4039 8.04 48.2839 7.684 48.0439 7.428C 47.8039 7.164 47.4479 7.032 46.9759 7.032C 46.5759 7.032 46.2199 7.156 45.9079 7.404C 45.5959 7.652 45.3999 8.016 45.3199 8.496L 48.4039 8.496ZM 51.2192 3.528L 54.4592 3.528L 54.4592 9.924C 54.4592 10.324 54.5592 10.608 54.7592 10.776C 54.9592 10.936 55.2112 11.016 55.5152 11.016C 55.8032 11.016 56.1392 10.94 56.5232 10.788L 56.8472 11.808C 56.5672 11.904 56.3032 11.984 56.0552 12.048C 55.8152 12.112 55.5232 12.144 55.1792 12.144C 54.4832 12.144 53.9592 11.944 53.6072 11.544C 53.2552 11.144 53.0792 10.58 53.0792 9.852L 53.0792 4.62L 51.2192 4.62L 51.2192 3.528ZM 58.3065 9.06C 58.3065 8.58 58.3905 8.148 58.5585 7.764C 58.7345 7.38 58.9625 7.056 59.2425 6.792C 59.5225 6.52 59.8425 6.316 60.2025 6.18C 60.5705 6.036 60.9465 5.964 61.3305 5.964C 61.7705 5.964 62.1585 6.036 62.4945 6.18C 62.8385 6.316 63.1265 6.508 63.3585 6.756C 63.5905 6.996 63.7665 7.288 63.8865 7.632C 64.0065 7.976 64.0665 8.352 64.0665 8.76C 64.0665 8.896 64.0585 9.024 64.0425 9.144C 64.0345 9.264 64.0225 9.36 64.0065 9.432L 59.7225 9.432C 59.7705 9.96 59.9785 10.368 60.3465 10.656C 60.7145 10.936 61.1665 11.076 61.7025 11.076C 62.0065 11.076 62.2905 11.036 62.5545 10.956C 62.8185 10.868 63.0865 10.748 63.3585 10.596L 63.8265 11.46C 63.5065 11.66 63.1505 11.824 62.7585 11.952C 62.3665 12.08 61.9545 12.144 61.5225 12.144C 61.0745 12.144 60.6545 12.076 60.2625 11.94C 59.8705 11.796 59.5305 11.592 59.2425 11.328C 58.9545 11.064 58.7265 10.744 58.5585 10.368C 58.3905 9.984 58.3065 9.548 58.3065 9.06ZM 62.7945 8.496C 62.7945 8.04 62.6745 7.684 62.4345 7.428C 62.1945 7.164 61.8385 7.032 61.3665 7.032C 60.9665 7.032 60.6105 7.156 60.2985 7.404C 59.9865 7.652 59.7905 8.016 59.7105 8.496L 62.7945 8.496ZM 65.6338 9.06C 65.6338 8.572 65.7218 8.136 65.8978 7.752C 66.0818 7.368 66.3258 7.044 66.6298 6.78C 66.9338 6.516 67.2898 6.316 67.6978 6.18C 68.1058 6.036 68.5338 5.964 68.9818 5.964C 69.4618 5.964 69.8818 6.044 70.2418 6.204C 70.6098 6.364 70.9178 6.56 71.1658 6.792L 70.5058 7.656C 70.2738 7.472 70.0378 7.332 69.7978 7.236C 69.5658 7.14 69.3178 7.092 69.0538 7.092C 68.4618 7.092 67.9818 7.272 67.6138 7.632C 67.2458 7.984 67.0618 8.46 67.0618 9.06C 67.0618 9.356 67.1098 9.624 67.2058 9.864C 67.3018 10.104 67.4338 10.312 67.6018 10.488C 67.7778 10.656 67.9858 10.788 68.2258 10.884C 68.4658 10.972 68.7298 11.016 69.0178 11.016C 69.3538 11.016 69.6578 10.952 69.9298 10.824C 70.2098 10.696 70.4658 10.544 70.6978 10.368L 71.2738 11.256C 70.9378 11.552 70.5618 11.776 70.1458 11.928C 69.7298 12.072 69.3098 12.144 68.8858 12.144C 68.4218 12.144 67.9898 12.076 67.5898 11.94C 67.1978 11.804 66.8538 11.604 66.5578 11.34C 66.2698 11.076 66.0418 10.752 65.8738 10.368C 65.7138 9.984 65.6338 9.548 65.6338 9.06ZM 74.2331 7.2L 72.6611 7.2L 72.6611 6.168L 74.2931 6.108L 74.4731 4.5L 75.6131 4.5L 75.6131 6.108L 78.3011 6.108L 78.3011 7.2L 75.6131 7.2L 75.6131 9.624C 75.6131 10.112 75.7131 10.472 75.9131 10.704C 76.1131 10.928 76.4651 11.04 76.9691 11.04C 77.2251 11.04 77.4571 11.02 77.6651 10.98C 77.8731 10.932 78.0731 10.872 78.2651 10.8L 78.5291 11.808C 78.2651 11.896 77.9731 11.972 77.6531 12.036C 77.3331 12.108 76.9931 12.144 76.6331 12.144C 76.1851 12.144 75.8091 12.084 75.5051 11.964C 75.2011 11.844 74.9531 11.676 74.7611 11.46C 74.5771 11.236 74.4411 10.968 74.3531 10.656C 74.2731 10.344 74.2331 10 74.2331 9.624L 74.2331 7.2ZM 80.1564 6.108L 84.0924 6.108L 84.0924 12L 82.7124 12L 82.7124 7.2L 80.1564 7.2L 80.1564 6.108ZM 83.3004 5.076C 83.0204 5.076 82.7844 4.992 82.5924 4.824C 82.4084 4.656 82.3164 4.432 82.3164 4.152C 82.3164 3.872 82.4084 3.648 82.5924 3.48C 82.7844 3.304 83.0204 3.216 83.3004 3.216C 83.5884 3.216 83.8244 3.304 84.0084 3.48C 84.1924 3.648 84.2844 3.872 84.2844 4.152C 84.2844 4.432 84.1924 4.656 84.0084 4.824C 83.8244 4.992 83.5884 5.076 83.3004 5.076ZM 86.9797 9.06C 86.9797 8.572 87.0597 8.136 87.2197 7.752C 87.3877 7.368 87.6077 7.044 87.8798 6.78C 88.1518 6.516 88.4678 6.316 88.8278 6.18C 89.1878 6.036 89.5598 5.964 89.9438 5.964C 90.3277 5.964 90.6997 6.036 91.0598 6.18C 91.4197 6.316 91.7357 6.516 92.0078 6.78C 92.2797 7.044 92.4957 7.368 92.6558 7.752C 92.8238 8.136 92.9077 8.572 92.9077 9.06C 92.9077 9.548 92.8238 9.984 92.6558 10.368C 92.4957 10.752 92.2797 11.076 92.0078 11.34C 91.7357 11.604 91.4197 11.804 91.0598 11.94C 90.6997 12.076 90.3277 12.144 89.9438 12.144C 89.5598 12.144 89.1878 12.076 88.8278 11.94C 88.4678 11.804 88.1518 11.604 87.8798 11.34C 87.6077 11.076 87.3877 10.752 87.2197 10.368C 87.0597 9.984 86.9797 9.548 86.9797 9.06ZM 88.4078 9.06C 88.4078 9.652 88.5438 10.128 88.8158 10.488C 89.0877 10.84 89.4638 11.016 89.9438 11.016C 90.4238 11.016 90.7998 10.84 91.0717 10.488C 91.3438 10.128 91.4798 9.652 91.4798 9.06C 91.4798 8.46 91.3438 7.984 91.0717 7.632C 90.7998 7.272 90.4238 7.092 89.9438 7.092C 89.4638 7.092 89.0877 7.272 88.8158 7.632C 88.5438 7.984 88.4078 8.46 88.4078 9.06ZM 94.5231 6.108L 95.6631 6.108L 95.7711 6.996L 95.8191 6.996C 96.0991 6.716 96.4071 6.476 96.7431 6.276C 97.0871 6.068 97.4871 5.964 97.9431 5.964C 98.6231 5.964 99.1231 6.172 99.4431 6.588C 99.7631 6.996 99.9231 7.584 99.9231 8.352L 99.9231 12L 98.5311 12L 98.5311 8.532C 98.5311 8.052 98.4471 7.704 98.2791 7.488C 98.1191 7.264 97.8351 7.152 97.4271 7.152C 97.1391 7.152 96.8831 7.22 96.6591 7.356C 96.4351 7.492 96.1871 7.7 95.9151 7.98L 95.9151 12L 94.5231 12L 94.5231 6.108ZM 103.146 10.932C 103.146 10.58 103.258 10.292 103.482 10.068C 103.706 9.836 103.99 9.72 104.334 9.72C 104.678 9.72 104.962 9.836 105.186 10.068C 105.41 10.292 105.522 10.58 105.522 10.932C 105.522 11.284 105.41 11.576 105.186 11.808C 104.962 12.032 104.678 12.144 104.334 12.144C 103.99 12.144 103.706 12.032 103.482 11.808C 103.258 11.576 103.146 11.284 103.146 10.932ZM 108.782 3.528L 112.022 3.528L 112.022 9.924C 112.022 10.324 112.122 10.608 112.322 10.776C 112.522 10.936 112.774 11.016 113.078 11.016C 113.366 11.016 113.702 10.94 114.086 10.788L 114.41 11.808C 114.13 11.904 113.866 11.984 113.618 12.048C 113.378 12.112 113.086 12.144 112.742 12.144C 112.046 12.144 111.522 11.944 111.17 11.544C 110.818 11.144 110.642 10.58 110.642 9.852L 110.642 4.62L 108.782 4.62L 108.782 3.528ZM 115.761 9.06C 115.761 8.572 115.841 8.136 116.001 7.752C 116.169 7.368 116.389 7.044 116.661 6.78C 116.933 6.516 117.249 6.316 117.609 6.18C 117.969 6.036 118.341 5.964 118.725 5.964C 119.109 5.964 119.481 6.036 119.841 6.18C 120.201 6.316 120.517 6.516 120.789 6.78C 121.061 7.044 121.277 7.368 121.437 7.752C 121.605 8.136 121.689 8.572 121.689 9.06C 121.689 9.548 121.605 9.984 121.437 10.368C 121.277 10.752 121.061 11.076 120.789 11.34C 120.517 11.604 120.201 11.804 119.841 11.94C 119.481 12.076 119.109 12.144 118.725 12.144C 118.341 12.144 117.969 12.076 117.609 11.94C 117.249 11.804 116.933 11.604 116.661 11.34C 116.389 11.076 116.169 10.752 116.001 10.368C 115.841 9.984 115.761 9.548 115.761 9.06ZM 117.189 9.06C 117.189 9.652 117.325 10.128 117.597 10.488C 117.869 10.84 118.245 11.016 118.725 11.016C 119.205 11.016 119.581 10.84 119.853 10.488C 120.125 10.128 120.261 9.652 120.261 9.06C 120.261 8.46 120.125 7.984 119.853 7.632C 119.581 7.272 119.205 7.092 118.725 7.092C 118.245 7.092 117.869 7.272 117.597 7.632C 117.325 7.984 117.189 8.46 117.189 9.06ZM 123.196 9.06C 123.196 8.572 123.284 8.136 123.46 7.752C 123.644 7.368 123.888 7.044 124.192 6.78C 124.496 6.516 124.852 6.316 125.26 6.18C 125.668 6.036 126.096 5.964 126.544 5.964C 127.024 5.964 127.444 6.044 127.804 6.204C 128.172 6.364 128.48 6.56 128.728 6.792L 128.068 7.656C 127.836 7.472 127.6 7.332 127.36 7.236C 127.128 7.14 126.88 7.092 126.616 7.092C 126.024 7.092 125.544 7.272 125.176 7.632C 124.808 7.984 124.624 8.46 124.624 9.06C 124.624 9.356 124.672 9.624 124.768 9.864C 124.864 10.104 124.996 10.312 125.164 10.488C 125.34 10.656 125.548 10.788 125.788 10.884C 126.028 10.972 126.292 11.016 126.58 11.016C 126.916 11.016 127.22 10.952 127.492 10.824C 127.772 10.696 128.028 10.544 128.26 10.368L 128.836 11.256C 128.5 11.552 128.124 11.776 127.708 11.928C 127.292 12.072 126.872 12.144 126.448 12.144C 125.984 12.144 125.552 12.076 125.152 11.94C 124.76 11.804 124.416 11.604 124.12 11.34C 123.832 11.076 123.604 10.752 123.436 10.368C 123.276 9.984 123.196 9.548 123.196 9.06ZM 132.072 3.504L 135.504 3.504L 135.504 4.26L 133.14 4.26L 133.14 13.068L 135.504 13.068L 135.504 13.824L 132.072 13.824L 132.072 3.504ZM 139.123 6.852C 139.123 6.5 139.235 6.212 139.459 5.988C 139.683 5.756 139.967 5.64 140.311 5.64C 140.655 5.64 140.939 5.756 141.163 5.988C 141.387 6.212 141.499 6.5 141.499 6.852C 141.499 7.204 141.387 7.496 141.163 7.728C 140.939 7.952 140.655 8.064 140.311 8.064C 139.967 8.064 139.683 7.952 139.459 7.728C 139.235 7.496 139.123 7.204 139.123 6.852ZM 139.123 10.932C 139.123 10.58 139.235 10.292 139.459 10.068C 139.683 9.836 139.967 9.72 140.311 9.72C 140.655 9.72 140.939 9.836 141.163 10.068C 141.387 10.292 141.499 10.58 141.499 10.932C 141.499 11.284 141.387 11.576 141.163 11.808C 140.939 12.032 140.655 12.144 140.311 12.144C 139.967 12.144 139.683 12.032 139.459 11.808C 139.235 11.576 139.123 11.284 139.123 10.932ZM 146.174 13.752C 147.19 13.344 147.702 12.728 147.71 11.904C 147.67 11.912 147.614 11.916 147.542 11.916C 147.238 11.916 146.974 11.828 146.75 11.652C 146.526 11.468 146.414 11.2 146.414 10.848C 146.414 10.512 146.526 10.252 146.75 10.068C 146.982 9.876 147.254 9.78 147.566 9.78C 147.998 9.78 148.322 9.94 148.538 10.26C 148.754 10.58 148.862 11.02 148.862 11.58C 148.862 12.316 148.662 12.936 148.262 13.44C 147.862 13.952 147.286 14.332 146.534 14.58L 146.174 13.752ZM 197.849 13.068L 197.849 4.26L 195.497 4.26L 195.497 3.504L 198.929 3.504L 198.929 13.824L 195.497 13.824L 195.497 13.068L 197.849 13.068Z"/>
<path id="path2_fill" d="M 152.422 5.304L 152.386 3.768L 154.066 3.768L 154.03 5.304L 153.67 8.076L 152.782 8.076L 152.422 5.304ZM 155.386 5.304L 155.35 3.768L 157.03 3.768L 156.994 5.304L 156.634 8.076L 155.746 8.076L 155.386 5.304ZM 159.857 6.108L 160.997 6.108L 161.117 7.44L 161.153 7.44C 161.457 6.96 161.821 6.596 162.245 6.348C 162.677 6.092 163.149 5.964 163.661 5.964C 163.901 5.964 164.105 5.984 164.273 6.024C 164.449 6.056 164.625 6.116 164.801 6.204L 164.513 7.368C 164.321 7.304 164.149 7.26 163.997 7.236C 163.853 7.204 163.669 7.188 163.445 7.188C 163.037 7.188 162.645 7.304 162.269 7.536C 161.893 7.768 161.553 8.172 161.249 8.748L 161.249 12L 159.857 12L 159.857 6.108ZM 166.344 10.416C 166.344 10.088 166.42 9.8 166.572 9.552C 166.724 9.296 166.964 9.08 167.292 8.904C 167.62 8.728 168.04 8.584 168.552 8.472C 169.064 8.36 169.684 8.28 170.412 8.232C 170.388 7.896 170.268 7.62 170.052 7.404C 169.836 7.188 169.488 7.08 169.008 7.08C 168.672 7.08 168.34 7.144 168.012 7.272C 167.692 7.392 167.38 7.536 167.076 7.704L 166.572 6.78C 166.932 6.572 167.344 6.384 167.808 6.216C 168.272 6.048 168.756 5.964 169.26 5.964C 170.084 5.964 170.712 6.184 171.144 6.624C 171.576 7.056 171.792 7.684 171.792 8.508L 171.792 12L 170.664 12L 170.556 11.268L 170.52 11.268C 170.208 11.508 169.86 11.716 169.476 11.892C 169.1 12.06 168.712 12.144 168.312 12.144C 168.024 12.144 167.76 12.1 167.52 12.012C 167.28 11.932 167.072 11.816 166.896 11.664C 166.72 11.512 166.584 11.332 166.488 11.124C 166.392 10.908 166.344 10.672 166.344 10.416ZM 167.676 10.308C 167.676 10.572 167.776 10.764 167.976 10.884C 168.184 11.004 168.436 11.064 168.732 11.064C 169.028 11.064 169.312 11 169.584 10.872C 169.864 10.736 170.14 10.56 170.412 10.344L 170.412 9.096C 169.884 9.136 169.444 9.192 169.092 9.264C 168.74 9.328 168.46 9.412 168.252 9.516C 168.044 9.62 167.896 9.74 167.808 9.876C 167.72 10.004 167.676 10.148 167.676 10.308ZM 173.672 6.108L 174.812 6.108L 174.92 6.996L 174.967 6.996C 175.247 6.716 175.555 6.476 175.891 6.276C 176.235 6.068 176.636 5.964 177.092 5.964C 177.771 5.964 178.271 6.172 178.592 6.588C 178.912 6.996 179.072 7.584 179.072 8.352L 179.072 12L 177.68 12L 177.68 8.532C 177.68 8.052 177.596 7.704 177.428 7.488C 177.268 7.264 176.984 7.152 176.576 7.152C 176.287 7.152 176.031 7.22 175.807 7.356C 175.583 7.492 175.335 7.7 175.063 7.98L 175.063 12L 173.672 12L 173.672 6.108ZM 180.963 3.528L 182.355 3.528L 182.355 8.832L 182.403 8.832L 185.055 6.108L 186.591 6.108L 184.311 8.484L 186.843 12L 185.331 12L 183.483 9.336L 182.355 10.464L 182.355 12L 180.963 12L 180.963 3.528ZM 188.398 5.304L 188.362 3.768L 190.042 3.768L 190.006 5.304L 189.646 8.076L 188.758 8.076L 188.398 5.304ZM 191.362 5.304L 191.326 3.768L 193.006 3.768L 192.97 5.304L 192.61 8.076L 191.722 8.076L 191.362 5.304Z"/>
<path id="path3_fill" d="M 0.186526 0.186933L 0.186526 0L 0 0L 0 0.186933L 0.186526 0.186933ZM 19.5852 0.186933L 19.7717 0.186933L 19.7717 0L 19.5852 0L 19.5852 0.186933ZM 19.5852 11.4468L 19.5852 11.6338L 19.7717 11.6338L 19.7717 11.4468L 19.5852 11.4468ZM 0.186526 11.4468L 0 11.4468L 0 11.6338L 0.186526 11.6338L 0.186526 11.4468ZM 0.186526 0.373867L 19.5852 0.373867L 19.5852 0L 0.186526 0L 0.186526 0.373867ZM 19.3987 0.186933L 19.3987 11.4468L 19.7717 11.4468L 19.7717 0.186933L 19.3987 0.186933ZM 19.5852 11.2599L 0.186526 11.2599L 0.186526 11.6338L 19.5852 11.6338L 19.5852 11.2599ZM 0.373051 11.4468L 0.373051 0.186933L 0 0.186933L 0 11.4468L 0.373051 11.4468Z"/>
<path id="path4_fill" d="M 1.83284 4.80733L 1.22301 4.80733L 1.22301 0.755768L -3.09662e-07 1.20594L -3.09662e-07 0.6539L 1.73775 4.93461e-08L 1.83284 4.93461e-08L 1.83284 4.80733Z"/>
<path id="path5_fill" d="M 4.0297 3.66711L 4.67209 0.262873L 5.65247 0.262873L 4.59338 5.0472L 3.6033 5.0472L 2.82623 1.8467L 2.04917 5.0472L 1.05909 5.0472L 2.09477e-06 0.262873L 0.980378 0.262873L 1.62613 3.66053L 2.41327 0.262873L 3.24592 0.262873L 4.0297 3.66711ZM 8.0691 5.0472C 8.02545 4.96177 7.99375 4.85552 7.97397 4.72848C 7.74455 4.98476 7.4461 5.11292 7.07865 5.11292C 6.73134 5.11292 6.4426 5.01213 6.21317 4.81062C 5.98598 4.60906 5.8722 4.35495 5.8722 4.04826C 5.8722 3.67148 6.01098 3.38233 6.28853 3.18078C 6.56832 2.97927 6.97158 2.87739 7.49871 2.87518L 7.93443 2.87518L 7.93443 2.67146C 7.93443 2.50719 7.8919 2.37573 7.80685 2.27715C 7.72366 2.17858 7.59159 2.12929 7.40992 2.12929C 7.25025 2.12929 7.12491 2.16762 7.03276 2.24429C 6.94323 2.32097 6.89846 2.42612 6.89846 2.55975L 5.95092 2.55975C 5.95092 2.35383 6.01433 2.16324 6.14117 1.98799C 6.26801 1.81274 6.44708 1.67583 6.67874 1.57725C 6.91041 1.47648 7.17079 1.4261 7.45916 1.4261C 7.89638 1.4261 8.24294 1.53672 8.49848 1.75798C 8.75663 1.97704 8.88534 2.28592 8.88534 2.68462L 8.88534 4.2257C 8.88757 4.56308 8.93458 4.81828 9.02635 4.99134L 9.02635 5.0472L 8.0691 5.0472ZM 7.28532 4.38673C 7.42521 4.38673 7.55429 4.35607 7.67217 4.29472C 7.79043 4.2312 7.87773 4.14685 7.93443 4.04168L 7.93443 3.43053L 7.5804 3.43053C 7.10625 3.43053 6.8537 3.5948 6.82311 3.92339L 6.81975 3.97929C 6.81975 4.09758 6.86116 4.19504 6.94435 4.27172C 7.02754 4.3484 7.14095 4.38673 7.28532 4.38673ZM 10.6133 5.0472L 9.66241 5.0472L 9.66241 0L 10.6133 0L 10.6133 5.0472ZM 12.2857 1.49181L 12.3152 1.88941C 12.5662 1.58054 12.9065 1.4261 13.3347 1.4261C 13.7917 1.4261 14.1051 1.60682 14.2756 1.96828C 14.5248 1.60682 14.8803 1.4261 15.3414 1.4261C 15.726 1.4261 16.0125 1.53891 16.2005 1.76455C 16.3885 1.98799 16.4825 2.32535 16.4825 2.77663L 16.4825 5.0472L 15.5316 5.0472L 15.5316 2.77988C 15.5316 2.57837 15.4921 2.43159 15.4134 2.33959C 15.3347 2.24539 15.1959 2.19829 14.997 2.19829C 14.7128 2.19829 14.5162 2.33411 14.4069 2.60574L 14.4102 5.0472L 13.4627 5.0472L 13.4627 2.78317C 13.4627 2.57729 13.422 2.42831 13.3414 2.3363C 13.2605 2.24429 13.1228 2.19829 12.9281 2.19829C 12.6591 2.19829 12.4648 2.31001 12.3446 2.53347L 12.3446 5.0472L 11.3971 5.0472L 11.3971 1.49181L 12.2857 1.49181ZM 19.2692 5.0472C 19.2256 4.96177 19.1939 4.85552 19.1741 4.72848C 18.9447 4.98476 18.6462 5.11292 18.2791 5.11292C 17.9315 5.11292 17.6431 5.01213 17.4137 4.81062C 17.1861 4.60906 17.0727 4.35495 17.0727 4.04826C 17.0727 3.67148 17.2115 3.38233 17.489 3.18078C 17.7688 2.97927 18.1721 2.87739 18.6988 2.87518L 19.1349 2.87518L 19.1349 2.67146C 19.1349 2.50719 19.0924 2.37573 19.007 2.27715C 18.9238 2.17858 18.7917 2.12929 18.6104 2.12929C 18.4507 2.12929 18.325 2.16762 18.2333 2.24429C 18.1437 2.32097 18.099 2.42612 18.099 2.55975L 17.151 2.55975C 17.151 2.35383 17.2145 2.16324 17.3413 1.98799C 17.4681 1.81274 17.6476 1.67583 17.8792 1.57725C 18.1109 1.47648 18.3709 1.4261 18.6593 1.4261C 19.0965 1.4261 19.4431 1.53672 19.699 1.75798C 19.9568 1.97704 20.0858 2.28592 20.0858 2.68462L 20.0858 4.2257C 20.0881 4.56308 20.1351 4.81828 20.2268 4.99134L 20.2268 5.0472L 19.2692 5.0472ZM 18.4858 4.38673C 18.6257 4.38673 18.7544 4.35607 18.8727 4.29472C 18.9906 4.2312 19.0782 4.14685 19.1349 4.04168L 19.1349 3.43053L 18.7809 3.43053C 18.3064 3.43053 18.0538 3.5948 18.0232 3.92339L 18.0202 3.97929C 18.0202 4.09758 18.0617 4.19504 18.1448 4.27172C 18.2277 4.3484 18.3414 4.38673 18.4858 4.38673ZM 22.8072 2.3823C 22.6782 2.36478 22.5644 2.35602 22.4663 2.35602C 22.1078 2.35602 21.8727 2.47761 21.7612 2.72074L 21.7612 5.0472L 20.8137 5.0472L 20.8137 1.49181L 21.7086 1.49181L 21.7351 1.9157C 21.925 1.5893 22.1883 1.4261 22.5252 1.4261C 22.63 1.4261 22.7285 1.44034 22.8203 1.46881L 22.8072 2.3823ZM 24.5647 0.617755L 24.5647 1.49181L 25.1713 1.49181L 25.1713 2.18844L 24.5647 2.18844L 24.5647 3.96284C 24.5647 4.09429 24.5897 4.18846 24.64 4.24544C 24.69 4.30238 24.7863 4.33087 24.9284 4.33087C 25.0332 4.33087 25.1261 4.32321 25.2071 4.30788L 25.2071 5.0275C 25.0213 5.08444 24.8299 5.11292 24.6333 5.11292C 23.9689 5.11292 23.6302 4.77667 23.6171 4.10412L 23.6171 2.18844L 23.099 2.18844L 23.099 1.49181L 23.6171 1.49181L 23.6171 0.617755L 24.5647 0.617755Z"/>
<path id="path6_fill" d="M 2.67552 3.79198C 2.67552 3.60576 2.61024 3.46339 2.47892 3.3648C 2.34761 3.26404 2.11184 3.15887 1.77087 3.04933C 1.4299 2.93762 1.15982 2.82811 0.96098 2.72074C 0.418937 2.42721 0.147728 2.0318 0.147728 1.53453C 0.147728 1.27604 0.219728 1.04602 0.364099 0.844486C 0.510708 0.640759 0.719244 0.481936 0.990452 0.368027C 1.26353 0.254113 1.5698 0.197155 1.90853 0.197155C 2.2495 0.197155 2.55316 0.25959 2.81989 0.384454C 3.08662 0.507131 3.2933 0.681286 3.43954 0.906918C 3.58838 1.13255 3.66262 1.38885 3.66262 1.67583L 2.67888 1.67583C 2.67888 1.45676 2.61024 1.28699 2.47221 1.16651C 2.33456 1.04383 2.14132 0.982495 1.89212 0.982495C 1.6515 0.982495 1.4646 1.03398 1.33142 1.13694C 1.19787 1.2377 1.13147 1.37133 1.13147 1.53782C 1.13147 1.69335 1.20906 1.82369 1.36425 1.92884C 1.52168 2.03399 1.75222 2.13257 2.05589 2.22458C 2.61546 2.39326 3.02321 2.60245 3.27912 2.85219C 3.53466 3.10193 3.66262 3.41299 3.66262 3.7854C 3.66262 4.19942 3.50631 4.52472 3.19369 4.76134C 2.88107 4.99572 2.46027 5.11292 1.93129 5.11292C 1.5642 5.11292 1.22958 5.04611 0.928153 4.91246C 0.626354 4.77667 0.395807 4.59153 0.236141 4.35715C 0.0787137 4.12274 -1.38892e-06 3.85112 -1.38892e-06 3.54224L 0.987094 3.54224C 0.987094 4.07017 1.30195 4.33416 1.93129 4.33416C 2.16519 4.33416 2.34761 4.28705 2.47892 4.19284C 2.61024 4.09646 2.67552 3.96284 2.67552 3.79198ZM 5.40365 0.617755L 5.40365 1.49181L 6.01023 1.49181L 6.01023 2.18844L 5.40365 2.18844L 5.40365 3.96284C 5.40365 4.09429 5.42864 4.18846 5.47901 4.24544C 5.52937 4.30238 5.62561 4.33087 5.76737 4.33087C 5.87257 4.33087 5.96546 4.32321 6.04641 4.30788L 6.04641 5.0275C 5.86026 5.08444 5.66926 5.11292 5.47229 5.11292C 4.80788 5.11292 4.46915 4.77667 4.4561 4.10412L 4.4561 2.18844L 3.93793 2.18844L 3.93793 1.49181L 4.4561 1.49181L 4.4561 0.617755L 5.40365 0.617755ZM 8.59399 5.0472C 8.54997 4.96177 8.51825 4.85552 8.49886 4.72848C 8.26943 4.98476 7.97099 5.11292 7.60353 5.11292C 7.25622 5.11292 6.96748 5.01213 6.73805 4.81062C 6.51087 4.60906 6.39708 4.35495 6.39708 4.04826C 6.39708 3.67148 6.53586 3.38233 6.81341 3.18078C 7.0932 2.97927 7.49646 2.87739 8.02321 2.87518L 8.45931 2.87518L 8.45931 2.67146C 8.45931 2.50719 8.41678 2.37573 8.33135 2.27715C 8.24854 2.17858 8.1161 2.12929 7.9348 2.12929C 7.77513 2.12929 7.64942 2.16762 7.55765 2.24429C 7.46812 2.32097 7.42335 2.42612 7.42335 2.55975L 6.4758 2.55975C 6.4758 2.35383 6.53922 2.16324 6.66606 1.98799C 6.79289 1.81274 6.97196 1.67583 7.20362 1.57725C 7.43529 1.47648 7.6953 1.4261 7.98404 1.4261C 8.42126 1.4261 8.76746 1.53672 9.02337 1.75798C 9.28115 1.97704 9.41022 2.28592 9.41022 2.68462L 9.41022 4.2257C 9.41246 4.56308 9.45946 4.81828 9.55123 4.99134L 9.55123 5.0472L 8.59399 5.0472ZM 7.8102 4.38673C 7.95009 4.38673 8.07917 4.35607 8.19706 4.29472C 8.31531 4.2312 8.40261 4.14685 8.45931 4.04168L 8.45931 3.43053L 8.10528 3.43053C 7.63114 3.43053 7.37858 3.5948 7.34799 3.92339L 7.34464 3.97929C 7.34464 4.09758 7.38605 4.19504 7.46924 4.27172C 7.55243 4.3484 7.66583 4.38673 7.8102 4.38673ZM 11.2725 0.617755L 11.2725 1.49181L 11.8791 1.49181L 11.8791 2.18844L 11.2725 2.18844L 11.2725 3.96284C 11.2725 4.09429 11.2979 4.18846 11.3478 4.24544C 11.3982 4.30238 11.4945 4.33087 11.6366 4.33087C 11.7414 4.33087 11.8343 4.32321 11.9153 4.30788L 11.9153 5.0275C 11.7295 5.08444 11.5381 5.11292 11.3415 5.11292C 10.6771 5.11292 10.338 4.77667 10.3249 4.10412L 10.3249 2.18844L 9.80715 2.18844L 9.80715 1.49181L 10.3249 1.49181L 10.3249 0.617755L 11.2725 0.617755ZM 14.0398 5.11292C 13.5198 5.11292 13.0956 4.95298 12.7677 4.63318C 12.442 4.31334 12.2794 3.88728 12.2794 3.35493L 12.2794 3.26292C 12.2794 2.90588 12.348 2.58712 12.4857 2.30673C 12.6233 2.02414 12.818 1.80726 13.0695 1.65611C 13.3228 1.50277 13.6115 1.4261 13.935 1.4261C 14.4203 1.4261 14.8016 1.57944 15.0791 1.88613C 15.3589 2.19281 15.4988 2.62765 15.4988 3.19065L 15.4988 3.57839L 13.24 3.57839C 13.2706 3.8106 13.3623 3.99678 13.5153 4.13698C 13.6705 4.27718 13.8659 4.34728 14.1021 4.34728C 14.4673 4.34728 14.7523 4.21475 14.9579 3.94971L 15.4234 4.47215C 15.2813 4.67371 15.0892 4.83144 14.8463 4.94532C 14.6038 5.05707 14.3349 5.11292 14.0398 5.11292ZM 13.9316 2.195C 13.7436 2.195 13.5906 2.25854 13.4727 2.38559C 13.3567 2.51265 13.2825 2.69446 13.2497 2.93104L 14.5677 2.93104L 14.5677 2.85548C 14.5636 2.64518 14.5065 2.48307 14.3972 2.36916C 14.2879 2.25306 14.1327 2.195 13.9316 2.195ZM 21.5515 4.44258C 21.3743 4.65509 21.124 4.82049 20.8006 4.93878C 20.4772 5.05486 20.1187 5.11292 19.7251 5.11292C 19.3121 5.11292 18.9491 5.02308 18.6369 4.84348C 18.3261 4.66167 18.0859 4.39876 17.9154 4.05484C 17.7472 3.71092 17.6606 3.30674 17.6565 2.84232L 17.6565 2.51702C 17.6565 2.03947 17.736 1.62654 17.8956 1.27823C 18.0575 0.927731 18.2892 0.660473 18.5906 0.476459C 18.8947 0.290259 19.2498 0.197155 19.6564 0.197155C 20.2227 0.197155 20.6652 0.332973 20.9841 0.604613C 21.3035 0.874059 21.4926 1.26728 21.5515 1.78426L 20.5943 1.78426C 20.5503 1.51044 20.4533 1.30999 20.3022 1.18294C 20.1537 1.05588 19.9482 0.992354 19.6859 0.992354C 19.3517 0.992354 19.0969 1.11831 18.9219 1.37024C 18.747 1.62216 18.6585 1.99675 18.6563 2.49403L 18.6563 2.79963C 18.6563 3.30128 18.7514 3.68027 18.9417 3.93655C 19.1319 4.19284 19.4106 4.321 19.7777 4.321C 20.147 4.321 20.4104 4.24215 20.5678 4.08442L 20.5678 3.25967L 19.6729 3.25967L 19.6729 2.53347L 21.5515 2.53347L 21.5515 4.44258ZM 24.2827 2.3823C 24.154 2.36478 24.0402 2.35602 23.9417 2.35602C 23.5832 2.35602 23.3482 2.47761 23.237 2.72074L 23.237 5.0472L 22.2894 5.0472L 22.2894 1.49181L 23.1844 1.49181L 23.2105 1.9157C 23.4008 1.5893 23.6641 1.4261 24.0006 1.4261C 24.1058 1.4261 24.2039 1.44034 24.2957 1.46881L 24.2827 2.3823ZM 25.7417 5.0472L 24.7911 5.0472L 24.7911 1.49181L 25.7417 1.49181L 25.7417 5.0472ZM 24.7352 0.571754C 24.7352 0.429363 24.7822 0.312164 24.8762 0.220159C 24.9724 0.12815 25.1026 0.0821497 25.2664 0.0821497C 25.4283 0.0821497 25.557 0.12815 25.6532 0.220159C 25.7495 0.312164 25.7976 0.429363 25.7976 0.571754C 25.7976 0.716336 25.7484 0.834627 25.6499 0.926636C 25.554 1.01864 25.4261 1.06464 25.2664 1.06464C 25.1067 1.06464 24.978 1.01864 24.8795 0.926636C 24.7833 0.834627 24.7352 0.716336 24.7352 0.571754ZM 26.3781 3.24322C 26.3781 2.689 26.5016 2.24758 26.7485 1.91899C 26.9977 1.59039 27.3376 1.4261 27.7681 1.4261C 28.1135 1.4261 28.3985 1.55534 28.6239 1.81384L 28.6239 0L 29.5748 0L 29.5748 5.0472L 28.719 5.0472L 28.6731 4.66933C 28.437 4.96506 28.1333 5.11292 27.7614 5.11292C 27.3439 5.11292 27.0085 4.94861 26.7549 4.62002C 26.5034 4.28926 26.3781 3.8303 26.3781 3.24322ZM 27.3256 3.31223C 27.3256 3.6452 27.3835 3.9004 27.4991 4.07784C 27.6151 4.25527 27.7834 4.34399 28.0042 4.34399C 28.2971 4.34399 28.5037 4.22024 28.6239 3.97271L 28.6239 2.56958C 28.506 2.32206 28.3015 2.19829 28.0106 2.19829C 27.5539 2.19829 27.3256 2.56958 27.3256 3.31223Z"/>
<path id="path7_fill" d="M 2.67549 3.70983C 2.67549 3.52361 2.6099 3.38124 2.47874 3.28265C 2.34757 3.18189 2.11151 3.07672 1.77054 2.96718C 1.42953 2.85547 1.15959 2.74596 0.960683 2.63859C 0.418565 2.34506 0.147542 1.94965 0.147542 1.45238C 0.147542 1.19389 0.219653 0.963873 0.363949 0.762336C 0.510372 0.558609 0.71913 0.399787 0.990189 0.285877C 1.26341 0.171964 1.56943 0.115005 1.90823 0.115005C 2.24924 0.115005 2.55305 0.177441 2.81975 0.302305C 3.0864 0.424982 3.29296 0.599136 3.43942 0.824768C 3.58805 1.0504 3.66239 1.3067 3.66239 1.59368L 2.67873 1.59368C 2.67873 1.37461 2.6099 1.20484 2.47217 1.08436C 2.33448 0.961682 2.14102 0.900346 1.89186 0.900346C 1.65139 0.900346 1.46452 0.951827 1.33116 1.05479C 1.19783 1.15555 1.13117 1.28918 1.13117 1.45567C 1.13117 1.6112 1.20876 1.74155 1.36395 1.8467C 1.52134 1.95185 1.75196 2.05042 2.05578 2.14243C 2.61535 2.31111 3.02302 2.5203 3.27875 2.77004C 3.53451 3.01978 3.66239 3.33084 3.66239 3.70325C 3.66239 4.11727 3.50609 4.44257 3.19351 4.67919C 2.88093 4.91357 2.46016 5.03077 1.93117 5.03077C 1.56398 5.03077 1.22954 4.96396 0.927889 4.83031C 0.62624 4.69452 0.39562 4.50938 0.236066 4.275C 0.0786753 4.04059 -2.04923e-07 3.76897 -2.04923e-07 3.46009L 0.986907 3.46009C 0.986907 3.98802 1.30165 4.25201 1.93117 4.25201C 2.16508 4.25201 2.34757 4.2049 2.47874 4.11069C 2.6099 4.01431 2.67549 3.88069 2.67549 3.70983ZM 5.26898 4.96505L 4.31814 4.96505L 4.31814 1.40966L 5.26898 1.40966L 5.26898 4.96505ZM 4.26241 0.489605C 4.26241 0.347214 4.30938 0.230014 4.40339 0.138009C 4.49956 0.0460006 4.6296 -3.7252e-08 4.79356 -3.7252e-08C 4.95532 -3.7252e-08 5.08428 0.0460006 5.18045 0.138009C 5.27663 0.230014 5.32471 0.347214 5.32471 0.489605C 5.32471 0.634186 5.27554 0.752477 5.17717 0.844486C 5.081 0.936491 4.95311 0.982495 4.79356 0.982495C 4.63401 0.982495 4.505 0.936491 4.40667 0.844486C 4.3105 0.752477 4.26241 0.634186 4.26241 0.489605ZM 6.92477 1.40966L 6.95424 1.82041C 7.20791 1.50277 7.54776 1.34395 7.97379 1.34395C 8.34982 1.34395 8.62961 1.45457 8.81315 1.67583C 8.99707 1.89708 9.09107 2.22786 9.09518 2.66816L 9.09518 4.96505L 8.14763 4.96505L 8.14763 2.69119C 8.14763 2.48964 8.10398 2.34397 8.01669 2.25415C 7.92902 2.16214 7.7839 2.11614 7.58059 2.11614C 7.31386 2.11614 7.1139 2.23005 6.98035 2.45786L 6.98035 4.96505L 6.0328 4.96505L 6.0328 1.40966L 6.92477 1.40966ZM 9.66893 3.15449C 9.66893 2.80182 9.73683 2.48744 9.87224 2.21144C 10.008 1.93541 10.2024 1.72183 10.4561 1.57068C 10.7116 1.41952 11.0078 1.34395 11.3447 1.34395C 11.8233 1.34395 12.2135 1.49072 12.5149 1.78426C 12.819 2.0778 12.9883 2.47652 13.0234 2.98034L 13.0297 3.2235C 13.0297 3.76897 12.8779 4.20711 12.5743 4.53787C 12.2702 4.86646 11.8625 5.03077 11.351 5.03077C 10.8396 5.03077 10.4307 4.86646 10.1248 4.53787C 9.82114 4.20928 9.66893 3.76239 9.66893 3.19722L 9.66893 3.15449ZM 10.6165 3.2235C 10.6165 3.56084 10.6799 3.81933 10.8067 3.99898C 10.9336 4.17641 11.1149 4.26513 11.351 4.26513C 11.5804 4.26513 11.7599 4.17754 11.889 4.00227C 12.0177 3.82483 12.0822 3.54222 12.0822 3.15449C 12.0822 2.82373 12.0177 2.56741 11.889 2.38559C 11.7599 2.20377 11.5786 2.11285 11.3447 2.11285C 11.113 2.11285 10.9336 2.20377 10.8067 2.38559C 10.6799 2.56524 10.6165 2.84451 10.6165 3.2235ZM 16.8069 3.22021C 16.8069 3.76789 16.6823 4.20711 16.4331 4.53787C 16.1861 4.86646 15.8519 5.03077 15.43 5.03077C 15.0715 5.03077 14.782 4.9059 14.5611 4.65616L 14.5611 6.33198L 13.6136 6.33198L 13.6136 1.40966L 14.4921 1.40966L 14.5249 1.75798C 14.7544 1.48195 15.0539 1.34395 15.4232 1.34395C 15.8605 1.34395 16.2003 1.50605 16.4432 1.83026C 16.6857 2.15448 16.8069 2.60135 16.8069 3.17094L 16.8069 3.22021ZM 15.8593 3.1512C 15.8593 2.82044 15.8004 2.56524 15.6825 2.38559C 15.5665 2.20596 15.3971 2.11614 15.174 2.11614C 14.8767 2.11614 14.6727 2.23005 14.5611 2.45786L 14.5611 3.91355C 14.6768 4.14796 14.8834 4.26513 15.1808 4.26513C 15.6333 4.26513 15.8593 3.89385 15.8593 3.1512ZM 19.0299 5.03077C 18.5099 5.03077 18.0857 4.87083 17.7578 4.55103C 17.4321 4.23119 17.2691 3.80513 17.2691 3.27278L 17.2691 3.18077C 17.2691 2.82373 17.3381 2.50497 17.4758 2.22458C 17.6134 1.94199 17.8082 1.72511 18.0596 1.57396C 18.3129 1.42062 18.6016 1.34395 18.9251 1.34395C 19.4104 1.34395 19.7917 1.49729 20.0692 1.80398C 20.349 2.11066 20.4889 2.5455 20.4889 3.1085L 20.4889 3.49624L 18.2301 3.49624C 18.2607 3.72845 18.3524 3.91463 18.5054 4.05483C 18.6606 4.19503 18.8561 4.26513 19.0922 4.26513C 19.4574 4.26513 19.7424 4.1326 19.948 3.86756L 20.4136 4.39C 20.2714 4.59156 20.0793 4.74929 19.8364 4.86317C 19.594 4.97492 19.325 5.03077 19.0299 5.03077ZM 18.9217 2.11285C 18.7337 2.11285 18.5808 2.17639 18.4629 2.30344C 18.3468 2.4305 18.2726 2.61231 18.2398 2.84889L 19.5578 2.84889L 19.5578 2.77333C 19.5537 2.56303 19.4966 2.40092 19.3873 2.28701C 19.278 2.17091 19.1228 2.11285 18.9217 2.11285ZM 22.5056 4.26513C 22.6802 4.26513 22.8223 4.21694 22.9317 4.12056C 23.041 4.02418 23.0977 3.89601 23.1021 3.73611L 23.9907 3.73611C 23.9885 3.97707 23.9228 4.19832 23.7941 4.39987C 23.6651 4.59922 23.4879 4.75475 23.2629 4.86646C 23.0398 4.976 22.7929 5.03077 22.522 5.03077C 22.0147 5.03077 21.6148 4.86975 21.3219 4.54774C 21.0291 4.22352 20.8825 3.77664 20.8825 3.20709L 20.8825 3.14466C 20.8825 2.59698 21.028 2.15995 21.3186 1.83355C 21.6092 1.50715 22.0083 1.34395 22.5153 1.34395C 22.9589 1.34395 23.3144 1.471 23.5808 1.72511C 23.8497 1.97704 23.9863 2.3133 23.9907 2.73389L 23.1021 2.73389C 23.0977 2.54987 23.041 2.40092 22.9317 2.28701C 22.8223 2.17091 22.678 2.11285 22.4989 2.11285C 22.2781 2.11285 22.1109 2.19391 21.9972 2.35602C 21.8856 2.51592 21.83 2.77662 21.83 3.13808L 21.83 3.23666C 21.83 3.60249 21.8856 3.86536 21.9972 4.02526C 22.1087 4.1852 22.2781 4.26513 22.5056 4.26513ZM 30.0435 4.36043C 29.8663 4.57294 29.616 4.73834 29.2926 4.85663C 28.9691 4.97271 28.6106 5.03077 28.217 5.03077C 27.8041 5.03077 27.4411 4.94093 27.1285 4.76133C 26.8181 4.57952 26.5779 4.31661 26.4074 3.97269C 26.2388 3.62877 26.1526 3.22459 26.1481 2.76017L 26.1481 2.43487C 26.1481 1.95732 26.2279 1.54439 26.3876 1.19608C 26.5491 0.845582 26.7812 0.578323 27.0826 0.394309C 27.3866 0.208109 27.7418 0.115005 28.1484 0.115005C 28.7143 0.115005 29.1571 0.250823 29.4761 0.522464C 29.7954 0.791909 29.9842 1.18513 30.0435 1.70211L 29.0859 1.70211C 29.0422 1.42829 28.9449 1.22785 28.7942 1.10079C 28.6457 0.973732 28.4401 0.910204 28.1779 0.910204C 27.8432 0.910204 27.5888 1.03616 27.4139 1.28809C 27.2389 1.54001 27.1505 1.9146 27.1483 2.41188L 27.1483 2.71748C 27.1483 3.21913 27.2434 3.59812 27.4336 3.8544C 27.6235 4.11069 27.9022 4.23885 28.2696 4.23885C 28.639 4.23885 28.9023 4.16 29.0598 4.00227L 29.0598 3.17752L 28.1648 3.17752L 28.1648 2.45132L 30.0435 2.45132L 30.0435 4.36043ZM 32.7746 2.30015C 32.6455 2.28263 32.5321 2.27387 32.4336 2.27387C 32.0751 2.27387 31.8401 2.39546 31.7286 2.63859L 31.7286 4.96505L 30.781 4.96505L 30.781 1.40966L 31.6763 1.40966L 31.7025 1.83355C 31.8927 1.50715 32.1561 1.34395 32.4926 1.34395C 32.5974 1.34395 32.6959 1.35819 32.7877 1.38666L 32.7746 2.30015ZM 32.9682 3.15449C 32.9682 2.80182 33.0357 2.48744 33.1712 2.21144C 33.307 1.93541 33.5013 1.72183 33.755 1.57068C 34.0105 1.41952 34.3067 1.34395 34.6436 1.34395C 35.1222 1.34395 35.5124 1.49072 35.8139 1.78426C 36.1179 2.0778 36.2873 2.47652 36.3223 2.98034L 36.3287 3.2235C 36.3287 3.76897 36.1768 4.20711 35.8732 4.53787C 35.5691 4.86646 35.1614 5.03077 34.6499 5.03077C 34.1385 5.03077 33.7296 4.86646 33.4237 4.53787C 33.1201 4.20928 32.9682 3.76239 32.9682 3.19722L 32.9682 3.15449ZM 33.9158 3.2235C 33.9158 3.56084 33.9788 3.81933 34.1057 3.99898C 34.2325 4.17641 34.4138 4.26513 34.6499 4.26513C 34.8797 4.26513 35.0588 4.17754 35.1879 4.00227C 35.3166 3.82483 35.3811 3.54222 35.3811 3.15449C 35.3811 2.82373 35.3166 2.56741 35.1879 2.38559C 35.0588 2.20377 34.8775 2.11285 34.6436 2.11285C 34.4119 2.11285 34.2325 2.20377 34.1057 2.38559C 33.9788 2.56524 33.9158 2.84451 33.9158 3.2235ZM 39.037 4.60359C 38.8031 4.88837 38.4797 5.03077 38.0663 5.03077C 37.6862 5.03077 37.3956 4.92123 37.1945 4.70218C 36.9953 4.4831 36.8938 4.16217 36.8894 3.7394L 36.8894 1.40966L 37.8369 1.40966L 37.8369 3.70654C 37.8369 4.07674 38.0052 4.26184 38.342 4.26184C 38.6632 4.26184 38.8841 4.15013 39.0042 3.92671L 39.0042 1.40966L 39.9551 1.40966L 39.9551 4.96505L 39.0631 4.96505L 39.037 4.60359ZM 43.8636 3.22021C 43.8636 3.76789 43.739 4.20711 43.4898 4.53787C 43.2424 4.86646 42.9082 5.03077 42.4863 5.03077C 42.1278 5.03077 41.8383 4.9059 41.6174 4.65616L 41.6174 6.33198L 40.6699 6.33198L 40.6699 1.40966L 41.5484 1.40966L 41.5812 1.75798C 41.811 1.48195 42.1102 1.34395 42.4799 1.34395C 42.9168 1.34395 43.257 1.50605 43.4995 1.83026C 43.7419 2.15448 43.8636 2.60135 43.8636 3.17094L 43.8636 3.22021ZM 42.916 3.1512C 42.916 2.82044 42.8567 2.56524 42.7388 2.38559C 42.6228 2.20596 42.4534 2.11614 42.2307 2.11614C 41.9334 2.11614 41.729 2.23005 41.6174 2.45786L 41.6174 3.91355C 41.7334 4.14796 41.9397 4.26513 42.2371 4.26513C 42.6896 4.26513 42.916 3.89385 42.916 3.1512Z"/>
<path id="path8_fill" d="M 3.89189 3.45352C 3.85473 3.96833 3.66459 4.37357 3.32138 4.66933C 2.98041 4.96506 2.5301 5.11292 1.97052 5.11292C 1.3585 5.11292 0.876521 4.907 0.524603 4.49515C 0.174868 4.08113 -3.11369e-08 3.51375 -3.11369e-08 2.79305L -3.11369e-08 2.50061C -3.11369e-08 2.04057 0.0808738 1.6353 0.242629 1.2848C 0.40438 0.9343 0.634986 0.66595 0.934449 0.479746C 1.23609 0.291354 1.58583 0.197155 1.98366 0.197155C 2.5345 0.197155 2.97821 0.345023 3.31485 0.640759C 3.65146 0.936491 3.846 1.35161 3.89845 1.88613L 2.91483 1.88613C 2.89077 1.57725 2.80444 1.3538 2.65582 1.2158C 2.50936 1.0756 2.28531 1.0055 1.98366 1.0055C 1.65578 1.0055 1.40987 1.12379 1.24593 1.36038C 1.08418 1.59477 1.00112 1.95951 0.996745 2.45458L 0.996745 2.81604C 0.996745 3.33302 1.07434 3.71092 1.22954 3.94971C 1.38692 4.18846 1.63392 4.30788 1.97052 4.30788C 2.27437 4.30788 2.50059 4.23886 2.64925 4.10087C 2.80008 3.96067 2.8864 3.74487 2.90826 3.45352L 3.89189 3.45352ZM 5.40013 1.87955C 5.6515 1.57725 5.96736 1.4261 6.34769 1.4261C 7.1171 1.4261 7.50728 1.87408 7.51821 2.77005L 7.51821 5.0472L 6.57066 5.0472L 6.57066 2.79633C 6.57066 2.59262 6.52694 2.44254 6.43949 2.34616C 6.35209 2.24758 6.20671 2.19829 6.00343 2.19829C 5.72581 2.19829 5.52473 2.30563 5.40013 2.52031L 5.40013 5.0472L 4.45258 5.0472L 4.45258 0L 5.40013 0L 5.40013 1.87955ZM 9.23301 5.0472L 8.28218 5.0472L 8.28218 1.49181L 9.23301 1.49181L 9.23301 5.0472ZM 8.22645 0.571754C 8.22645 0.429363 8.27341 0.312164 8.36742 0.220159C 8.4636 0.12815 8.59364 0.0821497 8.7576 0.0821497C 8.91935 0.0821497 9.04832 0.12815 9.14449 0.220159C 9.24066 0.312164 9.28875 0.429363 9.28875 0.571754C 9.28875 0.716336 9.23958 0.834627 9.14121 0.926636C 9.04503 1.01864 8.91715 1.06464 8.7576 1.06464C 8.59804 1.06464 8.46908 1.01864 8.37071 0.926636C 8.27453 0.834627 8.22645 0.716336 8.22645 0.571754ZM 10.8888 1.49181L 10.9183 1.90256C 11.1719 1.58492 11.5118 1.4261 11.938 1.4261C 12.314 1.4261 12.5938 1.53672 12.7774 1.75798C 12.961 1.97923 13.055 2.31001 13.0594 2.75031L 13.0594 5.0472L 12.1118 5.0472L 12.1118 2.77334C 12.1118 2.57179 12.0681 2.42612 11.9806 2.3363C 11.8932 2.24429 11.7478 2.19829 11.5446 2.19829C 11.2779 2.19829 11.0779 2.3122 10.9445 2.54001L 10.9445 5.0472L 9.99699 5.0472L 9.99699 1.49181L 10.8888 1.49181ZM 15.8365 5.0472C 15.7927 4.96177 15.761 4.85552 15.7414 4.72848C 15.5119 4.98476 15.2135 5.11292 14.8463 5.11292C 14.4987 5.11292 14.2102 5.01213 13.9807 4.81062C 13.7534 4.60906 13.6397 4.35495 13.6397 4.04826C 13.6397 3.67148 13.7785 3.38233 14.0561 3.18078C 14.3359 2.97927 14.7392 2.87739 15.266 2.87518L 15.702 2.87518L 15.702 2.67146C 15.702 2.50719 15.6594 2.37573 15.5742 2.27715C 15.4911 2.17858 15.3589 2.12929 15.1774 2.12929C 15.0179 2.12929 14.8922 2.16762 14.8004 2.24429C 14.7108 2.32097 14.6659 2.42612 14.6659 2.55975L 13.7184 2.55975C 13.7184 2.35383 13.7818 2.16324 13.9085 1.98799C 14.0353 1.81274 14.2146 1.67583 14.4463 1.57725C 14.678 1.47648 14.9381 1.4261 15.2266 1.4261C 15.6638 1.4261 16.0102 1.53672 16.266 1.75798C 16.5239 1.97704 16.6529 2.28592 16.6529 2.68462L 16.6529 4.2257C 16.6551 4.56308 16.7021 4.81828 16.7939 4.99134L 16.7939 5.0472L 15.8365 5.0472ZM 15.0528 4.38673C 15.1927 4.38673 15.3217 4.35607 15.4397 4.29472C 15.5578 4.2312 15.6452 4.14685 15.702 4.04168L 15.702 3.43053L 15.3479 3.43053C 14.8736 3.43053 14.6211 3.5948 14.5905 3.92339L 14.5873 3.97929C 14.5873 4.09758 14.6288 4.19504 14.7118 4.27172C 14.7949 4.3484 14.9086 4.38673 15.0528 4.38673ZM 22.9973 5.0472L 22.0137 5.0472L 20.0989 1.89927L 20.0989 5.0472L 19.1153 5.0472L 19.1153 0.262873L 20.0989 0.262873L 22.017 3.41736L 22.017 0.262873L 22.9973 0.262873L 22.9973 5.0472ZM 25.8498 5.0472C 25.8061 4.96177 25.7744 4.85552 25.7547 4.72848C 25.5252 4.98476 25.2269 5.11292 24.8596 5.11292C 24.5121 5.11292 24.2236 5.01213 23.9941 4.81062C 23.7667 4.60906 23.6531 4.35495 23.6531 4.04826C 23.6531 3.67148 23.7919 3.38233 24.0695 3.18078C 24.3492 2.97927 24.7525 2.87739 25.2793 2.87518L 25.7154 2.87518L 25.7154 2.67146C 25.7154 2.50719 25.6728 2.37573 25.5875 2.27715C 25.5045 2.17858 25.3722 2.12929 25.1908 2.12929C 25.0312 2.12929 24.9055 2.16762 24.8137 2.24429C 24.7241 2.32097 24.6793 2.42612 24.6793 2.55975L 23.7318 2.55975C 23.7318 2.35383 23.7951 2.16324 23.9219 1.98799C 24.0487 1.81274 24.2279 1.67583 24.4596 1.57725C 24.6913 1.47648 24.9515 1.4261 25.24 1.4261C 25.6772 1.4261 26.0236 1.53672 26.2794 1.75798C 26.5373 1.97704 26.6663 2.28592 26.6663 2.68462L 26.6663 4.2257C 26.6684 4.56308 26.7154 4.81828 26.8072 4.99134L 26.8072 5.0472L 25.8498 5.0472ZM 25.0662 4.38673C 25.2061 4.38673 25.3351 4.35607 25.4531 4.29472C 25.5711 4.2312 25.6586 4.14685 25.7154 4.04168L 25.7154 3.43053L 25.3613 3.43053C 24.887 3.43053 24.6345 3.5948 24.6039 3.92339L 24.6006 3.97929C 24.6006 4.09758 24.6422 4.19504 24.7252 4.27172C 24.8083 4.3484 24.9219 4.38673 25.0662 4.38673ZM 28.5286 0.617755L 28.5286 1.49181L 29.1352 1.49181L 29.1352 2.18844L 28.5286 2.18844L 28.5286 3.96284C 28.5286 4.09429 28.5537 4.18846 28.604 4.24544C 28.6543 4.30238 28.7505 4.33087 28.8925 4.33087C 28.9975 4.33087 29.0903 4.32321 29.1712 4.30788L 29.1712 5.0275C 28.9854 5.08444 28.7942 5.11292 28.5974 5.11292C 27.933 5.11292 27.5942 4.77667 27.581 4.10412L 27.581 2.18844L 27.063 2.18844L 27.063 1.49181L 27.581 1.49181L 27.581 0.617755L 28.5286 0.617755ZM 31.7877 4.68574C 31.5538 4.97052 31.2303 5.11292 30.8172 5.11292C 30.4368 5.11292 30.1461 5.00338 29.945 4.78433C 29.7461 4.56525 29.6445 4.24432 29.6401 3.82155L 29.6401 1.49181L 30.5877 1.49181L 30.5877 3.78869C 30.5877 4.15889 30.756 4.34399 31.0926 4.34399C 31.4139 4.34399 31.6347 4.23228 31.7549 4.00886L 31.7549 1.49181L 32.7057 1.49181L 32.7057 5.0472L 31.8139 5.0472L 31.7877 4.68574ZM 35.4139 2.3823C 35.2851 2.36478 35.1714 2.35602 35.073 2.35602C 34.7145 2.35602 34.4796 2.47761 34.3681 2.72074L 34.3681 5.0472L 33.4205 5.0472L 33.4205 1.49181L 34.3156 1.49181L 34.3419 1.9157C 34.532 1.5893 34.7954 1.4261 35.132 1.4261C 35.237 1.4261 35.3353 1.44034 35.427 1.46881L 35.4139 2.3823ZM 37.8306 5.0472C 37.7869 4.96177 37.7552 4.85552 37.7354 4.72848C 37.506 4.98476 37.2076 5.11292 36.8401 5.11292C 36.4928 5.11292 36.2041 5.01213 35.9746 4.81062C 35.7475 4.60906 35.6337 4.35495 35.6337 4.04826C 35.6337 3.67148 35.7724 3.38233 36.05 3.18078C 36.3298 2.97927 36.7331 2.87739 37.2598 2.87518L 37.6959 2.87518L 37.6959 2.67146C 37.6959 2.50719 37.6534 2.37573 37.5683 2.27715C 37.4851 2.17858 37.3527 2.12929 37.1714 2.12929C 37.0117 2.12929 36.886 2.16762 36.7942 2.24429C 36.7047 2.32097 36.6599 2.42612 36.6599 2.55975L 35.7124 2.55975C 35.7124 2.35383 35.7758 2.16324 35.9026 1.98799C 36.0295 1.81274 36.2085 1.67583 36.4402 1.57725C 36.6719 1.47648 36.9323 1.4261 37.2206 1.4261C 37.6578 1.4261 38.0044 1.53672 38.26 1.75798C 38.5177 1.97704 38.6468 2.28592 38.6468 2.68462L 38.6468 4.2257C 38.649 4.56308 38.6961 4.81828 38.7878 4.99134L 38.7878 5.0472L 37.8306 5.0472ZM 37.0468 4.38673C 37.1867 4.38673 37.3158 4.35607 37.4336 4.29472C 37.5519 4.2312 37.6392 4.14685 37.6959 4.04168L 37.6959 3.43053L 37.3419 3.43053C 36.8677 3.43053 36.6152 3.5948 36.5846 3.92339L 36.5812 3.97929C 36.5812 4.09758 36.6226 4.19504 36.7058 4.27172C 36.789 4.3484 36.9024 4.38673 37.0468 4.38673ZM 40.3748 5.0472L 39.4239 5.0472L 39.4239 0L 40.3748 0L 40.3748 5.0472ZM 43.8766 3.36151L 43.8766 5.0472L 42.8929 5.0472L 42.8929 0.262873L 44.7551 0.262873C 45.1137 0.262873 45.4285 0.328595 45.6993 0.460032C 45.9728 0.591468 46.1824 0.778768 46.3291 1.02193C 46.4757 1.2629 46.5488 1.53782 46.5488 1.8467C 46.5488 2.31549 46.388 2.68571 46.0668 2.95736C 45.7475 3.22681 45.305 3.36151 44.7387 3.36151L 43.8766 3.36151ZM 43.8766 2.56304L 44.7551 2.56304C 45.0152 2.56304 45.2133 2.50169 45.3487 2.37902C 45.4863 2.25634 45.5553 2.08109 45.5553 1.85327C 45.5553 1.61887 45.4863 1.42938 45.3487 1.2848C 45.211 1.14022 45.0208 1.06574 44.7783 1.06136L 43.8766 1.06136L 43.8766 2.56304ZM 48.752 5.11292C 48.232 5.11292 47.8078 4.95298 47.4799 4.63318C 47.1542 4.31334 46.9912 3.88728 46.9912 3.35493L 46.9912 3.26292C 46.9912 2.90588 47.0602 2.58712 47.1979 2.30673C 47.3355 2.02414 47.5303 1.80726 47.7817 1.65611C 48.035 1.50277 48.3238 1.4261 48.6472 1.4261C 49.1325 1.4261 49.5138 1.57944 49.7913 1.88613C 50.0711 2.19281 50.211 2.62765 50.211 3.19065L 50.211 3.57839L 47.9522 3.57839C 47.9828 3.8106 48.0746 3.99678 48.2275 4.13698C 48.3827 4.27718 48.5782 4.34728 48.8143 4.34728C 49.1795 4.34728 49.4645 4.21475 49.6701 3.94971L 50.1357 4.47215C 49.9935 4.67371 49.8014 4.83144 49.5586 4.94532C 49.3161 5.05707 49.0471 5.11292 48.752 5.11292ZM 48.6438 2.195C 48.4558 2.195 48.3029 2.25854 48.185 2.38559C 48.069 2.51265 47.9947 2.69446 47.9619 2.93104L 49.2799 2.93104L 49.2799 2.85548C 49.2754 2.64518 49.2187 2.48307 49.1094 2.36916C 49.0001 2.25306 48.8449 2.195 48.6438 2.195ZM 51.8864 0.617755L 51.8864 1.49181L 52.493 1.49181L 52.493 2.18844L 51.8864 2.18844L 51.8864 3.96284C 51.8864 4.09429 51.9118 4.18846 51.9621 4.24544C 52.0121 4.30238 52.1084 4.33087 52.2505 4.33087C 52.3553 4.33087 52.4482 4.32321 52.5292 4.30788L 52.5292 5.0275C 52.3434 5.08444 52.152 5.11292 51.9554 5.11292C 51.291 5.11292 50.9523 4.77667 50.9388 4.10412L 50.9388 2.18844L 50.4211 2.18844L 50.4211 1.49181L 50.9388 1.49181L 50.9388 0.617755L 51.8864 0.617755ZM 55.0144 2.3823C 54.8854 2.36478 54.772 2.35602 54.6735 2.35602C 54.315 2.35602 54.0799 2.47761 53.9684 2.72074L 53.9684 5.0472L 53.0209 5.0472L 53.0209 1.49181L 53.9162 1.49181L 53.9423 1.9157C 54.1325 1.5893 54.3959 1.4261 54.7324 1.4261C 54.8376 1.4261 54.9357 1.44034 55.0275 1.46881L 55.0144 2.3823ZM 55.208 3.23664C 55.208 2.88397 55.2756 2.56959 55.4114 2.29359C 55.5468 2.01756 55.7411 1.80398 55.9948 1.65283C 56.2507 1.50167 56.5469 1.4261 56.8834 1.4261C 57.3621 1.4261 57.7523 1.57287 58.0541 1.86641C 58.3577 2.15995 58.5271 2.55867 58.5622 3.06249L 58.5689 3.30565C 58.5689 3.85112 58.4167 4.28926 58.113 4.62002C 57.809 4.94861 57.4016 5.11292 56.8901 5.11292C 56.3783 5.11292 55.9698 4.94861 55.6635 4.62002C 55.3599 4.29143 55.208 3.84454 55.208 3.27937L 55.208 3.23664ZM 56.1556 3.30565C 56.1556 3.64299 56.219 3.90148 56.3459 4.08113C 56.4723 4.25856 56.654 4.34728 56.8901 4.34728C 57.1196 4.34728 57.2986 4.25969 57.4277 4.08442C 57.5568 3.90698 57.6213 3.62437 57.6213 3.23664C 57.6213 2.90588 57.5568 2.64956 57.4277 2.46774C 57.2986 2.28592 57.1173 2.195 56.8834 2.195C 56.6518 2.195 56.4723 2.28592 56.3459 2.46774C 56.219 2.64739 56.1556 2.92666 56.1556 3.30565ZM 60.1525 5.0472L 59.2016 5.0472L 59.2016 0L 60.1525 0L 60.1525 5.0472ZM 62.5687 5.11292C 62.0487 5.11292 61.6245 4.95298 61.2966 4.63318C 60.9709 4.31334 60.8079 3.88728 60.8079 3.35493L 60.8079 3.26292C 60.8079 2.90588 60.8769 2.58712 61.0146 2.30673C 61.1522 2.02414 61.347 1.80726 61.5984 1.65611C 61.8517 1.50277 62.1405 1.4261 62.4639 1.4261C 62.9492 1.4261 63.3305 1.57944 63.608 1.88613C 63.8878 2.19281 64.0277 2.62765 64.0277 3.19065L 64.0277 3.57839L 61.7689 3.57839C 61.7995 3.8106 61.8913 3.99678 62.0442 4.13698C 62.1994 4.27718 62.3949 4.34728 62.631 4.34728C 62.9962 4.34728 63.2813 4.21475 63.4868 3.94971L 63.9524 4.47215C 63.8102 4.67371 63.6181 4.83144 63.3753 4.94532C 63.1328 5.05707 62.8638 5.11292 62.5687 5.11292ZM 62.4605 2.195C 62.2725 2.195 62.1196 2.25854 62.0017 2.38559C 61.8857 2.51265 61.8114 2.69446 61.7786 2.93104L 63.0966 2.93104L 63.0966 2.85548C 63.0925 2.64518 63.0354 2.48307 62.9261 2.36916C 62.8168 2.25306 62.6616 2.195 62.4605 2.195ZM 66.6936 4.68574C 66.4597 4.97052 66.1362 5.11292 65.7229 5.11292C 65.3427 5.11292 65.0518 5.00338 64.8507 4.78433C 64.6518 4.56525 64.5504 4.24432 64.5459 3.82155L 64.5459 1.49181L 65.4934 1.49181L 65.4934 3.78869C 65.4934 4.15889 65.6617 4.34399 65.9986 4.34399C 66.3198 4.34399 66.5406 4.23228 66.6607 4.00886L 66.6607 1.49181L 67.6116 1.49181L 67.6116 5.0472L 66.7197 5.0472L 66.6936 4.68574ZM 69.215 1.49181L 69.2445 1.88941C 69.4959 1.58054 69.8358 1.4261 70.264 1.4261C 70.721 1.4261 71.0348 1.60682 71.2052 1.96828C 71.4544 1.60682 71.8096 1.4261 72.2707 1.4261C 72.6553 1.4261 72.9418 1.53891 73.1298 1.76455C 73.3178 1.98799 73.4118 2.32535 73.4118 2.77663L 73.4118 5.0472L 72.4609 5.0472L 72.4609 2.77988C 72.4609 2.57837 72.4214 2.43159 72.3427 2.33959C 72.264 2.24539 72.1252 2.19829 71.9263 2.19829C 71.6421 2.19829 71.4455 2.33411 71.3362 2.60574L 71.3395 5.0472L 70.392 5.0472L 70.392 2.78317C 70.392 2.57729 70.3513 2.42831 70.2707 2.3363C 70.1898 2.24429 70.0521 2.19829 69.8574 2.19829C 69.5888 2.19829 69.3941 2.31001 69.274 2.53347L 69.274 5.0472L 68.3264 5.0472L 68.3264 1.49181L 69.215 1.49181Z"/>
<path id="path9_fill" d="M 3.88858 0.798486L 2.42621 0.798486L 2.42621 4.78433L 1.44248 4.78433L 1.44248 0.798486L -1.02917e-06 0.798486L -1.02917e-06 8.65981e-08L 3.88858 8.65981e-08L 3.88858 0.798486ZM 3.56066 2.97376C 3.56066 2.6211 3.62856 2.30671 3.76398 2.03071C 3.8994 1.75469 4.09413 1.54111 4.3478 1.38995C 4.60334 1.2388 4.89955 1.16322 5.23604 1.16322C 5.71504 1.16322 6.10525 1.30999 6.40667 1.60354C 6.71071 1.89708 6.88008 2.29579 6.91477 2.79962L 6.92148 3.04278C 6.92148 3.58825 6.76965 4.02639 6.46561 4.35715C 6.16195 4.68574 5.75421 4.85005 5.24275 4.85005C 4.7313 4.85005 4.32243 4.68574 4.01653 4.35715C 3.71249 4.02855 3.56066 3.58167 3.56066 3.0165L 3.56066 2.97376ZM 4.50821 3.04278C 4.50821 3.38012 4.57163 3.63861 4.69847 3.81825C 4.82531 3.99569 5.00661 4.08441 5.24275 4.08441C 5.47218 4.08441 5.65162 3.99681 5.78032 3.82154C 5.9094 3.64411 5.97393 3.3615 5.97393 2.97376C 5.97393 2.643 5.9094 2.38668 5.78032 2.20487C 5.65162 2.02304 5.46994 1.93213 5.23604 1.93213C 5.00437 1.93213 4.82531 2.02304 4.69847 2.20487C 4.57163 2.38451 4.50821 2.66379 4.50821 3.04278ZM 8.77741 3.44039L 9.43287 1.22894L 10.4494 1.22894L 9.02326 5.33638L 8.94454 5.52365C 8.73265 5.98806 8.38273 6.22027 7.89515 6.22027C 7.75749 6.22027 7.6176 6.19949 7.47546 6.15784L 7.47546 5.43822L 7.61984 5.44151C 7.79927 5.44151 7.93245 5.41414 8.01975 5.35937C 8.10965 5.3046 8.17941 5.21367 8.22977 5.08663L 8.34132 4.7942L 7.09868 1.22894L 8.11823 1.22894L 8.77741 3.44039ZM 10.6233 2.97376C 10.6233 2.6211 10.6912 2.30671 10.8266 2.03071C 10.962 1.75469 11.1567 1.54111 11.41 1.38995C 11.6659 1.2388 11.9621 1.16322 12.2986 1.16322C 12.7773 1.16322 13.1675 1.30999 13.4693 1.60354C 13.7729 1.89708 13.9423 2.29579 13.9774 2.79962L 13.9841 3.04278C 13.9841 3.58825 13.8319 4.02639 13.5282 4.35715C 13.2246 4.68574 12.8168 4.85005 12.3054 4.85005C 11.7939 4.85005 11.385 4.68574 11.0791 4.35715C 10.7751 4.02855 10.6233 3.58167 10.6233 3.0165L 10.6233 2.97376ZM 11.5708 3.04278C 11.5708 3.38012 11.6342 3.63861 11.7611 3.81825C 11.8879 3.99569 12.0692 4.08441 12.3054 4.08441C 12.5348 4.08441 12.7138 3.99681 12.8429 3.82154C 12.972 3.64411 13.0365 3.3615 13.0365 2.97376C 13.0365 2.643 12.972 2.38668 12.8429 2.20487C 12.7138 2.02304 12.5325 1.93213 12.2986 1.93213C 12.067 1.93213 11.8879 2.02304 11.7611 2.20487C 11.6342 2.38451 11.5708 2.66379 11.5708 3.04278ZM 15.702 0.354882L 15.702 1.22894L 16.3086 1.22894L 16.3086 1.92556L 15.702 1.92556L 15.702 3.69996C 15.702 3.83141 15.7274 3.92559 15.7774 3.98257C 15.8277 4.03951 15.924 4.068 16.0661 4.068C 16.1709 4.068 16.2638 4.06033 16.3448 4.045L 16.3448 4.76462C 16.159 4.82156 15.9676 4.85005 15.771 4.85005C 15.1062 4.85005 14.7675 4.5138 14.7544 3.84125L 14.7544 1.92556L 14.2363 1.92556L 14.2363 1.22894L 14.7544 1.22894L 14.7544 0.354882L 15.702 0.354882ZM 18.8923 4.78433C 18.8487 4.6989 18.817 4.59264 18.7972 4.4656C 18.5678 4.72189 18.2693 4.85005 17.9023 4.85005C 17.5546 4.85005 17.2662 4.74926 17.0364 4.54774C 16.8092 4.34619 16.6954 4.09207 16.6954 3.78539C 16.6954 3.40861 16.8342 3.11946 17.1118 2.91791C 17.3915 2.71639 17.7948 2.61452 18.3219 2.61231L 18.758 2.61231L 18.758 2.40859C 18.758 2.24431 18.7151 2.11286 18.6301 2.01428C 18.5469 1.9157 18.4148 1.86641 18.2331 1.86641C 18.0739 1.86641 17.9481 1.90475 17.8564 1.98142C 17.7665 2.05809 17.7217 2.16324 17.7217 2.29688L 16.7741 2.29688C 16.7741 2.09095 16.8376 1.90037 16.9644 1.72512C 17.0912 1.54987 17.2703 1.41295 17.502 1.31438C 17.7336 1.21361 17.994 1.16322 18.2824 1.16322C 18.7196 1.16322 19.0662 1.27385 19.3217 1.4951C 19.5799 1.71417 19.7086 2.02304 19.7086 2.42175L 19.7086 3.96283C 19.7108 4.30021 19.7578 4.55541 19.8496 4.72847L 19.8496 4.78433L 18.8923 4.78433ZM 18.1085 4.12385C 18.2484 4.12385 18.3775 4.0932 18.4954 4.03184C 18.6137 3.96832 18.701 3.88398 18.758 3.77881L 18.758 3.16765L 18.4036 3.16765C 17.9295 3.16765 17.6769 3.33193 17.6463 3.66052L 17.643 3.71641C 17.643 3.8347 17.6848 3.93217 17.7676 4.00885C 17.8508 4.08553 17.9645 4.12385 18.1085 4.12385ZM 23.4562 8.65981e-08L 24.6825 3.46996L 25.9023 8.65981e-08L 27.1942 8.65981e-08L 27.1942 4.78433L 26.2071 4.78433L 26.2071 3.47654L 26.3056 1.21909L 25.0171 4.78433L 24.3415 4.78433L 23.0563 1.22237L 23.1548 3.47654L 23.1548 4.78433L 22.1711 4.78433L 22.1711 8.65981e-08L 23.4562 8.65981e-08ZM 27.8433 2.97376C 27.8433 2.6211 27.9112 2.30671 28.0466 2.03071C 28.1821 1.75469 28.3768 1.54111 28.6301 1.38995C 28.886 1.2388 29.1822 1.16322 29.5187 1.16322C 29.9973 1.16322 30.3875 1.30999 30.6893 1.60354C 30.993 1.89708 31.1624 2.29579 31.1974 2.79962L 31.2041 3.04278C 31.2041 3.58825 31.0523 4.02639 30.7483 4.35715C 30.4446 4.68574 30.0369 4.85005 29.5254 4.85005C 29.014 4.85005 28.6051 4.68574 28.2992 4.35715C 27.9952 4.02855 27.8433 3.58167 27.8433 3.0165L 27.8433 2.97376ZM 28.7909 3.04278C 28.7909 3.38012 28.8543 3.63861 28.9811 3.81825C 29.108 3.99569 29.2893 4.08441 29.5254 4.08441C 29.7548 4.08441 29.9343 3.99681 30.063 3.82154C 30.1921 3.64411 30.2566 3.3615 30.2566 2.97376C 30.2566 2.643 30.1921 2.38668 30.063 2.20487C 29.9343 2.02304 29.7526 1.93213 29.5187 1.93213C 29.287 1.93213 29.108 2.02304 28.9811 2.20487C 28.8543 2.38451 28.7909 2.66379 28.7909 3.04278ZM 32.922 0.354882L 32.922 1.22894L 33.5286 1.22894L 33.5286 1.92556L 32.922 1.92556L 32.922 3.69996C 32.922 3.83141 32.9474 3.92559 32.9974 3.98257C 33.0478 4.03951 33.144 4.068 33.2861 4.068C 33.391 4.068 33.4839 4.06033 33.5648 4.045L 33.5648 4.76462C 33.379 4.82156 33.1877 4.85005 32.9911 4.85005C 32.3267 4.85005 31.9876 4.5138 31.9745 3.84125L 31.9745 1.92556L 31.4567 1.92556L 31.4567 1.22894L 31.9745 1.22894L 31.9745 0.354882L 32.922 0.354882ZM 33.8107 2.97376C 33.8107 2.6211 33.8785 2.30671 34.014 2.03071C 34.1494 1.75469 34.3441 1.54111 34.5978 1.38995C 34.8533 1.2388 35.1495 1.16322 35.486 1.16322C 35.965 1.16322 36.3549 1.30999 36.6567 1.60354C 36.9603 1.89708 37.1301 2.29579 37.1648 2.79962L 37.1715 3.04278C 37.1715 3.58825 37.0196 4.02639 36.7156 4.35715C 36.4119 4.68574 36.0042 4.85005 35.4927 4.85005C 34.9813 4.85005 34.5724 4.68574 34.2665 4.35715C 33.9625 4.02855 33.8107 3.58167 33.8107 3.0165L 33.8107 2.97376ZM 34.7582 3.04278C 34.7582 3.38012 34.8216 3.63861 34.9485 3.81825C 35.0753 3.99569 35.2566 4.08441 35.4927 4.08441C 35.7222 4.08441 35.9016 3.99681 36.0303 3.82154C 36.1594 3.64411 36.2239 3.3615 36.2239 2.97376C 36.2239 2.643 36.1594 2.38668 36.0303 2.20487C 35.9016 2.02304 35.7199 1.93213 35.486 1.93213C 35.2544 1.93213 35.0753 2.02304 34.9485 2.20487C 34.8216 2.38451 34.7582 2.66379 34.7582 3.04278ZM 39.7485 2.11943C 39.6194 2.10191 39.506 2.09314 39.4075 2.09314C 39.049 2.09314 38.814 2.21474 38.7025 2.45787L 38.7025 4.78433L 37.7549 4.78433L 37.7549 1.22894L 38.6502 1.22894L 38.6764 1.65283C 38.8666 1.32643 39.13 1.16322 39.4665 1.16322C 39.5717 1.16322 39.6698 1.17746 39.7616 1.20594L 39.7485 2.11943Z"/>
<path id="path10_fill" d="M 3.21973 4.85004L 0.0918079 4.85004L 0.0918079 4.41303L 1.74431 2.5729C 1.98911 2.29467 2.15743 2.06904 2.24924 1.89599C 2.34321 1.72074 2.39021 1.54001 2.39021 1.35381C 2.39021 1.10408 2.31482 0.899254 2.164 0.739336C 2.01317 0.579422 1.81206 0.499463 1.5607 0.499463C 1.25905 0.499463 1.02406 0.585995 0.855742 0.759054C 0.689623 0.929922 0.606544 1.1687 0.606544 1.47539L 1.81016e-07 1.47539C 1.81016e-07 1.03507 0.140976 0.679095 0.422965 0.407458C 0.707118 0.135818 1.08636 -2.41881e-08 1.5607 -2.41881e-08C 2.0044 -2.41881e-08 2.35522 0.1172 2.61319 0.351595C 2.87112 0.583804 3.00008 0.893777 3.00008 1.28152C 3.00008 1.7525 2.70059 2.31328 2.1017 2.96392L 0.822951 4.35389L 3.21973 4.35389L 3.21973 4.85004Z"/>
<path id="path11_fill" d="M 0.970493 2.16215L 1.42625 2.16215C 1.7126 2.15777 1.93774 2.08219 2.10166 1.93542C 2.26562 1.78864 2.34757 1.59039 2.34757 1.34066C 2.34757 0.779863 2.06891 0.499463 1.51149 0.499463C 1.2492 0.499463 1.03936 0.57504 0.881968 0.726195C 0.726779 0.875154 0.649184 1.07341 0.649184 1.32095L 0.0426023 1.32095C 0.0426023 0.941972 0.180333 0.627614 0.45572 0.377886C 0.733345 0.125963 1.08524 -2.41881e-08 1.51149 -2.41881e-08C 1.96177 -2.41881e-08 2.31478 0.119391 2.57055 0.358168C 2.82627 0.596945 2.95416 0.928827 2.95416 1.35381C 2.95416 1.56192 2.88641 1.76345 2.75088 1.95842C 2.61755 2.15339 2.43502 2.29908 2.20332 2.39546C 2.46561 2.47868 2.6678 2.61671 2.8099 2.80948C 2.95416 3.00225 3.0263 3.23774 3.0263 3.51594C 3.0263 3.94532 2.88641 4.28595 2.60662 4.53787C 2.32683 4.78981 1.96288 4.91577 1.51478 4.91577C 1.06667 4.91577 0.701635 4.79419 0.419682 4.55102C 0.139894 4.30786 -3.41539e-07 3.98694 -3.41539e-07 3.58824L 0.609827 3.58824C 0.609827 3.84016 0.691824 4.04171 0.855743 4.19286C 1.0197 4.34402 1.23935 4.41957 1.51478 4.41957C 1.8077 4.41957 2.03175 4.34293 2.18694 4.18957C 2.34213 4.03621 2.41972 3.81608 2.41972 3.5291C 2.41972 3.2509 2.33448 3.03731 2.16396 2.88833C 1.99347 2.73938 1.74756 2.6627 1.42625 2.65833L 0.970493 2.65833L 0.970493 2.16215Z"/>
<path id="path12_fill" d="M 0.186526 0.186933L 0.186526 0L 0 0L 0 0.186933L 0.186526 0.186933ZM 19.5852 0.186933L 19.7717 0.186933L 19.7717 0L 19.5852 0L 19.5852 0.186933ZM 19.5852 11.4719L 19.5852 11.6588L 19.7717 11.6588L 19.7717 11.4719L 19.5852 11.4719ZM 0.186526 11.4719L 0 11.4719L 0 11.6588L 0.186526 11.6588L 0.186526 11.4719ZM 0.186526 0.373867L 19.5852 0.373867L 19.5852 0L 0.186526 0L 0.186526 0.373867ZM 19.3987 0.186933L 19.3987 11.4719L 19.7717 11.4719L 19.7717 0.186933L 19.3987 0.186933ZM 19.5852 11.285L 0.186526 11.285L 0.186526 11.6588L 19.5852 11.6588L 19.5852 11.285ZM 0.373051 11.4719L 0.373051 0.186933L 0 0.186933L 0 11.4719L 0.373051 11.4719Z"/>
<path id="path13_fill" d="M 2.78367 3.17748L 3.44599 3.17748L 3.44599 3.67368L 2.78367 3.67368L 2.78367 4.78433L 2.17384 4.78433L 2.17384 3.67368L -6.03385e-08 3.67368L -6.03385e-08 3.31552L 2.13777 8.65981e-08L 2.78367 8.65981e-08L 2.78367 3.17748ZM 0.688541 3.17748L 2.17384 3.17748L 2.17384 0.831345L 2.1017 0.962781L 0.688541 3.17748Z"/>
<path id="path14_fill" d="M 0.170484 2.3856L 0.413117 8.65981e-08L 2.8591 8.65981e-08L 2.8591 0.561895L 0.927891 0.561895L 0.783632 1.86641C 1.0175 1.7284 1.28311 1.6594 1.58036 1.6594C 2.01534 1.6594 2.36071 1.80398 2.61647 2.09314C 2.8722 2.3801 3.00008 2.76896 3.00008 3.25966C 3.00008 3.75253 2.86675 4.14139 2.60006 4.42616C 2.33556 4.70877 1.96509 4.85005 1.48855 4.85005C 1.0667 4.85005 0.722414 4.73284 0.455757 4.49847C 0.189062 4.26405 0.0371562 3.93984 3.256e-07 3.52582L 0.57379 3.52582C 0.610946 3.79964 0.708201 4.00665 0.865591 4.14685C 1.02298 4.28488 1.23062 4.35386 1.48855 4.35386C 1.77054 4.35386 1.99131 4.25747 2.15086 4.06471C 2.31262 3.87194 2.3935 3.60579 2.3935 3.26624C 2.3935 2.9464 2.30605 2.69007 2.1312 2.49731C 1.95852 2.30234 1.7279 2.20487 1.43938 2.20487C 1.17489 2.20487 0.967248 2.26293 0.816423 2.37902L 0.65575 2.51047L 0.170484 2.3856Z"/>
</defs>
</svg>
