<svg width="276" height="256" viewBox="0 0 276 256" fill="none" xmlns="http://www.w3.org/2000/svg">
<rect width="276" height="256" fill="white"/>
<rect x="106" y="36" width="25" height="25" fill="#31CB8A"/>
<rect x="77" y="74" width="25" height="25" fill="#31CB8A"/>
<rect x="29" y="116" width="25" height="25" fill="#29A1F8"/>
<rect x="107" y="158" width="25" height="25" fill="#29A1F8"/>
<rect x="153" y="189" width="25" height="25" fill="#29A1F8"/>
<rect x="178" y="91" width="25" height="25" fill="#29A1F8"/>
<rect x="119" y="110" width="25" height="25" fill="#31CB8A"/>
<rect x="70" y="128" width="25" height="25" fill="#31CB8A"/>
<rect x="65" y="176" width="25" height="25" fill="#31CB8A"/>
<rect x="144" y="61" width="25" height="25" fill="#31CB8A"/>
<rect x="207" y="48" width="25" height="25" fill="#29A1F8"/>
<rect x="219" y="120" width="25" height="25" fill="#29A1F8"/>
<rect x="165" y="145" width="25" height="25" fill="#29A1F8"/>
<rect x="216" y="170" width="25" height="25" fill="#31CB8A"/>
</svg>
