<svg width="276" height="256" viewBox="0 0 276 256" fill="none" xmlns="http://www.w3.org/2000/svg">
<rect width="276" height="256" fill="white"/>
<rect x="22" y="120" width="25" height="25" rx="12.5" fill="#30394B"/>
<rect x="100" y="162" width="25" height="25" rx="12.5" fill="#30394B"/>
<rect x="146" y="193" width="25" height="25" rx="12.5" fill="#30394B"/>
<rect x="171" y="95" width="25" height="25" rx="12.5" fill="#30394B"/>
<rect x="200" y="52" width="25" height="25" rx="12.5" fill="#30394B"/>
<rect x="212" y="124" width="25" height="25" rx="12.5" fill="#30394B"/>
<rect x="158" y="149" width="25" height="25" rx="12.5" fill="#30394B"/>
<path d="M99.5 32L113.789 56.75H85.2106L99.5 32Z" fill="#30394B"/>
<path d="M149.5 65L163.789 89.75H135.211L149.5 65Z" fill="#30394B"/>
<path d="M75.5 75L89.7894 99.75H61.2106L75.5 75Z" fill="#30394B"/>
<path d="M124.5 114L138.789 138.75H110.211L124.5 114Z" fill="#30394B"/>
<path d="M75.5 132L89.7894 156.75H61.2106L75.5 132Z" fill="#30394B"/>
<path d="M70.5 180L84.7894 204.75H56.2106L70.5 180Z" fill="#30394B"/>
<path d="M221.5 174L235.789 198.75H207.211L221.5 174Z" fill="#30394B"/>
</svg>
