<svg width="558" height="207" viewBox="0 0 558 207" fill="none" xmlns="http://www.w3.org/2000/svg">
<rect width="558" height="207" fill="white"/>
<rect x="376" y="120" width="15" height="15" fill="#30394B"/>
<rect x="456" y="120" width="15" height="15" fill="#30394B"/>
<rect x="376" y="140" width="35" height="35" fill="#30394B"/>
<rect x="396" y="120" width="15" height="15" fill="#30394B"/>
<rect x="476" y="120" width="15" height="15" fill="#30394B"/>
<rect x="416" y="140" width="35" height="35" fill="#30394B"/>
<rect x="416" y="120" width="15" height="15" fill="#30394B"/>
<rect x="496" y="120" width="15" height="15" fill="#30394B"/>
<rect x="456" y="140" width="35" height="35" fill="#30394B"/>
<rect x="436" y="120" width="15" height="15" fill="#30394B"/>
<rect x="516" y="120" width="15" height="15" fill="#30394B"/>
<rect x="496" y="140" width="35" height="35" fill="#30394B"/>
<rect x="26" y="120" width="25" height="25" rx="12.5" fill="#31CB8A"/>
<rect x="26" y="150" width="25" height="25" rx="12.5" fill="#31CB8A"/>
<rect x="56" y="120" width="25" height="25" rx="12.5" fill="#29A1F8"/>
<rect x="56" y="150" width="25" height="25" rx="12.5" fill="#29A1F8"/>
<rect x="86" y="120" width="25" height="25" rx="12.5" fill="#29A1F8"/>
<rect x="86" y="150" width="25" height="25" rx="12.5" fill="#31CB8A"/>
<rect x="116" y="120" width="25" height="25" rx="12.5" fill="#29A1F8"/>
<rect x="116" y="150" width="25" height="25" rx="12.5" fill="#31CB8A"/>
<rect x="261" y="120" width="25" height="25" rx="12.5" fill="#30394B"/>
<rect x="261" y="150" width="25" height="25" rx="12.5" fill="#30394B"/>
<rect x="291" y="120" width="25" height="25" rx="12.5" fill="#30394B"/>
<rect x="291" y="150" width="25" height="25" rx="12.5" fill="#30394B"/>
<path d="M206.816 37.032C208.424 38.52 210.584 39.288 212.624 39.288C216.344 39.288 218.504 37.032 218.504 34.44C218.504 32.232 217.304 30.96 215.408 30.192L213.416 29.376C212.048 28.824 211.016 28.488 211.016 27.528C211.016 26.64 211.808 26.112 213.008 26.112C214.256 26.112 215.24 26.568 216.272 27.36L218.048 25.128C216.704 23.784 214.808 23.064 213.008 23.064C209.768 23.064 207.44 25.128 207.44 27.72C207.44 30 208.976 31.344 210.608 31.992L212.624 32.856C213.992 33.432 214.88 33.744 214.88 34.728C214.88 35.664 214.16 36.24 212.696 36.24C211.4 36.24 209.96 35.568 208.856 34.608L206.816 37.032ZM222.601 25.344C223.801 25.344 224.641 24.576 224.641 23.496C224.641 22.416 223.801 21.672 222.601 21.672C221.425 21.672 220.561 22.416 220.561 23.496C220.561 24.576 221.425 25.344 222.601 25.344ZM220.849 39H224.377V27.096H220.849V39ZM227.482 39H231.01V30.96C231.754 30.192 232.45 29.808 233.026 29.808C234.034 29.808 234.49 30.336 234.49 32.064V39H238.018V30.96C238.786 30.192 239.458 29.808 240.058 29.808C241.066 29.808 241.522 30.336 241.522 32.064V39H245.05V31.608C245.05 28.632 243.898 26.808 241.33 26.808C239.746 26.808 238.642 27.72 237.586 28.8C236.986 27.528 235.978 26.808 234.298 26.808C232.738 26.808 231.682 27.648 230.698 28.632H230.602L230.362 27.096H227.482V39ZM249.812 25.344C251.012 25.344 251.852 24.576 251.852 23.496C251.852 22.416 251.012 21.672 249.812 21.672C248.636 21.672 247.772 22.416 247.772 23.496C247.772 24.576 248.636 25.344 249.812 25.344ZM248.06 39H251.588V27.096H248.06V39ZM254.693 35.304C254.693 37.704 255.509 39.288 257.933 39.288C258.725 39.288 259.325 39.168 259.709 39L259.277 36.384C259.085 36.432 258.989 36.432 258.845 36.432C258.557 36.432 258.221 36.192 258.221 35.448V22.176H254.693V35.304ZM261.128 35.688C261.128 37.704 262.496 39.288 264.656 39.288C266 39.288 267.128 38.664 268.136 37.776H268.208L268.472 39H271.352V32.184C271.352 28.536 269.672 26.808 266.624 26.808C264.752 26.808 263.048 27.456 261.536 28.368L262.784 30.696C263.936 30.024 264.944 29.616 265.952 29.616C267.224 29.616 267.752 30.288 267.824 31.344C263.12 31.824 261.128 33.192 261.128 35.688ZM264.488 35.424C264.488 34.512 265.304 33.792 267.824 33.456V35.544C267.2 36.168 266.672 36.552 265.856 36.552C265.016 36.552 264.488 36.192 264.488 35.424ZM274.38 39H277.908V32.088C278.532 30.48 279.636 29.904 280.524 29.904C281.028 29.904 281.388 29.976 281.82 30.096L282.396 27.048C282.06 26.904 281.652 26.808 280.98 26.808C279.756 26.808 278.46 27.576 277.596 29.184H277.5L277.26 27.096H274.38V39ZM285.695 25.344C286.895 25.344 287.735 24.576 287.735 23.496C287.735 22.416 286.895 21.672 285.695 21.672C284.519 21.672 283.655 22.416 283.655 23.496C283.655 24.576 284.519 25.344 285.695 25.344ZM283.943 39H287.471V27.096H283.943V39ZM291.056 34.68C291.056 37.44 292.208 39.288 295.16 39.288C296.312 39.288 297.176 39.048 297.8 38.856L297.248 36.288C296.936 36.408 296.504 36.528 296.12 36.528C295.184 36.528 294.584 35.976 294.584 34.632V29.856H297.44V27.096H294.584V23.928H291.656L291.248 27.096L289.424 27.24V29.856H291.056V34.68ZM300.027 40.728L299.403 43.416C299.883 43.56 300.363 43.656 301.083 43.656C303.891 43.656 305.163 42.12 306.291 39.12L310.419 27.096H307.035L305.595 32.208C305.307 33.336 305.043 34.464 304.779 35.592H304.683C304.371 34.416 304.083 33.288 303.747 32.208L302.043 27.096H298.491L303.075 38.688L302.907 39.312C302.595 40.248 301.995 40.872 300.819 40.872C300.555 40.872 300.243 40.776 300.027 40.728Z" fill="#30394B"/>
<path d="M64.4342 87.374C64.4342 90.326 66.0542 92.216 68.7542 92.216C70.2662 92.216 71.4362 91.514 72.2282 90.812L71.3822 89.57C70.6982 90.146 69.9602 90.542 69.1322 90.542C67.2242 90.542 66.4142 89.21 66.4142 87.23C66.4142 84.494 68.1062 81.686 70.5002 81.686C71.2742 81.686 71.8322 82.118 72.2822 82.838L73.6142 81.812C72.9842 80.732 71.9582 80.012 70.6082 80.012C67.0082 80.012 64.4342 83.486 64.4342 87.374ZM77.3689 92.216C79.7989 92.216 82.2469 89.912 82.2469 86.546C82.2469 84.332 80.9329 82.946 78.9349 82.946C76.5229 82.946 74.0749 85.232 74.0749 88.616C74.0749 90.812 75.3889 92.216 77.3689 92.216ZM78.7369 84.512C79.7449 84.512 80.2849 85.268 80.2849 86.6C80.2849 88.868 78.9889 90.65 77.5849 90.65C76.5589 90.65 76.0189 89.876 76.0189 88.544C76.0189 86.294 77.3329 84.512 78.7369 84.512ZM83.7483 89.84C83.6583 90.218 83.6223 90.506 83.6223 90.776C83.6223 91.676 84.0903 92.216 85.1163 92.216C85.6023 92.216 85.9443 92.144 86.2143 92.036L86.2503 90.596C86.0883 90.65 86.0343 90.65 85.9263 90.65C85.7463 90.65 85.6203 90.542 85.6203 90.272C85.6203 90.2 85.6203 90.11 85.6563 89.93L87.7803 79.292H85.8543L83.7483 89.84ZM91.5193 92.216C93.9493 92.216 96.3973 89.912 96.3973 86.546C96.3973 84.332 95.0833 82.946 93.0853 82.946C90.6733 82.946 88.2253 85.232 88.2253 88.616C88.2253 90.812 89.5393 92.216 91.5193 92.216ZM92.8873 84.512C93.8953 84.512 94.4353 85.268 94.4353 86.6C94.4353 88.868 93.1393 90.65 91.7353 90.65C90.7093 90.65 90.1693 89.876 90.1693 88.544C90.1693 86.294 91.4833 84.512 92.8873 84.512ZM97.4487 92H99.3927L100.437 86.654C101.157 85.304 102.003 84.656 102.831 84.656C103.137 84.656 103.443 84.692 103.659 84.8L104.307 83.108C104.073 83 103.803 82.946 103.425 82.946C102.363 82.946 101.391 83.774 100.689 84.872H100.617L100.779 83.162H99.2127L97.4487 92Z" fill="#30394B"/>
<path d="M235.001 90.074C236.063 91.568 237.503 92.216 239.069 92.216C241.625 92.216 243.353 90.614 243.353 88.508C243.353 87.158 242.777 86.384 241.643 85.718L240.383 84.962C239.483 84.422 238.889 84.026 238.889 83.27C238.889 82.46 239.555 81.686 240.689 81.686C241.661 81.686 242.417 82.208 243.011 82.874L244.253 81.74C243.425 80.714 242.201 80.012 240.797 80.012C238.583 80.012 236.891 81.578 236.891 83.468C236.891 84.854 237.647 85.7 238.673 86.33L239.915 87.086C240.779 87.608 241.337 88.04 241.337 88.778C241.337 89.876 240.455 90.56 239.231 90.56C238.079 90.56 237.089 89.948 236.405 88.994L235.001 90.074ZM244.57 92H246.514L247.702 85.97C248.638 85.016 249.322 84.602 249.934 84.602C250.69 84.602 251.05 84.98 251.05 85.736C251.05 86.006 250.978 86.258 250.906 86.672L249.826 92H251.752L252.868 86.42C252.976 85.952 253.012 85.592 253.012 85.178C253.012 83.756 252.4 82.946 250.924 82.946C249.862 82.946 248.908 83.54 248.008 84.314H247.936L248.278 83.036L249.052 79.292H247.126L244.57 92ZM254.401 88.994C254.401 91.064 255.373 92.216 256.921 92.216C257.929 92.216 259.009 91.64 259.837 90.776H259.891L259.801 92H261.385L263.149 83.162H261.601L261.223 84.188H261.187C260.791 83.432 260.017 82.946 259.153 82.946C256.705 82.946 254.401 85.61 254.401 88.994ZM257.713 90.632C256.903 90.632 256.399 90.02 256.399 88.724C256.399 86.456 257.767 84.53 259.261 84.53C259.801 84.53 260.359 84.854 260.755 85.61L260.035 89.138C259.315 90.2 258.469 90.632 257.713 90.632ZM265.975 91.064H266.011C266.443 91.748 267.145 92.216 267.973 92.216C270.403 92.216 272.707 89.552 272.707 86.168C272.707 84.098 271.753 82.946 270.187 82.946C269.179 82.946 268.171 83.504 267.325 84.242H267.271L267.307 83.162H265.741L263.256 95.492H265.183L265.687 92.864L265.975 91.064ZM269.395 84.53C270.205 84.53 270.727 85.142 270.727 86.42C270.727 88.706 269.341 90.632 267.847 90.632C267.289 90.632 266.767 90.326 266.389 89.588L267.145 85.808C267.811 84.944 268.711 84.53 269.395 84.53ZM273.948 88.472C273.948 90.848 275.388 92.216 277.494 92.216C278.754 92.216 279.798 91.784 280.518 91.28L279.798 90.038C279.312 90.398 278.628 90.74 277.998 90.74C276.666 90.74 275.622 89.948 275.82 88.076H281.202C281.328 87.788 281.58 86.978 281.58 86.204C281.58 84.368 280.824 82.946 278.772 82.946C276.45 82.946 273.948 85.178 273.948 88.472ZM275.982 86.852C276.414 85.34 277.476 84.44 278.538 84.44C279.618 84.44 279.978 85.214 279.978 86.078C279.978 86.366 279.942 86.618 279.888 86.852H275.982Z" fill="#30394B"/>
<path d="M438.58 90.074C439.642 91.568 441.082 92.216 442.648 92.216C445.204 92.216 446.932 90.614 446.932 88.508C446.932 87.158 446.356 86.384 445.222 85.718L443.962 84.962C443.062 84.422 442.468 84.026 442.468 83.27C442.468 82.46 443.134 81.686 444.268 81.686C445.24 81.686 445.996 82.208 446.59 82.874L447.832 81.74C447.004 80.714 445.78 80.012 444.376 80.012C442.162 80.012 440.47 81.578 440.47 83.468C440.47 84.854 441.226 85.7 442.252 86.33L443.494 87.086C444.358 87.608 444.916 88.04 444.916 88.778C444.916 89.876 444.034 90.56 442.81 90.56C441.658 90.56 440.668 89.948 439.984 88.994L438.58 90.074ZM448.148 92H450.092L451.856 83.162H449.93L448.148 92ZM451.352 81.596C452.072 81.596 452.648 81.056 452.648 80.336C452.648 79.688 452.108 79.328 451.55 79.328C450.83 79.328 450.254 79.904 450.254 80.588C450.254 81.236 450.794 81.596 451.352 81.596ZM452.09 92H458.66L458.966 90.47H454.808L460.082 84.278L460.298 83.162H454.268L453.962 84.692H457.562L452.306 90.902L452.09 92ZM460.369 88.472C460.369 90.848 461.809 92.216 463.915 92.216C465.175 92.216 466.219 91.784 466.939 91.28L466.219 90.038C465.733 90.398 465.049 90.74 464.419 90.74C463.087 90.74 462.043 89.948 462.241 88.076H467.623C467.749 87.788 468.001 86.978 468.001 86.204C468.001 84.368 467.245 82.946 465.193 82.946C462.871 82.946 460.369 85.178 460.369 88.472ZM462.403 86.852C462.835 85.34 463.897 84.44 464.959 84.44C466.039 84.44 466.399 85.214 466.399 86.078C466.399 86.366 466.363 86.618 466.309 86.852H462.403Z" fill="#30394B"/>
<path d="M243.5 121L256.923 144.25H230.077L243.5 121Z" fill="#30394B"/>
<path d="M243.5 151L256.923 174.25H230.077L243.5 151Z" fill="#30394B"/>
<path d="M213.5 121L226.923 144.25H200.077L213.5 121Z" fill="#30394B"/>
<path d="M213.5 151L226.923 174.25H200.077L213.5 151Z" fill="#30394B"/>
</svg>
