<svg width="600" height="296" viewBox="0 0 600 296" fill="none" xmlns="http://www.w3.org/2000/svg">
<rect width="600" height="296" fill="white"/>
<rect opacity="0.05" x="76" y="103" width="57" height="175" fill="#31CB8A"/>
<rect opacity="0.2" x="296" y="103" width="57" height="175" fill="#31CB8A"/>
<rect x="516" y="103" width="57" height="175" fill="#31CB8A"/>
<rect x="27" y="113" width="30" height="30" fill="#30394B"/>
<rect x="247" y="113" width="30" height="30" fill="#30394B"/>
<rect x="467" y="113" width="30" height="30" fill="#30394B"/>
<rect x="27" y="173" width="30" height="30" fill="#30394B"/>
<rect x="247" y="173" width="30" height="30" fill="#30394B"/>
<rect x="467" y="173" width="30" height="30" fill="#30394B"/>
<rect x="27" y="233" width="30" height="30" fill="#30394B"/>
<rect x="247" y="233" width="30" height="30" fill="#30394B"/>
<rect x="467" y="233" width="30" height="30" fill="#30394B"/>
<rect x="87" y="111" width="34" height="34" rx="17" fill="#30394B"/>
<rect x="307" y="111" width="34" height="34" rx="17" fill="#30394B"/>
<rect x="527" y="111" width="34" height="34" rx="17" fill="#30394B"/>
<rect x="87" y="171" width="34" height="34" rx="17" fill="#30394B"/>
<rect x="307" y="171" width="34" height="34" rx="17" fill="#30394B"/>
<rect x="527" y="171" width="34" height="34" rx="17" fill="#30394B"/>
<rect x="87" y="231" width="34" height="34" rx="17" fill="#30394B"/>
<rect x="307" y="231" width="34" height="34" rx="17" fill="#30394B"/>
<rect x="527" y="231" width="34" height="34" rx="17" fill="#30394B"/>
<line x1="49" y1="128" x2="99" y2="128" stroke="#30394B" stroke-width="10"/>
<line x1="269" y1="130" x2="319" y2="130" stroke="#30394B" stroke-width="4" stroke-dasharray="4 4"/>
<line opacity="0.25" x1="489" y1="130" x2="539" y2="130" stroke="#30394B" stroke-width="4" stroke-dasharray="4 4"/>
<line x1="49" y1="187" x2="99" y2="187" stroke="#30394B" stroke-width="10"/>
<line x1="269" y1="189" x2="319" y2="189" stroke="#30394B" stroke-width="4" stroke-dasharray="4 4"/>
<line opacity="0.25" x1="489" y1="189" x2="539" y2="189" stroke="#30394B" stroke-width="4" stroke-dasharray="4 4"/>
<line x1="49" y1="248" x2="99" y2="248" stroke="#30394B" stroke-width="10"/>
<line x1="269" y1="250" x2="319" y2="250" stroke="#30394B" stroke-width="4" stroke-dasharray="4 4"/>
<line opacity="0.25" x1="489" y1="250" x2="539" y2="250" stroke="#30394B" stroke-width="4" stroke-dasharray="4 4"/>
<path d="M28.008 58.302C28.008 61.38 29.754 63.216 32.472 63.216C34.074 63.216 35.316 62.424 36.018 61.776L34.992 60.192C34.38 60.714 33.696 61.092 32.994 61.092C31.266 61.092 30.546 59.958 30.546 58.14C30.546 55.53 32.13 53.19 34.128 53.19C34.776 53.19 35.262 53.532 35.694 54.216L37.386 52.92C36.72 51.75 35.622 51.048 34.254 51.048C30.744 51.048 28.008 54.252 28.008 58.302ZM41.2089 63.216C43.6749 63.216 46.2129 60.984 46.2129 57.528C46.2129 55.314 44.8269 53.856 42.7569 53.856C40.2909 53.856 37.7529 56.088 37.7529 59.544C37.7529 61.758 39.1209 63.216 41.2089 63.216ZM42.4689 55.836C43.2969 55.836 43.7289 56.484 43.7289 57.582C43.7289 59.67 42.6849 61.236 41.4789 61.236C40.6509 61.236 40.2369 60.57 40.2369 59.49C40.2369 57.402 41.2809 55.836 42.4689 55.836ZM47.0625 63H49.5285L50.6805 57.114C51.4545 56.322 51.9945 55.962 52.5525 55.962C53.1465 55.962 53.4705 56.268 53.4705 56.88C53.4705 57.114 53.3985 57.366 53.3265 57.726L52.2645 63H54.7305L55.8465 57.42C55.9365 56.97 55.9905 56.556 55.9905 56.142C55.9905 54.666 55.3425 53.856 53.8665 53.856C52.7325 53.856 51.7425 54.504 50.8605 55.26H50.7885L50.8245 54.072H48.8265L47.0625 63ZM56.9942 63H59.4602L60.6122 57.114C61.3862 56.322 61.9262 55.962 62.4842 55.962C63.0782 55.962 63.4022 56.268 63.4022 56.88C63.4022 57.114 63.3302 57.366 63.2582 57.726L62.1962 63H64.6622L65.7782 57.42C65.8682 56.97 65.9222 56.556 65.9222 56.142C65.9222 54.666 65.2742 53.856 63.7982 53.856C62.6642 53.856 61.6742 54.504 60.7922 55.26H60.7202L60.7562 54.072H58.7582L56.9942 63ZM67.1958 59.4C67.1958 61.776 68.6898 63.216 70.8498 63.216C72.2358 63.216 73.3338 62.784 74.0538 62.28L73.1898 60.732C72.7398 61.038 72.0918 61.362 71.5338 61.362C70.3638 61.362 69.4638 60.732 69.5358 59.238H74.6118C74.7558 58.968 75.0798 58.05 75.0798 57.204C75.0798 55.35 74.2878 53.856 72.1638 53.856C69.7878 53.856 67.1958 56.088 67.1958 59.4ZM69.7338 57.726C70.1298 56.412 71.0118 55.746 71.8578 55.746C72.7578 55.746 73.0638 56.34 73.0638 57.06C73.0638 57.312 73.0278 57.546 72.9738 57.726H69.7338ZM76.1255 59.544C76.1255 61.866 77.6375 63.216 79.6175 63.216C81.0215 63.216 81.9395 62.676 82.6055 62.172L81.5795 60.66C81.2015 60.948 80.7695 61.236 80.1575 61.236C79.1495 61.236 78.6455 60.57 78.6455 59.49C78.6455 57.492 79.7975 55.836 81.2195 55.836C81.7235 55.836 82.0475 56.034 82.4075 56.412L83.7755 54.954C83.3255 54.396 82.4975 53.856 81.3815 53.856C78.4475 53.856 76.1255 56.448 76.1255 59.544ZM84.844 59.724C84.772 60.102 84.7 60.48 84.7 60.858C84.7 62.226 85.438 63.216 87.238 63.216C88.156 63.216 88.858 63 89.326 62.82L88.894 61.092C88.66 61.2 88.426 61.29 88.156 61.29C87.526 61.29 87.238 61.002 87.238 60.426C87.238 60.228 87.238 60.048 87.274 59.832L88.048 55.998H90.136L90.514 54.072H88.48L88.93 51.732H86.86L86.104 54.072L84.79 54.18L84.43 55.998H85.618L84.844 59.724ZM90.4454 63H92.9114L94.6934 54.072H92.2454L90.4454 63ZM93.9374 52.74C94.8014 52.74 95.4674 52.128 95.4674 51.282C95.4674 50.508 94.8194 50.094 94.1354 50.094C93.2894 50.094 92.6054 50.76 92.6054 51.552C92.6054 52.344 93.2714 52.74 93.9374 52.74ZM98.953 63.216C101.419 63.216 103.957 60.984 103.957 57.528C103.957 55.314 102.571 53.856 100.501 53.856C98.035 53.856 95.497 56.088 95.497 59.544C95.497 61.758 96.865 63.216 98.953 63.216ZM100.213 55.836C101.041 55.836 101.473 56.484 101.473 57.582C101.473 59.67 100.429 61.236 99.223 61.236C98.395 61.236 97.981 60.57 97.981 59.49C97.981 57.402 99.025 55.836 100.213 55.836ZM104.807 63H107.273L108.425 57.114C109.199 56.322 109.739 55.962 110.297 55.962C110.891 55.962 111.215 56.268 111.215 56.88C111.215 57.114 111.143 57.366 111.071 57.726L110.009 63H112.475L113.591 57.42C113.681 56.97 113.735 56.556 113.735 56.142C113.735 54.666 113.087 53.856 111.611 53.856C110.477 53.856 109.487 54.504 108.605 55.26H108.533L108.569 54.072H106.571L104.807 63Z" fill="#30394B"/>
<path d="M498.445 63H505.591L505.987 60.93H501.325L501.937 57.96H505.771L506.167 55.89H502.333L502.837 53.334H507.355L507.751 51.264H500.803L498.445 63ZM507.686 63H510.152L511.304 57.114C512.078 56.322 512.618 55.962 513.176 55.962C513.77 55.962 514.094 56.268 514.094 56.88C514.094 57.114 514.022 57.366 513.95 57.726L512.888 63H515.354L516.47 57.42C516.56 56.97 516.614 56.556 516.614 56.142C516.614 54.666 515.966 53.856 514.49 53.856C513.356 53.856 512.366 54.504 511.484 55.26H511.412L511.448 54.072H509.45L507.686 63ZM517.887 59.544C517.887 61.866 519.399 63.216 521.379 63.216C522.783 63.216 523.701 62.676 524.367 62.172L523.341 60.66C522.963 60.948 522.531 61.236 521.919 61.236C520.911 61.236 520.407 60.57 520.407 59.49C520.407 57.492 521.559 55.836 522.981 55.836C523.485 55.836 523.809 56.034 524.169 56.412L525.537 54.954C525.087 54.396 524.259 53.856 523.143 53.856C520.209 53.856 517.887 56.448 517.887 59.544ZM526.138 60.372C526.048 60.822 526.012 61.146 526.012 61.47C526.012 62.55 526.534 63.216 527.812 63.216C528.388 63.216 528.82 63.126 529.126 63.018L529.198 61.2C529.036 61.236 528.982 61.236 528.874 61.236C528.694 61.236 528.532 61.128 528.532 60.822C528.532 60.732 528.532 60.66 528.568 60.48L530.602 50.382H528.136L526.138 60.372ZM534.299 63.216C536.765 63.216 539.303 60.984 539.303 57.528C539.303 55.314 537.917 53.856 535.847 53.856C533.381 53.856 530.843 56.088 530.843 59.544C530.843 61.758 532.211 63.216 534.299 63.216ZM535.559 55.836C536.387 55.836 536.819 56.484 536.819 57.582C536.819 59.67 535.775 61.236 534.569 61.236C533.741 61.236 533.327 60.57 533.327 59.49C533.327 57.402 534.371 55.836 535.559 55.836ZM539.756 61.488C540.494 62.604 541.862 63.216 542.96 63.216C545.12 63.216 546.668 62.028 546.668 60.282C546.668 59.058 545.858 58.356 544.796 57.78C544.076 57.366 543.32 57.096 543.32 56.538C543.32 56.07 543.788 55.692 544.472 55.692C545.102 55.692 545.624 56.052 546.056 56.502L547.406 55.224C546.668 54.45 545.696 53.856 544.472 53.856C542.564 53.856 541.016 55.08 541.016 56.772C541.016 57.888 541.808 58.68 542.816 59.238C543.824 59.814 544.364 60.048 544.364 60.57C544.364 61.056 543.788 61.416 543.104 61.416C542.456 61.416 541.808 61.056 541.178 60.3L539.756 61.488ZM557.051 54.072H554.585L553.433 59.958C552.731 60.75 552.173 61.11 551.651 61.11C551.075 61.11 550.751 60.804 550.751 60.192C550.751 59.958 550.805 59.706 550.895 59.346L551.939 54.072H549.491L548.375 59.652C548.285 60.102 548.231 60.516 548.231 60.912C548.231 62.406 548.861 63.216 550.337 63.216C551.417 63.216 552.443 62.55 553.253 61.794H553.325L553.289 63H555.287L557.051 54.072ZM557.59 63H560.056L561.064 57.834C561.766 56.574 562.504 56.016 563.296 56.016C563.584 56.016 563.944 56.034 564.178 56.16L564.988 54.036C564.79 53.928 564.502 53.856 564.052 53.856C563.026 53.856 562.018 54.684 561.316 55.8H561.244L561.352 54.072H559.354L557.59 63ZM564.592 59.4C564.592 61.776 566.086 63.216 568.246 63.216C569.632 63.216 570.73 62.784 571.45 62.28L570.586 60.732C570.136 61.038 569.488 61.362 568.93 61.362C567.76 61.362 566.86 60.732 566.932 59.238H572.008C572.152 58.968 572.476 58.05 572.476 57.204C572.476 55.35 571.684 53.856 569.56 53.856C567.184 53.856 564.592 56.088 564.592 59.4ZM567.13 57.726C567.526 56.412 568.408 55.746 569.254 55.746C570.154 55.746 570.46 56.34 570.46 57.06C570.46 57.312 570.424 57.546 570.37 57.726H567.13Z" fill="#31CB8A"/>
<path d="M25.9393 20.9393C25.3536 21.5251 25.3536 22.4749 25.9393 23.0607L35.4853 32.6066C36.0711 33.1924 37.0208 33.1924 37.6066 32.6066C38.1924 32.0208 38.1924 31.0711 37.6066 30.4853L29.1213 22L37.6066 13.5147C38.1924 12.9289 38.1924 11.9792 37.6066 11.3934C37.0208 10.8076 36.0711 10.8076 35.4853 11.3934L25.9393 20.9393ZM574.061 23.0606C574.646 22.4748 574.646 21.5251 574.061 20.9393L564.515 11.3934C563.929 10.8076 562.979 10.8076 562.393 11.3934C561.808 11.9791 561.808 12.9289 562.393 13.5147L570.879 22L562.393 30.4852C561.808 31.071 561.808 32.0208 562.393 32.6066C562.979 33.1923 563.929 33.1923 564.515 32.6066L574.061 23.0606ZM27 23.5L573 23.5L573 20.5L27 20.5L27 23.5Z" fill="url(#paint0_linear)"/>
<defs>
<linearGradient id="paint0_linear" x1="27" y1="22" x2="573" y2="22" gradientUnits="userSpaceOnUse">
<stop stop-color="#30394B"/>
<stop offset="1" stop-color="#31CB8A"/>
</linearGradient>
</defs>
</svg>
