<svg width="495" height="330" viewBox="0 0 495 330" fill="none" xmlns="http://www.w3.org/2000/svg">
<g clip-path="url(#clip0)">
<rect width="495" height="330" fill="white"/>
<path d="M297.688 94H389.188C395.494 94 400.625 99.1316 400.625 105.438V170.669C405.471 165.713 412.223 162.625 419.688 162.625C421.796 162.625 423.5 164.329 423.5 166.438V285.727L426.063 284.838C426.234 284.777 426.409 284.8 426.585 284.766C426.825 284.716 427.061 284.667 427.305 284.667C427.561 284.667 427.801 284.716 428.049 284.762C428.285 284.812 428.506 284.854 428.727 284.941C428.956 285.033 429.147 285.163 429.353 285.296C429.562 285.429 429.761 285.559 429.94 285.734C430.119 285.906 430.252 286.108 430.394 286.314C430.496 286.459 430.638 286.566 430.721 286.729L453.596 332.479C454.538 334.363 453.776 336.654 451.892 337.596C451.347 337.87 450.764 338 450.192 338C448.793 338 447.447 337.23 446.776 335.892L425.399 293.138L348.6 319.849C348.596 319.852 348.588 319.853 348.581 319.856L344.974 321.111L350.659 332.479C351.6 334.363 350.838 336.654 348.954 337.596C348.409 337.87 347.826 338 347.254 338C345.855 338 344.509 337.23 343.838 335.892L336.213 320.642C336.179 320.573 336.186 320.504 336.156 320.44C336.118 320.352 336.057 320.279 336.022 320.188C335.965 320.024 335.988 319.856 335.954 319.689C335.897 319.433 335.847 319.182 335.851 318.926C335.851 318.682 335.897 318.453 335.939 318.213C335.988 317.973 336.03 317.74 336.125 317.512C336.221 317.283 336.346 317.092 336.48 316.886C336.613 316.681 336.739 316.486 336.915 316.307C337.09 316.128 337.296 315.99 337.502 315.846C337.647 315.75 337.749 315.605 337.913 315.525C337.993 315.487 338.077 315.491 338.157 315.457C338.234 315.426 338.283 315.361 338.367 315.335L340.563 314.572L299.807 269.375H297.688C291.382 269.375 286.25 264.243 286.25 257.938C277.84 257.938 271 251.098 271 242.688C271 238.109 273.07 234.045 276.273 231.25C273.07 228.452 271 224.388 271 219.809C271 215.234 273.066 211.166 276.269 208.371C273.066 205.577 271 201.509 271 196.934C271 192.359 273.066 188.295 276.269 185.5C273.066 182.702 271 178.638 271 174.062C271 165.652 277.84 158.812 286.25 158.812V105.438C286.25 99.1316 291.382 94 297.688 94V94ZM348.386 311.858L415.875 288.38V170.639C407.187 172.408 400.625 180.109 400.625 189.312V257.938C400.625 264.243 395.494 269.375 389.188 269.375H310.071L348.386 311.858ZM297.688 261.75H389.188C391.292 261.75 393 260.042 393 257.938V105.438C393 103.333 391.292 101.625 389.188 101.625H297.688C295.583 101.625 293.875 103.333 293.875 105.438V159.354C300.436 161.058 305.313 166.979 305.313 174.062C305.313 178.641 303.242 182.705 300.04 185.5C303.242 188.298 305.313 192.362 305.313 196.941C305.313 201.516 303.246 205.584 300.044 208.379C303.246 211.173 305.313 215.241 305.313 219.816C305.313 224.391 303.246 228.455 300.044 231.25C303.246 234.048 305.313 238.112 305.313 242.688C305.313 249.771 300.436 255.692 293.875 257.396V257.938C293.875 260.042 295.583 261.75 297.688 261.75V261.75ZM286.25 250.312H290.063C294.268 250.312 297.688 246.893 297.688 242.688C297.688 238.49 294.275 235.074 290.082 235.062C290.074 235.062 290.07 235.066 290.063 235.066C290.055 235.066 290.051 235.062 290.043 235.062H286.25C282.045 235.062 278.625 238.482 278.625 242.688C278.625 246.893 282.045 250.312 286.25 250.312ZM278.625 219.809C278.625 224.014 282.045 227.434 286.25 227.434C286.258 227.434 286.261 227.438 286.269 227.438H290.063C290.07 227.438 290.074 227.438 290.082 227.438C294.275 227.43 297.688 224.014 297.688 219.816C297.688 215.611 294.268 212.191 290.063 212.191C290.047 212.191 290.04 212.184 290.024 212.184H286.25C282.045 212.184 278.625 215.604 278.625 219.809V219.809ZM290.063 204.559C290.07 204.559 290.078 204.562 290.089 204.562C294.275 204.551 297.688 201.139 297.688 196.941C297.688 192.736 294.268 189.316 290.063 189.316H286.25C286.242 189.316 286.235 189.312 286.223 189.312C282.037 189.324 278.625 192.736 278.625 196.934C278.625 201.139 282.045 204.559 286.25 204.559H290.063ZM278.625 174.062C278.625 178.26 282.037 181.676 286.231 181.688C286.239 181.688 286.242 181.684 286.25 181.684C286.265 181.684 286.273 181.691 286.288 181.691H290.043C290.051 181.691 290.055 181.688 290.063 181.688C294.268 181.688 297.688 178.268 297.688 174.062C297.688 169.857 294.268 166.438 290.063 166.438H286.25C282.045 166.438 278.625 169.857 278.625 174.062V174.062Z" fill="#D6DAE4"/>
<path d="M419.53 311C421.457 311 423 312.788 423 315C423 317.212 421.422 319 419.491 319C417.564 319 416 317.212 416 315C416 312.788 417.564 311 419.491 311H419.53Z" fill="#D6DAE4"/>
<path d="M343.5 235C349.84 235 355 240.16 355 246.5C355 252.84 349.84 258 343.5 258C337.16 258 332 252.84 332 246.5C332 240.16 337.16 235 343.5 235ZM343.5 250.333C345.616 250.333 347.333 248.616 347.333 246.5C347.333 244.384 345.616 242.667 343.5 242.667C341.384 242.667 339.667 244.384 339.667 246.5C339.667 248.616 341.384 250.333 343.5 250.333Z" fill="#D6DAE4"/>
<path d="M354.992 117C352.788 117 351 115.212 351 113C351 110.788 352.788 109 354.992 109H355.032C357.236 109 359 110.788 359 113C359 115.212 357.196 117 354.992 117Z" fill="#D6DAE4"/>
<path d="M343.2 117H331.8C329.699 117 328 115.212 328 113C328 110.788 329.699 109 331.8 109H343.2C345.301 109 347 110.788 347 113C347 115.212 345.301 117 343.2 117Z" fill="#D6DAE4"/>
<rect x="308" y="125" width="70" height="105" rx="5" fill="#31CB8A"/>
<rect x="76" y="213" width="70" height="105" rx="5" transform="rotate(-90 76 213)" fill="#30394B"/>
<path d="M274.633 35H284.353V32.024H278.185V19.352H274.633V35ZM286.312 31.688C286.312 33.704 287.68 35.288 289.84 35.288C291.184 35.288 292.312 34.664 293.32 33.776H293.392L293.656 35H296.536V28.184C296.536 24.536 294.856 22.808 291.808 22.808C289.936 22.808 288.232 23.456 286.72 24.368L287.968 26.696C289.12 26.024 290.128 25.616 291.136 25.616C292.408 25.616 292.936 26.288 293.008 27.344C288.304 27.824 286.312 29.192 286.312 31.688ZM289.672 31.424C289.672 30.512 290.488 29.792 293.008 29.456V31.544C292.384 32.168 291.856 32.552 291.04 32.552C290.2 32.552 289.672 32.192 289.672 31.424ZM299.564 35H303.092V28.088C303.716 26.48 304.82 25.904 305.708 25.904C306.212 25.904 306.572 25.976 307.004 26.096L307.58 23.048C307.244 22.904 306.836 22.808 306.164 22.808C304.94 22.808 303.644 23.576 302.78 25.184H302.684L302.444 23.096H299.564V35ZM311.052 36.488C311.052 36.056 311.268 35.696 311.7 35.312C312.084 35.408 312.564 35.456 313.38 35.456H314.604C315.78 35.456 316.428 35.648 316.428 36.392C316.428 37.208 315.276 37.856 313.692 37.856C312.108 37.856 311.052 37.376 311.052 36.488ZM308.148 37.04C308.148 39.152 310.356 40.064 313.14 40.064C317.22 40.064 319.788 38.264 319.788 35.792C319.788 33.656 318.18 32.768 315.252 32.768H313.332C312.012 32.768 311.532 32.48 311.532 31.88C311.532 31.472 311.652 31.256 311.964 30.992C312.492 31.16 312.972 31.232 313.404 31.232C316.02 31.232 318.084 29.96 318.084 27.224C318.084 26.6 317.916 26.024 317.7 25.664H319.596V23.096H315.252C314.724 22.904 314.076 22.808 313.404 22.808C310.836 22.808 308.484 24.248 308.484 27.104C308.484 28.496 309.252 29.624 310.092 30.2V30.296C309.324 30.824 308.748 31.664 308.748 32.528C308.748 33.512 309.228 34.136 309.852 34.544V34.64C308.748 35.264 308.148 36.056 308.148 37.04ZM313.404 29.096C312.468 29.096 311.772 28.424 311.772 27.104C311.772 25.832 312.468 25.184 313.404 25.184C314.34 25.184 315.036 25.856 315.036 27.104C315.036 28.424 314.34 29.096 313.404 29.096ZM320.594 29.048C320.594 32.984 323.21 35.288 326.618 35.288C328.034 35.288 329.618 34.784 330.842 33.944L329.666 31.808C328.802 32.336 327.986 32.6 327.098 32.6C325.514 32.6 324.314 31.808 324.002 30.008H331.13C331.202 29.72 331.274 29.144 331.274 28.52C331.274 25.28 329.594 22.808 326.21 22.808C323.354 22.808 320.594 25.184 320.594 29.048ZM323.978 27.824C324.218 26.24 325.178 25.496 326.282 25.496C327.698 25.496 328.274 26.456 328.274 27.824H323.978ZM333.712 35H337.24V28.088C337.864 26.48 338.968 25.904 339.856 25.904C340.36 25.904 340.72 25.976 341.152 26.096L341.728 23.048C341.392 22.904 340.984 22.808 340.312 22.808C339.088 22.808 337.792 23.576 336.928 25.184H336.832L336.592 23.096H333.712V35Z" fill="#30394B"/>
<path d="M348.267 35H351.795V26.96C352.563 26.216 353.115 25.808 354.003 25.808C355.011 25.808 355.467 26.336 355.467 28.064V35H358.995V27.608C358.995 24.632 357.891 22.808 355.299 22.808C353.691 22.808 352.515 23.648 351.627 24.44L351.795 22.304V18.176H348.267V35ZM361.282 29.048C361.282 32.984 363.898 35.288 367.306 35.288C368.722 35.288 370.306 34.784 371.53 33.944L370.354 31.808C369.49 32.336 368.674 32.6 367.786 32.6C366.202 32.6 365.002 31.808 364.69 30.008H371.818C371.89 29.72 371.962 29.144 371.962 28.52C371.962 25.28 370.282 22.808 366.898 22.808C364.042 22.808 361.282 25.184 361.282 29.048ZM364.666 27.824C364.906 26.24 365.866 25.496 366.97 25.496C368.386 25.496 368.962 26.456 368.962 27.824H364.666ZM376.152 21.344C377.352 21.344 378.192 20.576 378.192 19.496C378.192 18.416 377.352 17.672 376.152 17.672C374.976 17.672 374.112 18.416 374.112 19.496C374.112 20.576 374.976 21.344 376.152 21.344ZM374.4 35H377.928V23.096H374.4V35ZM383.193 36.488C383.193 36.056 383.409 35.696 383.841 35.312C384.225 35.408 384.705 35.456 385.521 35.456H386.745C387.921 35.456 388.569 35.648 388.569 36.392C388.569 37.208 387.417 37.856 385.833 37.856C384.249 37.856 383.193 37.376 383.193 36.488ZM380.289 37.04C380.289 39.152 382.497 40.064 385.281 40.064C389.361 40.064 391.929 38.264 391.929 35.792C391.929 33.656 390.321 32.768 387.393 32.768H385.473C384.153 32.768 383.673 32.48 383.673 31.88C383.673 31.472 383.793 31.256 384.105 30.992C384.633 31.16 385.113 31.232 385.545 31.232C388.161 31.232 390.225 29.96 390.225 27.224C390.225 26.6 390.057 26.024 389.841 25.664H391.737V23.096H387.393C386.865 22.904 386.217 22.808 385.545 22.808C382.977 22.808 380.625 24.248 380.625 27.104C380.625 28.496 381.393 29.624 382.233 30.2V30.296C381.465 30.824 380.889 31.664 380.889 32.528C380.889 33.512 381.369 34.136 381.993 34.544V34.64C380.889 35.264 380.289 36.056 380.289 37.04ZM385.545 29.096C384.609 29.096 383.913 28.424 383.913 27.104C383.913 25.832 384.609 25.184 385.545 25.184C386.481 25.184 387.177 25.856 387.177 27.104C387.177 28.424 386.481 29.096 385.545 29.096ZM393.853 35H397.381V26.96C398.149 26.216 398.701 25.808 399.589 25.808C400.597 25.808 401.053 26.336 401.053 28.064V35H404.581V27.608C404.581 24.632 403.477 22.808 400.885 22.808C399.277 22.808 398.101 23.648 397.213 24.44L397.381 22.304V18.176H393.853V35ZM408.044 30.68C408.044 33.44 409.196 35.288 412.148 35.288C413.3 35.288 414.164 35.048 414.788 34.856L414.236 32.288C413.924 32.408 413.492 32.528 413.108 32.528C412.172 32.528 411.572 31.976 411.572 30.632V25.856H414.428V23.096H411.572V19.928H408.644L408.236 23.096L406.412 23.24V25.856H408.044V30.68Z" fill="#31CB8A"/>
<path d="M62.9138 35H72.6338V32.024H66.4658V19.352H62.9138V35ZM74.5928 31.688C74.5928 33.704 75.9608 35.288 78.1208 35.288C79.4648 35.288 80.5928 34.664 81.6008 33.776H81.6728L81.9368 35H84.8168V28.184C84.8168 24.536 83.1368 22.808 80.0888 22.808C78.2168 22.808 76.5128 23.456 75.0008 24.368L76.2488 26.696C77.4008 26.024 78.4088 25.616 79.4168 25.616C80.6888 25.616 81.2168 26.288 81.2888 27.344C76.5848 27.824 74.5928 29.192 74.5928 31.688ZM77.9528 31.424C77.9528 30.512 78.7688 29.792 81.2888 29.456V31.544C80.6648 32.168 80.1368 32.552 79.3208 32.552C78.4808 32.552 77.9528 32.192 77.9528 31.424ZM87.8452 35H91.3732V28.088C91.9972 26.48 93.1012 25.904 93.9892 25.904C94.4932 25.904 94.8532 25.976 95.2852 26.096L95.8612 23.048C95.5252 22.904 95.1172 22.808 94.4452 22.808C93.2212 22.808 91.9252 23.576 91.0612 25.184H90.9652L90.7252 23.096H87.8452V35ZM99.3333 36.488C99.3333 36.056 99.5493 35.696 99.9813 35.312C100.365 35.408 100.845 35.456 101.661 35.456H102.885C104.061 35.456 104.709 35.648 104.709 36.392C104.709 37.208 103.557 37.856 101.973 37.856C100.389 37.856 99.3333 37.376 99.3333 36.488ZM96.4293 37.04C96.4293 39.152 98.6373 40.064 101.421 40.064C105.501 40.064 108.069 38.264 108.069 35.792C108.069 33.656 106.461 32.768 103.533 32.768H101.613C100.293 32.768 99.8133 32.48 99.8133 31.88C99.8133 31.472 99.9333 31.256 100.245 30.992C100.773 31.16 101.253 31.232 101.685 31.232C104.301 31.232 106.365 29.96 106.365 27.224C106.365 26.6 106.197 26.024 105.981 25.664H107.877V23.096H103.533C103.005 22.904 102.357 22.808 101.685 22.808C99.1173 22.808 96.7653 24.248 96.7653 27.104C96.7653 28.496 97.5333 29.624 98.3733 30.2V30.296C97.6053 30.824 97.0293 31.664 97.0293 32.528C97.0293 33.512 97.5093 34.136 98.1333 34.544V34.64C97.0293 35.264 96.4293 36.056 96.4293 37.04ZM101.685 29.096C100.749 29.096 100.053 28.424 100.053 27.104C100.053 25.832 100.749 25.184 101.685 25.184C102.621 25.184 103.317 25.856 103.317 27.104C103.317 28.424 102.621 29.096 101.685 29.096ZM108.876 29.048C108.876 32.984 111.492 35.288 114.9 35.288C116.316 35.288 117.9 34.784 119.124 33.944L117.948 31.808C117.084 32.336 116.268 32.6 115.38 32.6C113.796 32.6 112.596 31.808 112.284 30.008H119.412C119.484 29.72 119.556 29.144 119.556 28.52C119.556 25.28 117.876 22.808 114.492 22.808C111.636 22.808 108.876 25.184 108.876 29.048ZM112.26 27.824C112.5 26.24 113.46 25.496 114.564 25.496C115.98 25.496 116.556 26.456 116.556 27.824H112.26ZM121.994 35H125.522V28.088C126.146 26.48 127.25 25.904 128.138 25.904C128.642 25.904 129.002 25.976 129.434 26.096L130.01 23.048C129.674 22.904 129.266 22.808 128.594 22.808C127.37 22.808 126.074 23.576 125.21 25.184H125.114L124.874 23.096H121.994V35ZM138.54 35H142.572L143.628 30.248C143.844 29.144 144.012 28.04 144.228 26.768H144.324C144.54 28.04 144.732 29.144 144.972 30.248L146.052 35H150.18L153.036 23.096H149.772L148.644 28.616C148.428 29.792 148.308 30.944 148.092 32.144H147.996C147.756 30.944 147.54 29.792 147.252 28.616L145.908 23.096H142.86L141.54 28.616C141.252 29.744 141.06 30.944 140.844 32.144H140.748C140.556 30.944 140.412 29.792 140.22 28.616L139.068 23.096H135.564L138.54 35ZM156.933 21.344C158.133 21.344 158.973 20.576 158.973 19.496C158.973 18.416 158.133 17.672 156.933 17.672C155.757 17.672 154.893 18.416 154.893 19.496C154.893 20.576 155.757 21.344 156.933 21.344ZM155.181 35H158.709V23.096H155.181V35ZM161.19 29.048C161.19 32.936 163.11 35.288 166.062 35.288C167.214 35.288 168.39 34.664 169.23 33.824H169.326L169.566 35H172.446V18.176H168.918V22.232L169.062 24.056C168.246 23.288 167.454 22.808 166.134 22.808C163.614 22.808 161.19 25.16 161.19 29.048ZM164.814 29C164.814 26.744 165.822 25.688 166.95 25.688C167.598 25.688 168.294 25.88 168.918 26.456V31.328C168.342 32.12 167.742 32.408 166.974 32.408C165.606 32.408 164.814 31.352 164.814 29ZM176.052 30.68C176.052 33.44 177.204 35.288 180.156 35.288C181.308 35.288 182.172 35.048 182.796 34.856L182.244 32.288C181.932 32.408 181.5 32.528 181.116 32.528C180.18 32.528 179.58 31.976 179.58 30.632V25.856H182.436V23.096H179.58V19.928H176.652L176.244 23.096L174.42 23.24V25.856H176.052V30.68ZM184.759 35H188.287V26.96C189.055 26.216 189.607 25.808 190.495 25.808C191.503 25.808 191.959 26.336 191.959 28.064V35H195.487V27.608C195.487 24.632 194.383 22.808 191.791 22.808C190.183 22.808 189.007 23.648 188.119 24.44L188.287 22.304V18.176H184.759V35Z" fill="#30394B"/>
<path d="M112.511 138L110.775 131.056H112.819L113.491 134.276C113.547 134.621 113.599 134.962 113.645 135.298C113.692 135.634 113.743 135.979 113.799 136.334H113.855C113.921 135.979 113.981 135.629 114.037 135.284C114.103 134.939 114.177 134.603 114.261 134.276L115.031 131.056H116.809L117.593 134.276C117.677 134.621 117.752 134.962 117.817 135.298C117.883 135.634 117.953 135.979 118.027 136.334H118.083C118.149 135.979 118.2 135.634 118.237 135.298C118.284 134.962 118.34 134.621 118.405 134.276L119.063 131.056H120.967L119.301 138H116.893L116.263 135.228C116.189 134.901 116.123 134.575 116.067 134.248C116.011 133.921 115.951 133.571 115.885 133.198H115.829C115.764 133.571 115.703 133.921 115.647 134.248C115.601 134.575 115.545 134.901 115.479 135.228L114.863 138H112.511ZM122.219 138V131.056H124.277V138H122.219ZM123.241 130.034C122.895 130.034 122.611 129.936 122.387 129.74C122.163 129.535 122.051 129.273 122.051 128.956C122.051 128.639 122.163 128.382 122.387 128.186C122.611 127.99 122.895 127.892 123.241 127.892C123.595 127.892 123.88 127.99 124.095 128.186C124.319 128.382 124.431 128.639 124.431 128.956C124.431 129.273 124.319 129.535 124.095 129.74C123.88 129.936 123.595 130.034 123.241 130.034ZM128.566 138.168C128.136 138.168 127.744 138.084 127.39 137.916C127.044 137.748 126.746 137.51 126.494 137.202C126.251 136.885 126.06 136.502 125.92 136.054C125.789 135.606 125.724 135.097 125.724 134.528C125.724 133.959 125.803 133.45 125.962 133.002C126.13 132.554 126.344 132.176 126.606 131.868C126.876 131.551 127.184 131.308 127.53 131.14C127.884 130.972 128.244 130.888 128.608 130.888C129 130.888 129.322 130.953 129.574 131.084C129.826 131.215 130.073 131.392 130.316 131.616L130.232 130.552V128.186H132.29V138H130.61L130.47 137.314H130.414C130.171 137.557 129.886 137.762 129.56 137.93C129.233 138.089 128.902 138.168 128.566 138.168ZM129.098 136.488C129.322 136.488 129.522 136.441 129.7 136.348C129.886 136.255 130.064 136.091 130.232 135.858V133.016C130.045 132.848 129.854 132.731 129.658 132.666C129.462 132.601 129.27 132.568 129.084 132.568C128.757 132.568 128.468 132.727 128.216 133.044C127.964 133.352 127.838 133.837 127.838 134.5C127.838 135.191 127.945 135.695 128.16 136.012C128.384 136.329 128.696 136.488 129.098 136.488ZM136.787 138.168C136.358 138.168 135.989 138.103 135.681 137.972C135.382 137.841 135.135 137.659 134.939 137.426C134.752 137.193 134.612 136.913 134.519 136.586C134.435 136.25 134.393 135.881 134.393 135.48V132.666H133.441V131.14L134.505 131.056L134.743 129.208H136.451V131.056H138.117V132.666H136.451V135.452C136.451 135.844 136.53 136.129 136.689 136.306C136.857 136.474 137.076 136.558 137.347 136.558C137.459 136.558 137.571 136.544 137.683 136.516C137.804 136.488 137.912 136.455 138.005 136.418L138.327 137.916C138.14 137.972 137.921 138.028 137.669 138.084C137.417 138.14 137.123 138.168 136.787 138.168ZM139.473 138V128.186H141.531V130.594L141.433 131.84C141.694 131.607 141.997 131.392 142.343 131.196C142.688 130.991 143.099 130.888 143.575 130.888C144.331 130.888 144.877 131.135 145.213 131.63C145.558 132.125 145.731 132.811 145.731 133.688V138H143.673V133.954C143.673 133.45 143.603 133.105 143.463 132.918C143.332 132.731 143.117 132.638 142.819 132.638C142.557 132.638 142.333 132.699 142.147 132.82C141.96 132.932 141.755 133.095 141.531 133.31V138H139.473Z" fill="#30394B"/>
<path d="M68 196.565H58.186V194.507H60.594L61.84 194.605C61.6067 194.343 61.392 194.04 61.196 193.695C60.9907 193.349 60.888 192.939 60.888 192.463C60.888 191.707 61.1353 191.161 61.63 190.825C62.1247 190.479 62.8107 190.307 63.688 190.307H68V192.365H63.954C63.45 192.365 63.1047 192.435 62.918 192.575C62.7313 192.705 62.638 192.92 62.638 193.219C62.638 193.48 62.6987 193.704 62.82 193.891C62.932 194.077 63.0953 194.283 63.31 194.507H68V196.565ZM68.168 185.459C68.168 185.953 68.0887 186.415 67.93 186.845C67.762 187.274 67.524 187.647 67.216 187.965C66.8987 188.282 66.516 188.529 66.068 188.707C65.62 188.884 65.1067 188.973 64.528 188.973C63.968 188.973 63.464 188.879 63.016 188.693C62.5587 188.506 62.176 188.263 61.868 187.965C61.5507 187.657 61.308 187.307 61.14 186.915C60.972 186.523 60.888 186.117 60.888 185.697C60.888 185.202 60.972 184.773 61.14 184.409C61.308 184.035 61.5413 183.727 61.84 183.485C62.1387 183.233 62.4933 183.046 62.904 182.925C63.3053 182.803 63.744 182.743 64.22 182.743C64.4067 182.743 64.584 182.752 64.752 182.771C64.92 182.789 65.046 182.808 65.13 182.827V186.985C65.634 186.891 66.0073 186.686 66.25 186.369C66.4833 186.042 66.6 185.645 66.6 185.179C66.6 184.684 66.446 184.185 66.138 183.681L67.384 182.995C67.6267 183.349 67.818 183.746 67.958 184.185C68.098 184.614 68.168 185.039 68.168 185.459ZM63.772 186.999V184.493C63.38 184.493 63.0627 184.581 62.82 184.759C62.5773 184.936 62.456 185.235 62.456 185.655C62.456 185.981 62.5633 186.271 62.778 186.523C62.9927 186.765 63.324 186.924 63.772 186.999ZM68 181.32H61.056V179.262H68V181.32ZM60.034 180.298C60.034 180.644 59.936 180.928 59.74 181.152C59.5347 181.376 59.2733 181.488 58.956 181.488C58.6387 181.488 58.382 181.376 58.186 181.152C57.99 180.928 57.892 180.644 57.892 180.298C57.892 179.944 57.99 179.659 58.186 179.444C58.382 179.22 58.6387 179.108 58.956 179.108C59.2733 179.108 59.5347 179.22 59.74 179.444C59.936 179.659 60.034 179.944 60.034 180.298ZM70.954 174.973C70.954 175.384 70.9167 175.767 70.842 176.121C70.7767 176.467 70.674 176.775 70.534 177.045C70.394 177.307 70.212 177.512 69.988 177.661C69.764 177.811 69.498 177.885 69.19 177.885C68.63 177.885 68.1633 177.554 67.79 176.891H67.734C67.6127 177.078 67.4587 177.232 67.272 177.353C67.0853 177.475 66.8473 177.535 66.558 177.535C66.306 177.535 66.068 177.461 65.844 177.311C65.6107 177.162 65.4147 176.975 65.256 176.751H65.2C65.032 176.994 64.794 177.213 64.486 177.409C64.1687 177.596 63.8047 177.689 63.394 177.689C62.974 177.689 62.61 177.61 62.302 177.451C61.9847 177.293 61.7233 177.083 61.518 176.821C61.3033 176.551 61.1447 176.243 61.042 175.897C60.9393 175.552 60.888 175.193 60.888 174.819C60.888 174.409 60.944 174.049 61.056 173.741V171.207H62.554V172.313C62.6567 172.248 62.7873 172.197 62.946 172.159C63.1047 172.113 63.2773 172.089 63.464 172.089C63.8653 172.089 64.2153 172.159 64.514 172.299C64.8033 172.439 65.046 172.635 65.242 172.887C65.4287 173.13 65.5687 173.419 65.662 173.755C65.7553 174.082 65.802 174.437 65.802 174.819C65.802 175.09 65.7553 175.37 65.662 175.659C65.7367 175.753 65.8113 175.818 65.886 175.855C65.9607 175.893 66.0587 175.911 66.18 175.911C66.3573 175.911 66.488 175.837 66.572 175.687C66.656 175.529 66.698 175.253 66.698 174.861V173.741C66.698 172.883 66.838 172.229 67.118 171.781C67.3887 171.324 67.8367 171.095 68.462 171.095C68.826 171.095 69.1573 171.189 69.456 171.375C69.764 171.553 70.0253 171.809 70.24 172.145C70.464 172.481 70.6367 172.887 70.758 173.363C70.8887 173.839 70.954 174.376 70.954 174.973ZM64.556 174.819C64.556 174.549 64.4627 174.325 64.276 174.147C64.08 173.961 63.786 173.867 63.394 173.867C63.03 173.867 62.7547 173.961 62.568 174.147C62.372 174.325 62.274 174.549 62.274 174.819C62.274 175.09 62.3673 175.319 62.554 175.505C62.7407 175.683 63.0207 175.771 63.394 175.771C63.786 175.771 64.08 175.683 64.276 175.505C64.4627 175.319 64.556 175.09 64.556 174.819ZM69.666 174.651C69.666 174.185 69.582 173.802 69.414 173.503C69.2553 173.205 69.0547 173.055 68.812 173.055C68.5973 173.055 68.4527 173.149 68.378 173.335C68.3033 173.513 68.266 173.774 68.266 174.119V174.833C68.266 175.076 68.2567 175.272 68.238 175.421C68.2287 175.571 68.21 175.701 68.182 175.813C68.406 176.065 68.6347 176.191 68.868 176.191C69.1293 176.191 69.3253 176.051 69.456 175.771C69.596 175.491 69.666 175.118 69.666 174.651ZM68 169.973H58.186V167.915H60.594L61.84 168.013C61.6067 167.751 61.392 167.448 61.196 167.103C60.9907 166.757 60.888 166.347 60.888 165.871C60.888 165.115 61.1353 164.569 61.63 164.233C62.1247 163.887 62.8107 163.715 63.688 163.715H68V165.773H63.954C63.45 165.773 63.1047 165.843 62.918 165.983C62.7313 166.113 62.638 166.328 62.638 166.627C62.638 166.888 62.6987 167.112 62.82 167.299C62.932 167.485 63.0953 167.691 63.31 167.915H68V169.973ZM68.168 159.301C68.168 159.73 68.1027 160.099 67.972 160.407C67.8413 160.705 67.6593 160.953 67.426 161.149C67.1927 161.335 66.9127 161.475 66.586 161.569C66.25 161.653 65.8813 161.695 65.48 161.695H62.666V162.647H61.14L61.056 161.583L59.208 161.345V159.637H61.056V157.971H62.666V159.637H65.452C65.844 159.637 66.1287 159.557 66.306 159.399C66.474 159.231 66.558 159.011 66.558 158.741C66.558 158.629 66.544 158.517 66.516 158.405C66.488 158.283 66.4553 158.176 66.418 158.083L67.916 157.761C67.972 157.947 68.028 158.167 68.084 158.419C68.14 158.671 68.168 158.965 68.168 159.301Z" fill="#30394B"/>
<path d="M268.831 69H271.207L272.719 61.464C273.007 60 273.199 58.008 273.367 56.544H273.463L273.967 60.096L275.263 67.464H276.463L280.615 60.096L282.535 56.544H282.607C282.174 57.984 281.647 59.976 281.335 61.464L279.775 69H282.223L285.367 53.304H282.511L278.191 61.152L276.631 64.176H276.535L276.079 61.152L274.831 53.304H271.951L268.831 69ZM290.614 69.288C293.854 69.288 297.118 66.216 297.118 61.728C297.118 58.776 295.366 56.928 292.702 56.928C289.486 56.928 286.222 59.976 286.222 64.488C286.222 67.416 287.974 69.288 290.614 69.288ZM292.438 59.016C293.782 59.016 294.502 60.024 294.502 61.8C294.502 64.824 292.774 67.2 290.902 67.2C289.534 67.2 288.814 66.168 288.814 64.392C288.814 61.392 290.566 59.016 292.438 59.016ZM300.656 69L301.16 67.632H301.208C301.736 68.64 302.696 69.288 303.872 69.288C307.112 69.288 310.184 65.736 310.184 61.224C310.184 58.44 308.912 56.928 306.824 56.928C305.528 56.928 304.232 57.6 303.128 58.488H303.08L303.656 56.232L304.496 52.056H301.928L298.52 69H300.656ZM305.768 59.04C306.848 59.04 307.544 59.856 307.544 61.56C307.544 64.608 305.696 67.176 303.704 67.176C302.96 67.176 302.264 66.744 301.76 65.736L302.768 60.744C303.656 59.592 304.856 59.04 305.768 59.04ZM311.598 69H314.19L316.542 57.216H313.974L311.598 69ZM315.87 55.128C316.83 55.128 317.598 54.408 317.598 53.448C317.598 52.584 316.878 52.104 316.134 52.104C315.174 52.104 314.406 52.872 314.406 53.784C314.406 54.648 315.126 55.128 315.87 55.128ZM318.222 66.12C318.102 66.624 318.054 67.008 318.054 67.368C318.054 68.568 318.678 69.288 320.046 69.288C320.694 69.288 321.15 69.192 321.51 69.048L321.558 67.128C321.342 67.2 321.27 67.2 321.126 67.2C320.886 67.2 320.718 67.056 320.718 66.696C320.718 66.6 320.718 66.48 320.766 66.24L323.598 52.056H321.03L318.222 66.12ZM324.167 64.296C324.167 67.464 326.087 69.288 328.895 69.288C330.575 69.288 331.967 68.712 332.927 68.04L331.967 66.384C331.319 66.864 330.407 67.32 329.567 67.32C327.791 67.32 326.399 66.264 326.663 63.768H333.839C334.007 63.384 334.343 62.304 334.343 61.272C334.343 58.824 333.335 56.928 330.599 56.928C327.503 56.928 324.167 59.904 324.167 64.296ZM326.879 62.136C327.455 60.12 328.871 58.92 330.287 58.92C331.727 58.92 332.207 59.952 332.207 61.104C332.207 61.488 332.159 61.824 332.087 62.136H326.879ZM336.097 63.888H341.521L341.929 61.992H336.481L336.097 63.888ZM344.103 59.256H345.615L343.671 69H346.239L348.159 59.256H350.415L350.823 57.216H348.591L348.879 55.776C349.143 54.432 349.743 53.832 350.703 53.832C351.183 53.832 351.639 54.024 351.927 54.192L352.791 52.368C352.119 52.008 351.351 51.768 350.463 51.768C348.111 51.768 346.791 53.448 346.311 55.848L346.047 57.216L344.487 57.336L344.103 59.256ZM350.458 69H353.05L354.442 61.872C355.402 60.072 356.53 59.208 357.634 59.208C358.042 59.208 358.45 59.256 358.738 59.4L359.602 57.144C359.29 57 358.93 56.928 358.426 56.928C357.01 56.928 355.714 58.032 354.778 59.496H354.682L354.898 57.216H352.81L350.458 69ZM359.176 69H361.768L364.12 57.216H361.552L359.176 69ZM363.448 55.128C364.408 55.128 365.176 54.408 365.176 53.448C365.176 52.584 364.456 52.104 363.712 52.104C362.752 52.104 361.984 52.872 361.984 53.784C361.984 54.648 362.704 55.128 363.448 55.128ZM365.464 64.296C365.464 67.464 367.384 69.288 370.192 69.288C371.872 69.288 373.264 68.712 374.224 68.04L373.264 66.384C372.616 66.864 371.704 67.32 370.864 67.32C369.088 67.32 367.696 66.264 367.96 63.768H375.136C375.304 63.384 375.64 62.304 375.64 61.272C375.64 58.824 374.632 56.928 371.896 56.928C368.8 56.928 365.464 59.904 365.464 64.296ZM368.176 62.136C368.752 60.12 370.168 58.92 371.584 58.92C373.024 58.92 373.504 59.952 373.504 61.104C373.504 61.488 373.456 61.824 373.384 62.136H368.176ZM376.919 69H379.511L381.095 60.96C382.343 59.688 383.255 59.136 384.071 59.136C385.079 59.136 385.559 59.64 385.559 60.648C385.559 61.008 385.463 61.344 385.367 61.896L383.927 69H386.495L387.983 61.56C388.127 60.936 388.175 60.456 388.175 59.904C388.175 58.008 387.359 56.928 385.391 56.928C383.903 56.928 382.583 57.816 381.335 58.872H381.239L381.359 57.216H379.271L376.919 69ZM399.168 58.488H399.096C398.592 57.552 397.656 56.928 396.504 56.928C393.24 56.928 390.168 60.48 390.168 64.992C390.168 67.752 391.464 69.288 393.528 69.288C394.872 69.288 396.312 68.52 397.416 67.368H397.488L397.368 69H399.48L402.888 52.056H400.32L399.504 56.232L399.168 58.488ZM394.584 67.176C393.504 67.176 392.832 66.36 392.832 64.632C392.832 61.608 394.656 59.04 396.648 59.04C397.368 59.04 398.112 59.472 398.64 60.48L397.68 65.184C396.696 66.6 395.592 67.176 394.584 67.176ZM403.417 66.12C403.297 66.624 403.249 67.008 403.249 67.368C403.249 68.568 403.873 69.288 405.241 69.288C405.889 69.288 406.345 69.192 406.705 69.048L406.753 67.128C406.537 67.2 406.465 67.2 406.321 67.2C406.081 67.2 405.913 67.056 405.913 66.696C405.913 66.6 405.913 66.48 405.961 66.24L408.793 52.056H406.225L403.417 66.12ZM408.234 71.544L407.418 73.416C407.874 73.68 408.546 73.848 408.93 73.848C411.282 73.848 412.746 72.192 414.21 69.624L420.834 57.216H418.338L415.41 63.168C414.858 64.272 414.282 65.592 413.754 66.696H413.658C413.61 65.592 413.49 64.224 413.37 63.168L412.626 57.216H410.058L412.098 68.88L411.738 69.6C411.09 70.92 410.106 71.784 409.098 71.784C408.786 71.784 408.474 71.688 408.234 71.544Z" fill="#31CB8A"/>
<path d="M46.9243 69H51.4843C56.6443 69 60.0283 65.4 60.0283 59.448C60.0283 55.464 57.6043 53.304 53.2363 53.304H50.0443L46.9243 69ZM49.9243 66.912L52.2043 55.392H53.1643C55.8283 55.392 57.3883 56.832 57.3883 59.616C57.3883 64.248 54.9643 66.912 51.4363 66.912H49.9243ZM61.4326 64.296C61.4326 67.464 63.3526 69.288 66.1606 69.288C67.8406 69.288 69.2326 68.712 70.1926 68.04L69.2326 66.384C68.5846 66.864 67.6726 67.32 66.8326 67.32C65.0566 67.32 63.6646 66.264 63.9286 63.768H71.1046C71.2726 63.384 71.6086 62.304 71.6086 61.272C71.6086 58.824 70.6006 56.928 67.8646 56.928C64.7686 56.928 61.4326 59.904 61.4326 64.296ZM64.1446 62.136C64.7206 60.12 66.1366 58.92 67.5526 58.92C68.9926 58.92 69.4726 59.952 69.4726 61.104C69.4726 61.488 69.4246 61.824 69.3526 62.136H64.1446ZM72.2154 67.032C73.1034 68.376 74.8554 69.288 76.3434 69.288C79.0554 69.288 81.0234 67.8 81.0234 65.52C81.0234 64.08 80.1594 63.144 78.4074 62.208C77.3994 61.632 76.3914 61.224 76.3914 60.36C76.3914 59.544 77.1834 58.872 78.2634 58.872C79.1994 58.872 79.9194 59.376 80.5194 59.976L81.9594 58.608C81.0474 57.648 79.7994 56.928 78.2634 56.928C75.9114 56.928 73.9674 58.464 73.9674 60.6C73.9674 62.016 74.9274 63 76.4874 63.864C77.9754 64.68 78.5994 65.088 78.5994 65.832C78.5994 66.696 77.6394 67.368 76.5354 67.368C75.4794 67.368 74.5194 66.792 73.7514 65.784L72.2154 67.032ZM82.8014 69H85.3934L85.9694 66.096L88.2734 63.768L90.2894 69H92.8814L90.0734 62.256L94.8254 57.216H91.9454L86.7374 62.712H86.6414L88.7774 52.056H86.2094L82.8014 69ZM95.7905 65.016C95.7185 65.496 95.6465 65.928 95.6465 66.408C95.6465 68.04 96.5105 69.288 98.7185 69.288C99.7985 69.288 100.639 69 101.215 68.76L100.735 66.936C100.398 67.104 100.039 67.248 99.6305 67.248C98.6465 67.248 98.2625 66.816 98.2625 65.952C98.2625 65.664 98.2865 65.4 98.3345 65.112L99.5345 59.256H102.415L102.823 57.216H99.9905L100.615 54.048H98.4545L97.5185 57.216L95.7185 57.336L95.3345 59.256H96.9905L95.7905 65.016ZM107.286 69.288C110.526 69.288 113.79 66.216 113.79 61.728C113.79 58.776 112.038 56.928 109.374 56.928C106.158 56.928 102.894 59.976 102.894 64.488C102.894 67.416 104.646 69.288 107.286 69.288ZM109.11 59.016C110.454 59.016 111.174 60.024 111.174 61.8C111.174 64.824 109.446 67.2 107.574 67.2C106.206 67.2 105.486 66.168 105.486 64.392C105.486 61.392 107.238 59.016 109.11 59.016ZM117.88 67.752H117.928C118.504 68.664 119.44 69.288 120.544 69.288C123.784 69.288 126.856 65.736 126.856 61.224C126.856 58.464 125.584 56.928 123.496 56.928C122.152 56.928 120.808 57.672 119.68 58.656H119.608L119.656 57.216H117.568L114.256 73.656H116.824L117.496 70.152L117.88 67.752ZM122.44 59.04C123.52 59.04 124.216 59.856 124.216 61.56C124.216 64.608 122.368 67.176 120.376 67.176C119.632 67.176 118.936 66.768 118.432 65.784L119.44 60.744C120.328 59.592 121.528 59.04 122.44 59.04ZM129.004 63.888H134.428L134.836 61.992H129.388L129.004 63.888ZM137.009 59.256H138.521L136.577 69H139.145L141.065 59.256H143.321L143.729 57.216H141.497L141.785 55.776C142.049 54.432 142.649 53.832 143.609 53.832C144.089 53.832 144.545 54.024 144.833 54.192L145.697 52.368C145.025 52.008 144.257 51.768 143.369 51.768C141.017 51.768 139.697 53.448 139.217 55.848L138.953 57.216L137.393 57.336L137.009 59.256ZM143.364 69H145.956L147.348 61.872C148.308 60.072 149.436 59.208 150.54 59.208C150.948 59.208 151.356 59.256 151.644 59.4L152.508 57.144C152.196 57 151.836 56.928 151.332 56.928C149.916 56.928 148.62 58.032 147.684 59.496H147.588L147.804 57.216H145.716L143.364 69ZM152.083 69H154.675L157.027 57.216H154.459L152.083 69ZM156.355 55.128C157.315 55.128 158.083 54.408 158.083 53.448C158.083 52.584 157.363 52.104 156.619 52.104C155.659 52.104 154.891 52.872 154.891 53.784C154.891 54.648 155.611 55.128 156.355 55.128ZM158.37 64.296C158.37 67.464 160.29 69.288 163.098 69.288C164.778 69.288 166.17 68.712 167.13 68.04L166.17 66.384C165.522 66.864 164.61 67.32 163.77 67.32C161.994 67.32 160.602 66.264 160.866 63.768H168.042C168.21 63.384 168.546 62.304 168.546 61.272C168.546 58.824 167.538 56.928 164.802 56.928C161.706 56.928 158.37 59.904 158.37 64.296ZM161.082 62.136C161.658 60.12 163.074 58.92 164.49 58.92C165.93 58.92 166.41 59.952 166.41 61.104C166.41 61.488 166.362 61.824 166.29 62.136H161.082ZM169.825 69H172.417L174.001 60.96C175.249 59.688 176.161 59.136 176.977 59.136C177.985 59.136 178.465 59.64 178.465 60.648C178.465 61.008 178.369 61.344 178.273 61.896L176.833 69H179.401L180.889 61.56C181.033 60.936 181.081 60.456 181.081 59.904C181.081 58.008 180.265 56.928 178.297 56.928C176.809 56.928 175.489 57.816 174.241 58.872H174.145L174.265 57.216H172.177L169.825 69ZM192.074 58.488H192.002C191.498 57.552 190.562 56.928 189.41 56.928C186.146 56.928 183.074 60.48 183.074 64.992C183.074 67.752 184.37 69.288 186.434 69.288C187.778 69.288 189.218 68.52 190.322 67.368H190.394L190.274 69H192.386L195.794 52.056H193.226L192.41 56.232L192.074 58.488ZM187.49 67.176C186.41 67.176 185.738 66.36 185.738 64.632C185.738 61.608 187.562 59.04 189.554 59.04C190.274 59.04 191.018 59.472 191.546 60.48L190.586 65.184C189.602 66.6 188.498 67.176 187.49 67.176ZM196.323 66.12C196.203 66.624 196.155 67.008 196.155 67.368C196.155 68.568 196.779 69.288 198.147 69.288C198.795 69.288 199.251 69.192 199.611 69.048L199.659 67.128C199.443 67.2 199.371 67.2 199.227 67.2C198.987 67.2 198.819 67.056 198.819 66.696C198.819 66.6 198.819 66.48 198.867 66.24L201.699 52.056H199.131L196.323 66.12ZM201.141 71.544L200.325 73.416C200.781 73.68 201.453 73.848 201.837 73.848C204.189 73.848 205.653 72.192 207.117 69.624L213.741 57.216H211.245L208.317 63.168C207.765 64.272 207.189 65.592 206.661 66.696H206.565C206.517 65.592 206.397 64.224 206.277 63.168L205.533 57.216H202.965L205.005 68.88L204.645 69.6C203.997 70.92 203.013 71.784 202.005 71.784C201.693 71.784 201.381 71.688 201.141 71.544Z" fill="#ABB3C9"/>
</g>
<defs>
<clipPath id="clip0">
<rect width="495" height="330" fill="white"/>
</clipPath>
</defs>
</svg>
