<svg width="719" height="240" viewBox="0 0 719 240" fill="none" xmlns="http://www.w3.org/2000/svg">
<g clip-path="url(#clip0)">
<rect width="719" height="240" fill="white"/>
<g style="mix-blend-mode:multiply" opacity="0.25" filter="url(#filter0_f)">
<rect x="57" y="14" width="288" height="188" fill="url(#paint0_linear)"/>
</g>
<g style="mix-blend-mode:multiply" opacity="0.25" filter="url(#filter1_f)">
<rect x="415" y="14" width="288" height="188" fill="url(#paint1_linear)"/>
</g>
<g style="mix-blend-mode:multiply" opacity="0.5">
<rect x="24" y="8" width="333" height="209"/>
</g>
<g style="mix-blend-mode:multiply" opacity="0.5">
<rect x="382" y="8" width="333" height="209"/>
</g>
<path d="M178.275 224.887H176.059V231H174.833V224.887H172.636V223.891H178.275V224.887ZM180.985 231.098C180.233 231.098 179.623 230.862 179.154 230.39C178.689 229.914 178.456 229.283 178.456 228.495V228.349C178.456 227.821 178.557 227.351 178.759 226.938C178.964 226.521 179.25 226.197 179.618 225.966C179.986 225.735 180.396 225.619 180.849 225.619C181.568 225.619 182.123 225.849 182.514 226.308C182.908 226.767 183.104 227.416 183.104 228.256V228.734H179.652C179.688 229.171 179.833 229.516 180.087 229.77C180.344 230.023 180.666 230.15 181.054 230.15C181.597 230.15 182.04 229.931 182.382 229.491L183.021 230.102C182.81 230.417 182.527 230.663 182.172 230.839C181.82 231.011 181.425 231.098 180.985 231.098ZM180.844 226.571C180.518 226.571 180.255 226.685 180.053 226.913C179.854 227.141 179.727 227.458 179.672 227.865H181.933V227.777C181.907 227.38 181.801 227.081 181.615 226.879C181.43 226.674 181.173 226.571 180.844 226.571ZM185.146 225.717L185.18 226.269C185.551 225.836 186.059 225.619 186.703 225.619C187.41 225.619 187.893 225.889 188.153 226.43C188.537 225.889 189.078 225.619 189.774 225.619C190.357 225.619 190.79 225.78 191.073 226.103C191.36 226.425 191.506 226.9 191.513 227.528V231H190.326V227.562C190.326 227.227 190.253 226.981 190.106 226.825C189.96 226.669 189.717 226.591 189.379 226.591C189.109 226.591 188.887 226.664 188.715 226.811C188.546 226.954 188.427 227.143 188.358 227.377L188.363 231H187.177V227.523C187.16 226.902 186.843 226.591 186.225 226.591C185.749 226.591 185.412 226.785 185.214 227.172V231H184.027V225.717H185.146ZM197.357 228.412C197.357 229.229 197.172 229.882 196.801 230.37C196.43 230.855 195.932 231.098 195.307 231.098C194.727 231.098 194.263 230.907 193.915 230.526V233.031H192.729V225.717H193.822L193.871 226.254C194.219 225.831 194.693 225.619 195.292 225.619C195.937 225.619 196.441 225.86 196.806 226.342C197.174 226.82 197.357 227.486 197.357 228.339V228.412ZM196.176 228.31C196.176 227.782 196.07 227.364 195.858 227.055C195.65 226.745 195.351 226.591 194.96 226.591C194.475 226.591 194.127 226.791 193.915 227.191V229.535C194.13 229.945 194.481 230.15 194.97 230.15C195.347 230.15 195.642 229.999 195.854 229.696C196.068 229.39 196.176 228.928 196.176 228.31ZM200.692 231.098C199.94 231.098 199.33 230.862 198.861 230.39C198.396 229.914 198.163 229.283 198.163 228.495V228.349C198.163 227.821 198.264 227.351 198.466 226.938C198.671 226.521 198.957 226.197 199.325 225.966C199.693 225.735 200.103 225.619 200.556 225.619C201.275 225.619 201.83 225.849 202.221 226.308C202.615 226.767 202.812 227.416 202.812 228.256V228.734H199.359C199.395 229.171 199.54 229.516 199.794 229.77C200.051 230.023 200.373 230.15 200.761 230.15C201.304 230.15 201.747 229.931 202.089 229.491L202.729 230.102C202.517 230.417 202.234 230.663 201.879 230.839C201.527 231.011 201.132 231.098 200.692 231.098ZM200.551 226.571C200.225 226.571 199.962 226.685 199.76 226.913C199.561 227.141 199.434 227.458 199.379 227.865H201.64V227.777C201.614 227.38 201.508 227.081 201.322 226.879C201.137 226.674 200.88 226.571 200.551 226.571ZM206.503 226.801C206.347 226.775 206.186 226.762 206.02 226.762C205.476 226.762 205.11 226.97 204.921 227.387V231H203.734V225.717H204.867L204.896 226.308C205.183 225.849 205.58 225.619 206.088 225.619C206.257 225.619 206.397 225.642 206.508 225.688L206.503 226.801ZM210.263 231C210.211 230.899 210.165 230.735 210.126 230.507C209.748 230.901 209.286 231.098 208.739 231.098C208.209 231.098 207.776 230.946 207.44 230.644C207.105 230.341 206.938 229.966 206.938 229.521C206.938 228.957 207.146 228.526 207.562 228.227C207.982 227.924 208.581 227.772 209.359 227.772H210.087V227.426C210.087 227.152 210.01 226.934 209.857 226.771C209.704 226.605 209.472 226.522 209.159 226.522C208.889 226.522 208.668 226.591 208.495 226.728C208.323 226.861 208.236 227.032 208.236 227.24H207.05C207.05 226.951 207.146 226.68 207.338 226.43C207.53 226.176 207.79 225.977 208.119 225.834C208.451 225.691 208.821 225.619 209.228 225.619C209.846 225.619 210.339 225.775 210.707 226.088C211.075 226.397 211.264 226.833 211.273 227.396V229.779C211.273 230.255 211.34 230.634 211.474 230.917V231H210.263ZM208.959 230.146C209.193 230.146 209.413 230.089 209.618 229.975C209.826 229.861 209.983 229.708 210.087 229.516V228.52H209.447C209.008 228.52 208.677 228.596 208.456 228.749C208.235 228.902 208.124 229.118 208.124 229.398C208.124 229.626 208.199 229.809 208.349 229.945C208.502 230.079 208.705 230.146 208.959 230.146ZM214.003 224.433V225.717H214.936V226.596H214.003V229.545C214.003 229.747 214.042 229.893 214.12 229.984C214.201 230.072 214.345 230.116 214.55 230.116C214.687 230.116 214.825 230.1 214.965 230.067V230.985C214.695 231.06 214.434 231.098 214.184 231.098C213.272 231.098 212.816 230.595 212.816 229.589V226.596H211.947V225.717H212.816V224.433H214.003ZM219.047 230.482C218.699 230.893 218.204 231.098 217.562 231.098C216.99 231.098 216.555 230.93 216.259 230.595C215.966 230.259 215.819 229.774 215.819 229.14V225.717H217.006V229.125C217.006 229.796 217.284 230.131 217.841 230.131C218.417 230.131 218.806 229.924 219.008 229.511V225.717H220.194V231H219.076L219.047 230.482ZM224.169 226.801C224.013 226.775 223.852 226.762 223.686 226.762C223.142 226.762 222.776 226.97 222.587 227.387V231H221.4V225.717H222.533L222.562 226.308C222.849 225.849 223.246 225.619 223.754 225.619C223.923 225.619 224.063 225.642 224.174 225.688L224.169 226.801ZM227.147 231.098C226.396 231.098 225.785 230.862 225.316 230.39C224.851 229.914 224.618 229.283 224.618 228.495V228.349C224.618 227.821 224.719 227.351 224.921 226.938C225.126 226.521 225.412 226.197 225.78 225.966C226.148 225.735 226.558 225.619 227.011 225.619C227.73 225.619 228.285 225.849 228.676 226.308C229.07 226.767 229.267 227.416 229.267 228.256V228.734H225.814C225.85 229.171 225.995 229.516 226.249 229.77C226.506 230.023 226.828 230.15 227.216 230.15C227.759 230.15 228.202 229.931 228.544 229.491L229.184 230.102C228.972 230.417 228.689 230.663 228.334 230.839C227.982 231.011 227.587 231.098 227.147 231.098ZM227.006 226.571C226.68 226.571 226.417 226.685 226.215 226.913C226.016 227.141 225.889 227.458 225.834 227.865H228.095V227.777C228.069 227.38 227.963 227.081 227.777 226.879C227.592 226.674 227.335 226.571 227.006 226.571Z" fill="#EFA460"/>
<path d="M536.275 224.887H534.059V231H532.833V224.887H530.636V223.891H536.275V224.887ZM538.985 231.098C538.233 231.098 537.623 230.862 537.154 230.39C536.689 229.914 536.456 229.283 536.456 228.495V228.349C536.456 227.821 536.557 227.351 536.759 226.938C536.964 226.521 537.25 226.197 537.618 225.966C537.986 225.735 538.396 225.619 538.849 225.619C539.568 225.619 540.123 225.849 540.514 226.308C540.908 226.767 541.104 227.416 541.104 228.256V228.734H537.652C537.688 229.171 537.833 229.516 538.087 229.77C538.344 230.023 538.666 230.15 539.054 230.15C539.597 230.15 540.04 229.931 540.382 229.491L541.021 230.102C540.81 230.417 540.527 230.663 540.172 230.839C539.82 231.011 539.425 231.098 538.985 231.098ZM538.844 226.571C538.518 226.571 538.255 226.685 538.053 226.913C537.854 227.141 537.727 227.458 537.672 227.865H539.933V227.777C539.907 227.38 539.801 227.081 539.615 226.879C539.43 226.674 539.173 226.571 538.844 226.571ZM543.146 225.717L543.18 226.269C543.551 225.836 544.059 225.619 544.703 225.619C545.41 225.619 545.893 225.889 546.153 226.43C546.537 225.889 547.078 225.619 547.774 225.619C548.357 225.619 548.79 225.78 549.073 226.103C549.36 226.425 549.506 226.9 549.513 227.528V231H548.326V227.562C548.326 227.227 548.253 226.981 548.106 226.825C547.96 226.669 547.717 226.591 547.379 226.591C547.109 226.591 546.887 226.664 546.715 226.811C546.546 226.954 546.427 227.143 546.358 227.377L546.363 231H545.177V227.523C545.16 226.902 544.843 226.591 544.225 226.591C543.749 226.591 543.412 226.785 543.214 227.172V231H542.027V225.717H543.146ZM555.357 228.412C555.357 229.229 555.172 229.882 554.801 230.37C554.43 230.855 553.932 231.098 553.307 231.098C552.727 231.098 552.263 230.907 551.915 230.526V233.031H550.729V225.717H551.822L551.871 226.254C552.219 225.831 552.693 225.619 553.292 225.619C553.937 225.619 554.441 225.86 554.806 226.342C555.174 226.82 555.357 227.486 555.357 228.339V228.412ZM554.176 228.31C554.176 227.782 554.07 227.364 553.858 227.055C553.65 226.745 553.351 226.591 552.96 226.591C552.475 226.591 552.127 226.791 551.915 227.191V229.535C552.13 229.945 552.481 230.15 552.97 230.15C553.347 230.15 553.642 229.999 553.854 229.696C554.068 229.39 554.176 228.928 554.176 228.31ZM558.692 231.098C557.94 231.098 557.33 230.862 556.861 230.39C556.396 229.914 556.163 229.283 556.163 228.495V228.349C556.163 227.821 556.264 227.351 556.466 226.938C556.671 226.521 556.957 226.197 557.325 225.966C557.693 225.735 558.103 225.619 558.556 225.619C559.275 225.619 559.83 225.849 560.221 226.308C560.615 226.767 560.812 227.416 560.812 228.256V228.734H557.359C557.395 229.171 557.54 229.516 557.794 229.77C558.051 230.023 558.373 230.15 558.761 230.15C559.304 230.15 559.747 229.931 560.089 229.491L560.729 230.102C560.517 230.417 560.234 230.663 559.879 230.839C559.527 231.011 559.132 231.098 558.692 231.098ZM558.551 226.571C558.225 226.571 557.962 226.685 557.76 226.913C557.561 227.141 557.434 227.458 557.379 227.865H559.64V227.777C559.614 227.38 559.508 227.081 559.322 226.879C559.137 226.674 558.88 226.571 558.551 226.571ZM564.503 226.801C564.347 226.775 564.186 226.762 564.02 226.762C563.476 226.762 563.11 226.97 562.921 227.387V231H561.734V225.717H562.867L562.896 226.308C563.183 225.849 563.58 225.619 564.088 225.619C564.257 225.619 564.397 225.642 564.508 225.688L564.503 226.801ZM568.263 231C568.211 230.899 568.165 230.735 568.126 230.507C567.748 230.901 567.286 231.098 566.739 231.098C566.209 231.098 565.776 230.946 565.44 230.644C565.105 230.341 564.938 229.966 564.938 229.521C564.938 228.957 565.146 228.526 565.562 228.227C565.982 227.924 566.581 227.772 567.359 227.772H568.087V227.426C568.087 227.152 568.01 226.934 567.857 226.771C567.704 226.605 567.472 226.522 567.159 226.522C566.889 226.522 566.668 226.591 566.495 226.728C566.323 226.861 566.236 227.032 566.236 227.24H565.05C565.05 226.951 565.146 226.68 565.338 226.43C565.53 226.176 565.79 225.977 566.119 225.834C566.451 225.691 566.821 225.619 567.228 225.619C567.846 225.619 568.339 225.775 568.707 226.088C569.075 226.397 569.264 226.833 569.273 227.396V229.779C569.273 230.255 569.34 230.634 569.474 230.917V231H568.263ZM566.959 230.146C567.193 230.146 567.413 230.089 567.618 229.975C567.826 229.861 567.983 229.708 568.087 229.516V228.52H567.447C567.008 228.52 566.677 228.596 566.456 228.749C566.235 228.902 566.124 229.118 566.124 229.398C566.124 229.626 566.199 229.809 566.349 229.945C566.502 230.079 566.705 230.146 566.959 230.146ZM572.003 224.433V225.717H572.936V226.596H572.003V229.545C572.003 229.747 572.042 229.893 572.12 229.984C572.201 230.072 572.345 230.116 572.55 230.116C572.687 230.116 572.825 230.1 572.965 230.067V230.985C572.695 231.06 572.434 231.098 572.184 231.098C571.272 231.098 570.816 230.595 570.816 229.589V226.596H569.947V225.717H570.816V224.433H572.003ZM577.047 230.482C576.699 230.893 576.204 231.098 575.562 231.098C574.99 231.098 574.555 230.93 574.259 230.595C573.966 230.259 573.819 229.774 573.819 229.14V225.717H575.006V229.125C575.006 229.796 575.284 230.131 575.841 230.131C576.417 230.131 576.806 229.924 577.008 229.511V225.717H578.194V231H577.076L577.047 230.482ZM582.169 226.801C582.013 226.775 581.852 226.762 581.686 226.762C581.142 226.762 580.776 226.97 580.587 227.387V231H579.4V225.717H580.533L580.562 226.308C580.849 225.849 581.246 225.619 581.754 225.619C581.923 225.619 582.063 225.642 582.174 225.688L582.169 226.801ZM585.147 231.098C584.396 231.098 583.785 230.862 583.316 230.39C582.851 229.914 582.618 229.283 582.618 228.495V228.349C582.618 227.821 582.719 227.351 582.921 226.938C583.126 226.521 583.412 226.197 583.78 225.966C584.148 225.735 584.558 225.619 585.011 225.619C585.73 225.619 586.285 225.849 586.676 226.308C587.07 226.767 587.267 227.416 587.267 228.256V228.734H583.814C583.85 229.171 583.995 229.516 584.249 229.77C584.506 230.023 584.828 230.15 585.216 230.15C585.759 230.15 586.202 229.931 586.544 229.491L587.184 230.102C586.972 230.417 586.689 230.663 586.334 230.839C585.982 231.011 585.587 231.098 585.147 231.098ZM585.006 226.571C584.68 226.571 584.417 226.685 584.215 226.913C584.016 227.141 583.889 227.458 583.834 227.865H586.095V227.777C586.069 227.38 585.963 227.081 585.777 226.879C585.592 226.674 585.335 226.571 585.006 226.571Z" fill="#29A1F8"/>
<path d="M19 140.05H11.8906V137.613C11.8906 136.809 12.0518 136.197 12.374 135.777C12.6963 135.357 13.1764 135.147 13.8145 135.147C14.14 135.147 14.4329 135.235 14.6934 135.411C14.9538 135.587 15.1556 135.844 15.2988 136.183C15.403 135.799 15.5999 135.502 15.8896 135.294C16.1761 135.082 16.5212 134.977 16.9248 134.977C17.5921 134.977 18.1048 135.191 18.4629 135.621C18.821 136.048 19 136.66 19 137.457V140.05ZM15.792 138.814H18.0137V137.442C18.0137 137.055 17.9176 136.752 17.7256 136.534C17.5335 136.316 17.2666 136.207 16.9248 136.207C16.1859 136.207 15.8083 136.585 15.792 137.34V138.814ZM14.8838 138.814V137.604C14.8838 137.219 14.7975 136.92 14.625 136.705C14.4492 136.487 14.2018 136.378 13.8828 136.378C13.5312 136.378 13.2773 136.479 13.1211 136.681C12.9648 136.879 12.8867 137.19 12.8867 137.613V138.814H14.8838ZM19 132.594V133.78H13.7168V132.594H19ZM12.3447 133.854C12.1624 133.854 12.0111 133.797 11.8906 133.683C11.7702 133.565 11.71 133.399 11.71 133.185C11.71 132.97 11.7702 132.804 11.8906 132.687C12.0111 132.569 12.1624 132.511 12.3447 132.511C12.5238 132.511 12.6735 132.569 12.7939 132.687C12.9111 132.804 12.9697 132.97 12.9697 133.185C12.9697 133.399 12.9111 133.565 12.7939 133.683C12.6735 133.797 12.5238 133.854 12.3447 133.854ZM16.7344 129.581L17.2764 130.108H19V131.295H11.5V130.108H15.8262L15.3623 129.737L13.7168 128.277V126.852L15.9189 128.814L19 126.642V128.014L16.7344 129.581ZM19.0977 123.844C19.0977 124.596 18.8617 125.206 18.3896 125.675C17.9144 126.14 17.2829 126.373 16.4951 126.373H16.3486C15.8213 126.373 15.3509 126.272 14.9375 126.07C14.5208 125.865 14.1969 125.579 13.9658 125.211C13.7347 124.843 13.6191 124.433 13.6191 123.98C13.6191 123.261 13.8486 122.706 14.3076 122.315C14.7666 121.922 15.416 121.725 16.2559 121.725H16.7344V125.177C17.1706 125.141 17.5156 124.996 17.7695 124.742C18.0234 124.485 18.1504 124.163 18.1504 123.775C18.1504 123.232 17.9307 122.789 17.4912 122.447L18.1016 121.808C18.4173 122.019 18.6631 122.302 18.8389 122.657C19.0114 123.009 19.0977 123.404 19.0977 123.844ZM14.5713 123.985C14.5713 124.311 14.6852 124.575 14.9131 124.776C15.141 124.975 15.4583 125.102 15.8652 125.157V122.896H15.7773C15.3802 122.923 15.0807 123.028 14.8789 123.214C14.6738 123.399 14.5713 123.657 14.5713 123.985ZM17.5645 117.838C17.3529 117.838 17.1917 117.926 17.0811 118.102C16.9704 118.274 16.8727 118.562 16.7881 118.966C16.7035 119.369 16.596 119.706 16.4658 119.977C16.1794 120.569 15.7643 120.865 15.2207 120.865C14.765 120.865 14.3841 120.673 14.0781 120.289C13.7721 119.905 13.6191 119.417 13.6191 118.824C13.6191 118.193 13.7754 117.683 14.0879 117.296C14.4004 116.905 14.8057 116.71 15.3037 116.71V117.896C15.0758 117.896 14.887 117.981 14.7373 118.15C14.5843 118.32 14.5078 118.544 14.5078 118.824C14.5078 119.085 14.568 119.298 14.6885 119.464C14.8089 119.627 14.9701 119.708 15.1719 119.708C15.3542 119.708 15.4958 119.632 15.5967 119.479C15.6976 119.326 15.8001 119.016 15.9043 118.551C16.0052 118.085 16.1273 117.721 16.2705 117.457C16.4105 117.19 16.5798 116.993 16.7783 116.866C16.9769 116.736 17.2178 116.671 17.501 116.671C17.9762 116.671 18.362 116.868 18.6582 117.262C18.9512 117.656 19.0977 118.172 19.0977 118.81C19.0977 119.243 19.0195 119.628 18.8633 119.967C18.707 120.305 18.4922 120.569 18.2188 120.758C17.9453 120.947 17.6507 121.041 17.335 121.041V119.889C17.6149 119.872 17.8314 119.767 17.9844 119.571C18.1341 119.376 18.209 119.117 18.209 118.795C18.209 118.482 18.1504 118.245 18.0332 118.082C17.9128 117.919 17.7565 117.838 17.5645 117.838ZM16.2607 110.416V111.793H19V113.028H11.8906V110.528C11.8906 109.708 12.0745 109.075 12.4424 108.629C12.8102 108.183 13.3424 107.96 14.0391 107.96C14.5143 107.96 14.9131 108.076 15.2354 108.307C15.5544 108.535 15.8001 108.854 15.9727 109.264L18.9365 107.667H19V108.99L16.2607 110.416ZM15.2695 111.793V110.523C15.2695 110.107 15.1654 109.781 14.957 109.547C14.7454 109.312 14.4574 109.195 14.0928 109.195C13.7119 109.195 13.4173 109.304 13.209 109.522C13.0007 109.737 12.8932 110.06 12.8867 110.489V111.793H15.2695ZM19.0977 104.576C19.0977 105.328 18.8617 105.938 18.3896 106.407C17.9144 106.873 17.2829 107.105 16.4951 107.105H16.3486C15.8213 107.105 15.3509 107.005 14.9375 106.803C14.5208 106.598 14.1969 106.311 13.9658 105.943C13.7347 105.576 13.6191 105.165 13.6191 104.713C13.6191 103.993 13.8486 103.438 14.3076 103.048C14.7666 102.654 15.416 102.457 16.2559 102.457H16.7344L16.7344 105.909C17.1706 105.873 17.5156 105.729 17.7695 105.475C18.0234 105.217 18.1504 104.895 18.1504 104.508C18.1504 103.964 17.9307 103.521 17.4912 103.18L18.1016 102.54C18.4173 102.752 18.6631 103.035 18.8389 103.39C19.0114 103.741 19.0977 104.137 19.0977 104.576ZM14.5713 104.718C14.5713 105.043 14.6852 105.307 14.9131 105.509C15.141 105.707 15.4583 105.834 15.8652 105.89L15.8652 103.629H15.7773C15.3802 103.655 15.0807 103.761 14.8789 103.946C14.6738 104.132 14.5713 104.389 14.5713 104.718ZM13.7168 100.431L14.3271 100.396C13.8551 100.006 13.6191 99.4932 13.6191 98.8584C13.6191 97.7581 14.249 97.1982 15.5088 97.1787H19L19 98.3652H15.5771C15.2419 98.3652 14.9945 98.4385 14.835 98.585C14.6722 98.7282 14.5908 98.9642 14.5908 99.293C14.5908 99.7715 14.8073 100.128 15.2402 100.362H19V101.549H13.7168L13.7168 100.431ZM12.4326 94.4785H13.7168V93.5459H14.5957V94.4785H17.5449C17.7467 94.4785 17.8932 94.4395 17.9844 94.3613C18.0723 94.2799 18.1162 94.1367 18.1162 93.9316C18.1162 93.7949 18.0999 93.6566 18.0674 93.5166H18.9854C19.0602 93.7868 19.0977 94.0472 19.0977 94.2979C19.0977 95.2093 18.5947 95.665 17.5889 95.665H14.5957V96.5342H13.7168V95.665H12.4326V94.4785ZM19.0977 90.3086C19.0977 91.0605 18.8617 91.6709 18.3896 92.1396C17.9144 92.6051 17.2829 92.8379 16.4951 92.8379H16.3486C15.8213 92.8379 15.3509 92.737 14.9375 92.5352C14.5208 92.3301 14.1969 92.0436 13.9658 91.6758C13.7347 91.3079 13.6191 90.8978 13.6191 90.4453C13.6191 89.7259 13.8486 89.1709 14.3076 88.7803C14.7666 88.3864 15.416 88.1895 16.2559 88.1895H16.7344V91.6416C17.1706 91.6058 17.5156 91.4609 17.7695 91.207C18.0234 90.9499 18.1504 90.6276 18.1504 90.2402C18.1504 89.6966 17.9307 89.2539 17.4912 88.9121L18.1016 88.2725C18.4173 88.484 18.6631 88.7673 18.8389 89.1221C19.0114 89.4736 19.0977 89.8691 19.0977 90.3086ZM14.5713 90.4502C14.5713 90.7757 14.6852 91.0394 14.9131 91.2412C15.141 91.4398 15.4583 91.5667 15.8652 91.6221V89.3613H15.7773C15.3802 89.3874 15.0807 89.4932 14.8789 89.6787C14.6738 89.8643 14.5713 90.1214 14.5713 90.4502ZM16.3193 87.4863C15.5055 87.4863 14.8529 87.2975 14.3613 86.9199C13.8665 86.5423 13.6191 86.0361 13.6191 85.4014C13.6191 84.8415 13.8145 84.389 14.2051 84.0439H11.5V82.8574H19V83.9316L18.4531 83.9902C18.8828 84.3451 19.0977 84.8187 19.0977 85.4111C19.0977 86.0296 18.8486 86.5309 18.3506 86.915C17.8525 87.2959 17.1755 87.4863 16.3193 87.4863ZM16.4219 86.2998C16.959 86.2998 17.3789 86.1973 17.6816 85.9922C17.9811 85.7839 18.1309 85.4893 18.1309 85.1084C18.1309 84.6234 17.9144 84.2686 17.4814 84.0439H15.2256C14.8024 84.262 14.5908 84.6136 14.5908 85.0986C14.5908 85.4827 14.7438 85.779 15.0498 85.9873C15.3525 86.1956 15.8099 86.2998 16.4219 86.2998Z" fill="#EFA460"/>
<path d="M377 140.05H369.891V137.613C369.891 136.809 370.052 136.197 370.374 135.777C370.696 135.357 371.176 135.147 371.814 135.147C372.14 135.147 372.433 135.235 372.693 135.411C372.954 135.587 373.156 135.844 373.299 136.183C373.403 135.799 373.6 135.502 373.89 135.294C374.176 135.082 374.521 134.977 374.925 134.977C375.592 134.977 376.105 135.191 376.463 135.621C376.821 136.048 377 136.66 377 137.457V140.05ZM373.792 138.814H376.014V137.442C376.014 137.055 375.918 136.752 375.726 136.534C375.534 136.316 375.267 136.207 374.925 136.207C374.186 136.207 373.808 136.585 373.792 137.34V138.814ZM372.884 138.814V137.604C372.884 137.219 372.798 136.92 372.625 136.705C372.449 136.487 372.202 136.378 371.883 136.378C371.531 136.378 371.277 136.479 371.121 136.681C370.965 136.879 370.887 137.19 370.887 137.613V138.814H372.884ZM377 132.594V133.78H371.717V132.594H377ZM370.345 133.854C370.162 133.854 370.011 133.797 369.891 133.683C369.77 133.565 369.71 133.399 369.71 133.185C369.71 132.97 369.77 132.804 369.891 132.687C370.011 132.569 370.162 132.511 370.345 132.511C370.524 132.511 370.674 132.569 370.794 132.687C370.911 132.804 370.97 132.97 370.97 133.185C370.97 133.399 370.911 133.565 370.794 133.683C370.674 133.797 370.524 133.854 370.345 133.854ZM374.734 129.581L375.276 130.108H377V131.295H369.5V130.108H373.826L373.362 129.737L371.717 128.277V126.852L373.919 128.814L377 126.642V128.014L374.734 129.581ZM377.098 123.844C377.098 124.596 376.862 125.206 376.39 125.675C375.914 126.14 375.283 126.373 374.495 126.373H374.349C373.821 126.373 373.351 126.272 372.938 126.07C372.521 125.865 372.197 125.579 371.966 125.211C371.735 124.843 371.619 124.433 371.619 123.98C371.619 123.261 371.849 122.706 372.308 122.315C372.767 121.922 373.416 121.725 374.256 121.725H374.734V125.177C375.171 125.141 375.516 124.996 375.77 124.742C376.023 124.485 376.15 124.163 376.15 123.775C376.15 123.232 375.931 122.789 375.491 122.447L376.102 121.808C376.417 122.019 376.663 122.302 376.839 122.657C377.011 123.009 377.098 123.404 377.098 123.844ZM372.571 123.985C372.571 124.311 372.685 124.575 372.913 124.776C373.141 124.975 373.458 125.102 373.865 125.157V122.896H373.777C373.38 122.923 373.081 123.028 372.879 123.214C372.674 123.399 372.571 123.657 372.571 123.985ZM375.564 117.838C375.353 117.838 375.192 117.926 375.081 118.102C374.97 118.274 374.873 118.562 374.788 118.966C374.703 119.369 374.596 119.706 374.466 119.977C374.179 120.569 373.764 120.865 373.221 120.865C372.765 120.865 372.384 120.673 372.078 120.289C371.772 119.905 371.619 119.417 371.619 118.824C371.619 118.193 371.775 117.683 372.088 117.296C372.4 116.905 372.806 116.71 373.304 116.71V117.896C373.076 117.896 372.887 117.981 372.737 118.15C372.584 118.32 372.508 118.544 372.508 118.824C372.508 119.085 372.568 119.298 372.688 119.464C372.809 119.627 372.97 119.708 373.172 119.708C373.354 119.708 373.496 119.632 373.597 119.479C373.698 119.326 373.8 119.016 373.904 118.551C374.005 118.085 374.127 117.721 374.271 117.457C374.41 117.19 374.58 116.993 374.778 116.866C374.977 116.736 375.218 116.671 375.501 116.671C375.976 116.671 376.362 116.868 376.658 117.262C376.951 117.656 377.098 118.172 377.098 118.81C377.098 119.243 377.02 119.628 376.863 119.967C376.707 120.305 376.492 120.569 376.219 120.758C375.945 120.947 375.651 121.041 375.335 121.041V119.889C375.615 119.872 375.831 119.767 375.984 119.571C376.134 119.376 376.209 119.117 376.209 118.795C376.209 118.482 376.15 118.245 376.033 118.082C375.913 117.919 375.757 117.838 375.564 117.838ZM374.261 110.416V111.793H377V113.028H369.891V110.528C369.891 109.708 370.075 109.075 370.442 108.629C370.81 108.183 371.342 107.96 372.039 107.96C372.514 107.96 372.913 108.076 373.235 108.307C373.554 108.535 373.8 108.854 373.973 109.264L376.937 107.667H377V108.99L374.261 110.416ZM373.27 111.793V110.523C373.27 110.107 373.165 109.781 372.957 109.547C372.745 109.312 372.457 109.195 372.093 109.195C371.712 109.195 371.417 109.304 371.209 109.522C371.001 109.737 370.893 110.06 370.887 110.489V111.793H373.27ZM377.098 104.576C377.098 105.328 376.862 105.938 376.39 106.407C375.914 106.873 375.283 107.105 374.495 107.105H374.349C373.821 107.105 373.351 107.005 372.938 106.803C372.521 106.598 372.197 106.311 371.966 105.943C371.735 105.576 371.619 105.165 371.619 104.713C371.619 103.993 371.849 103.438 372.308 103.048C372.767 102.654 373.416 102.457 374.256 102.457H374.734V105.909C375.171 105.873 375.516 105.729 375.77 105.475C376.023 105.217 376.15 104.895 376.15 104.508C376.15 103.964 375.931 103.521 375.491 103.18L376.102 102.54C376.417 102.752 376.663 103.035 376.839 103.39C377.011 103.741 377.098 104.137 377.098 104.576ZM372.571 104.718C372.571 105.043 372.685 105.307 372.913 105.509C373.141 105.707 373.458 105.834 373.865 105.89V103.629H373.777C373.38 103.655 373.081 103.761 372.879 103.946C372.674 104.132 372.571 104.389 372.571 104.718ZM371.717 100.431L372.327 100.396C371.855 100.006 371.619 99.4932 371.619 98.8584C371.619 97.7581 372.249 97.1982 373.509 97.1787H377V98.3652H373.577C373.242 98.3652 372.994 98.4385 372.835 98.585C372.672 98.7282 372.591 98.9642 372.591 99.293C372.591 99.7715 372.807 100.128 373.24 100.362H377V101.549H371.717V100.431ZM370.433 94.4785H371.717V93.5459H372.596V94.4785H375.545C375.747 94.4785 375.893 94.4395 375.984 94.3613C376.072 94.2799 376.116 94.1367 376.116 93.9316C376.116 93.7949 376.1 93.6566 376.067 93.5166H376.985C377.06 93.7868 377.098 94.0472 377.098 94.2979C377.098 95.2093 376.595 95.665 375.589 95.665H372.596V96.5342H371.717V95.665H370.433V94.4785ZM377.098 90.3086C377.098 91.0605 376.862 91.6709 376.39 92.1396C375.914 92.6051 375.283 92.8379 374.495 92.8379H374.349C373.821 92.8379 373.351 92.737 372.938 92.5352C372.521 92.3301 372.197 92.0436 371.966 91.6758C371.735 91.3079 371.619 90.8978 371.619 90.4453C371.619 89.7259 371.849 89.1709 372.308 88.7803C372.767 88.3864 373.416 88.1895 374.256 88.1895H374.734V91.6416C375.171 91.6058 375.516 91.4609 375.77 91.207C376.023 90.9499 376.15 90.6276 376.15 90.2402C376.15 89.6966 375.931 89.2539 375.491 88.9121L376.102 88.2725C376.417 88.484 376.663 88.7673 376.839 89.1221C377.011 89.4736 377.098 89.8691 377.098 90.3086ZM372.571 90.4502C372.571 90.7757 372.685 91.0394 372.913 91.2412C373.141 91.4398 373.458 91.5667 373.865 91.6221V89.3613H373.777C373.38 89.3874 373.081 89.4932 372.879 89.6787C372.674 89.8643 372.571 90.1214 372.571 90.4502ZM374.319 87.4863C373.506 87.4863 372.853 87.2975 372.361 86.9199C371.867 86.5423 371.619 86.0361 371.619 85.4014C371.619 84.8415 371.814 84.389 372.205 84.0439H369.5V82.8574H377V83.9316L376.453 83.9902C376.883 84.3451 377.098 84.8187 377.098 85.4111C377.098 86.0296 376.849 86.5309 376.351 86.915C375.853 87.2959 375.175 87.4863 374.319 87.4863ZM374.422 86.2998C374.959 86.2998 375.379 86.1973 375.682 85.9922C375.981 85.7839 376.131 85.4893 376.131 85.1084C376.131 84.6234 375.914 84.2686 375.481 84.0439H373.226C372.802 84.262 372.591 84.6136 372.591 85.0986C372.591 85.4827 372.744 85.779 373.05 85.9873C373.353 86.1956 373.81 86.2998 374.422 86.2998Z" fill="#29A1F8"/>
<g style="mix-blend-mode:multiply">
<path d="M283.891 43.4033L70.0727 155.298C69.4133 155.643 69 156.326 69 157.07V183.8C69 184.904 69.8954 185.8 71 185.8H120.292C120.672 185.8 121.044 185.692 121.364 185.488L307.617 67.1783C308.421 66.6674 309.474 66.7948 310.133 67.4829L324.908 82.9048C326.155 84.2065 328.352 83.3238 328.352 81.5213V29C328.352 27.8954 327.457 27 326.352 27H278.302C276.643 27 275.706 28.9033 276.716 30.2186L284.55 40.4126C285.307 41.3977 284.992 42.8273 283.891 43.4033Z" fill="url(#paint2_linear)"/>
</g>
<g style="mix-blend-mode:multiply">
<path d="M493.573 160.028L702.97 43.9635C703.605 43.6111 704 42.9413 704 42.2143V16C704 14.8955 703.105 14 702 14H653.316C652.939 14 652.57 14.1064 652.251 14.307L465.086 132.003C464.194 132.564 463.019 132.336 462.401 131.483L456.07 122.74C454.993 121.253 452.65 121.881 452.461 123.707L447.802 168.697C447.686 169.812 448.509 170.804 449.626 170.897L495.432 174.703C496.992 174.833 498.089 173.202 497.382 171.806L492.758 162.681C492.272 161.721 492.632 160.549 493.573 160.028Z" fill="url(#paint3_linear)"/>
</g>
<g filter="url(#filter2_d)">
<path fill-rule="evenodd" clip-rule="evenodd" d="M329 173.13C329.288 173.13 329.522 172.897 329.522 172.609V170.522C329.522 170.234 329.288 170 329 170C328.712 170 328.478 170.234 328.478 170.522V172.609C328.478 172.897 328.712 173.13 329 173.13ZM329 189.826C333.322 189.826 336.826 186.322 336.826 182C336.826 177.678 333.322 174.174 329 174.174C324.678 174.174 321.174 177.678 321.174 182C321.174 186.322 324.678 189.826 329 189.826ZM328.478 191.391C328.478 191.103 328.712 190.87 329 190.87C329.288 190.87 329.522 191.103 329.522 191.391V193.478C329.522 193.766 329.288 194 329 194C328.712 194 328.478 193.766 328.478 193.478V191.391ZM340.478 181.478H338.391C338.103 181.478 337.87 181.712 337.87 182C337.87 182.288 338.103 182.522 338.391 182.522H340.478C340.766 182.522 341 182.288 341 182C341 181.712 340.766 181.478 340.478 181.478ZM319.609 181.478C319.897 181.478 320.13 181.712 320.13 182C320.13 182.288 319.897 182.522 319.609 182.522H317.522C317.234 182.522 317 182.288 317 182C317 181.712 317.234 181.478 317.522 181.478H319.609ZM323.853 174.128C323.946 174.29 324.119 174.389 324.305 174.389C324.397 174.389 324.487 174.365 324.566 174.319C324.816 174.175 324.901 173.856 324.757 173.606L323.714 171.799C323.568 171.55 323.248 171.467 323 171.613C322.754 171.757 322.669 172.073 322.81 172.321L323.853 174.128ZM333.433 189.686C333.682 189.54 334.002 189.623 334.147 189.872L335.192 191.679C335.336 191.929 335.251 192.248 335.001 192.392C334.922 192.438 334.832 192.462 334.74 192.462C334.553 192.462 334.381 192.363 334.287 192.201L333.244 190.394C333.103 190.146 333.187 189.83 333.433 189.686ZM337.133 177.826C337.224 177.826 337.315 177.802 337.394 177.756L339.201 176.713C339.456 176.579 339.555 176.264 339.421 176.009C339.288 175.753 338.973 175.655 338.717 175.788C338.704 175.795 338.692 175.802 338.679 175.81L336.872 176.854C336.622 176.998 336.537 177.317 336.681 177.566C336.774 177.728 336.946 177.827 337.133 177.827V177.826H337.133ZM318.799 187.287L320.606 186.244L320.606 186.245C320.619 186.237 320.631 186.23 320.644 186.223C320.9 186.089 321.215 186.188 321.348 186.443C321.482 186.699 321.383 187.014 321.128 187.148L319.321 188.191C319.242 188.237 319.151 188.261 319.06 188.261C318.873 188.261 318.701 188.161 318.608 188C318.464 187.75 318.549 187.431 318.799 187.287ZM318.799 176.713L320.606 177.756C320.685 177.802 320.775 177.826 320.866 177.826C321.154 177.826 321.388 177.592 321.388 177.304C321.388 177.118 321.288 176.946 321.127 176.852L319.32 175.809C319.076 175.654 318.754 175.726 318.599 175.969C318.445 176.213 318.517 176.535 318.76 176.69C318.772 176.697 318.785 176.705 318.798 176.712L318.799 176.713ZM337.394 186.244L339.201 187.287V187.286C339.362 187.379 339.462 187.552 339.462 187.738C339.462 188.026 339.228 188.26 338.94 188.26C338.849 188.26 338.758 188.236 338.679 188.19L336.872 187.146C336.859 187.14 336.846 187.132 336.834 187.124C336.591 186.97 336.519 186.647 336.674 186.404C336.828 186.161 337.151 186.089 337.394 186.244ZM333.435 174.319C333.514 174.365 333.604 174.389 333.696 174.389C333.882 174.389 334.055 174.29 334.148 174.128L335.192 172.321C335.334 172.07 335.247 171.752 334.996 171.609C334.748 171.468 334.433 171.553 334.288 171.799L333.245 173.606C333.101 173.855 333.186 174.175 333.435 174.319ZM323.853 189.872C323.997 189.622 324.316 189.537 324.565 189.681L324.566 189.681C324.815 189.825 324.901 190.144 324.757 190.394L323.714 192.201C323.62 192.363 323.448 192.462 323.261 192.462C323.169 192.462 323.079 192.438 323 192.392C322.75 192.248 322.665 191.929 322.809 191.679L323.853 189.872Z" fill="#EFA460"/>
</g>
<g filter="url(#filter3_d)">
<path fill-rule="evenodd" clip-rule="evenodd" d="M688 173.13C688.288 173.13 688.522 172.897 688.522 172.609V170.522C688.522 170.234 688.288 170 688 170C687.712 170 687.478 170.234 687.478 170.522V172.609C687.478 172.897 687.712 173.13 688 173.13ZM688 189.826C692.322 189.826 695.826 186.322 695.826 182C695.826 177.678 692.322 174.174 688 174.174C683.678 174.174 680.174 177.678 680.174 182C680.174 186.322 683.678 189.826 688 189.826ZM687.478 191.391C687.478 191.103 687.712 190.87 688 190.87C688.288 190.87 688.522 191.103 688.522 191.391V193.478C688.522 193.766 688.288 194 688 194C687.712 194 687.478 193.766 687.478 193.478V191.391ZM699.478 181.478H697.391C697.103 181.478 696.87 181.712 696.87 182C696.87 182.288 697.103 182.522 697.391 182.522H699.478C699.766 182.522 700 182.288 700 182C700 181.712 699.766 181.478 699.478 181.478ZM678.609 181.478C678.897 181.478 679.13 181.712 679.13 182C679.13 182.288 678.897 182.522 678.609 182.522H676.522C676.234 182.522 676 182.288 676 182C676 181.712 676.234 181.478 676.522 181.478H678.609ZM682.853 174.128C682.946 174.29 683.119 174.389 683.305 174.389C683.397 174.389 683.487 174.365 683.566 174.319C683.816 174.175 683.901 173.856 683.757 173.606L682.714 171.799C682.568 171.55 682.248 171.467 682 171.613C681.754 171.757 681.669 172.073 681.81 172.321L682.853 174.128ZM692.433 189.686C692.682 189.54 693.002 189.623 693.147 189.872L694.192 191.679C694.336 191.929 694.251 192.248 694.001 192.392C693.922 192.438 693.832 192.462 693.74 192.462C693.553 192.462 693.381 192.363 693.287 192.201L692.244 190.394C692.103 190.146 692.187 189.83 692.433 189.686ZM696.133 177.826C696.224 177.826 696.315 177.802 696.394 177.756L698.201 176.713C698.456 176.579 698.555 176.264 698.421 176.009C698.288 175.753 697.973 175.655 697.717 175.788C697.704 175.795 697.692 175.802 697.679 175.81L695.872 176.854C695.622 176.998 695.537 177.317 695.681 177.566C695.774 177.728 695.946 177.827 696.133 177.827V177.826H696.133ZM677.799 187.287L679.606 186.244L679.606 186.245C679.619 186.237 679.631 186.23 679.644 186.223C679.9 186.089 680.215 186.188 680.348 186.443C680.482 186.699 680.383 187.014 680.128 187.148L678.321 188.191C678.242 188.237 678.151 188.261 678.06 188.261C677.873 188.261 677.701 188.161 677.608 188C677.464 187.75 677.549 187.431 677.799 187.287ZM677.799 176.713L679.606 177.756C679.685 177.802 679.775 177.826 679.866 177.826C680.154 177.826 680.388 177.592 680.388 177.304C680.388 177.118 680.288 176.946 680.127 176.852L678.32 175.809C678.076 175.654 677.754 175.726 677.599 175.969C677.445 176.213 677.517 176.535 677.76 176.69C677.772 176.697 677.785 176.705 677.798 176.712L677.799 176.713ZM696.394 186.244L698.201 187.287V187.286C698.362 187.379 698.462 187.552 698.462 187.738C698.462 188.026 698.228 188.26 697.94 188.26C697.849 188.26 697.758 188.236 697.679 188.19L695.872 187.146C695.859 187.14 695.846 187.132 695.834 187.124C695.591 186.97 695.519 186.647 695.674 186.404C695.828 186.161 696.151 186.089 696.394 186.244ZM692.435 174.319C692.514 174.365 692.604 174.389 692.696 174.389C692.882 174.389 693.055 174.29 693.148 174.128L694.192 172.321C694.334 172.07 694.247 171.752 693.996 171.609C693.748 171.468 693.433 171.553 693.288 171.799L692.245 173.606C692.101 173.855 692.186 174.175 692.435 174.319ZM682.853 189.872C682.997 189.622 683.316 189.537 683.565 189.681L683.566 189.681C683.815 189.825 683.901 190.144 683.757 190.394L682.714 192.201C682.62 192.363 682.448 192.462 682.261 192.462C682.169 192.462 682.079 192.438 682 192.392C681.75 192.248 681.665 191.929 681.809 191.679L682.853 189.872Z" fill="#EFA460"/>
</g>
<path d="M443.706 182.757L439.322 183.931L437.632 182.956V181.127L439.303 180.168L443.706 181.347C443.794 181.371 443.883 181.383 443.971 181.383C444.424 181.383 444.837 181.081 444.96 180.623C445.106 180.076 444.782 179.514 444.235 179.368L441.821 178.721L444.047 177.444C444.537 177.162 444.707 176.536 444.425 176.045C444.142 175.554 443.517 175.384 443.027 175.667L440.797 176.947L441.444 174.533C441.59 173.986 441.266 173.424 440.719 173.278C440.176 173.135 439.612 173.456 439.465 174.002L438.29 178.386L436.609 179.352L435.016 178.43V176.497L438.238 173.274C438.638 172.874 438.638 172.226 438.238 171.826C437.838 171.425 437.19 171.425 436.789 171.826L435.016 173.599V171.024C435.016 170.459 434.557 170 433.991 170C433.425 170 432.967 170.459 432.967 171.024V173.587L431.206 171.826C430.806 171.425 430.157 171.425 429.757 171.826C429.357 172.226 429.357 172.874 429.757 173.274L432.967 176.484V178.438L431.385 179.35L429.704 178.385L428.53 174.002C428.384 173.456 427.822 173.134 427.276 173.278C426.729 173.424 426.405 173.986 426.552 174.533L427.198 176.947L424.968 175.667C424.477 175.384 423.851 175.554 423.57 176.045C423.288 176.536 423.458 177.162 423.949 177.444L426.174 178.721L423.76 179.368C423.213 179.514 422.889 180.076 423.035 180.623C423.158 181.081 423.571 181.383 424.024 181.383C424.112 181.383 424.201 181.371 424.29 181.347L428.693 180.167L430.362 181.125L430.364 182.956L428.673 183.933L424.29 182.757C423.747 182.614 423.182 182.935 423.035 183.481C422.889 184.028 423.213 184.59 423.76 184.735L426.165 185.381L423.946 186.661C423.456 186.944 423.288 187.57 423.572 188.06C423.761 188.39 424.106 188.573 424.459 188.573C424.633 188.573 424.809 188.529 424.971 188.435L427.201 187.148L426.552 189.572C426.405 190.119 426.729 190.679 427.276 190.827C427.365 190.851 427.454 190.862 427.542 190.862C427.994 190.862 428.408 190.559 428.53 190.102L429.71 185.699L431.388 184.731L432.967 185.642V187.62L429.757 190.83C429.357 191.23 429.357 191.878 429.757 192.279C429.957 192.479 430.219 192.578 430.481 192.578C430.743 192.578 431.006 192.479 431.206 192.279L432.967 190.518V193.079C432.967 193.646 433.425 194.104 433.991 194.104C434.557 194.104 435.016 193.646 435.016 193.079V190.505L436.79 192.279C436.99 192.479 437.251 192.578 437.514 192.578C437.776 192.578 438.038 192.479 438.238 192.279C438.638 191.878 438.638 191.23 438.238 190.83L435.016 187.607V185.65L436.608 184.731L438.285 185.699L439.465 190.101C439.588 190.559 440.001 190.862 440.454 190.862C440.541 190.862 440.631 190.85 440.719 190.826C441.266 190.679 441.59 190.119 441.444 189.571L440.794 187.148L443.025 188.435C443.186 188.529 443.362 188.572 443.536 188.572C443.89 188.572 444.234 188.39 444.424 188.06C444.707 187.57 444.539 186.944 444.049 186.661L441.83 185.381L444.235 184.735C444.782 184.59 445.106 184.028 444.96 183.481C444.814 182.935 444.252 182.614 443.706 182.757ZM435.583 182.956L433.998 183.872L432.413 182.956L432.411 181.123L433.998 180.208L435.583 181.125V182.956Z" fill="#29A1F8"/>
<path d="M84.7059 182.757L80.3219 183.931L78.6321 182.956V181.127L80.3026 180.168L84.7058 181.347C84.7943 181.371 84.8832 181.383 84.9713 181.383C85.4236 181.383 85.8375 181.081 85.9597 180.623C86.1062 180.076 85.782 179.514 85.2353 179.368L82.8214 178.721L85.0467 177.444C85.5372 177.162 85.7069 176.536 85.4251 176.045C85.1424 175.554 84.5175 175.384 84.0268 175.667L81.7969 176.947L82.4435 174.533C82.5899 173.986 82.2662 173.424 81.7192 173.278C81.1759 173.135 80.6117 173.456 80.4651 174.002L79.2902 178.386L77.6092 179.352L76.0157 178.43V176.497L79.2382 173.274C79.6382 172.874 79.6382 172.226 79.2382 171.826C78.838 171.425 78.1899 171.425 77.7895 171.826L76.0157 173.599V171.024C76.0157 170.459 75.5569 170 74.9911 170C74.4255 170 73.9667 170.459 73.9667 171.024V173.587L72.2058 171.826C71.8056 171.425 71.1574 171.425 70.7571 171.826C70.3569 172.226 70.3569 172.874 70.7571 173.274L73.9667 176.484V178.438L72.3852 179.35L70.7042 178.385L69.5302 174.002C69.3839 173.456 68.8223 173.134 68.2762 173.278C67.7295 173.424 67.4051 173.986 67.5515 174.533L68.1981 176.947L65.9684 175.667C65.4768 175.384 64.8511 175.554 64.5698 176.045C64.2882 176.536 64.458 177.162 64.9487 177.444L67.1737 178.721L64.7598 179.368C64.2131 179.514 63.8887 180.076 64.0352 180.623C64.1577 181.081 64.5715 181.383 65.0238 181.383C65.1119 181.383 65.2009 181.371 65.2896 181.347L69.6933 180.167L71.362 181.125L71.3637 182.956L69.6734 183.933L65.2896 182.757C64.7468 182.614 64.1818 182.935 64.0352 183.481C63.8887 184.028 64.2131 184.59 64.7598 184.735L67.1649 185.381L64.9461 186.661C64.4563 186.944 64.2882 187.57 64.5715 188.06C64.7613 188.39 65.1055 188.573 65.4592 188.573C65.6328 188.573 65.8091 188.529 65.9705 188.435L68.2005 187.148L67.5515 189.572C67.4051 190.119 67.7295 190.679 68.2762 190.827C68.3647 190.851 68.4536 190.862 68.5417 190.862C68.9939 190.862 69.4076 190.559 69.5302 190.102L70.7101 185.699L72.3883 184.731L73.9667 185.642V187.62L70.7571 190.83C70.3569 191.23 70.3569 191.878 70.7571 192.279C70.9572 192.479 71.2189 192.578 71.4814 192.578C71.7431 192.578 72.0057 192.479 72.2058 192.279L73.9667 190.518V193.079C73.9667 193.646 74.4255 194.104 74.9911 194.104C75.5569 194.104 76.0157 193.646 76.0157 193.079V190.505L77.7895 192.279C77.9896 192.479 78.2513 192.578 78.5139 192.578C78.7765 192.578 79.0382 192.479 79.2382 192.279C79.6383 191.878 79.6383 191.23 79.2382 190.83L76.0157 187.607V185.65L77.6077 184.731L79.2854 185.699L80.4653 190.101C80.5877 190.559 81.0015 190.862 81.4536 190.862C81.5414 190.862 81.6306 190.85 81.7193 190.826C82.2663 190.679 82.5899 190.119 82.4437 189.571L81.7939 187.148L84.0247 188.435C84.1863 188.529 84.3624 188.572 84.5361 188.572C84.8898 188.572 85.234 188.39 85.4238 188.06C85.707 187.57 85.539 186.944 85.0492 186.661L82.8304 185.381L85.2355 184.735C85.7822 184.59 86.1063 184.028 85.9599 183.481C85.8143 182.935 85.2516 182.614 84.7059 182.757ZM76.5831 182.956L74.9975 183.872L73.4131 182.956L73.4113 181.123L74.9975 180.208L76.5831 181.125V182.956Z" fill="#29A1F8"/>
</g>
<defs>
<filter id="filter0_f" x="17" y="-26" width="368" height="268" filterUnits="userSpaceOnUse" color-interpolation-filters="sRGB">
<feFlood flood-opacity="0" result="BackgroundImageFix"/>
<feBlend mode="normal" in="SourceGraphic" in2="BackgroundImageFix" result="shape"/>
<feGaussianBlur stdDeviation="20" result="effect1_foregroundBlur"/>
</filter>
<filter id="filter1_f" x="375" y="-26" width="368" height="268" filterUnits="userSpaceOnUse" color-interpolation-filters="sRGB">
<feFlood flood-opacity="0" result="BackgroundImageFix"/>
<feBlend mode="normal" in="SourceGraphic" in2="BackgroundImageFix" result="shape"/>
<feGaussianBlur stdDeviation="20" result="effect1_foregroundBlur"/>
</filter>
<filter id="filter2_d" x="313" y="166" width="32" height="32" filterUnits="userSpaceOnUse" color-interpolation-filters="sRGB">
<feFlood flood-opacity="0" result="BackgroundImageFix"/>
<feColorMatrix in="SourceAlpha" type="matrix" values="0 0 0 0 0 0 0 0 0 0 0 0 0 0 0 0 0 0 127 0"/>
<feOffset/>
<feGaussianBlur stdDeviation="2"/>
<feColorMatrix type="matrix" values="0 0 0 0 0 0 0 0 0 0 0 0 0 0 0 0 0 0 0.05 0"/>
<feBlend mode="normal" in2="BackgroundImageFix" result="effect1_dropShadow"/>
<feBlend mode="normal" in="SourceGraphic" in2="effect1_dropShadow" result="shape"/>
</filter>
<filter id="filter3_d" x="672" y="166" width="32" height="32" filterUnits="userSpaceOnUse" color-interpolation-filters="sRGB">
<feFlood flood-opacity="0" result="BackgroundImageFix"/>
<feColorMatrix in="SourceAlpha" type="matrix" values="0 0 0 0 0 0 0 0 0 0 0 0 0 0 0 0 0 0 127 0"/>
<feOffset/>
<feGaussianBlur stdDeviation="2"/>
<feColorMatrix type="matrix" values="0 0 0 0 0 0 0 0 0 0 0 0 0 0 0 0 0 0 0.05 0"/>
<feBlend mode="normal" in2="BackgroundImageFix" result="effect1_dropShadow"/>
<feBlend mode="normal" in="SourceGraphic" in2="effect1_dropShadow" result="shape"/>
</filter>
<linearGradient id="paint0_linear" x1="57" y1="108" x2="345" y2="107.958" gradientUnits="userSpaceOnUse">
<stop offset="0.257909" stop-color="#29A1F8"/>
<stop offset="0.621817" stop-color="#EFA460"/>
</linearGradient>
<linearGradient id="paint1_linear" x1="415" y1="108" x2="703" y2="107.958" gradientUnits="userSpaceOnUse">
<stop offset="0.257909" stop-color="#29A1F8"/>
<stop offset="0.621817" stop-color="#EFA460"/>
</linearGradient>
<linearGradient id="paint2_linear" x1="323.447" y1="22.2466" x2="69.5528" y2="185.963" gradientUnits="userSpaceOnUse">
<stop stop-color="#EFA460"/>
<stop offset="0.878125" stop-color="#EFA460" stop-opacity="0"/>
</linearGradient>
<linearGradient id="paint3_linear" x1="452.558" y1="174.561" x2="702.481" y2="12.3411" gradientUnits="userSpaceOnUse">
<stop stop-color="#29A1F8"/>
<stop offset="0.773958" stop-color="#29A1F8" stop-opacity="0"/>
</linearGradient>
<clipPath id="clip0">
<rect width="719" height="240" fill="white"/>
</clipPath>
</defs>
</svg>
