<svg width="330" height="303" viewBox="0 0 330 303" fill="none" xmlns="http://www.w3.org/2000/svg">
<g clip-path="url(#clip0)">
<rect width="330" height="303" fill="white"/>
<rect opacity="0.6" x="24" y="71" width="278" height="204"/>
<g filter="url(#filter0_d)">
<rect x="16" y="5" width="300" height="34" rx="17" fill="white"/>
</g>
<rect x="21" y="9" width="26" height="26" rx="13" fill="#E05959"/>
<rect x="50" y="67" width="301" height="7" fill="white"/>
<rect x="298" y="67" width="11" height="193" fill="white"/>
<path d="M163.921 287.242L165.015 281.891H166.24L164.6 289H163.418L162.065 283.81L160.684 289H159.497L157.856 281.891H159.082L160.186 287.232L161.543 281.891H162.578L163.921 287.242ZM168.291 289H167.104V283.717H168.291V289ZM167.031 282.345C167.031 282.162 167.088 282.011 167.202 281.891C167.319 281.77 167.485 281.71 167.7 281.71C167.915 281.71 168.081 281.77 168.198 281.891C168.315 282.011 168.374 282.162 168.374 282.345C168.374 282.524 168.315 282.674 168.198 282.794C168.081 282.911 167.915 282.97 167.7 282.97C167.485 282.97 167.319 282.911 167.202 282.794C167.088 282.674 167.031 282.524 167.031 282.345ZM170.688 283.717L170.723 284.327C171.113 283.855 171.626 283.619 172.261 283.619C173.361 283.619 173.921 284.249 173.94 285.509V289H172.754V285.577C172.754 285.242 172.681 284.994 172.534 284.835C172.391 284.672 172.155 284.591 171.826 284.591C171.348 284.591 170.991 284.807 170.757 285.24V289H169.57V283.717H170.688ZM174.932 286.319C174.932 285.506 175.12 284.853 175.498 284.361C175.876 283.867 176.382 283.619 177.017 283.619C177.576 283.619 178.029 283.814 178.374 284.205V281.5H179.561V289H178.486L178.428 288.453C178.073 288.883 177.599 289.098 177.007 289.098C176.388 289.098 175.887 288.849 175.503 288.351C175.122 287.853 174.932 287.175 174.932 286.319ZM176.118 286.422C176.118 286.959 176.221 287.379 176.426 287.682C176.634 287.981 176.929 288.131 177.31 288.131C177.795 288.131 178.149 287.914 178.374 287.481V285.226C178.156 284.802 177.804 284.591 177.319 284.591C176.935 284.591 176.639 284.744 176.431 285.05C176.222 285.353 176.118 285.81 176.118 286.422ZM183.76 287.564C183.76 287.353 183.672 287.192 183.496 287.081C183.324 286.97 183.035 286.873 182.632 286.788C182.228 286.703 181.891 286.596 181.621 286.466C181.029 286.179 180.732 285.764 180.732 285.221C180.732 284.765 180.924 284.384 181.309 284.078C181.693 283.772 182.181 283.619 182.773 283.619C183.405 283.619 183.914 283.775 184.302 284.088C184.692 284.4 184.888 284.806 184.888 285.304H183.701C183.701 285.076 183.617 284.887 183.447 284.737C183.278 284.584 183.053 284.508 182.773 284.508C182.513 284.508 182.3 284.568 182.134 284.688C181.971 284.809 181.89 284.97 181.89 285.172C181.89 285.354 181.966 285.496 182.119 285.597C182.272 285.698 182.581 285.8 183.047 285.904C183.512 286.005 183.877 286.127 184.141 286.271C184.408 286.41 184.604 286.58 184.731 286.778C184.862 286.977 184.927 287.218 184.927 287.501C184.927 287.976 184.73 288.362 184.336 288.658C183.942 288.951 183.426 289.098 182.788 289.098C182.355 289.098 181.969 289.02 181.631 288.863C181.292 288.707 181.029 288.492 180.84 288.219C180.651 287.945 180.557 287.651 180.557 287.335H181.709C181.725 287.615 181.831 287.831 182.026 287.984C182.222 288.134 182.48 288.209 182.803 288.209C183.115 288.209 183.353 288.15 183.516 288.033C183.678 287.913 183.76 287.757 183.76 287.564ZM190.591 286.412C190.591 287.229 190.405 287.882 190.034 288.37C189.663 288.855 189.165 289.098 188.54 289.098C187.961 289.098 187.497 288.907 187.148 288.526V291.031H185.962V283.717H187.056L187.104 284.254C187.453 283.831 187.926 283.619 188.525 283.619C189.17 283.619 189.674 283.86 190.039 284.342C190.407 284.82 190.591 285.486 190.591 286.339V286.412ZM189.409 286.31C189.409 285.782 189.303 285.364 189.092 285.055C188.883 284.745 188.584 284.591 188.193 284.591C187.708 284.591 187.36 284.791 187.148 285.191V287.535C187.363 287.945 187.715 288.15 188.203 288.15C188.581 288.15 188.875 287.999 189.087 287.696C189.302 287.39 189.409 286.928 189.409 286.31ZM193.926 289.098C193.174 289.098 192.563 288.862 192.095 288.39C191.629 287.914 191.396 287.283 191.396 286.495V286.349C191.396 285.821 191.497 285.351 191.699 284.938C191.904 284.521 192.191 284.197 192.559 283.966C192.926 283.735 193.337 283.619 193.789 283.619C194.508 283.619 195.063 283.849 195.454 284.308C195.848 284.767 196.045 285.416 196.045 286.256V286.734H192.593C192.629 287.171 192.773 287.516 193.027 287.77C193.285 288.023 193.607 288.15 193.994 288.15C194.538 288.15 194.98 287.931 195.322 287.491L195.962 288.102C195.75 288.417 195.467 288.663 195.112 288.839C194.761 289.011 194.365 289.098 193.926 289.098ZM193.784 284.571C193.459 284.571 193.195 284.685 192.993 284.913C192.795 285.141 192.668 285.458 192.612 285.865H194.873V285.777C194.847 285.38 194.741 285.081 194.556 284.879C194.37 284.674 194.113 284.571 193.784 284.571ZM199.297 289.098C198.545 289.098 197.935 288.862 197.466 288.39C197 287.914 196.768 287.283 196.768 286.495V286.349C196.768 285.821 196.868 285.351 197.07 284.938C197.275 284.521 197.562 284.197 197.93 283.966C198.298 283.735 198.708 283.619 199.16 283.619C199.88 283.619 200.435 283.849 200.825 284.308C201.219 284.767 201.416 285.416 201.416 286.256V286.734H197.964C198 287.171 198.145 287.516 198.398 287.77C198.656 288.023 198.978 288.15 199.365 288.15C199.909 288.15 200.352 287.931 200.693 287.491L201.333 288.102C201.121 288.417 200.838 288.663 200.483 288.839C200.132 289.011 199.736 289.098 199.297 289.098ZM199.155 284.571C198.83 284.571 198.566 284.685 198.364 284.913C198.166 285.141 198.039 285.458 197.983 285.865H200.244V285.777C200.218 285.38 200.112 285.081 199.927 284.879C199.741 284.674 199.484 284.571 199.155 284.571ZM202.119 286.319C202.119 285.506 202.308 284.853 202.686 284.361C203.063 283.867 203.569 283.619 204.204 283.619C204.764 283.619 205.216 283.814 205.562 284.205V281.5H206.748V289H205.674L205.615 288.453C205.26 288.883 204.787 289.098 204.194 289.098C203.576 289.098 203.075 288.849 202.69 288.351C202.31 287.853 202.119 287.175 202.119 286.319ZM203.306 286.422C203.306 286.959 203.408 287.379 203.613 287.682C203.822 287.981 204.116 288.131 204.497 288.131C204.982 288.131 205.337 287.914 205.562 287.481V285.226C205.343 284.802 204.992 284.591 204.507 284.591C204.123 284.591 203.826 284.744 203.618 285.05C203.41 285.353 203.306 285.81 203.306 286.422Z" fill="#E05959"/>
<path d="M59.036 25V15.844H60.744L63.166 20.982L63.992 22.942H64.034C63.9967 22.466 63.95 21.9573 63.894 21.416C63.838 20.8653 63.81 20.3333 63.81 19.82V15.844H65.364V25H63.656L61.234 19.848L60.408 17.902H60.366C60.4033 18.3967 60.45 18.91 60.506 19.442C60.562 19.9647 60.59 20.4827 60.59 20.996V25H59.036ZM71.0145 25.168C70.4919 25.168 70.0019 25.0887 69.5445 24.93C69.0872 24.762 68.6859 24.524 68.3405 24.216C68.0045 23.908 67.7385 23.53 67.5425 23.082C67.3465 22.634 67.2485 22.1253 67.2485 21.556C67.2485 20.996 67.3465 20.4967 67.5425 20.058C67.7385 19.61 67.9999 19.232 68.3265 18.924C68.6625 18.6067 69.0405 18.3687 69.4605 18.21C69.8899 18.042 70.3379 17.958 70.8045 17.958C71.3179 17.958 71.7705 18.042 72.1625 18.21C72.5545 18.3687 72.8859 18.5927 73.1565 18.882C73.4272 19.162 73.6325 19.5027 73.7725 19.904C73.9125 20.3053 73.9825 20.744 73.9825 21.22C73.9825 21.3787 73.9732 21.5327 73.9545 21.682C73.9452 21.822 73.9312 21.9387 73.9125 22.032H68.8585C68.9519 22.676 69.2085 23.152 69.6285 23.46C70.0485 23.768 70.5805 23.922 71.2245 23.922C71.5885 23.922 71.9245 23.8707 72.2325 23.768C72.5405 23.6653 72.8485 23.5253 73.1565 23.348L73.7025 24.356C73.3385 24.5987 72.9232 24.7947 72.4565 24.944C71.9992 25.0933 71.5185 25.168 71.0145 25.168ZM70.8465 19.204C70.3705 19.204 69.9505 19.344 69.5865 19.624C69.2319 19.904 69.0032 20.324 68.9005 20.884H72.5545C72.4985 20.324 72.3212 19.904 72.0225 19.624C71.7332 19.344 71.3412 19.204 70.8465 19.204ZM78.7931 28.038C78.3171 28.038 77.8877 28.0007 77.5051 27.926C77.1224 27.8513 76.7911 27.7347 76.5111 27.576C76.2404 27.4267 76.0304 27.2353 75.8811 27.002C75.7317 26.778 75.6571 26.512 75.6571 26.204C75.6571 25.644 76.0211 25.1633 76.7491 24.762V24.706C76.5624 24.594 76.3991 24.4493 76.2591 24.272C76.1191 24.0853 76.0491 23.8473 76.0491 23.558C76.0491 23.334 76.1237 23.1053 76.2731 22.872C76.4224 22.6387 76.6231 22.438 76.8751 22.27V22.214C76.6324 22.0367 76.4224 21.7987 76.2451 21.5C76.0771 21.2013 75.9931 20.8467 75.9931 20.436C75.9931 20.044 76.0677 19.694 76.2171 19.386C76.3757 19.078 76.5811 18.8213 76.8331 18.616C77.0944 18.4013 77.3931 18.238 77.7291 18.126C78.0744 18.014 78.4384 17.958 78.8211 17.958C79.2131 17.958 79.5724 18.014 79.8991 18.126H82.7131V19.358H81.1311C81.2524 19.4887 81.3551 19.6567 81.4391 19.862C81.5324 20.058 81.5791 20.268 81.5791 20.492C81.5791 20.8747 81.5044 21.2107 81.3551 21.5C81.2151 21.7893 81.0191 22.032 80.7671 22.228C80.5244 22.424 80.2351 22.5733 79.8991 22.676C79.5631 22.7787 79.2037 22.83 78.8211 22.83C78.4944 22.83 78.1444 22.7647 77.7711 22.634C77.4911 22.802 77.3511 23.0167 77.3511 23.278C77.3511 23.7073 77.7851 23.922 78.6531 23.922H80.0531C80.9491 23.922 81.6211 24.0527 82.0691 24.314C82.5264 24.566 82.7551 24.9953 82.7551 25.602C82.7551 25.938 82.6617 26.2553 82.4751 26.554C82.2884 26.8527 82.0224 27.1093 81.6771 27.324C81.3411 27.548 80.9257 27.7207 80.4311 27.842C79.9457 27.9727 79.3997 28.038 78.7931 28.038ZM78.8211 21.808C79.1757 21.808 79.4791 21.6913 79.7311 21.458C79.9924 21.2153 80.1231 20.8747 80.1231 20.436C80.1231 20.016 79.9924 19.6847 79.7311 19.442C79.4791 19.1993 79.1757 19.078 78.8211 19.078C78.4664 19.078 78.1584 19.1993 77.8971 19.442C77.6451 19.6847 77.5191 20.016 77.5191 20.436C77.5191 20.8747 77.6451 21.2153 77.8971 21.458C78.1584 21.6913 78.4664 21.808 78.8211 21.808ZM78.9891 26.974C79.3251 26.974 79.6284 26.9413 79.8991 26.876C80.1697 26.82 80.4031 26.7407 80.5991 26.638C80.7951 26.5353 80.9444 26.4187 81.0471 26.288C81.1497 26.1573 81.2011 26.0173 81.2011 25.868C81.2011 25.5973 81.0844 25.4153 80.8511 25.322C80.6271 25.238 80.2817 25.196 79.8151 25.196H78.7231C78.2844 25.196 77.9344 25.1633 77.6731 25.098C77.4304 25.238 77.2577 25.3827 77.1551 25.532C77.0524 25.6813 77.0011 25.8353 77.0011 25.994C77.0011 26.302 77.1691 26.54 77.5051 26.708C77.8504 26.8853 78.3451 26.974 78.9891 26.974ZM86.4736 25.168C86.1376 25.168 85.8296 25.1167 85.5496 25.014C85.2696 24.9207 85.0269 24.7853 84.8216 24.608C84.6163 24.4307 84.4576 24.2207 84.3456 23.978C84.2336 23.726 84.1776 23.4507 84.1776 23.152C84.1776 22.7693 84.2663 22.4333 84.4436 22.144C84.6209 21.8453 84.9009 21.5933 85.2836 21.388C85.6663 21.1827 86.1563 21.0147 86.7536 20.884C87.3509 20.7533 88.0743 20.66 88.9236 20.604C88.8956 20.212 88.7556 19.89 88.5036 19.638C88.2516 19.386 87.8456 19.26 87.2856 19.26C86.8936 19.26 86.5063 19.3347 86.1236 19.484C85.7503 19.624 85.3863 19.792 85.0316 19.988L84.4436 18.91C84.8636 18.6673 85.3443 18.448 85.8856 18.252C86.4269 18.056 86.9916 17.958 87.5796 17.958C88.5409 17.958 89.2736 18.2147 89.7776 18.728C90.2816 19.232 90.5336 19.9647 90.5336 20.926V25H89.2176L89.0916 24.146H89.0496C88.6856 24.426 88.2796 24.6687 87.8316 24.874C87.3929 25.07 86.9403 25.168 86.4736 25.168ZM86.9636 23.908C87.3089 23.908 87.6403 23.8333 87.9576 23.684C88.2843 23.5253 88.6063 23.32 88.9236 23.068V21.612C88.3076 21.6587 87.7943 21.724 87.3836 21.808C86.9729 21.8827 86.6463 21.9807 86.4036 22.102C86.1609 22.2233 85.9883 22.3633 85.8856 22.522C85.7829 22.6713 85.7316 22.8393 85.7316 23.026C85.7316 23.334 85.8483 23.558 86.0816 23.698C86.3243 23.838 86.6183 23.908 86.9636 23.908ZM97.0521 25.168C96.5295 25.168 96.0861 25.098 95.7221 24.958C95.3675 24.818 95.0781 24.622 94.8541 24.37C94.6395 24.1087 94.4808 23.796 94.3781 23.432C94.2848 23.068 94.2381 22.6667 94.2381 22.228V19.4H92.4041V18.196L94.3081 18.126L94.5181 15.97H95.8481V18.126H98.9841V19.4H95.8481V22.228C95.8481 22.7973 95.9648 23.2173 96.1981 23.488C96.4408 23.7493 96.8561 23.88 97.4441 23.88C97.7335 23.88 97.9995 23.8567 98.2421 23.81C98.4848 23.754 98.7181 23.684 98.9421 23.6L99.2501 24.776C98.9421 24.8787 98.6108 24.9673 98.2561 25.042C97.9015 25.126 97.5001 25.168 97.0521 25.168ZM104.131 25V19.4H101.149V18.126H105.741V25H104.131ZM104.831 16.866C104.504 16.866 104.229 16.768 104.005 16.572C103.79 16.376 103.683 16.1147 103.683 15.788C103.683 15.4613 103.79 15.2 104.005 15.004C104.229 14.7987 104.504 14.696 104.831 14.696C105.157 14.696 105.428 14.7987 105.643 15.004C105.867 15.2 105.979 15.4613 105.979 15.788C105.979 16.1147 105.867 16.376 105.643 16.572C105.428 16.768 105.157 16.866 104.831 16.866ZM111.685 25L108.941 18.126H110.565L111.895 21.696C112.026 22.0413 112.143 22.3867 112.245 22.732C112.357 23.068 112.469 23.4133 112.581 23.768H112.637C112.749 23.4133 112.857 23.068 112.959 22.732C113.071 22.3867 113.193 22.0413 113.323 21.696L114.653 18.126H116.193L113.519 25H111.685ZM121.382 25.168C120.859 25.168 120.369 25.0887 119.912 24.93C119.454 24.762 119.053 24.524 118.708 24.216C118.372 23.908 118.106 23.53 117.91 23.082C117.714 22.634 117.616 22.1253 117.616 21.556C117.616 20.996 117.714 20.4967 117.91 20.058C118.106 19.61 118.367 19.232 118.694 18.924C119.03 18.6067 119.408 18.3687 119.828 18.21C120.257 18.042 120.705 17.958 121.172 17.958C121.685 17.958 122.138 18.042 122.53 18.21C122.922 18.3687 123.253 18.5927 123.524 18.882C123.794 19.162 124 19.5027 124.14 19.904C124.28 20.3053 124.35 20.744 124.35 21.22C124.35 21.3787 124.34 21.5327 124.322 21.682C124.312 21.822 124.298 21.9387 124.28 22.032H119.226C119.319 22.676 119.576 23.152 119.996 23.46C120.416 23.768 120.948 23.922 121.592 23.922C121.956 23.922 122.292 23.8707 122.6 23.768C122.908 23.6653 123.216 23.5253 123.524 23.348L124.07 24.356C123.706 24.5987 123.29 24.7947 122.824 24.944C122.366 25.0933 121.886 25.168 121.382 25.168ZM121.214 19.204C120.738 19.204 120.318 19.344 119.954 19.624C119.599 19.904 119.37 20.324 119.268 20.884H122.922C122.866 20.324 122.688 19.904 122.39 19.624C122.1 19.344 121.708 19.204 121.214 19.204ZM130.77 25.168C129.968 25.168 129.356 24.9347 128.936 24.468C128.526 24.0013 128.32 23.3433 128.32 22.494V16.39H126.024V15.116H129.93V22.578C129.93 23.0447 130.047 23.376 130.28 23.572C130.523 23.7587 130.817 23.852 131.162 23.852C131.526 23.852 131.918 23.7633 132.338 23.586L132.716 24.776C132.38 24.9067 132.072 25.0047 131.792 25.07C131.512 25.1353 131.172 25.168 130.77 25.168ZM135.469 27.828C135.282 27.828 135.105 27.814 134.937 27.786C134.769 27.7673 134.619 27.7347 134.489 27.688L134.797 26.428C134.89 26.456 134.983 26.4793 135.077 26.498C135.17 26.5167 135.268 26.526 135.371 26.526C135.809 26.526 136.159 26.414 136.421 26.19C136.682 25.9753 136.883 25.6953 137.023 25.35L137.191 24.916L134.111 18.126H135.721L137.135 21.5C137.265 21.808 137.391 22.1347 137.513 22.48C137.634 22.8253 137.76 23.1707 137.891 23.516H137.947C138.049 23.1893 138.161 22.8533 138.283 22.508C138.404 22.1627 138.521 21.8267 138.633 21.5L139.879 18.126H141.405L138.535 25.308C138.385 25.7 138.217 26.05 138.031 26.358C137.853 26.666 137.643 26.9273 137.401 27.142C137.158 27.366 136.878 27.534 136.561 27.646C136.243 27.7673 135.879 27.828 135.469 27.828ZM155.156 25.168C154.615 25.168 154.111 25.0887 153.644 24.93C153.187 24.7713 152.785 24.538 152.44 24.23C152.104 23.922 151.838 23.544 151.642 23.096C151.455 22.648 151.362 22.1393 151.362 21.57C151.362 21.0007 151.465 20.492 151.67 20.044C151.885 19.596 152.169 19.218 152.524 18.91C152.879 18.602 153.294 18.3687 153.77 18.21C154.246 18.042 154.745 17.958 155.268 17.958C155.828 17.958 156.318 18.0513 156.738 18.238C157.167 18.4247 157.527 18.6533 157.816 18.924L157.046 19.932C156.775 19.7173 156.5 19.554 156.22 19.442C155.949 19.33 155.66 19.274 155.352 19.274C154.661 19.274 154.101 19.484 153.672 19.904C153.243 20.3147 153.028 20.87 153.028 21.57C153.028 21.9153 153.084 22.228 153.196 22.508C153.308 22.788 153.462 23.0307 153.658 23.236C153.863 23.432 154.106 23.586 154.386 23.698C154.666 23.8007 154.974 23.852 155.31 23.852C155.702 23.852 156.057 23.7773 156.374 23.628C156.701 23.4787 156.999 23.3013 157.27 23.096L157.942 24.132C157.541 24.4773 157.097 24.7387 156.612 24.916C156.136 25.084 155.651 25.168 155.156 25.168ZM162.934 25.168C162.486 25.168 162.052 25.0887 161.632 24.93C161.212 24.7713 160.844 24.538 160.526 24.23C160.209 23.922 159.952 23.544 159.756 23.096C159.57 22.648 159.476 22.1393 159.476 21.57C159.476 21.0007 159.57 20.492 159.756 20.044C159.952 19.596 160.209 19.218 160.526 18.91C160.844 18.602 161.212 18.3687 161.632 18.21C162.052 18.042 162.486 17.958 162.934 17.958C163.382 17.958 163.816 18.042 164.236 18.21C164.656 18.3687 165.025 18.602 165.342 18.91C165.66 19.218 165.912 19.596 166.098 20.044C166.294 20.492 166.392 21.0007 166.392 21.57C166.392 22.1393 166.294 22.648 166.098 23.096C165.912 23.544 165.66 23.922 165.342 24.23C165.025 24.538 164.656 24.7713 164.236 24.93C163.816 25.0887 163.382 25.168 162.934 25.168ZM162.934 23.852C163.494 23.852 163.933 23.6467 164.25 23.236C164.568 22.816 164.726 22.2607 164.726 21.57C164.726 20.87 164.568 20.3147 164.25 19.904C163.933 19.484 163.494 19.274 162.934 19.274C162.374 19.274 161.936 19.484 161.618 19.904C161.301 20.3147 161.142 20.87 161.142 21.57C161.142 22.2607 161.301 22.816 161.618 23.236C161.936 23.6467 162.374 23.852 162.934 23.852ZM168.949 25V18.126H170.279L170.419 19.68H170.461C170.816 19.12 171.24 18.6953 171.735 18.406C172.239 18.1073 172.79 17.958 173.387 17.958C173.667 17.958 173.905 17.9813 174.101 18.028C174.306 18.0653 174.512 18.1353 174.717 18.238L174.381 19.596C174.157 19.5213 173.956 19.47 173.779 19.442C173.611 19.4047 173.396 19.386 173.135 19.386C172.659 19.386 172.202 19.5213 171.763 19.792C171.324 20.0627 170.928 20.534 170.573 21.206V25H168.949ZM177.343 25V18.126H178.673L178.813 19.68H178.855C179.21 19.12 179.635 18.6953 180.129 18.406C180.633 18.1073 181.184 17.958 181.781 17.958C182.061 17.958 182.299 17.9813 182.495 18.028C182.701 18.0653 182.906 18.1353 183.111 18.238L182.775 19.596C182.551 19.5213 182.351 19.47 182.173 19.442C182.005 19.4047 181.791 19.386 181.529 19.386C181.053 19.386 180.596 19.5213 180.157 19.792C179.719 20.0627 179.322 20.534 178.967 21.206V25H177.343ZM188.538 25.168C188.015 25.168 187.525 25.0887 187.068 24.93C186.611 24.762 186.209 24.524 185.864 24.216C185.528 23.908 185.262 23.53 185.066 23.082C184.87 22.634 184.772 22.1253 184.772 21.556C184.772 20.996 184.87 20.4967 185.066 20.058C185.262 19.61 185.523 19.232 185.85 18.924C186.186 18.6067 186.564 18.3687 186.984 18.21C187.413 18.042 187.861 17.958 188.328 17.958C188.841 17.958 189.294 18.042 189.686 18.21C190.078 18.3687 190.409 18.5927 190.68 18.882C190.951 19.162 191.156 19.5027 191.296 19.904C191.436 20.3053 191.506 20.744 191.506 21.22C191.506 21.3787 191.497 21.5327 191.478 21.682C191.469 21.822 191.455 21.9387 191.436 22.032H186.382C186.475 22.676 186.732 23.152 187.152 23.46C187.572 23.768 188.104 23.922 188.748 23.922C189.112 23.922 189.448 23.8707 189.756 23.768C190.064 23.6653 190.372 23.5253 190.68 23.348L191.226 24.356C190.862 24.5987 190.447 24.7947 189.98 24.944C189.523 25.0933 189.042 25.168 188.538 25.168ZM188.37 19.204C187.894 19.204 187.474 19.344 187.11 19.624C186.755 19.904 186.527 20.324 186.424 20.884H190.078C190.022 20.324 189.845 19.904 189.546 19.624C189.257 19.344 188.865 19.204 188.37 19.204ZM197.927 25.168C197.124 25.168 196.513 24.9347 196.093 24.468C195.682 24.0013 195.477 23.3433 195.477 22.494V16.39H193.181V15.116H197.087V22.578C197.087 23.0447 197.203 23.376 197.437 23.572C197.679 23.7587 197.973 23.852 198.319 23.852C198.683 23.852 199.075 23.7633 199.495 23.586L199.873 24.776C199.537 24.9067 199.229 25.0047 198.949 25.07C198.669 25.1353 198.328 25.168 197.927 25.168ZM203.997 25.168C203.661 25.168 203.353 25.1167 203.073 25.014C202.793 24.9207 202.55 24.7853 202.345 24.608C202.14 24.4307 201.981 24.2207 201.869 23.978C201.757 23.726 201.701 23.4507 201.701 23.152C201.701 22.7693 201.79 22.4333 201.967 22.144C202.144 21.8453 202.424 21.5933 202.807 21.388C203.19 21.1827 203.68 21.0147 204.277 20.884C204.874 20.7533 205.598 20.66 206.447 20.604C206.419 20.212 206.279 19.89 206.027 19.638C205.775 19.386 205.369 19.26 204.809 19.26C204.417 19.26 204.03 19.3347 203.647 19.484C203.274 19.624 202.91 19.792 202.555 19.988L201.967 18.91C202.387 18.6673 202.868 18.448 203.409 18.252C203.95 18.056 204.515 17.958 205.103 17.958C206.064 17.958 206.797 18.2147 207.301 18.728C207.805 19.232 208.057 19.9647 208.057 20.926V25H206.741L206.615 24.146H206.573C206.209 24.426 205.803 24.6687 205.355 24.874C204.916 25.07 204.464 25.168 203.997 25.168ZM204.487 23.908C204.832 23.908 205.164 23.8333 205.481 23.684C205.808 23.5253 206.13 23.32 206.447 23.068V21.612C205.831 21.6587 205.318 21.724 204.907 21.808C204.496 21.8827 204.17 21.9807 203.927 22.102C203.684 22.2233 203.512 22.3633 203.409 22.522C203.306 22.6713 203.255 22.8393 203.255 23.026C203.255 23.334 203.372 23.558 203.605 23.698C203.848 23.838 204.142 23.908 204.487 23.908ZM214.576 25.168C214.053 25.168 213.61 25.098 213.246 24.958C212.891 24.818 212.602 24.622 212.378 24.37C212.163 24.1087 212.004 23.796 211.902 23.432C211.808 23.068 211.762 22.6667 211.762 22.228V19.4H209.928V18.196L211.832 18.126L212.042 15.97H213.372V18.126H216.508V19.4H213.372V22.228C213.372 22.7973 213.488 23.2173 213.722 23.488C213.964 23.7493 214.38 23.88 214.968 23.88C215.257 23.88 215.523 23.8567 215.766 23.81C216.008 23.754 216.242 23.684 216.466 23.6L216.774 24.776C216.466 24.8787 216.134 24.9673 215.78 25.042C215.425 25.126 215.024 25.168 214.576 25.168ZM222.116 25.168C221.593 25.168 221.103 25.0887 220.646 24.93C220.189 24.762 219.787 24.524 219.442 24.216C219.106 23.908 218.84 23.53 218.644 23.082C218.448 22.634 218.35 22.1253 218.35 21.556C218.35 20.996 218.448 20.4967 218.644 20.058C218.84 19.61 219.101 19.232 219.428 18.924C219.764 18.6067 220.142 18.3687 220.562 18.21C220.991 18.042 221.439 17.958 221.906 17.958C222.419 17.958 222.872 18.042 223.264 18.21C223.656 18.3687 223.987 18.5927 224.258 18.882C224.529 19.162 224.734 19.5027 224.874 19.904C225.014 20.3053 225.084 20.744 225.084 21.22C225.084 21.3787 225.075 21.5327 225.056 21.682C225.047 21.822 225.033 21.9387 225.014 22.032H219.96C220.053 22.676 220.31 23.152 220.73 23.46C221.15 23.768 221.682 23.922 222.326 23.922C222.69 23.922 223.026 23.8707 223.334 23.768C223.642 23.6653 223.95 23.5253 224.258 23.348L224.804 24.356C224.44 24.5987 224.025 24.7947 223.558 24.944C223.101 25.0933 222.62 25.168 222.116 25.168ZM221.948 19.204C221.472 19.204 221.052 19.344 220.688 19.624C220.333 19.904 220.105 20.324 220.002 20.884H223.656C223.6 20.324 223.423 19.904 223.124 19.624C222.835 19.344 222.443 19.204 221.948 19.204ZM229.573 25.168C229.134 25.168 228.733 25.0887 228.369 24.93C228.005 24.762 227.692 24.524 227.431 24.216C227.179 23.908 226.983 23.5347 226.843 23.096C226.703 22.648 226.633 22.1393 226.633 21.57C226.633 21.01 226.717 20.506 226.885 20.058C227.053 19.61 227.277 19.232 227.557 18.924C227.846 18.616 228.173 18.378 228.537 18.21C228.901 18.042 229.279 17.958 229.671 17.958C230.063 17.958 230.408 18.028 230.707 18.168C231.005 18.308 231.29 18.5087 231.561 18.77H231.603L231.519 17.608V15.116H233.143V25H231.813L231.687 24.202H231.645C231.374 24.4727 231.057 24.7013 230.693 24.888C230.338 25.0747 229.965 25.168 229.573 25.168ZM229.965 23.838C230.534 23.838 231.052 23.5627 231.519 23.012V19.918C231.276 19.6847 231.033 19.5213 230.791 19.428C230.548 19.3347 230.301 19.288 230.049 19.288C229.806 19.288 229.577 19.3393 229.363 19.442C229.157 19.5447 228.975 19.694 228.817 19.89C228.658 20.0767 228.532 20.31 228.439 20.59C228.345 20.87 228.299 21.192 228.299 21.556C228.299 22.3027 228.443 22.872 228.733 23.264C229.022 23.6467 229.433 23.838 229.965 23.838ZM247.496 25.168C246.954 25.168 246.45 25.0887 245.984 24.93C245.526 24.7713 245.125 24.538 244.78 24.23C244.444 23.922 244.178 23.544 243.982 23.096C243.795 22.648 243.702 22.1393 243.702 21.57C243.702 21.0007 243.804 20.492 244.01 20.044C244.224 19.596 244.509 19.218 244.864 18.91C245.218 18.602 245.634 18.3687 246.11 18.21C246.586 18.042 247.085 17.958 247.608 17.958C248.168 17.958 248.658 18.0513 249.078 18.238C249.507 18.4247 249.866 18.6533 250.156 18.924L249.386 19.932C249.115 19.7173 248.84 19.554 248.56 19.442C248.289 19.33 248 19.274 247.692 19.274C247.001 19.274 246.441 19.484 246.012 19.904C245.582 20.3147 245.368 20.87 245.368 21.57C245.368 21.9153 245.424 22.228 245.536 22.508C245.648 22.788 245.802 23.0307 245.998 23.236C246.203 23.432 246.446 23.586 246.726 23.698C247.006 23.8007 247.314 23.852 247.65 23.852C248.042 23.852 248.396 23.7773 248.714 23.628C249.04 23.4787 249.339 23.3013 249.61 23.096L250.282 24.132C249.88 24.4773 249.437 24.7387 248.952 24.916C248.476 25.084 247.99 25.168 247.496 25.168ZM255.274 25.168C254.826 25.168 254.392 25.0887 253.972 24.93C253.552 24.7713 253.184 24.538 252.866 24.23C252.549 23.922 252.292 23.544 252.096 23.096C251.91 22.648 251.816 22.1393 251.816 21.57C251.816 21.0007 251.91 20.492 252.096 20.044C252.292 19.596 252.549 19.218 252.866 18.91C253.184 18.602 253.552 18.3687 253.972 18.21C254.392 18.042 254.826 17.958 255.274 17.958C255.722 17.958 256.156 18.042 256.576 18.21C256.996 18.3687 257.365 18.602 257.682 18.91C258 19.218 258.252 19.596 258.438 20.044C258.634 20.492 258.732 21.0007 258.732 21.57C258.732 22.1393 258.634 22.648 258.438 23.096C258.252 23.544 258 23.922 257.682 24.23C257.365 24.538 256.996 24.7713 256.576 24.93C256.156 25.0887 255.722 25.168 255.274 25.168ZM255.274 23.852C255.834 23.852 256.273 23.6467 256.59 23.236C256.908 22.816 257.066 22.2607 257.066 21.57C257.066 20.87 256.908 20.3147 256.59 19.904C256.273 19.484 255.834 19.274 255.274 19.274C254.714 19.274 254.276 19.484 253.958 19.904C253.641 20.3147 253.482 20.87 253.482 21.57C253.482 22.2607 253.641 22.816 253.958 23.236C254.276 23.6467 254.714 23.852 255.274 23.852ZM265.083 25.168C264.28 25.168 263.669 24.9347 263.249 24.468C262.838 24.0013 262.633 23.3433 262.633 22.494V16.39H260.337V15.116H264.243V22.578C264.243 23.0447 264.359 23.376 264.593 23.572C264.835 23.7587 265.129 23.852 265.475 23.852C265.839 23.852 266.231 23.7633 266.651 23.586L267.029 24.776C266.693 24.9067 266.385 25.0047 266.105 25.07C265.825 25.1353 265.484 25.168 265.083 25.168ZM271.139 25.168C270.337 25.168 269.753 24.93 269.389 24.454C269.025 23.9687 268.843 23.278 268.843 22.382V18.126H270.453V22.172C270.453 22.732 270.547 23.1427 270.733 23.404C270.929 23.656 271.265 23.782 271.741 23.782C272.068 23.782 272.357 23.7073 272.609 23.558C272.871 23.4087 273.155 23.1427 273.463 22.76V18.126H275.073V25H273.757L273.631 23.908H273.575C273.249 24.2907 272.889 24.5987 272.497 24.832C272.105 25.056 271.653 25.168 271.139 25.168ZM276.902 25V18.126H278.148L278.274 18.994H278.316C278.465 18.6953 278.656 18.448 278.89 18.252C279.123 18.056 279.44 17.958 279.842 17.958C280.486 17.958 280.901 18.3407 281.088 19.106C281.246 18.77 281.447 18.4947 281.69 18.28C281.932 18.0653 282.254 17.958 282.656 17.958C283.141 17.958 283.514 18.1493 283.776 18.532C284.046 18.9053 284.182 19.4373 284.182 20.128V25H282.628V20.24C282.628 19.6333 282.446 19.33 282.082 19.33C281.895 19.33 281.736 19.4047 281.606 19.554C281.484 19.694 281.354 19.9087 281.214 20.198V25H279.87V20.24C279.87 19.9413 279.828 19.7173 279.744 19.568C279.66 19.4093 279.52 19.33 279.324 19.33C279.137 19.33 278.978 19.4047 278.848 19.554C278.726 19.694 278.6 19.9087 278.47 20.198V25H276.902ZM285.8 25V18.126H287.13L287.256 19.162H287.312C287.639 18.8353 287.998 18.5553 288.39 18.322C288.792 18.0793 289.258 17.958 289.79 17.958C290.584 17.958 291.167 18.2007 291.54 18.686C291.914 19.162 292.1 19.848 292.1 20.744V25H290.476V20.954C290.476 20.394 290.378 19.988 290.182 19.736C289.996 19.4747 289.664 19.344 289.188 19.344C288.852 19.344 288.554 19.4233 288.292 19.582C288.031 19.7407 287.742 19.9833 287.424 20.31V25H285.8ZM297.289 25.168C296.645 25.168 296.029 25.0653 295.441 24.86C294.853 24.6453 294.344 24.3933 293.915 24.104L294.615 23.082C295.035 23.3527 295.478 23.5673 295.945 23.726C296.421 23.8753 296.939 23.95 297.499 23.95C297.975 23.95 298.325 23.8707 298.549 23.712C298.782 23.5533 298.899 23.3573 298.899 23.124C298.899 23.012 298.876 22.914 298.829 22.83C298.782 22.7367 298.689 22.648 298.549 22.564C298.409 22.48 298.213 22.4007 297.961 22.326C297.718 22.2513 297.396 22.172 296.995 22.088C296.071 21.9013 295.394 21.64 294.965 21.304C294.545 20.968 294.335 20.5387 294.335 20.016C294.335 19.4093 294.596 18.9147 295.119 18.532C295.642 18.1493 296.388 17.958 297.359 17.958C297.928 17.958 298.46 18.0513 298.955 18.238C299.45 18.4247 299.874 18.6347 300.229 18.868L299.487 19.862C299.151 19.6473 298.792 19.4793 298.409 19.358C298.026 19.2367 297.63 19.176 297.219 19.176C296.762 19.176 296.435 19.2507 296.239 19.4C296.043 19.54 295.945 19.7173 295.945 19.932C295.945 20.1747 296.085 20.3567 296.365 20.478C296.645 20.5993 297.102 20.73 297.737 20.87C298.288 20.9913 298.74 21.122 299.095 21.262C299.45 21.402 299.73 21.5607 299.935 21.738C300.15 21.906 300.299 22.0973 300.383 22.312C300.467 22.5267 300.509 22.7693 300.509 23.04C300.509 23.3387 300.439 23.6187 300.299 23.88C300.159 24.132 299.954 24.356 299.683 24.552C299.412 24.7387 299.076 24.888 298.675 25C298.274 25.112 297.812 25.168 297.289 25.168Z" fill="#E05959"/>
<g style="mix-blend-mode:multiply">
<path d="M82.2724 65V55.844H85.1144C85.5904 55.844 86.0244 55.886 86.4164 55.97C86.8177 56.0447 87.1584 56.1707 87.4384 56.348C87.7277 56.516 87.9517 56.7447 88.1104 57.034C88.2784 57.3233 88.3624 57.678 88.3624 58.098C88.3624 58.5367 88.2317 58.9427 87.9704 59.316C87.7184 59.6893 87.3217 59.946 86.7804 60.086V60.142C87.443 60.254 87.9517 60.4873 88.3064 60.842C88.661 61.1967 88.8384 61.6867 88.8384 62.312C88.8384 62.7693 88.7497 63.166 88.5724 63.502C88.4044 63.838 88.1617 64.118 87.8444 64.342C87.5364 64.566 87.1677 64.734 86.7384 64.846C86.3184 64.9487 85.8564 65 85.3524 65H82.2724ZM83.8964 59.61H84.9744C85.6184 59.61 86.0757 59.498 86.3464 59.274C86.6264 59.05 86.7664 58.7233 86.7664 58.294C86.7664 57.874 86.6217 57.58 86.3324 57.412C86.043 57.2347 85.5997 57.146 85.0024 57.146H83.8964V59.61ZM83.8964 63.698H85.1844C85.8564 63.698 86.365 63.5813 86.7104 63.348C87.065 63.1053 87.2424 62.7227 87.2424 62.2C87.2424 61.7147 87.0697 61.3693 86.7244 61.164C86.3884 60.9493 85.875 60.842 85.1844 60.842H83.8964V63.698ZM93.6209 65V59.4H90.6389V58.126H95.2309V65H93.6209ZM94.3209 56.866C93.9942 56.866 93.7189 56.768 93.4949 56.572C93.2802 56.376 93.1729 56.1147 93.1729 55.788C93.1729 55.4613 93.2802 55.2 93.4949 55.004C93.7189 54.7987 93.9942 54.696 94.3209 54.696C94.6476 54.696 94.9182 54.7987 95.1329 55.004C95.3569 55.2 95.4689 55.4613 95.4689 55.788C95.4689 56.1147 95.3569 56.376 95.1329 56.572C94.9182 56.768 94.6476 56.866 94.3209 56.866ZM99.1174 65V55.116H100.741V61.304H100.797L103.891 58.126H105.683L103.009 60.87L105.977 65H104.213L102.043 61.864L100.741 63.208V65H99.1174ZM110.872 65.168C110.349 65.168 109.859 65.0887 109.402 64.93C108.945 64.762 108.543 64.524 108.198 64.216C107.862 63.908 107.596 63.53 107.4 63.082C107.204 62.634 107.106 62.1253 107.106 61.556C107.106 60.996 107.204 60.4967 107.4 60.058C107.596 59.61 107.857 59.232 108.184 58.924C108.52 58.6067 108.898 58.3687 109.318 58.21C109.747 58.042 110.195 57.958 110.662 57.958C111.175 57.958 111.628 58.042 112.02 58.21C112.412 58.3687 112.743 58.5927 113.014 58.882C113.285 59.162 113.49 59.5027 113.63 59.904C113.77 60.3053 113.84 60.744 113.84 61.22C113.84 61.3787 113.831 61.5327 113.812 61.682C113.803 61.822 113.789 61.9387 113.77 62.032H108.716C108.809 62.676 109.066 63.152 109.486 63.46C109.906 63.768 110.438 63.922 111.082 63.922C111.446 63.922 111.782 63.8707 112.09 63.768C112.398 63.6653 112.706 63.5253 113.014 63.348L113.56 64.356C113.196 64.5987 112.781 64.7947 112.314 64.944C111.857 65.0933 111.376 65.168 110.872 65.168ZM110.704 59.204C110.228 59.204 109.808 59.344 109.444 59.624C109.089 59.904 108.861 60.324 108.758 60.884H112.412C112.356 60.324 112.179 59.904 111.88 59.624C111.591 59.344 111.199 59.204 110.704 59.204ZM124.217 65V55.844H127.269C127.745 55.844 128.188 55.8907 128.599 55.984C129.01 56.0773 129.364 56.2313 129.663 56.446C129.971 56.6513 130.209 56.9267 130.377 57.272C130.554 57.6173 130.643 58.0467 130.643 58.56C130.643 59.26 130.475 59.8247 130.139 60.254C129.812 60.6833 129.374 60.9913 128.823 61.178L131.007 65H129.173L127.213 61.416H125.841V65H124.217ZM125.841 60.128H127.101C127.736 60.128 128.216 59.9973 128.543 59.736C128.879 59.4747 129.047 59.0827 129.047 58.56C129.047 58.028 128.879 57.6593 128.543 57.454C128.216 57.2487 127.736 57.146 127.101 57.146H125.841V60.128ZM136.056 65.168C135.533 65.168 135.043 65.0887 134.586 64.93C134.128 64.762 133.727 64.524 133.382 64.216C133.046 63.908 132.78 63.53 132.584 63.082C132.388 62.634 132.29 62.1253 132.29 61.556C132.29 60.996 132.388 60.4967 132.584 60.058C132.78 59.61 133.041 59.232 133.368 58.924C133.704 58.6067 134.082 58.3687 134.502 58.21C134.931 58.042 135.379 57.958 135.846 57.958C136.359 57.958 136.812 58.042 137.204 58.21C137.596 58.3687 137.927 58.5927 138.198 58.882C138.468 59.162 138.674 59.5027 138.814 59.904C138.954 60.3053 139.024 60.744 139.024 61.22C139.024 61.3787 139.014 61.5327 138.996 61.682C138.986 61.822 138.972 61.9387 138.954 62.032H133.9C133.993 62.676 134.25 63.152 134.67 63.46C135.09 63.768 135.622 63.922 136.266 63.922C136.63 63.922 136.966 63.8707 137.274 63.768C137.582 63.6653 137.89 63.5253 138.198 63.348L138.744 64.356C138.38 64.5987 137.964 64.7947 137.498 64.944C137.04 65.0933 136.56 65.168 136.056 65.168ZM135.888 59.204C135.412 59.204 134.992 59.344 134.628 59.624C134.273 59.904 134.044 60.324 133.942 60.884H137.596C137.54 60.324 137.362 59.904 137.064 59.624C136.774 59.344 136.382 59.204 135.888 59.204ZM140.978 65V58.126H142.308L142.434 59.162H142.49C142.817 58.8353 143.176 58.5553 143.568 58.322C143.969 58.0793 144.436 57.958 144.968 57.958C145.761 57.958 146.345 58.2007 146.718 58.686C147.091 59.162 147.278 59.848 147.278 60.744V65H145.654V60.954C145.654 60.394 145.556 59.988 145.36 59.736C145.173 59.4747 144.842 59.344 144.366 59.344C144.03 59.344 143.731 59.4233 143.47 59.582C143.209 59.7407 142.919 59.9833 142.602 60.31V65H140.978ZM153.699 65.168C153.176 65.168 152.733 65.098 152.369 64.958C152.014 64.818 151.725 64.622 151.501 64.37C151.286 64.1087 151.127 63.796 151.025 63.432C150.931 63.068 150.885 62.6667 150.885 62.228V59.4H149.051V58.196L150.955 58.126L151.165 55.97H152.495V58.126H155.631V59.4H152.495V62.228C152.495 62.7973 152.611 63.2173 152.845 63.488C153.087 63.7493 153.503 63.88 154.091 63.88C154.38 63.88 154.646 63.8567 154.889 63.81C155.131 63.754 155.365 63.684 155.589 63.6L155.897 64.776C155.589 64.8787 155.257 64.9673 154.903 65.042C154.548 65.126 154.147 65.168 153.699 65.168ZM159.909 65.168C159.573 65.168 159.265 65.1167 158.985 65.014C158.705 64.9207 158.462 64.7853 158.257 64.608C158.052 64.4307 157.893 64.2207 157.781 63.978C157.669 63.726 157.613 63.4507 157.613 63.152C157.613 62.7693 157.702 62.4333 157.879 62.144C158.056 61.8453 158.336 61.5933 158.719 61.388C159.102 61.1827 159.592 61.0147 160.189 60.884C160.786 60.7533 161.51 60.66 162.359 60.604C162.331 60.212 162.191 59.89 161.939 59.638C161.687 59.386 161.281 59.26 160.721 59.26C160.329 59.26 159.942 59.3347 159.559 59.484C159.186 59.624 158.822 59.792 158.467 59.988L157.879 58.91C158.299 58.6673 158.78 58.448 159.321 58.252C159.862 58.056 160.427 57.958 161.015 57.958C161.976 57.958 162.709 58.2147 163.213 58.728C163.717 59.232 163.969 59.9647 163.969 60.926V65H162.653L162.527 64.146H162.485C162.121 64.426 161.715 64.6687 161.267 64.874C160.828 65.07 160.376 65.168 159.909 65.168ZM160.399 63.908C160.744 63.908 161.076 63.8333 161.393 63.684C161.72 63.5253 162.042 63.32 162.359 63.068V61.612C161.743 61.6587 161.23 61.724 160.819 61.808C160.408 61.8827 160.082 61.9807 159.839 62.102C159.596 62.2233 159.424 62.3633 159.321 62.522C159.218 62.6713 159.167 62.8393 159.167 63.026C159.167 63.334 159.284 63.558 159.517 63.698C159.76 63.838 160.054 63.908 160.399 63.908ZM170.628 65.168C169.825 65.168 169.214 64.9347 168.794 64.468C168.383 64.0013 168.178 63.3433 168.178 62.494V56.39H165.882V55.116H169.788V62.578C169.788 63.0447 169.904 63.376 170.138 63.572C170.38 63.7587 170.674 63.852 171.02 63.852C171.384 63.852 171.776 63.7633 172.196 63.586L172.574 64.776C172.238 64.9067 171.93 65.0047 171.65 65.07C171.37 65.1353 171.029 65.168 170.628 65.168ZM177.65 65.168C177.006 65.168 176.39 65.0653 175.802 64.86C175.214 64.6453 174.706 64.3933 174.276 64.104L174.976 63.082C175.396 63.3527 175.84 63.5673 176.306 63.726C176.782 63.8753 177.3 63.95 177.86 63.95C178.336 63.95 178.686 63.8707 178.91 63.712C179.144 63.5533 179.26 63.3573 179.26 63.124C179.26 63.012 179.237 62.914 179.19 62.83C179.144 62.7367 179.05 62.648 178.91 62.564C178.77 62.48 178.574 62.4007 178.322 62.326C178.08 62.2513 177.758 62.172 177.356 62.088C176.432 61.9013 175.756 61.64 175.326 61.304C174.906 60.968 174.696 60.5387 174.696 60.016C174.696 59.4093 174.958 58.9147 175.48 58.532C176.003 58.1493 176.75 57.958 177.72 57.958C178.29 57.958 178.822 58.0513 179.316 58.238C179.811 58.4247 180.236 58.6347 180.59 58.868L179.848 59.862C179.512 59.6473 179.153 59.4793 178.77 59.358C178.388 59.2367 177.991 59.176 177.58 59.176C177.123 59.176 176.796 59.2507 176.6 59.4C176.404 59.54 176.306 59.7173 176.306 59.932C176.306 60.1747 176.446 60.3567 176.726 60.478C177.006 60.5993 177.464 60.73 178.098 60.87C178.649 60.9913 179.102 61.122 179.456 61.262C179.811 61.402 180.091 61.5607 180.296 61.738C180.511 61.906 180.66 62.0973 180.744 62.312C180.828 62.5267 180.87 62.7693 180.87 63.04C180.87 63.3387 180.8 63.6187 180.66 63.88C180.52 64.132 180.315 64.356 180.044 64.552C179.774 64.7387 179.438 64.888 179.036 65C178.635 65.112 178.173 65.168 177.65 65.168ZM193.515 65L190.771 58.126H192.395L193.725 61.696C193.856 62.0413 193.973 62.3867 194.075 62.732C194.187 63.068 194.299 63.4133 194.411 63.768H194.467C194.579 63.4133 194.687 63.068 194.789 62.732C194.901 62.3867 195.023 62.0413 195.153 61.696L196.483 58.126H198.023L195.349 65H193.515ZM202.834 65.168C202.19 65.168 201.574 65.0653 200.986 64.86C200.398 64.6453 199.889 64.3933 199.46 64.104L200.16 63.082C200.58 63.3527 201.023 63.5673 201.49 63.726C201.966 63.8753 202.484 63.95 203.044 63.95C203.52 63.95 203.87 63.8707 204.094 63.712C204.327 63.5533 204.444 63.3573 204.444 63.124C204.444 63.012 204.42 62.914 204.374 62.83C204.327 62.7367 204.234 62.648 204.094 62.564C203.954 62.48 203.758 62.4007 203.506 62.326C203.263 62.2513 202.941 62.172 202.54 62.088C201.616 61.9013 200.939 61.64 200.51 61.304C200.09 60.968 199.88 60.5387 199.88 60.016C199.88 59.4093 200.141 58.9147 200.664 58.532C201.186 58.1493 201.933 57.958 202.904 57.958C203.473 57.958 204.005 58.0513 204.5 58.238C204.994 58.4247 205.419 58.6347 205.774 58.868L205.032 59.862C204.696 59.6473 204.336 59.4793 203.954 59.358C203.571 59.2367 203.174 59.176 202.764 59.176C202.306 59.176 201.98 59.2507 201.784 59.4C201.588 59.54 201.49 59.7173 201.49 59.932C201.49 60.1747 201.63 60.3567 201.91 60.478C202.19 60.5993 202.647 60.73 203.282 60.87C203.832 60.9913 204.285 61.122 204.64 61.262C204.994 61.402 205.274 61.5607 205.48 61.738C205.694 61.906 205.844 62.0973 205.928 62.312C206.012 62.5267 206.054 62.7693 206.054 63.04C206.054 63.3387 205.984 63.6187 205.844 63.88C205.704 64.132 205.498 64.356 205.228 64.552C204.957 64.7387 204.621 64.888 204.22 65C203.818 65.112 203.356 65.168 202.834 65.168ZM216.781 65L215.479 55.844H217.215L217.677 61.15C217.705 61.5327 217.728 61.8873 217.747 62.214C217.766 62.5407 217.784 62.9187 217.803 63.348H217.845C217.92 62.9187 217.99 62.5407 218.055 62.214C218.13 61.8873 218.209 61.5327 218.293 61.15L219.049 58.182H220.267L220.981 61.15C221.074 61.5327 221.154 61.8873 221.219 62.214C221.284 62.5313 221.354 62.9093 221.429 63.348H221.485C221.504 62.9093 221.518 62.5313 221.527 62.214C221.546 61.8873 221.569 61.5327 221.597 61.15L222.045 55.844H223.683L222.451 65H220.617L219.903 61.752C219.838 61.4627 219.777 61.178 219.721 60.898C219.674 60.6087 219.637 60.324 219.609 60.044H219.567C219.52 60.324 219.478 60.6087 219.441 60.898C219.404 61.178 219.352 61.4627 219.287 61.752L218.587 65H216.781ZM227.933 65V59.4H224.951V58.126H229.543V65H227.933ZM228.633 56.866C228.307 56.866 228.031 56.768 227.807 56.572C227.593 56.376 227.485 56.1147 227.485 55.788C227.485 55.4613 227.593 55.2 227.807 55.004C228.031 54.7987 228.307 54.696 228.633 54.696C228.96 54.696 229.231 54.7987 229.445 55.004C229.669 55.2 229.781 55.4613 229.781 55.788C229.781 56.1147 229.669 56.376 229.445 56.572C229.231 56.768 228.96 56.866 228.633 56.866ZM233.318 65V58.126H234.648L234.774 59.162H234.83C235.157 58.8353 235.516 58.5553 235.908 58.322C236.309 58.0793 236.776 57.958 237.308 57.958C238.101 57.958 238.685 58.2007 239.058 58.686C239.431 59.162 239.618 59.848 239.618 60.744V65H237.994V60.954C237.994 60.394 237.896 59.988 237.7 59.736C237.513 59.4747 237.182 59.344 236.706 59.344C236.37 59.344 236.071 59.4233 235.81 59.582C235.549 59.7407 235.259 59.9833 234.942 60.31V65H233.318ZM244.246 65.168C243.808 65.168 243.406 65.0887 243.042 64.93C242.678 64.762 242.366 64.524 242.104 64.216C241.852 63.908 241.656 63.5347 241.516 63.096C241.376 62.648 241.306 62.1393 241.306 61.57C241.306 61.01 241.39 60.506 241.558 60.058C241.726 59.61 241.95 59.232 242.23 58.924C242.52 58.616 242.846 58.378 243.21 58.21C243.574 58.042 243.952 57.958 244.344 57.958C244.736 57.958 245.082 58.028 245.38 58.168C245.679 58.308 245.964 58.5087 246.234 58.77H246.276L246.192 57.608V55.116H247.816V65H246.486L246.36 64.202H246.318C246.048 64.4727 245.73 64.7013 245.366 64.888C245.012 65.0747 244.638 65.168 244.246 65.168ZM244.638 63.838C245.208 63.838 245.726 63.5627 246.192 63.012V59.918C245.95 59.6847 245.707 59.5213 245.464 59.428C245.222 59.3347 244.974 59.288 244.722 59.288C244.48 59.288 244.251 59.3393 244.036 59.442C243.831 59.5447 243.649 59.694 243.49 59.89C243.332 60.0767 243.206 60.31 243.112 60.59C243.019 60.87 242.972 61.192 242.972 61.556C242.972 62.3027 243.117 62.872 243.406 63.264C243.696 63.6467 244.106 63.838 244.638 63.838ZM253.201 65.168C252.557 65.168 251.941 65.0653 251.353 64.86C250.765 64.6453 250.256 64.3933 249.827 64.104L250.527 63.082C250.947 63.3527 251.39 63.5673 251.857 63.726C252.333 63.8753 252.851 63.95 253.411 63.95C253.887 63.95 254.237 63.8707 254.461 63.712C254.694 63.5533 254.811 63.3573 254.811 63.124C254.811 63.012 254.788 62.914 254.741 62.83C254.694 62.7367 254.601 62.648 254.461 62.564C254.321 62.48 254.125 62.4007 253.873 62.326C253.63 62.2513 253.308 62.172 252.907 62.088C251.983 61.9013 251.306 61.64 250.877 61.304C250.457 60.968 250.247 60.5387 250.247 60.016C250.247 59.4093 250.508 58.9147 251.031 58.532C251.554 58.1493 252.3 57.958 253.271 57.958C253.84 57.958 254.372 58.0513 254.867 58.238C255.362 58.4247 255.786 58.6347 256.141 58.868L255.399 59.862C255.063 59.6473 254.704 59.4793 254.321 59.358C253.938 59.2367 253.542 59.176 253.131 59.176C252.674 59.176 252.347 59.2507 252.151 59.4C251.955 59.54 251.857 59.7173 251.857 59.932C251.857 60.1747 251.997 60.3567 252.277 60.478C252.557 60.5993 253.014 60.73 253.649 60.87C254.2 60.9913 254.652 61.122 255.007 61.262C255.362 61.402 255.642 61.5607 255.847 61.738C256.062 61.906 256.211 62.0973 256.295 62.312C256.379 62.5267 256.421 62.7693 256.421 63.04C256.421 63.3387 256.351 63.6187 256.211 63.88C256.071 64.132 255.866 64.356 255.595 64.552C255.324 64.7387 254.988 64.888 254.587 65C254.186 65.112 253.724 65.168 253.201 65.168ZM258.502 67.716V58.126H259.832L259.958 58.91H260C260.298 58.6393 260.639 58.4153 261.022 58.238C261.414 58.0513 261.806 57.958 262.198 57.958C262.646 57.958 263.042 58.042 263.388 58.21C263.742 58.3687 264.036 58.602 264.27 58.91C264.512 59.218 264.694 59.5867 264.816 60.016C264.946 60.4453 265.012 60.926 265.012 61.458C265.012 62.046 264.928 62.5733 264.76 63.04C264.592 63.4973 264.363 63.8847 264.074 64.202C263.794 64.51 263.467 64.748 263.094 64.916C262.73 65.084 262.352 65.168 261.96 65.168C261.642 65.168 261.316 65.098 260.98 64.958C260.653 64.818 260.354 64.6173 260.084 64.356H260.042L260.126 65.56V67.716H258.502ZM261.624 63.838C262.118 63.838 262.529 63.642 262.856 63.25C263.182 62.8487 263.346 62.256 263.346 61.472C263.346 60.7813 263.22 60.2447 262.968 59.862C262.716 59.4793 262.31 59.288 261.75 59.288C261.488 59.288 261.222 59.3533 260.952 59.484C260.681 59.6147 260.406 59.8247 260.126 60.114V63.208C260.378 63.4413 260.634 63.6047 260.896 63.698C261.166 63.7913 261.409 63.838 261.624 63.838ZM270.368 65.168C269.845 65.168 269.355 65.0887 268.898 64.93C268.441 64.762 268.039 64.524 267.694 64.216C267.358 63.908 267.092 63.53 266.896 63.082C266.7 62.634 266.602 62.1253 266.602 61.556C266.602 60.996 266.7 60.4967 266.896 60.058C267.092 59.61 267.353 59.232 267.68 58.924C268.016 58.6067 268.394 58.3687 268.814 58.21C269.243 58.042 269.691 57.958 270.158 57.958C270.671 57.958 271.124 58.042 271.516 58.21C271.908 58.3687 272.239 58.5927 272.51 58.882C272.781 59.162 272.986 59.5027 273.126 59.904C273.266 60.3053 273.336 60.744 273.336 61.22C273.336 61.3787 273.327 61.5327 273.308 61.682C273.299 61.822 273.285 61.9387 273.266 62.032H268.212C268.305 62.676 268.562 63.152 268.982 63.46C269.402 63.768 269.934 63.922 270.578 63.922C270.942 63.922 271.278 63.8707 271.586 63.768C271.894 63.6653 272.202 63.5253 272.51 63.348L273.056 64.356C272.692 64.5987 272.277 64.7947 271.81 64.944C271.353 65.0933 270.872 65.168 270.368 65.168ZM270.2 59.204C269.724 59.204 269.304 59.344 268.94 59.624C268.585 59.904 268.357 60.324 268.254 60.884H271.908C271.852 60.324 271.675 59.904 271.376 59.624C271.087 59.344 270.695 59.204 270.2 59.204ZM278.763 65.168C278.24 65.168 277.75 65.0887 277.293 64.93C276.835 64.762 276.434 64.524 276.089 64.216C275.753 63.908 275.487 63.53 275.291 63.082C275.095 62.634 274.997 62.1253 274.997 61.556C274.997 60.996 275.095 60.4967 275.291 60.058C275.487 59.61 275.748 59.232 276.075 58.924C276.411 58.6067 276.789 58.3687 277.209 58.21C277.638 58.042 278.086 57.958 278.553 57.958C279.066 57.958 279.519 58.042 279.911 58.21C280.303 58.3687 280.634 58.5927 280.905 58.882C281.175 59.162 281.381 59.5027 281.521 59.904C281.661 60.3053 281.731 60.744 281.731 61.22C281.731 61.3787 281.721 61.5327 281.703 61.682C281.693 61.822 281.679 61.9387 281.661 62.032H276.607C276.7 62.676 276.957 63.152 277.377 63.46C277.797 63.768 278.329 63.922 278.973 63.922C279.337 63.922 279.673 63.8707 279.981 63.768C280.289 63.6653 280.597 63.5253 280.905 63.348L281.451 64.356C281.087 64.5987 280.671 64.7947 280.205 64.944C279.747 65.0933 279.267 65.168 278.763 65.168ZM278.595 59.204C278.119 59.204 277.699 59.344 277.335 59.624C276.98 59.904 276.751 60.324 276.649 60.884H280.303C280.247 60.324 280.069 59.904 279.771 59.624C279.481 59.344 279.089 59.204 278.595 59.204ZM286.219 65.168C285.78 65.168 285.379 65.0887 285.015 64.93C284.651 64.762 284.338 64.524 284.077 64.216C283.825 63.908 283.629 63.5347 283.489 63.096C283.349 62.648 283.279 62.1393 283.279 61.57C283.279 61.01 283.363 60.506 283.531 60.058C283.699 59.61 283.923 59.232 284.203 58.924C284.492 58.616 284.819 58.378 285.183 58.21C285.547 58.042 285.925 57.958 286.317 57.958C286.709 57.958 287.054 58.028 287.353 58.168C287.652 58.308 287.936 58.5087 288.207 58.77H288.249L288.165 57.608V55.116H289.789V65H288.459L288.333 64.202H288.291C288.02 64.4727 287.703 64.7013 287.339 64.888C286.984 65.0747 286.611 65.168 286.219 65.168ZM286.611 63.838C287.18 63.838 287.698 63.5627 288.165 63.012V59.918C287.922 59.6847 287.68 59.5213 287.437 59.428C287.194 59.3347 286.947 59.288 286.695 59.288C286.452 59.288 286.224 59.3393 286.009 59.442C285.804 59.5447 285.622 59.694 285.463 59.89C285.304 60.0767 285.178 60.31 285.085 60.59C284.992 60.87 284.945 61.192 284.945 61.556C284.945 62.3027 285.09 62.872 285.379 63.264C285.668 63.6467 286.079 63.838 286.611 63.838Z" fill="#30394B"/>
</g>
<path d="M19 198.05H11.8906V195.613C11.8906 194.809 12.0518 194.197 12.374 193.777C12.6963 193.357 13.1764 193.147 13.8145 193.147C14.14 193.147 14.4329 193.235 14.6934 193.411C14.9538 193.587 15.1556 193.844 15.2988 194.183C15.403 193.799 15.5999 193.502 15.8896 193.294C16.1761 193.082 16.5212 192.977 16.9248 192.977C17.5921 192.977 18.1048 193.191 18.4629 193.621C18.821 194.048 19 194.66 19 195.457V198.05ZM15.792 196.814H18.0137V195.442C18.0137 195.055 17.9176 194.752 17.7256 194.534C17.5335 194.316 17.2666 194.207 16.9248 194.207C16.1859 194.207 15.8083 194.585 15.792 195.34V196.814ZM14.8838 196.814V195.604C14.8838 195.219 14.7975 194.92 14.625 194.705C14.4492 194.487 14.2018 194.378 13.8828 194.378C13.5312 194.378 13.2773 194.479 13.1211 194.681C12.9648 194.879 12.8867 195.19 12.8867 195.613V196.814H14.8838ZM19 190.594V191.78H13.7168V190.594H19ZM12.3447 191.854C12.1624 191.854 12.0111 191.797 11.8906 191.683C11.7702 191.565 11.71 191.399 11.71 191.185C11.71 190.97 11.7702 190.804 11.8906 190.687C12.0111 190.569 12.1624 190.511 12.3447 190.511C12.5238 190.511 12.6735 190.569 12.7939 190.687C12.9111 190.804 12.9697 190.97 12.9697 191.185C12.9697 191.399 12.9111 191.565 12.7939 191.683C12.6735 191.797 12.5238 191.854 12.3447 191.854ZM16.7344 187.581L17.2764 188.108H19V189.295H11.5V188.108H15.8262L15.3623 187.737L13.7168 186.277V184.852L15.9189 186.814L19 184.642V186.014L16.7344 187.581ZM19.0977 181.844C19.0977 182.596 18.8617 183.206 18.3896 183.675C17.9144 184.14 17.2829 184.373 16.4951 184.373H16.3486C15.8213 184.373 15.3509 184.272 14.9375 184.07C14.5208 183.865 14.1969 183.579 13.9658 183.211C13.7347 182.843 13.6191 182.433 13.6191 181.98C13.6191 181.261 13.8486 180.706 14.3076 180.315C14.7666 179.922 15.416 179.725 16.2559 179.725H16.7344V183.177C17.1706 183.141 17.5156 182.996 17.7695 182.742C18.0234 182.485 18.1504 182.163 18.1504 181.775C18.1504 181.232 17.9307 180.789 17.4912 180.447L18.1016 179.808C18.4173 180.019 18.6631 180.302 18.8389 180.657C19.0114 181.009 19.0977 181.404 19.0977 181.844ZM14.5713 181.985C14.5713 182.311 14.6852 182.575 14.9131 182.776C15.141 182.975 15.4583 183.102 15.8652 183.157V180.896H15.7773C15.3802 180.923 15.0807 181.028 14.8789 181.214C14.6738 181.399 14.5713 181.657 14.5713 181.985ZM17.5645 175.838C17.3529 175.838 17.1917 175.926 17.0811 176.102C16.9704 176.274 16.8727 176.562 16.7881 176.966C16.7035 177.369 16.596 177.706 16.4658 177.977C16.1794 178.569 15.7643 178.865 15.2207 178.865C14.765 178.865 14.3841 178.673 14.0781 178.289C13.7721 177.905 13.6191 177.417 13.6191 176.824C13.6191 176.193 13.7754 175.683 14.0879 175.296C14.4004 174.905 14.8057 174.71 15.3037 174.71V175.896C15.0758 175.896 14.887 175.981 14.7373 176.15C14.5843 176.32 14.5078 176.544 14.5078 176.824C14.5078 177.085 14.568 177.298 14.6885 177.464C14.8089 177.627 14.9701 177.708 15.1719 177.708C15.3542 177.708 15.4958 177.632 15.5967 177.479C15.6976 177.326 15.8001 177.016 15.9043 176.551C16.0052 176.085 16.1273 175.721 16.2705 175.457C16.4105 175.19 16.5798 174.993 16.7783 174.866C16.9769 174.736 17.2178 174.671 17.501 174.671C17.9762 174.671 18.362 174.868 18.6582 175.262C18.9512 175.656 19.0977 176.172 19.0977 176.81C19.0977 177.243 19.0195 177.628 18.8633 177.967C18.707 178.305 18.4922 178.569 18.2188 178.758C17.9453 178.947 17.6507 179.041 17.335 179.041V177.889C17.6149 177.872 17.8314 177.767 17.9844 177.571C18.1341 177.376 18.209 177.117 18.209 176.795C18.209 176.482 18.1504 176.245 18.0332 176.082C17.9128 175.919 17.7565 175.838 17.5645 175.838ZM16.2607 168.416V169.793H19V171.028H11.8906V168.528C11.8906 167.708 12.0745 167.075 12.4424 166.629C12.8102 166.183 13.3424 165.96 14.0391 165.96C14.5143 165.96 14.9131 166.076 15.2354 166.307C15.5544 166.535 15.8001 166.854 15.9727 167.264L18.9365 165.667H19V166.99L16.2607 168.416ZM15.2695 169.793V168.523C15.2695 168.107 15.1654 167.781 14.957 167.547C14.7454 167.312 14.4574 167.195 14.0928 167.195C13.7119 167.195 13.4173 167.304 13.209 167.522C13.0007 167.737 12.8932 168.06 12.8867 168.489V169.793H15.2695ZM19.0977 162.576C19.0977 163.328 18.8617 163.938 18.3896 164.407C17.9144 164.873 17.2829 165.105 16.4951 165.105H16.3486C15.8213 165.105 15.3509 165.005 14.9375 164.803C14.5208 164.598 14.1969 164.311 13.9658 163.943C13.7347 163.576 13.6191 163.165 13.6191 162.713C13.6191 161.993 13.8486 161.438 14.3076 161.048C14.7666 160.654 15.416 160.457 16.2559 160.457H16.7344L16.7344 163.909C17.1706 163.873 17.5156 163.729 17.7695 163.475C18.0234 163.217 18.1504 162.895 18.1504 162.508C18.1504 161.964 17.9307 161.521 17.4912 161.18L18.1016 160.54C18.4173 160.752 18.6631 161.035 18.8389 161.39C19.0114 161.741 19.0977 162.137 19.0977 162.576ZM14.5713 162.718C14.5713 163.043 14.6852 163.307 14.9131 163.509C15.141 163.707 15.4583 163.834 15.8652 163.89L15.8652 161.629H15.7773C15.3802 161.655 15.0807 161.761 14.8789 161.946C14.6738 162.132 14.5713 162.389 14.5713 162.718ZM13.7168 158.431L14.3271 158.396C13.8551 158.006 13.6191 157.493 13.6191 156.858C13.6191 155.758 14.249 155.198 15.5088 155.179H19L19 156.365H15.5771C15.2419 156.365 14.9945 156.438 14.835 156.585C14.6722 156.728 14.5908 156.964 14.5908 157.293C14.5908 157.771 14.8073 158.128 15.2402 158.362H19V159.549H13.7168L13.7168 158.431ZM12.4326 152.479H13.7168V151.546H14.5957V152.479H17.5449C17.7467 152.479 17.8932 152.439 17.9844 152.361C18.0723 152.28 18.1162 152.137 18.1162 151.932C18.1162 151.795 18.0999 151.657 18.0674 151.517H18.9854C19.0602 151.787 19.0977 152.047 19.0977 152.298C19.0977 153.209 18.5947 153.665 17.5889 153.665H14.5957V154.534H13.7168V153.665H12.4326V152.479ZM19.0977 148.309C19.0977 149.061 18.8617 149.671 18.3896 150.14C17.9144 150.605 17.2829 150.838 16.4951 150.838H16.3486C15.8213 150.838 15.3509 150.737 14.9375 150.535C14.5208 150.33 14.1969 150.044 13.9658 149.676C13.7347 149.308 13.6191 148.898 13.6191 148.445C13.6191 147.726 13.8486 147.171 14.3076 146.78C14.7666 146.386 15.416 146.189 16.2559 146.189H16.7344V149.642C17.1706 149.606 17.5156 149.461 17.7695 149.207C18.0234 148.95 18.1504 148.628 18.1504 148.24C18.1504 147.697 17.9307 147.254 17.4912 146.912L18.1016 146.272C18.4173 146.484 18.6631 146.767 18.8389 147.122C19.0114 147.474 19.0977 147.869 19.0977 148.309ZM14.5713 148.45C14.5713 148.776 14.6852 149.039 14.9131 149.241C15.141 149.44 15.4583 149.567 15.8652 149.622V147.361H15.7773C15.3802 147.387 15.0807 147.493 14.8789 147.679C14.6738 147.864 14.5713 148.121 14.5713 148.45ZM16.3193 145.486C15.5055 145.486 14.8529 145.298 14.3613 144.92C13.8665 144.542 13.6191 144.036 13.6191 143.401C13.6191 142.841 13.8145 142.389 14.2051 142.044H11.5V140.857H19V141.932L18.4531 141.99C18.8828 142.345 19.0977 142.819 19.0977 143.411C19.0977 144.03 18.8486 144.531 18.3506 144.915C17.8525 145.296 17.1755 145.486 16.3193 145.486ZM16.4219 144.3C16.959 144.3 17.3789 144.197 17.6816 143.992C17.9811 143.784 18.1309 143.489 18.1309 143.108C18.1309 142.623 17.9144 142.269 17.4814 142.044H15.2256C14.8024 142.262 14.5908 142.614 14.5908 143.099C14.5908 143.483 14.7438 143.779 15.0498 143.987C15.3525 144.196 15.8099 144.3 16.4219 144.3Z" fill="#E05959"/>
<path d="M309.53 260.53C309.823 260.237 309.823 259.763 309.53 259.47L304.757 254.697C304.464 254.404 303.99 254.404 303.697 254.697C303.404 254.99 303.404 255.464 303.697 255.757L307.939 260L303.697 264.243C303.404 264.536 303.404 265.01 303.697 265.303C303.99 265.596 304.464 265.596 304.757 265.303L309.53 260.53ZM56 260.75H309V259.25H56V260.75Z" fill="#E05959"/>
<path d="M56.5303 73.4697C56.2374 73.1768 55.7626 73.1768 55.4697 73.4697L50.6967 78.2426C50.4038 78.5355 50.4038 79.0104 50.6967 79.3033C50.9896 79.5962 51.4645 79.5962 51.7574 79.3033L56 75.0607L60.2426 79.3033C60.5355 79.5962 61.0104 79.5962 61.3033 79.3033C61.5962 79.0104 61.5962 78.5355 61.3033 78.2426L56.5303 73.4697ZM56.75 260L56.75 74H55.25L55.25 260H56.75Z" fill="#E05959"/>
<g style="mix-blend-mode:multiply">
<path d="M252.879 238.137L59.9185 114.09C59.346 113.722 59 113.089 59 112.408V82C59 80.8954 59.8954 80 61 80H116.293C116.75 80 117.194 80.1568 117.55 80.4443L279.525 211.308C280.352 211.976 281.557 211.881 282.269 211.091L295.513 196.374C296.74 195.012 299 195.879 299 197.712V253.5C299 254.605 298.105 255.5 297 255.5H243.435C241.639 255.5 240.753 253.315 242.043 252.064L253.19 241.255C254.115 240.358 253.963 238.833 252.879 238.137Z" fill="url(#paint0_linear)"/>
</g>
<line x1="28" y1="22" x2="40" y2="22" stroke="white" stroke-width="2"/>
</g>
<defs>
<filter id="filter0_d" x="10" y="-1" width="312" height="46" filterUnits="userSpaceOnUse" color-interpolation-filters="sRGB">
<feFlood flood-opacity="0" result="BackgroundImageFix"/>
<feColorMatrix in="SourceAlpha" type="matrix" values="0 0 0 0 0 0 0 0 0 0 0 0 0 0 0 0 0 0 127 0"/>
<feOffset/>
<feGaussianBlur stdDeviation="3"/>
<feColorMatrix type="matrix" values="0 0 0 0 0 0 0 0 0 0 0 0 0 0 0 0 0 0 0.1 0"/>
<feBlend mode="normal" in2="BackgroundImageFix" result="effect1_dropShadow"/>
<feBlend mode="normal" in="SourceGraphic" in2="effect1_dropShadow" result="shape"/>
</filter>
<linearGradient id="paint0_linear" x1="299.5" y1="255" x2="43.9999" y2="72" gradientUnits="userSpaceOnUse">
<stop stop-color="#E05959"/>
<stop offset="0.94401" stop-color="#E05959" stop-opacity="0"/>
</linearGradient>
<clipPath id="clip0">
<rect width="330" height="303" fill="white"/>
</clipPath>
</defs>
</svg>
