<svg width="702" height="212" viewBox="0 0 702 212" fill="none" xmlns="http://www.w3.org/2000/svg">
<g clip-path="url(#clip0)">
<rect width="702" height="212" fill="white"/>
<path d="M108.268 191.455L109.273 189.717H110.592L108.976 192.319L110.646 195H109.337L108.282 193.193L107.232 195H105.914L107.584 192.319L105.973 189.717H107.281L108.268 191.455ZM113.702 192.456H111.139V191.499H113.702V192.456ZM117.838 195C117.786 194.899 117.74 194.735 117.701 194.507C117.324 194.901 116.861 195.098 116.314 195.098C115.784 195.098 115.351 194.946 115.016 194.644C114.68 194.341 114.513 193.966 114.513 193.521C114.513 192.957 114.721 192.526 115.138 192.227C115.558 191.924 116.157 191.772 116.935 191.772H117.662V191.426C117.662 191.152 117.586 190.934 117.433 190.771C117.28 190.605 117.047 190.522 116.734 190.522C116.464 190.522 116.243 190.591 116.07 190.728C115.898 190.861 115.812 191.032 115.812 191.24H114.625C114.625 190.951 114.721 190.68 114.913 190.43C115.105 190.176 115.366 189.977 115.694 189.834C116.026 189.691 116.396 189.619 116.803 189.619C117.421 189.619 117.914 189.775 118.282 190.088C118.65 190.397 118.839 190.833 118.849 191.396V193.779C118.849 194.255 118.915 194.634 119.049 194.917V195H117.838ZM116.534 194.146C116.769 194.146 116.988 194.089 117.193 193.975C117.402 193.861 117.558 193.708 117.662 193.516V192.52H117.022C116.583 192.52 116.253 192.596 116.031 192.749C115.81 192.902 115.699 193.118 115.699 193.398C115.699 193.626 115.774 193.809 115.924 193.945C116.077 194.079 116.28 194.146 116.534 194.146ZM121.988 191.455L122.994 189.717H124.312L122.696 192.319L124.366 195H123.058L122.003 193.193L120.953 195H119.635L121.305 192.319L119.693 189.717H121.002L121.988 191.455ZM126.383 195H125.196V189.717H126.383V195ZM125.123 188.345C125.123 188.162 125.18 188.011 125.294 187.891C125.411 187.77 125.577 187.71 125.792 187.71C126.007 187.71 126.173 187.77 126.29 187.891C126.407 188.011 126.466 188.162 126.466 188.345C126.466 188.524 126.407 188.674 126.29 188.794C126.173 188.911 126.007 188.97 125.792 188.97C125.577 188.97 125.411 188.911 125.294 188.794C125.18 188.674 125.123 188.524 125.123 188.345ZM130.641 193.564C130.641 193.353 130.553 193.192 130.377 193.081C130.204 192.97 129.916 192.873 129.513 192.788C129.109 192.703 128.772 192.596 128.502 192.466C127.91 192.179 127.613 191.764 127.613 191.221C127.613 190.765 127.805 190.384 128.189 190.078C128.574 189.772 129.062 189.619 129.654 189.619C130.286 189.619 130.795 189.775 131.183 190.088C131.573 190.4 131.769 190.806 131.769 191.304H130.582C130.582 191.076 130.497 190.887 130.328 190.737C130.159 190.584 129.934 190.508 129.654 190.508C129.394 190.508 129.181 190.568 129.015 190.688C128.852 190.809 128.771 190.97 128.771 191.172C128.771 191.354 128.847 191.496 129 191.597C129.153 191.698 129.462 191.8 129.928 191.904C130.393 192.005 130.758 192.127 131.021 192.271C131.288 192.41 131.485 192.58 131.612 192.778C131.743 192.977 131.808 193.218 131.808 193.501C131.808 193.976 131.611 194.362 131.217 194.658C130.823 194.951 130.307 195.098 129.669 195.098C129.236 195.098 128.85 195.02 128.512 194.863C128.173 194.707 127.91 194.492 127.721 194.219C127.532 193.945 127.438 193.651 127.438 193.335H128.59C128.606 193.615 128.712 193.831 128.907 193.984C129.103 194.134 129.361 194.209 129.684 194.209C129.996 194.209 130.234 194.15 130.396 194.033C130.559 193.913 130.641 193.757 130.641 193.564Z" fill="#31CB8A"/>
<path d="M345.268 191.455L346.273 189.717H347.592L345.976 192.319L347.646 195H346.337L345.282 193.193L344.232 195H342.914L344.584 192.319L342.973 189.717H344.281L345.268 191.455ZM350.702 192.456H348.139V191.499H350.702V192.456ZM354.838 195C354.786 194.899 354.74 194.735 354.701 194.507C354.324 194.901 353.861 195.098 353.314 195.098C352.784 195.098 352.351 194.946 352.016 194.644C351.68 194.341 351.513 193.966 351.513 193.521C351.513 192.957 351.721 192.526 352.138 192.227C352.558 191.924 353.157 191.772 353.935 191.772H354.662V191.426C354.662 191.152 354.586 190.934 354.433 190.771C354.28 190.605 354.047 190.522 353.734 190.522C353.464 190.522 353.243 190.591 353.07 190.728C352.898 190.861 352.812 191.032 352.812 191.24H351.625C351.625 190.951 351.721 190.68 351.913 190.43C352.105 190.176 352.366 189.977 352.694 189.834C353.026 189.691 353.396 189.619 353.803 189.619C354.421 189.619 354.914 189.775 355.282 190.088C355.65 190.397 355.839 190.833 355.849 191.396V193.779C355.849 194.255 355.915 194.634 356.049 194.917V195H354.838ZM353.534 194.146C353.769 194.146 353.988 194.089 354.193 193.975C354.402 193.861 354.558 193.708 354.662 193.516V192.52H354.022C353.583 192.52 353.253 192.596 353.031 192.749C352.81 192.902 352.699 193.118 352.699 193.398C352.699 193.626 352.774 193.809 352.924 193.945C353.077 194.079 353.28 194.146 353.534 194.146ZM358.988 191.455L359.994 189.717H361.312L359.696 192.319L361.366 195H360.058L359.003 193.193L357.953 195H356.635L358.305 192.319L356.693 189.717H358.002L358.988 191.455ZM363.383 195H362.196V189.717H363.383V195ZM362.123 188.345C362.123 188.162 362.18 188.011 362.294 187.891C362.411 187.77 362.577 187.71 362.792 187.71C363.007 187.71 363.173 187.77 363.29 187.891C363.407 188.011 363.466 188.162 363.466 188.345C363.466 188.524 363.407 188.674 363.29 188.794C363.173 188.911 363.007 188.97 362.792 188.97C362.577 188.97 362.411 188.911 362.294 188.794C362.18 188.674 362.123 188.524 362.123 188.345ZM367.641 193.564C367.641 193.353 367.553 193.192 367.377 193.081C367.204 192.97 366.916 192.873 366.513 192.788C366.109 192.703 365.772 192.596 365.502 192.466C364.91 192.179 364.613 191.764 364.613 191.221C364.613 190.765 364.805 190.384 365.189 190.078C365.574 189.772 366.062 189.619 366.654 189.619C367.286 189.619 367.795 189.775 368.183 190.088C368.573 190.4 368.769 190.806 368.769 191.304H367.582C367.582 191.076 367.497 190.887 367.328 190.737C367.159 190.584 366.934 190.508 366.654 190.508C366.394 190.508 366.181 190.568 366.015 190.688C365.852 190.809 365.771 190.97 365.771 191.172C365.771 191.354 365.847 191.496 366 191.597C366.153 191.698 366.462 191.8 366.928 191.904C367.393 192.005 367.758 192.127 368.021 192.271C368.288 192.41 368.485 192.58 368.612 192.778C368.743 192.977 368.808 193.218 368.808 193.501C368.808 193.976 368.611 194.362 368.217 194.658C367.823 194.951 367.307 195.098 366.669 195.098C366.236 195.098 365.85 195.02 365.512 194.863C365.173 194.707 364.91 194.492 364.721 194.219C364.532 193.945 364.438 193.651 364.438 193.335H365.59C365.606 193.615 365.712 193.831 365.907 193.984C366.103 194.134 366.361 194.209 366.684 194.209C366.996 194.209 367.234 194.15 367.396 194.033C367.559 193.913 367.641 193.757 367.641 193.564Z" fill="#30394B"/>
<path d="M572.268 191.455L573.273 189.717H574.592L572.976 192.319L574.646 195H573.337L572.282 193.193L571.232 195H569.914L571.584 192.319L569.973 189.717H571.281L572.268 191.455ZM577.702 192.456H575.139V191.499H577.702V192.456ZM581.838 195C581.786 194.899 581.74 194.735 581.701 194.507C581.324 194.901 580.861 195.098 580.314 195.098C579.784 195.098 579.351 194.946 579.016 194.644C578.68 194.341 578.513 193.966 578.513 193.521C578.513 192.957 578.721 192.526 579.138 192.227C579.558 191.924 580.157 191.772 580.935 191.772H581.662V191.426C581.662 191.152 581.586 190.934 581.433 190.771C581.28 190.605 581.047 190.522 580.734 190.522C580.464 190.522 580.243 190.591 580.07 190.728C579.898 190.861 579.812 191.032 579.812 191.24H578.625C578.625 190.951 578.721 190.68 578.913 190.43C579.105 190.176 579.366 189.977 579.694 189.834C580.026 189.691 580.396 189.619 580.803 189.619C581.421 189.619 581.914 189.775 582.282 190.088C582.65 190.397 582.839 190.833 582.849 191.396V193.779C582.849 194.255 582.915 194.634 583.049 194.917V195H581.838ZM580.534 194.146C580.769 194.146 580.988 194.089 581.193 193.975C581.402 193.861 581.558 193.708 581.662 193.516V192.52H581.022C580.583 192.52 580.253 192.596 580.031 192.749C579.81 192.902 579.699 193.118 579.699 193.398C579.699 193.626 579.774 193.809 579.924 193.945C580.077 194.079 580.28 194.146 580.534 194.146ZM585.988 191.455L586.994 189.717H588.312L586.696 192.319L588.366 195H587.058L586.003 193.193L584.953 195H583.635L585.305 192.319L583.693 189.717H585.002L585.988 191.455ZM590.383 195H589.196V189.717H590.383V195ZM589.123 188.345C589.123 188.162 589.18 188.011 589.294 187.891C589.411 187.77 589.577 187.71 589.792 187.71C590.007 187.71 590.173 187.77 590.29 187.891C590.407 188.011 590.466 188.162 590.466 188.345C590.466 188.524 590.407 188.674 590.29 188.794C590.173 188.911 590.007 188.97 589.792 188.97C589.577 188.97 589.411 188.911 589.294 188.794C589.18 188.674 589.123 188.524 589.123 188.345ZM594.641 193.564C594.641 193.353 594.553 193.192 594.377 193.081C594.204 192.97 593.916 192.873 593.513 192.788C593.109 192.703 592.772 192.596 592.502 192.466C591.91 192.179 591.613 191.764 591.613 191.221C591.613 190.765 591.805 190.384 592.189 190.078C592.574 189.772 593.062 189.619 593.654 189.619C594.286 189.619 594.795 189.775 595.183 190.088C595.573 190.4 595.769 190.806 595.769 191.304H594.582C594.582 191.076 594.497 190.887 594.328 190.737C594.159 190.584 593.934 190.508 593.654 190.508C593.394 190.508 593.181 190.568 593.015 190.688C592.852 190.809 592.771 190.97 592.771 191.172C592.771 191.354 592.847 191.496 593 191.597C593.153 191.698 593.462 191.8 593.928 191.904C594.393 192.005 594.758 192.127 595.021 192.271C595.288 192.41 595.485 192.58 595.612 192.778C595.743 192.977 595.808 193.218 595.808 193.501C595.808 193.976 595.611 194.362 595.217 194.658C594.823 194.951 594.307 195.098 593.669 195.098C593.236 195.098 592.85 195.02 592.512 194.863C592.173 194.707 591.91 194.492 591.721 194.219C591.532 193.945 591.438 193.651 591.438 193.335H592.59C592.606 193.615 592.712 193.831 592.907 193.984C593.103 194.134 593.361 194.209 593.684 194.209C593.996 194.209 594.234 194.15 594.396 194.033C594.559 193.913 594.641 193.757 594.641 193.564Z" fill="#E05959"/>
<path d="M31.3008 138.703L27.7168 137.629V136.364L33.8008 138.464C34.6895 138.786 35.1338 139.333 35.1338 140.104C35.1338 140.277 35.1045 140.467 35.0459 140.676H34.1279L34.1426 140.451C34.1426 140.152 34.0872 139.927 33.9766 139.777C33.8691 139.624 33.6868 139.504 33.4297 139.416L32.9756 139.245L27.7168 141.101V139.821L31.3008 138.703ZM30.4561 133.376V135.939H29.499V133.376H30.4561ZM33 129.24C32.8991 129.292 32.7347 129.338 32.5068 129.377C32.9007 129.755 33.0977 130.217 33.0977 130.764C33.0977 131.294 32.9463 131.727 32.6436 132.062C32.3408 132.398 31.9665 132.565 31.5205 132.565C30.9574 132.565 30.526 132.357 30.2266 131.94C29.9238 131.521 29.7725 130.922 29.7725 130.144V129.416H29.4258C29.1523 129.416 28.9342 129.493 28.7715 129.646C28.6055 129.799 28.5225 130.031 28.5225 130.344C28.5225 130.614 28.5908 130.835 28.7275 131.008C28.861 131.18 29.0319 131.267 29.2402 131.267V132.453C28.9505 132.453 28.6803 132.357 28.4297 132.165C28.1758 131.973 27.9772 131.713 27.834 131.384C27.6908 131.052 27.6191 130.682 27.6191 130.275C27.6191 129.657 27.7754 129.164 28.0879 128.796C28.3971 128.428 28.8333 128.239 29.3965 128.229H31.7793C32.2546 128.229 32.6338 128.163 32.917 128.029H33V129.24ZM32.1455 130.544C32.1455 130.31 32.0885 130.09 31.9746 129.885C31.8607 129.676 31.7077 129.52 31.5156 129.416H30.5195V130.056C30.5195 130.495 30.596 130.826 30.749 131.047C30.902 131.268 31.1185 131.379 31.3984 131.379C31.6263 131.379 31.8086 131.304 31.9453 131.154C32.0788 131.001 32.1455 130.798 32.1455 130.544ZM29.4551 125.09L27.7168 124.084V122.766L30.3193 124.382L33 122.712V124.021L31.1934 125.075L33 126.125V127.443L30.3193 125.773L27.7168 127.385V126.076L29.4551 125.09ZM33 120.695V121.882H27.7168V120.695H33ZM26.3447 121.955C26.1624 121.955 26.0111 121.898 25.8906 121.784C25.7702 121.667 25.71 121.501 25.71 121.286C25.71 121.071 25.7702 120.905 25.8906 120.788C26.0111 120.671 26.1624 120.612 26.3447 120.612C26.5238 120.612 26.6735 120.671 26.7939 120.788C26.9111 120.905 26.9697 121.071 26.9697 121.286C26.9697 121.501 26.9111 121.667 26.7939 121.784C26.6735 121.898 26.5238 121.955 26.3447 121.955ZM31.5645 116.438C31.3529 116.438 31.1917 116.525 31.0811 116.701C30.9704 116.874 30.8727 117.162 30.7881 117.565C30.7035 117.969 30.596 118.306 30.4658 118.576C30.1794 119.169 29.7643 119.465 29.2207 119.465C28.765 119.465 28.3841 119.273 28.0781 118.889C27.7721 118.505 27.6191 118.016 27.6191 117.424C27.6191 116.792 27.7754 116.283 28.0879 115.896C28.4004 115.505 28.8057 115.31 29.3037 115.31V116.496C29.0758 116.496 28.887 116.581 28.7373 116.75C28.5843 116.919 28.5078 117.144 28.5078 117.424C28.5078 117.684 28.568 117.897 28.6885 118.063C28.8089 118.226 28.9701 118.308 29.1719 118.308C29.3542 118.308 29.4958 118.231 29.5967 118.078C29.6976 117.925 29.8001 117.616 29.9043 117.15C30.0052 116.685 30.1273 116.32 30.2705 116.057C30.4105 115.79 30.5798 115.593 30.7783 115.466C30.9769 115.336 31.2178 115.271 31.501 115.271C31.9762 115.271 32.362 115.467 32.6582 115.861C32.9512 116.255 33.0977 116.771 33.0977 117.409C33.0977 117.842 33.0195 118.228 32.8633 118.566C32.707 118.905 32.4922 119.169 32.2188 119.357C31.9453 119.546 31.6507 119.641 31.335 119.641V118.488C31.6149 118.472 31.8314 118.366 31.9844 118.171C32.1341 117.976 32.209 117.717 32.209 117.395C32.209 117.082 32.1504 116.844 32.0332 116.682C31.9128 116.519 31.7565 116.438 31.5645 116.438Z" fill="#31CB8A"/>
<path d="M268.301 138.703L264.717 137.629V136.364L270.801 138.464C271.689 138.786 272.134 139.333 272.134 140.104C272.134 140.277 272.104 140.467 272.046 140.676H271.128L271.143 140.451C271.143 140.152 271.087 139.927 270.977 139.777C270.869 139.624 270.687 139.504 270.43 139.416L269.976 139.245L264.717 141.101V139.821L268.301 138.703ZM267.456 133.376V135.939H266.499V133.376H267.456ZM270 129.24C269.899 129.292 269.735 129.338 269.507 129.377C269.901 129.755 270.098 130.217 270.098 130.764C270.098 131.294 269.946 131.727 269.644 132.062C269.341 132.398 268.966 132.565 268.521 132.565C267.957 132.565 267.526 132.357 267.227 131.94C266.924 131.521 266.772 130.922 266.772 130.144V129.416H266.426C266.152 129.416 265.934 129.493 265.771 129.646C265.605 129.799 265.522 130.031 265.522 130.344C265.522 130.614 265.591 130.835 265.728 131.008C265.861 131.18 266.032 131.267 266.24 131.267V132.453C265.951 132.453 265.68 132.357 265.43 132.165C265.176 131.973 264.977 131.713 264.834 131.384C264.691 131.052 264.619 130.682 264.619 130.275C264.619 129.657 264.775 129.164 265.088 128.796C265.397 128.428 265.833 128.239 266.396 128.229H268.779C269.255 128.229 269.634 128.163 269.917 128.029H270V129.24ZM269.146 130.544C269.146 130.31 269.089 130.09 268.975 129.885C268.861 129.676 268.708 129.52 268.516 129.416H267.52V130.056C267.52 130.495 267.596 130.826 267.749 131.047C267.902 131.268 268.118 131.379 268.398 131.379C268.626 131.379 268.809 131.304 268.945 131.154C269.079 131.001 269.146 130.798 269.146 130.544ZM266.455 125.09L264.717 124.084V122.766L267.319 124.382L270 122.712V124.021L268.193 125.075L270 126.125V127.443L267.319 125.773L264.717 127.385V126.076L266.455 125.09ZM270 120.695V121.882H264.717V120.695H270ZM263.345 121.955C263.162 121.955 263.011 121.898 262.891 121.784C262.77 121.667 262.71 121.501 262.71 121.286C262.71 121.071 262.77 120.905 262.891 120.788C263.011 120.671 263.162 120.612 263.345 120.612C263.524 120.612 263.674 120.671 263.794 120.788C263.911 120.905 263.97 121.071 263.97 121.286C263.97 121.501 263.911 121.667 263.794 121.784C263.674 121.898 263.524 121.955 263.345 121.955ZM268.564 116.438C268.353 116.438 268.192 116.525 268.081 116.701C267.97 116.874 267.873 117.162 267.788 117.565C267.703 117.969 267.596 118.306 267.466 118.576C267.179 119.169 266.764 119.465 266.221 119.465C265.765 119.465 265.384 119.273 265.078 118.889C264.772 118.505 264.619 118.016 264.619 117.424C264.619 116.792 264.775 116.283 265.088 115.896C265.4 115.505 265.806 115.31 266.304 115.31V116.496C266.076 116.496 265.887 116.581 265.737 116.75C265.584 116.919 265.508 117.144 265.508 117.424C265.508 117.684 265.568 117.897 265.688 118.063C265.809 118.226 265.97 118.308 266.172 118.308C266.354 118.308 266.496 118.231 266.597 118.078C266.698 117.925 266.8 117.616 266.904 117.15C267.005 116.685 267.127 116.32 267.271 116.057C267.41 115.79 267.58 115.593 267.778 115.466C267.977 115.336 268.218 115.271 268.501 115.271C268.976 115.271 269.362 115.467 269.658 115.861C269.951 116.255 270.098 116.771 270.098 117.409C270.098 117.842 270.02 118.228 269.863 118.566C269.707 118.905 269.492 119.169 269.219 119.357C268.945 119.546 268.651 119.641 268.335 119.641V118.488C268.615 118.472 268.831 118.366 268.984 118.171C269.134 117.976 269.209 117.717 269.209 117.395C269.209 117.082 269.15 116.844 269.033 116.682C268.913 116.519 268.757 116.438 268.564 116.438Z" fill="#30394B"/>
<path d="M495.301 138.703L491.717 137.629V136.364L497.801 138.464C498.689 138.786 499.134 139.333 499.134 140.104C499.134 140.277 499.104 140.467 499.046 140.676H498.128L498.143 140.451C498.143 140.152 498.087 139.927 497.977 139.777C497.869 139.624 497.687 139.504 497.43 139.416L496.976 139.245L491.717 141.101V139.821L495.301 138.703ZM494.456 133.376V135.939H493.499V133.376H494.456ZM497 129.24C496.899 129.292 496.735 129.338 496.507 129.377C496.901 129.755 497.098 130.217 497.098 130.764C497.098 131.294 496.946 131.727 496.644 132.062C496.341 132.398 495.966 132.565 495.521 132.565C494.957 132.565 494.526 132.357 494.227 131.94C493.924 131.521 493.772 130.922 493.772 130.144V129.416H493.426C493.152 129.416 492.934 129.493 492.771 129.646C492.605 129.799 492.522 130.031 492.522 130.344C492.522 130.614 492.591 130.835 492.728 131.008C492.861 131.18 493.032 131.267 493.24 131.267V132.453C492.951 132.453 492.68 132.357 492.43 132.165C492.176 131.973 491.977 131.713 491.834 131.384C491.691 131.052 491.619 130.682 491.619 130.275C491.619 129.657 491.775 129.164 492.088 128.796C492.397 128.428 492.833 128.239 493.396 128.229H495.779C496.255 128.229 496.634 128.163 496.917 128.029H497V129.24ZM496.146 130.544C496.146 130.31 496.089 130.09 495.975 129.885C495.861 129.676 495.708 129.52 495.516 129.416H494.52V130.056C494.52 130.495 494.596 130.826 494.749 131.047C494.902 131.268 495.118 131.379 495.398 131.379C495.626 131.379 495.809 131.304 495.945 131.154C496.079 131.001 496.146 130.798 496.146 130.544ZM493.455 125.09L491.717 124.084V122.766L494.319 124.382L497 122.712V124.021L495.193 125.075L497 126.125V127.443L494.319 125.773L491.717 127.385V126.076L493.455 125.09ZM497 120.695V121.882H491.717V120.695H497ZM490.345 121.955C490.162 121.955 490.011 121.898 489.891 121.784C489.77 121.667 489.71 121.501 489.71 121.286C489.71 121.071 489.77 120.905 489.891 120.788C490.011 120.671 490.162 120.612 490.345 120.612C490.524 120.612 490.674 120.671 490.794 120.788C490.911 120.905 490.97 121.071 490.97 121.286C490.97 121.501 490.911 121.667 490.794 121.784C490.674 121.898 490.524 121.955 490.345 121.955ZM495.564 116.438C495.353 116.438 495.192 116.525 495.081 116.701C494.97 116.874 494.873 117.162 494.788 117.565C494.703 117.969 494.596 118.306 494.466 118.576C494.179 119.169 493.764 119.465 493.221 119.465C492.765 119.465 492.384 119.273 492.078 118.889C491.772 118.505 491.619 118.016 491.619 117.424C491.619 116.792 491.775 116.283 492.088 115.896C492.4 115.505 492.806 115.31 493.304 115.31V116.496C493.076 116.496 492.887 116.581 492.737 116.75C492.584 116.919 492.508 117.144 492.508 117.424C492.508 117.684 492.568 117.897 492.688 118.063C492.809 118.226 492.97 118.308 493.172 118.308C493.354 118.308 493.496 118.231 493.597 118.078C493.698 117.925 493.8 117.616 493.904 117.15C494.005 116.685 494.127 116.32 494.271 116.057C494.41 115.79 494.58 115.593 494.778 115.466C494.977 115.336 495.218 115.271 495.501 115.271C495.976 115.271 496.362 115.467 496.658 115.861C496.951 116.255 497.098 116.771 497.098 117.409C497.098 117.842 497.02 118.228 496.863 118.566C496.707 118.905 496.492 119.169 496.219 119.357C495.945 119.546 495.651 119.641 495.335 119.641V118.488C495.615 118.472 495.831 118.366 495.984 118.171C496.134 117.976 496.209 117.717 496.209 117.395C496.209 117.082 496.15 116.844 496.033 116.682C495.913 116.519 495.757 116.438 495.564 116.438Z" fill="#E05959"/>
<path d="M194.53 178.53C194.823 178.237 194.823 177.763 194.53 177.47L189.757 172.697C189.464 172.404 188.99 172.404 188.697 172.697C188.404 172.99 188.404 173.464 188.697 173.757L192.939 178L188.697 182.243C188.404 182.536 188.404 183.01 188.697 183.303C188.99 183.596 189.464 183.596 189.757 183.303L194.53 178.53ZM44 178.75H194V177.25H44V178.75Z" fill="#31CB8A"/>
<path d="M431.53 178.53C431.823 178.237 431.823 177.763 431.53 177.47L426.757 172.697C426.464 172.404 425.99 172.404 425.697 172.697C425.404 172.99 425.404 173.464 425.697 173.757L429.939 178L425.697 182.243C425.404 182.536 425.404 183.01 425.697 183.303C425.99 183.596 426.464 183.596 426.757 183.303L431.53 178.53ZM281 178.75H431V177.25H281V178.75Z" fill="#30394B"/>
<path d="M658.53 178.53C658.823 178.237 658.823 177.763 658.53 177.47L653.757 172.697C653.464 172.404 652.99 172.404 652.697 172.697C652.404 172.99 652.404 173.464 652.697 173.757L656.939 178L652.697 182.243C652.404 182.536 652.404 183.01 652.697 183.303C652.99 183.596 653.464 183.596 653.757 183.303L658.53 178.53ZM508 178.75H658V177.25H508V178.75Z" fill="#E05959"/>
<path d="M44.5303 77.4697C44.2374 77.1768 43.7626 77.1768 43.4697 77.4697L38.6967 82.2426C38.4038 82.5355 38.4038 83.0104 38.6967 83.3033C38.9896 83.5962 39.4645 83.5962 39.7574 83.3033L44 79.0607L48.2426 83.3033C48.5355 83.5962 49.0104 83.5962 49.3033 83.3033C49.5962 83.0104 49.5962 82.5355 49.3033 82.2426L44.5303 77.4697ZM44.75 179L44.75 78L43.25 78L43.25 179L44.75 179Z" fill="#31CB8A"/>
<path d="M281.53 77.4697C281.237 77.1768 280.763 77.1768 280.47 77.4697L275.697 82.2426C275.404 82.5355 275.404 83.0104 275.697 83.3033C275.99 83.5962 276.464 83.5962 276.757 83.3033L281 79.0607L285.243 83.3033C285.536 83.5962 286.01 83.5962 286.303 83.3033C286.596 83.0104 286.596 82.5355 286.303 82.2426L281.53 77.4697ZM281.75 179L281.75 78L280.25 78L280.25 179L281.75 179Z" fill="#30394B"/>
<path d="M508.53 77.4697C508.237 77.1768 507.763 77.1768 507.47 77.4697L502.697 82.2426C502.404 82.5355 502.404 83.0104 502.697 83.3033C502.99 83.5962 503.464 83.5962 503.757 83.3033L508 79.0607L512.243 83.3033C512.536 83.5962 513.01 83.5962 513.303 83.3033C513.596 83.0104 513.596 82.5355 513.303 82.2426L508.53 77.4697ZM508.75 179L508.75 78L507.25 78L507.25 179L508.75 179Z" fill="#E05959"/>
<circle cx="68.5" cy="164.5" r="2.5" fill="#C4C4C4"/>
<circle r="2.5" transform="matrix(-1 0 0 1 630.5 161.5)" fill="#C4C4C4"/>
<circle cx="88.5" cy="151.5" r="2.5" fill="#C4C4C4"/>
<circle r="2.5" transform="matrix(-1 0 0 1 610.5 148.5)" fill="#C4C4C4"/>
<circle cx="108.5" cy="139.5" r="2.5" fill="#C4C4C4"/>
<circle r="2.5" transform="matrix(-1 0 0 1 590.5 136.5)" fill="#C4C4C4"/>
<circle cx="128.5" cy="126.5" r="2.5" fill="#C4C4C4"/>
<circle r="2.5" transform="matrix(-1 0 0 1 570.5 123.5)" fill="#C4C4C4"/>
<circle r="2.5" transform="matrix(-1 0 0 1 335.5 123.5)" fill="#C4C4C4"/>
<circle r="2.5" transform="matrix(-1 0 0 1 348.5 134.5)" fill="#C4C4C4"/>
<circle r="2.5" transform="matrix(-1 0 0 1 358.5 129.5)" fill="#C4C4C4"/>
<circle r="2.5" transform="matrix(-1 0 0 1 355.5 108.5)" fill="#C4C4C4"/>
<circle r="2.5" transform="matrix(-1 0 0 1 330.5 108.5)" fill="#C4C4C4"/>
<circle r="2.5" transform="matrix(-1 0 0 1 348.5 118.5)" fill="#C4C4C4"/>
<circle r="2.5" transform="matrix(-1 0 0 1 369.5 118.5)" fill="#C4C4C4"/>
<circle cx="148.5" cy="113.5" r="2.5" fill="#C4C4C4"/>
<circle r="2.5" transform="matrix(-1 0 0 1 550.5 110.5)" fill="#C4C4C4"/>
<circle cx="168.5" cy="99.5" r="2.5" fill="#C4C4C4"/>
<circle r="2.5" transform="matrix(-1 0 0 1 530.5 96.5)" fill="#C4C4C4"/>
<g style="mix-blend-mode:multiply">
<path d="M165.64 96.7354L50.4834 166.208C50.1834 166.389 50 166.714 50 167.065V171C50 171.552 50.4477 172 51 172H74.1796C74.388 172 74.5911 171.935 74.7607 171.814L171.622 102.656C172.034 102.363 172.6 102.422 172.941 102.795L176.4 106.576C176.998 107.228 178.086 106.841 178.137 105.958L178.939 92.0576C178.972 91.4836 178.516 91 177.941 91H164.581C163.742 91 163.276 91.97 163.8 92.6247L165.904 95.2544C166.282 95.7265 166.157 96.4231 165.64 96.7354Z" fill="url(#paint0_linear)"/>
</g>
<g style="mix-blend-mode:multiply">
<path d="M629.64 166.265L514.483 96.7916C514.183 96.6106 514 96.2858 514 95.9354V92C514 91.4477 514.448 91 515 91H538.18C538.388 91 538.591 91.0651 538.761 91.1861L635.622 160.344C636.034 160.637 636.6 160.578 636.941 160.205L640.4 156.424C640.998 155.772 642.086 156.159 642.137 157.042L642.939 170.942C642.972 171.516 642.516 172 641.941 172H628.581C627.742 172 627.276 171.03 627.8 170.375L629.904 167.746C630.282 167.274 630.157 166.577 629.64 166.265Z" fill="url(#paint1_linear)"/>
</g>
<g filter="url(#filter0_d)">
<rect x="6" y="17" width="218" height="32" rx="16" fill="white"/>
</g>
<g filter="url(#filter1_d)">
<rect x="256" y="17" width="193" height="32" rx="16" fill="white"/>
</g>
<g filter="url(#filter2_d)">
<rect x="474" y="17" width="224" height="32" rx="16" fill="white"/>
</g>
<rect x="10" y="20" width="26" height="26" rx="13" fill="#31CB8A"/>
<rect x="260" y="20" width="26" height="26" rx="13" fill="#30394B"/>
<rect x="478" y="20" width="26" height="26" rx="13" fill="#E05959"/>
<path d="M44.232 36V26.844H47.242C47.746 26.844 48.208 26.8907 48.628 26.984C49.0573 27.0773 49.426 27.236 49.734 27.46C50.042 27.684 50.2847 27.978 50.462 28.342C50.6393 28.6967 50.728 29.14 50.728 29.672C50.728 30.176 50.6393 30.6147 50.462 30.988C50.2847 31.3613 50.0373 31.674 49.72 31.926C49.412 32.1687 49.0433 32.3507 48.614 32.472C48.194 32.584 47.7367 32.64 47.242 32.64H45.856V36H44.232ZM45.856 31.338H47.116C48.46 31.338 49.132 30.7827 49.132 29.672C49.132 29.0933 48.964 28.6967 48.628 28.482C48.292 28.258 47.788 28.146 47.116 28.146H45.856V31.338ZM55.5945 36.168C55.1465 36.168 54.7125 36.0887 54.2925 35.93C53.8725 35.7713 53.5039 35.538 53.1865 35.23C52.8692 34.922 52.6125 34.544 52.4165 34.096C52.2299 33.648 52.1365 33.1393 52.1365 32.57C52.1365 32.0007 52.2299 31.492 52.4165 31.044C52.6125 30.596 52.8692 30.218 53.1865 29.91C53.5039 29.602 53.8725 29.3687 54.2925 29.21C54.7125 29.042 55.1465 28.958 55.5945 28.958C56.0425 28.958 56.4765 29.042 56.8965 29.21C57.3165 29.3687 57.6852 29.602 58.0025 29.91C58.3199 30.218 58.5719 30.596 58.7585 31.044C58.9545 31.492 59.0525 32.0007 59.0525 32.57C59.0525 33.1393 58.9545 33.648 58.7585 34.096C58.5719 34.544 58.3199 34.922 58.0025 35.23C57.6852 35.538 57.3165 35.7713 56.8965 35.93C56.4765 36.0887 56.0425 36.168 55.5945 36.168ZM55.5945 34.852C56.1545 34.852 56.5932 34.6467 56.9105 34.236C57.2279 33.816 57.3865 33.2607 57.3865 32.57C57.3865 31.87 57.2279 31.3147 56.9105 30.904C56.5932 30.484 56.1545 30.274 55.5945 30.274C55.0345 30.274 54.5959 30.484 54.2785 30.904C53.9612 31.3147 53.8025 31.87 53.8025 32.57C53.8025 33.2607 53.9612 33.816 54.2785 34.236C54.5959 34.6467 55.0345 34.852 55.5945 34.852ZM64.0311 36.168C63.3871 36.168 62.7711 36.0653 62.1831 35.86C61.5951 35.6453 61.0864 35.3933 60.6571 35.104L61.3571 34.082C61.7771 34.3527 62.2204 34.5673 62.6871 34.726C63.1631 34.8753 63.6811 34.95 64.2411 34.95C64.7171 34.95 65.0671 34.8707 65.2911 34.712C65.5244 34.5533 65.6411 34.3573 65.6411 34.124C65.6411 34.012 65.6177 33.914 65.5711 33.83C65.5244 33.7367 65.4311 33.648 65.2911 33.564C65.1511 33.48 64.9551 33.4007 64.7031 33.326C64.4604 33.2513 64.1384 33.172 63.7371 33.088C62.8131 32.9013 62.1364 32.64 61.7071 32.304C61.2871 31.968 61.0771 31.5387 61.0771 31.016C61.0771 30.4093 61.3384 29.9147 61.8611 29.532C62.3837 29.1493 63.1304 28.958 64.1011 28.958C64.6704 28.958 65.2024 29.0513 65.6971 29.238C66.1917 29.4247 66.6164 29.6347 66.9711 29.868L66.2291 30.862C65.8931 30.6473 65.5337 30.4793 65.1511 30.358C64.7684 30.2367 64.3717 30.176 63.9611 30.176C63.5037 30.176 63.1771 30.2507 62.9811 30.4C62.7851 30.54 62.6871 30.7173 62.6871 30.932C62.6871 31.1747 62.8271 31.3567 63.1071 31.478C63.3871 31.5993 63.8444 31.73 64.4791 31.87C65.0297 31.9913 65.4824 32.122 65.8371 32.262C66.1917 32.402 66.4717 32.5607 66.6771 32.738C66.8917 32.906 67.0411 33.0973 67.1251 33.312C67.2091 33.5267 67.2511 33.7693 67.2511 34.04C67.2511 34.3387 67.1811 34.6187 67.0411 34.88C66.9011 35.132 66.6957 35.356 66.4251 35.552C66.1544 35.7387 65.8184 35.888 65.4171 36C65.0157 36.112 64.5537 36.168 64.0311 36.168ZM72.3416 36V30.4H69.3596V29.126H73.9516V36H72.3416ZM73.0416 27.866C72.7149 27.866 72.4396 27.768 72.2156 27.572C72.0009 27.376 71.8936 27.1147 71.8936 26.788C71.8936 26.4613 72.0009 26.2 72.2156 26.004C72.4396 25.7987 72.7149 25.696 73.0416 25.696C73.3683 25.696 73.6389 25.7987 73.8536 26.004C74.0776 26.2 74.1896 26.4613 74.1896 26.788C74.1896 27.1147 74.0776 27.376 73.8536 27.572C73.6389 27.768 73.3683 27.866 73.0416 27.866ZM82.0521 36.168C81.5295 36.168 81.0861 36.098 80.7221 35.958C80.3675 35.818 80.0781 35.622 79.8541 35.37C79.6395 35.1087 79.4808 34.796 79.3781 34.432C79.2848 34.068 79.2381 33.6667 79.2381 33.228V30.4H77.4041V29.196L79.3081 29.126L79.5181 26.97H80.8481V29.126H83.9841V30.4H80.8481V33.228C80.8481 33.7973 80.9648 34.2173 81.1981 34.488C81.4408 34.7493 81.8561 34.88 82.4441 34.88C82.7335 34.88 82.9995 34.8567 83.2421 34.81C83.4848 34.754 83.7181 34.684 83.9421 34.6L84.2501 35.776C83.9421 35.8787 83.6108 35.9673 83.2561 36.042C82.9015 36.126 82.5001 36.168 82.0521 36.168ZM89.1307 36V30.4H86.1487V29.126H90.7407V36H89.1307ZM89.8307 27.866C89.504 27.866 89.2287 27.768 89.0047 27.572C88.79 27.376 88.6827 27.1147 88.6827 26.788C88.6827 26.4613 88.79 26.2 89.0047 26.004C89.2287 25.7987 89.504 25.696 89.8307 25.696C90.1573 25.696 90.428 25.7987 90.6427 26.004C90.8667 26.2 90.9787 26.4613 90.9787 26.788C90.9787 27.1147 90.8667 27.376 90.6427 27.572C90.428 27.768 90.1573 27.866 89.8307 27.866ZM96.6852 36L93.9412 29.126H95.5652L96.8952 32.696C97.0259 33.0413 97.1425 33.3867 97.2452 33.732C97.3572 34.068 97.4692 34.4133 97.5812 34.768H97.6372C97.7492 34.4133 97.8565 34.068 97.9592 33.732C98.0712 33.3867 98.1925 33.0413 98.3232 32.696L99.6532 29.126H101.193L98.5192 36H96.6852ZM106.382 36.168C105.859 36.168 105.369 36.0887 104.912 35.93C104.454 35.762 104.053 35.524 103.708 35.216C103.372 34.908 103.106 34.53 102.91 34.082C102.714 33.634 102.616 33.1253 102.616 32.556C102.616 31.996 102.714 31.4967 102.91 31.058C103.106 30.61 103.367 30.232 103.694 29.924C104.03 29.6067 104.408 29.3687 104.828 29.21C105.257 29.042 105.705 28.958 106.172 28.958C106.685 28.958 107.138 29.042 107.53 29.21C107.922 29.3687 108.253 29.5927 108.524 29.882C108.794 30.162 109 30.5027 109.14 30.904C109.28 31.3053 109.35 31.744 109.35 32.22C109.35 32.3787 109.34 32.5327 109.322 32.682C109.312 32.822 109.298 32.9387 109.28 33.032H104.226C104.319 33.676 104.576 34.152 104.996 34.46C105.416 34.768 105.948 34.922 106.592 34.922C106.956 34.922 107.292 34.8707 107.6 34.768C107.908 34.6653 108.216 34.5253 108.524 34.348L109.07 35.356C108.706 35.5987 108.29 35.7947 107.824 35.944C107.366 36.0933 106.886 36.168 106.382 36.168ZM106.214 30.204C105.738 30.204 105.318 30.344 104.954 30.624C104.599 30.904 104.37 31.324 104.268 31.884H107.922C107.866 31.324 107.688 30.904 107.39 30.624C107.1 30.344 106.708 30.204 106.214 30.204ZM123.367 36.168C122.825 36.168 122.321 36.0887 121.855 35.93C121.397 35.7713 120.996 35.538 120.651 35.23C120.315 34.922 120.049 34.544 119.853 34.096C119.666 33.648 119.573 33.1393 119.573 32.57C119.573 32.0007 119.675 31.492 119.881 31.044C120.095 30.596 120.38 30.218 120.735 29.91C121.089 29.602 121.505 29.3687 121.981 29.21C122.457 29.042 122.956 28.958 123.479 28.958C124.039 28.958 124.529 29.0513 124.949 29.238C125.378 29.4247 125.737 29.6533 126.027 29.924L125.257 30.932C124.986 30.7173 124.711 30.554 124.431 30.442C124.16 30.33 123.871 30.274 123.563 30.274C122.872 30.274 122.312 30.484 121.883 30.904C121.453 31.3147 121.239 31.87 121.239 32.57C121.239 32.9153 121.295 33.228 121.407 33.508C121.519 33.788 121.673 34.0307 121.869 34.236C122.074 34.432 122.317 34.586 122.597 34.698C122.877 34.8007 123.185 34.852 123.521 34.852C123.913 34.852 124.267 34.7773 124.585 34.628C124.911 34.4787 125.21 34.3013 125.481 34.096L126.153 35.132C125.751 35.4773 125.308 35.7387 124.823 35.916C124.347 36.084 123.861 36.168 123.367 36.168ZM131.145 36.168C130.697 36.168 130.263 36.0887 129.843 35.93C129.423 35.7713 129.055 35.538 128.737 35.23C128.42 34.922 128.163 34.544 127.967 34.096C127.781 33.648 127.687 33.1393 127.687 32.57C127.687 32.0007 127.781 31.492 127.967 31.044C128.163 30.596 128.42 30.218 128.737 29.91C129.055 29.602 129.423 29.3687 129.843 29.21C130.263 29.042 130.697 28.958 131.145 28.958C131.593 28.958 132.027 29.042 132.447 29.21C132.867 29.3687 133.236 29.602 133.553 29.91C133.871 30.218 134.123 30.596 134.309 31.044C134.505 31.492 134.603 32.0007 134.603 32.57C134.603 33.1393 134.505 33.648 134.309 34.096C134.123 34.544 133.871 34.922 133.553 35.23C133.236 35.538 132.867 35.7713 132.447 35.93C132.027 36.0887 131.593 36.168 131.145 36.168ZM131.145 34.852C131.705 34.852 132.144 34.6467 132.461 34.236C132.779 33.816 132.937 33.2607 132.937 32.57C132.937 31.87 132.779 31.3147 132.461 30.904C132.144 30.484 131.705 30.274 131.145 30.274C130.585 30.274 130.147 30.484 129.829 30.904C129.512 31.3147 129.353 31.87 129.353 32.57C129.353 33.2607 129.512 33.816 129.829 34.236C130.147 34.6467 130.585 34.852 131.145 34.852ZM137.16 36V29.126H138.49L138.63 30.68H138.672C139.027 30.12 139.451 29.6953 139.946 29.406C140.45 29.1073 141.001 28.958 141.598 28.958C141.878 28.958 142.116 28.9813 142.312 29.028C142.517 29.0653 142.723 29.1353 142.928 29.238L142.592 30.596C142.368 30.5213 142.167 30.47 141.99 30.442C141.822 30.4047 141.607 30.386 141.346 30.386C140.87 30.386 140.413 30.5213 139.974 30.792C139.535 31.0627 139.139 31.534 138.784 32.206V36H137.16ZM145.554 36V29.126H146.884L147.024 30.68H147.066C147.421 30.12 147.846 29.6953 148.34 29.406C148.844 29.1073 149.395 28.958 149.992 28.958C150.272 28.958 150.51 28.9813 150.706 29.028C150.912 29.0653 151.117 29.1353 151.322 29.238L150.986 30.596C150.762 30.5213 150.562 30.47 150.384 30.442C150.216 30.4047 150.002 30.386 149.74 30.386C149.264 30.386 148.807 30.5213 148.368 30.792C147.93 31.0627 147.533 31.534 147.178 32.206V36H145.554ZM156.749 36.168C156.226 36.168 155.736 36.0887 155.279 35.93C154.822 35.762 154.42 35.524 154.075 35.216C153.739 34.908 153.473 34.53 153.277 34.082C153.081 33.634 152.983 33.1253 152.983 32.556C152.983 31.996 153.081 31.4967 153.277 31.058C153.473 30.61 153.734 30.232 154.061 29.924C154.397 29.6067 154.775 29.3687 155.195 29.21C155.624 29.042 156.072 28.958 156.539 28.958C157.052 28.958 157.505 29.042 157.897 29.21C158.289 29.3687 158.62 29.5927 158.891 29.882C159.162 30.162 159.367 30.5027 159.507 30.904C159.647 31.3053 159.717 31.744 159.717 32.22C159.717 32.3787 159.708 32.5327 159.689 32.682C159.68 32.822 159.666 32.9387 159.647 33.032H154.593C154.686 33.676 154.943 34.152 155.363 34.46C155.783 34.768 156.315 34.922 156.959 34.922C157.323 34.922 157.659 34.8707 157.967 34.768C158.275 34.6653 158.583 34.5253 158.891 34.348L159.437 35.356C159.073 35.5987 158.658 35.7947 158.191 35.944C157.734 36.0933 157.253 36.168 156.749 36.168ZM156.581 30.204C156.105 30.204 155.685 30.344 155.321 30.624C154.966 30.904 154.738 31.324 154.635 31.884H158.289C158.233 31.324 158.056 30.904 157.757 30.624C157.468 30.344 157.076 30.204 156.581 30.204ZM166.137 36.168C165.335 36.168 164.723 35.9347 164.303 35.468C163.893 35.0013 163.687 34.3433 163.687 33.494V27.39H161.391V26.116H165.297V33.578C165.297 34.0447 165.414 34.376 165.647 34.572C165.89 34.7587 166.184 34.852 166.529 34.852C166.893 34.852 167.285 34.7633 167.705 34.586L168.083 35.776C167.747 35.9067 167.439 36.0047 167.159 36.07C166.879 36.1353 166.539 36.168 166.137 36.168ZM172.208 36.168C171.872 36.168 171.564 36.1167 171.284 36.014C171.004 35.9207 170.761 35.7853 170.556 35.608C170.351 35.4307 170.192 35.2207 170.08 34.978C169.968 34.726 169.912 34.4507 169.912 34.152C169.912 33.7693 170.001 33.4333 170.178 33.144C170.355 32.8453 170.635 32.5933 171.018 32.388C171.401 32.1827 171.891 32.0147 172.488 31.884C173.085 31.7533 173.809 31.66 174.658 31.604C174.63 31.212 174.49 30.89 174.238 30.638C173.986 30.386 173.58 30.26 173.02 30.26C172.628 30.26 172.241 30.3347 171.858 30.484C171.485 30.624 171.121 30.792 170.766 30.988L170.178 29.91C170.598 29.6673 171.079 29.448 171.62 29.252C172.161 29.056 172.726 28.958 173.314 28.958C174.275 28.958 175.008 29.2147 175.512 29.728C176.016 30.232 176.268 30.9647 176.268 31.926V36H174.952L174.826 35.146H174.784C174.42 35.426 174.014 35.6687 173.566 35.874C173.127 36.07 172.675 36.168 172.208 36.168ZM172.698 34.908C173.043 34.908 173.375 34.8333 173.692 34.684C174.019 34.5253 174.341 34.32 174.658 34.068V32.612C174.042 32.6587 173.529 32.724 173.118 32.808C172.707 32.8827 172.381 32.9807 172.138 33.102C171.895 33.2233 171.723 33.3633 171.62 33.522C171.517 33.6713 171.466 33.8393 171.466 34.026C171.466 34.334 171.583 34.558 171.816 34.698C172.059 34.838 172.353 34.908 172.698 34.908ZM182.787 36.168C182.264 36.168 181.821 36.098 181.457 35.958C181.102 35.818 180.813 35.622 180.589 35.37C180.374 35.1087 180.215 34.796 180.113 34.432C180.019 34.068 179.973 33.6667 179.973 33.228V30.4H178.139V29.196L180.043 29.126L180.253 26.97H181.583V29.126H184.719V30.4H181.583V33.228C181.583 33.7973 181.699 34.2173 181.933 34.488C182.175 34.7493 182.591 34.88 183.179 34.88C183.468 34.88 183.734 34.8567 183.977 34.81C184.219 34.754 184.453 34.684 184.677 34.6L184.985 35.776C184.677 35.8787 184.345 35.9673 183.991 36.042C183.636 36.126 183.235 36.168 182.787 36.168ZM189.865 36V30.4H186.883V29.126H191.475V36H189.865ZM190.565 27.866C190.238 27.866 189.963 27.768 189.739 27.572C189.524 27.376 189.417 27.1147 189.417 26.788C189.417 26.4613 189.524 26.2 189.739 26.004C189.963 25.7987 190.238 25.696 190.565 25.696C190.892 25.696 191.162 25.7987 191.377 26.004C191.601 26.2 191.713 26.4613 191.713 26.788C191.713 27.1147 191.601 27.376 191.377 27.572C191.162 27.768 190.892 27.866 190.565 27.866ZM198.302 36.168C197.854 36.168 197.42 36.0887 197 35.93C196.58 35.7713 196.211 35.538 195.894 35.23C195.576 34.922 195.32 34.544 195.124 34.096C194.937 33.648 194.844 33.1393 194.844 32.57C194.844 32.0007 194.937 31.492 195.124 31.044C195.32 30.596 195.576 30.218 195.894 29.91C196.211 29.602 196.58 29.3687 197 29.21C197.42 29.042 197.854 28.958 198.302 28.958C198.75 28.958 199.184 29.042 199.604 29.21C200.024 29.3687 200.392 29.602 200.71 29.91C201.027 30.218 201.279 30.596 201.466 31.044C201.662 31.492 201.76 32.0007 201.76 32.57C201.76 33.1393 201.662 33.648 201.466 34.096C201.279 34.544 201.027 34.922 200.71 35.23C200.392 35.538 200.024 35.7713 199.604 35.93C199.184 36.0887 198.75 36.168 198.302 36.168ZM198.302 34.852C198.862 34.852 199.3 34.6467 199.618 34.236C199.935 33.816 200.094 33.2607 200.094 32.57C200.094 31.87 199.935 31.3147 199.618 30.904C199.3 30.484 198.862 30.274 198.302 30.274C197.742 30.274 197.303 30.484 196.986 30.904C196.668 31.3147 196.51 31.87 196.51 32.57C196.51 33.2607 196.668 33.816 196.986 34.236C197.303 34.6467 197.742 34.852 198.302 34.852ZM203.644 36V29.126H204.974L205.1 30.162H205.156C205.483 29.8353 205.842 29.5553 206.234 29.322C206.635 29.0793 207.102 28.958 207.634 28.958C208.427 28.958 209.011 29.2007 209.384 29.686C209.757 30.162 209.944 30.848 209.944 31.744V36H208.32V31.954C208.32 31.394 208.222 30.988 208.026 30.736C207.839 30.4747 207.508 30.344 207.032 30.344C206.696 30.344 206.397 30.4233 206.136 30.582C205.875 30.7407 205.585 30.9833 205.268 31.31V36H203.644Z" fill="#31CB8A"/>
<path d="M299.036 36V26.844H300.744L303.166 31.982L303.992 33.942H304.034C303.997 33.466 303.95 32.9573 303.894 32.416C303.838 31.8653 303.81 31.3333 303.81 30.82V26.844H305.364V36H303.656L301.234 30.848L300.408 28.902H300.366C300.403 29.3967 300.45 29.91 300.506 30.442C300.562 30.9647 300.59 31.4827 300.59 31.996V36H299.036ZM309.671 36.168C308.868 36.168 308.285 35.93 307.921 35.454C307.557 34.9687 307.375 34.278 307.375 33.382V29.126H308.985V33.172C308.985 33.732 309.078 34.1427 309.265 34.404C309.461 34.656 309.797 34.782 310.273 34.782C310.599 34.782 310.889 34.7073 311.141 34.558C311.402 34.4087 311.687 34.1427 311.995 33.76V29.126H313.605V36H312.289L312.163 34.908H312.107C311.78 35.2907 311.421 35.5987 311.029 35.832C310.637 36.056 310.184 36.168 309.671 36.168ZM320.403 36.168C319.6 36.168 318.989 35.9347 318.569 35.468C318.158 35.0013 317.953 34.3433 317.953 33.494V27.39H315.657V26.116H319.563V33.578C319.563 34.0447 319.68 34.376 319.913 34.572C320.156 34.7587 320.45 34.852 320.795 34.852C321.159 34.852 321.551 34.7633 321.971 34.586L322.349 35.776C322.013 35.9067 321.705 36.0047 321.425 36.07C321.145 36.1353 320.804 36.168 320.403 36.168ZM328.798 36.168C327.995 36.168 327.384 35.9347 326.964 35.468C326.553 35.0013 326.348 34.3433 326.348 33.494V27.39H324.052V26.116H327.958V33.578C327.958 34.0447 328.074 34.376 328.308 34.572C328.55 34.7587 328.844 34.852 329.19 34.852C329.554 34.852 329.946 34.7633 330.366 34.586L330.744 35.776C330.408 35.9067 330.1 36.0047 329.82 36.07C329.54 36.1353 329.199 36.168 328.798 36.168ZM344.789 36.168C344.247 36.168 343.743 36.0887 343.277 35.93C342.819 35.7713 342.418 35.538 342.073 35.23C341.737 34.922 341.471 34.544 341.275 34.096C341.088 33.648 340.995 33.1393 340.995 32.57C340.995 32.0007 341.097 31.492 341.303 31.044C341.517 30.596 341.802 30.218 342.157 29.91C342.511 29.602 342.927 29.3687 343.403 29.21C343.879 29.042 344.378 28.958 344.901 28.958C345.461 28.958 345.951 29.0513 346.371 29.238C346.8 29.4247 347.159 29.6533 347.449 29.924L346.679 30.932C346.408 30.7173 346.133 30.554 345.853 30.442C345.582 30.33 345.293 30.274 344.985 30.274C344.294 30.274 343.734 30.484 343.305 30.904C342.875 31.3147 342.661 31.87 342.661 32.57C342.661 32.9153 342.717 33.228 342.829 33.508C342.941 33.788 343.095 34.0307 343.291 34.236C343.496 34.432 343.739 34.586 344.019 34.698C344.299 34.8007 344.607 34.852 344.943 34.852C345.335 34.852 345.689 34.7773 346.007 34.628C346.333 34.4787 346.632 34.3013 346.903 34.096L347.575 35.132C347.173 35.4773 346.73 35.7387 346.245 35.916C345.769 36.084 345.283 36.168 344.789 36.168ZM352.567 36.168C352.119 36.168 351.685 36.0887 351.265 35.93C350.845 35.7713 350.477 35.538 350.159 35.23C349.842 34.922 349.585 34.544 349.389 34.096C349.203 33.648 349.109 33.1393 349.109 32.57C349.109 32.0007 349.203 31.492 349.389 31.044C349.585 30.596 349.842 30.218 350.159 29.91C350.477 29.602 350.845 29.3687 351.265 29.21C351.685 29.042 352.119 28.958 352.567 28.958C353.015 28.958 353.449 29.042 353.869 29.21C354.289 29.3687 354.658 29.602 354.975 29.91C355.293 30.218 355.545 30.596 355.731 31.044C355.927 31.492 356.025 32.0007 356.025 32.57C356.025 33.1393 355.927 33.648 355.731 34.096C355.545 34.544 355.293 34.922 354.975 35.23C354.658 35.538 354.289 35.7713 353.869 35.93C353.449 36.0887 353.015 36.168 352.567 36.168ZM352.567 34.852C353.127 34.852 353.566 34.6467 353.883 34.236C354.201 33.816 354.359 33.2607 354.359 32.57C354.359 31.87 354.201 31.3147 353.883 30.904C353.566 30.484 353.127 30.274 352.567 30.274C352.007 30.274 351.569 30.484 351.251 30.904C350.934 31.3147 350.775 31.87 350.775 32.57C350.775 33.2607 350.934 33.816 351.251 34.236C351.569 34.6467 352.007 34.852 352.567 34.852ZM358.582 36V29.126H359.912L360.052 30.68H360.094C360.448 30.12 360.873 29.6953 361.368 29.406C361.872 29.1073 362.422 28.958 363.02 28.958C363.3 28.958 363.538 28.9813 363.734 29.028C363.939 29.0653 364.144 29.1353 364.35 29.238L364.014 30.596C363.79 30.5213 363.589 30.47 363.412 30.442C363.244 30.4047 363.029 30.386 362.768 30.386C362.292 30.386 361.834 30.5213 361.396 30.792C360.957 31.0627 360.56 31.534 360.206 32.206V36H358.582ZM366.976 36V29.126H368.306L368.446 30.68H368.488C368.843 30.12 369.268 29.6953 369.762 29.406C370.266 29.1073 370.817 28.958 371.414 28.958C371.694 28.958 371.932 28.9813 372.128 29.028C372.334 29.0653 372.539 29.1353 372.744 29.238L372.408 30.596C372.184 30.5213 371.984 30.47 371.806 30.442C371.638 30.4047 371.424 30.386 371.162 30.386C370.686 30.386 370.229 30.5213 369.79 30.792C369.352 31.0627 368.955 31.534 368.6 32.206V36H366.976ZM378.171 36.168C377.648 36.168 377.158 36.0887 376.701 35.93C376.243 35.762 375.842 35.524 375.497 35.216C375.161 34.908 374.895 34.53 374.699 34.082C374.503 33.634 374.405 33.1253 374.405 32.556C374.405 31.996 374.503 31.4967 374.699 31.058C374.895 30.61 375.156 30.232 375.483 29.924C375.819 29.6067 376.197 29.3687 376.617 29.21C377.046 29.042 377.494 28.958 377.961 28.958C378.474 28.958 378.927 29.042 379.319 29.21C379.711 29.3687 380.042 29.5927 380.313 29.882C380.583 30.162 380.789 30.5027 380.929 30.904C381.069 31.3053 381.139 31.744 381.139 32.22C381.139 32.3787 381.129 32.5327 381.111 32.682C381.101 32.822 381.087 32.9387 381.069 33.032H376.015C376.108 33.676 376.365 34.152 376.785 34.46C377.205 34.768 377.737 34.922 378.381 34.922C378.745 34.922 379.081 34.8707 379.389 34.768C379.697 34.6653 380.005 34.5253 380.313 34.348L380.859 35.356C380.495 35.5987 380.079 35.7947 379.613 35.944C379.155 36.0933 378.675 36.168 378.171 36.168ZM378.003 30.204C377.527 30.204 377.107 30.344 376.743 30.624C376.388 30.904 376.159 31.324 376.057 31.884H379.711C379.655 31.324 379.477 30.904 379.179 30.624C378.889 30.344 378.497 30.204 378.003 30.204ZM387.559 36.168C386.757 36.168 386.145 35.9347 385.725 35.468C385.315 35.0013 385.109 34.3433 385.109 33.494V27.39H382.813V26.116H386.719V33.578C386.719 34.0447 386.836 34.376 387.069 34.572C387.312 34.7587 387.606 34.852 387.951 34.852C388.315 34.852 388.707 34.7633 389.127 34.586L389.505 35.776C389.169 35.9067 388.861 36.0047 388.581 36.07C388.301 36.1353 387.961 36.168 387.559 36.168ZM393.63 36.168C393.294 36.168 392.986 36.1167 392.706 36.014C392.426 35.9207 392.183 35.7853 391.978 35.608C391.773 35.4307 391.614 35.2207 391.502 34.978C391.39 34.726 391.334 34.4507 391.334 34.152C391.334 33.7693 391.423 33.4333 391.6 33.144C391.777 32.8453 392.057 32.5933 392.44 32.388C392.823 32.1827 393.313 32.0147 393.91 31.884C394.507 31.7533 395.231 31.66 396.08 31.604C396.052 31.212 395.912 30.89 395.66 30.638C395.408 30.386 395.002 30.26 394.442 30.26C394.05 30.26 393.663 30.3347 393.28 30.484C392.907 30.624 392.543 30.792 392.188 30.988L391.6 29.91C392.02 29.6673 392.501 29.448 393.042 29.252C393.583 29.056 394.148 28.958 394.736 28.958C395.697 28.958 396.43 29.2147 396.934 29.728C397.438 30.232 397.69 30.9647 397.69 31.926V36H396.374L396.248 35.146H396.206C395.842 35.426 395.436 35.6687 394.988 35.874C394.549 36.07 394.097 36.168 393.63 36.168ZM394.12 34.908C394.465 34.908 394.797 34.8333 395.114 34.684C395.441 34.5253 395.763 34.32 396.08 34.068V32.612C395.464 32.6587 394.951 32.724 394.54 32.808C394.129 32.8827 393.803 32.9807 393.56 33.102C393.317 33.2233 393.145 33.3633 393.042 33.522C392.939 33.6713 392.888 33.8393 392.888 34.026C392.888 34.334 393.005 34.558 393.238 34.698C393.481 34.838 393.775 34.908 394.12 34.908ZM404.208 36.168C403.686 36.168 403.242 36.098 402.878 35.958C402.524 35.818 402.234 35.622 402.01 35.37C401.796 35.1087 401.637 34.796 401.534 34.432C401.441 34.068 401.394 33.6667 401.394 33.228V30.4H399.56V29.196L401.464 29.126L401.674 26.97H403.004V29.126H406.14V30.4H403.004V33.228C403.004 33.7973 403.121 34.2173 403.354 34.488C403.597 34.7493 404.012 34.88 404.6 34.88C404.89 34.88 405.156 34.8567 405.398 34.81C405.641 34.754 405.874 34.684 406.098 34.6L406.406 35.776C406.098 35.8787 405.767 35.9673 405.412 36.042C405.058 36.126 404.656 36.168 404.208 36.168ZM411.287 36V30.4H408.305V29.126H412.897V36H411.287ZM411.987 27.866C411.66 27.866 411.385 27.768 411.161 27.572C410.946 27.376 410.839 27.1147 410.839 26.788C410.839 26.4613 410.946 26.2 411.161 26.004C411.385 25.7987 411.66 25.696 411.987 25.696C412.314 25.696 412.584 25.7987 412.799 26.004C413.023 26.2 413.135 26.4613 413.135 26.788C413.135 27.1147 413.023 27.376 412.799 27.572C412.584 27.768 412.314 27.866 411.987 27.866ZM419.723 36.168C419.275 36.168 418.841 36.0887 418.421 35.93C418.001 35.7713 417.633 35.538 417.315 35.23C416.998 34.922 416.741 34.544 416.545 34.096C416.359 33.648 416.265 33.1393 416.265 32.57C416.265 32.0007 416.359 31.492 416.545 31.044C416.741 30.596 416.998 30.218 417.315 29.91C417.633 29.602 418.001 29.3687 418.421 29.21C418.841 29.042 419.275 28.958 419.723 28.958C420.171 28.958 420.605 29.042 421.025 29.21C421.445 29.3687 421.814 29.602 422.131 29.91C422.449 30.218 422.701 30.596 422.887 31.044C423.083 31.492 423.181 32.0007 423.181 32.57C423.181 33.1393 423.083 33.648 422.887 34.096C422.701 34.544 422.449 34.922 422.131 35.23C421.814 35.538 421.445 35.7713 421.025 35.93C420.605 36.0887 420.171 36.168 419.723 36.168ZM419.723 34.852C420.283 34.852 420.722 34.6467 421.039 34.236C421.357 33.816 421.515 33.2607 421.515 32.57C421.515 31.87 421.357 31.3147 421.039 30.904C420.722 30.484 420.283 30.274 419.723 30.274C419.163 30.274 418.725 30.484 418.407 30.904C418.09 31.3147 417.931 31.87 417.931 32.57C417.931 33.2607 418.09 33.816 418.407 34.236C418.725 34.6467 419.163 34.852 419.723 34.852ZM425.066 36V29.126H426.396L426.522 30.162H426.578C426.905 29.8353 427.264 29.5553 427.656 29.322C428.057 29.0793 428.524 28.958 429.056 28.958C429.849 28.958 430.433 29.2007 430.806 29.686C431.179 30.162 431.366 30.848 431.366 31.744V36H429.742V31.954C429.742 31.394 429.644 30.988 429.448 30.736C429.261 30.4747 428.93 30.344 428.454 30.344C428.118 30.344 427.819 30.4233 427.558 30.582C427.297 30.7407 427.007 30.9833 426.69 31.31V36H425.066Z" fill="#4C5361"/>
<path d="M514.036 36V26.844H515.744L518.166 31.982L518.992 33.942H519.034C518.997 33.466 518.95 32.9573 518.894 32.416C518.838 31.8653 518.81 31.3333 518.81 30.82V26.844H520.364V36H518.656L516.234 30.848L515.408 28.902H515.366C515.403 29.3967 515.45 29.91 515.506 30.442C515.562 30.9647 515.59 31.4827 515.59 31.996V36H514.036ZM526.015 36.168C525.492 36.168 525.002 36.0887 524.545 35.93C524.087 35.762 523.686 35.524 523.341 35.216C523.005 34.908 522.739 34.53 522.543 34.082C522.347 33.634 522.249 33.1253 522.249 32.556C522.249 31.996 522.347 31.4967 522.543 31.058C522.739 30.61 523 30.232 523.327 29.924C523.663 29.6067 524.041 29.3687 524.461 29.21C524.89 29.042 525.338 28.958 525.805 28.958C526.318 28.958 526.771 29.042 527.163 29.21C527.555 29.3687 527.886 29.5927 528.157 29.882C528.427 30.162 528.633 30.5027 528.773 30.904C528.913 31.3053 528.983 31.744 528.983 32.22C528.983 32.3787 528.973 32.5327 528.955 32.682C528.945 32.822 528.931 32.9387 528.913 33.032H523.859C523.952 33.676 524.209 34.152 524.629 34.46C525.049 34.768 525.581 34.922 526.225 34.922C526.589 34.922 526.925 34.8707 527.233 34.768C527.541 34.6653 527.849 34.5253 528.157 34.348L528.703 35.356C528.339 35.5987 527.923 35.7947 527.457 35.944C526.999 36.0933 526.519 36.168 526.015 36.168ZM525.847 30.204C525.371 30.204 524.951 30.344 524.587 30.624C524.232 30.904 524.003 31.324 523.901 31.884H527.555C527.499 31.324 527.321 30.904 527.023 30.624C526.733 30.344 526.341 30.204 525.847 30.204ZM533.793 39.038C533.317 39.038 532.888 39.0007 532.505 38.926C532.122 38.8513 531.791 38.7347 531.511 38.576C531.24 38.4267 531.03 38.2353 530.881 38.002C530.732 37.778 530.657 37.512 530.657 37.204C530.657 36.644 531.021 36.1633 531.749 35.762V35.706C531.562 35.594 531.399 35.4493 531.259 35.272C531.119 35.0853 531.049 34.8473 531.049 34.558C531.049 34.334 531.124 34.1053 531.273 33.872C531.422 33.6387 531.623 33.438 531.875 33.27V33.214C531.632 33.0367 531.422 32.7987 531.245 32.5C531.077 32.2013 530.993 31.8467 530.993 31.436C530.993 31.044 531.068 30.694 531.217 30.386C531.376 30.078 531.581 29.8213 531.833 29.616C532.094 29.4013 532.393 29.238 532.729 29.126C533.074 29.014 533.438 28.958 533.821 28.958C534.213 28.958 534.572 29.014 534.899 29.126H537.713V30.358H536.131C536.252 30.4887 536.355 30.6567 536.439 30.862C536.532 31.058 536.579 31.268 536.579 31.492C536.579 31.8747 536.504 32.2107 536.355 32.5C536.215 32.7893 536.019 33.032 535.767 33.228C535.524 33.424 535.235 33.5733 534.899 33.676C534.563 33.7787 534.204 33.83 533.821 33.83C533.494 33.83 533.144 33.7647 532.771 33.634C532.491 33.802 532.351 34.0167 532.351 34.278C532.351 34.7073 532.785 34.922 533.653 34.922H535.053C535.949 34.922 536.621 35.0527 537.069 35.314C537.526 35.566 537.755 35.9953 537.755 36.602C537.755 36.938 537.662 37.2553 537.475 37.554C537.288 37.8527 537.022 38.1093 536.677 38.324C536.341 38.548 535.926 38.7207 535.431 38.842C534.946 38.9727 534.4 39.038 533.793 39.038ZM533.821 32.808C534.176 32.808 534.479 32.6913 534.731 32.458C534.992 32.2153 535.123 31.8747 535.123 31.436C535.123 31.016 534.992 30.6847 534.731 30.442C534.479 30.1993 534.176 30.078 533.821 30.078C533.466 30.078 533.158 30.1993 532.897 30.442C532.645 30.6847 532.519 31.016 532.519 31.436C532.519 31.8747 532.645 32.2153 532.897 32.458C533.158 32.6913 533.466 32.808 533.821 32.808ZM533.989 37.974C534.325 37.974 534.628 37.9413 534.899 37.876C535.17 37.82 535.403 37.7407 535.599 37.638C535.795 37.5353 535.944 37.4187 536.047 37.288C536.15 37.1573 536.201 37.0173 536.201 36.868C536.201 36.5973 536.084 36.4153 535.851 36.322C535.627 36.238 535.282 36.196 534.815 36.196H533.723C533.284 36.196 532.934 36.1633 532.673 36.098C532.43 36.238 532.258 36.3827 532.155 36.532C532.052 36.6813 532.001 36.8353 532.001 36.994C532.001 37.302 532.169 37.54 532.505 37.708C532.85 37.8853 533.345 37.974 533.989 37.974ZM541.474 36.168C541.138 36.168 540.83 36.1167 540.55 36.014C540.27 35.9207 540.027 35.7853 539.822 35.608C539.616 35.4307 539.458 35.2207 539.346 34.978C539.234 34.726 539.178 34.4507 539.178 34.152C539.178 33.7693 539.266 33.4333 539.444 33.144C539.621 32.8453 539.901 32.5933 540.284 32.388C540.666 32.1827 541.156 32.0147 541.754 31.884C542.351 31.7533 543.074 31.66 543.924 31.604C543.896 31.212 543.756 30.89 543.504 30.638C543.252 30.386 542.846 30.26 542.286 30.26C541.894 30.26 541.506 30.3347 541.124 30.484C540.75 30.624 540.386 30.792 540.032 30.988L539.444 29.91C539.864 29.6673 540.344 29.448 540.886 29.252C541.427 29.056 541.992 28.958 542.58 28.958C543.541 28.958 544.274 29.2147 544.778 29.728C545.282 30.232 545.534 30.9647 545.534 31.926V36H544.218L544.092 35.146H544.05C543.686 35.426 543.28 35.6687 542.832 35.874C542.393 36.07 541.94 36.168 541.474 36.168ZM541.964 34.908C542.309 34.908 542.64 34.8333 542.958 34.684C543.284 34.5253 543.606 34.32 543.924 34.068V32.612C543.308 32.6587 542.794 32.724 542.384 32.808C541.973 32.8827 541.646 32.9807 541.404 33.102C541.161 33.2233 540.988 33.3633 540.886 33.522C540.783 33.6713 540.732 33.8393 540.732 34.026C540.732 34.334 540.848 34.558 541.082 34.698C541.324 34.838 541.618 34.908 541.964 34.908ZM552.052 36.168C551.529 36.168 551.086 36.098 550.722 35.958C550.367 35.818 550.078 35.622 549.854 35.37C549.639 35.1087 549.481 34.796 549.378 34.432C549.285 34.068 549.238 33.6667 549.238 33.228V30.4H547.404V29.196L549.308 29.126L549.518 26.97H550.848V29.126H553.984V30.4H550.848V33.228C550.848 33.7973 550.965 34.2173 551.198 34.488C551.441 34.7493 551.856 34.88 552.444 34.88C552.733 34.88 552.999 34.8567 553.242 34.81C553.485 34.754 553.718 34.684 553.942 34.6L554.25 35.776C553.942 35.8787 553.611 35.9673 553.256 36.042C552.901 36.126 552.5 36.168 552.052 36.168ZM559.131 36V30.4H556.149V29.126H560.741V36H559.131ZM559.831 27.866C559.504 27.866 559.229 27.768 559.005 27.572C558.79 27.376 558.683 27.1147 558.683 26.788C558.683 26.4613 558.79 26.2 559.005 26.004C559.229 25.7987 559.504 25.696 559.831 25.696C560.157 25.696 560.428 25.7987 560.643 26.004C560.867 26.2 560.979 26.4613 560.979 26.788C560.979 27.1147 560.867 27.376 560.643 27.572C560.428 27.768 560.157 27.866 559.831 27.866ZM566.685 36L563.941 29.126H565.565L566.895 32.696C567.026 33.0413 567.143 33.3867 567.245 33.732C567.357 34.068 567.469 34.4133 567.581 34.768H567.637C567.749 34.4133 567.857 34.068 567.959 33.732C568.071 33.3867 568.193 33.0413 568.323 32.696L569.653 29.126H571.193L568.519 36H566.685ZM576.382 36.168C575.859 36.168 575.369 36.0887 574.912 35.93C574.454 35.762 574.053 35.524 573.708 35.216C573.372 34.908 573.106 34.53 572.91 34.082C572.714 33.634 572.616 33.1253 572.616 32.556C572.616 31.996 572.714 31.4967 572.91 31.058C573.106 30.61 573.367 30.232 573.694 29.924C574.03 29.6067 574.408 29.3687 574.828 29.21C575.257 29.042 575.705 28.958 576.172 28.958C576.685 28.958 577.138 29.042 577.53 29.21C577.922 29.3687 578.253 29.5927 578.524 29.882C578.794 30.162 579 30.5027 579.14 30.904C579.28 31.3053 579.35 31.744 579.35 32.22C579.35 32.3787 579.34 32.5327 579.322 32.682C579.312 32.822 579.298 32.9387 579.28 33.032H574.226C574.319 33.676 574.576 34.152 574.996 34.46C575.416 34.768 575.948 34.922 576.592 34.922C576.956 34.922 577.292 34.8707 577.6 34.768C577.908 34.6653 578.216 34.5253 578.524 34.348L579.07 35.356C578.706 35.5987 578.29 35.7947 577.824 35.944C577.366 36.0933 576.886 36.168 576.382 36.168ZM576.214 30.204C575.738 30.204 575.318 30.344 574.954 30.624C574.599 30.904 574.37 31.324 574.268 31.884H577.922C577.866 31.324 577.688 30.904 577.39 30.624C577.1 30.344 576.708 30.204 576.214 30.204ZM593.367 36.168C592.825 36.168 592.321 36.0887 591.855 35.93C591.397 35.7713 590.996 35.538 590.651 35.23C590.315 34.922 590.049 34.544 589.853 34.096C589.666 33.648 589.573 33.1393 589.573 32.57C589.573 32.0007 589.675 31.492 589.881 31.044C590.095 30.596 590.38 30.218 590.735 29.91C591.089 29.602 591.505 29.3687 591.981 29.21C592.457 29.042 592.956 28.958 593.479 28.958C594.039 28.958 594.529 29.0513 594.949 29.238C595.378 29.4247 595.737 29.6533 596.027 29.924L595.257 30.932C594.986 30.7173 594.711 30.554 594.431 30.442C594.16 30.33 593.871 30.274 593.563 30.274C592.872 30.274 592.312 30.484 591.883 30.904C591.453 31.3147 591.239 31.87 591.239 32.57C591.239 32.9153 591.295 33.228 591.407 33.508C591.519 33.788 591.673 34.0307 591.869 34.236C592.074 34.432 592.317 34.586 592.597 34.698C592.877 34.8007 593.185 34.852 593.521 34.852C593.913 34.852 594.267 34.7773 594.585 34.628C594.911 34.4787 595.21 34.3013 595.481 34.096L596.153 35.132C595.751 35.4773 595.308 35.7387 594.823 35.916C594.347 36.084 593.861 36.168 593.367 36.168ZM601.145 36.168C600.697 36.168 600.263 36.0887 599.843 35.93C599.423 35.7713 599.055 35.538 598.737 35.23C598.42 34.922 598.163 34.544 597.967 34.096C597.781 33.648 597.687 33.1393 597.687 32.57C597.687 32.0007 597.781 31.492 597.967 31.044C598.163 30.596 598.42 30.218 598.737 29.91C599.055 29.602 599.423 29.3687 599.843 29.21C600.263 29.042 600.697 28.958 601.145 28.958C601.593 28.958 602.027 29.042 602.447 29.21C602.867 29.3687 603.236 29.602 603.553 29.91C603.871 30.218 604.123 30.596 604.309 31.044C604.505 31.492 604.603 32.0007 604.603 32.57C604.603 33.1393 604.505 33.648 604.309 34.096C604.123 34.544 603.871 34.922 603.553 35.23C603.236 35.538 602.867 35.7713 602.447 35.93C602.027 36.0887 601.593 36.168 601.145 36.168ZM601.145 34.852C601.705 34.852 602.144 34.6467 602.461 34.236C602.779 33.816 602.937 33.2607 602.937 32.57C602.937 31.87 602.779 31.3147 602.461 30.904C602.144 30.484 601.705 30.274 601.145 30.274C600.585 30.274 600.147 30.484 599.829 30.904C599.512 31.3147 599.353 31.87 599.353 32.57C599.353 33.2607 599.512 33.816 599.829 34.236C600.147 34.6467 600.585 34.852 601.145 34.852ZM607.16 36V29.126H608.49L608.63 30.68H608.672C609.027 30.12 609.451 29.6953 609.946 29.406C610.45 29.1073 611.001 28.958 611.598 28.958C611.878 28.958 612.116 28.9813 612.312 29.028C612.517 29.0653 612.723 29.1353 612.928 29.238L612.592 30.596C612.368 30.5213 612.167 30.47 611.99 30.442C611.822 30.4047 611.607 30.386 611.346 30.386C610.87 30.386 610.413 30.5213 609.974 30.792C609.535 31.0627 609.139 31.534 608.784 32.206V36H607.16ZM615.554 36V29.126H616.884L617.024 30.68H617.066C617.421 30.12 617.846 29.6953 618.34 29.406C618.844 29.1073 619.395 28.958 619.992 28.958C620.272 28.958 620.51 28.9813 620.706 29.028C620.912 29.0653 621.117 29.1353 621.322 29.238L620.986 30.596C620.762 30.5213 620.562 30.47 620.384 30.442C620.216 30.4047 620.002 30.386 619.74 30.386C619.264 30.386 618.807 30.5213 618.368 30.792C617.93 31.0627 617.533 31.534 617.178 32.206V36H615.554ZM626.749 36.168C626.226 36.168 625.736 36.0887 625.279 35.93C624.822 35.762 624.42 35.524 624.075 35.216C623.739 34.908 623.473 34.53 623.277 34.082C623.081 33.634 622.983 33.1253 622.983 32.556C622.983 31.996 623.081 31.4967 623.277 31.058C623.473 30.61 623.734 30.232 624.061 29.924C624.397 29.6067 624.775 29.3687 625.195 29.21C625.624 29.042 626.072 28.958 626.539 28.958C627.052 28.958 627.505 29.042 627.897 29.21C628.289 29.3687 628.62 29.5927 628.891 29.882C629.162 30.162 629.367 30.5027 629.507 30.904C629.647 31.3053 629.717 31.744 629.717 32.22C629.717 32.3787 629.708 32.5327 629.689 32.682C629.68 32.822 629.666 32.9387 629.647 33.032H624.593C624.686 33.676 624.943 34.152 625.363 34.46C625.783 34.768 626.315 34.922 626.959 34.922C627.323 34.922 627.659 34.8707 627.967 34.768C628.275 34.6653 628.583 34.5253 628.891 34.348L629.437 35.356C629.073 35.5987 628.658 35.7947 628.191 35.944C627.734 36.0933 627.253 36.168 626.749 36.168ZM626.581 30.204C626.105 30.204 625.685 30.344 625.321 30.624C624.966 30.904 624.738 31.324 624.635 31.884H628.289C628.233 31.324 628.056 30.904 627.757 30.624C627.468 30.344 627.076 30.204 626.581 30.204ZM636.137 36.168C635.335 36.168 634.723 35.9347 634.303 35.468C633.893 35.0013 633.687 34.3433 633.687 33.494V27.39H631.391V26.116H635.297V33.578C635.297 34.0447 635.414 34.376 635.647 34.572C635.89 34.7587 636.184 34.852 636.529 34.852C636.893 34.852 637.285 34.7633 637.705 34.586L638.083 35.776C637.747 35.9067 637.439 36.0047 637.159 36.07C636.879 36.1353 636.539 36.168 636.137 36.168ZM642.208 36.168C641.872 36.168 641.564 36.1167 641.284 36.014C641.004 35.9207 640.761 35.7853 640.556 35.608C640.351 35.4307 640.192 35.2207 640.08 34.978C639.968 34.726 639.912 34.4507 639.912 34.152C639.912 33.7693 640.001 33.4333 640.178 33.144C640.355 32.8453 640.635 32.5933 641.018 32.388C641.401 32.1827 641.891 32.0147 642.488 31.884C643.085 31.7533 643.809 31.66 644.658 31.604C644.63 31.212 644.49 30.89 644.238 30.638C643.986 30.386 643.58 30.26 643.02 30.26C642.628 30.26 642.241 30.3347 641.858 30.484C641.485 30.624 641.121 30.792 640.766 30.988L640.178 29.91C640.598 29.6673 641.079 29.448 641.62 29.252C642.161 29.056 642.726 28.958 643.314 28.958C644.275 28.958 645.008 29.2147 645.512 29.728C646.016 30.232 646.268 30.9647 646.268 31.926V36H644.952L644.826 35.146H644.784C644.42 35.426 644.014 35.6687 643.566 35.874C643.127 36.07 642.675 36.168 642.208 36.168ZM642.698 34.908C643.043 34.908 643.375 34.8333 643.692 34.684C644.019 34.5253 644.341 34.32 644.658 34.068V32.612C644.042 32.6587 643.529 32.724 643.118 32.808C642.707 32.8827 642.381 32.9807 642.138 33.102C641.895 33.2233 641.723 33.3633 641.62 33.522C641.517 33.6713 641.466 33.8393 641.466 34.026C641.466 34.334 641.583 34.558 641.816 34.698C642.059 34.838 642.353 34.908 642.698 34.908ZM652.787 36.168C652.264 36.168 651.821 36.098 651.457 35.958C651.102 35.818 650.813 35.622 650.589 35.37C650.374 35.1087 650.215 34.796 650.113 34.432C650.019 34.068 649.973 33.6667 649.973 33.228V30.4H648.139V29.196L650.043 29.126L650.253 26.97H651.583V29.126H654.719V30.4H651.583V33.228C651.583 33.7973 651.699 34.2173 651.933 34.488C652.175 34.7493 652.591 34.88 653.179 34.88C653.468 34.88 653.734 34.8567 653.977 34.81C654.219 34.754 654.453 34.684 654.677 34.6L654.985 35.776C654.677 35.8787 654.345 35.9673 653.991 36.042C653.636 36.126 653.235 36.168 652.787 36.168ZM659.865 36V30.4H656.883V29.126H661.475V36H659.865ZM660.565 27.866C660.238 27.866 659.963 27.768 659.739 27.572C659.524 27.376 659.417 27.1147 659.417 26.788C659.417 26.4613 659.524 26.2 659.739 26.004C659.963 25.7987 660.238 25.696 660.565 25.696C660.892 25.696 661.162 25.7987 661.377 26.004C661.601 26.2 661.713 26.4613 661.713 26.788C661.713 27.1147 661.601 27.376 661.377 27.572C661.162 27.768 660.892 27.866 660.565 27.866ZM668.302 36.168C667.854 36.168 667.42 36.0887 667 35.93C666.58 35.7713 666.211 35.538 665.894 35.23C665.576 34.922 665.32 34.544 665.124 34.096C664.937 33.648 664.844 33.1393 664.844 32.57C664.844 32.0007 664.937 31.492 665.124 31.044C665.32 30.596 665.576 30.218 665.894 29.91C666.211 29.602 666.58 29.3687 667 29.21C667.42 29.042 667.854 28.958 668.302 28.958C668.75 28.958 669.184 29.042 669.604 29.21C670.024 29.3687 670.392 29.602 670.71 29.91C671.027 30.218 671.279 30.596 671.466 31.044C671.662 31.492 671.76 32.0007 671.76 32.57C671.76 33.1393 671.662 33.648 671.466 34.096C671.279 34.544 671.027 34.922 670.71 35.23C670.392 35.538 670.024 35.7713 669.604 35.93C669.184 36.0887 668.75 36.168 668.302 36.168ZM668.302 34.852C668.862 34.852 669.3 34.6467 669.618 34.236C669.935 33.816 670.094 33.2607 670.094 32.57C670.094 31.87 669.935 31.3147 669.618 30.904C669.3 30.484 668.862 30.274 668.302 30.274C667.742 30.274 667.303 30.484 666.986 30.904C666.668 31.3147 666.51 31.87 666.51 32.57C666.51 33.2607 666.668 33.816 666.986 34.236C667.303 34.6467 667.742 34.852 668.302 34.852ZM673.644 36V29.126H674.974L675.1 30.162H675.156C675.483 29.8353 675.842 29.5553 676.234 29.322C676.635 29.0793 677.102 28.958 677.634 28.958C678.427 28.958 679.011 29.2007 679.384 29.686C679.757 30.162 679.944 30.848 679.944 31.744V36H678.32V31.954C678.32 31.394 678.222 30.988 678.026 30.736C677.839 30.4747 677.508 30.344 677.032 30.344C676.696 30.344 676.397 30.4233 676.136 30.582C675.875 30.7407 675.585 30.9833 675.268 31.31V36H673.644Z" fill="#E05959"/>
<path fill-rule="evenodd" clip-rule="evenodd" d="M24 32V27H22V32H17V34H22V39H24V34H29V32H24Z" fill="white"/>
<line x1="485" y1="33" x2="497" y2="33" stroke="white" stroke-width="2"/>
<circle cx="273" cy="33" r="5" stroke="white" stroke-width="2"/>
</g>
<defs>
<filter id="filter0_d" x="0" y="11" width="230" height="44" filterUnits="userSpaceOnUse" color-interpolation-filters="sRGB">
<feFlood flood-opacity="0" result="BackgroundImageFix"/>
<feColorMatrix in="SourceAlpha" type="matrix" values="0 0 0 0 0 0 0 0 0 0 0 0 0 0 0 0 0 0 127 0"/>
<feOffset/>
<feGaussianBlur stdDeviation="3"/>
<feColorMatrix type="matrix" values="0 0 0 0 0 0 0 0 0 0 0 0 0 0 0 0 0 0 0.1 0"/>
<feBlend mode="normal" in2="BackgroundImageFix" result="effect1_dropShadow"/>
<feBlend mode="normal" in="SourceGraphic" in2="effect1_dropShadow" result="shape"/>
</filter>
<filter id="filter1_d" x="250" y="11" width="205" height="44" filterUnits="userSpaceOnUse" color-interpolation-filters="sRGB">
<feFlood flood-opacity="0" result="BackgroundImageFix"/>
<feColorMatrix in="SourceAlpha" type="matrix" values="0 0 0 0 0 0 0 0 0 0 0 0 0 0 0 0 0 0 127 0"/>
<feOffset/>
<feGaussianBlur stdDeviation="3"/>
<feColorMatrix type="matrix" values="0 0 0 0 0 0 0 0 0 0 0 0 0 0 0 0 0 0 0.1 0"/>
<feBlend mode="normal" in2="BackgroundImageFix" result="effect1_dropShadow"/>
<feBlend mode="normal" in="SourceGraphic" in2="effect1_dropShadow" result="shape"/>
</filter>
<filter id="filter2_d" x="468" y="11" width="236" height="44" filterUnits="userSpaceOnUse" color-interpolation-filters="sRGB">
<feFlood flood-opacity="0" result="BackgroundImageFix"/>
<feColorMatrix in="SourceAlpha" type="matrix" values="0 0 0 0 0 0 0 0 0 0 0 0 0 0 0 0 0 0 127 0"/>
<feOffset/>
<feGaussianBlur stdDeviation="3"/>
<feColorMatrix type="matrix" values="0 0 0 0 0 0 0 0 0 0 0 0 0 0 0 0 0 0 0.1 0"/>
<feBlend mode="normal" in2="BackgroundImageFix" result="effect1_dropShadow"/>
<feBlend mode="normal" in="SourceGraphic" in2="effect1_dropShadow" result="shape"/>
</filter>
<linearGradient id="paint0_linear" x1="177.129" y1="91.1296" x2="49.9057" y2="171.377" gradientUnits="userSpaceOnUse">
<stop stop-color="#31CB8A"/>
<stop offset="0.94401" stop-color="#31CB8A" stop-opacity="0"/>
</linearGradient>
<linearGradient id="paint1_linear" x1="641.129" y1="171.87" x2="513.906" y2="91.6232" gradientUnits="userSpaceOnUse">
<stop stop-color="#E05959"/>
<stop offset="0.94401" stop-color="#E05959" stop-opacity="0"/>
</linearGradient>
<clipPath id="clip0">
<rect width="702" height="212" fill="white"/>
</clipPath>
</defs>
</svg>
