<svg width="380" height="327" viewBox="0 0 380 327" fill="none" xmlns="http://www.w3.org/2000/svg">
<rect width="380" height="327" fill="white"/>
<rect opacity="0.6" x="24" y="85" width="333" height="209"/>
<rect x="50" y="86" width="301" height="7" fill="white"/>
<rect x="340" y="86" width="11" height="193" fill="white"/>
<path d="M178.275 301.887H176.059V308H174.833V301.887H172.636V300.891H178.275V301.887ZM180.985 308.098C180.233 308.098 179.623 307.862 179.154 307.39C178.689 306.914 178.456 306.283 178.456 305.495V305.349C178.456 304.821 178.557 304.351 178.759 303.938C178.964 303.521 179.25 303.197 179.618 302.966C179.986 302.735 180.396 302.619 180.849 302.619C181.568 302.619 182.123 302.849 182.514 303.308C182.908 303.767 183.104 304.416 183.104 305.256V305.734H179.652C179.688 306.171 179.833 306.516 180.087 306.77C180.344 307.023 180.666 307.15 181.054 307.15C181.597 307.15 182.04 306.931 182.382 306.491L183.021 307.102C182.81 307.417 182.527 307.663 182.172 307.839C181.82 308.011 181.425 308.098 180.985 308.098ZM180.844 303.571C180.518 303.571 180.255 303.685 180.053 303.913C179.854 304.141 179.727 304.458 179.672 304.865H181.933V304.777C181.907 304.38 181.801 304.081 181.615 303.879C181.43 303.674 181.173 303.571 180.844 303.571ZM185.146 302.717L185.18 303.269C185.551 302.836 186.059 302.619 186.703 302.619C187.41 302.619 187.893 302.889 188.153 303.43C188.537 302.889 189.078 302.619 189.774 302.619C190.357 302.619 190.79 302.78 191.073 303.103C191.36 303.425 191.506 303.9 191.513 304.528V308H190.326V304.562C190.326 304.227 190.253 303.981 190.106 303.825C189.96 303.669 189.717 303.591 189.379 303.591C189.109 303.591 188.887 303.664 188.715 303.811C188.546 303.954 188.427 304.143 188.358 304.377L188.363 308H187.177V304.523C187.16 303.902 186.843 303.591 186.225 303.591C185.749 303.591 185.412 303.785 185.214 304.172V308H184.027V302.717H185.146ZM197.357 305.412C197.357 306.229 197.172 306.882 196.801 307.37C196.43 307.855 195.932 308.098 195.307 308.098C194.727 308.098 194.263 307.907 193.915 307.526V310.031H192.729V302.717H193.822L193.871 303.254C194.219 302.831 194.693 302.619 195.292 302.619C195.937 302.619 196.441 302.86 196.806 303.342C197.174 303.82 197.357 304.486 197.357 305.339V305.412ZM196.176 305.31C196.176 304.782 196.07 304.364 195.858 304.055C195.65 303.745 195.351 303.591 194.96 303.591C194.475 303.591 194.127 303.791 193.915 304.191V306.535C194.13 306.945 194.481 307.15 194.97 307.15C195.347 307.15 195.642 306.999 195.854 306.696C196.068 306.39 196.176 305.928 196.176 305.31ZM200.692 308.098C199.94 308.098 199.33 307.862 198.861 307.39C198.396 306.914 198.163 306.283 198.163 305.495V305.349C198.163 304.821 198.264 304.351 198.466 303.938C198.671 303.521 198.957 303.197 199.325 302.966C199.693 302.735 200.103 302.619 200.556 302.619C201.275 302.619 201.83 302.849 202.221 303.308C202.615 303.767 202.812 304.416 202.812 305.256V305.734H199.359C199.395 306.171 199.54 306.516 199.794 306.77C200.051 307.023 200.373 307.15 200.761 307.15C201.304 307.15 201.747 306.931 202.089 306.491L202.729 307.102C202.517 307.417 202.234 307.663 201.879 307.839C201.527 308.011 201.132 308.098 200.692 308.098ZM200.551 303.571C200.225 303.571 199.962 303.685 199.76 303.913C199.561 304.141 199.434 304.458 199.379 304.865H201.64V304.777C201.614 304.38 201.508 304.081 201.322 303.879C201.137 303.674 200.88 303.571 200.551 303.571ZM206.503 303.801C206.347 303.775 206.186 303.762 206.02 303.762C205.476 303.762 205.11 303.97 204.921 304.387V308H203.734V302.717H204.867L204.896 303.308C205.183 302.849 205.58 302.619 206.088 302.619C206.257 302.619 206.397 302.642 206.508 302.688L206.503 303.801ZM210.263 308C210.211 307.899 210.165 307.735 210.126 307.507C209.748 307.901 209.286 308.098 208.739 308.098C208.209 308.098 207.776 307.946 207.44 307.644C207.105 307.341 206.938 306.966 206.938 306.521C206.938 305.957 207.146 305.526 207.562 305.227C207.982 304.924 208.581 304.772 209.359 304.772H210.087V304.426C210.087 304.152 210.01 303.934 209.857 303.771C209.704 303.605 209.472 303.522 209.159 303.522C208.889 303.522 208.668 303.591 208.495 303.728C208.323 303.861 208.236 304.032 208.236 304.24H207.05C207.05 303.951 207.146 303.68 207.338 303.43C207.53 303.176 207.79 302.977 208.119 302.834C208.451 302.691 208.821 302.619 209.228 302.619C209.846 302.619 210.339 302.775 210.707 303.088C211.075 303.397 211.264 303.833 211.273 304.396V306.779C211.273 307.255 211.34 307.634 211.474 307.917V308H210.263ZM208.959 307.146C209.193 307.146 209.413 307.089 209.618 306.975C209.826 306.861 209.983 306.708 210.087 306.516V305.52H209.447C209.008 305.52 208.677 305.596 208.456 305.749C208.235 305.902 208.124 306.118 208.124 306.398C208.124 306.626 208.199 306.809 208.349 306.945C208.502 307.079 208.705 307.146 208.959 307.146ZM214.003 301.433V302.717H214.936V303.596H214.003V306.545C214.003 306.747 214.042 306.893 214.12 306.984C214.201 307.072 214.345 307.116 214.55 307.116C214.687 307.116 214.825 307.1 214.965 307.067V307.985C214.695 308.06 214.434 308.098 214.184 308.098C213.272 308.098 212.816 307.595 212.816 306.589V303.596H211.947V302.717H212.816V301.433H214.003ZM219.047 307.482C218.699 307.893 218.204 308.098 217.562 308.098C216.99 308.098 216.555 307.93 216.259 307.595C215.966 307.259 215.819 306.774 215.819 306.14V302.717H217.006V306.125C217.006 306.796 217.284 307.131 217.841 307.131C218.417 307.131 218.806 306.924 219.008 306.511V302.717H220.194V308H219.076L219.047 307.482ZM224.169 303.801C224.013 303.775 223.852 303.762 223.686 303.762C223.142 303.762 222.776 303.97 222.587 304.387V308H221.4V302.717H222.533L222.562 303.308C222.849 302.849 223.246 302.619 223.754 302.619C223.923 302.619 224.063 302.642 224.174 302.688L224.169 303.801ZM227.147 308.098C226.396 308.098 225.785 307.862 225.316 307.39C224.851 306.914 224.618 306.283 224.618 305.495V305.349C224.618 304.821 224.719 304.351 224.921 303.938C225.126 303.521 225.412 303.197 225.78 302.966C226.148 302.735 226.558 302.619 227.011 302.619C227.73 302.619 228.285 302.849 228.676 303.308C229.07 303.767 229.267 304.416 229.267 305.256V305.734H225.814C225.85 306.171 225.995 306.516 226.249 306.77C226.506 307.023 226.828 307.15 227.216 307.15C227.759 307.15 228.202 306.931 228.544 306.491L229.184 307.102C228.972 307.417 228.689 307.663 228.334 307.839C227.982 308.011 227.587 308.098 227.147 308.098ZM227.006 303.571C226.68 303.571 226.417 303.685 226.215 303.913C226.016 304.141 225.889 304.458 225.834 304.865H228.095V304.777C228.069 304.38 227.963 304.081 227.777 303.879C227.592 303.674 227.335 303.571 227.006 303.571Z" fill="#31CB8A"/>
<path d="M19 217.05H11.8906V214.613C11.8906 213.809 12.0518 213.197 12.374 212.777C12.6963 212.357 13.1764 212.147 13.8145 212.147C14.14 212.147 14.4329 212.235 14.6934 212.411C14.9538 212.587 15.1556 212.844 15.2988 213.183C15.403 212.799 15.5999 212.502 15.8896 212.294C16.1761 212.082 16.5212 211.977 16.9248 211.977C17.5921 211.977 18.1048 212.191 18.4629 212.621C18.821 213.048 19 213.66 19 214.457V217.05ZM15.792 215.814H18.0137V214.442C18.0137 214.055 17.9176 213.752 17.7256 213.534C17.5335 213.316 17.2666 213.207 16.9248 213.207C16.1859 213.207 15.8083 213.585 15.792 214.34V215.814ZM14.8838 215.814V214.604C14.8838 214.219 14.7975 213.92 14.625 213.705C14.4492 213.487 14.2018 213.378 13.8828 213.378C13.5312 213.378 13.2773 213.479 13.1211 213.681C12.9648 213.879 12.8867 214.19 12.8867 214.613V215.814H14.8838ZM19 209.594V210.78H13.7168V209.594H19ZM12.3447 210.854C12.1624 210.854 12.0111 210.797 11.8906 210.683C11.7702 210.565 11.71 210.399 11.71 210.185C11.71 209.97 11.7702 209.804 11.8906 209.687C12.0111 209.569 12.1624 209.511 12.3447 209.511C12.5238 209.511 12.6735 209.569 12.7939 209.687C12.9111 209.804 12.9697 209.97 12.9697 210.185C12.9697 210.399 12.9111 210.565 12.7939 210.683C12.6735 210.797 12.5238 210.854 12.3447 210.854ZM16.7344 206.581L17.2764 207.108H19V208.295H11.5V207.108H15.8262L15.3623 206.737L13.7168 205.277V203.852L15.9189 205.814L19 203.642V205.014L16.7344 206.581ZM19.0977 200.844C19.0977 201.596 18.8617 202.206 18.3896 202.675C17.9144 203.14 17.2829 203.373 16.4951 203.373H16.3486C15.8213 203.373 15.3509 203.272 14.9375 203.07C14.5208 202.865 14.1969 202.579 13.9658 202.211C13.7347 201.843 13.6191 201.433 13.6191 200.98C13.6191 200.261 13.8486 199.706 14.3076 199.315C14.7666 198.922 15.416 198.725 16.2559 198.725H16.7344V202.177C17.1706 202.141 17.5156 201.996 17.7695 201.742C18.0234 201.485 18.1504 201.163 18.1504 200.775C18.1504 200.232 17.9307 199.789 17.4912 199.447L18.1016 198.808C18.4173 199.019 18.6631 199.302 18.8389 199.657C19.0114 200.009 19.0977 200.404 19.0977 200.844ZM14.5713 200.985C14.5713 201.311 14.6852 201.575 14.9131 201.776C15.141 201.975 15.4583 202.102 15.8652 202.157V199.896H15.7773C15.3802 199.923 15.0807 200.028 14.8789 200.214C14.6738 200.399 14.5713 200.657 14.5713 200.985ZM17.5645 194.838C17.3529 194.838 17.1917 194.926 17.0811 195.102C16.9704 195.274 16.8727 195.562 16.7881 195.966C16.7035 196.369 16.596 196.706 16.4658 196.977C16.1794 197.569 15.7643 197.865 15.2207 197.865C14.765 197.865 14.3841 197.673 14.0781 197.289C13.7721 196.905 13.6191 196.417 13.6191 195.824C13.6191 195.193 13.7754 194.683 14.0879 194.296C14.4004 193.905 14.8057 193.71 15.3037 193.71V194.896C15.0758 194.896 14.887 194.981 14.7373 195.15C14.5843 195.32 14.5078 195.544 14.5078 195.824C14.5078 196.085 14.568 196.298 14.6885 196.464C14.8089 196.627 14.9701 196.708 15.1719 196.708C15.3542 196.708 15.4958 196.632 15.5967 196.479C15.6976 196.326 15.8001 196.016 15.9043 195.551C16.0052 195.085 16.1273 194.721 16.2705 194.457C16.4105 194.19 16.5798 193.993 16.7783 193.866C16.9769 193.736 17.2178 193.671 17.501 193.671C17.9762 193.671 18.362 193.868 18.6582 194.262C18.9512 194.656 19.0977 195.172 19.0977 195.81C19.0977 196.243 19.0195 196.628 18.8633 196.967C18.707 197.305 18.4922 197.569 18.2188 197.758C17.9453 197.947 17.6507 198.041 17.335 198.041V196.889C17.6149 196.872 17.8314 196.767 17.9844 196.571C18.1341 196.376 18.209 196.117 18.209 195.795C18.209 195.482 18.1504 195.245 18.0332 195.082C17.9128 194.919 17.7565 194.838 17.5645 194.838ZM16.2607 187.416V188.793H19V190.028H11.8906V187.528C11.8906 186.708 12.0745 186.075 12.4424 185.629C12.8102 185.183 13.3424 184.96 14.0391 184.96C14.5143 184.96 14.9131 185.076 15.2354 185.307C15.5544 185.535 15.8001 185.854 15.9727 186.264L18.9365 184.667H19V185.99L16.2607 187.416ZM15.2695 188.793V187.523C15.2695 187.107 15.1654 186.781 14.957 186.547C14.7454 186.312 14.4574 186.195 14.0928 186.195C13.7119 186.195 13.4173 186.304 13.209 186.522C13.0007 186.737 12.8932 187.06 12.8867 187.489V188.793H15.2695ZM19.0977 181.576C19.0977 182.328 18.8617 182.938 18.3896 183.407C17.9144 183.873 17.2829 184.105 16.4951 184.105H16.3486C15.8213 184.105 15.3509 184.005 14.9375 183.803C14.5208 183.598 14.1969 183.311 13.9658 182.943C13.7347 182.576 13.6191 182.165 13.6191 181.713C13.6191 180.993 13.8486 180.438 14.3076 180.048C14.7666 179.654 15.416 179.457 16.2559 179.457H16.7344L16.7344 182.909C17.1706 182.873 17.5156 182.729 17.7695 182.475C18.0234 182.217 18.1504 181.895 18.1504 181.508C18.1504 180.964 17.9307 180.521 17.4912 180.18L18.1016 179.54C18.4173 179.752 18.6631 180.035 18.8389 180.39C19.0114 180.741 19.0977 181.137 19.0977 181.576ZM14.5713 181.718C14.5713 182.043 14.6852 182.307 14.9131 182.509C15.141 182.707 15.4583 182.834 15.8652 182.89L15.8652 180.629H15.7773C15.3802 180.655 15.0807 180.761 14.8789 180.946C14.6738 181.132 14.5713 181.389 14.5713 181.718ZM13.7168 177.431L14.3271 177.396C13.8551 177.006 13.6191 176.493 13.6191 175.858C13.6191 174.758 14.249 174.198 15.5088 174.179H19L19 175.365H15.5771C15.2419 175.365 14.9945 175.438 14.835 175.585C14.6722 175.728 14.5908 175.964 14.5908 176.293C14.5908 176.771 14.8073 177.128 15.2402 177.362H19V178.549H13.7168L13.7168 177.431ZM12.4326 171.479H13.7168V170.546H14.5957V171.479H17.5449C17.7467 171.479 17.8932 171.439 17.9844 171.361C18.0723 171.28 18.1162 171.137 18.1162 170.932C18.1162 170.795 18.0999 170.657 18.0674 170.517H18.9854C19.0602 170.787 19.0977 171.047 19.0977 171.298C19.0977 172.209 18.5947 172.665 17.5889 172.665H14.5957V173.534H13.7168V172.665H12.4326V171.479ZM19.0977 167.309C19.0977 168.061 18.8617 168.671 18.3896 169.14C17.9144 169.605 17.2829 169.838 16.4951 169.838H16.3486C15.8213 169.838 15.3509 169.737 14.9375 169.535C14.5208 169.33 14.1969 169.044 13.9658 168.676C13.7347 168.308 13.6191 167.898 13.6191 167.445C13.6191 166.726 13.8486 166.171 14.3076 165.78C14.7666 165.386 15.416 165.189 16.2559 165.189H16.7344V168.642C17.1706 168.606 17.5156 168.461 17.7695 168.207C18.0234 167.95 18.1504 167.628 18.1504 167.24C18.1504 166.697 17.9307 166.254 17.4912 165.912L18.1016 165.272C18.4173 165.484 18.6631 165.767 18.8389 166.122C19.0114 166.474 19.0977 166.869 19.0977 167.309ZM14.5713 167.45C14.5713 167.776 14.6852 168.039 14.9131 168.241C15.141 168.44 15.4583 168.567 15.8652 168.622V166.361H15.7773C15.3802 166.387 15.0807 166.493 14.8789 166.679C14.6738 166.864 14.5713 167.121 14.5713 167.45ZM16.3193 164.486C15.5055 164.486 14.8529 164.298 14.3613 163.92C13.8665 163.542 13.6191 163.036 13.6191 162.401C13.6191 161.841 13.8145 161.389 14.2051 161.044H11.5V159.857H19V160.932L18.4531 160.99C18.8828 161.345 19.0977 161.819 19.0977 162.411C19.0977 163.03 18.8486 163.531 18.3506 163.915C17.8525 164.296 17.1755 164.486 16.3193 164.486ZM16.4219 163.3C16.959 163.3 17.3789 163.197 17.6816 162.992C17.9811 162.784 18.1309 162.489 18.1309 162.108C18.1309 161.623 17.9144 161.269 17.4814 161.044H15.2256C14.8024 161.262 14.5908 161.614 14.5908 162.099C14.5908 162.483 14.7438 162.779 15.0498 162.987C15.3525 163.196 15.8099 163.3 16.4219 163.3Z" fill="#31CB8A"/>
<path d="M357.53 279.53C357.823 279.237 357.823 278.763 357.53 278.47L352.757 273.697C352.464 273.404 351.99 273.404 351.697 273.697C351.404 273.99 351.404 274.464 351.697 274.757L355.939 279L351.697 283.243C351.404 283.536 351.404 284.01 351.697 284.303C351.99 284.596 352.464 284.596 352.757 284.303L357.53 279.53ZM56 279.75H357V278.25H56V279.75Z" fill="#31CB8A"/>
<g style="mix-blend-mode:multiply">
<path d="M294.153 112.311L57.525 244.428C56.8922 244.781 56.5 245.449 56.5 246.174V276.5C56.5 277.605 57.3954 278.5 58.5 278.5H113.888C114.287 278.5 114.677 278.381 115.007 278.157L321.058 138.974C321.885 138.416 322.997 138.552 323.664 139.293L337.013 154.126C338.24 155.488 340.5 154.621 340.5 152.788V97C340.5 95.8954 339.605 95 338.5 95H284.935C283.139 95 282.253 97.185 283.543 98.4358L294.57 109.129C295.532 110.061 295.323 111.657 294.153 112.311Z" fill="url(#paint0_linear)"/>
</g>
<path d="M57.5303 79.4697C57.2374 79.1768 56.7626 79.1768 56.4697 79.4697L51.6967 84.2426C51.4038 84.5355 51.4038 85.0104 51.6967 85.3033C51.9896 85.5962 52.4645 85.5962 52.7574 85.3033L57 81.0607L61.2426 85.3033C61.5355 85.5962 62.0104 85.5962 62.3033 85.3033C62.5962 85.0104 62.5962 84.5355 62.3033 84.2426L57.5303 79.4697ZM57.75 279L57.75 80H56.25L56.25 279H57.75Z" fill="#31CB8A"/>
<g filter="url(#filter0_d)">
<rect x="41" y="6" width="300" height="34" rx="17" fill="white"/>
</g>
<rect x="46" y="10" width="26" height="26" rx="13" fill="#31CB8A"/>
<path d="M82.232 26V16.844H85.242C85.746 16.844 86.208 16.8907 86.628 16.984C87.0573 17.0773 87.426 17.236 87.734 17.46C88.042 17.684 88.2847 17.978 88.462 18.342C88.6393 18.6967 88.728 19.14 88.728 19.672C88.728 20.176 88.6393 20.6147 88.462 20.988C88.2847 21.3613 88.0373 21.674 87.72 21.926C87.412 22.1687 87.0433 22.3507 86.614 22.472C86.194 22.584 85.7367 22.64 85.242 22.64H83.856V26H82.232ZM83.856 21.338H85.116C86.46 21.338 87.132 20.7827 87.132 19.672C87.132 19.0933 86.964 18.6967 86.628 18.482C86.292 18.258 85.788 18.146 85.116 18.146H83.856V21.338ZM93.5945 26.168C93.1465 26.168 92.7125 26.0887 92.2925 25.93C91.8725 25.7713 91.5039 25.538 91.1865 25.23C90.8692 24.922 90.6125 24.544 90.4165 24.096C90.2299 23.648 90.1365 23.1393 90.1365 22.57C90.1365 22.0007 90.2299 21.492 90.4165 21.044C90.6125 20.596 90.8692 20.218 91.1865 19.91C91.5039 19.602 91.8725 19.3687 92.2925 19.21C92.7125 19.042 93.1465 18.958 93.5945 18.958C94.0425 18.958 94.4765 19.042 94.8965 19.21C95.3165 19.3687 95.6852 19.602 96.0025 19.91C96.3199 20.218 96.5719 20.596 96.7585 21.044C96.9545 21.492 97.0525 22.0007 97.0525 22.57C97.0525 23.1393 96.9545 23.648 96.7585 24.096C96.5719 24.544 96.3199 24.922 96.0025 25.23C95.6852 25.538 95.3165 25.7713 94.8965 25.93C94.4765 26.0887 94.0425 26.168 93.5945 26.168ZM93.5945 24.852C94.1545 24.852 94.5932 24.6467 94.9105 24.236C95.2279 23.816 95.3865 23.2607 95.3865 22.57C95.3865 21.87 95.2279 21.3147 94.9105 20.904C94.5932 20.484 94.1545 20.274 93.5945 20.274C93.0345 20.274 92.5959 20.484 92.2785 20.904C91.9612 21.3147 91.8025 21.87 91.8025 22.57C91.8025 23.2607 91.9612 23.816 92.2785 24.236C92.5959 24.6467 93.0345 24.852 93.5945 24.852ZM102.031 26.168C101.387 26.168 100.771 26.0653 100.183 25.86C99.5951 25.6453 99.0864 25.3933 98.6571 25.104L99.3571 24.082C99.7771 24.3527 100.22 24.5673 100.687 24.726C101.163 24.8753 101.681 24.95 102.241 24.95C102.717 24.95 103.067 24.8707 103.291 24.712C103.524 24.5533 103.641 24.3573 103.641 24.124C103.641 24.012 103.618 23.914 103.571 23.83C103.524 23.7367 103.431 23.648 103.291 23.564C103.151 23.48 102.955 23.4007 102.703 23.326C102.46 23.2513 102.138 23.172 101.737 23.088C100.813 22.9013 100.136 22.64 99.7071 22.304C99.2871 21.968 99.0771 21.5387 99.0771 21.016C99.0771 20.4093 99.3384 19.9147 99.8611 19.532C100.384 19.1493 101.13 18.958 102.101 18.958C102.67 18.958 103.202 19.0513 103.697 19.238C104.192 19.4247 104.616 19.6347 104.971 19.868L104.229 20.862C103.893 20.6473 103.534 20.4793 103.151 20.358C102.768 20.2367 102.372 20.176 101.961 20.176C101.504 20.176 101.177 20.2507 100.981 20.4C100.785 20.54 100.687 20.7173 100.687 20.932C100.687 21.1747 100.827 21.3567 101.107 21.478C101.387 21.5993 101.844 21.73 102.479 21.87C103.03 21.9913 103.482 22.122 103.837 22.262C104.192 22.402 104.472 22.5607 104.677 22.738C104.892 22.906 105.041 23.0973 105.125 23.312C105.209 23.5267 105.251 23.7693 105.251 24.04C105.251 24.3387 105.181 24.6187 105.041 24.88C104.901 25.132 104.696 25.356 104.425 25.552C104.154 25.7387 103.818 25.888 103.417 26C103.016 26.112 102.554 26.168 102.031 26.168ZM110.342 26V20.4H107.36V19.126H111.952V26H110.342ZM111.042 17.866C110.715 17.866 110.44 17.768 110.216 17.572C110.001 17.376 109.894 17.1147 109.894 16.788C109.894 16.4613 110.001 16.2 110.216 16.004C110.44 15.7987 110.715 15.696 111.042 15.696C111.368 15.696 111.639 15.7987 111.854 16.004C112.078 16.2 112.19 16.4613 112.19 16.788C112.19 17.1147 112.078 17.376 111.854 17.572C111.639 17.768 111.368 17.866 111.042 17.866ZM120.052 26.168C119.529 26.168 119.086 26.098 118.722 25.958C118.367 25.818 118.078 25.622 117.854 25.37C117.639 25.1087 117.481 24.796 117.378 24.432C117.285 24.068 117.238 23.6667 117.238 23.228V20.4H115.404V19.196L117.308 19.126L117.518 16.97H118.848V19.126H121.984V20.4H118.848V23.228C118.848 23.7973 118.965 24.2173 119.198 24.488C119.441 24.7493 119.856 24.88 120.444 24.88C120.733 24.88 120.999 24.8567 121.242 24.81C121.485 24.754 121.718 24.684 121.942 24.6L122.25 25.776C121.942 25.8787 121.611 25.9673 121.256 26.042C120.901 26.126 120.5 26.168 120.052 26.168ZM127.131 26V20.4H124.149V19.126H128.741V26H127.131ZM127.831 17.866C127.504 17.866 127.229 17.768 127.005 17.572C126.79 17.376 126.683 17.1147 126.683 16.788C126.683 16.4613 126.79 16.2 127.005 16.004C127.229 15.7987 127.504 15.696 127.831 15.696C128.157 15.696 128.428 15.7987 128.643 16.004C128.867 16.2 128.979 16.4613 128.979 16.788C128.979 17.1147 128.867 17.376 128.643 17.572C128.428 17.768 128.157 17.866 127.831 17.866ZM134.685 26L131.941 19.126H133.565L134.895 22.696C135.026 23.0413 135.143 23.3867 135.245 23.732C135.357 24.068 135.469 24.4133 135.581 24.768H135.637C135.749 24.4133 135.857 24.068 135.959 23.732C136.071 23.3867 136.193 23.0413 136.323 22.696L137.653 19.126H139.193L136.519 26H134.685ZM144.382 26.168C143.859 26.168 143.369 26.0887 142.912 25.93C142.454 25.762 142.053 25.524 141.708 25.216C141.372 24.908 141.106 24.53 140.91 24.082C140.714 23.634 140.616 23.1253 140.616 22.556C140.616 21.996 140.714 21.4967 140.91 21.058C141.106 20.61 141.367 20.232 141.694 19.924C142.03 19.6067 142.408 19.3687 142.828 19.21C143.257 19.042 143.705 18.958 144.172 18.958C144.685 18.958 145.138 19.042 145.53 19.21C145.922 19.3687 146.253 19.5927 146.524 19.882C146.794 20.162 147 20.5027 147.14 20.904C147.28 21.3053 147.35 21.744 147.35 22.22C147.35 22.3787 147.34 22.5327 147.322 22.682C147.312 22.822 147.298 22.9387 147.28 23.032H142.226C142.319 23.676 142.576 24.152 142.996 24.46C143.416 24.768 143.948 24.922 144.592 24.922C144.956 24.922 145.292 24.8707 145.6 24.768C145.908 24.6653 146.216 24.5253 146.524 24.348L147.07 25.356C146.706 25.5987 146.29 25.7947 145.824 25.944C145.366 26.0933 144.886 26.168 144.382 26.168ZM144.214 20.204C143.738 20.204 143.318 20.344 142.954 20.624C142.599 20.904 142.37 21.324 142.268 21.884H145.922C145.866 21.324 145.688 20.904 145.39 20.624C145.1 20.344 144.708 20.204 144.214 20.204ZM153.77 26.168C152.968 26.168 152.356 25.9347 151.936 25.468C151.526 25.0013 151.32 24.3433 151.32 23.494V17.39H149.024V16.116H152.93V23.578C152.93 24.0447 153.047 24.376 153.28 24.572C153.523 24.7587 153.817 24.852 154.162 24.852C154.526 24.852 154.918 24.7633 155.338 24.586L155.716 25.776C155.38 25.9067 155.072 26.0047 154.792 26.07C154.512 26.1353 154.172 26.168 153.77 26.168ZM158.469 28.828C158.282 28.828 158.105 28.814 157.937 28.786C157.769 28.7673 157.619 28.7347 157.489 28.688L157.797 27.428C157.89 27.456 157.983 27.4793 158.077 27.498C158.17 27.5167 158.268 27.526 158.371 27.526C158.809 27.526 159.159 27.414 159.421 27.19C159.682 26.9753 159.883 26.6953 160.023 26.35L160.191 25.916L157.111 19.126H158.721L160.135 22.5C160.265 22.808 160.391 23.1347 160.513 23.48C160.634 23.8253 160.76 24.1707 160.891 24.516H160.947C161.049 24.1893 161.161 23.8533 161.283 23.508C161.404 23.1627 161.521 22.8267 161.633 22.5L162.879 19.126H164.405L161.535 26.308C161.385 26.7 161.217 27.05 161.031 27.358C160.853 27.666 160.643 27.9273 160.401 28.142C160.158 28.366 159.878 28.534 159.561 28.646C159.243 28.7673 158.879 28.828 158.469 28.828ZM178.156 26.168C177.615 26.168 177.111 26.0887 176.644 25.93C176.187 25.7713 175.785 25.538 175.44 25.23C175.104 24.922 174.838 24.544 174.642 24.096C174.455 23.648 174.362 23.1393 174.362 22.57C174.362 22.0007 174.465 21.492 174.67 21.044C174.885 20.596 175.169 20.218 175.524 19.91C175.879 19.602 176.294 19.3687 176.77 19.21C177.246 19.042 177.745 18.958 178.268 18.958C178.828 18.958 179.318 19.0513 179.738 19.238C180.167 19.4247 180.527 19.6533 180.816 19.924L180.046 20.932C179.775 20.7173 179.5 20.554 179.22 20.442C178.949 20.33 178.66 20.274 178.352 20.274C177.661 20.274 177.101 20.484 176.672 20.904C176.243 21.3147 176.028 21.87 176.028 22.57C176.028 22.9153 176.084 23.228 176.196 23.508C176.308 23.788 176.462 24.0307 176.658 24.236C176.863 24.432 177.106 24.586 177.386 24.698C177.666 24.8007 177.974 24.852 178.31 24.852C178.702 24.852 179.057 24.7773 179.374 24.628C179.701 24.4787 179.999 24.3013 180.27 24.096L180.942 25.132C180.541 25.4773 180.097 25.7387 179.612 25.916C179.136 26.084 178.651 26.168 178.156 26.168ZM185.934 26.168C185.486 26.168 185.052 26.0887 184.632 25.93C184.212 25.7713 183.844 25.538 183.526 25.23C183.209 24.922 182.952 24.544 182.756 24.096C182.57 23.648 182.476 23.1393 182.476 22.57C182.476 22.0007 182.57 21.492 182.756 21.044C182.952 20.596 183.209 20.218 183.526 19.91C183.844 19.602 184.212 19.3687 184.632 19.21C185.052 19.042 185.486 18.958 185.934 18.958C186.382 18.958 186.816 19.042 187.236 19.21C187.656 19.3687 188.025 19.602 188.342 19.91C188.66 20.218 188.912 20.596 189.098 21.044C189.294 21.492 189.392 22.0007 189.392 22.57C189.392 23.1393 189.294 23.648 189.098 24.096C188.912 24.544 188.66 24.922 188.342 25.23C188.025 25.538 187.656 25.7713 187.236 25.93C186.816 26.0887 186.382 26.168 185.934 26.168ZM185.934 24.852C186.494 24.852 186.933 24.6467 187.25 24.236C187.568 23.816 187.726 23.2607 187.726 22.57C187.726 21.87 187.568 21.3147 187.25 20.904C186.933 20.484 186.494 20.274 185.934 20.274C185.374 20.274 184.936 20.484 184.618 20.904C184.301 21.3147 184.142 21.87 184.142 22.57C184.142 23.2607 184.301 23.816 184.618 24.236C184.936 24.6467 185.374 24.852 185.934 24.852ZM191.949 26V19.126H193.279L193.419 20.68H193.461C193.816 20.12 194.24 19.6953 194.735 19.406C195.239 19.1073 195.79 18.958 196.387 18.958C196.667 18.958 196.905 18.9813 197.101 19.028C197.306 19.0653 197.512 19.1353 197.717 19.238L197.381 20.596C197.157 20.5213 196.956 20.47 196.779 20.442C196.611 20.4047 196.396 20.386 196.135 20.386C195.659 20.386 195.202 20.5213 194.763 20.792C194.324 21.0627 193.928 21.534 193.573 22.206V26H191.949ZM200.343 26V19.126H201.673L201.813 20.68H201.855C202.21 20.12 202.635 19.6953 203.129 19.406C203.633 19.1073 204.184 18.958 204.781 18.958C205.061 18.958 205.299 18.9813 205.495 19.028C205.701 19.0653 205.906 19.1353 206.111 19.238L205.775 20.596C205.551 20.5213 205.351 20.47 205.173 20.442C205.005 20.4047 204.791 20.386 204.529 20.386C204.053 20.386 203.596 20.5213 203.157 20.792C202.719 21.0627 202.322 21.534 201.967 22.206V26H200.343ZM211.538 26.168C211.015 26.168 210.525 26.0887 210.068 25.93C209.611 25.762 209.209 25.524 208.864 25.216C208.528 24.908 208.262 24.53 208.066 24.082C207.87 23.634 207.772 23.1253 207.772 22.556C207.772 21.996 207.87 21.4967 208.066 21.058C208.262 20.61 208.523 20.232 208.85 19.924C209.186 19.6067 209.564 19.3687 209.984 19.21C210.413 19.042 210.861 18.958 211.328 18.958C211.841 18.958 212.294 19.042 212.686 19.21C213.078 19.3687 213.409 19.5927 213.68 19.882C213.951 20.162 214.156 20.5027 214.296 20.904C214.436 21.3053 214.506 21.744 214.506 22.22C214.506 22.3787 214.497 22.5327 214.478 22.682C214.469 22.822 214.455 22.9387 214.436 23.032H209.382C209.475 23.676 209.732 24.152 210.152 24.46C210.572 24.768 211.104 24.922 211.748 24.922C212.112 24.922 212.448 24.8707 212.756 24.768C213.064 24.6653 213.372 24.5253 213.68 24.348L214.226 25.356C213.862 25.5987 213.447 25.7947 212.98 25.944C212.523 26.0933 212.042 26.168 211.538 26.168ZM211.37 20.204C210.894 20.204 210.474 20.344 210.11 20.624C209.755 20.904 209.527 21.324 209.424 21.884H213.078C213.022 21.324 212.845 20.904 212.546 20.624C212.257 20.344 211.865 20.204 211.37 20.204ZM220.927 26.168C220.124 26.168 219.513 25.9347 219.093 25.468C218.682 25.0013 218.477 24.3433 218.477 23.494V17.39H216.181V16.116H220.087V23.578C220.087 24.0447 220.203 24.376 220.437 24.572C220.679 24.7587 220.973 24.852 221.319 24.852C221.683 24.852 222.075 24.7633 222.495 24.586L222.873 25.776C222.537 25.9067 222.229 26.0047 221.949 26.07C221.669 26.1353 221.328 26.168 220.927 26.168ZM226.997 26.168C226.661 26.168 226.353 26.1167 226.073 26.014C225.793 25.9207 225.55 25.7853 225.345 25.608C225.14 25.4307 224.981 25.2207 224.869 24.978C224.757 24.726 224.701 24.4507 224.701 24.152C224.701 23.7693 224.79 23.4333 224.967 23.144C225.144 22.8453 225.424 22.5933 225.807 22.388C226.19 22.1827 226.68 22.0147 227.277 21.884C227.874 21.7533 228.598 21.66 229.447 21.604C229.419 21.212 229.279 20.89 229.027 20.638C228.775 20.386 228.369 20.26 227.809 20.26C227.417 20.26 227.03 20.3347 226.647 20.484C226.274 20.624 225.91 20.792 225.555 20.988L224.967 19.91C225.387 19.6673 225.868 19.448 226.409 19.252C226.95 19.056 227.515 18.958 228.103 18.958C229.064 18.958 229.797 19.2147 230.301 19.728C230.805 20.232 231.057 20.9647 231.057 21.926V26H229.741L229.615 25.146H229.573C229.209 25.426 228.803 25.6687 228.355 25.874C227.916 26.07 227.464 26.168 226.997 26.168ZM227.487 24.908C227.832 24.908 228.164 24.8333 228.481 24.684C228.808 24.5253 229.13 24.32 229.447 24.068V22.612C228.831 22.6587 228.318 22.724 227.907 22.808C227.496 22.8827 227.17 22.9807 226.927 23.102C226.684 23.2233 226.512 23.3633 226.409 23.522C226.306 23.6713 226.255 23.8393 226.255 24.026C226.255 24.334 226.372 24.558 226.605 24.698C226.848 24.838 227.142 24.908 227.487 24.908ZM237.576 26.168C237.053 26.168 236.61 26.098 236.246 25.958C235.891 25.818 235.602 25.622 235.378 25.37C235.163 25.1087 235.004 24.796 234.902 24.432C234.808 24.068 234.762 23.6667 234.762 23.228V20.4H232.928V19.196L234.832 19.126L235.042 16.97H236.372V19.126H239.508V20.4H236.372V23.228C236.372 23.7973 236.488 24.2173 236.722 24.488C236.964 24.7493 237.38 24.88 237.968 24.88C238.257 24.88 238.523 24.8567 238.766 24.81C239.008 24.754 239.242 24.684 239.466 24.6L239.774 25.776C239.466 25.8787 239.134 25.9673 238.78 26.042C238.425 26.126 238.024 26.168 237.576 26.168ZM245.116 26.168C244.593 26.168 244.103 26.0887 243.646 25.93C243.189 25.762 242.787 25.524 242.442 25.216C242.106 24.908 241.84 24.53 241.644 24.082C241.448 23.634 241.35 23.1253 241.35 22.556C241.35 21.996 241.448 21.4967 241.644 21.058C241.84 20.61 242.101 20.232 242.428 19.924C242.764 19.6067 243.142 19.3687 243.562 19.21C243.991 19.042 244.439 18.958 244.906 18.958C245.419 18.958 245.872 19.042 246.264 19.21C246.656 19.3687 246.987 19.5927 247.258 19.882C247.529 20.162 247.734 20.5027 247.874 20.904C248.014 21.3053 248.084 21.744 248.084 22.22C248.084 22.3787 248.075 22.5327 248.056 22.682C248.047 22.822 248.033 22.9387 248.014 23.032H242.96C243.053 23.676 243.31 24.152 243.73 24.46C244.15 24.768 244.682 24.922 245.326 24.922C245.69 24.922 246.026 24.8707 246.334 24.768C246.642 24.6653 246.95 24.5253 247.258 24.348L247.804 25.356C247.44 25.5987 247.025 25.7947 246.558 25.944C246.101 26.0933 245.62 26.168 245.116 26.168ZM244.948 20.204C244.472 20.204 244.052 20.344 243.688 20.624C243.333 20.904 243.105 21.324 243.002 21.884H246.656C246.6 21.324 246.423 20.904 246.124 20.624C245.835 20.344 245.443 20.204 244.948 20.204ZM252.573 26.168C252.134 26.168 251.733 26.0887 251.369 25.93C251.005 25.762 250.692 25.524 250.431 25.216C250.179 24.908 249.983 24.5347 249.843 24.096C249.703 23.648 249.633 23.1393 249.633 22.57C249.633 22.01 249.717 21.506 249.885 21.058C250.053 20.61 250.277 20.232 250.557 19.924C250.846 19.616 251.173 19.378 251.537 19.21C251.901 19.042 252.279 18.958 252.671 18.958C253.063 18.958 253.408 19.028 253.707 19.168C254.005 19.308 254.29 19.5087 254.561 19.77H254.603L254.519 18.608V16.116H256.143V26H254.813L254.687 25.202H254.645C254.374 25.4727 254.057 25.7013 253.693 25.888C253.338 26.0747 252.965 26.168 252.573 26.168ZM252.965 24.838C253.534 24.838 254.052 24.5627 254.519 24.012V20.918C254.276 20.6847 254.033 20.5213 253.791 20.428C253.548 20.3347 253.301 20.288 253.049 20.288C252.806 20.288 252.577 20.3393 252.363 20.442C252.157 20.5447 251.975 20.694 251.817 20.89C251.658 21.0767 251.532 21.31 251.439 21.59C251.345 21.87 251.299 22.192 251.299 22.556C251.299 23.3027 251.443 23.872 251.733 24.264C252.022 24.6467 252.433 24.838 252.965 24.838ZM270.496 26.168C269.954 26.168 269.45 26.0887 268.984 25.93C268.526 25.7713 268.125 25.538 267.78 25.23C267.444 24.922 267.178 24.544 266.982 24.096C266.795 23.648 266.702 23.1393 266.702 22.57C266.702 22.0007 266.804 21.492 267.01 21.044C267.224 20.596 267.509 20.218 267.864 19.91C268.218 19.602 268.634 19.3687 269.11 19.21C269.586 19.042 270.085 18.958 270.608 18.958C271.168 18.958 271.658 19.0513 272.078 19.238C272.507 19.4247 272.866 19.6533 273.156 19.924L272.386 20.932C272.115 20.7173 271.84 20.554 271.56 20.442C271.289 20.33 271 20.274 270.692 20.274C270.001 20.274 269.441 20.484 269.012 20.904C268.582 21.3147 268.368 21.87 268.368 22.57C268.368 22.9153 268.424 23.228 268.536 23.508C268.648 23.788 268.802 24.0307 268.998 24.236C269.203 24.432 269.446 24.586 269.726 24.698C270.006 24.8007 270.314 24.852 270.65 24.852C271.042 24.852 271.396 24.7773 271.714 24.628C272.04 24.4787 272.339 24.3013 272.61 24.096L273.282 25.132C272.88 25.4773 272.437 25.7387 271.952 25.916C271.476 26.084 270.99 26.168 270.496 26.168ZM278.274 26.168C277.826 26.168 277.392 26.0887 276.972 25.93C276.552 25.7713 276.184 25.538 275.866 25.23C275.549 24.922 275.292 24.544 275.096 24.096C274.91 23.648 274.816 23.1393 274.816 22.57C274.816 22.0007 274.91 21.492 275.096 21.044C275.292 20.596 275.549 20.218 275.866 19.91C276.184 19.602 276.552 19.3687 276.972 19.21C277.392 19.042 277.826 18.958 278.274 18.958C278.722 18.958 279.156 19.042 279.576 19.21C279.996 19.3687 280.365 19.602 280.682 19.91C281 20.218 281.252 20.596 281.438 21.044C281.634 21.492 281.732 22.0007 281.732 22.57C281.732 23.1393 281.634 23.648 281.438 24.096C281.252 24.544 281 24.922 280.682 25.23C280.365 25.538 279.996 25.7713 279.576 25.93C279.156 26.0887 278.722 26.168 278.274 26.168ZM278.274 24.852C278.834 24.852 279.273 24.6467 279.59 24.236C279.908 23.816 280.066 23.2607 280.066 22.57C280.066 21.87 279.908 21.3147 279.59 20.904C279.273 20.484 278.834 20.274 278.274 20.274C277.714 20.274 277.276 20.484 276.958 20.904C276.641 21.3147 276.482 21.87 276.482 22.57C276.482 23.2607 276.641 23.816 276.958 24.236C277.276 24.6467 277.714 24.852 278.274 24.852ZM288.083 26.168C287.28 26.168 286.669 25.9347 286.249 25.468C285.838 25.0013 285.633 24.3433 285.633 23.494V17.39H283.337V16.116H287.243V23.578C287.243 24.0447 287.359 24.376 287.593 24.572C287.835 24.7587 288.129 24.852 288.475 24.852C288.839 24.852 289.231 24.7633 289.651 24.586L290.029 25.776C289.693 25.9067 289.385 26.0047 289.105 26.07C288.825 26.1353 288.484 26.168 288.083 26.168ZM294.139 26.168C293.337 26.168 292.753 25.93 292.389 25.454C292.025 24.9687 291.843 24.278 291.843 23.382V19.126H293.453V23.172C293.453 23.732 293.547 24.1427 293.733 24.404C293.929 24.656 294.265 24.782 294.741 24.782C295.068 24.782 295.357 24.7073 295.609 24.558C295.871 24.4087 296.155 24.1427 296.463 23.76V19.126H298.073V26H296.757L296.631 24.908H296.575C296.249 25.2907 295.889 25.5987 295.497 25.832C295.105 26.056 294.653 26.168 294.139 26.168ZM299.902 26V19.126H301.148L301.274 19.994H301.316C301.465 19.6953 301.656 19.448 301.89 19.252C302.123 19.056 302.44 18.958 302.842 18.958C303.486 18.958 303.901 19.3407 304.088 20.106C304.246 19.77 304.447 19.4947 304.69 19.28C304.932 19.0653 305.254 18.958 305.656 18.958C306.141 18.958 306.514 19.1493 306.776 19.532C307.046 19.9053 307.182 20.4373 307.182 21.128V26H305.628V21.24C305.628 20.6333 305.446 20.33 305.082 20.33C304.895 20.33 304.736 20.4047 304.606 20.554C304.484 20.694 304.354 20.9087 304.214 21.198V26H302.87V21.24C302.87 20.9413 302.828 20.7173 302.744 20.568C302.66 20.4093 302.52 20.33 302.324 20.33C302.137 20.33 301.978 20.4047 301.848 20.554C301.726 20.694 301.6 20.9087 301.47 21.198V26H299.902ZM308.8 26V19.126H310.13L310.256 20.162H310.312C310.639 19.8353 310.998 19.5553 311.39 19.322C311.792 19.0793 312.258 18.958 312.79 18.958C313.584 18.958 314.167 19.2007 314.54 19.686C314.914 20.162 315.1 20.848 315.1 21.744V26H313.476V21.954C313.476 21.394 313.378 20.988 313.182 20.736C312.996 20.4747 312.664 20.344 312.188 20.344C311.852 20.344 311.554 20.4233 311.292 20.582C311.031 20.7407 310.742 20.9833 310.424 21.31V26H308.8ZM320.289 26.168C319.645 26.168 319.029 26.0653 318.441 25.86C317.853 25.6453 317.344 25.3933 316.915 25.104L317.615 24.082C318.035 24.3527 318.478 24.5673 318.945 24.726C319.421 24.8753 319.939 24.95 320.499 24.95C320.975 24.95 321.325 24.8707 321.549 24.712C321.782 24.5533 321.899 24.3573 321.899 24.124C321.899 24.012 321.876 23.914 321.829 23.83C321.782 23.7367 321.689 23.648 321.549 23.564C321.409 23.48 321.213 23.4007 320.961 23.326C320.718 23.2513 320.396 23.172 319.995 23.088C319.071 22.9013 318.394 22.64 317.965 22.304C317.545 21.968 317.335 21.5387 317.335 21.016C317.335 20.4093 317.596 19.9147 318.119 19.532C318.642 19.1493 319.388 18.958 320.359 18.958C320.928 18.958 321.46 19.0513 321.955 19.238C322.45 19.4247 322.874 19.6347 323.229 19.868L322.487 20.862C322.151 20.6473 321.792 20.4793 321.409 20.358C321.026 20.2367 320.63 20.176 320.219 20.176C319.762 20.176 319.435 20.2507 319.239 20.4C319.043 20.54 318.945 20.7173 318.945 20.932C318.945 21.1747 319.085 21.3567 319.365 21.478C319.645 21.5993 320.102 21.73 320.737 21.87C321.288 21.9913 321.74 22.122 322.095 22.262C322.45 22.402 322.73 22.5607 322.935 22.738C323.15 22.906 323.299 23.0973 323.383 23.312C323.467 23.5267 323.509 23.7693 323.509 24.04C323.509 24.3387 323.439 24.6187 323.299 24.88C323.159 25.132 322.954 25.356 322.683 25.552C322.412 25.7387 322.076 25.888 321.675 26C321.274 26.112 320.812 26.168 320.289 26.168Z" fill="#31CB8A"/>
<g style="mix-blend-mode:multiply">
<path d="M86.8778 68V58.844H89.7198C90.1958 58.844 90.6298 58.886 91.0218 58.97C91.4232 59.0447 91.7638 59.1707 92.0438 59.348C92.3332 59.516 92.5572 59.7447 92.7158 60.034C92.8838 60.3233 92.9678 60.678 92.9678 61.098C92.9678 61.5367 92.8372 61.9427 92.5758 62.316C92.3238 62.6893 91.9272 62.946 91.3858 63.086V63.142C92.0485 63.254 92.5572 63.4873 92.9118 63.842C93.2665 64.1967 93.4438 64.6867 93.4438 65.312C93.4438 65.7693 93.3552 66.166 93.1778 66.502C93.0098 66.838 92.7672 67.118 92.4498 67.342C92.1418 67.566 91.7732 67.734 91.3438 67.846C90.9238 67.9487 90.4618 68 89.9578 68H86.8778ZM88.5018 62.61H89.5798C90.2238 62.61 90.6812 62.498 90.9518 62.274C91.2318 62.05 91.3718 61.7233 91.3718 61.294C91.3718 60.874 91.2272 60.58 90.9378 60.412C90.6485 60.2347 90.2052 60.146 89.6078 60.146H88.5018V62.61ZM88.5018 66.698H89.7898C90.4618 66.698 90.9705 66.5813 91.3158 66.348C91.6705 66.1053 91.8478 65.7227 91.8478 65.2C91.8478 64.7147 91.6752 64.3693 91.3298 64.164C90.9938 63.9493 90.4805 63.842 89.7898 63.842H88.5018V66.698ZM98.2264 68V62.4H95.2444V61.126H99.8364V68H98.2264ZM98.9264 59.866C98.5997 59.866 98.3244 59.768 98.1004 59.572C97.8857 59.376 97.7784 59.1147 97.7784 58.788C97.7784 58.4613 97.8857 58.2 98.1004 58.004C98.3244 57.7987 98.5997 57.696 98.9264 57.696C99.253 57.696 99.5237 57.7987 99.7384 58.004C99.9624 58.2 100.074 58.4613 100.074 58.788C100.074 59.1147 99.9624 59.376 99.7384 59.572C99.5237 59.768 99.253 59.866 98.9264 59.866ZM103.723 68V58.116H105.347V64.304H105.403L108.497 61.126H110.289L107.615 63.87L110.583 68H108.819L106.649 64.864L105.347 66.208V68H103.723ZM115.477 68.168C114.955 68.168 114.465 68.0887 114.007 67.93C113.55 67.762 113.149 67.524 112.803 67.216C112.467 66.908 112.201 66.53 112.005 66.082C111.809 65.634 111.711 65.1253 111.711 64.556C111.711 63.996 111.809 63.4967 112.005 63.058C112.201 62.61 112.463 62.232 112.789 61.924C113.125 61.6067 113.503 61.3687 113.923 61.21C114.353 61.042 114.801 60.958 115.267 60.958C115.781 60.958 116.233 61.042 116.625 61.21C117.017 61.3687 117.349 61.5927 117.619 61.882C117.89 62.162 118.095 62.5027 118.235 62.904C118.375 63.3053 118.445 63.744 118.445 64.22C118.445 64.3787 118.436 64.5327 118.417 64.682C118.408 64.822 118.394 64.9387 118.375 65.032H113.321C113.415 65.676 113.671 66.152 114.091 66.46C114.511 66.768 115.043 66.922 115.687 66.922C116.051 66.922 116.387 66.8707 116.695 66.768C117.003 66.6653 117.311 66.5253 117.619 66.348L118.165 67.356C117.801 67.5987 117.386 67.7947 116.919 67.944C116.462 68.0933 115.981 68.168 115.477 68.168ZM115.309 62.204C114.833 62.204 114.413 62.344 114.049 62.624C113.695 62.904 113.466 63.324 113.363 63.884H117.017C116.961 63.324 116.784 62.904 116.485 62.624C116.196 62.344 115.804 62.204 115.309 62.204ZM128.822 68V58.844H131.874C132.35 58.844 132.794 58.8907 133.204 58.984C133.615 59.0773 133.97 59.2313 134.268 59.446C134.576 59.6513 134.814 59.9267 134.982 60.272C135.16 60.6173 135.248 61.0467 135.248 61.56C135.248 62.26 135.08 62.8247 134.744 63.254C134.418 63.6833 133.979 63.9913 133.428 64.178L135.612 68H133.778L131.818 64.416H130.446V68H128.822ZM130.446 63.128H131.706C132.341 63.128 132.822 62.9973 133.148 62.736C133.484 62.4747 133.652 62.0827 133.652 61.56C133.652 61.028 133.484 60.6593 133.148 60.454C132.822 60.2487 132.341 60.146 131.706 60.146H130.446V63.128ZM140.661 68.168C140.138 68.168 139.648 68.0887 139.191 67.93C138.734 67.762 138.332 67.524 137.987 67.216C137.651 66.908 137.385 66.53 137.189 66.082C136.993 65.634 136.895 65.1253 136.895 64.556C136.895 63.996 136.993 63.4967 137.189 63.058C137.385 62.61 137.646 62.232 137.973 61.924C138.309 61.6067 138.687 61.3687 139.107 61.21C139.536 61.042 139.984 60.958 140.451 60.958C140.964 60.958 141.417 61.042 141.809 61.21C142.201 61.3687 142.532 61.5927 142.803 61.882C143.074 62.162 143.279 62.5027 143.419 62.904C143.559 63.3053 143.629 63.744 143.629 64.22C143.629 64.3787 143.62 64.5327 143.601 64.682C143.592 64.822 143.578 64.9387 143.559 65.032H138.505C138.598 65.676 138.855 66.152 139.275 66.46C139.695 66.768 140.227 66.922 140.871 66.922C141.235 66.922 141.571 66.8707 141.879 66.768C142.187 66.6653 142.495 66.5253 142.803 66.348L143.349 67.356C142.985 67.5987 142.57 67.7947 142.103 67.944C141.646 68.0933 141.165 68.168 140.661 68.168ZM140.493 62.204C140.017 62.204 139.597 62.344 139.233 62.624C138.878 62.904 138.65 63.324 138.547 63.884H142.201C142.145 63.324 141.968 62.904 141.669 62.624C141.38 62.344 140.988 62.204 140.493 62.204ZM145.584 68V61.126H146.914L147.04 62.162H147.096C147.422 61.8353 147.782 61.5553 148.174 61.322C148.575 61.0793 149.042 60.958 149.574 60.958C150.367 60.958 150.95 61.2007 151.324 61.686C151.697 62.162 151.884 62.848 151.884 63.744V68H150.26V63.954C150.26 63.394 150.162 62.988 149.966 62.736C149.779 62.4747 149.448 62.344 148.972 62.344C148.636 62.344 148.337 62.4233 148.076 62.582C147.814 62.7407 147.525 62.9833 147.208 63.31V68H145.584ZM158.304 68.168C157.781 68.168 157.338 68.098 156.974 67.958C156.619 67.818 156.33 67.622 156.106 67.37C155.891 67.1087 155.733 66.796 155.63 66.432C155.537 66.068 155.49 65.6667 155.49 65.228V62.4H153.656V61.196L155.56 61.126L155.77 58.97H157.1V61.126H160.236V62.4H157.1V65.228C157.1 65.7973 157.217 66.2173 157.45 66.488C157.693 66.7493 158.108 66.88 158.696 66.88C158.985 66.88 159.251 66.8567 159.494 66.81C159.737 66.754 159.97 66.684 160.194 66.6L160.502 67.776C160.194 67.8787 159.863 67.9673 159.508 68.042C159.153 68.126 158.752 68.168 158.304 68.168ZM164.515 68.168C164.179 68.168 163.871 68.1167 163.591 68.014C163.311 67.9207 163.068 67.7853 162.863 67.608C162.657 67.4307 162.499 67.2207 162.387 66.978C162.275 66.726 162.219 66.4507 162.219 66.152C162.219 65.7693 162.307 65.4333 162.485 65.144C162.662 64.8453 162.942 64.5933 163.325 64.388C163.707 64.1827 164.197 64.0147 164.795 63.884C165.392 63.7533 166.115 63.66 166.965 63.604C166.937 63.212 166.797 62.89 166.545 62.638C166.293 62.386 165.887 62.26 165.327 62.26C164.935 62.26 164.547 62.3347 164.165 62.484C163.791 62.624 163.427 62.792 163.073 62.988L162.485 61.91C162.905 61.6673 163.385 61.448 163.927 61.252C164.468 61.056 165.033 60.958 165.621 60.958C166.582 60.958 167.315 61.2147 167.819 61.728C168.323 62.232 168.575 62.9647 168.575 63.926V68H167.259L167.133 67.146H167.091C166.727 67.426 166.321 67.6687 165.873 67.874C165.434 68.07 164.981 68.168 164.515 68.168ZM165.005 66.908C165.35 66.908 165.681 66.8333 165.999 66.684C166.325 66.5253 166.647 66.32 166.965 66.068V64.612C166.349 64.6587 165.835 64.724 165.425 64.808C165.014 64.8827 164.687 64.9807 164.445 65.102C164.202 65.2233 164.029 65.3633 163.927 65.522C163.824 65.6713 163.773 65.8393 163.773 66.026C163.773 66.334 163.889 66.558 164.123 66.698C164.365 66.838 164.659 66.908 165.005 66.908ZM175.233 68.168C174.43 68.168 173.819 67.9347 173.399 67.468C172.988 67.0013 172.783 66.3433 172.783 65.494V59.39H170.487V58.116H174.393V65.578C174.393 66.0447 174.51 66.376 174.743 66.572C174.986 66.7587 175.28 66.852 175.625 66.852C175.989 66.852 176.381 66.7633 176.801 66.586L177.179 67.776C176.843 67.9067 176.535 68.0047 176.255 68.07C175.975 68.1353 175.634 68.168 175.233 68.168ZM182.256 68.168C181.612 68.168 180.996 68.0653 180.408 67.86C179.82 67.6453 179.311 67.3933 178.882 67.104L179.582 66.082C180.002 66.3527 180.445 66.5673 180.912 66.726C181.388 66.8753 181.906 66.95 182.466 66.95C182.942 66.95 183.292 66.8707 183.516 66.712C183.749 66.5533 183.866 66.3573 183.866 66.124C183.866 66.012 183.842 65.914 183.796 65.83C183.749 65.7367 183.656 65.648 183.516 65.564C183.376 65.48 183.18 65.4007 182.928 65.326C182.685 65.2513 182.363 65.172 181.962 65.088C181.038 64.9013 180.361 64.64 179.932 64.304C179.512 63.968 179.302 63.5387 179.302 63.016C179.302 62.4093 179.563 61.9147 180.086 61.532C180.608 61.1493 181.355 60.958 182.326 60.958C182.895 60.958 183.427 61.0513 183.922 61.238C184.416 61.4247 184.841 61.6347 185.196 61.868L184.454 62.862C184.118 62.6473 183.758 62.4793 183.376 62.358C182.993 62.2367 182.596 62.176 182.186 62.176C181.728 62.176 181.402 62.2507 181.206 62.4C181.01 62.54 180.912 62.7173 180.912 62.932C180.912 63.1747 181.052 63.3567 181.332 63.478C181.612 63.5993 182.069 63.73 182.704 63.87C183.254 63.9913 183.707 64.122 184.062 64.262C184.416 64.402 184.696 64.5607 184.902 64.738C185.116 64.906 185.266 65.0973 185.35 65.312C185.434 65.5267 185.476 65.7693 185.476 66.04C185.476 66.3387 185.406 66.6187 185.266 66.88C185.126 67.132 184.92 67.356 184.65 67.552C184.379 67.7387 184.043 67.888 183.642 68C183.24 68.112 182.778 68.168 182.256 68.168ZM198.121 68L195.377 61.126H197.001L198.331 64.696C198.461 65.0413 198.578 65.3867 198.681 65.732C198.793 66.068 198.905 66.4133 199.017 66.768H199.073C199.185 66.4133 199.292 66.068 199.395 65.732C199.507 65.3867 199.628 65.0413 199.759 64.696L201.089 61.126H202.629L199.955 68H198.121ZM207.439 68.168C206.795 68.168 206.179 68.0653 205.591 67.86C205.003 67.6453 204.495 67.3933 204.065 67.104L204.765 66.082C205.185 66.3527 205.629 66.5673 206.095 66.726C206.571 66.8753 207.089 66.95 207.649 66.95C208.125 66.95 208.475 66.8707 208.699 66.712C208.933 66.5533 209.049 66.3573 209.049 66.124C209.049 66.012 209.026 65.914 208.979 65.83C208.933 65.7367 208.839 65.648 208.699 65.564C208.559 65.48 208.363 65.4007 208.111 65.326C207.869 65.2513 207.547 65.172 207.145 65.088C206.221 64.9013 205.545 64.64 205.115 64.304C204.695 63.968 204.485 63.5387 204.485 63.016C204.485 62.4093 204.747 61.9147 205.269 61.532C205.792 61.1493 206.539 60.958 207.509 60.958C208.079 60.958 208.611 61.0513 209.105 61.238C209.6 61.4247 210.025 61.6347 210.379 61.868L209.637 62.862C209.301 62.6473 208.942 62.4793 208.559 62.358C208.177 62.2367 207.78 62.176 207.369 62.176C206.912 62.176 206.585 62.2507 206.389 62.4C206.193 62.54 206.095 62.7173 206.095 62.932C206.095 63.1747 206.235 63.3567 206.515 63.478C206.795 63.5993 207.253 63.73 207.887 63.87C208.438 63.9913 208.891 64.122 209.245 64.262C209.6 64.402 209.88 64.5607 210.085 64.738C210.3 64.906 210.449 65.0973 210.533 65.312C210.617 65.5267 210.659 65.7693 210.659 66.04C210.659 66.3387 210.589 66.6187 210.449 66.88C210.309 67.132 210.104 67.356 209.833 67.552C209.563 67.7387 209.227 67.888 208.825 68C208.424 68.112 207.962 68.168 207.439 68.168ZM223.374 68V60.216H220.49V58.844H227.882V60.216H224.998V68H223.374ZM233.001 68.168C232.478 68.168 231.988 68.0887 231.531 67.93C231.074 67.762 230.672 67.524 230.327 67.216C229.991 66.908 229.725 66.53 229.529 66.082C229.333 65.634 229.235 65.1253 229.235 64.556C229.235 63.996 229.333 63.4967 229.529 63.058C229.725 62.61 229.986 62.232 230.313 61.924C230.649 61.6067 231.027 61.3687 231.447 61.21C231.876 61.042 232.324 60.958 232.791 60.958C233.304 60.958 233.757 61.042 234.149 61.21C234.541 61.3687 234.872 61.5927 235.143 61.882C235.414 62.162 235.619 62.5027 235.759 62.904C235.899 63.3053 235.969 63.744 235.969 64.22C235.969 64.3787 235.96 64.5327 235.941 64.682C235.932 64.822 235.918 64.9387 235.899 65.032H230.845C230.938 65.676 231.195 66.152 231.615 66.46C232.035 66.768 232.567 66.922 233.211 66.922C233.575 66.922 233.911 66.8707 234.219 66.768C234.527 66.6653 234.835 66.5253 235.143 66.348L235.689 67.356C235.325 67.5987 234.91 67.7947 234.443 67.944C233.986 68.0933 233.505 68.168 233.001 68.168ZM232.833 62.204C232.357 62.204 231.937 62.344 231.573 62.624C231.218 62.904 230.99 63.324 230.887 63.884H234.541C234.485 63.324 234.308 62.904 234.009 62.624C233.72 62.344 233.328 62.204 232.833 62.204ZM237.419 68V61.126H238.665L238.791 61.994H238.833C238.983 61.6953 239.174 61.448 239.407 61.252C239.641 61.056 239.958 60.958 240.359 60.958C241.003 60.958 241.419 61.3407 241.605 62.106C241.764 61.77 241.965 61.4947 242.207 61.28C242.45 61.0653 242.772 60.958 243.173 60.958C243.659 60.958 244.032 61.1493 244.293 61.532C244.564 61.9053 244.699 62.4373 244.699 63.128V68H243.145V63.24C243.145 62.6333 242.963 62.33 242.599 62.33C242.413 62.33 242.254 62.4047 242.123 62.554C242.002 62.694 241.871 62.9087 241.731 63.198V68H240.387V63.24C240.387 62.9413 240.345 62.7173 240.261 62.568C240.177 62.4093 240.037 62.33 239.841 62.33C239.655 62.33 239.496 62.4047 239.365 62.554C239.244 62.694 239.118 62.9087 238.987 63.198V68H237.419ZM246.318 70.716V61.126H247.648L247.774 61.91H247.816C248.115 61.6393 248.455 61.4153 248.838 61.238C249.23 61.0513 249.622 60.958 250.014 60.958C250.462 60.958 250.859 61.042 251.204 61.21C251.559 61.3687 251.853 61.602 252.086 61.91C252.329 62.218 252.511 62.5867 252.632 63.016C252.763 63.4453 252.828 63.926 252.828 64.458C252.828 65.046 252.744 65.5733 252.576 66.04C252.408 66.4973 252.179 66.8847 251.89 67.202C251.61 67.51 251.283 67.748 250.91 67.916C250.546 68.084 250.168 68.168 249.776 68.168C249.459 68.168 249.132 68.098 248.796 67.958C248.469 67.818 248.171 67.6173 247.9 67.356H247.858L247.942 68.56V70.716H246.318ZM249.44 66.838C249.935 66.838 250.345 66.642 250.672 66.25C250.999 65.8487 251.162 65.256 251.162 64.472C251.162 63.7813 251.036 63.2447 250.784 62.862C250.532 62.4793 250.126 62.288 249.566 62.288C249.305 62.288 249.039 62.3533 248.768 62.484C248.497 62.6147 248.222 62.8247 247.942 63.114V66.208C248.194 66.4413 248.451 66.6047 248.712 66.698C248.983 66.7913 249.225 66.838 249.44 66.838ZM258.184 68.168C257.662 68.168 257.172 68.0887 256.714 67.93C256.257 67.762 255.856 67.524 255.51 67.216C255.174 66.908 254.908 66.53 254.712 66.082C254.516 65.634 254.418 65.1253 254.418 64.556C254.418 63.996 254.516 63.4967 254.712 63.058C254.908 62.61 255.17 62.232 255.496 61.924C255.832 61.6067 256.21 61.3687 256.63 61.21C257.06 61.042 257.508 60.958 257.974 60.958C258.488 60.958 258.94 61.042 259.332 61.21C259.724 61.3687 260.056 61.5927 260.326 61.882C260.597 62.162 260.802 62.5027 260.942 62.904C261.082 63.3053 261.152 63.744 261.152 64.22C261.152 64.3787 261.143 64.5327 261.124 64.682C261.115 64.822 261.101 64.9387 261.082 65.032H256.028C256.122 65.676 256.378 66.152 256.798 66.46C257.218 66.768 257.75 66.922 258.394 66.922C258.758 66.922 259.094 66.8707 259.402 66.768C259.71 66.6653 260.018 66.5253 260.326 66.348L260.872 67.356C260.508 67.5987 260.093 67.7947 259.626 67.944C259.169 68.0933 258.688 68.168 258.184 68.168ZM258.016 62.204C257.54 62.204 257.12 62.344 256.756 62.624C256.402 62.904 256.173 63.324 256.07 63.884H259.724C259.668 63.324 259.491 62.904 259.192 62.624C258.903 62.344 258.511 62.204 258.016 62.204ZM263.779 68V61.126H265.109L265.249 62.68H265.291C265.646 62.12 266.07 61.6953 266.565 61.406C267.069 61.1073 267.62 60.958 268.217 60.958C268.497 60.958 268.735 60.9813 268.931 61.028C269.136 61.0653 269.342 61.1353 269.547 61.238L269.211 62.596C268.987 62.5213 268.786 62.47 268.609 62.442C268.441 62.4047 268.226 62.386 267.965 62.386C267.489 62.386 267.032 62.5213 266.593 62.792C266.154 63.0627 265.758 63.534 265.403 64.206V68H263.779ZM273.644 68.168C273.308 68.168 273 68.1167 272.72 68.014C272.44 67.9207 272.197 67.7853 271.992 67.608C271.786 67.4307 271.628 67.2207 271.516 66.978C271.404 66.726 271.348 66.4507 271.348 66.152C271.348 65.7693 271.436 65.4333 271.614 65.144C271.791 64.8453 272.071 64.5933 272.454 64.388C272.836 64.1827 273.326 64.0147 273.924 63.884C274.521 63.7533 275.244 63.66 276.094 63.604C276.066 63.212 275.926 62.89 275.674 62.638C275.422 62.386 275.016 62.26 274.456 62.26C274.064 62.26 273.676 62.3347 273.294 62.484C272.92 62.624 272.556 62.792 272.202 62.988L271.614 61.91C272.034 61.6673 272.514 61.448 273.056 61.252C273.597 61.056 274.162 60.958 274.75 60.958C275.711 60.958 276.444 61.2147 276.948 61.728C277.452 62.232 277.704 62.9647 277.704 63.926V68H276.388L276.262 67.146H276.22C275.856 67.426 275.45 67.6687 275.002 67.874C274.563 68.07 274.11 68.168 273.644 68.168ZM274.134 66.908C274.479 66.908 274.81 66.8333 275.128 66.684C275.454 66.5253 275.776 66.32 276.094 66.068V64.612C275.478 64.6587 274.964 64.724 274.554 64.808C274.143 64.8827 273.816 64.9807 273.574 65.102C273.331 65.2233 273.158 65.3633 273.056 65.522C272.953 65.6713 272.902 65.8393 272.902 66.026C272.902 66.334 273.018 66.558 273.252 66.698C273.494 66.838 273.788 66.908 274.134 66.908ZM284.222 68.168C283.699 68.168 283.256 68.098 282.892 67.958C282.537 67.818 282.248 67.622 282.024 67.37C281.809 67.1087 281.651 66.796 281.548 66.432C281.455 66.068 281.408 65.6667 281.408 65.228V62.4H279.574V61.196L281.478 61.126L281.688 58.97H283.018V61.126H286.154V62.4H283.018V65.228C283.018 65.7973 283.135 66.2173 283.368 66.488C283.611 66.7493 284.026 66.88 284.614 66.88C284.903 66.88 285.169 66.8567 285.412 66.81C285.655 66.754 285.888 66.684 286.112 66.6L286.42 67.776C286.112 67.8787 285.781 67.9673 285.426 68.042C285.071 68.126 284.67 68.168 284.222 68.168ZM290.419 68.168C289.616 68.168 289.033 67.93 288.669 67.454C288.305 66.9687 288.123 66.278 288.123 65.382V61.126H289.733V65.172C289.733 65.732 289.826 66.1427 290.013 66.404C290.209 66.656 290.545 66.782 291.021 66.782C291.347 66.782 291.637 66.7073 291.889 66.558C292.15 66.4087 292.435 66.1427 292.743 65.76V61.126H294.353V68H293.037L292.911 66.908H292.855C292.528 67.2907 292.169 67.5987 291.777 67.832C291.385 68.056 290.932 68.168 290.419 68.168ZM297.357 68V61.126H298.687L298.827 62.68H298.869C299.224 62.12 299.648 61.6953 300.143 61.406C300.647 61.1073 301.198 60.958 301.795 60.958C302.075 60.958 302.313 60.9813 302.509 61.028C302.714 61.0653 302.92 61.1353 303.125 61.238L302.789 62.596C302.565 62.5213 302.364 62.47 302.187 62.442C302.019 62.4047 301.804 62.386 301.543 62.386C301.067 62.386 300.61 62.5213 300.171 62.792C299.732 63.0627 299.336 63.534 298.981 64.206V68H297.357ZM308.552 68.168C308.029 68.168 307.539 68.0887 307.082 67.93C306.624 67.762 306.223 67.524 305.878 67.216C305.542 66.908 305.276 66.53 305.08 66.082C304.884 65.634 304.786 65.1253 304.786 64.556C304.786 63.996 304.884 63.4967 305.08 63.058C305.276 62.61 305.537 62.232 305.864 61.924C306.2 61.6067 306.578 61.3687 306.998 61.21C307.427 61.042 307.875 60.958 308.342 60.958C308.855 60.958 309.308 61.042 309.7 61.21C310.092 61.3687 310.423 61.5927 310.694 61.882C310.964 62.162 311.17 62.5027 311.31 62.904C311.45 63.3053 311.52 63.744 311.52 64.22C311.52 64.3787 311.51 64.5327 311.492 64.682C311.482 64.822 311.468 64.9387 311.45 65.032H306.396C306.489 65.676 306.746 66.152 307.166 66.46C307.586 66.768 308.118 66.922 308.762 66.922C309.126 66.922 309.462 66.8707 309.77 66.768C310.078 66.6653 310.386 66.5253 310.694 66.348L311.24 67.356C310.876 67.5987 310.46 67.7947 309.994 67.944C309.536 68.0933 309.056 68.168 308.552 68.168ZM308.384 62.204C307.908 62.204 307.488 62.344 307.124 62.624C306.769 62.904 306.54 63.324 306.438 63.884H310.092C310.036 63.324 309.858 62.904 309.56 62.624C309.27 62.344 308.878 62.204 308.384 62.204Z" fill="#30394B"/>
</g>
<line x1="53" y1="23" x2="65" y2="23" stroke="white" stroke-width="2"/>
<line x1="59" y1="29" x2="59" y2="17" stroke="white" stroke-width="2"/>
<defs>
<filter id="filter0_d" x="35" y="0" width="312" height="46" filterUnits="userSpaceOnUse" color-interpolation-filters="sRGB">
<feFlood flood-opacity="0" result="BackgroundImageFix"/>
<feColorMatrix in="SourceAlpha" type="matrix" values="0 0 0 0 0 0 0 0 0 0 0 0 0 0 0 0 0 0 127 0"/>
<feOffset/>
<feGaussianBlur stdDeviation="3"/>
<feColorMatrix type="matrix" values="0 0 0 0 0 0 0 0 0 0 0 0 0 0 0 0 0 0 0.1 0"/>
<feBlend mode="normal" in2="BackgroundImageFix" result="effect1_dropShadow"/>
<feBlend mode="normal" in="SourceGraphic" in2="effect1_dropShadow" result="shape"/>
</filter>
<linearGradient id="paint0_linear" x1="341" y1="95.5" x2="57" y2="278.5" gradientUnits="userSpaceOnUse">
<stop stop-color="#31CB8A"/>
<stop offset="1" stop-color="#31CB8A" stop-opacity="0"/>
</linearGradient>
</defs>
</svg>
