<svg width="435" height="309" viewBox="0 0 435 309" fill="none" xmlns="http://www.w3.org/2000/svg">
<g clip-path="url(#clip0)">
<rect width="435" height="309" fill="white"/>
<g style="mix-blend-mode:multiply" opacity="0.2" filter="url(#filter0_f)">
<rect x="26" y="32.7416" width="385" height="248" fill="url(#paint0_linear)"/>
</g>
<g style="mix-blend-mode:multiply" opacity="0.6">
<path d="M51.3536 47.6464C51.1583 47.4512 50.8417 47.4512 50.6464 47.6464L47.4645 50.8284C47.2692 51.0237 47.2692 51.3403 47.4645 51.5355C47.6597 51.7308 47.9763 51.7308 48.1716 51.5355L51 48.7071L53.8284 51.5355C54.0237 51.7308 54.3403 51.7308 54.5355 51.5355C54.7308 51.3403 54.7308 51.0237 54.5355 50.8284L51.3536 47.6464ZM50.5 48L50.5 264L51.5 264L51.5 48L50.5 48Z" fill="#4C5361"/>
</g>
<g style="mix-blend-mode:multiply" opacity="0.6">
<path d="M386.354 264.354C386.549 264.158 386.549 263.842 386.354 263.646L383.172 260.464C382.976 260.269 382.66 260.269 382.464 260.464C382.269 260.66 382.269 260.976 382.464 261.172L385.293 264L382.464 266.828C382.269 267.024 382.269 267.34 382.464 267.536C382.66 267.731 382.976 267.731 383.172 267.536L386.354 264.354ZM51 264.5L386 264.5L386 263.5L51 263.5L51 264.5Z" fill="#4C5361"/>
</g>
<path d="M40.1689 164.074C39.8564 164.074 39.6156 164.184 39.4463 164.406C39.277 164.624 39.1061 165.019 38.9336 165.592C38.7611 166.165 38.569 166.621 38.3574 166.959C37.9505 167.607 37.4199 167.931 36.7656 167.931C36.1927 167.931 35.7207 167.698 35.3496 167.233C34.9785 166.764 34.793 166.157 34.793 165.412C34.793 164.917 34.8841 164.476 35.0664 164.088C35.2487 163.701 35.5091 163.397 35.8477 163.175C36.1829 162.954 36.5557 162.843 36.9658 162.843V164.074C36.5947 164.074 36.305 164.191 36.0967 164.425C35.8851 164.656 35.7793 164.988 35.7793 165.421C35.7793 165.825 35.8656 166.139 36.0381 166.364C36.2106 166.585 36.4515 166.696 36.7607 166.696C37.0212 166.696 37.2393 166.575 37.415 166.334C37.5876 166.093 37.7568 165.696 37.9229 165.143C38.0856 164.59 38.2728 164.145 38.4844 163.81C38.6927 163.475 38.9336 163.229 39.207 163.073C39.4772 162.916 39.7946 162.838 40.1592 162.838C40.7516 162.838 41.2236 163.066 41.5752 163.522C41.9235 163.974 42.0977 164.59 42.0977 165.368C42.0977 165.882 42.0033 166.356 41.8145 166.788C41.6224 167.218 41.3587 167.553 41.0234 167.794C40.6882 168.032 40.2975 168.151 39.8516 168.151V166.915C40.2552 166.915 40.5677 166.782 40.7891 166.515C41.0104 166.248 41.1211 165.866 41.1211 165.368C41.1211 164.938 41.0348 164.616 40.8623 164.401C40.6865 164.183 40.4554 164.074 40.1689 164.074ZM42 158.712C41.8991 158.764 41.7347 158.81 41.5068 158.849C41.9007 159.227 42.0977 159.689 42.0977 160.236C42.0977 160.766 41.9463 161.199 41.6436 161.535C41.3408 161.87 40.9665 162.038 40.5205 162.038C39.9574 162.038 39.526 161.829 39.2266 161.413C38.9238 160.993 38.7725 160.394 38.7725 159.616V158.888H38.4258C38.1523 158.888 37.9342 158.965 37.7715 159.118C37.6055 159.271 37.5225 159.503 37.5225 159.816C37.5225 160.086 37.5908 160.307 37.7275 160.48C37.861 160.652 38.0319 160.739 38.2402 160.739V161.925C37.9505 161.925 37.6803 161.829 37.4297 161.637C37.1758 161.445 36.9772 161.185 36.834 160.856C36.6908 160.524 36.6191 160.154 36.6191 159.747C36.6191 159.129 36.7754 158.636 37.0879 158.268C37.3971 157.9 37.8333 157.711 38.3965 157.702H40.7793C41.2546 157.702 41.6338 157.635 41.917 157.501H42V158.712ZM41.1455 160.016C41.1455 159.782 41.0885 159.562 40.9746 159.357C40.8607 159.149 40.7077 158.992 40.5156 158.888H39.5195V159.528C39.5195 159.967 39.596 160.298 39.749 160.519C39.902 160.74 40.1185 160.851 40.3984 160.851C40.6263 160.851 40.8086 160.776 40.9453 160.626C41.0788 160.473 41.1455 160.27 41.1455 160.016ZM42 155.197V156.383H34.5V155.197H42ZM42.0977 151.574C42.0977 152.326 41.8617 152.936 41.3896 153.405C40.9144 153.87 40.2829 154.103 39.4951 154.103H39.3486C38.8213 154.103 38.3509 154.002 37.9375 153.8C37.5208 153.595 37.1969 153.309 36.9658 152.941C36.7347 152.573 36.6191 152.163 36.6191 151.71C36.6191 150.991 36.8486 150.436 37.3076 150.045C37.7666 149.651 38.416 149.454 39.2559 149.454H39.7344V152.907C40.1706 152.871 40.5156 152.726 40.7695 152.472C41.0234 152.215 41.1504 151.893 41.1504 151.505C41.1504 150.962 40.9307 150.519 40.4912 150.177L41.1016 149.538C41.4173 149.749 41.6631 150.032 41.8389 150.387C42.0114 150.739 42.0977 151.134 42.0977 151.574ZM37.5713 151.715C37.5713 152.041 37.6852 152.304 37.9131 152.506C38.141 152.705 38.4583 152.832 38.8652 152.887V150.626H38.7773C38.3802 150.652 38.0807 150.758 37.8789 150.944C37.6738 151.129 37.5713 151.386 37.5713 151.715ZM40.5645 145.568C40.3529 145.568 40.1917 145.656 40.0811 145.831C39.9704 146.004 39.8727 146.292 39.7881 146.696C39.7035 147.099 39.596 147.436 39.4658 147.706C39.1794 148.299 38.7643 148.595 38.2207 148.595C37.765 148.595 37.3841 148.403 37.0781 148.019C36.7721 147.635 36.6191 147.147 36.6191 146.554C36.6191 145.923 36.7754 145.413 37.0879 145.026C37.4004 144.635 37.8057 144.44 38.3037 144.44V145.626C38.0758 145.626 37.887 145.711 37.7373 145.88C37.5843 146.05 37.5078 146.274 37.5078 146.554C37.5078 146.815 37.568 147.028 37.6885 147.194C37.8089 147.357 37.9701 147.438 38.1719 147.438C38.3542 147.438 38.4958 147.361 38.5967 147.208C38.6976 147.055 38.8001 146.746 38.9043 146.281C39.0052 145.815 39.1273 145.451 39.2705 145.187C39.4105 144.92 39.5798 144.723 39.7783 144.596C39.9769 144.466 40.2178 144.401 40.501 144.401C40.9762 144.401 41.362 144.598 41.6582 144.992C41.9512 145.385 42.0977 145.901 42.0977 146.539C42.0977 146.972 42.0195 147.358 41.8633 147.697C41.707 148.035 41.4922 148.299 41.2188 148.488C40.9453 148.677 40.6507 148.771 40.335 148.771V147.619C40.6149 147.602 40.8314 147.496 40.9844 147.301C41.1341 147.106 41.209 146.847 41.209 146.525C41.209 146.212 41.1504 145.975 41.0332 145.812C40.9128 145.649 40.7565 145.568 40.5645 145.568Z" fill="#30394B"/>
<path d="M212.507 273.887H210.29V280H209.064V273.887H206.867V272.891H212.507V273.887ZM214.592 280H213.405V274.717H214.592V280ZM213.332 273.345C213.332 273.162 213.389 273.011 213.503 272.891C213.62 272.77 213.786 272.71 214.001 272.71C214.216 272.71 214.382 272.77 214.499 272.891C214.616 273.011 214.675 273.162 214.675 273.345C214.675 273.524 214.616 273.674 214.499 273.794C214.382 273.911 214.216 273.97 214.001 273.97C213.786 273.97 213.62 273.911 213.503 273.794C213.389 273.674 213.332 273.524 213.332 273.345ZM217.004 274.717L217.038 275.269C217.409 274.836 217.917 274.619 218.562 274.619C219.268 274.619 219.751 274.889 220.012 275.43C220.396 274.889 220.936 274.619 221.633 274.619C222.215 274.619 222.648 274.78 222.932 275.103C223.218 275.425 223.365 275.9 223.371 276.528V280H222.185V276.562C222.185 276.227 222.111 275.981 221.965 275.825C221.818 275.669 221.576 275.591 221.237 275.591C220.967 275.591 220.746 275.664 220.573 275.811C220.404 275.954 220.285 276.143 220.217 276.377L220.222 280H219.035V276.523C219.019 275.902 218.701 275.591 218.083 275.591C217.608 275.591 217.271 275.785 217.072 276.172V280H215.886V274.717H217.004ZM226.916 280.098C226.164 280.098 225.554 279.862 225.085 279.39C224.619 278.914 224.387 278.283 224.387 277.495V277.349C224.387 276.821 224.488 276.351 224.689 275.938C224.895 275.521 225.181 275.197 225.549 274.966C225.917 274.735 226.327 274.619 226.779 274.619C227.499 274.619 228.054 274.849 228.444 275.308C228.838 275.767 229.035 276.416 229.035 277.256V277.734H225.583C225.619 278.171 225.764 278.516 226.018 278.77C226.275 279.023 226.597 279.15 226.984 279.15C227.528 279.15 227.971 278.931 228.312 278.491L228.952 279.102C228.741 279.417 228.457 279.663 228.103 279.839C227.751 280.011 227.355 280.098 226.916 280.098ZM226.774 275.571C226.449 275.571 226.185 275.685 225.983 275.913C225.785 276.141 225.658 276.458 225.603 276.865H227.863V276.777C227.837 276.38 227.731 276.081 227.546 275.879C227.36 275.674 227.103 275.571 226.774 275.571Z" fill="#30394B"/>
<g style="mix-blend-mode:multiply" opacity="0.6">
<rect x="63" y="51.7416" width="312" height="203"/>
</g>
<g filter="url(#filter1_d)">
<path fill-rule="evenodd" clip-rule="evenodd" d="M134.877 18.5652C135.282 18.5652 135.611 18.2245 135.611 17.8043V14.7609C135.611 14.3407 135.282 14 134.877 14C134.472 14 134.143 14.3407 134.143 14.7609V17.8044C134.143 18.2245 134.472 18.5652 134.877 18.5652ZM134.877 42.913C140.956 42.913 145.884 37.8032 145.884 31.5C145.884 25.1967 140.956 20.0869 134.877 20.0869C128.798 20.0869 123.87 25.1967 123.87 31.5C123.87 37.8032 128.798 42.913 134.877 42.913ZM134.143 45.1957C134.143 44.7755 134.472 44.4348 134.877 44.4348C135.282 44.4348 135.611 44.7754 135.611 45.1956V48.2391C135.611 48.6593 135.282 49 134.877 49C134.472 49 134.143 48.6593 134.143 48.2391V45.1957ZM151.02 30.7391H148.085C147.68 30.7391 147.351 31.0798 147.351 31.5C147.351 31.9202 147.68 32.2609 148.085 32.2609H151.02C151.426 32.2609 151.754 31.9202 151.754 31.5C151.754 31.0797 151.426 30.7391 151.02 30.7391ZM121.669 30.7391C122.074 30.7391 122.403 31.0798 122.403 31.5C122.403 31.9202 122.074 32.2609 121.669 32.2609H118.734C118.329 32.2609 118 31.9202 118 31.5C118 31.0798 118.329 30.7392 118.734 30.7391H121.669ZM127.638 20.02C127.769 20.2559 128.012 20.401 128.274 20.4005C128.403 20.401 128.53 20.3658 128.641 20.2985C128.992 20.0884 129.112 19.6231 128.91 19.2591L127.442 16.6235C127.237 16.261 126.788 16.1394 126.438 16.3519C126.092 16.5624 125.973 17.0225 126.171 17.3843L127.638 20.02ZM141.112 42.7085C141.462 42.496 141.912 42.6175 142.117 42.98L143.586 45.6156C143.788 45.9796 143.668 46.4449 143.317 46.655C143.206 46.7223 143.079 46.7574 142.95 46.7569C142.687 46.7575 142.444 46.6124 142.313 46.3765L140.846 43.7409C140.647 43.379 140.766 42.9191 141.112 42.7085ZM146.315 25.4131C146.444 25.4136 146.571 25.3784 146.682 25.3111L149.224 23.7894C149.583 23.5946 149.722 23.1349 149.534 22.7625C149.346 22.3902 148.903 22.2462 148.544 22.441C148.525 22.451 148.507 22.4617 148.49 22.4731L145.948 23.9949C145.597 24.205 145.477 24.6704 145.68 25.0342C145.811 25.2696 146.053 25.4146 146.315 25.4146V25.4131H146.315ZM120.53 39.2106L123.072 37.6889L123.072 37.6905C123.089 37.679 123.107 37.6683 123.125 37.6584C123.484 37.4636 123.928 37.6075 124.116 37.9799C124.304 38.3522 124.165 38.812 123.806 39.0068L121.264 40.5285C121.153 40.5957 121.026 40.6309 120.897 40.6304C120.635 40.6304 120.393 40.4854 120.262 40.25C120.059 39.8861 120.179 39.4208 120.53 39.2106ZM120.53 23.7893L123.072 25.311C123.183 25.378 123.309 25.4132 123.437 25.413C123.843 25.413 124.171 25.0723 124.171 24.6521C124.171 24.3803 124.031 24.1291 123.804 23.9932L121.262 22.4715C120.92 22.2461 120.467 22.3508 120.25 22.7054C120.032 23.0599 120.133 23.5302 120.475 23.7556C120.492 23.7671 120.51 23.7778 120.529 23.7877L120.53 23.7893ZM149.224 39.2106L146.682 37.6889C146.34 37.4635 145.887 37.5682 145.669 37.9228C145.452 38.2774 145.553 38.7477 145.895 38.9731C145.912 38.9846 145.93 38.9953 145.948 39.0052L148.49 40.5269C148.602 40.5942 148.728 40.6294 148.857 40.6289C149.262 40.6289 149.591 40.2882 149.591 39.868C149.591 39.5961 149.451 39.345 149.224 39.2091V39.2106ZM141.114 20.2985C141.226 20.3658 141.352 20.4009 141.481 20.4004C141.744 20.401 141.987 20.2558 142.118 20.02L143.586 17.3844C143.786 17.0191 143.663 16.5546 143.31 16.3469C142.961 16.1413 142.518 16.2645 142.315 16.6236L140.847 19.2592C140.644 19.6226 140.764 20.0879 141.114 20.2985ZM127.638 42.98C127.84 42.6161 128.289 42.4915 128.64 42.7015L128.64 42.7018C128.991 42.9115 129.112 43.3768 128.91 43.7409L127.442 46.3765C127.311 46.6124 127.068 46.7575 126.805 46.7569C126.677 46.7574 126.55 46.7223 126.439 46.655C126.088 46.4449 125.967 45.9796 126.17 45.6156L127.638 42.98Z" fill="#EFA460"/>
</g>
<g filter="url(#filter2_d)">
<path fill-rule="evenodd" clip-rule="evenodd" d="M300.5 18.5652C300.92 18.5652 301.261 18.2245 301.261 17.8043V14.7609C301.261 14.3407 300.92 14 300.5 14C300.08 14 299.739 14.3407 299.739 14.7609V17.8044C299.739 18.2245 300.08 18.5652 300.5 18.5652ZM300.5 42.913C306.803 42.913 311.913 37.8032 311.913 31.5C311.913 25.1967 306.803 20.0869 300.5 20.0869C294.197 20.0869 289.087 25.1967 289.087 31.5C289.087 37.8032 294.197 42.913 300.5 42.913ZM299.739 45.1957C299.739 44.7755 300.08 44.4348 300.5 44.4348C300.92 44.4348 301.261 44.7754 301.261 45.1956V48.2391C301.261 48.6593 300.92 49 300.5 49C300.08 49 299.739 48.6593 299.739 48.2391V45.1957ZM317.239 30.7391H314.196C313.775 30.7391 313.435 31.0798 313.435 31.5C313.435 31.9202 313.775 32.2609 314.196 32.2609H317.239C317.659 32.2609 318 31.9202 318 31.5C318 31.0797 317.659 30.7391 317.239 30.7391ZM286.804 30.7391C287.225 30.7391 287.565 31.0798 287.565 31.5C287.565 31.9202 287.225 32.2609 286.804 32.2609H283.761C283.341 32.2609 283 31.9202 283 31.5C283 31.0798 283.341 30.7392 283.761 30.7391H286.804ZM292.993 20.02C293.129 20.2559 293.381 20.401 293.654 20.4005C293.787 20.401 293.919 20.3658 294.034 20.2985C294.398 20.0884 294.523 19.6231 294.313 19.2591L292.791 16.6235C292.578 16.261 292.112 16.1394 291.75 16.3519C291.391 16.5624 291.267 17.0225 291.473 17.3843L292.993 20.02ZM306.966 42.7085C307.328 42.496 307.794 42.6175 308.007 42.98L309.53 45.6156C309.74 45.9796 309.615 46.4449 309.252 46.655C309.136 46.7223 309.005 46.7574 308.871 46.7569C308.599 46.7575 308.347 46.6124 308.211 46.3765L306.689 43.7409C306.483 43.379 306.607 42.9191 306.966 42.7085ZM312.36 25.4131C312.494 25.4136 312.625 25.3784 312.741 25.3111L315.376 23.7894C315.749 23.5946 315.893 23.1349 315.698 22.7625C315.503 22.3902 315.043 22.2462 314.671 22.441C314.652 22.451 314.634 22.4617 314.616 22.4731L311.98 23.9949C311.616 24.205 311.491 24.6704 311.701 25.0342C311.837 25.2696 312.088 25.4146 312.36 25.4146V25.4131H312.36ZM285.624 39.2106L288.259 37.6889L288.259 37.6905C288.277 37.679 288.296 37.6683 288.315 37.6584C288.687 37.4636 289.147 37.6075 289.341 37.9799C289.536 38.3522 289.392 38.812 289.02 39.0068L286.384 40.5285C286.269 40.5957 286.138 40.6309 286.004 40.6304C285.732 40.6304 285.481 40.4854 285.345 40.25C285.135 39.8861 285.26 39.4208 285.624 39.2106ZM285.624 23.7893L288.259 25.311C288.374 25.378 288.505 25.4132 288.638 25.413C289.058 25.413 289.399 25.0723 289.399 24.6521C289.399 24.3803 289.254 24.1291 289.018 23.9932L286.383 22.4715C286.028 22.2461 285.558 22.3508 285.333 22.7054C285.107 23.0599 285.212 23.5302 285.566 23.7556C285.584 23.7671 285.603 23.7778 285.622 23.7877L285.624 23.7893ZM312.741 37.6889L315.376 39.2107V39.2091C315.612 39.345 315.757 39.5961 315.757 39.868C315.757 40.2882 315.416 40.6289 314.996 40.6289C314.862 40.6294 314.731 40.5942 314.616 40.5269L311.98 39.0052C311.961 38.9953 311.943 38.9846 311.925 38.9731C311.57 38.7477 311.465 38.2774 311.691 37.9228C311.916 37.5682 312.386 37.4635 312.741 37.6889ZM306.967 20.2985C307.083 20.3658 307.214 20.4009 307.348 20.4004C307.62 20.401 307.872 20.2558 308.008 20.02L309.53 17.3844C309.738 17.0191 309.61 16.5546 309.245 16.3469C308.883 16.1413 308.423 16.2645 308.212 16.6236L306.69 19.2592C306.48 19.6226 306.604 20.0879 306.967 20.2985ZM292.993 42.98C293.203 42.6161 293.669 42.4915 294.033 42.7015L294.033 42.7018C294.397 42.9115 294.522 43.3768 294.313 43.7409L292.791 46.3765C292.655 46.6124 292.403 46.7575 292.13 46.7569C291.997 46.7574 291.866 46.7223 291.75 46.655C291.386 46.4449 291.261 45.9796 291.472 45.6156L292.993 42.98Z" fill="#EFA460"/>
</g>
<path d="M77.7059 32.7568L73.3219 33.9309L71.6321 32.9561V31.1268L73.3026 30.1675L77.7058 31.3473C77.7943 31.371 77.8832 31.3826 77.9713 31.3826C78.4236 31.3826 78.8375 31.0806 78.9597 30.623C79.1062 30.0763 78.782 29.5143 78.2353 29.368L75.8214 28.7212L78.0467 27.4437C78.5372 27.162 78.7069 26.5357 78.4251 26.0451C78.1424 25.5544 77.5175 25.3844 77.0268 25.6668L74.7969 26.9474L75.4435 24.5326C75.5899 23.986 75.2662 23.424 74.7192 23.2777C74.1759 23.1352 73.6117 23.4558 73.4651 24.002L72.2902 28.3862L70.6092 29.3515L69.0157 28.4302V26.4969L72.2382 23.2745C72.6382 22.8742 72.6382 22.2259 72.2382 21.8257C71.838 21.4255 71.1899 21.4255 70.7895 21.8257L69.0157 23.5994V21.0244C69.0157 20.4587 68.5569 20 67.9911 20C67.4255 20 66.9667 20.4587 66.9667 21.0244V23.5867L65.2058 21.8257C64.8056 21.4255 64.1574 21.4255 63.7571 21.8257C63.3569 22.2259 63.3569 22.8742 63.7571 23.2745L66.9667 26.4841V28.4376L65.3852 29.35L63.7042 28.3855L62.5302 24.0021C62.3839 23.4558 61.8223 23.1343 61.2762 23.2778C60.7295 23.4241 60.4051 23.9861 60.5515 24.5327L61.1981 26.947L58.9684 25.6668C58.4768 25.3843 57.8511 25.554 57.5698 26.0453C57.2882 26.5361 57.458 27.1619 57.9487 27.4436L60.1737 28.7212L57.7598 29.368C57.2131 29.5143 56.8887 30.0762 57.0352 30.623C57.1577 31.0805 57.5715 31.3826 58.0238 31.3826C58.1119 31.3826 58.2009 31.3709 58.2896 31.3473L62.6933 30.1671L64.362 31.1251L64.3637 32.9561L62.6734 33.9326L58.2896 32.7568C57.7468 32.6143 57.1818 32.9352 57.0352 33.4813C56.8887 34.0278 57.2131 34.5899 57.7598 34.7354L60.1649 35.3805L57.9461 36.6614C57.4563 36.9445 57.2882 37.5705 57.5715 38.0603C57.7613 38.39 58.1055 38.5726 58.4592 38.5726C58.6328 38.5726 58.8091 38.5294 58.9705 38.4349L61.2005 37.148L60.5515 39.5716C60.4051 40.119 60.7295 40.6793 61.2762 40.8266C61.3647 40.8505 61.4536 40.8619 61.5417 40.8619C61.9939 40.8619 62.4076 40.5594 62.5302 40.1015L63.7101 35.6992L65.3883 34.7309L66.9667 35.6417V37.6203L63.7571 40.83C63.3569 41.2301 63.3569 41.8783 63.7571 42.2787C63.9572 42.4788 64.2189 42.578 64.4814 42.578C64.7431 42.578 65.0057 42.4788 65.2058 42.2787L66.9667 40.5178V43.0791C66.9667 43.6459 67.4255 44.1036 67.9911 44.1036C68.5569 44.1036 69.0157 43.6458 69.0157 43.0791V40.505L70.7895 42.2787C70.9896 42.4788 71.2513 42.578 71.5139 42.578C71.7765 42.578 72.0382 42.4788 72.2382 42.2787C72.6383 41.8784 72.6383 41.2302 72.2382 40.83L69.0157 37.6075V35.6496L70.6077 34.7308L72.2854 35.6991L73.4653 40.1014C73.5877 40.5593 74.0015 40.8618 74.4536 40.8618C74.5414 40.8618 74.6306 40.8504 74.7193 40.8264C75.2663 40.6792 75.5899 40.1189 75.4437 39.5714L74.7939 37.1479L77.0247 38.4348C77.1863 38.5292 77.3624 38.5725 77.5361 38.5725C77.8898 38.5725 78.234 38.3899 78.4238 38.0602C78.707 37.5704 78.539 36.9445 78.0492 36.6613L75.8304 35.3806L78.2355 34.7355C78.7822 34.59 79.1063 34.0278 78.9599 33.4814C78.8143 32.9352 78.2516 32.6136 77.7059 32.7568ZM69.5831 32.9561L67.9975 33.8718L66.4131 32.9561L66.4113 31.1235L67.9975 30.2084L69.5831 31.1248V32.9561Z" fill="#29A1F8"/>
<path d="M229.706 32.7568L225.322 33.9309L223.632 32.9561V31.1268L225.303 30.1675L229.706 31.3473C229.794 31.371 229.883 31.3826 229.971 31.3826C230.424 31.3826 230.837 31.0806 230.96 30.623C231.106 30.0763 230.782 29.5143 230.235 29.368L227.821 28.7212L230.047 27.4437C230.537 27.162 230.707 26.5357 230.425 26.0451C230.142 25.5544 229.517 25.3844 229.027 25.6668L226.797 26.9474L227.444 24.5326C227.59 23.986 227.266 23.424 226.719 23.2777C226.176 23.1352 225.612 23.4558 225.465 24.002L224.29 28.3862L222.609 29.3515L221.016 28.4302V26.4969L224.238 23.2745C224.638 22.8742 224.638 22.2259 224.238 21.8257C223.838 21.4255 223.19 21.4255 222.789 21.8257L221.016 23.5994V21.0244C221.016 20.4587 220.557 20 219.991 20C219.425 20 218.967 20.4587 218.967 21.0244V23.5867L217.206 21.8257C216.806 21.4255 216.157 21.4255 215.757 21.8257C215.357 22.2259 215.357 22.8742 215.757 23.2745L218.967 26.4841V28.4376L217.385 29.35L215.704 28.3855L214.53 24.0021C214.384 23.4558 213.822 23.1343 213.276 23.2778C212.729 23.4241 212.405 23.9861 212.552 24.5327L213.198 26.947L210.968 25.6668C210.477 25.3843 209.851 25.554 209.57 26.0453C209.288 26.5361 209.458 27.1619 209.949 27.4436L212.174 28.7212L209.76 29.368C209.213 29.5143 208.889 30.0762 209.035 30.623C209.158 31.0805 209.571 31.3826 210.024 31.3826C210.112 31.3826 210.201 31.3709 210.29 31.3473L214.693 30.1671L216.362 31.1251L216.364 32.9561L214.673 33.9326L210.29 32.7568C209.747 32.6143 209.182 32.9352 209.035 33.4813C208.889 34.0278 209.213 34.5899 209.76 34.7354L212.165 35.3805L209.946 36.6614C209.456 36.9445 209.288 37.5705 209.572 38.0603C209.761 38.39 210.106 38.5726 210.459 38.5726C210.633 38.5726 210.809 38.5294 210.971 38.4349L213.201 37.148L212.552 39.5716C212.405 40.119 212.729 40.6793 213.276 40.8266C213.365 40.8505 213.454 40.8619 213.542 40.8619C213.994 40.8619 214.408 40.5594 214.53 40.1015L215.71 35.6992L217.388 34.7309L218.967 35.6417V37.6203L215.757 40.83C215.357 41.2301 215.357 41.8783 215.757 42.2787C215.957 42.4788 216.219 42.578 216.481 42.578C216.743 42.578 217.006 42.4788 217.206 42.2787L218.967 40.5178V43.0791C218.967 43.6459 219.425 44.1036 219.991 44.1036C220.557 44.1036 221.016 43.6458 221.016 43.0791V40.505L222.79 42.2787C222.99 42.4788 223.251 42.578 223.514 42.578C223.776 42.578 224.038 42.4788 224.238 42.2787C224.638 41.8784 224.638 41.2302 224.238 40.83L221.016 37.6075V35.6496L222.608 34.7308L224.285 35.6991L225.465 40.1014C225.588 40.5593 226.001 40.8618 226.454 40.8618C226.541 40.8618 226.631 40.8504 226.719 40.8264C227.266 40.6792 227.59 40.1189 227.444 39.5714L226.794 37.1479L229.025 38.4348C229.186 38.5292 229.362 38.5725 229.536 38.5725C229.89 38.5725 230.234 38.3899 230.424 38.0602C230.707 37.5704 230.539 36.9445 230.049 36.6613L227.83 35.3806L230.235 34.7355C230.782 34.59 231.106 34.0278 230.96 33.4814C230.814 32.9352 230.252 32.6136 229.706 32.7568ZM221.583 32.9561L219.998 33.8718L218.413 32.9561L218.411 31.1235L219.998 30.2084L221.583 31.1248V32.9561Z" fill="#29A1F8"/>
<path d="M395.706 32.7568L391.322 33.9309L389.632 32.9561V31.1268L391.303 30.1675L395.706 31.3473C395.794 31.371 395.883 31.3826 395.971 31.3826C396.424 31.3826 396.837 31.0806 396.96 30.623C397.106 30.0763 396.782 29.5143 396.235 29.368L393.821 28.7212L396.047 27.4437C396.537 27.162 396.707 26.5357 396.425 26.0451C396.142 25.5544 395.517 25.3844 395.027 25.6668L392.797 26.9474L393.444 24.5326C393.59 23.986 393.266 23.424 392.719 23.2777C392.176 23.1352 391.612 23.4558 391.465 24.002L390.29 28.3862L388.609 29.3515L387.016 28.4302V26.4969L390.238 23.2745C390.638 22.8742 390.638 22.2259 390.238 21.8257C389.838 21.4255 389.19 21.4255 388.789 21.8257L387.016 23.5994V21.0244C387.016 20.4587 386.557 20 385.991 20C385.425 20 384.967 20.4587 384.967 21.0244V23.5867L383.206 21.8257C382.806 21.4255 382.157 21.4255 381.757 21.8257C381.357 22.2259 381.357 22.8742 381.757 23.2745L384.967 26.4841V28.4376L383.385 29.35L381.704 28.3855L380.53 24.0021C380.384 23.4558 379.822 23.1343 379.276 23.2778C378.729 23.4241 378.405 23.9861 378.552 24.5327L379.198 26.947L376.968 25.6668C376.477 25.3843 375.851 25.554 375.57 26.0453C375.288 26.5361 375.458 27.1619 375.949 27.4436L378.174 28.7212L375.76 29.368C375.213 29.5143 374.889 30.0762 375.035 30.623C375.158 31.0805 375.571 31.3826 376.024 31.3826C376.112 31.3826 376.201 31.3709 376.29 31.3473L380.693 30.1671L382.362 31.1251L382.364 32.9561L380.673 33.9326L376.29 32.7568C375.747 32.6143 375.182 32.9352 375.035 33.4813C374.889 34.0278 375.213 34.5899 375.76 34.7354L378.165 35.3805L375.946 36.6614C375.456 36.9445 375.288 37.5705 375.572 38.0603C375.761 38.39 376.106 38.5726 376.459 38.5726C376.633 38.5726 376.809 38.5294 376.971 38.4349L379.201 37.148L378.552 39.5716C378.405 40.119 378.729 40.6793 379.276 40.8266C379.365 40.8505 379.454 40.8619 379.542 40.8619C379.994 40.8619 380.408 40.5594 380.53 40.1015L381.71 35.6992L383.388 34.7309L384.967 35.6417V37.6203L381.757 40.83C381.357 41.2301 381.357 41.8783 381.757 42.2787C381.957 42.4788 382.219 42.578 382.481 42.578C382.743 42.578 383.006 42.4788 383.206 42.2787L384.967 40.5178V43.0791C384.967 43.6459 385.425 44.1036 385.991 44.1036C386.557 44.1036 387.016 43.6458 387.016 43.0791V40.505L388.79 42.2787C388.99 42.4788 389.251 42.578 389.514 42.578C389.776 42.578 390.038 42.4788 390.238 42.2787C390.638 41.8784 390.638 41.2302 390.238 40.83L387.016 37.6075V35.6496L388.608 34.7308L390.285 35.6991L391.465 40.1014C391.588 40.5593 392.001 40.8618 392.454 40.8618C392.541 40.8618 392.631 40.8504 392.719 40.8264C393.266 40.6792 393.59 40.1189 393.444 39.5714L392.794 37.1479L395.025 38.4348C395.186 38.5292 395.362 38.5725 395.536 38.5725C395.89 38.5725 396.234 38.3899 396.424 38.0602C396.707 37.5704 396.539 36.9445 396.049 36.6613L393.83 35.3806L396.235 34.7355C396.782 34.59 397.106 34.0278 396.96 33.4814C396.814 32.9352 396.252 32.6136 395.706 32.7568ZM387.583 32.9561L385.998 33.8718L384.413 32.9561L384.411 31.1235L385.998 30.2084L387.583 31.1248V32.9561Z" fill="#29A1F8"/>
</g>
<defs>
<filter id="filter0_f" x="-14" y="-7.25839" width="465" height="328" filterUnits="userSpaceOnUse" color-interpolation-filters="sRGB">
<feFlood flood-opacity="0" result="BackgroundImageFix"/>
<feBlend mode="normal" in="SourceGraphic" in2="BackgroundImageFix" result="shape"/>
<feGaussianBlur stdDeviation="20" result="effect1_foregroundBlur"/>
</filter>
<filter id="filter1_d" x="114" y="10" width="41.7541" height="43" filterUnits="userSpaceOnUse" color-interpolation-filters="sRGB">
<feFlood flood-opacity="0" result="BackgroundImageFix"/>
<feColorMatrix in="SourceAlpha" type="matrix" values="0 0 0 0 0 0 0 0 0 0 0 0 0 0 0 0 0 0 127 0"/>
<feOffset/>
<feGaussianBlur stdDeviation="2"/>
<feColorMatrix type="matrix" values="0 0 0 0 0 0 0 0 0 0 0 0 0 0 0 0 0 0 0.05 0"/>
<feBlend mode="normal" in2="BackgroundImageFix" result="effect1_dropShadow"/>
<feBlend mode="normal" in="SourceGraphic" in2="effect1_dropShadow" result="shape"/>
</filter>
<filter id="filter2_d" x="279" y="10" width="43" height="43" filterUnits="userSpaceOnUse" color-interpolation-filters="sRGB">
<feFlood flood-opacity="0" result="BackgroundImageFix"/>
<feColorMatrix in="SourceAlpha" type="matrix" values="0 0 0 0 0 0 0 0 0 0 0 0 0 0 0 0 0 0 127 0"/>
<feOffset/>
<feGaussianBlur stdDeviation="2"/>
<feColorMatrix type="matrix" values="0 0 0 0 0 0 0 0 0 0 0 0 0 0 0 0 0 0 0.05 0"/>
<feBlend mode="normal" in2="BackgroundImageFix" result="effect1_dropShadow"/>
<feBlend mode="normal" in="SourceGraphic" in2="effect1_dropShadow" result="shape"/>
</filter>
<linearGradient id="paint0_linear" x1="26" y1="166.501" x2="411" y2="168.802" gradientUnits="userSpaceOnUse">
<stop offset="0.0875752" stop-color="#29A1F8"/>
<stop offset="0.253125" stop-color="#EFA460"/>
<stop offset="0.503125" stop-color="#29A1F8"/>
<stop offset="0.680208" stop-color="#EFA460"/>
<stop offset="0.872917" stop-color="#29A1F8"/>
</linearGradient>
<clipPath id="clip0">
<rect width="435" height="309" fill="white"/>
</clipPath>
</defs>
</svg>
