<svg width="1120" height="302" viewBox="0 0 1120 302" version="1.1" xmlns="http://www.w3.org/2000/svg" xmlns:xlink="http://www.w3.org/1999/xlink">
<title>Frame</title>
<desc>Created using Figma</desc>
<g id="Canvas" transform="matrix(2 0 0 2 278 292)">
<clipPath id="clip-0" clip-rule="evenodd">
<path d="M -139 -146L 421 -146L 421 5L -139 5L -139 -146Z" fill="#FFFFFF"/>
</clipPath>
<g id="Frame" clip-path="url(#clip-0)">
<path d="M -139 -146L 421 -146L 421 5L -139 5L -139 -146Z" fill="#FFFFFF"/>
<g id="Vector 2">
<use xlink:href="#path0_fill" transform="translate(209.5 -70)" fill="#27AE60" fill-opacity="0.4"/>
</g>
<g id="Vector">
<use xlink:href="#path1_fill" transform="translate(209 -99)" fill="#27AE60" fill-opacity="0.4"/>
</g>
<g id="Rectangle">
<use xlink:href="#path2_stroke" transform="translate(239 -128)"/>
</g>
<g id="80.0">
<use xlink:href="#path3_fill" transform="translate(240.644 -122.2)"/>
</g>
<g id="Rectangle">
<use xlink:href="#path2_stroke" transform="translate(239 -99)"/>
</g>
<g id="103.4">
<use xlink:href="#path4_fill" transform="translate(240.644 -93.2)"/>
</g>
<g id="Rectangle">
<use xlink:href="#path2_stroke" transform="translate(239 -70)"/>
</g>
<g id="96.6">
<use xlink:href="#path5_fill" transform="translate(240.644 -64.2)"/>
</g>
<g id="Rectangle">
<use xlink:href="#path2_stroke" transform="translate(239 -41)"/>
</g>
<g id="200.3">
<use xlink:href="#path6_fill" transform="translate(240.644 -35.2)"/>
</g>
<g id="Rectangle">
<use xlink:href="#path2_stroke" transform="translate(342 -99)"/>
</g>
<g id="103.4">
<use xlink:href="#path4_fill" transform="translate(343.644 -93.2)"/>
</g>
<g id="Rectangle">
<use xlink:href="#path2_stroke" transform="translate(342 -70)"/>
</g>
<g id="200.3">
<use xlink:href="#path6_fill" transform="translate(343.644 -64.2)"/>
</g>
<g id="Group">
<g id="Rectangle">
<use xlink:href="#path2_stroke" transform="translate(137 -128)"/>
</g>
<g id="False">
<use xlink:href="#path7_fill" transform="translate(138.644 -122.2)" fill="#EB5757"/>
</g>
<g id="Rectangle">
<use xlink:href="#path2_stroke" transform="translate(137 -99)"/>
</g>
<g id="True">
<use xlink:href="#path8_fill" transform="translate(138.644 -93.2)" fill="#27AE60"/>
</g>
<g id="Rectangle">
<use xlink:href="#path2_stroke" transform="translate(137 -70)"/>
</g>
<g id="False">
<use xlink:href="#path7_fill" transform="translate(138.644 -64.2)" fill="#EB5757"/>
</g>
<g id="Rectangle">
<use xlink:href="#path2_stroke" transform="translate(137 -41)"/>
</g>
<g id="True">
<use xlink:href="#path8_fill" transform="translate(138.644 -35.2)" fill="#27AE60"/>
</g>
</g>
<g id="result">
<use xlink:href="#path9_fill" transform="translate(350 -36)" fill="#4F4F4F"/>
</g>
<g id="Group">
<g id="Rectangle">
<use xlink:href="#path10_fill" transform="translate(-132 -98)" fill="#F1F4F8"/>
</g>
<g id="result = c[c_bool]">
<use xlink:href="#path11_fill" transform="translate(-120.19 -96.7272)" fill="#2E383C"/>
</g>
</g>
<g id="Arrow">
<use xlink:href="#path12_stroke" transform="translate(216 -84)" fill="#FFFFFF"/>
</g>
<g id="Arrow">
<use xlink:href="#path12_stroke" transform="translate(217 -26)" fill="#FFFFFF"/>
</g>
<g id="Arrow">
<use xlink:href="#path12_stroke" transform="translate(319 -84)" fill="#FFFFFF"/>
</g>
<g id="Arrow">
<use xlink:href="#path12_stroke" transform="matrix(0.70838 -0.705832 0.705832 0.70838 322 -35.7067)" fill="#FFFFFF"/>
</g>
</g>
</g>
<defs>
<path id="path0_fill" d="M 102 29L 0 29L 0 58L 102 58L 132.5 29L 132.5 0L 102 29Z"/>
<path id="path1_fill" d="M 133 29L 133 0L 0 0L 0 29L 133 29Z"/>
<path id="path2_stroke" d="M 0 0L 0 -0.5L -0.5 -0.5L -0.5 0L 0 0ZM 72.3333 0L 72.8333 0L 72.8333 -0.5L 72.3333 -0.5L 72.3333 0ZM 72.3333 29L 72.3333 29.5L 72.8333 29.5L 72.8333 29L 72.3333 29ZM 0 29L -0.5 29L -0.5 29.5L 0 29.5L 0 29ZM 0 0.5L 72.3333 0.5L 72.3333 -0.5L 0 -0.5L 0 0.5ZM 71.8333 0L 71.8333 29L 72.8333 29L 72.8333 0L 71.8333 0ZM 72.3333 28.5L 0 28.5L 0 29.5L 72.3333 29.5L 72.3333 28.5ZM 0.5 29L 0.5 0L -0.5 0L -0.5 29L 0.5 29Z"/>
<path id="path3_fill" d="M 26.2238 7.54297C 26.2238 8.18164 26.0538 8.75 25.714 9.24805C 25.38 9.74609 24.9259 10.1357 24.3517 10.417C 25.0196 10.7041 25.547 11.123 25.9337 11.6738C 26.3263 12.2246 26.5226 12.8486 26.5226 13.5459C 26.5226 14.6533 26.1476 15.5352 25.3976 16.1914C 24.6534 16.8477 23.672 17.1758 22.4532 17.1758C 21.2228 17.1758 20.2355 16.8477 19.4913 16.1914C 18.753 15.5293 18.3839 14.6475 18.3839 13.5459C 18.3839 12.8545 18.5714 12.2305 18.9464 11.6738C 19.3273 11.1172 19.8517 10.6953 20.5196 10.4082C 19.9513 10.127 19.503 9.7373 19.1749 9.23926C 18.8468 8.74121 18.6827 8.17578 18.6827 7.54297C 18.6827 6.46484 19.0284 5.60938 19.7198 4.97656C 20.4113 4.34375 21.3224 4.02734 22.4532 4.02734C 23.5782 4.02734 24.4864 4.34375 25.1779 4.97656C 25.8751 5.60938 26.2238 6.46484 26.2238 7.54297ZM 24.8966 13.5107C 24.8966 12.7959 24.6681 12.2129 24.2111 11.7617C 23.7599 11.3105 23.1681 11.085 22.4357 11.085C 21.7032 11.085 21.1144 11.3076 20.6691 11.7529C 20.2296 12.1982 20.0099 12.7842 20.0099 13.5107C 20.0099 14.2373 20.2238 14.8086 20.6515 15.2246C 21.0851 15.6406 21.6857 15.8486 22.4532 15.8486C 23.215 15.8486 23.8126 15.6406 24.2462 15.2246C 24.6798 14.8027 24.8966 14.2314 24.8966 13.5107ZM 22.4532 5.36328C 21.8146 5.36328 21.296 5.5625 20.8976 5.96094C 20.505 6.35352 20.3087 6.88965 20.3087 7.56934C 20.3087 8.21973 20.5021 8.74707 20.8888 9.15137C 21.2814 9.5498 21.8029 9.74902 22.4532 9.74902C 23.1036 9.74902 23.6222 9.5498 24.0089 9.15137C 24.4015 8.74707 24.5978 8.21973 24.5978 7.56934C 24.5978 6.91895 24.3956 6.38867 23.9913 5.97852C 23.587 5.56836 23.0743 5.36328 22.4532 5.36328ZM 36.5948 11.542C 36.5948 13.4463 36.2696 14.8613 35.6193 15.7871C 34.9689 16.7129 33.9523 17.1758 32.5695 17.1758C 31.2042 17.1758 30.1935 16.7246 29.5372 15.8223C 28.881 14.9141 28.5411 13.5605 28.5177 11.7617L 28.5177 9.59082C 28.5177 7.70996 28.8429 6.3125 29.4933 5.39844C 30.1437 4.48438 31.1632 4.02734 32.5519 4.02734C 33.9288 4.02734 34.9425 4.46973 35.5929 5.35449C 36.2433 6.2334 36.5773 7.59277 36.5948 9.43262L 36.5948 11.542ZM 34.9689 9.31836C 34.9689 7.94141 34.7755 6.93945 34.3888 6.3125C 34.0021 5.67969 33.3898 5.36328 32.5519 5.36328C 31.7198 5.36328 31.1134 5.67676 30.7325 6.30371C 30.3517 6.93066 30.1554 7.89453 30.1437 9.19531L 30.1437 11.7969C 30.1437 13.1797 30.3429 14.2021 30.7413 14.8643C 31.1456 15.5205 31.755 15.8486 32.5695 15.8486C 33.3722 15.8486 33.9669 15.5381 34.3536 14.917C 34.7462 14.2959 34.9513 13.3174 34.9689 11.9814L 34.9689 9.31836ZM 38.88 16.1475C 38.88 15.8662 38.962 15.6318 39.1261 15.4443C 39.296 15.2568 39.548 15.1631 39.882 15.1631C 40.2159 15.1631 40.4679 15.2568 40.6378 15.4443C 40.8136 15.6318 40.9015 15.8662 40.9015 16.1475C 40.9015 16.417 40.8136 16.6426 40.6378 16.8242C 40.4679 17.0059 40.2159 17.0967 39.882 17.0967C 39.548 17.0967 39.296 17.0059 39.1261 16.8242C 38.962 16.6426 38.88 16.417 38.88 16.1475ZM 51.4484 11.542C 51.4484 13.4463 51.1232 14.8613 50.4728 15.7871C 49.8224 16.7129 48.8058 17.1758 47.423 17.1758C 46.0577 17.1758 45.047 16.7246 44.3907 15.8223C 43.7345 14.9141 43.3946 13.5605 43.3712 11.7617L 43.3712 9.59082C 43.3712 7.70996 43.6964 6.3125 44.3468 5.39844C 44.9972 4.48438 46.0167 4.02734 47.4054 4.02734C 48.7823 4.02734 49.796 4.46973 50.4464 5.35449C 51.0968 6.2334 51.4308 7.59277 51.4484 9.43262L 51.4484 11.542ZM 49.8224 9.31836C 49.8224 7.94141 49.629 6.93945 49.2423 6.3125C 48.8556 5.67969 48.2433 5.36328 47.4054 5.36328C 46.5734 5.36328 45.9669 5.67676 45.5861 6.30371C 45.2052 6.93066 45.0089 7.89453 44.9972 9.19531L 44.9972 11.7969C 44.9972 13.1797 45.1964 14.2021 45.5948 14.8643C 45.9991 15.5205 46.6085 15.8486 47.423 15.8486C 48.2257 15.8486 48.8204 15.5381 49.2071 14.917C 49.5997 14.2959 49.8048 13.3174 49.8224 11.9814L 49.8224 9.31836Z"/>
<path id="path4_fill" d="M 18.753 17L 17.1183 17L 17.1183 6.16309L 13.84 7.36719L 13.84 5.89062L 18.4982 4.1416L 18.753 4.1416L 18.753 17ZM 31.5411 11.542C 31.5411 13.4463 31.2159 14.8613 30.5655 15.7871C 29.9152 16.7129 28.8986 17.1758 27.5157 17.1758C 26.1505 17.1758 25.1398 16.7246 24.4835 15.8223C 23.8273 14.9141 23.4874 13.5605 23.464 11.7617L 23.464 9.59082C 23.464 7.70996 23.7892 6.3125 24.4396 5.39844C 25.09 4.48438 26.1095 4.02734 27.4982 4.02734C 28.8751 4.02734 29.8888 4.46973 30.5392 5.35449C 31.1896 6.2334 31.5236 7.59277 31.5411 9.43262L 31.5411 11.542ZM 29.9152 9.31836C 29.9152 7.94141 29.7218 6.93945 29.3351 6.3125C 28.9484 5.67969 28.3361 5.36328 27.4982 5.36328C 26.6661 5.36328 26.0597 5.67676 25.6788 6.30371C 25.298 6.93066 25.1017 7.89453 25.09 9.19531L 25.09 11.7969C 25.09 13.1797 25.2892 14.2021 25.6876 14.8643C 26.0919 15.5205 26.7013 15.8486 27.5157 15.8486C 28.3185 15.8486 28.9132 15.5381 29.2999 14.917C 29.6925 14.2959 29.8976 13.3174 29.9152 11.9814L 29.9152 9.31836ZM 35.9884 9.81055L 37.2101 9.81055C 37.9777 9.79883 38.5812 9.59668 39.0206 9.2041C 39.4601 8.81152 39.6798 8.28125 39.6798 7.61328C 39.6798 6.11328 38.9327 5.36328 37.4386 5.36328C 36.7355 5.36328 36.173 5.56543 35.7511 5.96973C 35.3351 6.36816 35.1271 6.89844 35.1271 7.56055L 33.5011 7.56055C 33.5011 6.54687 33.8702 5.70605 34.6085 5.03809C 35.3527 4.36426 36.296 4.02734 37.4386 4.02734C 38.6456 4.02734 39.5919 4.34668 40.2775 4.98535C 40.963 5.62402 41.3058 6.51172 41.3058 7.64844C 41.3058 8.20508 41.1241 8.74414 40.7609 9.26562C 40.4034 9.78711 39.9142 10.1768 39.2931 10.4346C 39.9962 10.6572 40.5382 11.0264 40.9191 11.542C 41.3058 12.0576 41.4991 12.6875 41.4991 13.4316C 41.4991 14.5801 41.1241 15.4912 40.3741 16.165C 39.6241 16.8389 38.6486 17.1758 37.4474 17.1758C 36.2462 17.1758 35.2677 16.8506 34.5118 16.2002C 33.7618 15.5498 33.3868 14.6914 33.3868 13.625L 35.0216 13.625C 35.0216 14.2988 35.2413 14.8379 35.6808 15.2422C 36.1202 15.6465 36.7091 15.8486 37.4474 15.8486C 38.2325 15.8486 38.8331 15.6436 39.2491 15.2334C 39.6652 14.8232 39.8732 14.2344 39.8732 13.4668C 39.8732 12.7227 39.6446 12.1514 39.1876 11.7529C 38.7306 11.3545 38.0714 11.1494 37.2101 11.1377L 35.9884 11.1377L 35.9884 9.81055ZM 43.9337 16.1475C 43.9337 15.8662 44.0157 15.6318 44.1798 15.4443C 44.3497 15.2568 44.6017 15.1631 44.9357 15.1631C 45.2696 15.1631 45.5216 15.2568 45.6915 15.4443C 45.8673 15.6318 45.9552 15.8662 45.9552 16.1475C 45.9552 16.417 45.8673 16.6426 45.6915 16.8242C 45.5216 17.0059 45.2696 17.0967 44.9357 17.0967C 44.6017 17.0967 44.3497 17.0059 44.1798 16.8242C 44.0157 16.6426 43.9337 16.417 43.9337 16.1475ZM 55.3419 12.7021L 57.1173 12.7021L 57.1173 14.0293L 55.3419 14.0293L 55.3419 17L 53.7071 17L 53.7071 14.0293L 47.88 14.0293L 47.88 13.0713L 53.6105 4.20312L 55.3419 4.20312L 55.3419 12.7021ZM 49.7257 12.7021L 53.7071 12.7021L 53.7071 6.42676L 53.5138 6.77832L 49.7257 12.7021Z"/>
<path id="path5_fill" d="M 24.6945 11.375C 24.3546 11.7793 23.9474 12.1045 23.4728 12.3506C 23.004 12.5967 22.4884 12.7197 21.9259 12.7197C 21.1876 12.7197 20.5431 12.5381 19.9923 12.1748C 19.4474 11.8115 19.0255 11.3018 18.7267 10.6455C 18.4279 9.9834 18.2784 9.25391 18.2784 8.45703C 18.2784 7.60156 18.4396 6.83105 18.7618 6.14551C 19.09 5.45996 19.5529 4.93555 20.1505 4.57227C 20.7482 4.20898 21.4454 4.02734 22.2423 4.02734C 23.5079 4.02734 24.504 4.50195 25.2306 5.45117C 25.963 6.39453 26.3292 7.68359 26.3292 9.31836L 26.3292 9.79297C 26.3292 12.2832 25.837 14.1025 24.8527 15.251C 23.8683 16.3936 22.3829 16.9795 20.3966 17.0088L 20.0802 17.0088L 20.0802 15.6377L 20.423 15.6377C 21.7648 15.6143 22.796 15.2656 23.5167 14.5918C 24.2374 13.9121 24.63 12.8398 24.6945 11.375ZM 22.1896 11.375C 22.7345 11.375 23.2355 11.208 23.6925 10.874C 24.1554 10.54 24.4923 10.127 24.7032 9.63477L 24.7032 8.98438C 24.7032 7.91797 24.4718 7.05078 24.0089 6.38281C 23.546 5.71484 22.9601 5.38086 22.2511 5.38086C 21.5363 5.38086 20.962 5.65625 20.5284 6.20703C 20.0948 6.75195 19.878 7.47266 19.878 8.36914C 19.878 9.24219 20.0861 9.96289 20.5021 10.5312C 20.9239 11.0938 21.4864 11.375 22.1896 11.375ZM 34.9513 4.19434L 34.9513 5.57422L 34.6525 5.57422C 33.3868 5.59766 32.379 5.97266 31.629 6.69922C 30.879 7.42578 30.4454 8.44824 30.3282 9.7666C 31.0021 8.99316 31.922 8.60645 33.088 8.60645C 34.2013 8.60645 35.089 8.99902 35.7511 9.78418C 36.4191 10.5693 36.753 11.583 36.753 12.8252C 36.753 14.1436 36.3927 15.1982 35.672 15.9893C 34.9571 16.7803 33.9962 17.1758 32.7892 17.1758C 31.5646 17.1758 30.5714 16.707 29.8097 15.7695C 29.048 14.8262 28.6671 13.6133 28.6671 12.1309L 28.6671 11.5068C 28.6671 9.15137 29.1681 7.35254 30.17 6.11035C 31.1779 4.8623 32.6749 4.22363 34.6613 4.19434L 34.9513 4.19434ZM 32.8155 9.95996C 32.2589 9.95996 31.7462 10.127 31.2775 10.4609C 30.8087 10.7949 30.4835 11.2139 30.3019 11.7178L 30.3019 12.3154C 30.3019 13.3701 30.5392 14.2197 31.0138 14.8643C 31.4884 15.5088 32.0802 15.8311 32.7892 15.8311C 33.5216 15.8311 34.0958 15.5615 34.5118 15.0225C 34.9337 14.4834 35.1446 13.7773 35.1446 12.9043C 35.1446 12.0254 34.9308 11.3164 34.503 10.7773C 34.0812 10.2324 33.5187 9.95996 32.8155 9.95996ZM 38.88 16.1475C 38.88 15.8662 38.962 15.6318 39.1261 15.4443C 39.296 15.2568 39.548 15.1631 39.882 15.1631C 40.2159 15.1631 40.4679 15.2568 40.6378 15.4443C 40.8136 15.6318 40.9015 15.8662 40.9015 16.1475C 40.9015 16.417 40.8136 16.6426 40.6378 16.8242C 40.4679 17.0059 40.2159 17.0967 39.882 17.0967C 39.548 17.0967 39.296 17.0059 39.1261 16.8242C 38.962 16.6426 38.88 16.417 38.88 16.1475ZM 49.8048 4.19434L 49.8048 5.57422L 49.506 5.57422C 48.2404 5.59766 47.2325 5.97266 46.4825 6.69922C 45.7325 7.42578 45.2989 8.44824 45.1818 9.7666C 45.8556 8.99316 46.7755 8.60645 47.9415 8.60645C 49.0548 8.60645 49.9425 8.99902 50.6046 9.78418C 51.2726 10.5693 51.6066 11.583 51.6066 12.8252C 51.6066 14.1436 51.2462 15.1982 50.5255 15.9893C 49.8107 16.7803 48.8497 17.1758 47.6427 17.1758C 46.4181 17.1758 45.4249 16.707 44.6632 15.7695C 43.9015 14.8262 43.5206 13.6133 43.5206 12.1309L 43.5206 11.5068C 43.5206 9.15137 44.0216 7.35254 45.0236 6.11035C 46.0314 4.8623 47.5284 4.22363 49.5148 4.19434L 49.8048 4.19434ZM 47.6691 9.95996C 47.1124 9.95996 46.5997 10.127 46.131 10.4609C 45.6622 10.7949 45.337 11.2139 45.1554 11.7178L 45.1554 12.3154C 45.1554 13.3701 45.3927 14.2197 45.8673 14.8643C 46.3419 15.5088 46.9337 15.8311 47.6427 15.8311C 48.3751 15.8311 48.9493 15.5615 49.3654 15.0225C 49.7872 14.4834 49.9982 13.7773 49.9982 12.9043C 49.9982 12.0254 49.7843 11.3164 49.3566 10.7773C 48.9347 10.2324 48.3722 9.95996 47.6691 9.95996Z"/>
<path id="path6_fill" d="M 21.7941 17L 13.4093 17L 13.4093 15.8311L 17.839 10.9092C 18.4952 10.165 18.9464 9.56152 19.1925 9.09863C 19.4445 8.62988 19.5704 8.14648 19.5704 7.64844C 19.5704 6.98047 19.3683 6.43262 18.964 6.00488C 18.5597 5.57715 18.0206 5.36328 17.3468 5.36328C 16.5382 5.36328 15.9083 5.59473 15.4571 6.05762C 15.0118 6.51465 14.7892 7.15332 14.7892 7.97363L 13.1632 7.97363C 13.1632 6.7959 13.5411 5.84375 14.297 5.11719C 15.0587 4.39063 16.0753 4.02734 17.3468 4.02734C 18.5363 4.02734 19.4767 4.34082 20.1681 4.96777C 20.8595 5.58887 21.2052 6.41797 21.2052 7.45508C 21.2052 8.71484 20.4025 10.2148 18.797 11.9551L 15.3693 15.6729L 21.7941 15.6729L 21.7941 17ZM 31.5411 11.542C 31.5411 13.4463 31.2159 14.8613 30.5655 15.7871C 29.9152 16.7129 28.8986 17.1758 27.5157 17.1758C 26.1505 17.1758 25.1398 16.7246 24.4835 15.8223C 23.8273 14.9141 23.4874 13.5605 23.464 11.7617L 23.464 9.59082C 23.464 7.70996 23.7892 6.3125 24.4396 5.39844C 25.09 4.48438 26.1095 4.02734 27.4982 4.02734C 28.8751 4.02734 29.8888 4.46973 30.5392 5.35449C 31.1896 6.2334 31.5236 7.59277 31.5411 9.43262L 31.5411 11.542ZM 29.9152 9.31836C 29.9152 7.94141 29.7218 6.93945 29.3351 6.3125C 28.9484 5.67969 28.3361 5.36328 27.4982 5.36328C 26.6661 5.36328 26.0597 5.67676 25.6788 6.30371C 25.298 6.93066 25.1017 7.89453 25.09 9.19531L 25.09 11.7969C 25.09 13.1797 25.2892 14.2021 25.6876 14.8643C 26.0919 15.5205 26.7013 15.8486 27.5157 15.8486C 28.3185 15.8486 28.9132 15.5381 29.2999 14.917C 29.6925 14.2959 29.8976 13.3174 29.9152 11.9814L 29.9152 9.31836ZM 41.6486 11.542C 41.6486 13.4463 41.3234 14.8613 40.673 15.7871C 40.0226 16.7129 39.006 17.1758 37.6232 17.1758C 36.2579 17.1758 35.2472 16.7246 34.5909 15.8223C 33.9347 14.9141 33.5948 13.5605 33.5714 11.7617L 33.5714 9.59082C 33.5714 7.70996 33.8966 6.3125 34.547 5.39844C 35.1974 4.48438 36.2169 4.02734 37.6056 4.02734C 38.9825 4.02734 39.9962 4.46973 40.6466 5.35449C 41.297 6.2334 41.631 7.59277 41.6486 9.43262L 41.6486 11.542ZM 40.0226 9.31836C 40.0226 7.94141 39.8292 6.93945 39.4425 6.3125C 39.0558 5.67969 38.4435 5.36328 37.6056 5.36328C 36.7736 5.36328 36.1671 5.67676 35.7863 6.30371C 35.4054 6.93066 35.2091 7.89453 35.1974 9.19531L 35.1974 11.7969C 35.1974 13.1797 35.3966 14.2021 35.795 14.8643C 36.1993 15.5205 36.8087 15.8486 37.6232 15.8486C 38.4259 15.8486 39.0206 15.5381 39.4073 14.917C 39.7999 14.2959 40.005 13.3174 40.0226 11.9814L 40.0226 9.31836ZM 43.9337 16.1475C 43.9337 15.8662 44.0157 15.6318 44.1798 15.4443C 44.3497 15.2568 44.6017 15.1631 44.9357 15.1631C 45.2696 15.1631 45.5216 15.2568 45.6915 15.4443C 45.8673 15.6318 45.9552 15.8662 45.9552 16.1475C 45.9552 16.417 45.8673 16.6426 45.6915 16.8242C 45.5216 17.0059 45.2696 17.0967 44.9357 17.0967C 44.6017 17.0967 44.3497 17.0059 44.1798 16.8242C 44.0157 16.6426 43.9337 16.417 43.9337 16.1475ZM 50.8419 9.81055L 52.0636 9.81055C 52.8312 9.79883 53.4347 9.59668 53.8741 9.2041C 54.3136 8.81152 54.5333 8.28125 54.5333 7.61328C 54.5333 6.11328 53.7863 5.36328 52.2921 5.36328C 51.589 5.36328 51.0265 5.56543 50.6046 5.96973C 50.1886 6.36816 49.9806 6.89844 49.9806 7.56055L 48.3546 7.56055C 48.3546 6.54687 48.7238 5.70605 49.462 5.03809C 50.2062 4.36426 51.1495 4.02734 52.2921 4.02734C 53.4991 4.02734 54.4454 4.34668 55.131 4.98535C 55.8165 5.62402 56.1593 6.51172 56.1593 7.64844C 56.1593 8.20508 55.9777 8.74414 55.6144 9.26562C 55.257 9.78711 54.7677 10.1768 54.1466 10.4346C 54.8497 10.6572 55.3917 11.0264 55.7726 11.542C 56.1593 12.0576 56.3527 12.6875 56.3527 13.4316C 56.3527 14.5801 55.9777 15.4912 55.2277 16.165C 54.4777 16.8389 53.5021 17.1758 52.3009 17.1758C 51.0997 17.1758 50.1212 16.8506 49.3654 16.2002C 48.6154 15.5498 48.2404 14.6914 48.2404 13.625L 49.8751 13.625C 49.8751 14.2988 50.0948 14.8379 50.5343 15.2422C 50.9738 15.6465 51.5626 15.8486 52.3009 15.8486C 53.0861 15.8486 53.6866 15.6436 54.1027 15.2334C 54.5187 14.8232 54.7267 14.2344 54.7267 13.4668C 54.7267 12.7227 54.4982 12.1514 54.0411 11.7529C 53.5841 11.3545 52.9249 11.1494 52.0636 11.1377L 50.8419 11.1377L 50.8419 9.81055Z"/>
<path id="path7_fill" d="M 22.1544 11.3486L 16.7843 11.3486L 16.7843 17L 15.0968 17L 15.0968 4.20312L 23.0245 4.20312L 23.0245 5.5918L 16.7843 5.5918L 16.7843 9.96875L 22.1544 9.96875L 22.1544 11.3486ZM 30.3634 17C 30.2696 16.8125 30.1935 16.4785 30.1349 15.998C 29.379 16.7832 28.4767 17.1758 27.4279 17.1758C 26.4904 17.1758 25.7198 16.9121 25.1163 16.3848C 24.5187 15.8516 24.2198 15.1777 24.2198 14.3633C 24.2198 13.373 24.5948 12.6055 25.3448 12.0605C 26.1007 11.5098 27.1613 11.2344 28.5265 11.2344L 30.1085 11.2344L 30.1085 10.4873C 30.1085 9.91895 29.9386 9.46777 29.5988 9.13379C 29.2589 8.79395 28.7579 8.62402 28.0958 8.62402C 27.5157 8.62402 27.0294 8.77051 26.6368 9.06348C 26.2443 9.35645 26.048 9.71094 26.048 10.127L 24.4132 10.127C 24.4132 9.65234 24.5802 9.19531 24.9142 8.75586C 25.254 8.31055 25.7111 7.95898 26.2853 7.70117C 26.8654 7.44336 27.5011 7.31445 28.1925 7.31445C 29.2882 7.31445 30.1466 7.58984 30.7677 8.14062C 31.3888 8.68555 31.7111 9.43848 31.7345 10.3994L 31.7345 14.7764C 31.7345 15.6494 31.8458 16.3438 32.0685 16.8594L 32.0685 17L 30.3634 17ZM 27.6652 15.7607C 28.1749 15.7607 28.6583 15.6289 29.1154 15.3652C 29.5724 15.1016 29.9034 14.7588 30.1085 14.3369L 30.1085 12.3857L 28.8341 12.3857C 26.8419 12.3857 25.8458 12.9688 25.8458 14.1348C 25.8458 14.6445 26.0157 15.043 26.3556 15.3301C 26.6954 15.6172 27.132 15.7607 27.6652 15.7607ZM 36.0499 17L 34.4239 17L 34.4239 3.5L 36.0499 3.5L 36.0499 17ZM 44.1974 14.4775C 44.1974 14.0381 44.0304 13.6982 43.6964 13.458C 43.3683 13.2119 42.7911 13.001 41.965 12.8252C 41.1446 12.6494 40.4913 12.4385 40.005 12.1924C 39.5245 11.9463 39.1671 11.6533 38.9327 11.3135C 38.7042 10.9736 38.59 10.5693 38.59 10.1006C 38.59 9.32129 38.9181 8.66211 39.5743 8.12305C 40.2364 7.58398 41.0802 7.31445 42.1056 7.31445C 43.1837 7.31445 44.0568 7.59277 44.7247 8.14941C 45.3986 8.70605 45.7355 9.41797 45.7355 10.2852L 44.1007 10.2852C 44.1007 9.83984 43.9103 9.45605 43.5294 9.13379C 43.1544 8.81152 42.6798 8.65039 42.1056 8.65039C 41.5138 8.65039 41.0509 8.7793 40.7169 9.03711C 40.3829 9.29492 40.2159 9.63184 40.2159 10.0479C 40.2159 10.4404 40.3712 10.7363 40.6818 10.9355C 40.9923 11.1348 41.5519 11.3252 42.3605 11.5068C 43.1749 11.6885 43.8341 11.9053 44.338 12.1572C 44.8419 12.4092 45.214 12.7139 45.4542 13.0713C 45.7003 13.4229 45.8234 13.8535 45.8234 14.3633C 45.8234 15.2129 45.4835 15.8955 44.8038 16.4111C 44.1241 16.9209 43.2423 17.1758 42.1583 17.1758C 41.3966 17.1758 40.7228 17.041 40.1368 16.7715C 39.5509 16.502 39.0909 16.127 38.757 15.6465C 38.4288 15.1602 38.2648 14.6357 38.2648 14.0732L 39.8907 14.0732C 39.92 14.6182 40.1368 15.0518 40.5411 15.374C 40.9513 15.6904 41.4904 15.8486 42.1583 15.8486C 42.7736 15.8486 43.2657 15.7256 43.6349 15.4795C 44.0099 15.2275 44.1974 14.8936 44.1974 14.4775ZM 51.8878 17.1758C 50.5988 17.1758 49.5499 16.7539 48.7413 15.9102C 47.9327 15.0605 47.5284 13.9268 47.5284 12.5088L 47.5284 12.21C 47.5284 11.2666 47.7071 10.4258 48.0646 9.6875C 48.4279 8.94336 48.9318 8.36328 49.5763 7.94727C 50.2267 7.52539 50.9298 7.31445 51.6857 7.31445C 52.922 7.31445 53.8829 7.72168 54.5685 8.53613C 55.254 9.35059 55.5968 10.5166 55.5968 12.0342L 55.5968 12.7109L 49.1544 12.7109C 49.1779 13.6484 49.4503 14.4072 49.9718 14.9873C 50.4991 15.5615 51.1671 15.8486 51.9757 15.8486C 52.5499 15.8486 53.0363 15.7314 53.4347 15.4971C 53.8331 15.2627 54.1818 14.9521 54.4806 14.5654L 55.4738 15.3389C 54.6769 16.5635 53.4816 17.1758 51.8878 17.1758ZM 51.6857 8.65039C 51.0294 8.65039 50.4786 8.89062 50.0333 9.37109C 49.588 9.8457 49.3126 10.5137 49.2071 11.375L 53.9708 11.375L 53.9708 11.252C 53.9239 10.4258 53.7013 9.78711 53.3029 9.33594C 52.9044 8.87891 52.3654 8.65039 51.6857 8.65039Z"/>
<path id="path8_fill" d="M 27.4366 5.5918L 23.3234 5.5918L 23.3234 17L 21.6446 17L 21.6446 5.5918L 17.5402 5.5918L 17.5402 4.20312L 27.4366 4.20312L 27.4366 5.5918ZM 33.0089 8.94922C 32.7628 8.9082 32.4962 8.8877 32.2091 8.8877C 31.1427 8.8877 30.4191 9.3418 30.0382 10.25L 30.0382 17L 28.4122 17L 28.4122 7.49023L 29.9943 7.49023L 30.0206 8.58887C 30.5538 7.73926 31.3097 7.31445 32.2882 7.31445C 32.6046 7.31445 32.8448 7.35547 33.0089 7.4375L 33.0089 8.94922ZM 40.3829 16.0596C 39.7501 16.8037 38.8214 17.1758 37.5968 17.1758C 36.5831 17.1758 35.8097 16.8828 35.2765 16.2969C 34.7491 15.7051 34.4825 14.832 34.4767 13.6777L 34.4767 7.49023L 36.1027 7.49023L 36.1027 13.6338C 36.1027 15.0752 36.6886 15.7959 37.8605 15.7959C 39.1027 15.7959 39.9288 15.333 40.339 14.4072L 40.339 7.49023L 41.965 7.49023L 41.965 17L 40.4181 17L 40.3829 16.0596ZM 48.3898 17.1758C 47.1007 17.1758 46.0519 16.7539 45.2433 15.9102C 44.4347 15.0605 44.0304 13.9268 44.0304 12.5088L 44.0304 12.21C 44.0304 11.2666 44.2091 10.4258 44.5665 9.6875C 44.9298 8.94336 45.4337 8.36328 46.0782 7.94727C 46.7286 7.52539 47.4318 7.31445 48.1876 7.31445C 49.4239 7.31445 50.3849 7.72168 51.0704 8.53613C 51.756 9.35059 52.0988 10.5166 52.0988 12.0342L 52.0988 12.7109L 45.6564 12.7109C 45.6798 13.6484 45.9523 14.4072 46.4738 14.9873C 47.0011 15.5615 47.6691 15.8486 48.4777 15.8486C 49.0519 15.8486 49.5382 15.7314 49.9366 15.4971C 50.3351 15.2627 50.6837 14.9521 50.9825 14.5654L 51.9757 15.3389C 51.1788 16.5635 49.9835 17.1758 48.3898 17.1758ZM 48.1876 8.65039C 47.5314 8.65039 46.9806 8.89062 46.5353 9.37109C 46.09 9.8457 45.8146 10.5137 45.7091 11.375L 50.4728 11.375L 50.4728 11.252C 50.4259 10.4258 50.2032 9.78711 49.8048 9.33594C 49.4064 8.87891 48.8673 8.65039 48.1876 8.65039Z"/>
<path id="path9_fill" d="M 5.44041 7.056L 7.12041 7.056L 7.28841 8.568L 7.33041 8.568C 7.67574 7.99867 8.09107 7.57867 8.57641 7.308C 9.06174 7.028 9.58441 6.888 10.1444 6.888C 10.4524 6.888 10.6997 6.91133 10.8864 6.958C 11.0824 7.00467 11.2831 7.07467 11.4884 7.168L 11.0684 8.89C 10.8537 8.82467 10.6577 8.778 10.4804 8.75C 10.3124 8.71267 10.0977 8.694 9.83641 8.694C 9.40707 8.694 8.98241 8.82 8.56241 9.072C 8.15174 9.324 7.79707 9.76267 7.49841 10.388L 7.49841 14L 5.44041 14L 5.44041 7.056ZM 12.9809 10.528C 12.9809 9.95867 13.0789 9.45 13.2749 9.002C 13.4803 8.554 13.7509 8.176 14.0869 7.868C 14.4229 7.55067 14.8056 7.308 15.2349 7.14C 15.6736 6.972 16.1263 6.888 16.5929 6.888C 17.1249 6.888 17.5963 6.972 18.0069 7.14C 18.4176 7.308 18.7583 7.54133 19.0289 7.84C 19.2996 8.13867 19.5049 8.49333 19.6449 8.904C 19.7849 9.30533 19.8549 9.744 19.8549 10.22C 19.8549 10.4067 19.8456 10.584 19.8269 10.752C 19.8083 10.92 19.7896 11.046 19.7709 11.13L 15.0949 11.13C 15.1696 11.6527 15.3936 12.0307 15.7669 12.264C 16.1496 12.488 16.5976 12.6 17.1109 12.6C 17.4283 12.6 17.7269 12.5627 18.0069 12.488C 18.2963 12.404 18.5949 12.2827 18.9029 12.124L 19.5749 13.356C 19.1829 13.608 18.7443 13.8087 18.2589 13.958C 17.7736 14.098 17.2976 14.168 16.8309 14.168C 16.2896 14.168 15.7856 14.0887 15.3189 13.93C 14.8523 13.762 14.4463 13.524 14.1009 13.216C 13.7556 12.8987 13.4803 12.516 13.2749 12.068C 13.0789 11.62 12.9809 11.1067 12.9809 10.528ZM 17.9929 9.772C 17.9929 9.38 17.8856 9.06267 17.6709 8.82C 17.4563 8.57733 17.1109 8.456 16.6349 8.456C 16.2616 8.456 15.9303 8.56333 15.6409 8.778C 15.3516 8.99267 15.1603 9.324 15.0669 9.772L 17.9929 9.772ZM 22.2715 11.816C 22.6728 12.068 23.0741 12.2687 23.4755 12.418C 23.8861 12.5673 24.3248 12.642 24.7915 12.642C 25.2675 12.642 25.6081 12.5907 25.8135 12.488C 26.0188 12.3853 26.1215 12.2407 26.1215 12.054C 26.1215 11.8393 25.9488 11.6667 25.6035 11.536C 25.2675 11.396 24.8195 11.2467 24.2595 11.088C 23.9515 11.004 23.6481 10.906 23.3495 10.794C 23.0601 10.6727 22.7988 10.5327 22.5655 10.374C 22.3321 10.206 22.1408 10.0147 21.9915 9.8C 21.8515 9.58533 21.7815 9.338 21.7815 9.058C 21.7815 8.74067 21.8561 8.44667 22.0055 8.176C 22.1548 7.90533 22.3648 7.67667 22.6355 7.49C 22.9155 7.30333 23.2515 7.15867 23.6435 7.056C 24.0448 6.944 24.4928 6.888 24.9875 6.888C 25.6035 6.888 26.1635 6.99067 26.6675 7.196C 27.1808 7.392 27.6195 7.60667 27.9835 7.84L 27.0595 9.072C 26.7421 8.88533 26.4155 8.73133 26.0795 8.61C 25.7435 8.47933 25.3935 8.414 25.0295 8.414C 24.5908 8.414 24.2781 8.46067 24.0915 8.554C 23.9141 8.64733 23.8255 8.78267 23.8255 8.96C 23.8255 9.06267 23.8721 9.156 23.9655 9.24C 24.0588 9.324 24.1848 9.39867 24.3435 9.464C 24.5021 9.52933 24.6888 9.59467 24.9035 9.66C 25.1275 9.716 25.3608 9.77667 25.6035 9.842C 25.9488 9.93533 26.2755 10.0427 26.5835 10.164C 26.8915 10.276 27.1621 10.4113 27.3955 10.57C 27.6288 10.7287 27.8155 10.92 27.9555 11.144C 28.0955 11.368 28.1655 11.6293 28.1655 11.928C 28.1655 12.2453 28.0908 12.5393 27.9415 12.81C 27.7921 13.0807 27.5728 13.3187 27.2835 13.524C 27.0035 13.72 26.6488 13.8787 26.2195 14C 25.7995 14.112 25.3095 14.168 24.7495 14.168C 24.1241 14.168 23.5128 14.0653 22.9155 13.86C 22.3181 13.6547 21.7955 13.4027 21.3475 13.104L 22.2715 11.816ZM 36.35 14L 34.67 14L 34.516 13.006L 34.46 13.006C 34.152 13.3607 33.8113 13.6453 33.438 13.86C 33.0647 14.0653 32.626 14.168 32.122 14.168C 31.3287 14.168 30.7547 13.916 30.4 13.412C 30.0453 12.908 29.868 12.2173 29.868 11.34L 29.868 7.056L 31.926 7.056L 31.926 11.074C 31.926 11.5407 31.996 11.8813 32.136 12.096C 32.276 12.3107 32.542 12.418 32.934 12.418C 33.1953 12.418 33.424 12.362 33.62 12.25C 33.8253 12.138 34.0493 11.928 34.292 11.62L 34.292 7.056L 36.35 7.056L 36.35 14ZM 38.2625 4.186L 42.3365 4.186L 42.3365 11.368C 42.3365 11.5827 42.3645 11.7647 42.4205 11.914C 42.4859 12.054 42.5699 12.1707 42.6725 12.264C 42.7845 12.348 42.9059 12.4087 43.0365 12.446C 43.1765 12.4833 43.3165 12.502 43.4565 12.502C 43.6152 12.502 43.7832 12.488 43.9605 12.46C 44.1379 12.4227 44.3339 12.362 44.5485 12.278L 45.0105 13.79C 44.8239 13.846 44.6512 13.8973 44.4925 13.944C 44.3339 13.9907 44.1752 14.028 44.0165 14.056C 43.8579 14.0933 43.6899 14.1213 43.5125 14.14C 43.3352 14.1587 43.1392 14.168 42.9245 14.168C 42.0472 14.168 41.3845 13.9113 40.9365 13.398C 40.4979 12.8753 40.2785 12.1707 40.2785 11.284L 40.2785 5.81L 38.2625 5.81L 38.2625 4.186ZM 48.2251 8.666L 46.4751 8.666L 46.4751 7.14L 48.3231 7.056L 48.5891 5.208L 50.2831 5.208L 50.2831 7.056L 53.2231 7.056L 53.2231 8.666L 50.2831 8.666L 50.2831 11.102C 50.2831 11.634 50.3997 12.012 50.6331 12.236C 50.8664 12.4507 51.2351 12.558 51.7391 12.558C 52.0097 12.558 52.2571 12.5347 52.4811 12.488C 52.7051 12.4413 52.9197 12.3807 53.1251 12.306L 53.4891 13.79C 53.1811 13.8833 52.8357 13.9673 52.4531 14.042C 52.0797 14.126 51.6691 14.168 51.2211 14.168C 50.6704 14.168 50.2037 14.0933 49.8211 13.944C 49.4384 13.7947 49.1257 13.5893 48.8831 13.328C 48.6497 13.0573 48.4817 12.7353 48.3791 12.362C 48.2764 11.9887 48.2251 11.5733 48.2251 11.116L 48.2251 8.666Z"/>
<path id="path10_fill" d="M 0 0L 248 0L 248 42L 0 42L 0 0Z"/>
<path id="path11_fill" d="M 1.82 7.126L 3.15 7.126L 3.29 8.68L 3.332 8.68C 3.68667 8.12 4.11133 7.69533 4.606 7.406C 5.11 7.10733 5.66067 6.958 6.258 6.958C 6.538 6.958 6.776 6.98133 6.972 7.028C 7.17733 7.06533 7.38267 7.13533 7.588 7.238L 7.252 8.596C 7.028 8.52133 6.82733 8.47 6.65 8.442C 6.482 8.40467 6.26733 8.386 6.006 8.386C 5.53 8.386 5.07267 8.52133 4.634 8.792C 4.19533 9.06267 3.79867 9.534 3.444 10.206L 3.444 14L 1.82 14L 1.82 7.126ZM 9.26253 10.57C 9.26253 10.01 9.36053 9.506 9.55653 9.058C 9.76186 8.61 10.0279 8.232 10.3545 7.924C 10.6812 7.60667 11.0545 7.36867 11.4745 7.21C 11.9039 7.042 12.3425 6.958 12.7905 6.958C 13.3039 6.958 13.7565 7.042 14.1485 7.21C 14.5499 7.36867 14.8859 7.59267 15.1565 7.882C 15.4272 8.162 15.6325 8.50267 15.7725 8.904C 15.9125 9.30533 15.9825 9.744 15.9825 10.22C 15.9825 10.3787 15.9732 10.528 15.9545 10.668C 15.9452 10.808 15.9312 10.92 15.9125 11.004L 10.9145 11.004C 10.9705 11.62 11.2132 12.096 11.6425 12.432C 12.0719 12.7587 12.5992 12.922 13.2245 12.922C 13.5792 12.922 13.9105 12.8753 14.2185 12.782C 14.5265 12.6793 14.8392 12.5393 15.1565 12.362L 15.7025 13.37C 15.3292 13.6033 14.9139 13.7947 14.4565 13.944C 13.9992 14.0933 13.5185 14.168 13.0145 14.168C 12.4919 14.168 12.0019 14.0887 11.5445 13.93C 11.0872 13.762 10.6905 13.524 10.3545 13.216C 10.0185 12.908 9.75253 12.5347 9.55653 12.096C 9.36053 11.648 9.26253 11.1393 9.26253 10.57ZM 14.4985 9.912C 14.4985 9.38 14.3585 8.96467 14.0785 8.666C 13.7985 8.358 13.3832 8.204 12.8325 8.204C 12.3659 8.204 11.9505 8.34867 11.5865 8.638C 11.2225 8.92733 10.9939 9.352 10.9005 9.912L 14.4985 9.912ZM 18.4131 12.082C 18.8051 12.3527 19.2111 12.5673 19.6311 12.726C 20.0604 12.8753 20.5411 12.95 21.0731 12.95C 21.6144 12.95 22.0111 12.8753 22.2631 12.726C 22.5151 12.5673 22.6411 12.3667 22.6411 12.124C 22.6411 11.8813 22.4777 11.6807 22.1511 11.522C 21.8244 11.354 21.3111 11.1767 20.6111 10.99C 20.2844 10.906 19.9671 10.8033 19.6591 10.682C 19.3511 10.5607 19.0804 10.4207 18.8471 10.262C 18.6137 10.1033 18.4271 9.92133 18.2871 9.716C 18.1471 9.51067 18.0771 9.27733 18.0771 9.016C 18.0771 8.40933 18.3384 7.91467 18.8611 7.532C 19.3837 7.14933 20.1351 6.958 21.1151 6.958C 21.6751 6.958 22.2024 7.05133 22.6971 7.238C 23.1917 7.42467 23.6164 7.63467 23.9711 7.868L 23.2291 8.862C 22.9211 8.65667 22.5897 8.49333 22.2351 8.372C 21.8897 8.24133 21.5211 8.176 21.1291 8.176C 20.5971 8.176 20.2237 8.25067 20.0091 8.4C 19.7944 8.54 19.6871 8.71733 19.6871 8.932C 19.6871 9.05333 19.7337 9.16533 19.8271 9.268C 19.9297 9.36133 20.0651 9.45 20.2331 9.534C 20.4104 9.60867 20.6157 9.68333 20.8491 9.758C 21.0824 9.83267 21.3391 9.90267 21.6191 9.968C 22.0204 10.0707 22.3797 10.1873 22.6971 10.318C 23.0237 10.4393 23.2991 10.5793 23.5231 10.738C 23.7564 10.8967 23.9337 11.0833 24.0551 11.298C 24.1857 11.5127 24.2511 11.76 24.2511 12.04C 24.2511 12.3387 24.1811 12.6187 24.0411 12.88C 23.9011 13.132 23.6957 13.356 23.4251 13.552C 23.1544 13.7387 22.8184 13.888 22.4171 14C 22.0157 14.112 21.5537 14.168 21.0311 14.168C 20.3871 14.168 19.7711 14.0653 19.1831 13.86C 18.5951 13.6547 18.0864 13.4027 17.6571 13.104L 18.4131 12.082ZM 32.3936 14L 31.0776 14L 30.9516 12.908L 30.8956 12.908C 30.5689 13.2907 30.2096 13.5987 29.8176 13.832C 29.4256 14.056 28.9729 14.168 28.4596 14.168C 27.6569 14.168 27.0736 13.93 26.7096 13.454C 26.3456 12.9687 26.1636 12.278 26.1636 11.382L 26.1636 7.126L 27.7736 7.126L 27.7736 11.172C 27.7736 11.732 27.8669 12.1427 28.0536 12.404C 28.2496 12.656 28.5856 12.782 29.0616 12.782C 29.3883 12.782 29.6776 12.7073 29.9296 12.558C 30.1909 12.4087 30.4756 12.1427 30.7836 11.76L 30.7836 7.126L 32.3936 7.126L 32.3936 14ZM 34.5721 4.116L 38.3521 4.116L 38.3521 11.578C 38.3521 12.0447 38.4688 12.376 38.7021 12.572C 38.9355 12.7587 39.2295 12.852 39.5841 12.852C 39.9201 12.852 40.3121 12.7633 40.7601 12.586L 41.1381 13.776C 40.8115 13.888 40.5035 13.9813 40.2141 14.056C 39.9341 14.1307 39.5935 14.168 39.1921 14.168C 38.3801 14.168 37.7688 13.9347 37.3581 13.468C 36.9475 13.0013 36.7421 12.3433 36.7421 11.494L 36.7421 5.39L 34.5721 5.39L 34.5721 4.116ZM 44.6327 8.4L 42.7987 8.4L 42.7987 7.196L 44.7027 7.126L 44.9127 5.25L 46.2427 5.25L 46.2427 7.126L 49.3787 7.126L 49.3787 8.4L 46.2427 8.4L 46.2427 11.228C 46.2427 11.7973 46.3593 12.2173 46.5927 12.488C 46.826 12.7493 47.2367 12.88 47.8247 12.88C 48.1233 12.88 48.394 12.8567 48.6367 12.81C 48.8793 12.754 49.1127 12.684 49.3367 12.6L 49.6447 13.776C 49.3367 13.8787 48.996 13.9673 48.6227 14.042C 48.2493 14.126 47.8527 14.168 47.4327 14.168C 46.91 14.168 46.4713 14.098 46.1167 13.958C 45.762 13.818 45.4727 13.622 45.2487 13.37C 45.034 13.1087 44.8753 12.796 44.7727 12.432C 44.6793 12.068 44.6327 11.6667 44.6327 11.228L 44.6327 8.4ZM 59.8537 7.224L 66.0697 7.224L 66.0697 8.4L 59.8537 8.4L 59.8537 7.224ZM 59.8537 10.346L 66.0697 10.346L 66.0697 11.522L 59.8537 11.522L 59.8537 10.346ZM 76.5728 10.57C 76.5728 10.0007 76.6754 9.492 76.8808 9.044C 77.0954 8.596 77.3801 8.218 77.7348 7.91C 78.0894 7.602 78.5048 7.36867 78.9808 7.21C 79.4568 7.042 79.9561 6.958 80.4788 6.958C 81.0388 6.958 81.5288 7.05133 81.9488 7.238C 82.3781 7.42467 82.7374 7.65333 83.0268 7.924L 82.2568 8.932C 81.9861 8.71733 81.7108 8.554 81.4308 8.442C 81.1601 8.33 80.8708 8.274 80.5628 8.274C 79.8721 8.274 79.3121 8.484 78.8828 8.904C 78.4534 9.31467 78.2388 9.87 78.2388 10.57C 78.2388 10.9153 78.2948 11.228 78.4068 11.508C 78.5188 11.788 78.6728 12.0307 78.8688 12.236C 79.0741 12.432 79.3168 12.586 79.5968 12.698C 79.8768 12.8007 80.1848 12.852 80.5208 12.852C 80.9128 12.852 81.2674 12.7773 81.5848 12.628C 81.9114 12.4787 82.2101 12.3013 82.4808 12.096L 83.1528 13.132C 82.7608 13.4773 82.3221 13.7387 81.8368 13.916C 81.3514 14.084 80.8614 14.168 80.3668 14.168C 79.8254 14.168 79.3214 14.0887 78.8548 13.93C 78.3974 13.7713 77.9961 13.538 77.6508 13.23C 77.3148 12.922 77.0488 12.544 76.8528 12.096C 76.6661 11.648 76.5728 11.1393 76.5728 10.57ZM 86.9273 4.088L 90.9313 4.088L 90.9313 4.97L 88.1733 4.97L 88.1733 15.246L 90.9313 15.246L 90.9313 16.128L 86.9273 16.128L 86.9273 4.088ZM 93.3618 10.57C 93.3618 10.0007 93.4645 9.492 93.6698 9.044C 93.8845 8.596 94.1692 8.218 94.5238 7.91C 94.8785 7.602 95.2938 7.36867 95.7698 7.21C 96.2458 7.042 96.7452 6.958 97.2678 6.958C 97.8278 6.958 98.3178 7.05133 98.7378 7.238C 99.1672 7.42467 99.5265 7.65333 99.8158 7.924L 99.0458 8.932C 98.7752 8.71733 98.4998 8.554 98.2198 8.442C 97.9492 8.33 97.6598 8.274 97.3518 8.274C 96.6612 8.274 96.1012 8.484 95.6718 8.904C 95.2425 9.31467 95.0278 9.87 95.0278 10.57C 95.0278 10.9153 95.0838 11.228 95.1958 11.508C 95.3078 11.788 95.4618 12.0307 95.6578 12.236C 95.8632 12.432 96.1058 12.586 96.3858 12.698C 96.6658 12.8007 96.9738 12.852 97.3098 12.852C 97.7018 12.852 98.0565 12.7773 98.3738 12.628C 98.7005 12.4787 98.9992 12.3013 99.2698 12.096L 99.9418 13.132C 99.5498 13.4773 99.1112 13.7387 98.6258 13.916C 98.1405 14.084 97.6505 14.168 97.1558 14.168C 96.6145 14.168 96.1105 14.0887 95.6438 13.93C 95.1865 13.7713 94.7852 13.538 94.4398 13.23C 94.1038 12.922 93.8378 12.544 93.6418 12.096C 93.4552 11.648 93.3618 11.1393 93.3618 10.57ZM 108.294 14.868L 108.294 16.128L 101.574 16.128L 101.574 14.868L 108.294 14.868ZM 110.277 4.116L 111.901 4.116L 111.901 6.664L 111.845 7.868C 112.144 7.588 112.48 7.36867 112.853 7.21C 113.226 7.042 113.6 6.958 113.973 6.958C 114.421 6.958 114.818 7.042 115.163 7.21C 115.508 7.36867 115.802 7.602 116.045 7.91C 116.288 8.20867 116.47 8.57267 116.591 9.002C 116.722 9.43133 116.787 9.912 116.787 10.444C 116.787 11.032 116.703 11.5593 116.535 12.026C 116.367 12.4833 116.138 12.8707 115.849 13.188C 115.569 13.5053 115.242 13.748 114.869 13.916C 114.505 14.084 114.127 14.168 113.735 14.168C 113.408 14.168 113.068 14.0887 112.713 13.93C 112.358 13.7713 112.032 13.5427 111.733 13.244L 111.691 13.244L 111.551 14L 110.277 14L 110.277 4.116ZM 111.901 12.208C 112.153 12.4413 112.414 12.6047 112.685 12.698C 112.956 12.7913 113.198 12.838 113.413 12.838C 113.898 12.838 114.304 12.642 114.631 12.25C 114.958 11.8487 115.121 11.256 115.121 10.472C 115.121 9.78133 114.995 9.24467 114.743 8.862C 114.491 8.47933 114.085 8.288 113.525 8.288C 113.264 8.288 112.998 8.35333 112.727 8.484C 112.456 8.61467 112.181 8.82467 111.901 9.114L 111.901 12.208ZM 118.265 10.57C 118.265 10.0007 118.359 9.492 118.545 9.044C 118.741 8.596 118.998 8.218 119.315 7.91C 119.633 7.602 120.001 7.36867 120.421 7.21C 120.841 7.042 121.275 6.958 121.723 6.958C 122.171 6.958 122.605 7.042 123.025 7.21C 123.445 7.36867 123.814 7.602 124.131 7.91C 124.449 8.218 124.701 8.596 124.887 9.044C 125.083 9.492 125.181 10.0007 125.181 10.57C 125.181 11.1393 125.083 11.648 124.887 12.096C 124.701 12.544 124.449 12.922 124.131 13.23C 123.814 13.538 123.445 13.7713 123.025 13.93C 122.605 14.0887 122.171 14.168 121.723 14.168C 121.275 14.168 120.841 14.0887 120.421 13.93C 120.001 13.7713 119.633 13.538 119.315 13.23C 118.998 12.922 118.741 12.544 118.545 12.096C 118.359 11.648 118.265 11.1393 118.265 10.57ZM 119.931 10.57C 119.931 11.2607 120.09 11.816 120.407 12.236C 120.725 12.6467 121.163 12.852 121.723 12.852C 122.283 12.852 122.722 12.6467 123.039 12.236C 123.357 11.816 123.515 11.2607 123.515 10.57C 123.515 9.87 123.357 9.31467 123.039 8.904C 122.722 8.484 122.283 8.274 121.723 8.274C 121.163 8.274 120.725 8.484 120.407 8.904C 120.09 9.31467 119.931 9.87 119.931 10.57ZM 126.66 10.57C 126.66 10.0007 126.753 9.492 126.94 9.044C 127.136 8.596 127.393 8.218 127.71 7.91C 128.027 7.602 128.396 7.36867 128.816 7.21C 129.236 7.042 129.67 6.958 130.118 6.958C 130.566 6.958 131 7.042 131.42 7.21C 131.84 7.36867 132.209 7.602 132.526 7.91C 132.843 8.218 133.095 8.596 133.282 9.044C 133.478 9.492 133.576 10.0007 133.576 10.57C 133.576 11.1393 133.478 11.648 133.282 12.096C 133.095 12.544 132.843 12.922 132.526 13.23C 132.209 13.538 131.84 13.7713 131.42 13.93C 131 14.0887 130.566 14.168 130.118 14.168C 129.67 14.168 129.236 14.0887 128.816 13.93C 128.396 13.7713 128.027 13.538 127.71 13.23C 127.393 12.922 127.136 12.544 126.94 12.096C 126.753 11.648 126.66 11.1393 126.66 10.57ZM 128.326 10.57C 128.326 11.2607 128.485 11.816 128.802 12.236C 129.119 12.6467 129.558 12.852 130.118 12.852C 130.678 12.852 131.117 12.6467 131.434 12.236C 131.751 11.816 131.91 11.2607 131.91 10.57C 131.91 9.87 131.751 9.31467 131.434 8.904C 131.117 8.484 130.678 8.274 130.118 8.274C 129.558 8.274 129.119 8.484 128.802 8.904C 128.485 9.31467 128.326 9.87 128.326 10.57ZM 135.307 4.116L 139.086 4.116L 139.086 11.578C 139.086 12.0447 139.203 12.376 139.436 12.572C 139.67 12.7587 139.964 12.852 140.318 12.852C 140.655 12.852 141.047 12.7633 141.495 12.586L 141.873 13.776C 141.546 13.888 141.238 13.9813 140.949 14.056C 140.668 14.1307 140.328 14.168 139.926 14.168C 139.114 14.168 138.503 13.9347 138.093 13.468C 137.682 13.0013 137.476 12.3433 137.476 11.494L 137.476 5.39L 135.307 5.39L 135.307 4.116ZM 146.879 15.246L 146.879 4.97L 144.135 4.97L 144.135 4.088L 148.139 4.088L 148.139 16.128L 144.135 16.128L 144.135 15.246L 146.879 15.246Z"/>
<path id="path12_stroke" d="M 16.7071 0.707107C 17.0976 0.316582 17.0976 -0.316582 16.7071 -0.707107L 10.3431 -7.07107C 9.95262 -7.46159 9.31946 -7.46159 8.92893 -7.07107C 8.53841 -6.68054 8.53841 -6.04738 8.92893 -5.65685L 14.5858 0L 8.92893 5.65685C 8.53841 6.04738 8.53841 6.68054 8.92893 7.07107C 9.31946 7.46159 9.95262 7.46159 10.3431 7.07107L 16.7071 0.707107ZM 0 1L 16 1L 16 -1L 0 -1L 0 1Z"/>
</defs>
</svg>
