<svg width="1120" height="502" viewBox="0 0 1120 502" version="1.1" xmlns="http://www.w3.org/2000/svg" xmlns:xlink="http://www.w3.org/1999/xlink">
<title>Frame</title>
<desc>Created using Figma</desc>
<g id="Canvas" transform="matrix(2 0 0 2 154 88)">
<clipPath id="clip-0" clip-rule="evenodd">
<path d="M -77 -44L 483 -44L 483 207L -77 207L -77 -44Z" fill="#FFFFFF"/>
</clipPath>
<g id="Frame" clip-path="url(#clip-0)">
<path d="M -77 -44L 483 -44L 483 207L -77 207L -77 -44Z" fill="#FFFFFF"/>
<g id="Group">
<g id="Rectangle">
<use xlink:href="#path0_stroke" transform="translate(186 86)"/>
</g>
<g id="F">
<use xlink:href="#path1_fill" transform="translate(186.705 91.8)" fill="#EB5757"/>
</g>
<g id="T">
<use xlink:href="#path2_fill" transform="translate(186.857 119)" fill="#27AE60"/>
</g>
<g id="Rectangle">
<use xlink:href="#path0_stroke" transform="translate(186 115)"/>
</g>
<g id="T">
<use xlink:href="#path2_fill" transform="translate(186 149)" fill="#27AE60"/>
</g>
<g id="F">
<use xlink:href="#path1_fill" transform="translate(216.705 91)" fill="#EB5757"/>
</g>
<g id="T">
<use xlink:href="#path2_fill" transform="translate(216.857 118.2)" fill="#27AE60"/>
</g>
<g id="T">
<use xlink:href="#path2_fill" transform="translate(216 148.2)" fill="#27AE60"/>
</g>
<g id="F">
<use xlink:href="#path1_fill" transform="translate(155.705 92)" fill="#EB5757"/>
</g>
<g id="F">
<use xlink:href="#path1_fill" transform="translate(155 119)" fill="#EB5757"/>
</g>
<g id="T">
<use xlink:href="#path2_fill" transform="translate(155 149.2)" fill="#27AE60"/>
</g>
<g id="Rectangle">
<use xlink:href="#path0_stroke" transform="translate(186 144)"/>
</g>
<g id="Rectangle">
<use xlink:href="#path0_stroke" transform="translate(155 86)"/>
</g>
<g id="Rectangle">
<use xlink:href="#path0_stroke" transform="translate(155 115)"/>
</g>
<g id="Rectangle">
<use xlink:href="#path0_stroke" transform="translate(155 144)"/>
</g>
<g id="Rectangle">
<use xlink:href="#path0_stroke" transform="translate(217 86)"/>
</g>
<g id="Rectangle">
<use xlink:href="#path0_stroke" transform="translate(217 115)"/>
</g>
<g id="Rectangle">
<use xlink:href="#path0_stroke" transform="translate(217 144)"/>
</g>
</g>
<g id="b">
<use xlink:href="#path3_fill" transform="translate(386 177)" fill="#4F4F4F"/>
</g>
<g id="Group 2">
<g id="Vector">
<use xlink:href="#path4_fill" transform="translate(248 115)" fill="#27AE60" fill-opacity="0.4"/>
</g>
<g id="Arrow">
<use xlink:href="#path5_stroke" transform="translate(251.929 130)" fill="#FFFFFF"/>
</g>
</g>
<g id="Group 2.1">
<g id="Vector">
<use xlink:href="#path4_fill" transform="translate(248 144)" fill="#27AE60" fill-opacity="0.4"/>
</g>
<g id="Arrow">
<use xlink:href="#path5_stroke" transform="translate(251.929 159)" fill="#FFFFFF"/>
</g>
</g>
<g id="Group 2.2">
<g id="Vector">
<use xlink:href="#path6_fill" transform="translate(363 115)" fill="#27AE60" fill-opacity="0.4"/>
</g>
<g id="Arrow">
<use xlink:href="#path7_stroke" transform="translate(367.107 130)" fill="#FFFFFF"/>
</g>
</g>
<g id="Group 2.3">
<g id="Vector">
<use xlink:href="#path6_fill" transform="translate(363 144)" fill="#27AE60" fill-opacity="0.4"/>
</g>
<g id="Arrow">
<use xlink:href="#path7_stroke" transform="translate(367.107 159)" fill="#FFFFFF"/>
</g>
</g>
<g id="Group 2">
<g id="Rectangle">
<use xlink:href="#path0_stroke" transform="translate(270 86)"/>
</g>
<g id="1">
<use xlink:href="#path8_fill" transform="translate(270.705 91.8)"/>
</g>
<g id="Rectangle">
<use xlink:href="#path0_stroke" transform="translate(270 115)"/>
</g>
<g id="4">
<use xlink:href="#path9_fill" transform="translate(270.705 120.8)"/>
</g>
<g id="Rectangle">
<use xlink:href="#path10_fill" transform="translate(270 144)" fill="#27AE60" fill-opacity="0.4"/>
<use xlink:href="#path0_stroke" transform="translate(270 144)"/>
</g>
<g id="7">
<use xlink:href="#path11_fill" transform="translate(270.705 149.8)"/>
</g>
<g id="Rectangle">
<use xlink:href="#path0_stroke" transform="translate(301 86)"/>
</g>
<g id="2">
<use xlink:href="#path12_fill" transform="translate(301.705 91.8)"/>
</g>
<g id="Rectangle">
<use xlink:href="#path10_fill" transform="translate(301 115)" fill="#27AE60" fill-opacity="0.4"/>
<use xlink:href="#path0_stroke" transform="translate(301 115)"/>
</g>
<g id="5">
<use xlink:href="#path13_fill" transform="translate(301.705 120.8)"/>
</g>
<g id="Rectangle">
<use xlink:href="#path10_fill" transform="translate(301 144)" fill="#27AE60" fill-opacity="0.4"/>
<use xlink:href="#path0_stroke" transform="translate(301 144)"/>
</g>
<g id="8">
<use xlink:href="#path14_fill" transform="translate(301.705 149.8)"/>
</g>
<g id="Rectangle">
<use xlink:href="#path0_stroke" transform="translate(332 86)"/>
</g>
<g id="3">
<use xlink:href="#path15_fill" transform="translate(332.705 91.8)"/>
</g>
<g id="Rectangle">
<use xlink:href="#path10_fill" transform="translate(332 115)" fill="#27AE60" fill-opacity="0.4"/>
<use xlink:href="#path0_stroke" transform="translate(332 115)"/>
</g>
<g id="6">
<use xlink:href="#path16_fill" transform="translate(332.705 120.8)"/>
</g>
<g id="Rectangle">
<use xlink:href="#path10_fill" transform="translate(332 144)" fill="#27AE60" fill-opacity="0.4"/>
<use xlink:href="#path0_stroke" transform="translate(332 144)"/>
</g>
<g id="9">
<use xlink:href="#path17_fill" transform="translate(332.705 149.8)"/>
</g>
</g>
<g id="Group 2.4">
<g id="Rectangle">
<use xlink:href="#path0_stroke" transform="translate(386 86)"/>
</g>
<g id="1">
<use xlink:href="#path8_fill" transform="translate(386.705 91.8)"/>
</g>
<g id="Rectangle">
<use xlink:href="#path0_stroke" transform="translate(386 115)"/>
</g>
<g id="4">
<use xlink:href="#path9_fill" transform="translate(386.705 120.8)"/>
</g>
<g id="Rectangle">
<use xlink:href="#path0_stroke" transform="translate(386 144)"/>
</g>
<g id="99">
<use xlink:href="#path18_fill" transform="translate(386.705 149.8)" fill="#27AE60"/>
</g>
<g id="Rectangle">
<use xlink:href="#path0_stroke" transform="translate(417 86)"/>
</g>
<g id="2">
<use xlink:href="#path12_fill" transform="translate(417.705 91.8)"/>
</g>
<g id="Rectangle">
<use xlink:href="#path0_stroke" transform="translate(417 115)"/>
</g>
<g id="99">
<use xlink:href="#path18_fill" transform="translate(417.705 120.8)" fill="#27AE60"/>
</g>
<g id="Rectangle">
<use xlink:href="#path0_stroke" transform="translate(417 144)"/>
</g>
<g id="99">
<use xlink:href="#path18_fill" transform="translate(417.705 149.8)" fill="#27AE60"/>
</g>
<g id="Rectangle">
<use xlink:href="#path0_stroke" transform="translate(448 86)"/>
</g>
<g id="3">
<use xlink:href="#path15_fill" transform="translate(448.705 91.8)"/>
</g>
<g id="Rectangle">
<use xlink:href="#path0_stroke" transform="translate(448 115)"/>
</g>
<g id="99">
<use xlink:href="#path18_fill" transform="translate(448.705 120.8)" fill="#27AE60"/>
</g>
<g id="Rectangle">
<use xlink:href="#path0_stroke" transform="translate(448 144)"/>
</g>
<g id="99">
<use xlink:href="#path18_fill" transform="translate(449 150)" fill="#27AE60"/>
</g>
</g>
<g id="Group">
<g id="Rectangle">
<use xlink:href="#path19_fill" transform="translate(-73 96)" fill="#F1F4F8"/>
</g>
<g id="b[b &#62; 4] = 99">
<use xlink:href="#path20_fill" transform="translate(-69.3014 97.5952)" fill="#2E383C"/>
<use xlink:href="#path21_fill" transform="translate(-69.3014 97.5952)" fill="#A541F8"/>
<use xlink:href="#path22_fill" transform="translate(-69.3014 97.5952)" fill="#0C570A"/>
</g>
</g>
<g id="b">
<use xlink:href="#path3_fill" transform="translate(270 54)" fill="#4F4F4F"/>
</g>
<g id="Group 2.10">
<g id="Rectangle">
<use xlink:href="#path0_stroke" transform="translate(270 -35)"/>
</g>
<g id="1">
<use xlink:href="#path8_fill" transform="translate(270.705 -29.2)"/>
</g>
<g id="Rectangle">
<use xlink:href="#path0_stroke" transform="translate(270 -6)"/>
</g>
<g id="4">
<use xlink:href="#path9_fill" transform="translate(270.705 -0.200012)"/>
</g>
<g id="Rectangle">
<use xlink:href="#path0_stroke" transform="translate(270 23)"/>
</g>
<g id="7">
<use xlink:href="#path11_fill" transform="translate(270.705 28.8)"/>
</g>
<g id="Rectangle">
<use xlink:href="#path0_stroke" transform="translate(301 -35)"/>
</g>
<g id="2">
<use xlink:href="#path12_fill" transform="translate(301.705 -29.2)"/>
</g>
<g id="Rectangle">
<use xlink:href="#path0_stroke" transform="translate(301 -6)"/>
</g>
<g id="5">
<use xlink:href="#path13_fill" transform="translate(301.705 -0.200012)"/>
</g>
<g id="Rectangle">
<use xlink:href="#path0_stroke" transform="translate(301 23)"/>
</g>
<g id="8">
<use xlink:href="#path14_fill" transform="translate(301.705 28.8)"/>
</g>
<g id="Rectangle">
<use xlink:href="#path0_stroke" transform="translate(332 -35)"/>
</g>
<g id="3">
<use xlink:href="#path15_fill" transform="translate(332.705 -29.2)"/>
</g>
<g id="Rectangle">
<use xlink:href="#path0_stroke" transform="translate(332 -6)"/>
</g>
<g id="6">
<use xlink:href="#path16_fill" transform="translate(332.705 -0.200012)"/>
</g>
<g id="Rectangle">
<use xlink:href="#path0_stroke" transform="translate(332 23)"/>
</g>
<g id="9">
<use xlink:href="#path17_fill" transform="translate(332.705 28.8)"/>
</g>
</g>
<g id="Group">
<g id="Rectangle">
<use xlink:href="#path23_fill" transform="translate(-72 -24)" fill="#F1F4F8"/>
</g>
<g id="b = np.array([[1, 2, 3], [4, 5, 6], [7, 8, 9]])">
<use xlink:href="#path24_fill" transform="translate(-68 -22)" fill="#2E383C"/>
<use xlink:href="#path25_fill" transform="translate(-68 -22)" fill="#0C570A"/>
</g>
</g>
</g>
</g>
<defs>
<path id="path0_stroke" d="M 0 0L 0 -0.5L -0.5 -0.5L -0.5 0L 0 0ZM 31 0L 31.5 0L 31.5 -0.5L 31 -0.5L 31 0ZM 31 29L 31 29.5L 31.5 29.5L 31.5 29L 31 29ZM 0 29L -0.5 29L -0.5 29.5L 0 29.5L 0 29ZM 0 0.5L 31 0.5L 31 -0.5L 0 -0.5L 0 0.5ZM 30.5 0L 30.5 29L 31.5 29L 31.5 0L 30.5 0ZM 31 28.5L 0 28.5L 0 29.5L 31 29.5L 31 28.5ZM 0.5 29L 0.5 0L -0.5 0L -0.5 29L 0.5 29Z"/>
<path id="path1_fill" d="M 18.54 11.3486L 13.1698 11.3486L 13.1698 17L 11.4823 17L 11.4823 4.20312L 19.4101 4.20312L 19.4101 5.5918L 13.1698 5.5918L 13.1698 9.96875L 18.54 9.96875L 18.54 11.3486Z"/>
<path id="path2_fill" d="M 19.9286 5.5918L 15.8153 5.5918L 15.8153 17L 14.1366 17L 14.1366 5.5918L 10.0321 5.5918L 10.0321 4.20312L 19.9286 4.20312L 19.9286 5.5918Z"/>
<path id="path3_fill" d="M 43.3107 4.186L 45.3687 4.186L 45.3687 6.594L 45.3127 7.686C 45.5834 7.434 45.8867 7.238 46.2227 7.098C 46.5681 6.958 46.9087 6.888 47.2447 6.888C 47.6741 6.888 48.0614 6.972 48.4067 7.14C 48.7614 7.308 49.0554 7.546 49.2887 7.854C 49.5314 8.15267 49.7181 8.52133 49.8487 8.96C 49.9794 9.38933 50.0447 9.87 50.0447 10.402C 50.0447 10.9993 49.9607 11.5313 49.7927 11.998C 49.6247 12.4647 49.4007 12.8613 49.1207 13.188C 48.8407 13.5053 48.5187 13.748 48.1547 13.916C 47.8001 14.084 47.4267 14.168 47.0347 14.168C 46.7081 14.168 46.3814 14.0887 46.0547 13.93C 45.7374 13.7713 45.4341 13.5427 45.1447 13.244L 45.0887 13.244L 44.9207 14L 43.3107 14L 43.3107 4.186ZM 45.3687 12.026C 45.5647 12.194 45.7654 12.3153 45.9707 12.39C 46.1854 12.4553 46.3861 12.488 46.5727 12.488C 46.9554 12.488 47.2774 12.3293 47.5387 12.012C 47.8001 11.6853 47.9307 11.1627 47.9307 10.444C 47.9307 9.19333 47.5061 8.568 46.6567 8.568C 46.2181 8.568 45.7887 8.78267 45.3687 9.212L 45.3687 12.026Z"/>
<path id="path4_fill" d="M 22 29L 22 0L 0 0L 0 29L 22 29Z"/>
<path id="path5_stroke" d="M 13.2785 0.707107C 13.6691 0.316583 13.6691 -0.316583 13.2785 -0.707107L 6.91457 -7.07107C 6.52405 -7.46159 5.89088 -7.46159 5.50036 -7.07107C 5.10984 -6.68054 5.10984 -6.04738 5.50036 -5.65685L 11.1572 0L 5.50036 5.65685C 5.10984 6.04738 5.10984 6.68054 5.50036 7.07107C 5.89088 7.46159 6.52405 7.46159 6.91457 7.07107L 13.2785 0.707107ZM 0 1L 12.5714 1L 12.5714 -1L 0 -1L 0 1Z"/>
<path id="path6_fill" d="M 23 29L 23 0L 0 0L 0 29L 23 29Z"/>
<path id="path7_stroke" d="M 13.85 0.707107C 14.2405 0.316583 14.2405 -0.316583 13.85 -0.707107L 7.486 -7.07107C 7.09548 -7.46159 6.46231 -7.46159 6.07179 -7.07107C 5.68127 -6.68054 5.68127 -6.04738 6.07179 -5.65685L 11.7286 0L 6.07179 5.65685C 5.68127 6.04738 5.68127 6.68054 6.07179 7.07107C 6.46231 7.46159 7.09548 7.46159 7.486 7.07107L 13.85 0.707107ZM 0 1L 13.1429 1L 13.1429 -1L 0 -1L 0 1Z"/>
<path id="path8_fill" d="M 16.3251 17L 14.6903 17L 14.6903 6.16309L 11.412 7.36719L 11.412 5.89062L 16.0702 4.1416L 16.3251 4.1416L 16.3251 17Z"/>
<path id="path9_fill" d="M 17.8456 12.7021L 19.621 12.7021L 19.621 14.0293L 17.8456 14.0293L 17.8456 17L 16.2108 17L 16.2108 14.0293L 10.3837 14.0293L 10.3837 13.0713L 16.1142 4.20312L 17.8456 4.20312L 17.8456 12.7021ZM 12.2294 12.7021L 16.2108 12.7021L 16.2108 6.42676L 16.0175 6.77832L 12.2294 12.7021Z"/>
<path id="path10_fill" d="M 0 0L 31 0L 31 29L 0 29L 0 0Z"/>
<path id="path11_fill" d="M 19.2431 5.11719L 13.9433 17L 12.2382 17L 17.5204 5.53906L 10.5946 5.53906L 10.5946 4.20312L 19.2431 4.20312L 19.2431 5.11719Z"/>
<path id="path12_fill" d="M 19.3661 17L 10.9814 17L 10.9814 15.8311L 15.411 10.9092C 16.0673 10.165 16.5185 9.56152 16.7646 9.09863C 17.0165 8.62988 17.1425 8.14648 17.1425 7.64844C 17.1425 6.98047 16.9403 6.43262 16.536 6.00488C 16.1317 5.57715 15.5927 5.36328 14.9189 5.36328C 14.1103 5.36328 13.4804 5.59473 13.0292 6.05762C 12.5839 6.51465 12.3612 7.15332 12.3612 7.97363L 10.7353 7.97363C 10.7353 6.7959 11.1132 5.84375 11.8691 5.11719C 12.6308 4.39063 13.6474 4.02734 14.9189 4.02734C 16.1083 4.02734 17.0487 4.34082 17.7401 4.96777C 18.4316 5.58887 18.7773 6.41797 18.7773 7.45508C 18.7773 8.71484 17.9745 10.2148 16.3691 11.9551L 12.9413 15.6729L 19.3661 15.6729L 19.3661 17Z"/>
<path id="path13_fill" d="M 11.7284 10.584L 12.3788 4.20312L 18.9355 4.20312L 18.9355 5.70605L 13.7587 5.70605L 13.372 9.19531C 13.9989 8.82617 14.7108 8.6416 15.5077 8.6416C 16.6737 8.6416 17.5995 9.02832 18.2851 9.80176C 18.9706 10.5693 19.3134 11.6094 19.3134 12.9219C 19.3134 14.2402 18.956 15.2803 18.2411 16.042C 17.5321 16.7979 16.539 17.1758 15.2616 17.1758C 14.1308 17.1758 13.2079 16.8623 12.4931 16.2354C 11.7782 15.6084 11.371 14.7412 11.2714 13.6338L 12.8095 13.6338C 12.9091 14.3662 13.1698 14.9199 13.5917 15.2949C 14.0136 15.6641 14.5702 15.8486 15.2616 15.8486C 16.0175 15.8486 16.6093 15.5908 17.037 15.0752C 17.4706 14.5596 17.6874 13.8477 17.6874 12.9395C 17.6874 12.084 17.453 11.3984 16.9843 10.8828C 16.5214 10.3613 15.9032 10.1006 15.1298 10.1006C 14.4208 10.1006 13.8642 10.2559 13.4599 10.5664L 13.0292 10.918L 11.7284 10.584Z"/>
<path id="path14_fill" d="M 18.7421 7.54297C 18.7421 8.18164 18.5722 8.75 18.2323 9.24805C 17.8983 9.74609 17.4442 10.1357 16.87 10.417C 17.538 10.7041 18.0653 11.123 18.4521 11.6738C 18.8446 12.2246 19.0409 12.8486 19.0409 13.5459C 19.0409 14.6533 18.6659 15.5352 17.9159 16.1914C 17.1718 16.8477 16.1903 17.1758 14.9716 17.1758C 13.7411 17.1758 12.7538 16.8477 12.0097 16.1914C 11.2714 15.5293 10.9023 14.6475 10.9023 13.5459C 10.9023 12.8545 11.0898 12.2305 11.4648 11.6738C 11.8456 11.1172 12.37 10.6953 13.038 10.4082C 12.4696 10.127 12.0214 9.7373 11.6933 9.23926C 11.3651 8.74121 11.2011 8.17578 11.2011 7.54297C 11.2011 6.46484 11.5468 5.60938 12.2382 4.97656C 12.9296 4.34375 13.8407 4.02734 14.9716 4.02734C 16.0966 4.02734 17.0048 4.34375 17.6962 4.97656C 18.3935 5.60938 18.7421 6.46484 18.7421 7.54297ZM 17.4149 13.5107C 17.4149 12.7959 17.1864 12.2129 16.7294 11.7617C 16.2782 11.3105 15.6864 11.085 14.954 11.085C 14.2216 11.085 13.6327 11.3076 13.1874 11.7529C 12.748 12.1982 12.5282 12.7842 12.5282 13.5107C 12.5282 14.2373 12.7421 14.8086 13.1698 15.2246C 13.6034 15.6406 14.204 15.8486 14.9716 15.8486C 15.7333 15.8486 16.331 15.6406 16.7646 15.2246C 17.1982 14.8027 17.4149 14.2314 17.4149 13.5107ZM 14.9716 5.36328C 14.3329 5.36328 13.8144 5.5625 13.4159 5.96094C 13.0233 6.35352 12.8271 6.88965 12.8271 7.56934C 12.8271 8.21973 13.0204 8.74707 13.4071 9.15137C 13.7997 9.5498 14.3212 9.74902 14.9716 9.74902C 15.622 9.74902 16.1405 9.5498 16.5273 9.15137C 16.9198 8.74707 17.1161 8.21973 17.1161 7.56934C 17.1161 6.91895 16.914 6.38867 16.5097 5.97852C 16.1054 5.56836 15.5927 5.36328 14.9716 5.36328Z"/>
<path id="path15_fill" d="M 13.3456 9.81055L 14.5673 9.81055C 15.3349 9.79883 15.9384 9.59668 16.3778 9.2041C 16.8173 8.81152 17.037 8.28125 17.037 7.61328C 17.037 6.11328 16.2899 5.36328 14.7958 5.36328C 14.0927 5.36328 13.5302 5.56543 13.1083 5.96973C 12.6923 6.36816 12.4843 6.89844 12.4843 7.56055L 10.8583 7.56055C 10.8583 6.54687 11.2274 5.70605 11.9657 5.03809C 12.7099 4.36426 13.6532 4.02734 14.7958 4.02734C 16.0028 4.02734 16.9491 4.34668 17.6347 4.98535C 18.3202 5.62402 18.663 6.51172 18.663 7.64844C 18.663 8.20508 18.4814 8.74414 18.1181 9.26562C 17.7607 9.78711 17.2714 10.1768 16.6503 10.4346C 17.3534 10.6572 17.8954 11.0264 18.2763 11.542C 18.663 12.0576 18.8564 12.6875 18.8564 13.4316C 18.8564 14.5801 18.4814 15.4912 17.7314 16.165C 16.9814 16.8389 16.0058 17.1758 14.8046 17.1758C 13.6034 17.1758 12.6249 16.8506 11.8691 16.2002C 11.1191 15.5498 10.7441 14.6914 10.7441 13.625L 12.3788 13.625C 12.3788 14.2988 12.5985 14.8379 13.038 15.2422C 13.4774 15.6465 14.0663 15.8486 14.8046 15.8486C 15.5898 15.8486 16.1903 15.6436 16.6064 15.2334C 17.0224 14.8232 17.2304 14.2344 17.2304 13.4668C 17.2304 12.7227 17.0019 12.1514 16.5448 11.7529C 16.0878 11.3545 15.4286 11.1494 14.5673 11.1377L 13.3456 11.1377L 13.3456 9.81055Z"/>
<path id="path16_fill" d="M 17.3622 4.19434L 17.3622 5.57422L 17.0634 5.57422C 15.7978 5.59766 14.7899 5.97266 14.0399 6.69922C 13.2899 7.42578 12.8564 8.44824 12.7392 9.7666C 13.413 8.99316 14.3329 8.60645 15.4989 8.60645C 16.6122 8.60645 17.4999 8.99902 18.162 9.78418C 18.83 10.5693 19.164 11.583 19.164 12.8252C 19.164 14.1436 18.8036 15.1982 18.0829 15.9893C 17.3681 16.7803 16.4071 17.1758 15.2001 17.1758C 13.9755 17.1758 12.9823 16.707 12.2206 15.7695C 11.4589 14.8262 11.078 13.6133 11.078 12.1309L 11.078 11.5068C 11.078 9.15137 11.579 7.35254 12.581 6.11035C 13.5888 4.8623 15.0858 4.22363 17.0722 4.19434L 17.3622 4.19434ZM 15.2265 9.95996C 14.6698 9.95996 14.1571 10.127 13.6884 10.4609C 13.2196 10.7949 12.8944 11.2139 12.7128 11.7178L 12.7128 12.3154C 12.7128 13.3701 12.9501 14.2197 13.4247 14.8643C 13.8993 15.5088 14.4911 15.8311 15.2001 15.8311C 15.9325 15.8311 16.5067 15.5615 16.9228 15.0225C 17.3446 14.4834 17.5556 13.7773 17.5556 12.9043C 17.5556 12.0254 17.3417 11.3164 16.914 10.7773C 16.4921 10.2324 15.9296 9.95996 15.2265 9.95996Z"/>
<path id="path17_fill" d="M 17.2128 11.375C 16.873 11.7793 16.4657 12.1045 15.9911 12.3506C 15.5224 12.5967 15.0067 12.7197 14.4442 12.7197C 13.706 12.7197 13.0614 12.5381 12.5107 12.1748C 11.9657 11.8115 11.5439 11.3018 11.245 10.6455C 10.9462 9.9834 10.7968 9.25391 10.7968 8.45703C 10.7968 7.60156 10.9579 6.83105 11.2802 6.14551C 11.6083 5.45996 12.0712 4.93555 12.6689 4.57227C 13.2665 4.20898 13.9638 4.02734 14.7607 4.02734C 16.0263 4.02734 17.0224 4.50195 17.7489 5.45117C 18.4814 6.39453 18.8476 7.68359 18.8476 9.31836L 18.8476 9.79297C 18.8476 12.2832 18.3554 14.1025 17.371 15.251C 16.3866 16.3936 14.9013 16.9795 12.9149 17.0088L 12.5985 17.0088L 12.5985 15.6377L 12.9413 15.6377C 14.2831 15.6143 15.3144 15.2656 16.0351 14.5918C 16.7558 13.9121 17.1483 12.8398 17.2128 11.375ZM 14.7079 11.375C 15.2528 11.375 15.7538 11.208 16.2108 10.874C 16.6737 10.54 17.0107 10.127 17.2216 9.63477L 17.2216 8.98438C 17.2216 7.91797 16.9901 7.05078 16.5273 6.38281C 16.0644 5.71484 15.4784 5.38086 14.7694 5.38086C 14.0546 5.38086 13.4804 5.65625 13.0468 6.20703C 12.6132 6.75195 12.3964 7.47266 12.3964 8.36914C 12.3964 9.24219 12.6044 9.96289 13.0204 10.5312C 13.4423 11.0938 14.0048 11.375 14.7079 11.375Z"/>
<path id="path18_fill" d="M 12.1591 11.375C 11.8192 11.7793 11.412 12.1045 10.9374 12.3506C 10.4687 12.5967 9.95304 12.7197 9.39054 12.7197C 8.65225 12.7197 8.00772 12.5381 7.45694 12.1748C 6.91202 11.8115 6.49014 11.3018 6.19132 10.6455C 5.89249 9.9834 5.74307 9.25391 5.74307 8.45703C 5.74307 7.60156 5.90421 6.83105 6.22647 6.14551C 6.5546 5.45996 7.01749 4.93555 7.61514 4.57227C 8.2128 4.20898 8.91007 4.02734 9.70694 4.02734C 10.9726 4.02734 11.9687 4.50195 12.6952 5.45117C 13.4276 6.39453 13.7939 7.68359 13.7939 9.31836L 13.7939 9.79297C 13.7939 12.2832 13.3017 14.1025 12.3173 15.251C 11.3329 16.3936 9.84757 16.9795 7.86124 17.0088L 7.54483 17.0088L 7.54483 15.6377L 7.88761 15.6377C 9.2294 15.6143 10.2607 15.2656 10.9814 14.5918C 11.7021 13.9121 12.0946 12.8398 12.1591 11.375ZM 9.65421 11.375C 10.1991 11.375 10.7001 11.208 11.1571 10.874C 11.62 10.54 11.9569 10.127 12.1679 9.63477L 12.1679 8.98438C 12.1679 7.91797 11.9364 7.05078 11.4735 6.38281C 11.0107 5.71484 10.4247 5.38086 9.71573 5.38086C 9.00089 5.38086 8.42667 5.65625 7.99307 6.20703C 7.55948 6.75195 7.34268 7.47266 7.34268 8.36914C 7.34268 9.24219 7.55069 9.96289 7.96671 10.5312C 8.38858 11.0938 8.95108 11.375 9.65421 11.375ZM 22.2665 11.375C 21.9267 11.7793 21.5194 12.1045 21.0448 12.3506C 20.5761 12.5967 20.0605 12.7197 19.498 12.7197C 18.7597 12.7197 18.1151 12.5381 17.5644 12.1748C 17.0194 11.8115 16.5976 11.3018 16.2987 10.6455C 15.9999 9.9834 15.8505 9.25391 15.8505 8.45703C 15.8505 7.60156 16.0116 6.83105 16.3339 6.14551C 16.662 5.45996 17.1249 4.93555 17.7226 4.57227C 18.3202 4.20898 19.0175 4.02734 19.8144 4.02734C 21.08 4.02734 22.0761 4.50195 22.8026 5.45117C 23.5351 6.39453 23.9013 7.68359 23.9013 9.31836L 23.9013 9.79297C 23.9013 12.2832 23.4091 14.1025 22.4247 15.251C 21.4403 16.3936 19.955 16.9795 17.9687 17.0088L 17.6523 17.0088L 17.6523 15.6377L 17.995 15.6377C 19.3368 15.6143 20.3681 15.2656 21.0888 14.5918C 21.8095 13.9121 22.2021 12.8398 22.2665 11.375ZM 19.7616 11.375C 20.3066 11.375 20.8075 11.208 21.2646 10.874C 21.7274 10.54 22.0644 10.127 22.2753 9.63477L 22.2753 8.98438C 22.2753 7.91797 22.0439 7.05078 21.581 6.38281C 21.1181 5.71484 20.5321 5.38086 19.8232 5.38086C 19.1083 5.38086 18.5341 5.65625 18.1005 6.20703C 17.6669 6.75195 17.4501 7.47266 17.4501 8.36914C 17.4501 9.24219 17.6581 9.96289 18.0741 10.5312C 18.496 11.0938 19.0585 11.375 19.7616 11.375Z"/>
<path id="path19_fill" d="M 0 0L 216 0L 216 67L 0 67L 0 0Z"/>
<path id="path20_fill" d="M 1.148 4.116L 2.772 4.116L 2.772 6.664L 2.716 7.868C 3.01467 7.588 3.35067 7.36867 3.724 7.21C 4.09733 7.042 4.47067 6.958 4.844 6.958C 5.292 6.958 5.68867 7.042 6.034 7.21C 6.37933 7.36867 6.67333 7.602 6.916 7.91C 7.15867 8.20867 7.34067 8.57267 7.462 9.002C 7.59267 9.43133 7.658 9.912 7.658 10.444C 7.658 11.032 7.574 11.5593 7.406 12.026C 7.238 12.4833 7.00933 12.8707 6.72 13.188C 6.44 13.5053 6.11333 13.748 5.74 13.916C 5.376 14.084 4.998 14.168 4.606 14.168C 4.27933 14.168 3.93867 14.0887 3.584 13.93C 3.22933 13.7713 2.90267 13.5427 2.604 13.244L 2.562 13.244L 2.422 14L 1.148 14L 1.148 4.116ZM 2.772 12.208C 3.024 12.4413 3.28533 12.6047 3.556 12.698C 3.82667 12.7913 4.06933 12.838 4.284 12.838C 4.76933 12.838 5.17533 12.642 5.502 12.25C 5.82867 11.8487 5.992 11.256 5.992 10.472C 5.992 9.78133 5.866 9.24467 5.614 8.862C 5.362 8.47933 4.956 8.288 4.396 8.288C 4.13467 8.288 3.86867 8.35333 3.598 8.484C 3.32733 8.61467 3.052 8.82467 2.772 9.114L 2.772 12.208ZM 11.3765 4.088L 15.3805 4.088L 15.3805 4.97L 12.6225 4.97L 12.6225 15.246L 15.3805 15.246L 15.3805 16.128L 11.3765 16.128L 11.3765 4.088ZM 17.9371 4.116L 19.5611 4.116L 19.5611 6.664L 19.5051 7.868C 19.8037 7.588 20.1397 7.36867 20.5131 7.21C 20.8864 7.042 21.2597 6.958 21.6331 6.958C 22.0811 6.958 22.4777 7.042 22.8231 7.21C 23.1684 7.36867 23.4624 7.602 23.7051 7.91C 23.9477 8.20867 24.1297 8.57267 24.2511 9.002C 24.3817 9.43133 24.4471 9.912 24.4471 10.444C 24.4471 11.032 24.3631 11.5593 24.1951 12.026C 24.0271 12.4833 23.7984 12.8707 23.5091 13.188C 23.2291 13.5053 22.9024 13.748 22.5291 13.916C 22.1651 14.084 21.7871 14.168 21.3951 14.168C 21.0684 14.168 20.7277 14.0887 20.3731 13.93C 20.0184 13.7713 19.6917 13.5427 19.3931 13.244L 19.3511 13.244L 19.2111 14L 17.9371 14L 17.9371 4.116ZM 19.5611 12.208C 19.8131 12.4413 20.0744 12.6047 20.3451 12.698C 20.6157 12.7913 20.8584 12.838 21.0731 12.838C 21.5584 12.838 21.9644 12.642 22.2911 12.25C 22.6177 11.8487 22.7811 11.256 22.7811 10.472C 22.7811 9.78133 22.6551 9.24467 22.4031 8.862C 22.1511 8.47933 21.7451 8.288 21.1851 8.288C 20.9237 8.288 20.6577 8.35333 20.3871 8.484C 20.1164 8.61467 19.8411 8.82467 19.5611 9.114L 19.5611 12.208ZM 62.9337 15.246L 62.9337 4.97L 60.1897 4.97L 60.1897 4.088L 64.1937 4.088L 64.1937 16.128L 60.1897 16.128L 60.1897 15.246L 62.9337 15.246ZM 76.6428 7.224L 82.8588 7.224L 82.8588 8.4L 76.6428 8.4L 76.6428 7.224ZM 76.6428 10.346L 82.8588 10.346L 82.8588 11.522L 76.6428 11.522L 76.6428 10.346Z"/>
<path id="path21_fill" d="M 40.3261 9.926L 35.0061 13.454L 35.0061 11.956L 38.9681 9.38L 38.9681 9.324L 35.0061 6.748L 35.0061 5.25L 40.3261 8.778L 40.3261 9.926Z"/>
<path id="path22_fill" d="M 55.3232 10.458L 55.3232 8.33C 55.3325 8.05933 55.3419 7.76533 55.3512 7.448C 55.3699 7.13067 55.3885 6.83667 55.4072 6.566L 55.3372 6.566C 55.1879 6.79933 55.0339 7.03267 54.8752 7.266C 54.7165 7.49933 54.5579 7.73733 54.3992 7.98L 52.5232 10.458L 55.3232 10.458ZM 58.0952 11.704L 56.8352 11.704L 56.8352 14L 55.3232 14L 55.3232 11.704L 50.8852 11.704L 50.8852 10.612L 54.9732 5.082L 56.8352 5.082L 56.8352 10.458L 58.0952 10.458L 58.0952 11.704ZM 96.2738 9.436C 96.5818 9.436 96.9038 9.35667 97.2398 9.198C 97.5758 9.03933 97.9072 8.76867 98.2338 8.386C 98.1312 7.602 97.9072 7.03733 97.5618 6.692C 97.2165 6.33733 96.7918 6.16 96.2878 6.16C 96.0638 6.16 95.8538 6.19733 95.6578 6.272C 95.4618 6.34667 95.2892 6.454 95.1398 6.594C 94.9998 6.734 94.8832 6.91133 94.7898 7.126C 94.7058 7.33133 94.6638 7.56933 94.6638 7.84C 94.6638 8.372 94.8038 8.77333 95.0838 9.044C 95.3732 9.30533 95.7698 9.436 96.2738 9.436ZM 94.1878 12.18C 94.4025 12.376 94.6545 12.5393 94.9438 12.67C 95.2332 12.7913 95.5412 12.852 95.8678 12.852C 96.1758 12.852 96.4698 12.796 96.7498 12.684C 97.0392 12.572 97.2912 12.3853 97.5058 12.124C 97.7298 11.8627 97.9118 11.522 98.0518 11.102C 98.1918 10.6727 98.2712 10.15 98.2898 9.534C 97.9352 9.86067 97.5525 10.122 97.1418 10.318C 96.7405 10.5047 96.3438 10.598 95.9518 10.598C 95.5505 10.598 95.1772 10.542 94.8318 10.43C 94.4958 10.318 94.2065 10.15 93.9638 9.926C 93.7212 9.69267 93.5298 9.40333 93.3898 9.058C 93.2498 8.71267 93.1798 8.30667 93.1798 7.84C 93.1798 7.392 93.2638 6.99067 93.4318 6.636C 93.5998 6.272 93.8238 5.964 94.1038 5.712C 94.3838 5.46 94.7105 5.26867 95.0838 5.138C 95.4572 4.998 95.8492 4.928 96.2598 4.928C 96.7358 4.928 97.1838 5.01667 97.6038 5.194C 98.0332 5.362 98.4065 5.62333 98.7238 5.978C 99.0505 6.33267 99.3072 6.78533 99.4938 7.336C 99.6805 7.87733 99.7738 8.52133 99.7738 9.268C 99.7738 10.136 99.6665 10.878 99.4518 11.494C 99.2465 12.11 98.9665 12.6187 98.6118 13.02C 98.2665 13.412 97.8652 13.7013 97.4078 13.888C 96.9505 14.0747 96.4792 14.168 95.9938 14.168C 95.4058 14.168 94.8878 14.07 94.4398 13.874C 93.9918 13.678 93.6185 13.44 93.3198 13.16L 94.1878 12.18ZM 104.668 9.436C 104.976 9.436 105.298 9.35667 105.634 9.198C 105.97 9.03933 106.302 8.76867 106.628 8.386C 106.526 7.602 106.302 7.03733 105.956 6.692C 105.611 6.33733 105.186 6.16 104.682 6.16C 104.458 6.16 104.248 6.19733 104.052 6.272C 103.856 6.34667 103.684 6.454 103.534 6.594C 103.394 6.734 103.278 6.91133 103.184 7.126C 103.1 7.33133 103.058 7.56933 103.058 7.84C 103.058 8.372 103.198 8.77333 103.478 9.044C 103.768 9.30533 104.164 9.436 104.668 9.436ZM 102.582 12.18C 102.797 12.376 103.049 12.5393 103.338 12.67C 103.628 12.7913 103.936 12.852 104.262 12.852C 104.57 12.852 104.864 12.796 105.144 12.684C 105.434 12.572 105.686 12.3853 105.9 12.124C 106.124 11.8627 106.306 11.522 106.446 11.102C 106.586 10.6727 106.666 10.15 106.684 9.534C 106.33 9.86067 105.947 10.122 105.536 10.318C 105.135 10.5047 104.738 10.598 104.346 10.598C 103.945 10.598 103.572 10.542 103.226 10.43C 102.89 10.318 102.601 10.15 102.358 9.926C 102.116 9.69267 101.924 9.40333 101.784 9.058C 101.644 8.71267 101.574 8.30667 101.574 7.84C 101.574 7.392 101.658 6.99067 101.826 6.636C 101.994 6.272 102.218 5.964 102.498 5.712C 102.778 5.46 103.105 5.26867 103.478 5.138C 103.852 4.998 104.244 4.928 104.654 4.928C 105.13 4.928 105.578 5.01667 105.998 5.194C 106.428 5.362 106.801 5.62333 107.118 5.978C 107.445 6.33267 107.702 6.78533 107.888 7.336C 108.075 7.87733 108.168 8.52133 108.168 9.268C 108.168 10.136 108.061 10.878 107.846 11.494C 107.641 12.11 107.361 12.6187 107.006 13.02C 106.661 13.412 106.26 13.7013 105.802 13.888C 105.345 14.0747 104.874 14.168 104.388 14.168C 103.8 14.168 103.282 14.07 102.834 13.874C 102.386 13.678 102.013 13.44 101.714 13.16L 102.582 12.18Z"/>
<path id="path23_fill" d="M 0 0L 215 0L 215 67L 0 67L 0 0Z"/>
<path id="path24_fill" d="M 1.148 4.116L 2.772 4.116L 2.772 6.664L 2.716 7.868C 3.01467 7.588 3.35067 7.36867 3.724 7.21C 4.09733 7.042 4.47067 6.958 4.844 6.958C 5.292 6.958 5.68867 7.042 6.034 7.21C 6.37933 7.36867 6.67333 7.602 6.916 7.91C 7.15867 8.20867 7.34067 8.57267 7.462 9.002C 7.59267 9.43133 7.658 9.912 7.658 10.444C 7.658 11.032 7.574 11.5593 7.406 12.026C 7.238 12.4833 7.00933 12.8707 6.72 13.188C 6.44 13.5053 6.11333 13.748 5.74 13.916C 5.376 14.084 4.998 14.168 4.606 14.168C 4.27933 14.168 3.93867 14.0887 3.584 13.93C 3.22933 13.7713 2.90267 13.5427 2.604 13.244L 2.562 13.244L 2.422 14L 1.148 14L 1.148 4.116ZM 2.772 12.208C 3.024 12.4413 3.28533 12.6047 3.556 12.698C 3.82667 12.7913 4.06933 12.838 4.284 12.838C 4.76933 12.838 5.17533 12.642 5.502 12.25C 5.82867 11.8487 5.992 11.256 5.992 10.472C 5.992 9.78133 5.866 9.24467 5.614 8.862C 5.362 8.47933 4.956 8.288 4.396 8.288C 4.13467 8.288 3.86867 8.35333 3.598 8.484C 3.32733 8.61467 3.052 8.82467 2.772 9.114L 2.772 12.208ZM 17.8811 7.224L 24.0971 7.224L 24.0971 8.4L 17.8811 8.4L 17.8811 7.224ZM 17.8811 10.346L 24.0971 10.346L 24.0971 11.522L 17.8811 11.522L 17.8811 10.346ZM 34.7261 7.126L 36.0561 7.126L 36.1821 8.162L 36.2381 8.162C 36.5648 7.83533 36.9241 7.55533 37.3161 7.322C 37.7175 7.07933 38.1841 6.958 38.7161 6.958C 39.5095 6.958 40.0928 7.20067 40.4661 7.686C 40.8395 8.162 41.0261 8.848 41.0261 9.744L 41.0261 14L 39.4021 14L 39.4021 9.954C 39.4021 9.394 39.3041 8.988 39.1081 8.736C 38.9215 8.47467 38.5901 8.344 38.1141 8.344C 37.7781 8.344 37.4795 8.42333 37.2181 8.582C 36.9568 8.74067 36.6675 8.98333 36.3501 9.31L 36.3501 14L 34.7261 14L 34.7261 7.126ZM 44.7447 14.56L 44.7447 16.716L 43.1207 16.716L 43.1207 7.126L 44.4507 7.126L 44.5767 7.91L 44.6187 7.91C 44.9173 7.63933 45.258 7.41533 45.6407 7.238C 46.0327 7.05133 46.4247 6.958 46.8167 6.958C 47.2647 6.958 47.6613 7.042 48.0067 7.21C 48.3613 7.36867 48.6553 7.602 48.8887 7.91C 49.1313 8.218 49.3133 8.58667 49.4347 9.016C 49.5653 9.44533 49.6307 9.926 49.6307 10.458C 49.6307 11.046 49.5467 11.5733 49.3787 12.04C 49.2107 12.4973 48.982 12.8847 48.6927 13.202C 48.4127 13.51 48.086 13.748 47.7127 13.916C 47.3487 14.084 46.9707 14.168 46.5787 14.168C 46.2613 14.168 45.9347 14.098 45.5987 13.958C 45.272 13.818 44.9687 13.6173 44.6887 13.356L 44.7447 14.56ZM 44.7447 12.208C 44.9967 12.4413 45.2533 12.6047 45.5147 12.698C 45.7853 12.7913 46.028 12.838 46.2427 12.838C 46.7373 12.838 47.148 12.642 47.4747 12.25C 47.8013 11.8487 47.9647 11.256 47.9647 10.472C 47.9647 9.78133 47.8387 9.24467 47.5867 8.862C 47.3347 8.47933 46.9287 8.288 46.3687 8.288C 46.1073 8.288 45.8413 8.35333 45.5707 8.484C 45.3 8.61467 45.0247 8.82467 44.7447 9.114L 44.7447 12.208ZM 53.1812 12.754C 53.1812 12.3433 53.3119 12.0073 53.5732 11.746C 53.8345 11.4753 54.1659 11.34 54.5672 11.34C 54.9685 11.34 55.2999 11.4753 55.5612 11.746C 55.8225 12.0073 55.9532 12.3433 55.9532 12.754C 55.9532 13.1647 55.8225 13.5053 55.5612 13.776C 55.2999 14.0373 54.9685 14.168 54.5672 14.168C 54.1659 14.168 53.8345 14.0373 53.5732 13.776C 53.3119 13.5053 53.1812 13.1647 53.1812 12.754ZM 59.7557 12.152C 59.7557 11.7693 59.8444 11.4333 60.0217 11.144C 60.1991 10.8453 60.4791 10.5933 60.8617 10.388C 61.2444 10.1827 61.7344 10.0147 62.3317 9.884C 62.9291 9.75333 63.6524 9.66 64.5017 9.604C 64.4737 9.212 64.3337 8.89 64.0817 8.638C 63.8297 8.386 63.4237 8.26 62.8637 8.26C 62.4717 8.26 62.0844 8.33467 61.7017 8.484C 61.3284 8.624 60.9644 8.792 60.6097 8.988L 60.0217 7.91C 60.4417 7.66733 60.9224 7.448 61.4637 7.252C 62.0051 7.056 62.5697 6.958 63.1577 6.958C 64.1191 6.958 64.8517 7.21467 65.3557 7.728C 65.8597 8.232 66.1117 8.96467 66.1117 9.926L 66.1117 14L 64.7957 14L 64.6697 13.146L 64.6277 13.146C 64.2637 13.426 63.8577 13.6687 63.4097 13.874C 62.9711 14.07 62.5184 14.168 62.0517 14.168C 61.7157 14.168 61.4077 14.1167 61.1277 14.014C 60.8477 13.9207 60.6051 13.7853 60.3997 13.608C 60.1944 13.4307 60.0357 13.2207 59.9237 12.978C 59.8117 12.726 59.7557 12.4507 59.7557 12.152ZM 61.3097 12.026C 61.3097 12.334 61.4264 12.558 61.6597 12.698C 61.9024 12.838 62.1964 12.908 62.5417 12.908C 62.8871 12.908 63.2184 12.8333 63.5357 12.684C 63.8624 12.5253 64.1844 12.32 64.5017 12.068L 64.5017 10.612C 63.8857 10.6587 63.3724 10.724 62.9617 10.808C 62.5511 10.8827 62.2244 10.9807 61.9817 11.102C 61.7391 11.2233 61.5664 11.3633 61.4637 11.522C 61.3611 11.6713 61.3097 11.8393 61.3097 12.026ZM 68.9762 7.126L 70.3062 7.126L 70.4462 8.68L 70.4883 8.68C 70.8429 8.12 71.2676 7.69533 71.7622 7.406C 72.2663 7.10733 72.8169 6.958 73.4142 6.958C 73.6943 6.958 73.9322 6.98133 74.1282 7.028C 74.3336 7.06533 74.5389 7.13533 74.7442 7.238L 74.4083 8.596C 74.1842 8.52133 73.9836 8.47 73.8062 8.442C 73.6382 8.40467 73.4236 8.386 73.1622 8.386C 72.6863 8.386 72.2289 8.52133 71.7903 8.792C 71.3516 9.06267 70.9549 9.534 70.6003 10.206L 70.6003 14L 68.9762 14L 68.9762 7.126ZM 77.3708 7.126L 78.7008 7.126L 78.8408 8.68L 78.8828 8.68C 79.2374 8.12 79.6621 7.69533 80.1568 7.406C 80.6608 7.10733 81.2114 6.958 81.8088 6.958C 82.0888 6.958 82.3268 6.98133 82.5228 7.028C 82.7281 7.06533 82.9334 7.13533 83.1388 7.238L 82.8028 8.596C 82.5788 8.52133 82.3781 8.47 82.2008 8.442C 82.0328 8.40467 81.8181 8.386 81.5568 8.386C 81.0808 8.386 80.6234 8.52133 80.1848 8.792C 79.7461 9.06267 79.3494 9.534 78.9948 10.206L 78.9948 14L 77.3708 14L 77.3708 7.126ZM 84.9393 12.152C 84.9393 11.7693 85.028 11.4333 85.2053 11.144C 85.3826 10.8453 85.6626 10.5933 86.0453 10.388C 86.428 10.1827 86.918 10.0147 87.5153 9.884C 88.1126 9.75333 88.836 9.66 89.6853 9.604C 89.6573 9.212 89.5173 8.89 89.2653 8.638C 89.0133 8.386 88.6073 8.26 88.0473 8.26C 87.6553 8.26 87.268 8.33467 86.8853 8.484C 86.512 8.624 86.148 8.792 85.7933 8.988L 85.2053 7.91C 85.6253 7.66733 86.106 7.448 86.6473 7.252C 87.1886 7.056 87.7533 6.958 88.3413 6.958C 89.3026 6.958 90.0353 7.21467 90.5393 7.728C 91.0433 8.232 91.2953 8.96467 91.2953 9.926L 91.2953 14L 89.9793 14L 89.8533 13.146L 89.8113 13.146C 89.4473 13.426 89.0413 13.6687 88.5933 13.874C 88.1546 14.07 87.702 14.168 87.2353 14.168C 86.8993 14.168 86.5913 14.1167 86.3113 14.014C 86.0313 13.9207 85.7886 13.7853 85.5833 13.608C 85.378 13.4307 85.2193 13.2207 85.1073 12.978C 84.9953 12.726 84.9393 12.4507 84.9393 12.152ZM 86.4933 12.026C 86.4933 12.334 86.61 12.558 86.8433 12.698C 87.086 12.838 87.38 12.908 87.7253 12.908C 88.0706 12.908 88.402 12.8333 88.7193 12.684C 89.046 12.5253 89.368 12.32 89.6853 12.068L 89.6853 10.612C 89.0693 10.6587 88.556 10.724 88.1453 10.808C 87.7346 10.8827 87.408 10.9807 87.1653 11.102C 86.9226 11.2233 86.75 11.3633 86.6473 11.522C 86.5446 11.6713 86.4933 11.8393 86.4933 12.026ZM 93.5858 15.428C 93.6792 15.456 93.7725 15.4793 93.8658 15.498C 93.9592 15.5167 94.0572 15.526 94.1598 15.526C 94.5985 15.526 94.9485 15.414 95.2098 15.19C 95.4712 14.9753 95.6718 14.6953 95.8118 14.35L 95.9798 13.916L 92.8998 7.126L 94.5098 7.126L 95.9238 10.5C 96.0545 10.808 96.1805 11.1347 96.3018 11.48C 96.4232 11.8253 96.5492 12.1707 96.6798 12.516L 96.7358 12.516C 96.8385 12.1893 96.9505 11.8533 97.0718 11.508C 97.1932 11.1627 97.3098 10.8267 97.4218 10.5L 98.6678 7.126L 100.194 7.126L 97.3238 14.308C 97.1745 14.7 97.0065 15.05 96.8198 15.358C 96.6425 15.666 96.4325 15.9273 96.1898 16.142C 95.9472 16.366 95.6672 16.534 95.3498 16.646C 95.0325 16.7673 94.6685 16.828 94.2578 16.828C 94.0712 16.828 93.8938 16.814 93.7258 16.786C 93.5578 16.7673 93.4085 16.7347 93.2778 16.688L 93.5858 15.428ZM 106.502 16.478C 105.56 15.694 104.813 14.77 104.262 13.706C 103.721 12.642 103.45 11.4427 103.45 10.108C 103.45 8.77333 103.721 7.574 104.262 6.51C 104.813 5.446 105.56 4.522 106.502 3.738L 107.398 4.48C 106.512 5.28267 105.863 6.13667 105.452 7.042C 105.042 7.94733 104.836 8.96933 104.836 10.108C 104.836 11.2467 105.042 12.2687 105.452 13.174C 105.863 14.0793 106.512 14.9333 107.398 15.736L 106.502 16.478ZM 112.111 4.088L 116.115 4.088L 116.115 4.97L 113.357 4.97L 113.357 15.246L 116.115 15.246L 116.115 16.128L 112.111 16.128L 112.111 4.088ZM 120.505 4.088L 124.509 4.088L 124.509 4.97L 121.751 4.97L 121.751 15.246L 124.509 15.246L 124.509 16.128L 120.505 16.128L 120.505 4.088ZM 136.958 16.044C 138.144 15.568 138.741 14.8493 138.751 13.888C 138.704 13.8973 138.638 13.902 138.555 13.902C 138.2 13.902 137.892 13.7993 137.631 13.594C 137.369 13.3793 137.239 13.0667 137.239 12.656C 137.239 12.264 137.369 11.9607 137.631 11.746C 137.901 11.522 138.219 11.41 138.583 11.41C 139.086 11.41 139.465 11.5967 139.717 11.97C 139.969 12.3433 140.094 12.8567 140.094 13.51C 140.094 14.3687 139.861 15.092 139.395 15.68C 138.928 16.2773 138.256 16.7207 137.378 17.01L 136.958 16.044ZM 162.142 16.044C 163.327 15.568 163.925 14.8493 163.934 13.888C 163.887 13.8973 163.822 13.902 163.738 13.902C 163.383 13.902 163.075 13.7993 162.814 13.594C 162.553 13.3793 162.422 13.0667 162.422 12.656C 162.422 12.264 162.553 11.9607 162.814 11.746C 163.085 11.522 163.402 11.41 163.766 11.41C 164.27 11.41 164.648 11.5967 164.9 11.97C 165.152 12.3433 165.278 12.8567 165.278 13.51C 165.278 14.3687 165.045 15.092 164.578 15.68C 164.111 16.2773 163.439 16.7207 162.562 17.01L 162.142 16.044ZM 188.852 15.246L 188.852 4.97L 186.108 4.97L 186.108 4.088L 190.112 4.088L 190.112 16.128L 186.108 16.128L 186.108 15.246L 188.852 15.246ZM 195.72 16.044C 196.906 15.568 197.503 14.8493 197.512 13.888C 197.466 13.8973 197.4 13.902 197.316 13.902C 196.962 13.902 196.654 13.7993 196.392 13.594C 196.131 13.3793 196 13.0667 196 12.656C 196 12.264 196.131 11.9607 196.392 11.746C 196.663 11.522 196.98 11.41 197.344 11.41C 197.848 11.41 198.226 11.5967 198.478 11.97C 198.73 12.3433 198.856 12.8567 198.856 13.51C 198.856 14.3687 198.623 15.092 198.156 15.68C 197.69 16.2773 197.018 16.7207 196.14 17.01L 195.72 16.044ZM 120.505 21.088L 124.509 21.088L 124.509 21.97L 121.751 21.97L 121.751 32.246L 124.509 32.246L 124.509 33.128L 120.505 33.128L 120.505 21.088ZM 136.958 33.044C 138.144 32.568 138.741 31.8493 138.751 30.888C 138.704 30.8973 138.638 30.902 138.555 30.902C 138.2 30.902 137.892 30.7993 137.631 30.594C 137.369 30.3793 137.239 30.0667 137.239 29.656C 137.239 29.264 137.369 28.9607 137.631 28.746C 137.901 28.522 138.219 28.41 138.583 28.41C 139.086 28.41 139.465 28.5967 139.717 28.97C 139.969 29.3433 140.094 29.8567 140.094 30.51C 140.094 31.3687 139.861 32.092 139.395 32.68C 138.928 33.2773 138.256 33.7207 137.378 34.01L 136.958 33.044ZM 162.142 33.044C 163.327 32.568 163.925 31.8493 163.934 30.888C 163.887 30.8973 163.822 30.902 163.738 30.902C 163.383 30.902 163.075 30.7993 162.814 30.594C 162.553 30.3793 162.422 30.0667 162.422 29.656C 162.422 29.264 162.553 28.9607 162.814 28.746C 163.085 28.522 163.402 28.41 163.766 28.41C 164.27 28.41 164.648 28.5967 164.9 28.97C 165.152 29.3433 165.278 29.8567 165.278 30.51C 165.278 31.3687 165.045 32.092 164.578 32.68C 164.111 33.2773 163.439 33.7207 162.562 34.01L 162.142 33.044ZM 188.852 32.246L 188.852 21.97L 186.108 21.97L 186.108 21.088L 190.112 21.088L 190.112 33.128L 186.108 33.128L 186.108 32.246L 188.852 32.246ZM 195.72 33.044C 196.906 32.568 197.503 31.8493 197.512 30.888C 197.466 30.8973 197.4 30.902 197.316 30.902C 196.962 30.902 196.654 30.7993 196.392 30.594C 196.131 30.3793 196 30.0667 196 29.656C 196 29.264 196.131 28.9607 196.392 28.746C 196.663 28.522 196.98 28.41 197.344 28.41C 197.848 28.41 198.226 28.5967 198.478 28.97C 198.73 29.3433 198.856 29.8567 198.856 30.51C 198.856 31.3687 198.623 32.092 198.156 32.68C 197.69 33.2773 197.018 33.7207 196.14 34.01L 195.72 33.044ZM 120.505 39.088L 124.509 39.088L 124.509 39.97L 121.751 39.97L 121.751 50.246L 124.509 50.246L 124.509 51.128L 120.505 51.128L 120.505 39.088ZM 136.958 51.044C 138.144 50.568 138.741 49.8493 138.751 48.888C 138.704 48.8973 138.638 48.902 138.555 48.902C 138.2 48.902 137.892 48.7993 137.631 48.594C 137.369 48.3793 137.239 48.0667 137.239 47.656C 137.239 47.264 137.369 46.9607 137.631 46.746C 137.901 46.522 138.219 46.41 138.583 46.41C 139.086 46.41 139.465 46.5967 139.717 46.97C 139.969 47.3433 140.094 47.8567 140.094 48.51C 140.094 49.3687 139.861 50.092 139.395 50.68C 138.928 51.2773 138.256 51.7207 137.378 52.01L 136.958 51.044ZM 162.142 51.044C 163.327 50.568 163.925 49.8493 163.934 48.888C 163.887 48.8973 163.822 48.902 163.738 48.902C 163.383 48.902 163.075 48.7993 162.814 48.594C 162.553 48.3793 162.422 48.0667 162.422 47.656C 162.422 47.264 162.553 46.9607 162.814 46.746C 163.085 46.522 163.402 46.41 163.766 46.41C 164.27 46.41 164.648 46.5967 164.9 46.97C 165.152 47.3433 165.278 47.8567 165.278 48.51C 165.278 49.3687 165.045 50.092 164.578 50.68C 164.111 51.2773 163.439 51.7207 162.562 52.01L 162.142 51.044ZM 188.852 50.246L 188.852 39.97L 186.108 39.97L 186.108 39.088L 190.112 39.088L 190.112 51.128L 186.108 51.128L 186.108 50.246L 188.852 50.246ZM 197.246 50.246L 197.246 39.97L 194.502 39.97L 194.502 39.088L 198.506 39.088L 198.506 51.128L 194.502 51.128L 194.502 50.246L 197.246 50.246ZM 203.205 50.736C 204.091 49.9333 204.74 49.0793 205.151 48.174C 205.561 47.2687 205.767 46.2467 205.767 45.108C 205.767 43.9693 205.561 42.9473 205.151 42.042C 204.74 41.1367 204.091 40.2827 203.205 39.48L 204.101 38.738C 205.043 39.522 205.785 40.446 206.327 41.51C 206.877 42.574 207.153 43.7733 207.153 45.108C 207.153 46.4427 206.877 47.642 206.327 48.706C 205.785 49.77 205.043 50.694 204.101 51.478L 203.205 50.736Z"/>
<path id="path25_fill" d="M 133.38 12.684L 133.38 14L 127.178 14L 127.178 12.684L 129.586 12.684L 129.586 6.832L 127.724 6.832L 127.724 5.824C 128.228 5.74 128.657 5.642 129.012 5.53C 129.376 5.40867 129.712 5.264 130.02 5.096L 131.196 5.096L 131.196 12.684L 133.38 12.684ZM 152.012 13.062C 152.712 12.4647 153.337 11.9187 153.888 11.424C 154.438 10.92 154.905 10.4533 155.288 10.024C 155.68 9.59467 155.978 9.19333 156.184 8.82C 156.389 8.44667 156.492 8.08733 156.492 7.742C 156.492 7.266 156.347 6.89267 156.058 6.622C 155.768 6.342 155.344 6.202 154.784 6.202C 154.392 6.202 154.032 6.3 153.706 6.496C 153.388 6.692 153.094 6.92533 152.824 7.196L 151.942 6.3C 152.371 5.86133 152.824 5.52533 153.3 5.292C 153.776 5.04933 154.34 4.928 154.994 4.928C 155.451 4.928 155.866 4.99333 156.24 5.124C 156.613 5.25467 156.93 5.44133 157.192 5.684C 157.462 5.91733 157.668 6.202 157.808 6.538C 157.957 6.874 158.032 7.24733 158.032 7.658C 158.032 8.05 157.934 8.45133 157.738 8.862C 157.551 9.26333 157.294 9.674 156.968 10.094C 156.641 10.5047 156.249 10.9293 155.792 11.368C 155.344 11.8067 154.863 12.2593 154.35 12.726C 154.611 12.7073 154.886 12.6887 155.176 12.67C 155.465 12.642 155.731 12.628 155.974 12.628L 158.494 12.628L 158.494 14L 152.012 14L 152.012 13.062ZM 177.741 11.872C 178.04 12.1427 178.385 12.376 178.777 12.572C 179.178 12.7587 179.622 12.852 180.107 12.852C 180.658 12.852 181.11 12.7353 181.465 12.502C 181.829 12.2593 182.011 11.928 182.011 11.508C 182.011 11.2747 181.96 11.0647 181.857 10.878C 181.754 10.6913 181.586 10.5327 181.353 10.402C 181.129 10.2713 180.826 10.1733 180.443 10.108C 180.07 10.0333 179.608 9.996 179.057 9.996L 179.057 8.82C 179.533 8.82 179.939 8.78733 180.275 8.722C 180.611 8.64733 180.882 8.54933 181.087 8.428C 181.302 8.29733 181.456 8.14333 181.549 7.966C 181.652 7.78867 181.703 7.59733 181.703 7.392C 181.703 7.01867 181.558 6.72933 181.269 6.524C 180.989 6.30933 180.611 6.202 180.135 6.202C 179.743 6.202 179.379 6.28133 179.043 6.44C 178.716 6.58933 178.404 6.79 178.105 7.042L 177.265 6.048C 177.676 5.712 178.124 5.44133 178.609 5.236C 179.094 5.03067 179.626 4.928 180.205 4.928C 180.662 4.928 181.082 4.97933 181.465 5.082C 181.848 5.18467 182.174 5.33867 182.445 5.544C 182.725 5.74 182.94 5.98733 183.089 6.286C 183.248 6.57533 183.327 6.90667 183.327 7.28C 183.327 7.784 183.164 8.204 182.837 8.54C 182.51 8.876 182.072 9.13733 181.521 9.324L 181.521 9.38C 181.81 9.45467 182.081 9.55733 182.333 9.688C 182.594 9.80933 182.818 9.96333 183.005 10.15C 183.201 10.3367 183.355 10.5513 183.467 10.794C 183.579 11.0367 183.635 11.3027 183.635 11.592C 183.635 12.0027 183.542 12.3667 183.355 12.684C 183.178 13.0013 182.935 13.272 182.627 13.496C 182.319 13.7107 181.96 13.8787 181.549 14C 181.138 14.112 180.704 14.168 180.247 14.168C 179.482 14.168 178.828 14.0467 178.287 13.804C 177.746 13.5613 177.312 13.2627 176.985 12.908L 177.741 11.872ZM 130.874 27.458L 130.874 25.33C 130.883 25.0593 130.893 24.7653 130.902 24.448C 130.921 24.1307 130.939 23.8367 130.958 23.566L 130.888 23.566C 130.739 23.7993 130.585 24.0327 130.426 24.266C 130.267 24.4993 130.109 24.7373 129.95 24.98L 128.074 27.458L 130.874 27.458ZM 133.646 28.704L 132.386 28.704L 132.386 31L 130.874 31L 130.874 28.704L 126.436 28.704L 126.436 27.612L 130.524 22.082L 132.386 22.082L 132.386 27.458L 133.646 27.458L 133.646 28.704ZM 152.558 28.9C 152.856 29.152 153.188 29.376 153.552 29.572C 153.925 29.7587 154.368 29.852 154.882 29.852C 155.442 29.852 155.908 29.7027 156.282 29.404C 156.664 29.1053 156.856 28.6853 156.856 28.144C 156.856 27.612 156.678 27.2013 156.324 26.912C 155.978 26.6227 155.521 26.478 154.952 26.478C 154.625 26.478 154.345 26.52 154.112 26.604C 153.878 26.6787 153.608 26.8047 153.3 26.982L 152.53 26.492L 152.81 22.096L 158.06 22.096L 158.06 23.454L 154.21 23.454L 154.014 25.61C 154.247 25.5167 154.471 25.4467 154.686 25.4C 154.9 25.344 155.143 25.316 155.414 25.316C 155.834 25.316 156.23 25.372 156.604 25.484C 156.977 25.596 157.299 25.7687 157.57 26.002C 157.85 26.226 158.069 26.5153 158.228 26.87C 158.396 27.2153 158.48 27.626 158.48 28.102C 158.48 28.5873 158.386 29.0213 158.2 29.404C 158.013 29.7867 157.761 30.1087 157.444 30.37C 157.126 30.6313 156.762 30.832 156.352 30.972C 155.95 31.1027 155.526 31.168 155.078 31.168C 154.294 31.168 153.64 31.0467 153.118 30.804C 152.604 30.552 152.17 30.2627 151.816 29.936L 152.558 28.9ZM 180.737 29.936C 180.961 29.936 181.166 29.8987 181.353 29.824C 181.549 29.7493 181.722 29.642 181.871 29.502C 182.02 29.3527 182.137 29.1753 182.221 28.97C 182.305 28.7553 182.347 28.5127 182.347 28.242C 182.347 27.71 182.202 27.3133 181.913 27.052C 181.633 26.7907 181.241 26.66 180.737 26.66C 180.438 26.66 180.121 26.7393 179.785 26.898C 179.449 27.0473 179.118 27.3133 178.791 27.696C 178.894 28.4893 179.118 29.0633 179.463 29.418C 179.808 29.7633 180.233 29.936 180.737 29.936ZM 182.823 23.916C 182.618 23.72 182.366 23.5613 182.067 23.44C 181.778 23.3093 181.474 23.244 181.157 23.244C 180.84 23.244 180.536 23.3 180.247 23.412C 179.967 23.524 179.715 23.7107 179.491 23.972C 179.276 24.2333 179.099 24.5787 178.959 25.008C 178.828 25.428 178.754 25.946 178.735 26.562C 179.08 26.226 179.458 25.9647 179.869 25.778C 180.28 25.582 180.681 25.484 181.073 25.484C 181.474 25.484 181.843 25.54 182.179 25.652C 182.515 25.764 182.804 25.9367 183.047 26.17C 183.299 26.394 183.495 26.6787 183.635 27.024C 183.775 27.3693 183.845 27.7753 183.845 28.242C 183.845 28.69 183.761 29.096 183.593 29.46C 183.425 29.8147 183.196 30.118 182.907 30.37C 182.627 30.622 182.3 30.818 181.927 30.958C 181.554 31.098 181.162 31.168 180.751 31.168C 180.284 31.168 179.836 31.084 179.407 30.916C 178.987 30.7387 178.614 30.4727 178.287 30.118C 177.97 29.7633 177.713 29.3107 177.517 28.76C 177.33 28.2093 177.237 27.5607 177.237 26.814C 177.237 25.946 177.34 25.204 177.545 24.588C 177.76 23.972 178.044 23.468 178.399 23.076C 178.754 22.684 179.155 22.3947 179.603 22.208C 180.06 22.0213 180.536 21.928 181.031 21.928C 181.619 21.928 182.132 22.026 182.571 22.222C 183.019 22.418 183.392 22.656 183.691 22.936L 182.823 23.916ZM 128.844 49C 128.881 48.2067 128.956 47.4833 129.068 46.83C 129.189 46.1673 129.357 45.542 129.572 44.954C 129.796 44.3567 130.076 43.778 130.412 43.218C 130.748 42.6487 131.159 42.0607 131.644 41.454L 126.842 41.454L 126.842 40.096L 133.422 40.096L 133.422 41.076C 132.843 41.72 132.372 42.336 132.008 42.924C 131.644 43.5027 131.355 44.0953 131.14 44.702C 130.925 45.3087 130.771 45.962 130.678 46.662C 130.585 47.3527 130.519 48.132 130.482 49L 128.844 49ZM 153.426 46.55C 153.426 46.998 153.603 47.3573 153.958 47.628C 154.312 47.8893 154.774 48.02 155.344 48.02C 155.885 48.02 156.31 47.9033 156.618 47.67C 156.926 47.4367 157.08 47.11 157.08 46.69C 157.08 46.438 157.014 46.2233 156.884 46.046C 156.762 45.8687 156.59 45.7147 156.366 45.584C 156.151 45.4533 155.894 45.3367 155.596 45.234C 155.297 45.122 154.97 45.0053 154.616 44.884C 154.27 45.0893 153.986 45.3273 153.762 45.598C 153.538 45.8593 153.426 46.1767 153.426 46.55ZM 155.974 43.974C 156.562 43.498 156.856 42.9847 156.856 42.434C 156.856 42.042 156.725 41.72 156.464 41.468C 156.202 41.2067 155.824 41.076 155.33 41.076C 154.91 41.076 154.564 41.1833 154.294 41.398C 154.032 41.6033 153.902 41.902 153.902 42.294C 153.902 42.518 153.953 42.714 154.056 42.882C 154.158 43.05 154.303 43.1993 154.49 43.33C 154.676 43.4513 154.896 43.568 155.148 43.68C 155.4 43.7827 155.675 43.8807 155.974 43.974ZM 151.998 46.718C 151.998 46.4287 152.044 46.1673 152.138 45.934C 152.24 45.7007 152.376 45.4953 152.544 45.318C 152.712 45.1313 152.903 44.968 153.118 44.828C 153.342 44.6787 153.57 44.548 153.804 44.436L 153.804 44.38C 153.43 44.1373 153.113 43.848 152.852 43.512C 152.6 43.176 152.474 42.77 152.474 42.294C 152.474 41.93 152.544 41.6033 152.684 41.314C 152.833 41.0247 153.034 40.7773 153.286 40.572C 153.547 40.3667 153.85 40.208 154.196 40.096C 154.55 39.984 154.938 39.928 155.358 39.928C 156.244 39.928 156.94 40.1473 157.444 40.586C 157.957 41.0247 158.214 41.608 158.214 42.336C 158.214 42.756 158.083 43.1387 157.822 43.484C 157.56 43.8293 157.248 44.1233 156.884 44.366L 156.884 44.422C 157.126 44.5433 157.35 44.674 157.556 44.814C 157.77 44.954 157.952 45.1173 158.102 45.304C 158.26 45.4813 158.382 45.6913 158.466 45.934C 158.559 46.1673 158.606 46.438 158.606 46.746C 158.606 47.0913 158.531 47.4133 158.382 47.712C 158.242 48.0013 158.032 48.258 157.752 48.482C 157.472 48.6967 157.126 48.8647 156.716 48.986C 156.305 49.1073 155.838 49.168 155.316 49.168C 154.802 49.168 154.34 49.1073 153.93 48.986C 153.519 48.8647 153.169 48.6967 152.88 48.482C 152.6 48.2673 152.38 48.0107 152.222 47.712C 152.072 47.4133 151.998 47.082 151.998 46.718ZM 180.219 44.436C 180.527 44.436 180.849 44.3567 181.185 44.198C 181.521 44.0393 181.852 43.7687 182.179 43.386C 182.076 42.602 181.852 42.0373 181.507 41.692C 181.162 41.3373 180.737 41.16 180.233 41.16C 180.009 41.16 179.799 41.1973 179.603 41.272C 179.407 41.3467 179.234 41.454 179.085 41.594C 178.945 41.734 178.828 41.9113 178.735 42.126C 178.651 42.3313 178.609 42.5693 178.609 42.84C 178.609 43.372 178.749 43.7733 179.029 44.044C 179.318 44.3053 179.715 44.436 180.219 44.436ZM 178.133 47.18C 178.348 47.376 178.6 47.5393 178.889 47.67C 179.178 47.7913 179.486 47.852 179.813 47.852C 180.121 47.852 180.415 47.796 180.695 47.684C 180.984 47.572 181.236 47.3853 181.451 47.124C 181.675 46.8627 181.857 46.522 181.997 46.102C 182.137 45.6727 182.216 45.15 182.235 44.534C 181.88 44.8607 181.498 45.122 181.087 45.318C 180.686 45.5047 180.289 45.598 179.897 45.598C 179.496 45.598 179.122 45.542 178.777 45.43C 178.441 45.318 178.152 45.15 177.909 44.926C 177.666 44.6927 177.475 44.4033 177.335 44.058C 177.195 43.7127 177.125 43.3067 177.125 42.84C 177.125 42.392 177.209 41.9907 177.377 41.636C 177.545 41.272 177.769 40.964 178.049 40.712C 178.329 40.46 178.656 40.2687 179.029 40.138C 179.402 39.998 179.794 39.928 180.205 39.928C 180.681 39.928 181.129 40.0167 181.549 40.194C 181.978 40.362 182.352 40.6233 182.669 40.978C 182.996 41.3327 183.252 41.7853 183.439 42.336C 183.626 42.8773 183.719 43.5213 183.719 44.268C 183.719 45.136 183.612 45.878 183.397 46.494C 183.192 47.11 182.912 47.6187 182.557 48.02C 182.212 48.412 181.81 48.7013 181.353 48.888C 180.896 49.0747 180.424 49.168 179.939 49.168C 179.351 49.168 178.833 49.07 178.385 48.874C 177.937 48.678 177.564 48.44 177.265 48.16L 178.133 47.18Z"/>
</defs>
</svg>
